<?xml version="1.0" encoding="utf-8"?>
<!-- Generator: Adobe Illustrator 19.0.0, SVG Export Plug-In . SVG Version: 6.00 Build 0)  -->
<svg version="1.1" xmlns="http://www.w3.org/2000/svg" xmlns:xlink="http://www.w3.org/1999/xlink" x="0px" y="0px"
	 viewBox="0 0 514.8 416" style="enable-background:new 0 0 514.8 416;" xml:space="preserve">
<style type="text/css">
	.st0{fill:#7099D0;}
	.st1{opacity:0.5;fill:#4DFF55;stroke:#000000;stroke-width:1.0103;stroke-miterlimit:10;}
	.st2{opacity:0.5;fill:#4DFF55;stroke:#000000;stroke-width:1.0414;stroke-miterlimit:10;}
	.st3{fill:#FFFFFF;}
	.st4{fill:#EBB0AE;}
	.st5{fill:#CB8481;}
	.st6{fill:#392E38;}
	.st7{fill:#DAADAC;}
	.st8{fill:#202F43;}
</style>
<g id="BACKGROUND">
</g>
<g id="Warstwa_3">
</g>
<g id="OBJECTS">
	<path id="XMLID_126_" class="st0" d="M434.6,255.8c11.9-7.2,21-17,26.4-29.8c6.2-14.6,4.3-28.5-4.9-41.4
		c-4.6-6.5-11.1-10.5-19-11.9c-5.9-1.1-11.9-1.4-18-1.4c-4.5,0-8.7,1-12.8,2.5c-4.2,1.6-7.6,4.3-10.5,7.7c-0.6,0.7-0.9,1.3-0.9,2
		c-1-0.9-1.9-2-2.9-3.2c0.6-1.1,1.2-2.3,1.6-3.5c6.7-18.9,8.8-38.3,5.5-58.1c-3.9-23.8-14.1-44.8-30.6-62.4
		C343.4,29.3,312,15.8,275.5,14c-25.1-1.2-48.9,4.4-71.1,16.3c-45.7,24.5-72.5,73.3-65.7,123.4c0.2,1.4,0.4,2.7,0.6,4
		c0.4,5.2,1.2,10.7,2.4,16.6c2.2,10.7,12.8,62.7,58.7,91.3c41.6,25.9,96.9,23.1,122.7,9.9c5.2,17.8,16.6,31.2,23.3,38.1
		c0-0.1,0.1-0.1,0.1-0.2c0.4,0.5,0.7,1.1,1.1,1.6c4.1,5.2,8.3,10.2,13,14.8c10,9.7,21.7,15.8,35.6,17.5c13.8,1.7,26.7-1.1,37.9-9.2
		c11.8-8.5,17.5-20.3,15.5-35.1c-1.2-9.1-5.4-16.9-11.7-23.6c-6.2-6.6-13.7-11.4-22.8-14.1c1.3-1.3,2.5-1.5,3.7-2
		C424.2,261.2,429.6,258.8,434.6,255.8z"/>
	<rect id="XMLID_534_" x="2368.6" y="-1281.4" class="st1" width="510" height="80"/>
	<rect id="XMLID_533_" x="2365.9" y="-1375.9" class="st1" width="510" height="80"/>
	<rect id="XMLID_532_" x="2369.1" y="-1411" class="st1" width="510" height="80"/>
	<rect id="XMLID_528_" x="2366.1" y="-1488.9" class="st2" width="512" height="304"/>
	<path id="XMLID_154_" class="st3" d="M1726.8,213.6c-2.4,0.9-4.8,1.9-7.3,2.8c-1.2,0.5-1.9-0.4-2.5-1.3c-0.6-0.9-0.3-1.7,0.5-2.3
		c3-2.1,6-4.1,9-6.2c0.3-0.2,0.7-0.2,1-0.3c0.3,0.2,0.6,0.3,0.8,0.6c0.2,0.3,0.4,0.6,0.5,0.9
		C1730.4,211.7,1730.9,212.1,1726.8,213.6z"/>
	<path id="XMLID_155_" class="st3" d="M1729.6,227.3c-1.5,5.6-4.3,10.6-8.1,15c-1.9,2.3-1.9,2.2-4.7,1.1c-1.4-0.6-2.9-1.2-4.4-1.5
		c-1.5-0.3-3.1-0.3-4.5,0.6c-0.6,0.4-1.2,1-1,1.7c0.2,0.7,1,1,1.7,0.7c2.3-1,4.4-0.3,6.5,0.5c1.5,0.6,1.6,1.5,0.2,2.6
		c-3.6,2.8-7.7,4.7-12.2,5.6c-2,0.4-3,1.1-3.2,3.2c-0.5,4.8-1.8,9.5-3.2,14.2c-5.8,20.1-14.8,38.5-28.5,54.5
		c-11.3,13.1-24.7,23.3-41.3,28.9c-6.1,2.1-12.4,3.1-18.8,4.1c-4.8,0.7-9.7,1.3-14.5,0.7c-9.9-1.2-19.3-4-28.2-8.6
		c-12.7-6.6-23.2-15.8-32.1-26.9c-11.3-13.9-19.2-29.7-24.7-46.7c-2-6.3-3.7-12.6-4.7-19.2c-0.3-1.9-1.2-2.9-3.3-3.3
		c-4.1-0.7-7.9-2.5-11.4-4.9c-2-1.5-2.1-2.5,0.1-3.9c1.3-0.8,2.8-1.4,4.2-2.1c0.6-0.3,1.3-0.5,1.9-0.9c0.4-0.3,0.7-0.8,0.3-1.4
		c-0.2-0.3-0.5-0.6-0.8-0.6c-0.7-0.1-1.4,0-2,0.1c-2.4,0.7-4.5,1.8-6.4,3.3c-2,1.5-2.1,1.5-3.7-0.4c-4.7-5.3-8-11.4-9.3-18.4
		c-1.1-5.7-1.1-11.4,1.4-16.9c3.5-7.7,9.3-11.9,17.9-11.9c2.6,0,5.2,0.1,7.7,1.1c0.8,0.3,1.6,0.5,2.5,0.8c0.7,0.2,1.5,0,1.8-0.6
		c0.1-0.3,0.2-0.5,0.1-0.8c0.8-0.1,1.2-0.8,1.3-2.3c0.4-3.8,1.5-7.5,2.9-11c3.3-8.2,8.3-15.2,14.3-21.5c5.4-5.7,11.6-10.5,17.8-15.2
		c6.2-4.8,12-10,17.4-15.7c7.3-7.8,13.6-16.2,16.8-26.6c0.1-0.4,0.5-1,0.9-1.1c0.3-0.1,0.9,0.4,1.1,0.7c2.7,3.9,6,7.2,9.5,10.3
		c8.2,7.4,17.6,12.9,27.6,17.5c10.2,4.8,20.9,8.6,31.4,12.5c5.7,2.1,11.3,4.4,16.7,7.2c8.7,4.6,16.5,10.2,23.1,17.6
		c6.1,6.9,10.8,14.5,12.5,23.6c0.1,0.7,0.3,1.4,0.6,2c0.1,0.2,0.2,0.4,0.4,0.6c-0.3,0.4-0.3,0.8-0.1,1.2c0.8,1.1,1.9,0.6,2.8,0.2
		c3.6-1.4,7.4-1.7,11.3-1.4c4.9,0.4,8.9,2.5,12.2,6.2c0.7,0.7,0.7,1.6-0.2,2.2c-3.1,2.2-6.3,4.4-9.4,6.6c-1.2,0.8-2.2,0.5-3.4-0.1
		c-3.2-1.8-6.4-0.8-9.6-0.2c-0.5,0.1-0.8,0.6-0.8,1.2c0,0.6,0.4,0.9,1,0.9c2.1,0,4.2-0.1,6.2-0.1c0.9,0,2,0.2,2,1.2
		c0.1,2,1,2.7,2.9,2.7c0.7,0,1.1,0.8,0.7,1.6c-0.3,0.4-0.8,0.7-1,1.1c-0.5,0.9-0.5,1.9,0.6,2c1.7,0,2.1,0.8,2,2.3
		c-0.2,2.5-1.3,4.6-2.7,6.6c-0.9,1.3-1.9,2.5-2.7,3.8c-0.3,0.4-0.3,1,0.3,1.3c0.5,0.3,1,0.4,1.4,0c3.1-2.9,6.1-6.2,6-10.6
		c-0.1-4.4,1.8-6.2,5.6-7.2c1.5-0.4,2.9-1.2,4.4-1.7s2.2,0.1,2.3,1.8C1731.2,220.9,1730.5,224.1,1729.6,227.3z"/>
	<g id="XMLID_176_">
		<g id="XMLID_453_">
			<circle id="XMLID_455_" class="st4" cx="1058.7" cy="-1395.9" r="20.1"/>
			<circle id="XMLID_454_" class="st4" cx="923.3" cy="-1395.9" r="20.1"/>
		</g>
		<g id="XMLID_177_">
			<path id="XMLID_452_" class="st5" d="M986.4-1520c-1.7,0.5-2.4,1.9-3.4,2.8c-5.2,4.6-11.1,6.8-18.2,5.8c-2.8-0.4-5.5-0.9-8.2-1.6
				c-2.5-0.7-2.5-0.7-3.9,1.7c-0.9,1.5-1.7,3-2.8,4.4c-4.5,5.8-11.1,7.8-18.1,5.6c-2.3-0.7-4.6-1.7-6.9-2.5c-1,1.3-1.1,2.9-1.4,4.3
				c-1.9,7.5-6.3,12.2-14.4,12.9c-2.4,0.2-4.8,0.5-7.2,0.8c-2,0.2-2.4,0.6-2,2.6c1.1,5.8,0.2,11.4-2,16.8c-1.8,4.5-4.4,8.3-8.6,10.8
				c-2,1.2-3.2,2.6-3.2,4.9c0,1.2-0.6,2.4-1.3,3.3c-1.6,2-3.2,3.2-6.2,2.5c-5-1.2-10-0.6-14.5,2.4c-5.1,3.5-8.4,8.3-9.4,14.4
				c-0.6,4.1-0.9,8.2-0.3,12.4c0.8,5.7,2.9,10.7,6.7,14.9c2,2.2,4,4.3,5.9,6.6c1.3,1.6,1.1,2.8-0.6,3.9c-1.9,1.3-4,2-6.3,2.3
				c-3.2,0.4-6.2,0-9.2-1.2c-6.5-2.5-9.9-8.2-9.4-15.2c0.2-2.4,2.3-4.9,0.8-6.9c-1.2-1.7-3.7-2.4-5.6-3.7
				c-7.8-5.4-13.6-12.2-16-21.7c-2.7-10.5,1.3-23.7,11.6-30c1.2-0.8,3.3-1.1,3.3-2.9c-0.1-1.2-1.2-2.4-2-3.6
				c-2.4-3.6-3.5-7.6-3.8-11.8c-0.5-6.7,0.5-13.2,4-19c3-5,7.4-8.2,13.2-9.2c2.8-0.5,2.9-0.6,2.4-3.6c-1.1-7-0.6-13.9,2.2-20.4
				c2.8-6.6,7.4-11.2,14.2-13.6c2.6-0.9,2.7-1,2-3.7c-2.6-10.5-0.4-20.1,5.9-28.6c7.3-9.9,17.3-15.5,29.5-16.5
				c6.4-0.5,12.4,1.4,17.6,5.3c1.4,1,2.7,2.1,4.1,3.2c0.4,0.3,1,0.3,1.3-0.2c0.6-1,1.2-2.1,1.8-3.2c2.7-4.5,6.2-8.4,10.8-11.1
				c8.6-5,17.4-5.4,26.4-1c4.9,2.4,9.3,5.4,13.6,8.7c0.8,0.6,1.4,1.5,2.7,1.7c1.2-1.5,2.5-3.2,3.8-4.8c2.8-3.6,6.3-6.4,10.3-8.6
				c4.4-2.4,9.1-3.3,14.1-3.1c7.5,0.4,13.2,3.9,17,10.3c1.8,3.1,3.3,6.5,5,9.7c1,2,1.1,2.1,3.1,1c9.1-4.8,18.9-6.8,29.2-6
				c17.7,1.3,28.4,13.9,31,25.2c0.7,3,0.9,6.2,1.3,9.3c0.4,2.8,0.4,2.9,3.4,3.4c4.3,0.7,8.5,1.5,12.7,2.8c5.9,1.8,11.2,4.7,15.6,9.1
				c6.8,6.7,10.1,14.8,9,24.5c-0.4,3.3-1.6,6.4-2.8,9.4c1.2,1.2,2.6,1.2,3.9,1.5c16.9,4.7,29.7,19.9,31,37.2
				c0.4,5.1-0.9,10-3.5,14.5c-2.1,3.8-4.5,7.4-7.4,10.7c-1.6,1.8-1.8,3.5-0.8,5.7c0.8,1.7,1.2,3.6,1.5,5.5c1.1,6.8-0.1,13-3.9,18.9
				c-3.6,5.6-8,10-14.1,12.7c-0.3,0.1-0.6,0.3-0.9,0.5c-2.6,0.9-4.2,2.5-5.1,5.3c-1.4,4.6-4.3,8.3-8,11.3c-3.4,2.8-7.2,4.8-11.5,5.8
				c-6.1,1.5-11.7,0.2-17-2.9c-2.1-1.3-2.1-3.2-0.1-4.5c11.2-7.1,15.6-17.7,15.5-30.5c-0.1-5.5-1.9-10.6-4.6-15.3
				c-1.7-2.9-4.2-5.1-7.3-6.4c-4.1-1.6-8.2-2.6-12.7-1.8c-4.7,0.9-7.6-0.7-9.7-5c-1.6-3.2-2.2-6.6-2.2-10.1c0-4.9,0.8-9.7,1.8-14.4
				c0.5-2,0.2-2.3-2-2.6c-1.7-0.2-3.4-0.5-5.2-0.6c-7.2-0.7-12.3-4.3-15.3-10.9c-1.1-2.4-1.1-2.4-3.9-1.8c-2.7,0.6-5.5,1-8.2,1.1
				c-3.5,0.1-6.9-0.6-10.1-2c-4.4-1.9-7.6-4.8-9.3-9.3c-0.3-0.8-0.7-1.6-1-2.4c-0.3-0.7-1-0.9-1.7-0.8c-1.7,0.4-3.4,0.8-5.1,1.2
				c-3.6,0.8-7.2,1.2-10.8,0.9c-7.7-0.6-13.4-4.3-17.1-11.1C988.5-1515.3,987.6-1517.5,986.4-1520z"/>
			<path id="XMLID_451_" class="st5" d="M989.9-1091.2c-34.2,0-68.4-0.1-102.6,0c-27.4,0.1-54.9,0.2-82.3,0.6
				c-16.8,0.3-33.6,1.1-50.5,1.8c-6.4,0.2-12.8,0.5-19.3,0.7c-2.9,0.1-3.4-0.5-2.7-3.4c0.9-3.7,2-7.4,3-11.1c0.3-1.1,1-1.8,2.2-1.9
				c0.7-0.1,1.4-0.1,2.1-0.1c9.4-0.4,18.7-0.7,28.1-1.2c28.4-1.6,56.9-2,85.3-2.5c28.5-0.4,56.9-0.3,85.4-0.4
				c21.4-0.1,42.7,0,64.1-0.3c15.3-0.2,30.5-1,45.8-1.6c11.1-0.4,22.2-0.9,33.3-1.2c24.8-0.8,49.6-1.5,74.4-2.3
				c12.1-0.4,24.3-0.7,36.4-0.9c15.6-0.3,31.2,0.2,46.8,0.9c3.3,0.1,3.4,0.1,4.3,3.3c1.2,4,2.2,8,3.2,12.1c0.5,1.9,0,2.5-2.1,2.4
				c-2.9,0-5.9-0.1-8.8-0.3c-14.2-0.8-28.5-0.9-42.7-0.7c-20.1,0.3-40.3,0.9-60.4,1.4c-11.1,0.3-22.2,0.5-33.3,1
				c-20.5,0.8-40.9,1.7-61.4,2.6c-2.9,0.1-5.9,0.2-8.8,0.3c-13.2,0.3-26.4,0.7-39.6,1C989.9-1091.1,989.9-1091.2,989.9-1091.2z"/>
			<path id="XMLID_450_" class="st5" d="M988.4-1122.1c-59.3,1.2-121.1,0.8-182.9,1.3c-19.1,0.2-38.2,0.5-57.3,0.8
				c-1.6,0-3.1,0-4.7-0.1c-0.5,0-0.8-0.5-0.8-1.1c0-0.3,0.2-0.7,0.3-1c2-3.8,4.1-7.7,6-11.5c0.9-1.8,2.2-2.5,4.1-2.5
				c3.1,0,6.2-0.3,9.4-0.3c38.7-0.6,77.4-1.4,116.1-1.6c29.3-0.2,58.7-0.7,88-1.1c19.6-0.3,39.2-0.4,58.8-0.9
				c18.7-0.4,37.5-1.3,56.2-1.8c23.4-0.6,46.9-1.3,70.3-0.9c24.1,0.4,48.3,0.8,72.4,1.2c2.4,0,4.9,0.2,7.3,0.3
				c1.1,0.1,1.9,0.6,2.4,1.7c1.9,4.5,3.7,9,5,13.7c0.4,1.3-0.2,2-1.5,2.1c-0.5,0-1,0-1.6,0c-18.4-0.3-36.8-0.3-55.2-0.8
				c-22.7-0.7-45.5-0.7-68.2-0.4c-16.8,0.2-33.7,1-50.5,1.5c-2.8,0.1-5.6,0.2-8.3,0.2C1032.9-1122.9,1011.9-1121.9,988.4-1122.1z"/>
			<path id="XMLID_449_" class="st5" d="M993.5-1159.5c-15.5,0-30.9-0.1-46.4,0c-21.9,0.2-43.7,0.6-65.6,1.1
				c-20.1,0.5-40.2,1.3-60.4,2c-17.3,0.6-34.7,1.3-52,1.8c-2.2,0.1-4.5,0.4-6.7-0.3c0-2.8,2.4-4,3.9-5.8c2.3-2.6,4.9-4.9,7.2-7.5
				c2-2.2,4.3-3.2,7.3-3.2c5.9-0.1,11.8-0.5,17.7-0.7c12.8-0.5,25.7-0.9,38.5-1.5c26.5-1.3,53.1-2.1,79.6-2.8
				c28.3-0.7,56.6-1.1,84.9-0.8c25.5,0.3,51,0.5,76.6,1c32.5,0.7,64.9,0.6,97.4,1c12,0.1,24,0.5,35.9,0.5c2.8,0,4.5,1,5.9,3.3
				c2.5,4.2,5.5,8,7.6,12.4c0.6,1.2,0.1,2-1.3,2c-4.2,0-8.3,0-12.5-0.1c-22.4-0.2-44.8-0.4-67.2-0.7c-39.4-0.5-78.8-0.9-118.2-1.4
				c-10.8-0.1-21.5-0.4-32.3-0.6C993.5-1159.6,993.5-1159.6,993.5-1159.5z"/>
			<path id="XMLID_448_" class="st5" d="M1023.6-1196.3c0.7-1.4,2.1-1.4,3.1-1.8c3.7-1.6,7.4-2.9,11.1-4.5c5.1-2.2,10-4.9,14.2-8.6
				c2.4-2.1,4.9-2.8,8-2.8c20.1,0.1,40.3,0,60.4,0.2c18.2,0.1,36.4,0.6,54.7,0.7c2.8,0,5,0.8,7.1,2.5c4.9,4.1,9.9,8.2,14.8,12.3
				c0.7,0.5,1.3,1.2,1.8,1.9c0.3,0.4,0.4,1.1-0.4,1.1c-2.1,0.1-4.2,0.2-6.2,0.1c-23.1-0.3-46.2-0.7-69.3-1
				c-30.9-0.4-61.8-0.2-92.7,0.1C1028.1-1196,1025.8-1195.7,1023.6-1196.3z"/>
			<path id="XMLID_447_" class="st5" d="M969.3-1195.7c-1.4,1.1-2.8,0.8-4.1,0.8c-16,0.2-31.9,0.6-47.9,0.6
				c-36.6,0.1-73.2,0.2-109.9,0.2c-1.4,0-2.8,0-4.2-0.1c-0.3,0-0.7-0.2-0.8-0.5c-0.1-0.3,0-0.8,0.2-0.9c1.5-1.2,3-2.3,4.6-3.4
				c5-3.5,10-6.8,15.5-9.6c3-1.5,6.1-2.3,9.5-2.3c12,0,23.9-0.2,35.9-0.3c20-0.2,39.9-0.4,59.9-0.7c3.1-0.1,5.5,0.8,8.1,2.6
				c7.5,5.2,15.9,8.4,24.7,10.8C963.6-1197.7,966.5-1197,969.3-1195.7z"/>
			<path id="XMLID_446_" class="st5" d="M1078.1-1227.4c-2.2,0-4.4,0-6.7,0c-1.4,0-1.8-0.8-0.9-2c2.7-3.9,5.3-7.7,7.2-12
				c0.5-1.2,1.4-1.9,2.8-2c1.7-0.1,3.4-0.4,5.2-0.5c7.1-0.4,14.2-0.6,21.3-1.1c3.3-0.2,6.5,0.3,9.7,1.5c9.4,3.5,18.8,7.1,27.9,11.3
				c0.8,0.4,1.6,0.7,2.3,1.2c0.2,0.1,0.3,0.6,0.3,0.9c0,0.1-0.2,0.2-0.4,0.2c-0.9,0.1-1.7,0.2-2.6,0.2c-17.5,0.5-35,0.9-52.5,1.4
				C1087.2-1228.1,1082.7-1227.7,1078.1-1227.4z"/>
			<path id="XMLID_445_" class="st5" d="M856.8-1223.5c0.5-1.6,1.8-1.7,2.9-2.1c5.8-2.3,11.6-4.5,17.4-6.8c4.6-1.9,9.2-4,13.7-6.2
				c2.1-1,4.1-1.7,6.4-1.6c2.8,0.2,5.7-0.5,8.2,0.4c2.4,0.8,2.9,4.1,4.5,6.1c2.2,2.7,4.3,5.4,6.4,8.2c0.6,0.8,0.2,1.7-0.9,1.8
				c-0.9,0.1-1.7,0.1-2.6,0.1c-10.7-0.7-21.5-0.2-32.2,0c-7.1,0.1-14.2,0.1-21.3,0.2C858.6-1223.3,857.8-1223.4,856.8-1223.5z"/>
			<path id="XMLID_444_" class="st5" d="M1005.2-1228.5c0.6-1.3,1-2.6,1.7-3.7c2.4-3.9,7.2-4.9,10.9-2.4c3.5,2.4,4.3,7.1,1.9,10.6
				c-2.5,3.6-7.4,4.3-11,1.7c-1.1-0.8-1.5-2.3-2.9-2.8c-1.3,0.7-1.2,2.1-2,3c-2.9,3.7-8.1,4.3-11.4,1.2c-3.1-2.8-3.2-7.7-0.4-10.8
				c3.1-3.4,8.3-3.2,11.5,0.4C1004.1-1230.4,1004.6-1229.5,1005.2-1228.5z"/>
			<path id="XMLID_443_" class="st5" d="M1060-1245c-4.9,0.1-8.7-3.1-8.8-7.6c-0.2-4.4,3.4-8.2,7.7-8c5.1,0.3,8.6,3.9,8.6,8
				C1067.5-1248.3,1064.4-1245.1,1060-1245z"/>
			<path id="XMLID_442_" class="st5" d="M1037.6-1232c0.1,4.2-3.3,7.7-7.5,7.7c-4.1,0.1-7.7-3.4-7.8-7.5c-0.1-4.2,3.3-7.7,7.5-7.8
				C1034-1239.6,1037.5-1236.2,1037.6-1232z"/>
			<path id="XMLID_441_" class="st5" d="M1046.2-1232.6c-4.2-0.1-7.5-3.6-7.4-7.8c0.1-4.2,3.6-7.6,7.8-7.5c4.2,0.1,7.5,3.6,7.4,7.9
				C1053.9-1235.9,1050.5-1232.5,1046.2-1232.6z"/>
			<path id="XMLID_440_" class="st5" d="M945.6-1246.3c4.1,0.4,7.2,4.2,6.9,8.2c-0.4,4.1-4,7.3-8.1,7c-4.1-0.3-7.4-4-7.2-8
				C937.5-1243.4,941.3-1246.7,945.6-1246.3z"/>
			<path id="XMLID_439_" class="st5" d="M987.1-1227.7c0,4.3-3.3,7.6-7.5,7.6c-4.3,0-7.6-3.3-7.6-7.5c0-4.3,3.2-7.6,7.5-7.7
				C983.7-1235.3,987.1-1231.9,987.1-1227.7z"/>
			<path id="XMLID_438_" class="st5" d="M927.7-1240.6c-4.3,0-7.6-3.4-7.5-7.6c0-4.2,3.5-7.6,7.7-7.5c4.3,0,7.6,3.4,7.6,7.6
				C935.3-1243.8,932-1240.5,927.7-1240.6z"/>
			<path id="XMLID_437_" class="st5" d="M962.9-1223.1c-4.3,0-7.5-3.3-7.5-7.6c0-4.3,3.3-7.5,7.6-7.5c4.3,0,7.5,3.3,7.5,7.6
				C970.5-1226.4,967.2-1223.1,962.9-1223.1z"/>
			<path id="XMLID_206_" class="st6" d="M938.1-1420.1c-6.1,0.2-11.1-0.7-15.9-2.2c-2.8-0.9-5.5-2.2-7.7-4.1
				c-4.1-3.4-5.3-8-3.6-13.1c2-6.2,6.6-9.6,12.7-11c9.7-2.2,19.3-1.1,28.5,2.5c2.9,1.1,5.5,2.9,7.8,5c5.1,4.7,4.2,13-0.7,17
				c-3.2,2.5-6.9,4-10.8,4.9C944.6-1420.4,940.8-1420.2,938.1-1420.1z M920-1446.6c-5.1,3.3-7.5,7.1-7.1,12.1c0.3,4.1,3,6.6,7.4,8.3
				C917.6-1433,918-1439.4,920-1446.6z M960.8-1434.7c0-3.3-1.7-5.7-4.1-7.5c-0.7-0.5-1.8-1.3-2.2-1.1c-1.1,0.6-0.4,1.8-0.2,2.7
				c0.5,1.7,0.4,3.4,0.5,5.1c0.2,2.6-0.5,5.1-0.9,7.7c-0.1,0.8,0.6,1.4,1.2,1.1C958.7-1428.3,960.3-1431.2,960.8-1434.7z"/>
			<path id="XMLID_202_" class="st6" d="M1031.9-1417c-4.4-0.1-9.2-0.4-13.8-2.1c-2.3-0.8-4.5-1.9-6.5-3.3c-5.8-4.1-6.8-12.9-0.9-18
				c3-2.5,6.3-4.4,9.9-5.5c8.4-2.5,16.9-3.5,25.6-1.5c6.3,1.4,11.1,4.7,13.1,11.2c1.6,5.1,0.3,9.6-3.8,13c-2.3,1.9-4.9,3.2-7.8,4.1
				C1042.7-1417.6,1037.6-1416.7,1031.9-1417z M1017.7-1441.4c-2.2,0.4-3.9,1.9-5.4,3.4c-4,4-3.8,9.5,0.6,13.1
				c1.6,1.3,3.5,2.2,5.4,2.9c0.4,0.2,1,0.3,1.4,0.1c0.6-0.3,0.2-0.9-0.1-1.3c-2.8-4.7-3-9.8-2.2-15
				C1017.5-1439.2,1018.4-1440.1,1017.7-1441.4z M1049.9-1423c4.7-2.1,7.3-4.9,7.3-9.4c0-2.3-0.8-4.4-2-6.3
				c-1.1-1.7-2.3-3.3-4.8-4.1C1052.5-1436.2,1053.1-1430,1049.9-1423z"/>
			<path id="XMLID_197_" class="st6" d="M989.5-1078.1c-32.8,0.3-65.6,0.4-98.4,1.1c-27.1,0.6-54.2,0.4-81.2,1
				c-23.8,0.5-47.6,0.6-71.3,0.9c-1.6,0-3.1,0-4.7,0c-2.4-0.1-3.2-0.7-3.4-3c-0.3-3.8-0.1-7.6,0.6-11.4c1.1-6.2,3-12.2,5.2-18
				c3.8-9.9,8.3-19.5,13.3-28.8c9.2-17,21.5-31.5,35.3-44.8c5.8-5.5,11.6-11,18-15.8c8.1-6,16.6-11.3,25.7-15.8
				c21.9-11,44.6-20.1,67.6-28.3c15.9-5.7,26.6-16.6,30.7-33.4c1.5-6.3,2.6-12.6,2.5-19c-0.1-3.4-0.1-3.5-3.1-4.5
				c-9.2-3-16.5-8.7-22.4-16.3c-7.4-9.6-12.5-20.3-15-32.3c-2.3-11.1-3.7-22.2-5-33.4c-0.3-2.6-0.5-3-2.9-3.5
				c-15.1-3.3-29.9-20.9-28.7-40c0.2-3.3,0.9-6.5,2.2-9.6c6.2-14.2,20.8-15.9,31-11.6c0.5,0.2,0.9,0.6,1.2,0.9
				c0.2,0.2,0.3,0.7,0.2,1c-0.1,0.3-0.4,0.6-0.7,0.7c-1.3,0.3-2.4-0.3-3.5-0.7c-3.5-1.1-7.1-1.7-10.8-1c-7.2,1.4-12.3,5.5-15,12.3
				c-2.1,5.3-2.4,10.8-1.2,16.4c2.3,10.5,7.8,18.8,16.7,24.8c3.3,2.3,7,3.8,11,4.4c2.5,0.4,2.8,0.8,2.9,3.4
				c0.6,9.7,2.2,19.3,3.8,28.9c1.5,9.1,3.8,18,8.3,26.2c3.1,5.7,6.7,11,11.1,15.7c6.5,6.9,14.3,11.6,23.9,12.4
				c1.3,0.1,2.4,0.3,3.3,1.3c6.6,7,15.3,10,24.3,12.2c9.1,2.2,18.4,3.5,27.8,3.2c19.2-0.5,36.9-5.9,53.2-15.9
				c1.8-1.1,3.6-1.9,5.8-2.2c3.1-0.4,6.1-1.4,9-2.6c7.5-3.3,12.8-8.8,16.5-16c3.2-6.2,5.3-12.8,7.2-19.5c1.8-6.2,2.5-12.6,2.9-19
				c0.3-6.2,0.3-12.5,0.3-18.7c0-2.6-0.1-5.2-1.1-7.7c-0.6-1.3,0.2-2.3,1.7-2.6c16-3.4,24.4-14.3,28.2-29.4
				c1.2-4.7,0.9-9.6-0.6-14.4c-3.3-10.6-12.8-16.1-23.6-13.7c-2,0.4-4,1-6.1,1.4c-0.3,0.1-1.1-0.4-1.1-0.8c-0.1-0.4,0.3-0.9,0.5-1.3
				c0.2-0.3,0.6-0.4,0.9-0.5c12.8-5.2,28.4-0.8,32.6,16c1.4,5.7,1.1,11.4-0.6,17c-4.1,13.7-12.5,23.4-26.3,28
				c-2.3,0.8-2.5,0.8-2.2,3.3c1,8.7,0.4,17.3-0.1,26c-0.8,13-4.4,25.2-10.1,36.9c-4.5,9.2-11.5,15.5-21.2,18.9
				c-0.7,0.2-1.3,0.4-2,0.6c-1.1,0.4-1.8,1-1.9,2.2c-0.6,7.5-0.3,14.9,2.1,22.1c1.5,4.5,4.2,8.4,7.8,11.5
				c5.4,4.7,11.5,8.4,18.5,10.2c10.1,2.6,20.2,4.9,30.2,7.8c19.8,5.6,38.7,13.2,56.6,23.4c31,17.6,53.2,42.9,66.8,75.9
				c6.2,15,10.8,30.4,14.5,46.1c1,4.4,2,8.8,2.8,13.2c0.7,3.5-0.4,4.8-4.1,5c-6.2,0.2-12.5,0.2-18.7,0.3
				c-24.1,0.3-48.3,0.6-72.4,0.9c-24.6,0.3-49.3,0.6-74,0.9c-16.1,0.2-32.3,0.6-48.4,0.8c-14.4,0.1-28.8,0-43.2,0
				C989.5-1078.4,989.5-1078.3,989.5-1078.1z M1124.3-1082.8C1124.3-1082.8,1124.3-1082.8,1124.3-1082.8c2.4,0.1,4.9,0.1,7.3,0.1
				c21.2-0.3,42.3-0.6,63.5-0.9c16.1-0.2,32.3-0.4,48.4-0.7c3.8-0.1,4.2-0.6,3.6-4.3c-0.1-0.3-0.1-0.7-0.2-1
				c-4.4-20-9.8-39.7-18-58.6c-12.8-29.4-32.9-52.3-60.3-69c-15.1-9.2-31.2-15.9-47.7-21.7c-12.1-4.3-24.7-7-37.1-10
				c-1-0.2-1.7,0.1-2,1.1c-0.4,1.1-0.8,2.3-1.2,3.4c-2.5,6.7-5.8,13-10.1,18.7c-10.8,14.3-25,23.8-41.9,29.6c-8.7,3-17.7,4.8-27,5.3
				c-2.8,0.2-3,0.3-3,3.1c0,5.6,0.1,11.1,0.3,16.7c0.6,19.8,1.2,39.5,1.8,59.3c0.3,8.8,0.6,17.7,0.9,26.5c0,0.7,0.1,1.4,0.1,2.1
				c0.1,1.2,0.8,1.9,2,1.9c2.1,0.1,4.2,0.1,6.2,0c5.2-0.1,10.4-0.3,15.6-0.3c9.4-0.1,18.7-0.1,28.1-0.2
				C1077.1-1082.1,1100.7-1082.5,1124.3-1082.8z M865.8-1079.5c1.5,0,4.1,0,6.7,0c26.5-0.3,53.1-0.7,79.6-1
				c13.4-0.2,26.7-0.2,40.1-0.4c7.2-0.1,6.2-0.1,6.1-6.4c-0.2-10.8-0.7-21.5-1-32.3c-0.5-20.3-0.9-40.6-1.4-60.9
				c-0.1-2.6-0.2-5.2-0.4-7.8c-0.1-1.8-0.7-2.3-2.7-2.4c-0.7,0-1.4,0-2.1,0c-10.7-0.3-21-2.1-31.1-5.4c-23-7.6-41.8-20.8-55-41.4
				c-0.4-0.6-0.7-1.2-1.2-1.7c-0.5-0.6-1.1-0.8-1.8-0.6c-0.8,0.2-1.7,0.5-2.5,0.8c-21.9,7.4-43.3,16-64,26.2
				c-9.2,4.5-18.2,9.2-26.6,15.2c-14.1,10.1-26.1,22.3-37.5,35.2c-6.7,7.6-12.4,15.8-17.4,24.6c-5.5,9.5-10,19.4-14.1,29.5
				c-3.1,7.6-5.7,15.3-6.4,23.5c-0.7,7.9-0.7,7.2,6.1,7.1c16.3-0.2,32.6-0.5,48.9-0.7c7.3-0.1,14.6-0.1,21.9-0.2
				C828.3-1078.9,846.5-1079.2,865.8-1079.5z M994.3-1193.3c6.5,0.1,12.8-0.7,19.1-1.8c14.2-2.6,27.3-7.9,38.9-16.6
				c11.7-8.7,20.4-19.7,25.4-33.5c0.4-1.1,0.8-2.3,1.1-3.5c0.2-0.7,0-1.3-0.9-1.6c-0.5-0.2-1-0.4-1.5-0.5
				c-8.7-3.1-16.2-7.8-21.9-15.2c-0.8-1.1-1.7-1.6-3.1-1.2c-1.3,0.4-2.7,0.5-4.1,0.9c-6.4,1.7-13,2.2-19.6,2.4
				c-15.3,0.5-30.4-1.3-45.3-5c-16-3.9-30.1-11.2-42.4-22.3c-1.4-1.3-2.8-2.6-4.3-3.8c-0.7-0.5-1.4-1-2.2-1.2
				c-0.7-0.2-1.5,0-1.6,0.8c-0.1,1-0.1,2.1-0.1,3.1c0,7.3-1.2,14.5-3.3,21.5c-2.5,8.3-6.7,15.6-13.1,21.5c-2.4,2.2-5.2,4-8,5.8
				c-2,1.3-2.1,1.6-0.8,3.7c4.6,7.7,10.3,14.4,17,20.2C943.9-1202,967.7-1193.9,994.3-1193.3z"/>
			<path id="XMLID_193_" class="st6" d="M899.4-1448.6c0.1-22.4,18.5-40,40.9-38.2c21.2,1.7,32.3,17.7,34.4,31.1
				c0.1,0.5,0.2,1,0.2,1.5c0.3,2.4,0.6,4.8,0.9,7.2c2.4,1.1,4.6-0.7,7-0.6c3.3,0.2,6.6,0.4,9.8,1.3c2.7,0.7,2.8,0.7,3.1-2.1
				c0.5-4.5,1.6-8.9,3.7-12.9c5.9-11.4,15.1-18.2,27.7-20.6c18.2-3.6,39.6,8.9,43.6,30.9c3.2,18-8.3,39.8-31.2,43.8
				c-18.8,3.3-39.9-9.3-43.3-31.1c-0.5-3.1-1.9-4.7-4.7-5.4c-4.8-1.3-9.6-1.7-14.3,0.1c-1.4,0.5-2.4,1.3-2.7,2.8c-0.5,2-1,4-1.9,5.9
				c-6.4,15.1-18,23.4-34.1,23.9c-20.7,0.7-35-14-38.3-30.3C899.7-1443.9,899.2-1446.4,899.4-1448.6z M902.4-1449.2
				c-0.5,20.8,17.5,35.3,34.7,35.4c19.7,0.1,35.3-16.6,35.4-34.8c0.1-18.7-15.5-35.3-34.8-35.4
				C917.8-1484.1,902-1467.4,902.4-1449.2z M1068.3-1444.5c0.7-19.7-16.6-35.2-34.8-35.3c-17.3,0-35.1,14-35.1,35.1
				c0,20.6,17.2,34.8,34.6,35C1052.8-1409.5,1068.8-1426.2,1068.3-1444.5z"/>
			<path id="XMLID_192_" class="st6" d="M1005.8-1402.4c0.1,6.6-3.2,11.5-9,13.8c-5.3,2-10.8,2.3-16.3,0.4c-0.6-0.2-1.2-0.7-1.7-1.2
				c-0.2-0.2-0.2-0.7-0.2-0.9c0.1-0.3,0.5-0.7,0.7-0.7c0.9,0,1.7,0.2,2.5,0.4c3.4,0.9,6.9,0.9,10.3,0.4c5.2-0.8,9-3.3,10.6-8.7
				c0.6-2.1,0.5-4.1,0-6.1c-0.9-3.7-2.3-7.3-4-10.7c-2.4-4.6-4.9-9.2-7.4-13.7c-0.4-0.8-0.8-1.5-1-2.3c-0.1-0.2,0.2-0.7,0.5-0.8
				c0.2-0.2,0.7-0.2,0.9-0.1c1,0.4,1.5,1.4,2.1,2.2c4.1,6.8,7.9,13.8,10.6,21.4C1005.2-1406.8,1006-1404.4,1005.8-1402.4z"/>
			<path id="XMLID_191_" class="st6" d="M993.2-1342.1c-3.5,0.4-7.2-0.5-11-1.2c-4.7-0.9-8.7-3.3-12.2-6.6c-0.5-0.5-0.9-1.2-0.4-1.8
				c0.4-0.7,1.1-0.6,1.8-0.2c0.2,0.1,0.3,0.2,0.4,0.3c7,6.3,15.6,7,24.4,6.8c8-0.2,14.8-3.4,20.6-8.7c1-0.9,1.8-2.2,3.3-2.5
				c0.3-0.1,0.7,0.1,0.9,0.3c0.2,0.2,0.4,0.7,0.3,0.9c-0.4,0.7-0.9,1.5-1.5,2.1C1012.4-1345.6,1003.8-1341.7,993.2-1342.1z"/>
			<path id="XMLID_190_" class="st6" d="M869.2-1418.2c-0.3,2.5,0.5,4.8,2,6.8c0.8,1.1,1.6,2.2,2.5,3.4c0.6,0.8,1.5,1.8,0.3,2.7
				c-0.8,0.6-1.6-0.2-2.2-0.9c-4.1-4.4-6.7-9.4-4.9-15.6c2.2-7.6,8-10.7,15.7-8.3c0.7,0.2,1.2,0.9,0.8,1.6c-0.2,0.4-0.8,0.7-1.3,0.7
				c-1,0-2.1-0.3-3.1-0.4c-5.3-0.4-9.4,3.1-9.9,8.4C869.2-1419.2,869.2-1418.7,869.2-1418.2z"/>
			<path id="XMLID_189_" class="st6" d="M1090.3-1430.8c4.7,0,9.2,3.8,10.4,8.7c1.1,4.2,0.6,8.3-1.9,12c-1.1,1.7-2.3,3.5-4,4.7
				c-0.4,0.3-1,0.4-1.4,0c-0.4-0.4-0.5-1-0.2-1.4c0.9-1.3,1.8-2.5,2.7-3.8c2-2.6,2.7-5.5,2.5-8.8c-0.4-5.6-4.5-9.2-10.1-8.7
				c-1,0.1-2.1,0.3-3.1,0.4c-0.6,0-0.9-0.4-1.1-0.9c-0.3-0.6,0.2-1,0.6-1.3c1-0.8,2.3-0.7,3.5-0.8
				C1088.9-1430.7,1089.6-1430.8,1090.3-1430.8z"/>
			<path id="XMLID_188_" class="st6" d="M947.9-1360.5c-0.5-0.3-1.1-0.5-1.2-0.8c-0.1-0.4,0.2-1.1,0.6-1.3c0.9-0.5,1.9-0.8,2.9-1.2
				c7.6-2.9,14.2-7.1,18.5-14.3c0.2-0.3,0.4-0.5,0.7-0.8c0.5-0.4,1-0.3,1.4,0.1c0.2,0.2,0.5,0.7,0.4,0.9c-0.3,1-0.7,2-1.3,2.8
				c-2.1,3.2-4.9,5.8-8,8.1c-3.5,2.6-7.4,4.5-11.5,6C949.6-1360.8,948.7-1360.7,947.9-1360.5z"/>
			<path id="XMLID_187_" class="st6" d="M1021.6-1377.1c0.4,0.1,0.8,0,1,0.2c0.5,0.5,0.9,1,1.3,1.6c3.2,4.9,7.5,8.5,12.7,11.2
				c2.2,1.1,4.3,2.2,6.5,3.3c0.5,0.2,0.8,0.7,0.7,1.2c-0.2,0.9-0.9,0.9-1.6,0.9c-0.3,0-0.7,0-1-0.2c-6.9-3.3-13.6-6.8-18.2-13.3
				c-0.8-1.1-1.8-2.2-1.9-3.6C1021-1376.2,1021.4-1376.7,1021.6-1377.1z"/>
			<path id="XMLID_186_" class="st6" d="M996.6-1336.2c-2.7-0.2-5.3,0.3-7.8-0.5c-0.5-0.2-0.8-0.6-0.6-1.2c0.1-0.3,0.4-0.7,0.6-0.7
				c0.8-0.2,1.7-0.3,2.5-0.4c5-0.1,10,0.3,15-0.8c0.4-0.1,1.1,0.3,1.2,0.7c0.4,0.7-0.1,1.4-0.8,1.6c-1.1,0.4-2.3,0.7-3.5,0.8
				C1001-1336.4,998.8-1336.3,996.6-1336.2z"/>
			<path id="XMLID_183_" class="st6" d="M976.9-1113.9c3.9-0.8,8.2,3.9,8.2,9.9c0,5-3,8.3-8.3,8.7c-5,0.5-9.7-4.3-9.6-9.5
				C967.2-1109.4,970.8-1114.1,976.9-1113.9z M976.3-1098.1c3.7,0.1,6.2-2.3,6.2-6.1c0-3.8-2.5-7.2-5.3-7.2c-4.3,0-7.1,2.5-7.2,6.5
				C969.8-1101.1,972.5-1098.2,976.3-1098.1z"/>
			<path id="XMLID_180_" class="st6" d="M985.9-1173.7c0,4.7-3.9,8.6-8.5,8.7c-4.6,0.1-9-3.8-9.1-8.2c-0.1-4.7,3.6-8.4,8.6-8.4
				C982-1181.6,985.9-1178.3,985.9-1173.7z M977-1167.7c3.3,0.1,6-2.4,6.2-5.7c0.2-2.8-2.8-5.4-6.4-5.4c-3.4,0-5.7,2.1-5.9,5.3
				C970.9-1170.5,973.6-1167.8,977-1167.7z"/>
			<path id="XMLID_179_" class="st6" d="M923.9-1456.7c-3.5,0.1-5.7-0.2-6.8-2.7c-0.9-2.1,0-4.5,2.4-6.3c4.6-3.3,9.9-4.8,15.6-4.8
				c1,0,2,0.3,2.9,0.9c1.7,1.1,2.2,2.7,1.1,4.5c-0.4,0.7-1,1.5-1.6,2.1C933.6-1459,928.5-1457.1,923.9-1456.7z"/>
			<path id="XMLID_178_" class="st6" d="M1032.2-1470.6c4.1,0.5,8.8,1.6,13,4.3c1.3,0.9,2.4,2,3.1,3.4c1.2,2.6-0.2,5.4-3,6.1
				c-0.5,0.1-1,0.2-1.6,0.2c-6.3-0.1-11.8-2.3-16.3-6.9c-0.5-0.5-0.9-1.1-1.2-1.7c-1-1.8-0.5-3.3,1.2-4.4
				C1028.6-1470.5,1030-1470.5,1032.2-1470.6z"/>
		</g>
	</g>
	<g id="XMLID_72_">
		<g id="XMLID_76_">
			<path id="XMLID_98_" class="st5" d="M277.8-1076.6c-19.3,0-38.5,0.1-57.8,0c-31.4-0.1-62.8-0.4-94.3-0.5
				c-39.4-0.2-78.8-0.3-118.2-0.5c-2.9,0-5.9-0.2-8.8-0.3c-2.7-0.1-2.9-0.5-2.6-3.1c0.3-3.5,1.5-6.8,2.8-10
				c4.1-10,8.7-19.6,13.6-29.2c5-9.7,9.7-19.6,14.1-29.6c8.2-18.4,19.1-35,32.9-49.7c6.6-7,14.2-12.7,22.7-17.3
				c7.3-4,14.9-7.5,22.6-10.5c18.9-7.3,37.9-14.6,57-21.4c13.7-4.8,27.5-9.7,41.2-14.6c0.5-0.2,1-0.4,1.5-0.5c3.1-0.9,4-0.3,4.8,2.8
				c1,3.7,1.7,7.5,3,11c8.6,23.6,24.6,39.6,49.2,46c18.8,4.9,36.9,2,53.8-7.4c18.9-10.4,31.7-26.1,39.3-46.2
				c2.2-5.9,1.6-5.8,7.6-3.6c27.5,10.2,55.2,19.9,82.4,30.7c8.9,3.5,17.6,7.3,26.2,11.5c15.4,7.5,29.5,17,40.7,30.2
				c8.8,10.4,16.5,21.5,22.6,33.6c4.7,9.1,8.5,18.6,11.8,28.3c5.1,14.8,10,29.6,13.5,44.8c0.2,0.7,0.4,1.3,0.5,2
				c0.8,3.4-1.1,5.3-4,5c-0.9-0.1-1.7,0-2.6,0c-27.1-0.1-54.2-0.1-81.3-0.2c-12.8,0-25.7-0.2-38.5-0.2c-35.9-0.2-71.9-0.4-107.8-0.5
				c-16-0.1-31.9,0-47.9,0C277.8-1076.2,277.8-1076.4,277.8-1076.6z"/>
			<path id="XMLID_95_" class="st6" d="M394.4-1591.1c2.2,0.9,3.8,1.4,5.4,2.1c5.5,2.4,9.5,6.3,11.5,12.1c2,6,1.4,11.6-2.3,16.8
				c-1,1.4-2,2.9-3.3,4c-5.9,5.1-7.6,11.8-7.7,19.2c-0.1,2.1,0,4.2,0.1,6.2c1,14,1.2,28.1,1.5,42.1c0,1.6,0.1,3.1,0,4.7
				c-0.1,1.9,0.6,3.2,2.3,4.2c2.1,1.2,4.1,2.7,5.9,4.3c15.5,14.1,14.4,37.1-2.3,49.8c-5.8,4.4-12.5,6.8-19.6,7.6
				c-2.5,0.3-2.8,1-2.7,3.3c0.4,6.6,0.6,13.2,0.2,19.8c-1.2,21.1-7.1,40.6-20.3,57.5c-2,2.6-4.3,5-6.6,7.4c-1.2,1.2-1.7,2.5-1.6,4.2
				c0.2,3.6,0.3,7.3,0.5,10.9c0.6,10.6,1.3,21.1,2,31.7c0.5,7.3,1.1,14.5,1.5,21.8c0.2,2.9,0.2,5.9,0.2,8.8c0,0.4-0.3,1-1,1
				c-0.6,0-1.1-0.3-1.1-0.8c-0.4-2.4-0.7-4.8-0.9-7.2c-0.4-5.9-0.7-11.8-1.1-17.7c-0.2-3-0.4-3.3-3.6-2.8
				c-5.9,0.9-11.8,0.8-17.7,0.8c-31.1-0.2-60.4-7.7-87.7-22.8c-9.1-5.1-17.9-10.7-25.6-17.8c-2-1.8-4.3-3.5-6.9-4.9
				c-1,2.5-1,5-1.1,7.3c-0.8,14-1.6,28.1-2.5,42.1c-0.3,5.5-0.7,11.1-1.1,16.6c-0.1,1.9-0.4,3.8-0.7,5.7c-0.1,0.7-0.4,1.5-1.2,1.5
				c-1.1,0-1.3-1-1.3-1.9c0-2.4,0.1-4.9,0.2-7.3c0.6-8.5,1.2-17,1.7-25.4c0.7-11.3,1.4-22.5,2.1-33.8c0-0.7,0-1.4,0.1-2.1
				c0.7-4-0.6-7.1-3.6-10.2c-11.9-12.5-18.9-27.7-22.5-44.5c-2.6-12-2.9-24.1-2.3-36.2c0.1-1,0.1-2.1,0.1-3.1c0-1-0.5-1.6-1.5-1.8
				c-2.1-0.3-4.1-0.6-6.2-1c-8.2-1.9-15.2-5.9-20.6-12.4c-11.8-14.3-9.3-34.6,5.8-46c1.2-0.9,2.5-1.8,3.9-2.6
				c1.5-0.8,1.7-1.9,1.4-3.5c-3.6-17.8-4.2-35.8-3.5-53.9c0.6-14.7,2.2-29.4,5.9-43.8c3.3-12.8,9.5-24.2,18.9-33.6
				c2.9-3,6-5.8,9.1-8.6c7.8-7,16.8-11.6,26.8-14.5c12-3.6,24.2-6.1,36.6-7.5c6.9-0.8,13.8-1.4,20.6-2.6c12.4-2.1,23.9-7,35.3-12.2
				c6.8-3.1,13.5-6.3,20.7-8.5c5.7-1.7,11.5-2.4,17.4-2c8.3,0.5,16.9,7.2,18,18.5c0.6,5.8-0.1,11.4-1.6,17c-1,3.7-2.1,7.3-3.1,11
				c-0.4,1.4,0.2,2.1,1.5,1.7c2.9-0.7,5.7-1.5,8.5-2.3c5-1.5,10.2-2.1,15.4-1.9c0.7,0,1.4,0,2.1,0.1c8.6,0.7,13.8,7.3,12.3,15.9
				c-0.8,5.1-2.9,9.6-6.1,13.6C397.9-1595.2,396.3-1593.4,394.4-1591.1z M282.2-1306.5c10.7,0.4,21.4-0.5,31.8-3.3
				c30.9-8.1,51.7-27.3,61.5-57.8c5-15.4,6.2-31.3,4.7-47.3c-0.4-4.3-0.4-5.3,4.7-6c0.7-0.1,1.4-0.1,2.1-0.2
				c9.3-1.4,17.2-5.5,22.9-13.1c5.5-7.3,7.5-15.6,5.1-24.6c-1.9-7-5.9-12.5-11.7-16.7c-6.1-4.4-12.9-6.5-20.4-6.8
				c-3.9-0.1-4.8-0.9-5.5-4.8c-0.2-1.2-0.4-2.4-0.5-3.6c-0.4-4.8-0.8-9.7-1-14.5c-0.4-8.9-2-17.6-4.5-26.1
				c-2.8-9.6-7-18.5-13.4-26.3c-8.1-9.9-18.3-15.6-31.4-15.8c-6.8-0.1-13.5-0.1-20.3,0.3c-11.2,0.8-22.5,2-33.7,2.8
				c-13.5,0.9-26.9,3-40.2,5.5c-7.7,1.4-15.2,3.6-22.3,7c-12.9,6.2-21.4,15.6-23.1,30.4c-0.8,6.6-1.5,13.1-1.6,19.7
				c-0.1,6.4-0.1,12.8,0.6,19.2c0.5,5,0.7,6-5.2,6.2c-9.8,0.4-18.2,4.3-24.6,11.8c-10.1,11.8-9.2,27.6,0.8,38.4
				c5.9,6.4,13.2,10,21.8,10.9c1.5,0.2,3.1,0.5,4.6,0.9c1.1,0.3,1.7,1.2,1.6,2.4c0,0.9-0.2,1.7-0.3,2.6c-1.3,15-0.4,29.9,3.7,44.3
				c9.1,31.4,29.3,51.7,60.8,60.6C259.8-1307.1,270.8-1306.1,282.2-1306.5z"/>
			<path id="XMLID_94_" class="st6" d="M282.4-1164.1c-20-0.1-37.9-5.9-54.3-16.7c-15.3-10.1-27.4-23.3-37-38.9
				c-3.6-5.9-6.8-12.1-9.5-18.5c-0.3-0.8-0.9-1.6-0.5-2.5c0.1-0.3,0.4-0.6,0.7-0.7c0.3-0.1,0.7-0.1,0.9,0.1c1.4,0.9,1.7,2.6,2.3,4
				c3.9,8.7,8.6,17,14.3,24.7c11.6,15.9,25.8,28.5,43.7,36.8c13.8,6.4,28.2,9.5,43.4,8.7c19.5-1.1,36.8-7.9,52.2-19.7
				c16.6-12.8,28.4-29.2,36.8-48.3c0.6-1.4,0.9-3,2.1-4.1c0.4-0.4,0.9-0.4,1.4-0.1c0.2,0.2,0.5,0.6,0.5,0.8c-0.2,1-0.4,2-0.8,3
				c-6.4,15.2-15.1,28.9-26.7,40.6c-11.1,11.3-24,19.9-39,25.2C303.1-1165.9,292.7-1164.2,282.4-1164.1z"/>
			<path id="XMLID_91_" class="st6" d="M394.2-1134.1c10.6,0,21.2,0,31.7,0c6.7,0,5.9,0.7,5.3,6.1c-1.7,14.6-3.1,29.3-4.7,43.9
				c-0.2,1.5-0.5,3.1-0.9,4.6c-0.1,0.4-0.7,0.9-1.1,0.9c-0.9,0.1-1.2-0.7-1.2-1.3c0-1.6,0.1-3.1,0.2-4.7c1.1-10,2.2-20,3.3-30
				c0.2-2-0.3-2.6-2.2-2.5c-18.9,0.8-37.8,0.5-56.7,0.6c-2.4,0-4.9,0.2-7.3,0.3c-2.6,0.2-2.8,0.4-2.9,3.2c-0.7,10.7-1.3,21.5-2,32.2
				c-0.1,1.4,0.1,2.8-0.6,4.1c-0.1,0.2-0.6,0.4-0.9,0.4c-0.3,0-0.7-0.3-0.8-0.5c-0.2-0.8-0.4-1.7-0.4-2.5c0.6-11.9,1.3-23.9,2-35.8
				c0.2-3.8,0.4-7.6,0.6-11.4c0.1-1.4,0.1-2.8,0.3-4.1c0.4-2,1.1-2.6,3.2-2.7c5-0.1,10.1-0.1,15.1-0.2c6.6,0,13.2,0,19.8,0
				C394.2-1133.7,394.2-1133.9,394.2-1134.1z M394.4-1131.3c0,0,0,0.1,0,0.1c-10.7,0.3-21.5,0.5-32.2,0.8c-2.9,0.1-2.9,0.1-3.3,2.8
				c-0.2,1.4-0.4,2.7-0.5,4.1c-0.4,4.5-0.2,4.6,4.4,4.6c11.8,0,23.6,0.1,35.4-0.2c8.1-0.2,16.3,0.1,24.4-0.7
				c5.8-0.6,4.6,0.4,5.6-5.2c0.3-1.5,0.3-3.1,0.4-4.7c0.1-1-0.4-1.7-1.5-1.7c-1.2-0.1-2.4,0-3.6,0
				C413.8-1131.3,404.1-1131.3,394.4-1131.3z"/>
			<path id="XMLID_88_" class="st6" d="M228.4-1492.2c6.3-0.2,12.2,1,17.9,3.1c2.9,1.1,5.5,2.8,7.9,4.8c5.8,5,4.5,13.7-0.8,17.6
				c-3.3,2.4-7,4-10.9,4.6c-8.2,1.4-16.5,1.6-24.7-0.9c-2.8-0.9-5.5-2-7.9-3.8c-4.8-3.6-6.3-8.6-4.3-14.2c1.8-5.1,5.5-8.3,10.6-9.9
				C220.3-1492,224.4-1492.4,228.4-1492.2z M251.4-1482.9c-1,1-0.6,2.1-0.8,3.1c-1.4,7.2-5.4,12.2-12.4,14.7c-2.9,1-5.8,0.8-8.8,0.6
				c-9.3-0.7-16.1-7.6-16.6-16.9c-0.1-0.9,0-1.7-0.1-2.6c0-0.3-0.2-0.7-0.4-0.8c-0.6-0.3-1,0.1-1.3,0.4c-0.7,1-1.5,1.9-2,3
				c-2.7,5.2-1.5,9.8,3.3,13.1c2.5,1.7,5.3,2.6,8.1,3.4c6,1.7,12.1,1,18.1,0.8c4.7-0.2,9.2-1.8,13.1-4.5c2.6-1.8,3.9-4.5,3.8-7.6
				C255.4-1479.1,253.8-1481.3,251.4-1482.9z"/>
			<path id="XMLID_85_" class="st6" d="M332-1492.2c3.5-0.1,7.4,0.2,11.2,1.4c5.1,1.6,8.7,4.8,10.6,9.9c2.1,5.6,0.6,10.7-4.2,14.2
				c-2,1.5-4.1,2.5-6.4,3.3c-9.5,3.2-19,3-28.6,0.8c-2.9-0.7-5.5-2-8-3.7c-5.9-4-7.2-13.1-1-18.3c2.8-2.4,6-4.1,9.5-5.2
				C320.3-1491.6,324.9-1492.2,332-1492.2z M309.7-1483.7c-8.3,3.8-6.2,13.1-0.3,16c1.7,0.8,3.4,1.8,5.2,2.3
				c9.4,2.6,18.8,2.5,28.2-0.6c2-0.7,3.8-1.7,5.5-3c5.4-4.3,4.7-13.3-1.3-16.9c-0.1-0.1-0.4-0.1-0.5-0.1c-0.2,0.2-0.5,0.5-0.5,0.7
				c0.1,1,0.4,2,0.5,3.1c0.5,6.4-2.2,11-7.7,14.1c-4.8,2.7-9.9,3-15.1,2c-7.2-1.4-11.6-5.8-13-13.2
				C310.4-1480.6,310-1482.1,309.7-1483.7z"/>
			<path id="XMLID_84_" class="st6" d="M328.4-1506.1c-9.5,0.9-18.7,0.6-27.8,2.3c-2.7,0.5-4-0.5-4.4-3.1c-0.4-2.4-0.7-4.8-0.7-7.2
				c0.1-4,1.6-5.6,5.7-5.9c3.1-0.3,6.2-0.3,9.3-0.2c10.4,0,20.7,1.6,31,2.6c1.2,0.1,2.4,0.5,3.6,0.7c5.6,1.1,5.8,2.9,5.4,8.1
				c-0.2,2.2-1.5,3.4-3.8,3.5c-2.4,0.1-4.8-0.1-7.3-0.2c-2.6-0.1-5.2-0.4-7.8-0.5C330.4-1506.2,329.2-1506.1,328.4-1506.1z"/>
			<path id="XMLID_83_" class="st6" d="M235.8-1516.9c3.5,0,6.9-0.2,10.4,0c5.4,0.3,7.7,2.6,7.3,9.5c0,0.3-0.2,0.7-0.2,1
				c-1.2,5.7-2.5,6.5-8.2,5.8c-9.3-1.1-18.5-2.2-27.9-2.6c-3.1-0.1-6.2,0.6-9.3,0.8c-4.7,0.3-7.6-3.9-5.9-8.2c0.7-1.8,2.3-2.6,4-3
				c4-0.9,8.1-1.8,12.2-2.3C224-1516.6,229.9-1517.2,235.8-1516.9z"/>
			<path id="XMLID_82_" class="st6" d="M277.4-1406.6c4.4,0.2,8.6-1.1,12.5-3.1c3.1-1.6,4.9-3.8,4.5-7.5c-0.2-1.7-0.2-3.5-0.5-5.2
				c-1.8-10.2-3.7-20.5-5.5-30.7c-1.3-7.7-2.5-15.4-3.7-23.1c-0.1-0.8-0.1-1.7,0-2.6c0-0.2,0.4-0.5,0.7-0.6c0.3-0.1,0.7,0,0.9,0.2
				c0.8,0.8,0.8,1.9,0.9,2.9c1.3,7.7,2.6,15.4,3.9,23.1c1.6,9.2,3.3,18.4,4.9,27.7c0.4,2.6,0.9,5.1,1.1,7.7c0.4,4-1,7.2-4.4,9.4
				c-6.9,4.5-14.6,5.4-22.5,3.9c-3.1-0.6-5.2-2.6-6.5-5.5c-1.1-2.6-1.6-5.3-1.9-8.1c-1.1-12-0.5-23.9,1.3-35.8
				c0.9-6.3,1.9-12.7,2.9-19c0.3-1.7,0.5-3.4,1.4-4.9c0.1-0.2,0.6-0.3,0.9-0.4c0.7-0.1,0.9,0.5,1,1c0.1,1,0,2.1-0.1,3.1
				c-1.1,7.2-2.1,14.4-3.3,21.6c-1.7,10.5-2.3,21-1.5,31.6c0.2,2.6,0.6,5.2,1.2,7.7c1.1,4.4,3.1,6.1,7.6,6.6
				C274.6-1406.4,276-1406.6,277.4-1406.6z"/>
			<path id="XMLID_79_" class="st6" d="M334.2-1391c0.3,14.6-8.4,26-21.5,29c-11.7,2.7-23.9-2.5-29.4-12.5c-1-1.8-1.8-3.8-2.2-5.8
				c-0.3-1.4,0.5-2.5,2-2.3c12.2,1,21-5.8,29.5-13c3.8-3.2,5.8-7.7,7.6-12.3c1.1-2.7,2-5.5,3-8.3c0.3-0.9,0.9-1.6,1.8-1.6
				c0.9-0.1,1.6,0.6,2.1,1.3c0.4,0.6,0.7,1.2,1,1.8C331.7-1406.9,333.8-1398.8,334.2-1391z M325.5-1414c-1.2,3.1-2.1,5.1-2.9,7.2
				c-3,7.9-8,14.1-15.1,18.6c-2.1,1.3-4.1,2.5-6.2,3.7c-4.7,2.6-9.7,4.6-15.2,4.6c-1.6,0-1.8,0.5-1.3,1.9c2.1,5.2,5.7,9,10.8,11.4
				c16.9,7.9,35.6-3.7,35.9-22.2C331.7-1397.2,329.4-1405.2,325.5-1414z"/>
			<path id="XMLID_78_" class="st6" d="M403.7-1450c-0.3,4.9-2.6,9.5-7.5,12.7c-0.6,0.4-1.3,0.5-1.9,0.6c-0.3,0-0.7-0.2-0.8-0.5
				c-0.2-0.2-0.2-0.7-0.1-1c0.4-1.1,1.4-1.5,2.2-2.1c6.5-4.7,6.1-13.8,2.9-18.7c-2.4-3.7-5.7-6-9.8-7.3c-1.8-0.5-2.8-1.6-2.3-2.2
				c0.8-0.9,1.9-0.8,2.9-0.5C397.4-1467.2,403.8-1459.1,403.7-1450z"/>
			<path id="XMLID_77_" class="st6" d="M177.3-1469.2c0.4,0.3,0.8,0.6,1,1c0.3,0.5-0.1,1.1-0.6,1.3c-1.3,0.5-2.6,0.9-3.9,1.5
				c-5.7,2.4-10.2,8.2-9.9,15.1c0.2,3.7,1.5,6.7,4.1,9.2c0.6,0.6,1.4,1,2,1.6c1.2,1,1.6,2,0.9,2.5c-0.8,0.7-1.6,0.3-2.4-0.2
				c-5.5-3.4-8.2-8.6-7.7-14.9c0.7-9.2,7.2-14.9,14.1-16.8C175.9-1469.1,176.6-1469.1,177.3-1469.2z"/>
		</g>
		<g id="XMLID_73_">
			<ellipse id="XMLID_75_" class="st4" cx="351" cy="-1441.4" rx="20.1" ry="14.6"/>
			<ellipse id="XMLID_74_" class="st4" cx="209.4" cy="-1441.4" rx="20.1" ry="14.6"/>
		</g>
	</g>
	<g id="XMLID_28_">
		<g id="XMLID_32_">
			<path id="XMLID_71_" class="st5" d="M988.8-354.4c-29.5,0-59,0.3-88.5-0.1c-47.6-0.6-95.1-0.7-142.7-1c-20.5-0.1-41-0.4-61.4-0.6
				c-0.2,0-0.3,0-0.5,0c-4-0.1-4-0.1-3.5-4.1c5.2-35.8,17.8-68.7,39.1-98.1c9.7-13.4,20-26.2,32.5-37.1c5.6-4.9,11.6-9.4,17.8-13.6
				c18.6-12.3,38.1-22.8,58.7-31.3c22.9-9.5,46.3-17.8,70-25c2.3-0.7,4.7-1.3,7.1-1.7c2.2-0.4,2.7,0,3,2.3
				c1.1,6.6,4.6,11.9,8.7,16.9c3.6,4.3,8,7.7,12.8,10.5c10.8,6.4,22.5,9.9,34.9,11.3c25.9,2.8,48.7-4.7,69-20.5
				c5.3-4.1,9.7-8.9,12.4-15.2c1.3-3,2.6-3.4,5.9-2.6c7.3,1.7,14.4,3.9,21.5,6.3c20.4,6.8,40.6,14.2,60.4,22.6
				c21.3,9.1,41.3,20.5,60.2,33.9c10.5,7.4,19.8,16.4,28.2,26.2c12.5,14.6,23.1,30.3,32.3,47.2c9.8,18,15.5,37.4,19.8,57.3
				c0.9,4.2,1.8,8.5,2.3,12.8c0.6,5.2-0.3,6.2-5.6,6.1c-16.8,0-33.7-0.2-50.5-0.2c-0.9,0-1.7-0.1-2.6-0.1
				c-21.9-0.1-43.7-0.3-65.6-0.4c-39.1-0.2-78.1-0.4-117.2-0.7c-19.4-0.2-38.9-0.5-58.3-0.7C988.8-354.2,988.8-354.3,988.8-354.4z"
				/>
			<path id="XMLID_67_" class="st6" d="M935.3-711.5c6.4-0.2,12.3,0.9,18,3.1c3,1.1,5.6,2.7,8,4.8c6,5.1,4.7,14-1,18
				c-3.3,2.3-7,3.9-10.9,4.5c-7.9,1.2-15.8,1.5-23.6-0.8c-3-0.9-5.9-2-8.4-3.9c-5-3.7-6.6-8.8-4.3-14.6c2-5,5.6-8.2,10.8-9.7
				C927.6-711.3,931.5-711.7,935.3-711.5z M953.2-685.5c2.9-0.6,4.5-1.6,5.9-2.7c4.4-3.6,4.6-9,0.7-13.1c-0.6-0.6-1.3-1.1-2-1.6
				c-0.4-0.3-0.9-0.6-1.3-0.2c-0.2,0.2-0.3,0.6-0.2,0.9C957.4-696.6,956.7-691.3,953.2-685.5z M921.3-686.7
				c-0.5-3.6-1.4-6.6-1.4-9.7c0-3.3,1.4-6.3,1.9-10.1c-4.6,2.5-6.7,6.1-7,10.6C914.5-691.6,916.9-688.8,921.3-686.7z"/>
			<path id="XMLID_63_" class="st6" d="M1038.1-711.5c4.2-0.1,8.2,0.2,12,1.3c5.1,1.5,8.8,4.7,10.8,9.7c2.2,5.8,0.7,11-4.4,14.6
				c-3,2.2-6.4,3.4-10,4.2c-8.2,2-16.4,1.6-24.6-0.2c-2.7-0.6-5.2-1.8-7.6-3.3c-6.6-4-8-13.6-1.4-18.9c2.9-2.3,6-4,9.5-5.1
				C1027.6-710.8,1032.9-711.8,1038.1-711.5z M1059.1-696c-0.5-4.1-2.2-7.8-6.4-10.1c-0.3-0.2-0.7-0.4-0.9-0.3
				c-0.6,0.2-0.5,0.8-0.4,1.2c1.9,5.9,2.2,11.8-0.1,17.7c-0.1,0.2-0.2,0.4-0.1,0.5c0.2,0.2,0.5,0.6,0.7,0.5
				C1055.7-687.2,1059.1-691.6,1059.1-696z M1016.9-703.3c-0.2,0-0.3,0-0.5,0.1c-6.5,3.8-6.9,11.3-0.8,15.6c0.7,0.5,1.8,1.2,2.3,0.9
				c1.2-0.7,0.3-1.8-0.1-2.7c-0.9-2.3-0.9-4.7-0.8-7.1c0.1-2.1,0.3-4.1,0.5-6.2C1017.5-702.8,1017.1-703,1016.9-703.3z"/>
			<path id="XMLID_60_" class="st6" d="M989.5-540.6c-13.3,0.4-26.3-1.2-39-5.3c-10.2-3.3-19.5-8.1-27.9-14.8
				c-15.3-12.3-25.1-28.1-30.2-46.9c-3.9-14.6-5-29.4-3.6-44.4c0.2-2.5,0-2.9-2.7-3.2c-9.5-0.9-17.7-4.8-24.3-11.8
				c-6-6.4-9.1-14.1-8.7-22.7c0.4-10.1,5-18.3,13-24.5c0.5-0.4,1.1-0.8,1.7-1.2c4.3-2.9,3.4-1.7,2.7-6.7
				c-3.7-25.1-0.7-49.1,10.6-71.9c4.7-9.5,10.7-17.8,19.2-24.2c6.8-5.1,14.3-7.8,22.8-7.1c3.6,0.3,7.2,1.2,10.6,2.4
				c1.7,0.6,3.3,0.8,5-0.2c7.6-4.2,16.1-5.6,24.5-6.2c9.1-0.7,18.3-1.3,27.6-0.6c10.1,0.8,19.9,2.7,29.7,4.9c1.4,0.3,2.7,0.6,4,1.1
				c1.1,0.3,2,0.3,3-0.2c12-5.2,23.8-3.8,35.3,1.4c11.9,5.3,21.2,13.7,28,24.9c4.7,7.8,8,16.1,10.6,24.8c4.1,14.2,6.4,28.8,5.9,43.6
				c-0.1,3-0.8,5.8-1.1,8.8c-0.2,1.4,0.2,2.3,1.4,3c3.6,1.9,6.7,4.3,9.5,7.2c6,6.4,9.2,14,8.8,22.7c-0.4,10-4.9,18.3-12.8,24.6
				c-5.6,4.4-11.9,7-19,7.8c-0.7,0.1-1.4,0.1-2.1,0.2c-1.5,0.2-2,0.9-1.8,2.5c0.9,6.6,0.8,13.2,0.4,19.8c-0.8,15-3.9,29.6-10.8,43.1
				c-12.5,24.4-32.3,39.3-58.7,45.9C1010.6-541.2,1000.1-540.3,989.5-540.6z M981.4-827.3c-8,0-15.1,0.6-22.2,1.3
				c-12.5,1.2-23.6,6.2-33.2,13.7c-9.3,7.2-16.4,16.5-20.7,27.6c-5.6,14.5-9,29.5-10.6,44.9c-0.6,5.5-0.8,11.1-0.9,16.6
				c0,3.1-0.9,3.9-4.1,4.2c-0.7,0.1-1.4,0-2.1,0c-7.9,0.2-14.9,3-20.9,8.1c-13.6,11.4-14.3,30.8-1.6,43.2c5.9,5.8,13.2,8.8,21.3,9.9
				c5.4,0.7,5.6,0.7,5.2,6c-0.7,10.6-0.6,21.2,1.1,31.7c1.9,12.1,5.6,23.6,11.8,34.2c12.6,21.4,31.6,34.1,55.5,39.7
				c12.4,2.9,25.1,3.4,37.8,2.8c8.5-0.4,16.9-1.5,25.2-3.8c22.2-6.2,39.7-18.6,51.5-38.7c7.9-13.4,11.8-28.1,13-43.5
				c0.6-7.3,0.4-14.6,0-21.8c-0.4-5.8-0.3-5.8,5.6-6.6c8.9-1.2,16.6-4.8,22.6-11.7c9.3-10.6,9.7-25.8,1-36.8
				c-4.6-5.8-10.5-9.4-17.6-11.5c-3.2-1-6.5-1.1-9.8-1.2c-2.7-0.1-3.5-0.8-4-3.2c-0.4-2-0.7-4.1-1-6.2c-0.7-7.1-1.3-14.2-2.1-21.2
				c-2.1-19.4-9.9-36.4-22-51.4c-6.7-8.3-15.1-14.2-25.6-17c-5.4-1.4-10.6-3.1-16-4.4C1006.1-825.5,993.5-827.8,981.4-827.3z"/>
			<path id="XMLID_59_" class="st6" d="M982.4-502c-20.7-0.3-42.5-7.8-61.2-23.9c-8.3-7.2-15.1-15.8-20.2-25.6
				c-0.5-1.1-1.4-2-1.2-3.4c0.1-0.3,0.3-0.7,0.6-0.8c0.2-0.1,0.7-0.1,1,0c1.2,0.6,1.5,1.8,2.1,2.9c3.2,6,6.9,11.6,11.4,16.7
				c13.7,15.5,30.9,25.1,51,29.3c25.3,5.2,49.3,1.1,71.6-12.1c13.6-8,24.4-18.8,32.4-32.4c0.5-0.9,1-1.8,1.6-2.7
				c0.5-0.7,1-1.6,2-0.9c0.8,0.6,0.6,1.6,0.2,2.4c-0.8,1.5-1.6,3.1-2.6,4.5c-11.2,17.8-26.7,30.4-46,38.3
				C1012.9-504.5,999.6-501.9,982.4-502z"/>
			<path id="XMLID_58_" class="st6" d="M1120.4-393.4c0.4,0.1,0.9,0.1,1,0.3c0.4,0.7,0.8,1.5,1,2.3c2,10.6,5.3,20.8,8.2,31.1
				c0.1,0.5,0.3,1,0.3,1.5c0,0.3-0.3,0.6-0.6,0.7c-0.3,0.1-0.7,0.1-1-0.1c-0.9-0.4-1.2-1.2-1.4-2.1c-2.6-9.1-5.7-18.1-7.4-27.5
				c-0.3-1.7-1.2-3.3-0.9-5.1C1119.8-392.6,1120.1-393,1120.4-393.4z"/>
			<path id="XMLID_57_" class="st6" d="M827.4-363.3c0.2-0.9,0.4-2.3,0.8-3.6c2-7,3.9-14,5.1-21.2c0.1-0.7,0.3-1.4,0.7-2
				c0.2-0.4,0.7-0.8,1.3-0.4c0.3,0.2,0.6,0.4,0.7,0.7c0.1,0.5,0.2,1,0.1,1.5c-1.5,8.9-4.1,17.5-6.3,26.3c-0.1,0.6-0.6,1.4-1.5,0.9
				c-0.4-0.2-0.5-0.8-0.8-1.2C827.4-362.5,827.4-362.7,827.4-363.3z"/>
			<path id="XMLID_56_" class="st6" d="M979.6-518.5c-0.5,2.8-0.9,5.5-2,8c-0.1,0.3-0.8,0.4-1.3,0.5c-0.1,0-0.5-0.5-0.5-0.8
				c-0.3-2.8,0.9-5.4,1.4-8c0.1-0.6,0.6-1.2,1.5-1.1C979.5-519.8,979.5-519.1,979.6-518.5z"/>
			<path id="XMLID_55_" class="st6" d="M970.9-510.5c-0.8-0.2-1.2-0.6-1.1-1.1c0.5-3,1.4-6,2.7-8.7c0.2-0.4,0.6-0.8,1.2-0.6
				c0.5,0.1,1,0.5,0.9,1c-0.7,3-1.4,6-2.7,8.8C971.7-510.8,971.3-510.3,970.9-510.5z"/>
			<path id="XMLID_54_" class="st6" d="M1008.4-521.1c0-1.2,0.3-1.6,0.8-1.8c0.6-0.3,1.1,0.1,1.3,0.5c1.1,2.7,2,5.5,1.9,8.4
				c0,0.5-0.3,1-0.9,1c-0.6,0-1-0.3-1.1-0.8C1009.5-516.5,1008.9-519.1,1008.4-521.1z"/>
			<path id="XMLID_53_" class="st6" d="M1042.3-525.9c-0.4,0.3-0.7,0.6-0.9,0.6c-0.5,0-1-0.2-1.4-0.5c-1.9-1.8-3.3-3.9-4.6-6.2
				c-0.2-0.4-0.3-1,0.3-1.4c0.5-0.3,0.9-0.3,1.4,0c0.3,0.2,0.5,0.4,0.7,0.7c1.4,1.8,2.7,3.5,4,5.3
				C1042.1-526.9,1042.2-526.4,1042.3-525.9z"/>
			<path id="XMLID_52_" class="st6" d="M1065.9-549.7c0,0.2,0,0.4-0.1,0.5c-0.3,0.4-0.8,0.7-1.3,0.5c-2.3-1.1-4.4-2.4-6.2-4.3
				c-0.1-0.1-0.2-0.3-0.2-0.5c0-0.3,0.1-0.6,0.2-0.9c0.2-0.4,0.5-0.5,0.8-0.3c2.4,1.2,4.7,2.6,6.6,4.6
				C1065.9-550.1,1065.9-549.9,1065.9-549.7z"/>
			<path id="XMLID_51_" class="st6" d="M1006.5-514.1c-0.4,0.5-0.6,1.2-0.9,1.3c-0.4,0.1-1.2-0.2-1.3-0.5c-0.8-2.6-1.7-5.1-1.6-7.9
				c0-0.5,0.4-0.9,0.9-1c0.6-0.1,1,0.3,1.2,0.8C1005.4-519,1005.9-516.6,1006.5-514.1z"/>
			<path id="XMLID_50_" class="st6" d="M916.1-562.1c-0.2,0.3-0.3,0.7-0.6,0.8c-2.2,1-4.4,1.9-6.6,2.7c-0.3,0.1-0.9-0.3-1.3-0.6
				c-0.1-0.1,0-0.7,0.2-0.9c2-2,4.6-2.8,7.4-3C915.7-563.2,916-562.6,916.1-562.1z"/>
			<path id="XMLID_49_" class="st6" d="M1068.6-553.4c-0.2,0.5-0.5,1-1.1,0.8c-2.5-0.7-4.8-1.9-6.9-3.4c-0.3-0.2-0.4-0.9-0.3-1.4
				c0.1-0.5,0.7-0.8,1.2-0.5c2.2,1,4.3,2.1,6.4,3.2C1068.4-554.5,1068.7-554,1068.6-553.4z"/>
			<path id="XMLID_48_" class="st6" d="M941.7-531.9c-0.1,0.4,0,1-0.3,1.4c-1.2,1.7-2.4,3.3-3.7,4.8c-0.4,0.5-1.1,0.7-1.8,0.1
				c-0.5-0.4-0.4-0.9-0.1-1.4c1.4-1.9,2.8-3.8,4.3-5.7c0.2-0.2,0.7-0.3,0.9-0.2C941.3-532.7,941.4-532.3,941.7-531.9z"/>
			<path id="XMLID_47_" class="st6" d="M931.5-528.9c-0.2-0.3-0.5-0.6-0.5-0.8c1.1-3,3.4-5,5.8-6.8c0.2-0.1,0.7,0.1,0.9,0.3
				c0.2,0.2,0.5,0.7,0.4,0.8c-1.5,2.5-3.3,4.7-5.7,6.4C932.3-528.9,931.8-528.9,931.5-528.9z"/>
			<path id="XMLID_46_" class="st6" d="M1044.6-529.5c-0.2,0.5-0.6,1-1.1,0.7c-2.2-1.4-3.8-3.3-4.7-5.7c-0.1-0.2,0.2-0.6,0.5-0.8
				c0.2-0.1,0.7-0.2,0.9-0.1c1.9,1.4,3.4,3.3,4.5,5.4C1044.8-529.8,1044.6-529.6,1044.6-529.5z"/>
			<path id="XMLID_45_" class="st6" d="M916.2-558.9c0.4,0.3,1,0.5,1.1,0.9c0.1,0.4-0.3,0.9-0.6,1.3c-0.1,0.1-0.3,0.2-0.5,0.2
				c-1.8,0.3-3.4,2-5.3,0.6c-0.1-0.1-0.1-0.3-0.1-0.5C912.1-558.5,914.2-558.4,916.2-558.9z"/>
			<path id="XMLID_44_" class="st6" d="M1031.6-743.5c8.9,0.4,17.6,1.8,26,4.5c2.3,0.8,4.5,1.7,6.7,2.8c1.2,0.6,2.3,1.5,3.2,2.6
				c1.8,2,1.5,4.6-0.6,6.4c-1.2,1-2.7,1.7-4.2,1.9c-3.8,0.5-7.5,1.2-11.4,0.9c-7.8-0.7-15.5-1-23.1-2.9c-3.2-0.8-6.4-1.6-9.2-3.4
				c-1.2-0.7-2.4-1.5-3.3-2.5c-2-2.2-1.9-4.9,0.2-6.9c1.8-1.6,3.9-2.9,6.4-3.2C1025.4-743.5,1028.5-743.6,1031.6-743.5z"/>
			<path id="XMLID_43_" class="st6" d="M924.2-727.2c-3.3,0-6.6,0.1-9.9,0c-2.6-0.1-5.1-0.8-7.4-2.3c-2.2-1.5-2.6-3.6-1.1-5.8
				c0.8-1.2,1.8-2.1,3-2.8c1.7-0.9,3.3-1.9,5.1-2.5c12.1-3.8,24.4-4.8,36.9-2.2c1.3,0.3,2.7,0.7,4,1.2c2,0.9,3.6,2.3,3.7,4.6
				c0.1,2.1-1.2,3.5-2.9,4.6c-1.8,1.1-3.7,1.8-5.8,2.3C941.5-728.1,932.9-727.3,924.2-727.2z"/>
			<path id="XMLID_42_" class="st6" d="M987.7-647.1c5.3-0.2,11.2-2.7,16.1-7.6c2.2-2.2,3.3-4.8,3.5-7.9c0.2-4.7-1-8.9-3.3-12.9
				c-1.6-2.7-3.4-5.2-5.6-7.5c-0.6-0.6-1.1-1.3-1.5-2.1c-0.1-0.2,0.1-0.7,0.3-0.9c0.2-0.2,0.7-0.4,0.9-0.4c0.6,0.3,1.3,0.6,1.7,1.1
				c5.7,5.5,9.4,12.1,10.3,19.9c0.5,4.3-0.6,8.3-3.6,11.6c-6,6.6-13.5,9.6-22.3,9.3c-11.5-0.5-19.6-9.6-19.3-21.6
				c0.2-7.4,3.2-13.8,7.3-19.7c0.3-0.4,0.8-0.7,1.2-0.9c0.2-0.1,0.7,0.1,0.9,0.3c0.2,0.2,0.5,0.6,0.4,0.9c-0.4,0.9-0.8,1.9-1.4,2.7
				c-2.2,3.6-3.9,7.4-5,11.4c-1,3.4-1.1,6.9-0.3,10.3C970-652.2,977-646.9,987.7-647.1z"/>
			<path id="XMLID_41_" class="st6" d="M968.1-758.3c16.1,1,32.1,2,48,4.8c0.8,0.1,1.8,0,2.4,0.8c0.2,0.2,0.4,0.6,0.3,0.9
				c0,0.3-0.3,0.7-0.6,0.7c-1.7,0.4-3.4,0.1-5.2-0.2c-6.2-0.8-12.3-1.7-18.5-2.5c-0.7-0.1-1.4-0.3-2.1-0.3
				c-12.3-0.3-24.5-2.1-36.8-1.3c-0.2,0-0.3,0-0.5,0c-1,0-2.1,0.2-2.7-0.9c-0.4-0.8,0.7-1.5,2.7-1.6
				C959.5-758,963.8-758.1,968.1-758.3z"/>
			<path id="XMLID_40_" class="st6" d="M988.2-604.9c-5.9-0.2-11.7-0.5-17.6-1.4c-1.9-0.3-3.7-0.7-5.6-1.1c-0.7-0.2-1.4-0.6-1.3-1.4
				c0.2-1.2,1.2-1,2-1c0.7,0,1.4,0.2,2.1,0.3c6.8,1.2,13.7,1.8,20.6,2c11.4,0.2,22.3-1.8,32.8-6.6c2.5-1.2,4-1.2,4.1-0.3
				c0,1.8-1.7,2.1-2.8,2.6C1011.6-606.6,1000.1-604.6,988.2-604.9z"/>
			<path id="XMLID_39_" class="st6" d="M884.1-706.3c0.8,0.1,1.4,0.4,1.4,1.2c0,0.4-0.3,1.1-0.6,1.3c-1.3,0.5-2.6,0.8-3.9,1.4
				c-4.8,2-7.9,5.5-9.4,10.5c-1.6,5.5-0.1,10.3,4.1,14.1c0.8,0.7,1.7,1.2,2.5,1.9c0.6,0.5,0.8,1.1,0.3,1.8c-0.5,0.6-1.2,0.6-1.9,0.3
				c-4.6-2.4-7.4-6.3-8.1-11.4c-1.5-10.5,5.7-19,15.2-21C883.7-706.3,883.9-706.3,884.1-706.3z"/>
			<path id="XMLID_38_" class="st6" d="M1110.6-690.2c0,8-2.3,12.4-6.9,15.6c-0.7,0.5-1.5,0.7-2.4,1c-0.2,0.1-0.7-0.2-0.9-0.4
				c-0.4-0.4-0.4-1-0.1-1.4c0.5-0.5,1-1,1.6-1.3c8.5-5.7,7.6-17.8-0.8-23.8c-1.4-1-3-1.6-4.6-2.4c-0.6-0.3-1.3-0.3-2-0.5
				c-1-0.3-1.5-1.3-1.1-2c0.4-0.7,1.1-0.9,1.8-0.7C1104.1-704.7,1110.6-696.8,1110.6-690.2z"/>
			<path id="XMLID_37_" class="st6" d="M976.2-768.5c7.7,0.2,15.2,1.4,22.7,2.7c1.5,0.3,3.1,0.6,4.6,1c0.7,0.2,1.4,0.5,1.4,1.3
				c0,0.9-0.8,1-1.5,1c-1,0-2.1-0.1-3.1-0.3c-10.6-2.2-21.2-3.5-32-2.9c-0.9,0-1.7,0-2.6-0.1c-0.4-0.1-0.9-0.5-1-0.9
				c-0.2-0.9,0.5-1.2,1.2-1.3C969.3-768.3,972.8-768.4,976.2-768.5z"/>
			<path id="XMLID_36_" class="st6" d="M930.4-615.7c-0.7-0.1-1.2-0.3-1.3-0.9c-0.1-0.6,0.3-1,0.7-1.2c0.9-0.5,1.9-0.8,2.9-1.1
				c7.5-2.3,12.7-7.5,16.8-14c0.7-1.2,1.4-2.4,2.2-3.5c0.3-0.4,0.8-0.7,1.4-0.4c0.5,0.2,0.7,0.7,0.7,1.3c0,0.2,0,0.4-0.1,0.5
				c-4.6,9.5-11.4,16.5-21.9,19.3C931.3-615.7,930.8-615.7,930.4-615.7z"/>
			<path id="XMLID_35_" class="st6" d="M981-779.5c5.2,0.4,9.8,0.7,14.5,1.1c0.7,0.1,1.4,0.2,2,0.5c0.6,0.3,1.3,0.6,1.2,1.5
				c-0.2,0.8-0.9,1.1-1.5,1c-4.4-1-9-0.6-13.4-1c-3-0.3-5.9,0.1-8.8,0.1c-0.9,0-1.7-0.1-2.6-0.2c-0.2,0-0.5-0.5-0.6-0.8
				c-0.3-0.6,0.1-1,0.6-1.2c0.6-0.2,1.3-0.4,2-0.5C976.6-779.2,979-779.3,981-779.5z"/>
			<path id="XMLID_34_" class="st6" d="M1027.8-640.8c0.3,0.1,0.8,0.1,0.9,0.3c0.5,0.9,1,1.8,1.3,2.8c2.6,6.5,6.8,11.5,12.8,15.2
				c1.4,0.9,3.2,1.5,4,3.2c0.1,0.3,0.1,0.7-0.1,1c-0.1,0.2-0.5,0.4-0.8,0.5c-0.1,0.1-0.4,0-0.5,0c-8.4-4.4-14.9-10.5-18.1-19.7
				c-0.3-0.8-0.5-1.7-0.2-2.5C1027.2-640.5,1027.6-640.6,1027.8-640.8z"/>
			<path id="XMLID_33_" class="st6" d="M995.4-594.9c-1.6-0.1-3.3,0.4-4.9-0.6c-0.2-0.1-0.5-0.6-0.4-0.8c0-0.3,0.3-0.7,0.5-0.7
				c1.2-0.2,2.4-0.2,3.6-0.3c5.7-0.4,11.4-0.7,16.9-2.7c1.8-0.7,3.5-1.4,5.3-2.1c0.6-0.2,1.3-0.2,2-0.2c0.3,0,0.7,0.3,0.8,0.6
				c0.1,0.3,0,0.8-0.3,0.9c-0.8,0.6-1.7,1.2-2.6,1.6C1009.6-596.3,1002.7-595.1,995.4-594.9z"/>
		</g>
		<g id="XMLID_29_">
			<ellipse id="XMLID_31_" class="st4" cx="1061.8" cy="-665.4" rx="20.1" ry="14.6"/>
			<ellipse id="XMLID_30_" class="st4" cx="920.2" cy="-665.4" rx="20.1" ry="14.6"/>
		</g>
	</g>
	<path id="XMLID_471_" class="st6" d="M1737,210.8c-4.1,0.1-7.3-5.5-4.8-8.9c-5.8-2.3-10.6-7.1-16.6-8.8c-6-1.7-12.8,0.1-17.2,4.4
		c9.1-1.9,20-3.2,26.3,3.6c0.4,0.4,0.8,1,0.8,1.6c0,0.5-0.3,1-0.6,1.4c-3.7,5-10.4,7.5-16.5,6.3c-2.5-0.5-6.3-0.5-6.1,2
		c4.5-0.9,9.4,1,12.1,4.7c0.6,1.2,0.2,2.7-0.8,3.4c3,0.2,3.3,4.7,1.7,7.2c-1.6,2.5-4.2,4.8-4,7.8c3.5-1.4,6.2-4.7,7-8.4
		c0.4-2,0.3-4.1,1.2-5.9c1.6-3.3,5.7-4.5,9.3-5.2c0.6-0.1,1.2-0.2,1.7,0.1c0.7,0.4,0.8,1.4,0.7,2.2c-0.4,8.1-3.3,16.1-8.2,22.6
		c-0.8,1.1-1.7,2.2-3,2.6c-2.4,0.8-4.8-0.8-7.2-1.6c-2.4-0.7-6,0.5-5.4,3c3.1-1,6.7-0.4,9.3,1.5c-2.8,3.3-6.7,5.6-10.9,6.5
		c-1.7,0.3-3.5,0.6-4.7,1.8c-0.9,1-1.1,2.3-1.4,3.6c-7.3,39.9-32.6,82.4-72.8,96.1c-6.1,2.1-12.4,3.1-18.8,4.1
		c-4.8,0.7-9.7,1.3-14.5,0.7c-45.2-5.4-79.3-49.2-87.2-91.9c-0.9-4.9-2-10.7-6.4-13.1c-2.6-1.4-5.7-1.3-8.3-2.6
		c-2.6-1.3-4.3-5.3-1.8-7c1-0.7,2.3-0.6,3.5-0.9c1.2-0.3,2.5-1.3,2.1-2.5c-2.8-0.4-5.6,0.4-7.8,2.1c-1.1,0.9-2.4,2.1-3.8,1.7
		c-0.8-0.2-1.4-0.9-1.9-1.6c-5.1-7.1-9.2-15.2-9.3-23.9c-0.2-8.7,4.4-17.9,12.4-21.2c6.2-2.6,13.3-1.3,19.9,0
		c-6.4-5.8-16.8-5.9-24-1.1s-11.2,13.5-11.2,22.1s3.6,17,8.8,23.8c1.4,1.8,3,3.7,3.3,6c0.2,1.8-0.4,3.6-0.7,5.4
		c-1.5,8.7,7.1,17.6,15.9,16.4c2.1-0.3,4.5-0.9,6,0.5c0.7,0.7,1.1,1.6,1.4,2.5c5.7,16.7,12.6,33.1,22.7,47.5
		c13.1,18.7,35.4,37.3,58.8,40.3c15.2,1.9,30.9-1.1,44.9-7c28.8-12.1,50.3-36,62.3-64.7c0.9-2.2,8.6-19.8,7-21.1
		c5.5,4.5,14.1,4.4,19.5-0.1c5.4-4.5,7.1-13,3.7-19.2c-0.6-1.1-1.4-2.3-1.2-3.5c0.1-1.2,1.1-2.1,1.9-3c4.3-4.4,7.2-10.2,8.3-16.2
		c1-5.7,0.7-12.2,4.8-16.3C1737.2,210.8,1737.1,210.8,1737,210.8z M1726.8,213.6c-2.4,0.9-4.8,1.9-7.3,2.8c-1.2,0.5-1.9-0.4-2.5-1.3
		c-0.6-0.9-0.3-1.7,0.5-2.3c3-2.1,6-4.1,9-6.2c0.3-0.2,0.7-0.2,1-0.3c0.3,0.2,0.6,0.3,0.8,0.6c0.2,0.3,0.4,0.6,0.5,0.9
		C1730.4,211.7,1730.9,212.1,1726.8,213.6z M1500.5,267.7c-1.5,0.5-3,1-4,0.8c-0.3,0-0.7,0-1,0c-2.5-0.2-4.8-1-6.6-2.2
		c-4.5-3-6.6-8.6-4.6-13.9c0.5-1.3,1.3-1.7,2.4-0.9c1.5,1.1,3.1,2,4.8,2.9h0c0.1,0.1,0.3,0.2,0.4,0.2c2.4,1.2,4.9,2.2,7.5,2.8
		c0.9,0.2,1.4,0.9,1.6,1.8c0.4,2,0.8,4.1,1.2,6.1C1502.3,266.7,1501.6,267.3,1500.5,267.7z M1709.9,269.9c-2.3,0-4.5-0.4-6.2-2
		c-1.6-1.5-2.9-3-1.8-5.4c0.3-0.6,0.3-1.3,0.3-2c0.1-2.6,1.5-4,4-4.6c4.1-1,7.6-3.1,11.1-5.6c2-1.4,2.2-1.2,3.6,0.9
		C1726.5,259.9,1718.7,270,1709.9,269.9z"/>
	<path id="XMLID_463_" class="st6" d="M1497.1,212.6c-7.3-1.6-12,7.1-9.9,13.2c0.7,2,1.8,3.7,3.1,5.4c0.7,1,1.4,2,2,3
		c0.1,0.2-0.1,0.7-0.3,0.9c-0.2,0.2-0.6,0.4-0.9,0.4c-0.3,0-0.7-0.2-0.9-0.4c-3.8-3.8-6.5-8.1-6.1-13.8c0.3-4.3,2.4-7.5,5.8-10
		c1.9-1.3,4-2,6.4-1.4c1.5,0.4,3.2-0.1,4.5,1c0.2,0.2,0.4,0.6,0.3,0.9c0,0.3-0.3,0.8-0.5,0.8
		C1499.5,212.6,1498.3,212.6,1497.1,212.6z"/>
	<path id="XMLID_462_" class="st6" d="M1483.1,202.3c1.2,0,2.3,1.1,2.4,2.3c0.1,1.5-1.3,2.8-3.1,2.8c-1.1,0-2.3-1.3-2.1-2.5
		C1480.5,203.5,1481.8,202.2,1483.1,202.3z"/>
	<path id="XMLID_461_" class="st6" d="M1480.9,211c0.1,1.4-1,2.7-2.4,2.9c-1.2,0.2-2.4-0.7-2.6-2c-0.2-1.6,1-3.2,2.6-3.2
		C1479.6,208.7,1480.8,209.9,1480.9,211z"/>
	<circle id="XMLID_458_" class="st4" cx="1674.1" cy="250.9" r="20.1"/>
	<circle id="XMLID_457_" class="st4" cx="1538.8" cy="250.9" r="20.1"/>
	<path id="XMLID_143_" class="st6" d="M-89.4-726.4"/>
	<g id="XMLID_244_">
		<circle id="XMLID_258_" class="st7" cx="2702.8" cy="-1329" r="21.2"/>
		<circle id="XMLID_257_" class="st7" cx="2560.1" cy="-1329" r="21.2"/>
	</g>
	<path id="XMLID_236_" class="st8" d="M1950.5-1330.5c-1.2,1.3-1.4,3-1.8,4.6c-0.9,3.2-1.8,6.3-2.8,9.4c-4.9,15.3-15,26-29.1,33.2
		c-3.2,1.7-6.6,3.1-10,4.3c-17,6.2-34.6-2.9-41.5-13c-3.2-4.7-6-9.6-8.4-14.7c-1.8-4-2.4-8.4-3-12.7c-0.8-5.4-0.9-10.9-0.7-16.4
		c0.1-1.9,0.8-2.6,2.6-2.9c1.1-0.1,2.2-0.1,3.3-0.1c34.1,0.1,68.2,0.2,102.3,0.4c7.7,0,15.3,0.1,23,0.2c18.1,0.1,36.1,0.2,54.2,0.3
		c5.5,0,5.9,0.5,5,6.1c-0.6,3.6-1.2,7.2-2,10.7c-2.4,10.1-7.1,19.2-13.8,27c-8.3,9.7-19.2,13.6-31.8,11.9
		c-10.8-1.4-19.3-7.2-26.6-14.9c-7.6-8.1-12.5-17.9-16.4-28.2C1952.4-1327,1952.2-1329.1,1950.5-1330.5z M1948.5-1334.7
		c-1.4-0.8-2.7-0.6-4-0.6c-19.9-0.1-39.7-0.3-59.6-0.4c-4.6,0-9.1-0.2-13.7-0.3c-4-0.1-8-0.1-12,0c-2.6,0.1-3.3,0.7-3.3,3.3
		c0,4.2,0.5,8.3,0.8,12.5c0.8,11.5,5.8,21.2,13.3,29.3c8.8,9.6,20.2,13.5,33.2,10.1c9.4-2.5,18-7.1,25.2-13.7
		c5.4-5,9.9-10.6,12.9-17.5C1944.6-1319.4,1946-1327.3,1948.5-1334.7z M1997.2-1335c0-0.1,0-0.2,0-0.3c-12.8,0-25.5,0-38.3,0
		c-1.5,0-2.9,0-4.4,0.1c-0.8,0.1-1.3,0.6-1.2,1.5c0.2,1.1,0.5,2.1,0.8,3.2c2,5.9,4.4,11.6,7.1,17.1c3.7,7.4,8.8,13.9,15.1,19.2
		c6.1,5.1,12.9,8.7,21.1,9.5c11.7,1.2,21.3-2.6,28.7-11.4c8.3-9.9,13-21.4,14.6-34.2c0.1-0.9,0.2-1.8,0.2-2.7c0-1-0.6-1.7-1.6-1.8
		c-1.1-0.1-2.2-0.1-3.3-0.1C2023.1-1335,2010.1-1335,1997.2-1335z"/>
	<path id="XMLID_232_" class="st8" d="M2690.3-1399.7c-5.6-0.6-10.9-2.6-15.2-6.9c-0.5-0.5-1-1.1-1.4-1.7c-1.4-2.3-0.5-4.8,2.2-5.6
		c0.9-0.3,1.8-0.4,2.7-0.4c5.4,0.2,10.4,1.6,14.9,4.6c1,0.7,2,1.7,2.7,2.7c2.2,3.2,0.6,6.7-3.3,7.2
		C2692.1-1399.7,2691.4-1399.7,2690.3-1399.7z"/>
	<path id="XMLID_231_" class="st8" d="M2564.6-1399.6c-1.1-0.2-2.2-0.2-3.2-0.5c-2.7-0.9-3.7-3.7-2.4-6.2c0.9-1.7,2.2-2.9,3.8-3.9
		c4.2-2.4,8.7-3.7,13.5-4.1c0.5,0,1.1,0,1.6,0c1.9,0.1,3.7,0.7,4.5,2.6c0.8,2-0.3,3.5-1.6,4.9
		C2576.3-1402.3,2570.8-1400.2,2564.6-1399.6z"/>
	<path id="XMLID_227_" class="st8" d="M2629.5-1272.9c-4.3,0.3-8-0.5-11.8-1.2c-4.8-0.9-8.8-3.5-12.4-6.6c-0.5-0.4-0.9-1.1-1.2-1.8
		c-0.1-0.2,0.1-0.7,0.3-1c0.2-0.2,0.7-0.4,0.9-0.3c0.6,0.3,1.3,0.7,1.8,1.1c5,4.4,10.9,6.3,17.5,6.7c5.5,0.3,10.9,0.1,16.3-1
		c7.6-1.6,13.9-5.3,19-11.1c1.1-1.2,1.9-2.7,3.5-3.4c0.5-0.2,1.1-0.1,1.4,0.4c0.2,0.3,0.2,0.7,0.2,1c0,0.2-0.1,0.3-0.2,0.5
		c-6.3,8-14.1,13.7-24.3,15.4C2636.8-1273.3,2633-1272.4,2629.5-1272.9z"/>
	<path id="XMLID_226_" class="st8" d="M2629.4-1313.3c-1.8,0-3.6,0.1-5.5,0c-0.7,0-1.3-0.4-1.9-0.8c-0.2-0.1-0.3-0.6-0.3-1
		c-0.1-0.7,0.4-1.1,0.9-1.1c4.6,0.5,9.1,0.5,13.6-0.4c0.7-0.1,1.5-0.2,2.2-0.3c4-1,5-2.2,4.9-6.6c0-3.7-0.7-7.3-1.5-10.8
		c-2.1-9.4-4.3-18.8-6.5-28.2c-0.2-0.7-0.2-1.4-0.2-2.1c0-0.3,0.4-0.6,0.7-0.7c0.3-0.1,0.7,0,1,0.2c0.8,0.8,1.2,1.8,1.4,2.9
		c2.4,10.8,4.9,21.7,7.2,32.5c0.5,2.5,0.6,5.1,0.6,7.6c0,4-1.4,6.1-5.3,7.3c-2.6,0.8-5.3,1.4-8,1.4
		C2631.6-1313.3,2630.5-1313.3,2629.4-1313.3C2629.4-1313.3,2629.4-1313.3,2629.4-1313.3z"/>
	<path id="XMLID_223_" class="st8" d="M2518.3-1359.2c-8.3-1.9-13.2,8-10.3,14.6c1,2.2,2.4,4.1,3.8,6c0.3,0.4,0.7,0.8,1,1.3
		c0.4,0.7,0.6,1.4-0.2,1.9c-0.4,0.2-1.2,0.2-1.5-0.1c-4.8-4.5-7.6-9.8-6.3-16.5c1.2-6.7,7-10.8,13.9-9.8c0.9,0.1,1.8,0.2,2.7,0.4
		c0.6,0.1,0.9,0.6,1,1.1c0.1,1-0.7,1.2-1.4,1.2C2520-1359.1,2519.1-1359.2,2518.3-1359.2z"/>
	<path id="XMLID_222_" class="st8" d="M2736.7-1359.1c-0.4,0-1.3,0-2.2,0c-0.6,0-1.1-0.3-1.2-0.8c0-0.4,0.3-1.3,0.6-1.3
		c3-0.7,6-1.7,9.1-0.4c4.2,1.8,6.8,4.9,7.8,9.2c0.9,4,0.5,8-1.9,11.5c-1.3,2-2.6,4-4.5,5.4c-0.5,0.4-1,0.2-1.5-0.1
		c-0.6-0.4-0.5-1-0.2-1.4c1.3-2,2.8-3.8,4-5.8c2.7-4.6,2.2-9.5-0.8-13.3C2743.6-1359,2740.7-1359.8,2736.7-1359.1z"/>
	<path id="XMLID_221_" class="st8" d="M2631.3-1258.1c-2,0.1-4,0.7-6,0c-0.4-0.2-1-0.7-1-1.1c0-0.4,0.5-1.1,0.9-1.2
		c1.2-0.2,2.5-0.3,3.8-0.4c2.4-0.1,4.7-0.1,7.1-0.3c5.5-0.6,10.7-2.1,15.1-5.7c0.5-0.4,1-0.3,1.5,0c0.8,0.6,0.5,1.3,0,1.9
		c-2.6,2.7-6,4.1-9.5,5.2C2639.4-1258.5,2635.4-1258.3,2631.3-1258.1z"/>
	<path id="XMLID_216_" class="st8" d="M2578.2-1353.7c-6.1,0.2-11.3-0.7-16.4-2.2c-2.6-0.8-5.1-2-7.3-3.6c-5.2-3.8-6.8-9.5-4.3-15.5
		c2-4.9,5.4-8.1,10.4-9.7c5.3-1.7,10.7-2.2,16.2-1.8c5.3,0.4,10.5,1.4,15.5,3.3c3.3,1.3,6.2,3.1,8.8,5.4c5.7,5,4.6,14.2-0.8,18.2
		c-3.4,2.6-7.3,4.1-11.4,5C2585.1-1353.9,2581.3-1353.7,2578.2-1353.7z M2602.1-1369.4c0-3-1-5.1-3.9-7.4c-4.5-3.6-9.9-5.2-15.5-6.2
		c-0.9-0.2-1.3,0.6-0.8,1.9c2.2,5.9,3.2,11.8,1.9,18.1c-0.4,1.8-1.2,3.4-1.9,5.1c-0.2,0.5,0.2,1.2,0.7,1.1
		c5.7-0.4,11.1-1.6,15.8-5.1C2600.9-1363.7,2602.1-1366.2,2602.1-1369.4z"/>
	<path id="XMLID_123_" class="st8" d="M2677.7-1353.8c-5.1,0.1-10.2-0.3-15.1-2c-2.4-0.8-4.7-2-6.8-3.4c-6.1-4.2-7.3-13.7-1.1-18.9
		c2.7-2.3,5.6-4.1,8.9-5.2c9.1-3.2,18.4-4.3,28-2.3c5.8,1.2,10.6,3.8,13.3,9.4c2.8,5.8,2.2,12.9-4.6,17.2
		c-5.1,3.3-10.7,4.4-16.5,5.1C2681.8-1353.6,2679.7-1353.8,2677.7-1353.8z M2687.1-1382.9c3.8,8.4,4,16.8-0.4,25.6
		c5.5-0.6,10-2.1,13.8-5.5c3.1-2.8,4-6.4,2.5-10.4C2700.7-1379.8,2694.8-1383.4,2687.1-1382.9z"/>
	<path id="XMLID_25_" class="st8" d="M382.9,136.4c0,1,0,1.4,0,1.7c-0.1,0.9,0,1.8-1,2.3c-0.7,0.4-1.5-0.4-1.7-2.2
		c-0.6-4.9-1-9.8-1.8-14.6c-1.9-11.5-4.2-22.9-8.9-33.7c-4.8-10.9-10.9-21-19-29.8c-2-2.2-4.1-4.1-6.4-5.9c-0.3-0.2-0.4-1.1-0.3-1.4
		c0.2-0.3,1-0.6,1.4-0.5c2,0.5,3.4,2.1,4.8,3.5c5.6,5.5,10.3,11.8,14.5,18.5c7.8,12.6,12.6,26.2,15.2,40.7c1.1,6.4,2,12.9,3,19.4
		C382.9,135.2,382.9,136.1,382.9,136.4z"/>
	<path id="XMLID_24_" class="st8" d="M384.5,245.9c-0.4-0.5-0.9-0.8-1.1-1.3c-0.1-0.2,0.1-0.8,0.3-0.9c0.8-0.5,1.5-0.9,2.4-1.3
		c17.7-6.9,31.9-18.9,44.7-32.6c7.2-7.7,13.9-15.9,19.3-25.1c0.1-0.2,0.2-0.3,0.3-0.5c0.5-0.8,1.1-1.5,2.1-1.4
		c0.7,0.1,0.7,1.8,0.1,2.9c-0.6,1.1-1.3,2.2-2,3.3c-12.5,18.6-27.6,34.8-46.5,47.2c-5.3,3.5-11,6.4-17,8.7
		C386.2,245.4,385.4,245.6,384.5,245.9z"/>
	<path id="XMLID_23_" class="st8" d="M362.2,284.3c-0.5-0.8-0.8-1.7-0.4-2.6c0.2-0.5,0.8-0.9,1.3-0.6c0.8,0.4,1.4,1.1,2.1,1.7
		c3.9,3.3,7.7,6.7,11.6,9.9c14.7,11.8,31.6,18.5,50,22c4.6,0.9,9.3,2,14.1,1.3c0.7-0.1,1.5,0,2.1,0.3c0.9,0.3,1.9,0.7,1.8,1.7
		c0,1.3-1.1,1.1-2,1.2c-7,0.4-13.7-1.2-20.5-2.6c-20.8-4.3-39-13.8-54.8-28c-1.7-1.6-3.2-3.5-5.5-4.5L362.2,284.3z"/>
	<path id="XMLID_22_" class="st8" d="M362.1,284.2c5.8,13.9,13.6,26.5,25.4,36.2c9.3,7.7,19.3,14.2,30.1,19.6
		c0.9,0.5,2.2,0.7,1.9,2.2c-0.2,1-1.6,1.2-3.2,0.4c-13.9-7.1-26.7-15.6-37.7-26.7c-8-8.1-13.4-18.1-18.2-28.3c-1-2-0.6-2.5,1.8-3.2
		L362.1,284.2z"/>
	<path id="XMLID_21_" class="st8" d="M389.7,249.6c-1.3-0.1-2.6-0.1-3.8-0.2c-0.7-0.1-1.5-0.4-1.4-1.3c0.1-0.9,0.9-1.1,1.6-1.1
		c5.7,0.1,11.2-0.9,16.8-2.1c7.9-1.7,15.5-4.1,22.8-7.5c10.8-5,21.1-10.8,30.1-18.7c0.4-0.4,0.9-0.7,1.3-0.9c0.3-0.1,0.7,0,1,0.2
		c0.6,0.3,0.6,1,0.3,1.4c-0.5,0.8-1,1.5-1.7,2.1c-1.7,1.4-3.4,2.8-5.1,4.1c-16.7,11.9-34.9,20.3-55.3,23.5
		C394,249.3,391.8,249.4,389.7,249.6z"/>
	<path id="XMLID_20_" class="st8" d="M365.5,136.9c0,0.3-0.1,1-0.3,1.7c-0.1,0.2-0.5,0.5-0.8,0.5c-0.3,0-0.8-0.2-0.9-0.4
		c-0.5-1.6-1-3.1-1.2-4.7c-1.2-9.2-3.5-18.2-5.8-27.2c-1.8-6.9-4.4-13.5-7.9-19.7c-2.4-4.3-5-8.5-9-11.5c-0.4-0.3-0.7-0.9-0.3-1.5
		c0.4-0.7,1.1-0.8,1.8-0.4c0.5,0.3,0.9,0.6,1.4,0.9c2.4,1.8,4.2,4,5.8,6.5c3.7,5.9,6.9,12,9,18.6c3.6,11.3,6.1,22.8,8.1,34.5
		C365.4,135,365.4,135.7,365.5,136.9z"/>
	<path id="XMLID_19_" class="st8" d="M269.4,90.9c0-0.8-0.1-1.2,0-1.5c0.1-0.7,0.3-1.6,1.1-1.7c1.2-0.2,1.5,0.9,1.6,1.7
		c0.5,3.6,0.5,7.2,1.3,10.8c2.2,10.7,4.6,21.4,7.4,31.9c1,3.7,2.4,7.3,4.1,10.7c0.3,0.5-0.1,1.1-0.6,1.3c-0.3,0.1-0.8,0-1-0.1
		c-1.9-1.4-2.7-3.4-3.3-5.5c-1.3-4.2-2.5-8.4-3.5-12.6c-2-8.3-3.9-16.7-5.6-25.1C270.1,97.4,269.8,93.9,269.4,90.9z"/>
	<path id="XMLID_18_" class="st8" d="M157.2,128.6c1.4-11.1,2.7-21.9,5.9-32.4c0.8-2.6,1.6-5.2,3.3-7.4c0.2-0.2,0.6-0.3,1-0.3
		c0.6,0.1,1,0.6,0.9,1.1c-0.1,0.7-0.3,1.4-0.6,2.1c-3.1,7.1-4.5,14.6-5.7,22.1c-1,6.3-2.3,12.5-2.1,18.9c0,0.4-0.5,1.2-0.8,1.2
		c-0.8,0.1-1.4-0.5-1.5-1.3C157.4,131.3,157.3,129.9,157.2,128.6z"/>
	<path id="XMLID_17_" class="st8" d="M345.1,104.8c0.3,0.2,0.9,0.4,1.1,0.8c0.5,1.1,1.1,2.3,1.3,3.6c1.3,5.7,2.5,11.4,3.7,17.1
		c0.1,0.5,0.1,1.1,0,1.6c-0.1,0.3-0.4,0.9-0.6,0.8c-0.5-0.1-1.2-0.2-1.4-0.6c-0.5-0.8-0.8-1.6-1-2.5c-1.3-6.4-2.5-12.9-4.4-19.1
		C343.7,105.7,344,105,345.1,104.8z"/>
	<path id="XMLID_16_" class="st8" d="M284.1,111.6c0.1-1.3,0.1-1.9,0.3-2.4c0.2-0.4,0.4-1.1,1.1-0.8c0.3,0.1,0.7,0.3,0.8,0.6
		c0.2,0.5,0.4,1,0.5,1.5c0.9,5.5,1.5,11.1,3.2,16.4c0.2,0.7,0.1,1.6-0.6,1.8c-0.7,0.2-1.3-0.3-1.7-1c-0.3-0.6-0.7-1.3-0.9-2
		C285.8,120.7,284.9,115.8,284.1,111.6z"/>
	<path id="XMLID_278_" class="st0" d="M1241.5,613.8H684.9c1.3-4.8,2.7-9.6,4.1-14.4c3.5-11.7,7.8-23.1,12.6-34.4
		c8.2-19.3,19.7-36.6,33.6-52.2c26.8-30.2,58.4-54.2,94.5-72.3c15.6-7.9,31.6-15,48.2-20.6c0.9-0.3,1.9-0.6,2.7-1
		c0.1,0,0.2-0.1,0.3-0.1c1.3-0.6,2.4-0.3,3.5,0.3c0.2,0.1,0.3,0.2,0.5,0.3c1.1,0.7,1.9,1.6,2.7,2.7c9.4,12.9,22.2,21.5,36.7,27.5
		c17.5,7.3,35.9,9.6,54.7,7.8c12.4-1.2,24.3-4.5,35.4-10.6c10.6-5.9,19.3-13.7,24.9-24.6c0.4-0.8,0.8-1.5,1.3-1.9
		c0.8-0.9,1.8-1.1,3.1-0.9c0.4,0.1,0.8,0.1,1.3,0.3c1.9,0.5,3.8,1.3,5.7,2c37.6,13.6,72.8,31.8,103.9,57.2
		c17,13.9,32.7,29.1,46.1,46.5c9.2,11.9,16.9,24.6,23.1,38.3C1231.1,579.8,1236.8,596.6,1241.5,613.8z"/>
	<path id="XMLID_275_" class="st3" d="M1040.6,420.2c-0.4,0.5-0.8,1.1-1.3,1.9c-5.6,11-14.3,18.8-24.9,24.6
		c-11,6.1-22.9,9.5-35.4,10.6c-18.8,1.8-37.1-0.5-54.7-7.8c-14.6-6-27.3-14.6-36.7-27.5c-0.8-1-1.6-1.9-2.7-2.7
		c-0.2-0.1-0.3-0.2-0.5-0.3c2.3-2.3,4.3-4.8,6.2-7.5c6.2-8.6,9.8-18.2,12-28.5c2.2-10.4,3.1-20.9,4.4-31.4c0.4-3,0.7-6,1.1-9.4
		c2.1,1,3.3,2.4,4.5,3.7c3.7,4.3,8.1,7.8,12.7,11.2c9.4,7,19.6,12.5,30.6,16.8c16.9,6.6,34.2,11.3,52.3,13c3.8,0.4,7.6,0.6,11.5,0.6
		c3.5,0,3.8,0.3,4.5,3.3c1.3,5.2,3.4,10,5.6,14.8C1032.6,411.3,1036.3,416.1,1040.6,420.2z"/>
	<path id="XMLID_240_" class="st8" d="M890,357.9"/>
	<path id="XMLID_243_" class="st8" d="M1050.8,424.6c-2.6-1.6-4.9-3.4-7-5.3c-6.9-6.2-11.7-14.1-14.9-23.1
		c-2.5-7.3-4.2-14.7-3.7-22.5c0.1-1.4,0.2-2.9,0.2-4.3c0.2-4.2,0.4-8.4,0.6-12.6c0.2-4.6,0.4-9.1,0.6-13.7c0.2-3.3,1.2-5.9,3.3-8.4
		c-0.9-0.4-1.9-0.8-2.9-1.2c-0.7,0.7-1.5,1.4-2.2,2.1h-119c-0.9,0.5-1.9,1-2.8,1.5c1.8,1.8,2.5,3.7,2.2,6.1c0,0.5-0.1,1.1-0.1,1.6
		c-0.8,10.6-2.2,21-3.8,31.5c-1.2,7.6-3.1,15-6.2,22c-3.5,7.9-8.2,14.8-14.4,20.5c-0.4,0.3-0.7,0.7-1.1,1c-2.3,2-4.8,3.9-7.5,5.6
		c-2.5,1.6-5.2,2.5-7.9,3.7c-0.4,0.2-0.8,0.8-0.8,1.2c-0.1,1,0.8,1.2,1.5,1.1c2.8-0.3,5.2-1.6,7.6-2.9c4.3-2.6,8.2-5.6,11.7-9.1
		c0.1-0.1,0.3-0.3,0.4-0.4c2.3-2.3,4.3-4.8,6.2-7.4c6.2-8.6,9.8-18.2,12-28.5c1.3-6.3,2.2-12.6,2.9-19c0.5-4.1,0.9-8.3,1.5-12.4
		c0.4-3,0.7-6,1.1-9.4c2.1,1,3.3,2.4,4.5,3.7c3.7,4.3,8.1,7.8,12.7,11.2c6.3,4.6,12.9,8.6,19.8,12.1c3.5,1.7,7.1,3.3,10.8,4.7
		c9.6,3.7,19.3,6.9,29.2,9.2c7.6,1.8,15.3,3.1,23.1,3.8c3.8,0.4,7.6,0.6,11.5,0.6c3.5,0,3.8,0.3,4.5,3.3c1.3,5.1,3.4,10,5.6,14.8
		c2.7,5.6,6.3,10.3,10.7,14.4c2.6,2.5,5.5,4.7,8.5,6.8c1.9,1.3,3.7,1.4,3.8,0.5C1053.1,425.8,1051.8,425.3,1050.8,424.6z"/>
	<path id="XMLID_246_" class="st8" d="M2289.1,149.6c-5.6-0.6-10.9-2.6-15.2-6.9c-0.5-0.5-1-1.1-1.4-1.7c-1.4-2.3-0.5-4.8,2.2-5.6
		c0.9-0.3,1.8-0.4,2.7-0.4c5.4,0.2,10.4,1.6,14.9,4.6c1,0.7,2,1.7,2.7,2.7c2.2,3.2,0.6,6.7-3.3,7.2
		C2291,149.6,2290.2,149.5,2289.1,149.6z"/>
	<path id="XMLID_242_" class="st8" d="M2163.4,149.6c-1.1-0.2-2.2-0.2-3.2-0.5c-2.7-0.9-3.7-3.7-2.4-6.2c0.9-1.7,2.2-2.9,3.8-3.9
		c4.2-2.4,8.7-3.7,13.5-4.1c0.5,0,1.1,0,1.6,0c1.9,0.1,3.7,0.7,4.5,2.6c0.8,2-0.3,3.5-1.6,4.9C2175.2,147,2169.6,149,2163.4,149.6z"
		/>
	<path id="XMLID_241_" class="st8" d="M3563.8,356.4c-4.3,0.3-8-0.5-11.8-1.2c-4.8-0.9-8.8-3.5-12.4-6.6c-0.5-0.4-0.9-1.1-1.2-1.8
		c-0.1-0.2,0.1-0.7,0.3-1c0.2-0.2,0.7-0.4,0.9-0.3c0.6,0.3,1.3,0.7,1.8,1.1c5,4.4,10.9,6.3,17.5,6.7c5.5,0.3,10.9,0.1,16.3-1
		c7.6-1.6,13.9-5.3,19-11.1c1.1-1.2,1.9-2.7,3.5-3.4c0.5-0.2,1.1-0.1,1.4,0.4c0.2,0.3,0.2,0.7,0.2,1c0,0.2-0.1,0.4-0.2,0.5
		c-6.3,8-14.1,13.7-24.3,15.4C3571,356,3567.2,357,3563.8,356.4z"/>
	<path id="XMLID_235_" class="st8" d="M2856.7,231.3c-1.8,0-3.6,0.1-5.5,0c-0.7,0-1.3-0.4-1.9-0.8c-0.2-0.1-0.3-0.6-0.3-1
		c-0.1-0.7,0.4-1.1,0.9-1.1c4.6,0.5,9.1,0.5,13.6-0.4c0.7-0.1,1.5-0.2,2.2-0.3c4-1,5-2.2,4.9-6.6c0-3.7-0.7-7.3-1.5-10.8
		c-2.1-9.4-4.3-18.8-6.5-28.2c-0.2-0.7-0.2-1.4-0.2-2.1c0-0.3,0.4-0.6,0.7-0.7c0.3-0.1,0.7,0,1,0.2c0.8,0.8,1.2,1.8,1.4,2.9
		c2.4,10.8,4.9,21.7,7.2,32.5c0.5,2.5,0.6,5.1,0.6,7.6c0,4-1.4,6.1-5.3,7.3c-2.6,0.8-5.3,1.4-8,1.4
		C2858.9,231.3,2857.8,231.3,2856.7,231.3C2856.7,231.3,2856.7,231.3,2856.7,231.3z"/>
	<path id="XMLID_230_" class="st8" d="M3565.6,371.2c-2,0.1-4,0.7-6,0c-0.4-0.2-1-0.7-1-1.1c0-0.4,0.5-1.1,0.9-1.2
		c1.2-0.2,2.5-0.3,3.8-0.4c2.4-0.1,4.7-0.1,7.1-0.3c5.5-0.6,10.7-2.1,15.1-5.7c0.5-0.4,1-0.3,1.5,0c0.8,0.6,0.5,1.3,0,1.9
		c-2.6,2.7-6,4.1-9.5,5.2C3573.6,370.8,3569.6,371.1,3565.6,371.2z"/>
	<path id="XMLID_225_" class="st8" d="M2177.1,195.6c-6.1,0.2-11.3-0.7-16.4-2.2c-2.6-0.8-5.1-2-7.3-3.6c-5.2-3.8-6.8-9.5-4.3-15.5
		c2-4.9,5.4-8.1,10.4-9.7c5.3-1.7,10.7-2.2,16.2-1.8c5.3,0.4,10.5,1.4,15.5,3.3c3.3,1.3,6.2,3.1,8.8,5.4c5.7,5,4.6,14.2-0.8,18.2
		c-3.4,2.6-7.3,4.1-11.4,5C2184,195.4,2180.1,195.5,2177.1,195.6z M2200.9,179.9c0-3-1-5.1-3.9-7.4c-4.5-3.6-9.9-5.2-15.5-6.2
		c-0.9-0.2-1.3,0.6-0.8,1.9c2.2,5.9,3.2,11.8,1.9,18.1c-0.4,1.8-1.2,3.4-1.9,5.1c-0.2,0.5,0.2,1.2,0.7,1.1
		c5.7-0.4,11.1-1.6,15.8-5.1C2199.7,185.6,2201,183,2200.9,179.9z"/>
	<path id="XMLID_219_" class="st8" d="M2276.5,195.4c-5.1,0.1-10.2-0.3-15.1-2c-2.4-0.8-4.7-2-6.8-3.4c-6.1-4.2-7.3-13.7-1.1-18.9
		c2.7-2.3,5.6-4.1,8.9-5.2c9.1-3.2,18.4-4.3,28-2.3c5.8,1.2,10.6,3.8,13.3,9.4c2.8,5.8,2.2,12.9-4.6,17.2
		c-5.1,3.3-10.7,4.4-16.5,5.1C2280.6,195.6,2278.6,195.4,2276.5,195.4z M2285.9,166.4c3.8,8.4,4,16.8-0.4,25.6
		c5.5-0.6,10-2.1,13.8-5.5c3.1-2.8,4-6.4,2.5-10.4C2299.5,169.5,2293.7,165.9,2285.9,166.4z"/>
</g>
</svg>
