<?xml version="1.0" ?><svg width="64px" height="64px" viewBox="0 0 64 64" id="Layer_1_1_" style="enable-background:new 0 0 64 64;" version="1.1" xml:space="preserve" xmlns="http://www.w3.org/2000/svg" xmlns:xlink="http://www.w3.org/1999/xlink"><g><path d="M58,31H33V6c0-2.757-2.243-5-5-5H6C3.243,1,1,3.243,1,6v25v1v26c0,2.757,2.243,5,5,5h26h1h25c2.757,0,5-2.243,5-5V36   C63,33.243,60.757,31,58,31z M3,6c0-1.654,1.346-3,3-3h22c1.654,0,3,1.346,3,3v25.007l-6.542,0.022   c1.249-1.843,1.764-4.086,1.452-6.317c-0.557-3.981-3.864-7.2-7.864-7.653c-2.566-0.286-5.13,0.521-7.039,2.228   C9.096,20.993,8,23.439,8,26c0,1.802,0.534,3.541,1.526,5H3V6z M31,54.474V61H6c-1.654,0-3-1.346-3-3V33h6.526   c0.746,0,1.427-0.411,1.778-1.073c0.342-0.646,0.302-1.419-0.104-2.019C10.415,28.751,10,27.399,10,26   c0-1.991,0.853-3.895,2.339-5.223c1.507-1.346,3.455-1.959,5.481-1.731c3.107,0.353,5.676,2.852,6.109,5.943   c0.243,1.74-0.157,3.486-1.127,4.917c-0.407,0.601-0.448,1.376-0.105,2.022C23.047,32.59,23.728,33,24.473,33H31v6.526   c0,0.745,0.41,1.425,1.07,1.775c0.646,0.343,1.42,0.303,2.023-0.104c1.432-0.971,3.181-1.372,4.917-1.127   c3.092,0.433,5.591,3.001,5.942,6.108c0.229,2.028-0.385,3.975-1.731,5.481C41.895,53.147,39.991,54,38,54   c-1.4,0-2.751-0.415-3.908-1.198c-0.599-0.407-1.373-0.447-2.019-0.105C31.411,53.047,31,53.729,31,54.474z M61,58   c0,1.654-1.346,3-3,3H32.993l-0.024-6.543C34.459,55.467,36.199,56,38,56c2.56,0,5.007-1.096,6.714-3.007   c1.706-1.908,2.517-4.474,2.227-7.038c-0.453-4-3.671-7.308-7.652-7.864c-2.231-0.313-4.474,0.203-6.289,1.436V33h25   c1.654,0,3,1.346,3,3V58z"/><path d="M38.585,12c1.289,1.289,3.541,1.289,4.829,0L44,11.414L52.586,20L52,20.586c-0.645,0.646-1,1.503-1,2.414   s0.355,1.769,1,2.414L54.585,28c0.645,0.645,1.502,1,2.415,1s1.77-0.355,2.414-1l1.879-1.879C62.378,25.036,63,23.534,63,22   s-0.622-3.036-1.707-4.121L46.121,2.707C45.021,1.606,43.557,1,42,1s-3.021,0.606-4.121,1.707L36,4.586C35.355,5.231,35,6.089,35,7   s0.355,1.769,1,2.414L38.585,12z M56,26.586L53.415,24C53.147,23.732,53,23.378,53,23s0.147-0.732,0.414-1L54,21.414L58.586,26   L58,26.586C57.466,27.121,56.534,27.121,56,26.586z M44.707,4.121l15.172,15.172C60.591,20.006,61,20.992,61,22   c0,0.95-0.374,1.873-1.012,2.574L55.414,20l-0.707-0.707l-10-10L44,8.586l-4.573-4.573C40.89,2.689,43.302,2.717,44.707,4.121z    M37.414,6L38,5.414L42.586,10L42,10.586c-0.533,0.535-1.465,0.535-2,0L37.415,8C37.147,7.732,37,7.378,37,7S37.147,6.268,37.414,6   z"/><rect height="2" width="2" x="16" y="57"/><path d="M17.114,35.001c-0.039,0-0.077-0.001-0.116-0.001c-2.116,0-4.106,0.815-5.615,2.304C9.846,38.819,9,40.842,9,43   c0,1.646,0.497,3.227,1.437,4.572l1.64-1.145C11.372,45.419,11,44.233,11,43c0-1.618,0.635-3.136,1.787-4.272   s2.671-1.758,4.298-1.727c3.162,0.044,5.87,2.752,5.914,5.913c0.039,2.829-1.933,5.328-4.688,5.942   C16.972,49.155,16,50.38,16,51.77V55h2v-3.23c0-0.46,0.314-0.864,0.747-0.961c3.675-0.819,6.305-4.151,6.253-7.922   C24.94,38.599,21.402,35.061,17.114,35.001z"/><path d="M42,19c0,1.654,1.346,3,3,3s3-1.346,3-3s-1.346-3-3-3S42,17.346,42,19z M46,19c0,0.552-0.449,1-1,1s-1-0.448-1-1   s0.449-1,1-1S46,18.448,46,19z"/><path d="M36,25c0,1.654,1.346,3,3,3s3-1.346,3-3s-1.346-3-3-3S36,23.346,36,25z M40,25c0,0.552-0.449,1-1,1s-1-0.448-1-1   s0.449-1,1-1S40,24.448,40,25z"/></g></svg>