<svg width="74.894px" height="74.894px" viewBox="0 -4.55 74.894 74.894" xmlns="http://www.w3.org/2000/svg">
  <g id="Group_17" data-name="Group 17" transform="translate(-190.907 -163.725)">
    <g id="Group_16" data-name="Group 16">
      <path id="Path_9" data-name="Path 9" d="M265.465,174.776c-3.41-2.693-13.283-6.1-13.732-6.282l-14.539-4.577a3.476,3.476,0,0,0-2.513.09c-1.975.808-6.282.808-6.282.808s-4.308,0-6.282-.808a3.7,3.7,0,0,0-2.6-.09l-14.539,4.577c-.449.179-10.231,3.5-13.732,6.282a.85.85,0,0,0-.179,1.167l7.988,13.911a.973.973,0,0,0,1.077.449c.628-.18,2.6-.538,3.59,0a1.482,1.482,0,0,1,.718.9l-.718,37.425a.919.919,0,0,0,.9.9h47.477a.815.815,0,0,0,.628-.269.966.966,0,0,0,.269-.628l-.718-37.425a1.7,1.7,0,0,1,.718-.9,4.918,4.918,0,0,1,3.59,0,1.092,1.092,0,0,0,1.077-.449l7.988-13.911A.837.837,0,0,0,265.465,174.776Zm-43.977-9.065c2.244.9,6.731.9,6.911.9s4.667,0,6.911-.987a1.934,1.934,0,0,1,.987-.09c-.359,2.692-2.064,11.129-7.988,13.821-5.923-2.692-7.629-11.039-7.988-13.821A4.581,4.581,0,0,1,221.488,165.711Zm-16.783,23.066a6.708,6.708,0,0,0-4.308-.359l-7.27-12.654c3.051-2.064,9.6-4.487,11.847-5.205a44.522,44.522,0,0,1,3.321,9.6c.538,3.141.628,7.09-.808,9.154a3.137,3.137,0,0,1-1.346,1.077A3.2,3.2,0,0,0,204.705,188.777Zm.9,38.861.718-35.63a5.1,5.1,0,0,0,2.6-1.795c2.244-3.051,1.526-8.436,1.167-10.59a48.689,48.689,0,0,0-3.321-9.783l11.937-3.68c.449,3.321,2.423,12.206,9.334,15.078a.538.538,0,0,0,.359.09h.09a.538.538,0,0,0,.359-.09c6.911-2.872,8.795-11.757,9.334-15.078l12.026,3.769a43.622,43.622,0,0,0-3.321,9.783c-.359,2.154-1.077,7.539,1.167,10.59a4.462,4.462,0,0,0,2.6,1.795l.628,35.63H205.6v-.089Zm50.887-39.22a6.708,6.708,0,0,0-4.308.359,3.165,3.165,0,0,0-1.346,1.526,2.6,2.6,0,0,1-1.346-1.077c-1.526-2.064-1.436-6.1-.808-9.154a46.385,46.385,0,0,1,3.321-9.6c2.244.808,8.706,3.231,11.847,5.205Z" fill="#1e1e1c"/>
    </g>
  </g>
</svg>
