<svg width="84.409px" height="84.409px" viewBox="0 -8.01 84.409 84.409" xmlns="http://www.w3.org/2000/svg">
  <g id="Group_35" data-name="Group 35" transform="translate(-442.615 -55.894)">
    <g id="Group_34" data-name="Group 34">
      <path id="Path_19" data-name="Path 19" d="M526.466,85.422,514.35,65.767a3.353,3.353,0,0,0-1.167-1.077l-4.936-2.244h0l-9.693-4.308a.328.328,0,0,0-.09-.269.664.664,0,0,0-.539-.449l-5.475-1.526h-.359a44.607,44.607,0,0,1-14.27,0h-.449L471.9,57.42a.921.921,0,0,0-.539.449.328.328,0,0,1-.09.269l-9.783,4.4h0l-4.936,2.244a2.727,2.727,0,0,0-1.167,1.077L443.176,85.422a3.876,3.876,0,0,0-.538,2.513l1.346,22.078a.886.886,0,0,0,.9.808H456.1a.9.9,0,0,0,.9-.9l.628-25.758,2.693.359v38.861a.848.848,0,0,0,.9.9h47.208a.848.848,0,0,0,.9-.9V84.524l2.692-.359c.359,9.154.9,25.13.9,25.848a.848.848,0,0,0,.9.9H524.4a.538.538,0,0,0,.359-.09l.09-.09c.09,0,.09-.09.18-.09l.09-.09c0-.09.09-.09.09-.179v-.358L527,87.755A3.587,3.587,0,0,0,526.466,85.422ZM512.824,66.754,524.94,86.409a2.479,2.479,0,0,1,.269,1.167l-1.257,17.232h-9.424c-.269-7.539-.718-20.732-.808-21.629V75.46a.9.9,0,0,0-1.795,0v6.911l-3.59.449c-.179-.09-1.526-.718-2.064-5.834-.628-5.205,1.167-10.5,1.975-12.565l4.128,1.885C512.555,66.485,512.735,66.575,512.824,66.754Zm1.8,39.848h9.154l-.18,2.6h-8.885C514.709,108.487,514.619,107.679,514.619,106.6ZM492.631,57.869l3.68.987c-.9,1.885-2.872,5.923-4.308,8.8l-5.475-3.231A18.969,18.969,0,0,0,492.631,57.869Zm-2.154,0a16.414,16.414,0,0,1-5.654,5.385,16.357,16.357,0,0,1-5.564-5.385,40.032,40.032,0,0,0,5.3.269A34.216,34.216,0,0,0,490.477,57.869Zm-13.373,0a17.432,17.432,0,0,0,6.1,6.552l-5.475,3.231c-1.436-2.872-3.41-7-4.308-8.795Zm-32.4,28.54,12.116-19.655a.9.9,0,0,1,.449-.359L461.4,64.51a27.352,27.352,0,0,1,1.974,12.565c-.539,5.116-1.885,5.744-2.064,5.834l-3.59-.449V75.549a.9.9,0,0,0-1.794,0v7.718l-.539,21.629h-9.872l-1.077-17.052A1.909,1.909,0,0,1,444.7,86.409Zm.987,22.706-.179-2.6h9.693v2.513Zm16.424-24.68c.18-.09.269-.18.449-.269,1.257-.987,2.154-3.321,2.513-6.911a29.068,29.068,0,0,0-2.154-13.462l8.885-3.949c.987,2.154,3.231,6.731,4.667,9.513a.919.919,0,0,0,.538.449h.269a.673.673,0,0,0,.449-.09l3.231-1.885v54.747H462.116V84.435Zm20.732,38.053V66.754h0l1.974-1.167,7.09,4.128a.808.808,0,0,0,.449.09h.269a.916.916,0,0,0,.538-.449c1.436-2.782,3.68-7.359,4.667-9.513l8.8,3.949c-.808,2.064-2.782,7.718-2.154,13.462.449,3.59,1.256,5.923,2.513,6.911.18.09.269.18.449.269v38.053h-24.59Z" fill="#1e1e1c"/>
    </g>
  </g>
</svg>
