<svg width="74.771px" height="74.771px" viewBox="0 -4.49 74.771 74.771" xmlns="http://www.w3.org/2000/svg">
  <g id="Group_9" data-name="Group 9" transform="translate(-332.295 -57.19)">
    <g id="Group_7" data-name="Group 7">
      <path id="Path_4" data-name="Path 4" d="M406.763,68.241c-3.41-2.692-13.283-6.1-13.732-6.282l-14.539-4.577a3.476,3.476,0,0,0-2.513.09c-1.974.808-6.282.808-6.282.808a23.653,23.653,0,0,1-6.282-.808,3.7,3.7,0,0,0-2.6-.09l-14.449,4.577c-.449.18-10.231,3.5-13.732,6.282a.852.852,0,0,0-.18,1.167l7.988,13.911a.973.973,0,0,0,1.077.449c.628-.18,2.6-.538,3.59,0a1.482,1.482,0,0,1,.718.9l-.718,37.425a.919.919,0,0,0,.9.9H393.48a.815.815,0,0,0,.628-.269.966.966,0,0,0,.269-.628l-.718-37.425a1.7,1.7,0,0,1,.718-.9,4.918,4.918,0,0,1,3.59,0,1.092,1.092,0,0,0,1.077-.449l7.988-13.911A1.291,1.291,0,0,0,406.763,68.241Zm-37.245-7.987a52.924,52.924,0,0,0,5.834-.718c0,.18-.09.359-.09.539a7.655,7.655,0,0,1-.808,2.782c-.9,1.7-2.423,2.6-4.847,2.6a5.044,5.044,0,0,1-4.846-2.513,7.656,7.656,0,0,1-.808-2.782.671.671,0,0,0-.09-.449A29.788,29.788,0,0,0,369.518,60.254Zm-7.9-.808a.762.762,0,0,1,.718.628,8.884,8.884,0,0,0,1.077,3.59c1.257,2.333,3.41,3.5,6.372,3.5s5.116-1.167,6.372-3.5a8.269,8.269,0,0,0,.987-3.59.613.613,0,0,1,.628-.628.64.64,0,0,1,.628.718,10.251,10.251,0,0,1-1.167,4.128c-.987,1.885-3.141,4.218-7.539,4.218s-6.552-2.333-7.539-4.218a10.608,10.608,0,0,1-1.167-4.128C360.9,59.805,361.261,59.535,361.62,59.446Zm-15.706,22.8a6.708,6.708,0,0,0-4.308-.359l-7.27-12.655c3.051-2.064,9.6-4.487,11.847-5.205a44.522,44.522,0,0,1,3.321,9.6c.538,3.141.628,7.18-.808,9.154a3.138,3.138,0,0,1-1.346,1.077A3.206,3.206,0,0,0,345.914,82.242Zm.9,38.861.718-35.63a5.091,5.091,0,0,0,2.6-1.795c2.244-3.051,1.526-8.436,1.167-10.59a48.687,48.687,0,0,0-3.321-9.783l11.308-3.5v.359a11.694,11.694,0,0,0,1.346,4.936,9.9,9.9,0,0,0,9.154,5.205c4.129,0,7.359-1.795,9.154-5.205a11.977,11.977,0,0,0,1.346-4.936V59.8l11.308,3.5a43.623,43.623,0,0,0-3.321,9.783c-.359,2.154-1.077,7.539,1.167,10.59a4.462,4.462,0,0,0,2.6,1.795l.628,35.63Zm50.978-39.22a6.708,6.708,0,0,0-4.308.359,3.165,3.165,0,0,0-1.346,1.526,2.592,2.592,0,0,1-1.346-1.077c-1.526-2.064-1.436-6.1-.808-9.154a46.383,46.383,0,0,1,3.321-9.6c2.244.808,8.706,3.231,11.847,5.2Z" fill="#1e1e1c"/>
    </g>
    <g id="Group_8" data-name="Group 8">
      <path id="Path_5" data-name="Path 5" d="M406.763,68.241c-3.41-2.692-13.283-6.1-13.732-6.282l-14.539-4.577a3.476,3.476,0,0,0-2.513.09c-1.974.808-6.282.808-6.282.808a23.653,23.653,0,0,1-6.282-.808,3.7,3.7,0,0,0-2.6-.09l-14.449,4.577c-.449.18-10.231,3.5-13.732,6.282a.852.852,0,0,0-.18,1.167l7.987,13.911a.973.973,0,0,0,1.077.449c.628-.18,2.6-.538,3.59,0a1.482,1.482,0,0,1,.718.9L345.1,122.09a.919.919,0,0,0,.9.9h47.477a.815.815,0,0,0,.628-.269.966.966,0,0,0,.269-.628l-.718-37.425a1.7,1.7,0,0,1,.718-.9,4.918,4.918,0,0,1,3.59,0,1.092,1.092,0,0,0,1.077-.449l7.988-13.911A1.288,1.288,0,0,0,406.763,68.241Zm-37.245-7.987a52.924,52.924,0,0,0,5.834-.718c0,.18-.09.359-.09.539a7.655,7.655,0,0,1-.808,2.782c-.9,1.7-2.423,2.6-4.847,2.6a5.044,5.044,0,0,1-4.846-2.513,7.656,7.656,0,0,1-.808-2.782.671.671,0,0,0-.09-.449A29.788,29.788,0,0,0,369.518,60.254Zm-7.9-.808a.762.762,0,0,1,.718.628,8.884,8.884,0,0,0,1.077,3.59c1.256,2.333,3.41,3.5,6.372,3.5s5.116-1.167,6.372-3.5a8.269,8.269,0,0,0,.987-3.59.613.613,0,0,1,.628-.628.64.64,0,0,1,.628.718,10.251,10.251,0,0,1-1.167,4.128c-.987,1.885-3.141,4.218-7.539,4.218s-6.552-2.333-7.539-4.218a10.608,10.608,0,0,1-1.167-4.128C360.9,59.805,361.261,59.535,361.62,59.446Zm-15.706,22.8a6.708,6.708,0,0,0-4.308-.359l-7.27-12.655c3.051-2.064,9.6-4.487,11.847-5.205a44.522,44.522,0,0,1,3.321,9.6c.538,3.141.628,7.18-.808,9.154a3.13,3.13,0,0,1-1.346,1.077A3.206,3.206,0,0,0,345.914,82.242Zm.9,38.861.718-35.63a5.091,5.091,0,0,0,2.6-1.795c2.244-3.051,1.526-8.436,1.167-10.59a48.687,48.687,0,0,0-3.321-9.783l11.308-3.5v.359a11.694,11.694,0,0,0,1.346,4.936,9.9,9.9,0,0,0,9.154,5.205c4.129,0,7.359-1.795,9.154-5.205a11.977,11.977,0,0,0,1.346-4.936V59.8l11.308,3.5a43.623,43.623,0,0,0-3.321,9.783c-.359,2.154-1.077,7.539,1.167,10.59a4.462,4.462,0,0,0,2.6,1.795l.628,35.63Zm50.978-39.22a6.708,6.708,0,0,0-4.308.359,3.165,3.165,0,0,0-1.346,1.526,2.592,2.592,0,0,1-1.346-1.077c-1.526-2.064-1.436-6.1-.808-9.154a46.383,46.383,0,0,1,3.321-9.6c2.244.808,8.706,3.231,11.847,5.2Z" fill="#1e1e1c"/>
    </g>
  </g>
</svg>
