<svg width="83.488px" height="83.488px" viewBox="0 -4.12 83.488 83.488" xmlns="http://www.w3.org/2000/svg">
  <g id="Group_110" data-name="Group 110" transform="translate(-440.664 -384.065)">
    <g id="Group_64" data-name="Group 64">
      <g id="Group_63" data-name="Group 63">
        <g id="Group_57" data-name="Group 57">
          <path id="Path_32" data-name="Path 32" d="M523.616,419.382,511.59,399.907a3.352,3.352,0,0,0-1.167-1.077l-4.846-2.154h0l-10.142-5.385c-.09,0-.09-.09-.18-.09l-2.692-1.436a4.668,4.668,0,0,1-1.7-1.8l-.718-1.526a3.464,3.464,0,0,0-2.872-2.064l-2.513-.18a20.236,20.236,0,0,0-4.667,0l-2.6.18a3.391,3.391,0,0,0-1.436.449h-.18a3.505,3.505,0,0,0-1.257,1.526l-.449,1.257a4.029,4.029,0,0,1-1.885,2.154c-.09,0-.18,0-.18.09l-12.834,6.821-4.846,2.154a2.279,2.279,0,0,0-1.167,1.077l-12.026,19.475a3.247,3.247,0,0,0-.539,2.244L442.3,438.41a3.265,3.265,0,0,0,.628,1.526l.808,5.026a.889.889,0,0,0,.987.718,32.544,32.544,0,0,1,7.718,0h.179a.873.873,0,0,0,.9-.718l.808-4.846h0a3.778,3.778,0,0,0,.9-2.333l.359-19.655,2.6.359c-.09,5.026-.539,31.322,1.436,40.118a.874.874,0,0,0,.9.718h.09c.09,0,8.616-.808,19.745-.9a2.117,2.117,0,0,0,1.436.628h3.141a2.119,2.119,0,0,0,1.436-.628c10.231.18,17.86.808,17.95.9h.09a.873.873,0,0,0,.9-.718c1.885-8.8,1.526-35.181,1.436-40.118l2.6-.359.359,19.655a3.59,3.59,0,0,0,.9,2.333l.808,4.846a.874.874,0,0,0,.9.718h.18a32.763,32.763,0,0,1,7.718,0,.888.888,0,0,0,.987-.718l.718-5.026a2.546,2.546,0,0,0,.628-1.526l1.615-16.783A4.578,4.578,0,0,0,523.616,419.382ZM501.9,411.215c.359,3.5,1.257,5.834,2.513,6.821a2,2,0,0,1,.449.269c.09,3.231.269,17.68-.269,28.9a124.254,124.254,0,0,0-17.77-1.7v-35.54a24.528,24.528,0,0,0,10.052-15.078,1.971,1.971,0,0,0,.09-.718l7,3.769C503.243,399.907,501.269,405.471,501.9,411.215Zm-25.129-20.642H487.9c.269,5.385-.18,13.821-4.936,18.758-.539-.09-.987-.18-1.526-.269C476.947,404.215,476.5,395.868,476.768,390.573Zm14.988.718.449.269.18.179,2.064,1.167a1.575,1.575,0,0,1,.718,1.7,22.859,22.859,0,0,1-9.154,13.911c2.064-3.141,3.321-7.27,3.68-12.385a40.879,40.879,0,0,0-.09-6.731A8.545,8.545,0,0,0,491.756,391.291ZM477.665,386l2.6-.179a25.822,25.822,0,0,1,4.308,0l2.513.179c.09,0,.269.09.359.09.09.538.18,1.436.359,2.693h-10.86a24.95,24.95,0,0,1,.359-2.693A.538.538,0,0,0,477.665,386Zm-2.6,3.679c-.359,4.846-.18,12.655,3.41,18.4-6.821-3.5-8.706-12.3-8.975-13.462a1.459,1.459,0,0,1,.808-1.7l2.782-1.436A7.582,7.582,0,0,0,475.062,389.675Zm-7.359,4.578a1.971,1.971,0,0,0,.09.718c.269,1.526,2.962,13.821,13.462,15.975a2.588,2.588,0,0,0-1.436,2.333v32.31a126.968,126.968,0,0,0-19.565,1.7c-.628-11.219-.359-25.668-.269-28.9.18-.09.269-.179.449-.269,1.257-.987,2.154-3.321,2.513-6.821.628-5.744-1.346-11.308-2.154-13.372Zm-24.95,26.027,11.937-19.386a.894.894,0,0,1,.449-.359l4.039-1.8a27.99,27.99,0,0,1,1.975,12.385c-.539,5.116-1.885,5.654-2.064,5.744l-3.59-.449V409.6a.9.9,0,1,0-1.8,0v7.629l-.359,20.642a2.616,2.616,0,0,1-.18.808,18.521,18.521,0,0,0-8.975-.09c0-.09-.09-.18-.09-.269l-1.615-16.873A2.466,2.466,0,0,1,442.753,420.28Zm9.154,23.514a38.016,38.016,0,0,0-6.462,0l-.538-3.68a16.287,16.287,0,0,1,7.629,0Zm8.437,5.2a127.789,127.789,0,0,1,19.475-1.7v9.334c-9.065.09-16.245.628-18.578.808A57.712,57.712,0,0,1,460.344,449Zm21.449,8.257a.193.193,0,0,1-.179-.18V413.19a.71.71,0,0,1,.449-.718,14.926,14.926,0,0,0,2.962-1.346h0a.088.088,0,0,0,.09-.09v46.041a.194.194,0,0,1-.18.18h-3.142Zm21.9.18c-2.154-.18-8.616-.628-16.783-.808v-9.334A124.407,124.407,0,0,1,504.59,449C504.32,452.41,504.051,455.371,503.692,457.436Zm9.244-13.642-.628-3.68a16.388,16.388,0,0,1,7.629,0l-.539,3.68A37.894,37.894,0,0,0,512.936,443.794Zm7.808-5.565a.328.328,0,0,1-.09.269,17.488,17.488,0,0,0-8.975.09,2.616,2.616,0,0,1-.18-.808l-.359-20.642v-7.629a.9.9,0,0,0-1.8,0v6.821l-3.59.449c-.18-.09-1.436-.718-2.064-5.744a26.754,26.754,0,0,1,1.974-12.385l4.039,1.8a1.572,1.572,0,0,1,.449.359l11.936,19.386a2.479,2.479,0,0,1,.269,1.167Z" fill="#1e1e1c"/>
        </g>
        <g id="Group_58" data-name="Group 58">
          <circle id="Ellipse_3" data-name="Ellipse 3" cx="0.987" cy="0.987" r="0.987" transform="translate(482.422 418.216)" fill="#1e1e1c"/>
        </g>
        <g id="Group_59" data-name="Group 59">
          <circle id="Ellipse_4" data-name="Ellipse 4" cx="0.987" cy="0.987" r="0.987" transform="translate(482.422 426.562)" fill="#1e1e1c"/>
        </g>
        <g id="Group_60" data-name="Group 60">
          <circle id="Ellipse_5" data-name="Ellipse 5" cx="0.987" cy="0.987" r="0.987" transform="translate(482.422 434.909)" fill="#1e1e1c"/>
        </g>
        <g id="Group_61" data-name="Group 61">
          <circle id="Ellipse_6" data-name="Ellipse 6" cx="0.987" cy="0.987" r="0.987" transform="translate(482.422 451.602)" fill="#1e1e1c"/>
        </g>
        <g id="Group_62" data-name="Group 62">
          <circle id="Ellipse_7" data-name="Ellipse 7" cx="0.987" cy="0.987" r="0.987" transform="translate(482.422 443.256)" fill="#1e1e1c"/>
        </g>
      </g>
    </g>
  </g>
</svg>
