<svg width="84.365px" height="84.365px" viewBox="0 -6.95 84.365 84.365" xmlns="http://www.w3.org/2000/svg">
  <g id="Group_111" data-name="Group 111" transform="translate(-313.2 -386.459)">
    <g id="Group_74" data-name="Group 74">
      <g id="Group_73" data-name="Group 73">
        <g id="Group_65" data-name="Group 65">
          <path id="Path_33" data-name="Path 33" d="M397.047,416.45,384.931,396.8a3.352,3.352,0,0,0-1.167-1.077l-4.846-2.154h0l-10.231-5.475c-.09,0-.09-.09-.179-.09l-2.692-1.436a.852.852,0,0,0-.808,0,.671.671,0,0,0-.449.09c-8.8,4.4-15.8,1.436-17.681.449-.269-.09-.449-.18-.718-.269a.954.954,0,0,0-1.077-.179l-13.013,6.911-4.936,2.244a2.732,2.732,0,0,0-1.167,1.077l-12.206,19.565a3.606,3.606,0,0,0-.538,2.333l1.615,17.052a3.26,3.26,0,0,0,.628,1.526l.718,5.116a1.088,1.088,0,0,0,1.077.628,33.409,33.409,0,0,1,7.808,0h.18a.874.874,0,0,0,.9-.718l.808-4.936h0a3.778,3.778,0,0,0,.9-2.333l.359-19.924,2.693.359c-.09,5.026-.538,31.681,1.436,40.656a.874.874,0,0,0,.9.718h.09c.09,0,8.706-.808,20.014-.9a2.117,2.117,0,0,0,1.436.628h3.231a2.117,2.117,0,0,0,1.436-.628c10.411.18,18.129.9,18.219.9h.09a.874.874,0,0,0,.9-.718c1.974-8.975,1.526-35.63,1.436-40.656l2.692-.359.18,19.924a4.033,4.033,0,0,0,.9,2.423l.808,4.936a.874.874,0,0,0,.9.718h.18a33.63,33.63,0,0,1,7.808,0,.889.889,0,0,0,.987-.718l.718-5.116a2.546,2.546,0,0,0,.628-1.526l1.616-17.052A3.105,3.105,0,0,0,397.047,416.45ZM365.1,388.179l.179.09.18.18,2.154,1.167a1.631,1.631,0,0,1,.718,1.7c-.987,4.218-3.321,10.142-9.244,14.09-.449.359-.987.718-1.436,1.077h-.09c-12.026,0-14.988-13.552-15.257-15.078a1.627,1.627,0,0,1,.808-1.8l1.974-1.077a.981.981,0,0,1,.718,0A20.988,20.988,0,0,0,365.1,388.179Zm-11.219,23.514h0c-14.18-5.3-15.706-14.449-16.245-18.4,0-.18-.09-.449-.09-.628l2.962-1.616a1.971,1.971,0,0,0,.09.718c.269,1.615,3.321,15.347,15.437,16.424A14.2,14.2,0,0,0,353.878,411.693Zm-38.592,5.744L327.4,397.782a.894.894,0,0,1,.449-.359l4.128-1.885a27.349,27.349,0,0,1,1.974,12.565c-.539,5.116-1.885,5.744-2.064,5.834l-3.59-.449v-6.911a.9.9,0,0,0-1.8,0v7.718l-.359,20.911a2.622,2.622,0,0,1-.18.808,18.9,18.9,0,0,0-9.065-.09c0-.09-.09-.18-.09-.269l-1.8-17.052A2.515,2.515,0,0,1,315.286,417.437Zm9.155,23.783a39.1,39.1,0,0,0-6.552,0l-.539-3.77a16.678,16.678,0,0,1,7.718,0Zm8.256-25.757c.18-.09.269-.179.449-.269,1.257-.987,2.154-3.321,2.513-6.911.628-5.834-1.346-11.488-2.154-13.552l2.244-1.256h0c.628,4.218,2.244,14.18,17.322,19.834h.09a12.589,12.589,0,0,0-.538,3.68v37.156c-9.154.09-16.514.628-18.847.808C332.159,445.618,332.608,419.95,332.7,415.463Zm22.079,39.4a.194.194,0,0,1-.18-.18V417.077a12.2,12.2,0,0,1,5.564-10.142,24.613,24.613,0,0,0,10.052-15.167,2.225,2.225,0,0,0,.09-.718l3.59,1.885v.9c-.987,4.218-3.321,10.141-9.244,14.09-4.128,2.782-6.372,6.731-6.372,11.308v35.451a.193.193,0,0,1-.179.18h-3.321Zm22.168.18c-2.244-.18-8.706-.628-16.963-.808v-35a11.617,11.617,0,0,1,5.564-9.783A24.613,24.613,0,0,0,375.6,394.282v-.359l1.7.9c-.808,2.064-2.782,7.718-2.154,13.552.449,3.59,1.257,5.923,2.513,6.911.18.09.359.269.449.269C378.2,419.95,378.649,445.618,376.944,455.042Zm9.423-13.822-.628-3.68a15.623,15.623,0,0,1,7.718,0l-.538,3.769A30.467,30.467,0,0,0,386.367,441.22Zm7.808-5.654a.329.329,0,0,1-.09.269,17.844,17.844,0,0,0-9.065.09,2.61,2.61,0,0,1-.18-.808l-.359-20.911v-7.718a.9.9,0,1,0-1.794,0V413.4l-3.59.449c-.18-.09-1.526-.718-2.064-5.834-.628-5.2,1.167-10.5,1.974-12.565l4.128,1.885a.9.9,0,0,1,.449.359L395.7,417.348a2.479,2.479,0,0,1,.269,1.167Z" fill="#1e1e1c"/>
        </g>
        <g id="Group_66" data-name="Group 66">
          <circle id="Ellipse_8" data-name="Ellipse 8" cx="0.987" cy="0.987" r="0.987" transform="translate(355.404 415.373)" fill="#1e1e1c"/>
        </g>
        <g id="Group_67" data-name="Group 67">
          <circle id="Ellipse_9" data-name="Ellipse 9" cx="0.987" cy="0.987" r="0.987" transform="translate(355.404 423.81)" fill="#1e1e1c"/>
        </g>
        <g id="Group_68" data-name="Group 68">
          <circle id="Ellipse_10" data-name="Ellipse 10" cx="0.987" cy="0.987" r="0.987" transform="translate(355.404 432.246)" fill="#1e1e1c"/>
        </g>
        <g id="Group_69" data-name="Group 69">
          <circle id="Ellipse_11" data-name="Ellipse 11" cx="0.987" cy="0.987" r="0.987" transform="translate(355.404 449.119)" fill="#1e1e1c"/>
        </g>
        <g id="Group_70" data-name="Group 70">
          <circle id="Ellipse_12" data-name="Ellipse 12" cx="0.987" cy="0.987" r="0.987" transform="translate(355.404 440.682)" fill="#1e1e1c"/>
        </g>
        <g id="Group_71" data-name="Group 71">
          <path id="Path_34" data-name="Path 34" d="M374.161,439.426a20.414,20.414,0,0,1-9.334-.359.882.882,0,0,0-.449,1.7,23.478,23.478,0,0,0,5.834.718,26.076,26.076,0,0,0,4.308-.359.889.889,0,0,0,.718-.987A1.009,1.009,0,0,0,374.161,439.426Z" fill="#1e1e1c"/>
        </g>
        <g id="Group_72" data-name="Group 72">
          <path id="Path_35" data-name="Path 35" d="M348.762,439.7a.974.974,0,0,0-1.077-.628,23.657,23.657,0,0,1-9.334.359.863.863,0,1,0-.269,1.7,24.626,24.626,0,0,0,4.308.359,22.608,22.608,0,0,0,5.834-.718A.906.906,0,0,0,348.762,439.7Z" fill="#1e1e1c"/>
        </g>
      </g>
    </g>
  </g>
</svg>
