<svg width="84.408px" height="84.408px" viewBox="0 -0.63 84.408 84.408" xmlns="http://www.w3.org/2000/svg">
  <g id="Group_108" data-name="Group 108" transform="translate(-694.263 -380.119)">
    <g id="Group_106" data-name="Group 106">
      <g id="Group_105" data-name="Group 105">
        <g id="Group_100" data-name="Group 100">
          <path id="Path_48" data-name="Path 48" d="M778.111,418.841,765.995,399.1a3.352,3.352,0,0,0-1.167-1.077l-4.936-2.244h0l-7.449-2.782,3.141-4.4a5.351,5.351,0,0,0,.9-4.039,5.277,5.277,0,0,0-5.565-4.4c-.179,0-.269-.09-.449,0-1.436.359-2.872.628-4.308.9-.269,0-.449.09-.628.09a54.157,54.157,0,0,1-21.091-.9h-.987a5.175,5.175,0,0,0-3.411.9,5.471,5.471,0,0,0-2.244,3.5,5.351,5.351,0,0,0,.9,4.039l2.782,3.949-8.347,3.231h0l-4.936,2.244a2.721,2.721,0,0,0-1.167,1.077l-12.206,19.655a3.241,3.241,0,0,0-.538,2.244L695.9,444.42a3.265,3.265,0,0,0,.628,1.526l.718,5.116a.889.889,0,0,0,.987.718,33.347,33.347,0,0,1,7.808,0h.18a.874.874,0,0,0,.9-.718l.808-4.936h0a3.778,3.778,0,0,0,.9-2.333l.359-26.207,2.692.359v43.528a.953.953,0,0,0,.808.9c.09,0,8.077.9,24.142.9a222.565,222.565,0,0,0,23.335-.9.955.955,0,0,0,.808-.9V417.855l2.692-.359.359,26.207a4.033,4.033,0,0,0,.9,2.423l.808,4.936a.874.874,0,0,0,.9.718h.18a33.567,33.567,0,0,1,7.808,0,.889.889,0,0,0,.987-.718l.718-5.116a2.546,2.546,0,0,0,.628-1.526l1.705-23.335A3.242,3.242,0,0,0,778.111,418.841Zm-23.425-33.925a3.232,3.232,0,0,1-.628,2.692l-3.769,5.3a3.221,3.221,0,0,1-4.577.808,3.325,3.325,0,0,1-.987-4.577l.09-.09h0l3.141-5.026a2.534,2.534,0,0,0,.359-1.436c.718-.18,1.436-.359,2.244-.538h.09a3.4,3.4,0,0,1,2.6.538A3.741,3.741,0,0,1,754.686,384.916Zm-18.308,15.527-5.834-5.834a28.984,28.984,0,0,0,6.641.808,27.391,27.391,0,0,0,5.744-.628C741.852,395.686,739.967,397.3,736.378,400.443Zm6.461-7.539a25.685,25.685,0,0,1-11.308,0,4.982,4.982,0,0,0,.269-3.231,39.06,39.06,0,0,0,5.385.359,40,40,0,0,0,5.475-.359A4.428,4.428,0,0,0,742.839,392.9Zm-5.564-9.334a56.779,56.779,0,0,0,8.436-.628h0a.538.538,0,0,0,.359-.09h.449a.31.31,0,0,1-.09.179l-2.962,4.667a37.82,37.82,0,0,1-12.565.09l-3.051-4.846h.987A54.092,54.092,0,0,0,737.275,383.57Zm-17.681,1.346a3.5,3.5,0,0,1,1.526-2.333,3.625,3.625,0,0,1,2.872-.449c.359.09,1.077.269,1.885.449a2.484,2.484,0,0,0,.449,1.436l3.231,5.116a3.325,3.325,0,0,1-.987,4.577,3.384,3.384,0,0,1-4.577-.808l-3.77-5.3A3.676,3.676,0,0,1,719.594,384.916ZM696.35,419.739l12.116-19.655a.894.894,0,0,1,.449-.359l4.129-1.885a27.349,27.349,0,0,1,1.974,12.565c-.539,5.116-1.885,5.744-2.064,5.834l-3.59-.449v-4.218a.9.9,0,0,0-1.795,0V416.6l-.359,27.194a2.617,2.617,0,0,1-.18.808,18.9,18.9,0,0,0-9.065-.09c0-.09-.09-.18-.09-.269l-1.795-23.335A2.48,2.48,0,0,1,696.35,419.739Zm9.154,30.155a39.1,39.1,0,0,0-6.552,0l-.539-3.769a16.678,16.678,0,0,1,7.718,0Zm8.257-32.13c.18-.09.269-.18.449-.269,1.256-.987,2.154-3.321,2.513-6.911.628-5.744-1.256-11.308-2.064-13.462l7.808-2.962a.314.314,0,0,0,.18-.09,5.06,5.06,0,0,0,4.128,2.064,5.16,5.16,0,0,0,2.244-.538l6.013,6.013a5.157,5.157,0,0,0-1.705,3.859v56c-10.859-.09-17.411-.628-19.565-.808v-42.9Zm25.578,43.618V405.289a.9.9,0,1,0-1.795,0v56.183h-2.423v-56a3.339,3.339,0,0,1,1.167-2.513c.18-.179.449-.359.628-.538a.088.088,0,0,0,.09-.09h0l7.9-6.911a5.406,5.406,0,0,0,2.6.718,5.313,5.313,0,0,0,3.769-1.615l7,2.692c-.808,2.154-2.782,7.718-2.064,13.462.449,3.59,1.257,5.923,2.513,6.911.18.09.269.18.449.269v42.81C757.109,460.844,750.737,461.382,739.339,461.382Zm28.091-11.488-.628-3.68a15.611,15.611,0,0,1,7.718,0l-.539,3.77A21.951,21.951,0,0,0,767.43,449.894Zm7.809-5.744a.328.328,0,0,1-.09.269,17.844,17.844,0,0,0-9.065.09,2.613,2.613,0,0,1-.179-.808l-.359-27.194v-5.026a.9.9,0,0,0-1.795,0V415.7l-3.59.449c-.18-.09-1.526-.718-2.064-5.834-.628-5.2,1.167-10.5,1.975-12.565l4.128,1.885a.9.9,0,0,1,.449.359l12.116,19.655a2.479,2.479,0,0,1,.269,1.167Z" fill="#1e1e1c"/>
        </g>
        <g id="Group_101" data-name="Group 101">
          <path id="Path_49" data-name="Path 49" d="M729.108,441.278H717.261a.847.847,0,0,0-.9.9v15.437a.9.9,0,0,0,.9.9l11.847.539h0a.815.815,0,0,0,.628-.269.971.971,0,0,0,.269-.628V442.175A.848.848,0,0,0,729.108,441.278Zm-.9,3.86-5.026,1.526-5.026-1.526v-2.064H728.21ZM718.159,456.8v-9.783l4.757,1.436h.538l4.757-1.436v10.231Z" fill="#1e1e1c"/>
        </g>
        <g id="Group_102" data-name="Group 102">
          <path id="Path_50" data-name="Path 50" d="M755.135,441.278H743.288a.848.848,0,0,0-.9.9V458.24a.919.919,0,0,0,.9.9h0l11.937-.628a.966.966,0,0,0,.9-.9V442.175A.979.979,0,0,0,755.135,441.278Zm-.9,3.86-5.026,1.526-5.026-1.526v-2.064h10.052Zm-10.051,12.116V447.023l4.757,1.436h.538l4.757-1.436v9.693Z" fill="#1e1e1c"/>
        </g>
        <g id="Group_103" data-name="Group 103">
          <path id="Path_51" data-name="Path 51" d="M744.006,429.252a.848.848,0,0,0,.9-.9V412.11a.9.9,0,1,0-1.795,0v16.334A.887.887,0,0,0,744.006,429.252Z" fill="#1e1e1c"/>
        </g>
        <g id="Group_104" data-name="Group 104">
          <path id="Path_52" data-name="Path 52" d="M727.851,429.252a.848.848,0,0,0,.9-.9V412.11a.9.9,0,1,0-1.8,0v16.334A.83.83,0,0,0,727.851,429.252Z" fill="#1e1e1c"/>
        </g>
      </g>
    </g>
  </g>
</svg>
