<svg width="84.474px" height="84.474px" viewBox="0 -6.02 84.474 84.474" xmlns="http://www.w3.org/2000/svg">
  <g id="Group_29" data-name="Group 29" transform="translate(-694.229 -160.411)">
    <g id="Group_28" data-name="Group 28">
      <g id="Group_120" data-name="Group 120">
        <g id="Group_23" data-name="Group 23">
          <path id="Path_13" data-name="Path 13" d="M778.077,199.092l-12.116-19.655a3.352,3.352,0,0,0-1.167-1.077l-4.936-2.244h0l-9.154-4.128a5.5,5.5,0,0,0-1.974-5.654,4.7,4.7,0,0,0-2.962-4.757l-.539-.269a33.309,33.309,0,0,0-8.436-.9,32.322,32.322,0,0,0-8.975,1.077,3.055,3.055,0,0,0-.539.269h-.18a4.81,4.81,0,0,0-2.872,4.4c-1.167.718-2.423,2.513-1.885,5.654l-9.334,4.128h0l-4.936,2.244a2.721,2.721,0,0,0-1.167,1.077l-12.116,19.834a3.241,3.241,0,0,0-.538,2.244l1.615,17.052a2.439,2.439,0,0,0,.718,1.526l.718,3.68a.889.889,0,0,0,.987.718,33.409,33.409,0,0,1,7.808,0h.18a.873.873,0,0,0,.9-.718l.808-3.411h0a3.778,3.778,0,0,0,.9-2.333l.359-19.924,2.692.359c-.09,3.859-.359,20.283.808,30.156h0a34.873,34.873,0,0,0,.628,3.68.973.973,0,0,0,.987.718c.09,0,9.783-.9,22.168-.9,12.3,0,22.078.9,22.168.9h.09a.873.873,0,0,0,.9-.718,34.579,34.579,0,0,0,.628-3.68h0c1.256-9.962.9-26.3.808-30.156l2.6-.359.359,19.924a4.031,4.031,0,0,0,.9,2.423l.808,3.41a.874.874,0,0,0,.9.718h.18a33.63,33.63,0,0,1,7.808,0,.888.888,0,0,0,.987-.718l.718-3.68a3.418,3.418,0,0,0,.718-1.526l1.615-17.052A4.125,4.125,0,0,0,778.077,199.092Zm-30.784-31.5a3.635,3.635,0,0,1,1.436,4.4l-.359.359a2.362,2.362,0,0,1-1.256.808.851.851,0,0,0-.628,1.077.874.874,0,0,0,.9.718h.269a3.87,3.87,0,0,0,2.064-1.257l.09-.09,8.526,3.77c-.808,2.064-2.782,7.718-2.154,13.462.449,3.59,1.257,5.923,2.513,6.911.18.09.359.269.449.269.09,3.41.359,19.3-.718,29.258-2.6-.18-10.59-.808-20.463-.9V182.4h1.256a.817.817,0,0,0,.718-.359.7.7,0,0,0,.18-.718l-.808-4.128a2.165,2.165,0,0,0-1.167-1.615,46.493,46.493,0,0,1,7.808-11.219l.269-.269a3.144,3.144,0,0,1,.628,2.6A.991.991,0,0,0,747.293,167.59Zm-10.68,9.962c0-.18.269-.359.449-.359s.449.18.449.359l.538,3.051h-2.064Zm.18-15.257a33.387,33.387,0,0,1,7.9.808,45.783,45.783,0,0,0-7.718,10.77c-2.872-4.577-6.641-9.154-8.616-10.59A31.952,31.952,0,0,1,736.793,162.295Zm-13.822,11.4a4.279,4.279,0,0,0,2.064,1.257c.09,0,.18.09.269.09a.862.862,0,0,0,.808-.628.934.934,0,0,0-.539-1.167c-.987-.359-1.346-.718-1.346-.808v-.18c-.987-3.59.987-4.487,1.256-4.577a.9.9,0,0,0,.539-.987,2.615,2.615,0,0,1,.808-2.513,1.08,1.08,0,0,0,.449.449c1.705,1.346,5.834,6.1,8.706,10.949a2.325,2.325,0,0,0-1.077,1.526l-.808,4.129a.7.7,0,0,0,.18.718,1.107,1.107,0,0,0,.718.359h1.257v44.067c-10.5,0-19.117.628-21.809.9-1.077-9.872-.808-25.758-.718-29.258.18-.09.269-.18.449-.269,1.256-.987,2.154-3.321,2.513-6.911a29.068,29.068,0,0,0-2.154-13.462Zm-26.655,26.386,12.116-19.655a.894.894,0,0,1,.449-.359l4.128-1.885a27.36,27.36,0,0,1,1.975,12.565c-.539,5.116-1.885,5.744-2.064,5.834l-3.59-.449v-6.911a.9.9,0,1,0-1.795,0v7.718l-.359,20.911a2.623,2.623,0,0,1-.18.808,18.9,18.9,0,0,0-9.065-.09c0-.09-.09-.179-.09-.269l-1.795-17.142A2.137,2.137,0,0,1,696.316,200.079Zm2.6,22.347-.449-2.244a16.339,16.339,0,0,1,7.629,0l-.539,2.244A26.88,26.88,0,0,0,698.919,222.426Zm15.706,6.731c2.692-.269,11.219-.9,21.54-.9v1.885c-10.231,0-18.668.628-21.27.808C714.8,230.414,714.714,229.786,714.625,229.157Zm23.334.988V228.26c9.783.09,17.68.628,20.283.9q-.135.942-.269,1.885C755.46,230.773,747.652,230.234,737.959,230.145Zm29.348-7.719-.539-2.244a16.389,16.389,0,0,1,7.629,0l-.449,2.244A26.88,26.88,0,0,0,767.307,222.426Zm7.9-4.218a.329.329,0,0,1-.09.269,17.844,17.844,0,0,0-9.065.09,2.609,2.609,0,0,1-.18-.808l-.359-20.911V189.13a.9.9,0,1,0-1.795,0v6.911l-3.59.449c-.18-.09-1.526-.718-2.064-5.834-.628-5.205,1.167-10.5,1.974-12.565l4.129,1.885a.894.894,0,0,1,.449.359L776.73,199.99a2.479,2.479,0,0,1,.269,1.167Z" fill="#1e1e1c"/>
        </g>
        <g id="Group_24" data-name="Group 24">
          <path id="Path_14" data-name="Path 14" d="M730.779,191.373a1.444,1.444,0,0,0,.539-1.885,1.6,1.6,0,0,0-.359-.449c0-.09.09-.179.09-.269V176.205a.9.9,0,0,0-1.8,0V188.77a.328.328,0,0,0,.09.269,1.392,1.392,0,0,0-.359,1.795A1.187,1.187,0,0,0,730.779,191.373Z" fill="#1e1e1c"/>
        </g>
        <g id="Group_25" data-name="Group 25">
          <path id="Path_15" data-name="Path 15" d="M744.87,189.13c0-.09.09-.18.09-.269V176.3a.9.9,0,1,0-1.795,0v12.565a.329.329,0,0,0,.09.269,1.393,1.393,0,0,0-.359,1.795,1.387,1.387,0,0,0,2.424-1.347C745.139,189.4,745.049,189.219,744.87,189.13Z" fill="#1e1e1c"/>
        </g>
        <g id="Group_26" data-name="Group 26">
          <path id="Path_16" data-name="Path 16" d="M754.922,224.132c.18.09.269.179.449.179a.8.8,0,0,0,.718-.449.883.883,0,0,0-.269-1.257c-5.744-3.59-5.475-10.859-5.475-10.949a.829.829,0,0,0-.808-.9.976.976,0,0,0-.987.808C748.639,211.926,748.28,220,754.922,224.132Z" fill="#1e1e1c"/>
        </g>
        <g id="Group_27" data-name="Group 27">
          <path id="Path_17" data-name="Path 17" d="M718.125,224.221c.18,0,.359,0,.449-.18,6.641-4.128,6.282-12.206,6.282-12.565a.9.9,0,1,0-1.795.179c0,.09.359,7.359-5.475,10.949a.882.882,0,0,0-.269,1.257A1.134,1.134,0,0,0,718.125,224.221Z" fill="#1e1e1c"/>
        </g>
      </g>
    </g>
  </g>
</svg>
