<svg width="74.828px" height="74.828px" viewBox="0 -4.47 74.828 74.828" xmlns="http://www.w3.org/2000/svg">
  <g id="Group_11" data-name="Group 11" transform="translate(-63.911 -163.68)">
    <g id="Group_10" data-name="Group 10">
      <path id="Path_6" data-name="Path 6" d="M138.38,174.731c-3.41-2.692-13.283-6.1-13.732-6.282l-14.539-4.577a3.476,3.476,0,0,0-2.513.09c-1.974.808-6.282.808-6.282.808a23.653,23.653,0,0,1-6.282-.808,3.7,3.7,0,0,0-2.6-.09l-14.45,4.667c-.449.179-10.231,3.5-13.732,6.282a.852.852,0,0,0-.18,1.167L72.055,189.9a.972.972,0,0,0,1.077.449c.628-.18,2.6-.538,3.59,0a1.482,1.482,0,0,1,.718.9l-.718,37.425a.919.919,0,0,0,.9.9H125.1a.815.815,0,0,0,.628-.269.973.973,0,0,0,.269-.628l-.718-37.425a1.7,1.7,0,0,1,.718-.9,4.918,4.918,0,0,1,3.59,0,1.092,1.092,0,0,0,1.077-.449l7.988-13.911A1.078,1.078,0,0,0,138.38,174.731Zm-37.066-1.167a7.127,7.127,0,0,1-6.462-3.5,8.383,8.383,0,0,1-1.257-3.41c0-.359.179-.628.538-.628h.09a.656.656,0,0,1,.628.538,8.008,8.008,0,0,0,1.077,2.962,6.655,6.655,0,0,0,10.95,0,7.512,7.512,0,0,0,1.077-2.962.6.6,0,0,1,.628-.538h.09a.593.593,0,0,1,.538.628,8.385,8.385,0,0,1-1.256,3.41A7.694,7.694,0,0,1,101.314,173.564Zm4.757-7.269h0a7.17,7.17,0,0,1-.808,2.244,4.235,4.235,0,0,1-3.949,2.064,4.344,4.344,0,0,1-3.949-1.975,5.23,5.23,0,0,1-.808-2.244h0a33.457,33.457,0,0,0,4.757.359C101.494,166.654,103.917,166.654,106.071,166.295ZM73.223,188.373l-7.27-12.655c3.68-2.423,12.475-5.475,12.565-5.475L91.8,166.025a2.477,2.477,0,0,0-.09.808,10.221,10.221,0,0,0,1.526,4.128,5.745,5.745,0,0,0,.9,1.167c-10.5,2.962-16.155,13.283-17.591,16.244A6.885,6.885,0,0,0,73.223,188.373Zm5.295,39.31.718-36.617V190.8a3.579,3.579,0,0,0-.987-1.705c1.346-2.692,7.09-13.1,17.411-15.437.09,0,.09-.09.18-.09a9.516,9.516,0,0,0,5.564,1.705,9.38,9.38,0,0,0,5.475-1.616h0c10.59,2.333,16.424,13.283,17.5,15.616a3.747,3.747,0,0,0-.808,1.436v.269l.718,36.617H78.518Zm50.887-39.31a7.022,7.022,0,0,0-3.59.09c-1.346-2.782-6.911-13.1-17.411-16.155a15.31,15.31,0,0,0,.987-1.257,12.062,12.062,0,0,0,1.526-4.128,2.483,2.483,0,0,0-.09-.808l13.283,4.128c.09,0,8.885,3.051,12.565,5.475Z" fill="#1e1e1c"/>
    </g>
  </g>
</svg>
