<svg width="84.409px" height="84.409px" viewBox="0 -1.01 84.409 84.409" xmlns="http://www.w3.org/2000/svg">
  <g id="Group_109" data-name="Group 109" transform="translate(-567.236 -380.499)">
    <g id="Group_87" data-name="Group 87">
      <g id="Group_86" data-name="Group 86">
        <g id="Group_75" data-name="Group 75">
          <path id="Path_36" data-name="Path 36" d="M651.082,415.949l-12.116-19.655a3.352,3.352,0,0,0-1.167-1.077l-4.846-2.154h0l-9.962-5.3a9.848,9.848,0,0,0-.987-1.436c-.09-.09-.269-.269-.359-.269a12.362,12.362,0,0,1-5.295-4.218.894.894,0,0,0-.449-.359,20.115,20.115,0,0,0-6.282-.987h0a21.574,21.574,0,0,0-6.282.987,1.589,1.589,0,0,0-.449.359,13.105,13.105,0,0,1-5.295,4.218,1.253,1.253,0,0,0-.359.269c0,.09-.449.538-.987,1.436l-10.321,5.3-4.936,2.244a2.721,2.721,0,0,0-1.167,1.077L567.8,415.949a3.883,3.883,0,0,0-.539,2.513L568.6,440.54a.886.886,0,0,0,.9.808h11.219a.9.9,0,0,0,.9-.9l.628-25.758,2.692.359v46.939a.847.847,0,0,0,.9.9h47.208a.847.847,0,0,0,.9-.9V415.052l2.693-.359c.359,9.154.9,25.13.9,25.848a.848.848,0,0,0,.9.9h10.59a.538.538,0,0,0,.359-.09l.09-.09c.09,0,.09-.09.18-.09l.09-.09c0-.09.09-.09.09-.179v-.36l1.795-22.347A3.494,3.494,0,0,0,651.082,415.949ZM637.44,397.282l12.116,19.655a2.479,2.479,0,0,1,.269,1.167l-1.256,17.232h-9.424c-.269-7.539-.718-20.732-.808-21.629V401.5a.9.9,0,0,0-1.795,0v11.4l-3.59.449c-.18-.09-1.526-.718-2.064-5.834-.628-5.206,1.167-10.5,1.974-12.565l4.128,1.885A1.07,1.07,0,0,1,637.44,397.282Zm1.795,39.758h9.154l-.18,2.6h-8.885C639.325,439.015,639.235,438.117,639.235,437.04Zm-18.488-49.451a19.5,19.5,0,0,1,2.693,5.564l-3.231-1.257c-.269-.09-3.41-1.616-4.936-2.333h0a5.506,5.506,0,0,0,.628-2.064c0-.09.09-.09.09-.18.09-.179,0-.359,0-.449v-2.423A18.1,18.1,0,0,0,620.747,387.589Zm-7,1.077-4.308,7.629-3.859-7.629a3.206,3.206,0,0,1-.359-.987,16.665,16.665,0,0,1,8.885-.09C614.016,387.948,613.837,388.307,613.747,388.666ZM603.516,392.7l-.718-.359,1.885-.808Zm-.808,3.142,2.962-2.872L608.183,398c0,.09.09.09.09.18l-4.218,7.808a35.3,35.3,0,0,1-6.013-4.487Zm1.974,12.744,8.975-16.065c1.256,1.436,3.41,3.859,3.5,3.949h0l4.039,4.846a122.752,122.752,0,0,1-14.9,7.27,9.339,9.339,0,0,0-2.244,1.346A4.559,4.559,0,0,1,604.682,408.59ZM615,391.358a13.834,13.834,0,0,0,1.705.808l-.628.359A11.717,11.717,0,0,1,615,391.358Zm-5.385-9.064h0a17.614,17.614,0,0,1,4.667.628v2.962a17.89,17.89,0,0,0-9.334.09v-2.962A14.071,14.071,0,0,1,609.618,382.294Zm-6.462,2.154v1.7a7.61,7.61,0,0,0,.808,3.41l.18.269-6.552,2.693-1.705.628a19.528,19.528,0,0,1,2.692-5.564A13.56,13.56,0,0,0,603.156,384.448Zm-33.835,32.489,12.116-19.655a.9.9,0,0,1,.449-.359l4.128-1.885a27.36,27.36,0,0,1,1.975,12.565c-.539,5.116-1.885,5.744-2.064,5.834l-3.59-.449V401.5a.9.9,0,0,0-1.795,0v12.116L580,435.245H570.13l-1.077-16.873A1.91,1.91,0,0,1,569.321,416.937Zm.987,22.706-.179-2.6h9.693v2.513Zm16.424-24.681c.18-.09.269-.18.449-.269,1.256-.987,2.154-3.321,2.513-6.911.628-5.744-1.346-11.488-2.154-13.552l7.359-3.77a16.989,16.989,0,0,0-1.257,3.949,1.084,1.084,0,0,0,.269.9,1.105,1.105,0,0,0,.9.18l3.231-1.257h0l2.513-.987,1.346.718-5.834,7.09a.961.961,0,0,0,.09,1.256,43.266,43.266,0,0,0,7,5.385l-.09.09a11.959,11.959,0,0,0-1.526,5.744v.539a9.019,9.019,0,0,0-.269,2.244v44.874H586.73v-46.22Zm16.424,46.131V416.219a6.066,6.066,0,0,1,3.769-5.923,114.367,114.367,0,0,0,16.155-7.988c.269-.09.359-.359.449-.628a.97.97,0,0,0-.179-.718l-6.1-7.09,1.346-.718,5.744,2.333a.854.854,0,0,0,.9-.18.812.812,0,0,0,.269-.9,19.61,19.61,0,0,0-1.167-3.859l6.911,3.68c-.808,2.064-2.782,7.718-2.154,13.552.449,3.59,1.256,5.923,2.513,6.911.179.09.269.18.449.269v46.131h-28.9Z" fill="#1e1e1c"/>
        </g>
        <g id="Group_76" data-name="Group 76">
          <circle id="Ellipse_13" data-name="Ellipse 13" cx="1.077" cy="1.077" r="1.077" transform="translate(600.554 400.243)" fill="#1e1e1c"/>
        </g>
        <g id="Group_77" data-name="Group 77">
          <circle id="Ellipse_14" data-name="Ellipse 14" cx="1.077" cy="1.077" r="1.077" transform="translate(605.131 418.103)" fill="#1e1e1c"/>
        </g>
        <g id="Group_78" data-name="Group 78">
          <circle id="Ellipse_15" data-name="Ellipse 15" cx="1.077" cy="1.077" r="1.077" transform="translate(613.837 418.103)" fill="#1e1e1c"/>
        </g>
        <g id="Group_79" data-name="Group 79">
          <circle id="Ellipse_16" data-name="Ellipse 16" cx="1.077" cy="1.077" r="1.077" transform="translate(605.131 427.078)" fill="#1e1e1c"/>
        </g>
        <g id="Group_80" data-name="Group 80">
          <circle id="Ellipse_17" data-name="Ellipse 17" cx="1.077" cy="1.077" r="1.077" transform="translate(613.837 427.078)" fill="#1e1e1c"/>
        </g>
        <g id="Group_81" data-name="Group 81">
          <circle id="Ellipse_18" data-name="Ellipse 18" cx="1.077" cy="1.077" r="1.077" transform="translate(605.131 435.963)" fill="#1e1e1c"/>
        </g>
        <g id="Group_82" data-name="Group 82">
          <circle id="Ellipse_19" data-name="Ellipse 19" cx="1.077" cy="1.077" r="1.077" transform="translate(613.837 435.963)" fill="#1e1e1c"/>
        </g>
        <g id="Group_83" data-name="Group 83">
          <path id="Path_37" data-name="Path 37" d="M616.619,401.141a1.018,1.018,0,0,0,.718.269,1.654,1.654,0,0,0,.628-.18.873.873,0,0,0,.09-1.257l-.718-.718a.891.891,0,0,0-1.347,1.167Z" fill="#1e1e1c"/>
        </g>
        <g id="Group_84" data-name="Group 84">
          <path id="Path_38" data-name="Path 38" d="M593.374,435.155a.909.909,0,0,0-1.077.718l-3.141,13.642a.909.909,0,0,0,.718,1.077h.18a.874.874,0,0,0,.9-.718l3.141-13.642A.932.932,0,0,0,593.374,435.155Z" fill="#1e1e1c"/>
        </g>
        <g id="Group_85" data-name="Group 85">
          <path id="Path_39" data-name="Path 39" d="M626.312,436.233a.915.915,0,0,0-1.8.359l3.141,13.642a.874.874,0,0,0,.9.718h.18a.984.984,0,0,0,.718-1.077Z" fill="#1e1e1c"/>
        </g>
      </g>
    </g>
  </g>
</svg>
