<?xml version="1.0" ?><svg width="64px" height="64px" viewBox="0 0 64 64" id="Layer_1_1_" style="enable-background:new 0 0 64 64;" version="1.1" xml:space="preserve" xmlns="http://www.w3.org/2000/svg" xmlns:xlink="http://www.w3.org/1999/xlink"><path d="M58,17H48v-3.77l-2.747-0.728c-0.198-0.589-0.432-1.158-0.698-1.7l1.424-2.452l-5.33-5.331l-2.451,1.425  c-0.544-0.267-1.112-0.5-1.7-0.699L35.77,1H28.23l-0.728,2.747c-0.588,0.198-1.156,0.432-1.7,0.699l-2.451-1.425l-5.33,5.331  l1.424,2.452c-0.267,0.542-0.5,1.111-0.698,1.7L16,13.23V17H6c-2.757,0-5,2.243-5,5v30c0,2.757,2.243,5,5,5h13v4h-4v2h34v-2h-4v-4  h13c2.757,0,5-2.243,5-5V22C63,19.243,60.757,17,58,17z M18,14.77l2.334-0.618l0.159-0.54c0.247-0.837,0.573-1.63,0.971-2.356  l0.27-0.495l-1.21-2.083l3.154-3.154l2.082,1.21l0.495-0.271c0.729-0.398,1.521-0.724,2.355-0.969l0.54-0.159L29.77,3h4.461  l0.619,2.335l0.54,0.159c0.834,0.245,1.627,0.571,2.355,0.969l0.495,0.271l2.082-1.21l3.154,3.154l-1.21,2.083l0.27,0.495  c0.397,0.727,0.724,1.52,0.971,2.356l0.159,0.54L46,14.77v4.461l-2.334,0.618l-0.159,0.54c-0.247,0.837-0.573,1.63-0.971,2.356  l-0.27,0.495l1.21,2.083L41,27.799V24c0-0.745-0.101-1.465-0.272-2.158C41.549,20.364,42,18.705,42,17c0-5.514-4.486-10-10-10  s-10,4.486-10,10c0,1.704,0.451,3.362,1.273,4.842C23.101,22.535,23,23.255,23,24v3.799l-2.477-2.477l1.21-2.083l-0.27-0.495  c-0.397-0.727-0.724-1.52-0.971-2.356l-0.159-0.54L18,19.23V14.77z M26,29.722c-0.595-0.347-1-0.985-1-1.722s0.405-1.375,1-1.722  V29.722z M24,17c0-4.411,3.589-8,8-8s8,3.589,8,8c0,0.784-0.121,1.555-0.342,2.295C38.072,16.723,35.237,15,32,15  c-3.237,0-6.071,1.723-7.657,4.295C24.121,18.554,24,17.783,24,17z M37,24h-0.172c-1.557,0-3.021-0.606-4.121-1.707L32,21.585  l-0.707,0.708C30.192,23.394,28.729,24,27.172,24H27c-0.732,0-1.409,0.212-2,0.556V24c0-3.86,3.141-7,7-7s7,3.14,7,7v0.556  C38.409,24.212,37.732,24,37,24z M34,35.667l-2,2.666l-2-2.666V35.65c0.627,0.223,1.298,0.35,2,0.35s1.373-0.128,2-0.35V35.667z   M28.65,37.2l1.95,2.6l-2.09,1.567l-1.22-3.658L28.65,37.2z M25.417,38.412l2.073,6.221L32,41.25l4.51,3.382l2.073-6.221l1.47,0.551  C41.218,39.399,42,40.528,42,41.772V45H22v-3.228c0-1.244,0.782-2.373,1.947-2.81L25.417,38.412z M35.49,41.367L33.4,39.8l1.95-2.6  l1.36,0.51L35.49,41.367z M32,34c-2.206,0-4-1.794-4-4v-4.068c1.464-0.154,2.845-0.688,4-1.596c1.155,0.909,2.536,1.442,4,1.596V30  C36,32.206,34.206,34,32,34z M38,26.278c0.595,0.347,1,0.985,1,1.722s-0.405,1.375-1,1.722V26.278z M6,19h10v1.77l2.747,0.728  c0.198,0.589,0.432,1.158,0.698,1.7l-1.424,2.452l5.33,5.331l0.64-0.372c0.593,0.684,1.404,1.165,2.334,1.324  C26.66,32.914,27.243,33.78,28,34.46v0.847l-4.756,1.783C21.304,37.818,20,39.7,20,41.772V47h24v-5.228  c0-2.072-1.304-3.954-3.244-4.683L36,35.307V34.46c0.757-0.679,1.34-1.545,1.675-2.528c0.929-0.159,1.74-0.641,2.333-1.324  l0.64,0.372l5.33-5.331l-1.424-2.452c0.267-0.542,0.5-1.111,0.698-1.7L48,20.77V19h10c1.654,0,3,1.346,3,3v27H3V22  C3,20.346,4.346,19,6,19z M43,61H21v-4h22V61z M58,55H6c-1.654,0-3-1.346-3-3v-1h58v1C61,53.654,59.654,55,58,55z"/></svg>