<?xml version="1.0" ?><svg width="64px" height="64px" viewBox="0 0 64 64" id="Layer_1_1_" style="enable-background:new 0 0 64 64;" version="1.1" xml:space="preserve" xmlns="http://www.w3.org/2000/svg" xmlns:xlink="http://www.w3.org/1999/xlink"><g><path d="M43.96,32c0,1.108-0.477,2.164-1.308,2.896l-8.333,7.354l1.323,1.5l8.333-7.354c1.262-1.112,1.985-2.715,1.985-4.396H43.96   z"/><path d="M57.05,45c-1.517,0-2.947,0.563-4.05,1.592C51.896,45.563,50.466,45,48.95,45c-1.535,0-2.932,0.589-3.988,1.547   l-3.021-3.021l4.681-4.13c1.076-0.95,1.917-2.113,2.487-3.396H52c6.065,0,11-4.935,11-11c0-6.115-5.051-11.049-11.149-10.999   C50.866,6.635,44.525,1,37,1c-4.49,0-8.778,2.057-11.618,5.536C24.286,6.18,23.152,6,22,6c-4.94,0-9.269,3.325-10.589,8.016   C5.618,14.322,1,19.132,1,25c0,6.065,4.935,11,11,11h2.856c0.568,1.276,1.403,2.434,2.47,3.379l4.711,4.171l-2.998,2.998   C17.982,45.589,16.585,45,15.05,45c-1.517,0-2.947,0.563-4.05,1.592C9.896,45.563,8.466,45,6.95,45C3.669,45,1,47.669,1,50.95   c0,1.589,0.619,3.083,1.743,4.207L11,63.414l8.258-8.257C20.381,54.033,21,52.539,21,50.95c0-1.021-0.259-1.982-0.714-2.823   l3.25-3.25l8.423,7.457l8.479-7.482l3.275,3.275C43.259,48.968,43,49.929,43,50.95c0,1.589,0.619,3.083,1.743,4.207L53,63.414   l8.258-8.257C62.381,54.033,63,52.539,63,50.95C63,47.669,60.331,45,57.05,45z M17.843,53.743L11,60.586l-6.843-6.843   C3.411,52.997,3,52.005,3,50.95C3,48.772,4.772,47,6.95,47c1.055,0,2.047,0.411,2.793,1.157L11,49.414l1.258-1.257   C13.003,47.411,13.995,47,15.05,47c2.178,0,3.95,1.772,3.95,3.95C19,52.005,18.589,52.997,17.843,53.743z M12,34   c-4.962,0-9-4.038-9-9c0-4.961,4.035-8.998,9.032-8.998c0.001,0,0.003,0,0.005,0l0.977,0.026l0.166-0.82   C14.023,11.032,17.732,8,22,8c1.148,0,2.276,0.22,3.353,0.652l0.719,0.29l0.459-0.625C29.016,4.938,32.832,3,37,3   c6.809,0,12.5,5.325,12.955,12.123l0.069,1.036l1.032-0.108C51.367,16.018,51.681,16,52,16c4.962,0,9,4.038,9,9s-4.038,9-9,9h-2.25   c0.135-0.653,0.209-1.323,0.209-2v-0.135c0-5.439-4.425-9.864-9.876-9.864c-2.242,0-4.438,0.774-6.185,2.18l-1.914,1.54   l-1.98-1.575C28.266,22.761,26.085,22,23.864,22c-2.643,0-5.125,1.032-6.99,2.905c-1.865,1.874-2.886,4.361-2.874,7.004l0,0.129   c0.003,0.665,0.079,1.321,0.212,1.962H12z M18.652,37.881c-1.675-1.482-2.641-3.616-2.651-5.852l0-0.129   c-0.009-2.108,0.804-4.091,2.291-5.584S21.757,24,23.865,24c1.771,0,3.509,0.607,4.895,1.709l3.233,2.571l3.16-2.543   C36.545,24.617,38.296,24,40.095,24c4.336,0,7.865,3.528,7.865,7.864V32c0,2.255-0.97,4.405-2.662,5.897L31.961,49.665   L18.652,37.881z M59.843,53.743L53,60.586l-6.843-6.843C45.411,52.997,45,52.005,45,50.95c0-2.178,1.772-3.95,3.95-3.95   c1.055,0,2.047,0.411,2.793,1.157L53,49.414l1.258-1.257C55.003,47.411,55.995,47,57.05,47c2.178,0,3.95,1.772,3.95,3.95   C61,52.005,60.589,52.997,59.843,53.743z"/></g></svg>