<?xml version="1.0" encoding="utf-8"?>
<!-- Generator: Adobe Illustrator 19.0.0, SVG Export Plug-In . SVG Version: 6.00 Build 0)  -->
<svg version="1.1" id="OBJECTS" xmlns="http://www.w3.org/2000/svg" xmlns:xlink="http://www.w3.org/1999/xlink" x="0px" y="0px"
	 viewBox="0 0 512.7 336" style="enable-background:new 0 0 512.7 336;" xml:space="preserve">
<style type="text/css">
	.st0{opacity:0.5;fill:#4DFF55;stroke:#000000;stroke-width:1.0103;stroke-miterlimit:10;}
	.st1{opacity:0.5;fill:#4DFF55;stroke:#000000;stroke-width:1.0414;stroke-miterlimit:10;}
	.st2{fill:#EBB0AE;}
	.st3{fill:#CB8481;}
	.st4{fill:#392E38;}
	.st5{fill:#FFFFFF;}
	.st6{fill:#DAADAC;}
	.st7{fill:#202F43;}
	.st8{fill:#7099D0;}
	.st9{opacity:0.5;fill:#FFFFFF;stroke:#000000;stroke-miterlimit:10;}
	.st10{opacity:0.5;fill:#FF4A4A;stroke:#000000;stroke-width:1.2216;stroke-miterlimit:10;}
	.st11{opacity:0.5;fill:#FF4A4A;stroke:#000000;stroke-width:1.0956;stroke-miterlimit:10;}
</style>
<rect id="XMLID_534_" x="1667.2" y="-1564.8" class="st0" width="510" height="80"/>
<rect id="XMLID_533_" x="1664.5" y="-1659.4" class="st0" width="510" height="80"/>
<rect id="XMLID_532_" x="1667.7" y="-1694.5" class="st0" width="510" height="80"/>
<rect id="XMLID_528_" x="1664.7" y="-1772.4" class="st1" width="512" height="304"/>
<g id="XMLID_176_">
	<g id="XMLID_453_">
		<circle id="XMLID_455_" class="st2" cx="357.3" cy="-1679.4" r="20.1"/>
		<circle id="XMLID_454_" class="st2" cx="221.9" cy="-1679.4" r="20.1"/>
	</g>
	<g id="XMLID_177_">
		<path id="XMLID_452_" class="st3" d="M285-1803.5c-1.7,0.5-2.4,1.9-3.4,2.8c-5.2,4.6-11.1,6.8-18.2,5.8c-2.8-0.4-5.5-0.9-8.2-1.6
			c-2.5-0.7-2.5-0.7-3.9,1.7c-0.9,1.5-1.7,3-2.8,4.4c-4.5,5.8-11.1,7.8-18.1,5.6c-2.3-0.7-4.6-1.7-6.9-2.5c-1,1.3-1.1,2.9-1.4,4.3
			c-1.9,7.5-6.3,12.2-14.4,12.9c-2.4,0.2-4.8,0.5-7.2,0.8c-2,0.2-2.4,0.6-2,2.6c1.1,5.8,0.2,11.4-2,16.8c-1.8,4.5-4.4,8.3-8.6,10.8
			c-2,1.2-3.2,2.6-3.2,4.9c0,1.2-0.6,2.4-1.3,3.3c-1.6,2-3.2,3.2-6.2,2.5c-5-1.2-10-0.6-14.5,2.4c-5.1,3.5-8.4,8.3-9.4,14.4
			c-0.6,4.1-0.9,8.2-0.3,12.4c0.8,5.7,2.9,10.7,6.7,14.9c2,2.2,4,4.3,5.9,6.6c1.3,1.6,1.1,2.8-0.6,3.9c-1.9,1.3-4,2-6.3,2.3
			c-3.2,0.4-6.2,0-9.2-1.2c-6.5-2.5-9.9-8.2-9.4-15.2c0.2-2.4,2.3-4.9,0.8-6.9c-1.2-1.7-3.7-2.4-5.6-3.7c-7.8-5.4-13.6-12.2-16-21.7
			c-2.7-10.5,1.3-23.7,11.6-30c1.2-0.8,3.3-1.1,3.3-2.9c-0.1-1.2-1.2-2.4-2-3.6c-2.4-3.6-3.5-7.6-3.8-11.8c-0.5-6.7,0.5-13.2,4-19
			c3-5,7.4-8.2,13.2-9.2c2.8-0.5,2.9-0.6,2.4-3.6c-1.1-7-0.6-13.9,2.2-20.4c2.8-6.6,7.4-11.2,14.2-13.6c2.6-0.9,2.7-1,2-3.7
			c-2.6-10.5-0.4-20.1,5.9-28.6c7.3-9.9,17.3-15.5,29.5-16.5c6.4-0.5,12.4,1.4,17.6,5.3c1.4,1,2.7,2.1,4.1,3.2
			c0.4,0.3,1,0.3,1.3-0.2c0.6-1,1.2-2.1,1.8-3.2c2.7-4.5,6.2-8.4,10.8-11.1c8.6-5,17.4-5.4,26.4-1c4.9,2.4,9.3,5.4,13.6,8.7
			c0.8,0.6,1.4,1.5,2.7,1.7c1.2-1.5,2.5-3.2,3.8-4.8c2.8-3.6,6.3-6.4,10.3-8.6c4.4-2.4,9.1-3.3,14.1-3.1c7.5,0.4,13.2,3.9,17,10.3
			c1.8,3.1,3.3,6.5,5,9.7c1,2,1.1,2.1,3.1,1c9.1-4.8,18.9-6.8,29.2-6c17.7,1.3,28.4,13.9,31,25.2c0.7,3,0.9,6.2,1.3,9.3
			c0.4,2.8,0.4,2.9,3.4,3.4c4.3,0.7,8.5,1.5,12.7,2.8c5.9,1.8,11.2,4.7,15.6,9.1c6.8,6.7,10.1,14.8,9,24.5c-0.4,3.3-1.6,6.4-2.8,9.4
			c1.2,1.2,2.6,1.2,3.9,1.5c16.9,4.7,29.7,19.9,31,37.2c0.4,5.1-0.9,10-3.5,14.5c-2.1,3.8-4.5,7.4-7.4,10.7
			c-1.6,1.8-1.8,3.5-0.8,5.7c0.8,1.7,1.2,3.6,1.5,5.5c1.1,6.8-0.1,13-3.9,18.9c-3.6,5.6-8,10-14.1,12.7c-0.3,0.1-0.6,0.3-0.9,0.5
			c-2.6,0.9-4.2,2.5-5.1,5.3c-1.4,4.6-4.3,8.3-8,11.3c-3.4,2.8-7.2,4.8-11.5,5.8c-6.1,1.5-11.7,0.2-17-2.9c-2.1-1.3-2.1-3.2-0.1-4.5
			c11.2-7.1,15.6-17.7,15.5-30.5c-0.1-5.5-1.9-10.6-4.6-15.3c-1.7-2.9-4.2-5.1-7.3-6.4c-4.1-1.6-8.2-2.6-12.7-1.8
			c-4.7,0.9-7.6-0.7-9.7-5c-1.6-3.2-2.2-6.6-2.2-10.1c0-4.9,0.8-9.7,1.8-14.4c0.5-2,0.2-2.3-2-2.6c-1.7-0.2-3.4-0.5-5.2-0.6
			c-7.2-0.7-12.3-4.3-15.3-10.9c-1.1-2.4-1.1-2.4-3.9-1.8c-2.7,0.6-5.5,1-8.2,1.1c-3.5,0.1-6.9-0.6-10.1-2c-4.4-1.9-7.6-4.8-9.3-9.3
			c-0.3-0.8-0.7-1.6-1-2.4c-0.3-0.7-1-0.9-1.7-0.8c-1.7,0.4-3.4,0.8-5.1,1.2c-3.6,0.8-7.2,1.2-10.8,0.9c-7.7-0.6-13.4-4.3-17.1-11.1
			C287.1-1798.7,286.2-1801,285-1803.5z"/>
		<path id="XMLID_451_" class="st3" d="M288.5-1374.7c-34.2,0-68.4-0.1-102.6,0c-27.4,0.1-54.9,0.2-82.3,0.6
			c-16.8,0.3-33.6,1.1-50.5,1.8c-6.4,0.2-12.8,0.5-19.3,0.7c-2.9,0.1-3.4-0.5-2.7-3.4c0.9-3.7,2-7.4,3-11.1c0.3-1.1,1-1.8,2.2-1.9
			c0.7-0.1,1.4-0.1,2.1-0.1c9.4-0.4,18.7-0.7,28.1-1.2c28.4-1.6,56.9-2,85.3-2.5c28.5-0.4,56.9-0.3,85.4-0.4
			c21.4-0.1,42.7,0,64.1-0.3c15.3-0.2,30.5-1,45.8-1.6c11.1-0.4,22.2-0.9,33.3-1.2c24.8-0.8,49.6-1.5,74.4-2.3
			c12.1-0.4,24.3-0.7,36.4-0.9c15.6-0.3,31.2,0.2,46.8,0.9c3.3,0.1,3.4,0.1,4.3,3.3c1.2,4,2.2,8,3.2,12.1c0.5,1.9,0,2.5-2.1,2.4
			c-2.9,0-5.9-0.1-8.8-0.3c-14.2-0.8-28.5-0.9-42.7-0.7c-20.1,0.3-40.3,0.9-60.4,1.4c-11.1,0.3-22.2,0.5-33.3,1
			c-20.5,0.8-40.9,1.7-61.4,2.6c-2.9,0.1-5.9,0.2-8.8,0.3c-13.2,0.3-26.4,0.7-39.6,1C288.5-1374.6,288.5-1374.7,288.5-1374.7z"/>
		<path id="XMLID_450_" class="st3" d="M287-1405.6c-59.3,1.2-121.1,0.8-182.9,1.3c-19.1,0.2-38.2,0.5-57.3,0.8
			c-1.6,0-3.1,0-4.7-0.1c-0.5,0-0.8-0.5-0.8-1.1c0-0.3,0.2-0.7,0.3-1c2-3.8,4.1-7.7,6-11.5c0.9-1.8,2.2-2.5,4.1-2.5
			c3.1,0,6.2-0.3,9.4-0.3c38.7-0.6,77.4-1.4,116.1-1.6c29.3-0.2,58.7-0.7,88-1.1c19.6-0.3,39.2-0.4,58.8-0.9
			c18.7-0.4,37.5-1.3,56.2-1.8c23.4-0.6,46.9-1.3,70.3-0.9c24.1,0.4,48.3,0.8,72.4,1.2c2.4,0,4.9,0.2,7.3,0.3
			c1.1,0.1,1.9,0.6,2.4,1.7c1.9,4.5,3.7,9,5,13.7c0.4,1.3-0.2,2-1.5,2.1c-0.5,0-1,0-1.6,0c-18.4-0.3-36.8-0.3-55.2-0.8
			c-22.7-0.7-45.5-0.7-68.2-0.4c-16.8,0.2-33.7,1-50.5,1.5c-2.8,0.1-5.6,0.2-8.3,0.2C331.5-1406.4,310.5-1405.4,287-1405.6z"/>
		<path id="XMLID_449_" class="st3" d="M292.1-1443c-15.5,0-30.9-0.1-46.4,0c-21.9,0.2-43.7,0.6-65.6,1.1c-20.1,0.5-40.2,1.3-60.4,2
			c-17.3,0.6-34.7,1.3-52,1.8c-2.2,0.1-4.5,0.4-6.7-0.3c0-2.8,2.4-4,3.9-5.8c2.3-2.6,4.9-4.9,7.2-7.5c2-2.2,4.3-3.2,7.3-3.2
			c5.9-0.1,11.8-0.5,17.7-0.7c12.8-0.5,25.7-0.9,38.5-1.5c26.5-1.3,53.1-2.1,79.6-2.8c28.3-0.7,56.6-1.1,84.9-0.8
			c25.5,0.3,51,0.5,76.6,1c32.5,0.7,64.9,0.6,97.4,1c12,0.1,24,0.5,35.9,0.5c2.8,0,4.5,1,5.9,3.3c2.5,4.2,5.5,8,7.6,12.4
			c0.6,1.2,0.1,2-1.3,2c-4.2,0-8.3,0-12.5-0.1c-22.4-0.2-44.8-0.4-67.2-0.7c-39.4-0.5-78.8-0.9-118.2-1.4
			c-10.8-0.1-21.5-0.4-32.3-0.6C292.1-1443.1,292.1-1443.1,292.1-1443z"/>
		<path id="XMLID_448_" class="st3" d="M322.2-1479.8c0.7-1.4,2.1-1.4,3.1-1.8c3.7-1.6,7.4-2.9,11.1-4.5c5.1-2.2,10-4.9,14.2-8.6
			c2.4-2.1,4.9-2.8,8-2.8c20.1,0.1,40.3,0,60.4,0.2c18.2,0.1,36.4,0.6,54.7,0.7c2.8,0,5,0.8,7.1,2.5c4.9,4.1,9.9,8.2,14.8,12.3
			c0.7,0.5,1.3,1.2,1.8,1.9c0.3,0.4,0.4,1.1-0.4,1.1c-2.1,0.1-4.2,0.2-6.2,0.1c-23.1-0.3-46.2-0.7-69.3-1
			c-30.9-0.4-61.8-0.2-92.7,0.1C326.7-1479.5,324.4-1479.2,322.2-1479.8z"/>
		<path id="XMLID_447_" class="st3" d="M267.9-1479.2c-1.4,1.1-2.8,0.8-4.1,0.8c-16,0.2-31.9,0.6-47.9,0.6
			c-36.6,0.1-73.2,0.2-109.9,0.2c-1.4,0-2.8,0-4.2-0.1c-0.3,0-0.7-0.2-0.8-0.5c-0.1-0.3,0-0.8,0.2-0.9c1.5-1.2,3-2.3,4.6-3.4
			c5-3.5,10-6.8,15.5-9.6c3-1.5,6.1-2.3,9.5-2.3c12,0,23.9-0.2,35.9-0.3c20-0.2,39.9-0.4,59.9-0.7c3.1-0.1,5.5,0.8,8.1,2.6
			c7.5,5.2,15.9,8.4,24.7,10.8C262.2-1481.2,265.1-1480.5,267.9-1479.2z"/>
		<path id="XMLID_446_" class="st3" d="M376.7-1510.9c-2.2,0-4.4,0-6.7,0c-1.4,0-1.8-0.8-0.9-2c2.7-3.9,5.3-7.7,7.2-12
			c0.5-1.2,1.4-1.9,2.8-2c1.7-0.1,3.4-0.4,5.2-0.5c7.1-0.4,14.2-0.6,21.3-1.1c3.3-0.2,6.5,0.3,9.7,1.5c9.4,3.5,18.8,7.1,27.9,11.3
			c0.8,0.4,1.6,0.7,2.3,1.2c0.2,0.1,0.3,0.6,0.3,0.9c0,0.1-0.2,0.2-0.4,0.2c-0.9,0.1-1.7,0.2-2.6,0.2c-17.5,0.5-35,0.9-52.5,1.4
			C385.8-1511.6,381.3-1511.2,376.7-1510.9z"/>
		<path id="XMLID_445_" class="st3" d="M155.5-1507c0.5-1.6,1.8-1.7,2.9-2.1c5.8-2.3,11.6-4.5,17.4-6.8c4.6-1.9,9.2-4,13.7-6.2
			c2.1-1,4.1-1.7,6.4-1.6c2.8,0.2,5.7-0.5,8.2,0.4c2.4,0.8,2.9,4.1,4.5,6.1c2.2,2.7,4.3,5.4,6.4,8.2c0.6,0.8,0.2,1.7-0.9,1.8
			c-0.9,0.1-1.7,0.1-2.6,0.1c-10.7-0.7-21.5-0.2-32.2,0c-7.1,0.1-14.2,0.1-21.3,0.2C157.2-1506.8,156.4-1506.9,155.5-1507z"/>
		<path id="XMLID_444_" class="st3" d="M303.8-1512c0.6-1.3,1-2.6,1.7-3.7c2.4-3.9,7.2-4.9,10.9-2.4c3.5,2.4,4.3,7.1,1.9,10.6
			c-2.5,3.6-7.4,4.3-11,1.7c-1.1-0.8-1.5-2.3-2.9-2.8c-1.3,0.7-1.2,2.1-2,3c-2.9,3.7-8.1,4.3-11.4,1.2c-3.1-2.8-3.2-7.7-0.4-10.8
			c3.1-3.4,8.3-3.2,11.5,0.4C302.7-1513.9,303.2-1513,303.8-1512z"/>
		<path id="XMLID_443_" class="st3" d="M358.6-1528.5c-4.9,0.1-8.7-3.1-8.8-7.6c-0.2-4.4,3.4-8.2,7.7-8c5.1,0.3,8.6,3.9,8.6,8
			C366.1-1531.8,363-1528.6,358.6-1528.5z"/>
		<path id="XMLID_442_" class="st3" d="M336.2-1515.5c0.1,4.2-3.3,7.7-7.5,7.7c-4.1,0.1-7.7-3.4-7.8-7.5c-0.1-4.2,3.3-7.7,7.5-7.8
			C332.6-1523.1,336.1-1519.7,336.2-1515.5z"/>
		<path id="XMLID_441_" class="st3" d="M344.9-1516.1c-4.2-0.1-7.5-3.6-7.4-7.8c0.1-4.2,3.6-7.6,7.8-7.5c4.2,0.1,7.5,3.6,7.4,7.9
			C352.5-1519.3,349.1-1516,344.9-1516.1z"/>
		<path id="XMLID_440_" class="st3" d="M244.2-1529.8c4.1,0.4,7.2,4.2,6.9,8.2c-0.4,4.1-4,7.3-8.1,7c-4.1-0.3-7.4-4-7.2-8
			C236.1-1526.9,239.9-1530.2,244.2-1529.8z"/>
		<path id="XMLID_439_" class="st3" d="M285.7-1511.2c0,4.3-3.3,7.6-7.5,7.6c-4.3,0-7.6-3.3-7.6-7.5c0-4.3,3.2-7.6,7.5-7.7
			C282.4-1518.8,285.7-1515.4,285.7-1511.2z"/>
		<path id="XMLID_438_" class="st3" d="M226.3-1524.1c-4.3,0-7.6-3.4-7.5-7.6c0-4.2,3.5-7.6,7.7-7.5c4.3,0,7.6,3.4,7.6,7.6
			C233.9-1527.3,230.6-1524,226.3-1524.1z"/>
		<path id="XMLID_437_" class="st3" d="M261.5-1506.6c-4.3,0-7.5-3.3-7.5-7.6c0-4.3,3.3-7.5,7.6-7.5c4.3,0,7.5,3.3,7.5,7.6
			C269.1-1509.9,265.8-1506.6,261.5-1506.6z"/>
		<path id="XMLID_206_" class="st4" d="M236.7-1703.6c-6.1,0.2-11.1-0.7-15.9-2.2c-2.8-0.9-5.5-2.2-7.7-4.1c-4.1-3.4-5.3-8-3.6-13.1
			c2-6.2,6.6-9.6,12.7-11c9.7-2.2,19.3-1.1,28.5,2.5c2.9,1.1,5.5,2.9,7.8,5c5.1,4.7,4.2,13-0.7,17c-3.2,2.5-6.9,4-10.8,4.9
			C243.3-1703.9,239.5-1703.6,236.7-1703.6z M218.6-1730.1c-5.1,3.3-7.5,7.1-7.1,12.1c0.3,4.1,3,6.6,7.4,8.3
			C216.2-1716.5,216.6-1722.9,218.6-1730.1z M259.4-1718.2c0-3.3-1.7-5.7-4.1-7.5c-0.7-0.5-1.8-1.3-2.2-1.1
			c-1.1,0.6-0.4,1.8-0.2,2.7c0.5,1.7,0.4,3.4,0.5,5.1c0.2,2.6-0.5,5.1-0.9,7.7c-0.1,0.8,0.6,1.4,1.2,1.1
			C257.3-1711.8,258.9-1714.7,259.4-1718.2z"/>
		<path id="XMLID_202_" class="st4" d="M330.5-1700.5c-4.4-0.1-9.2-0.4-13.8-2.1c-2.3-0.8-4.5-1.9-6.5-3.3c-5.8-4.1-6.8-12.9-0.9-18
			c3-2.5,6.3-4.4,9.9-5.5c8.4-2.5,16.9-3.5,25.6-1.5c6.3,1.4,11.1,4.7,13.1,11.2c1.6,5.1,0.3,9.6-3.8,13c-2.3,1.9-4.9,3.2-7.8,4.1
			C341.3-1701.1,336.2-1700.2,330.5-1700.5z M316.3-1724.9c-2.2,0.4-3.9,1.9-5.4,3.4c-4,4-3.8,9.5,0.6,13.1c1.6,1.3,3.5,2.2,5.4,2.9
			c0.4,0.2,1,0.3,1.4,0.1c0.6-0.3,0.2-0.9-0.1-1.3c-2.8-4.7-3-9.8-2.2-15C316.1-1722.7,317-1723.6,316.3-1724.9z M348.5-1706.5
			c4.7-2.1,7.3-4.9,7.3-9.4c0-2.3-0.8-4.4-2-6.3c-1.1-1.7-2.3-3.3-4.8-4.1C351.1-1719.7,351.7-1713.5,348.5-1706.5z"/>
		<path id="XMLID_197_" class="st4" d="M288.1-1361.6c-32.8,0.3-65.6,0.4-98.4,1.1c-27.1,0.6-54.2,0.4-81.2,1
			c-23.8,0.5-47.6,0.6-71.3,0.9c-1.6,0-3.1,0-4.7,0c-2.4-0.1-3.2-0.7-3.4-3c-0.3-3.8-0.1-7.6,0.6-11.4c1.1-6.2,3-12.2,5.2-18
			c3.8-9.9,8.3-19.5,13.3-28.8c9.2-17,21.5-31.5,35.3-44.8c5.8-5.5,11.6-11,18-15.8c8.1-6,16.6-11.3,25.7-15.8
			c21.9-11,44.6-20.1,67.6-28.3c15.9-5.7,26.6-16.6,30.7-33.4c1.5-6.3,2.6-12.6,2.5-19c-0.1-3.4-0.1-3.5-3.1-4.5
			c-9.2-3-16.5-8.7-22.4-16.3c-7.4-9.6-12.5-20.3-15-32.3c-2.3-11.1-3.7-22.2-5-33.4c-0.3-2.6-0.5-3-2.9-3.5
			c-15.1-3.3-29.9-20.9-28.7-40c0.2-3.3,0.9-6.5,2.2-9.6c6.2-14.2,20.8-15.9,31-11.6c0.5,0.2,0.9,0.6,1.2,0.9c0.2,0.2,0.3,0.7,0.2,1
			c-0.1,0.3-0.4,0.6-0.7,0.7c-1.3,0.3-2.4-0.3-3.5-0.7c-3.5-1.1-7.1-1.7-10.8-1c-7.2,1.4-12.3,5.5-15,12.3
			c-2.1,5.3-2.4,10.8-1.2,16.4c2.3,10.5,7.8,18.8,16.7,24.8c3.3,2.3,7,3.8,11,4.4c2.5,0.4,2.8,0.8,2.9,3.4
			c0.6,9.7,2.2,19.3,3.8,28.9c1.5,9.1,3.8,18,8.3,26.2c3.1,5.7,6.7,11,11.1,15.7c6.5,6.9,14.3,11.6,23.9,12.4
			c1.3,0.1,2.4,0.3,3.3,1.3c6.6,7,15.3,10,24.3,12.2c9.1,2.2,18.4,3.5,27.8,3.2c19.2-0.5,36.9-5.9,53.2-15.9
			c1.8-1.1,3.6-1.9,5.8-2.2c3.1-0.4,6.1-1.4,9-2.6c7.5-3.3,12.8-8.8,16.5-16c3.2-6.2,5.3-12.8,7.2-19.5c1.8-6.2,2.5-12.6,2.9-19
			c0.3-6.2,0.3-12.5,0.3-18.7c0-2.6-0.1-5.2-1.1-7.7c-0.6-1.3,0.2-2.3,1.7-2.6c16-3.4,24.4-14.3,28.2-29.4c1.2-4.7,0.9-9.6-0.6-14.4
			c-3.3-10.6-12.8-16.1-23.6-13.7c-2,0.4-4,1-6.1,1.4c-0.3,0.1-1.1-0.4-1.1-0.8c-0.1-0.4,0.3-0.9,0.5-1.3c0.2-0.3,0.6-0.4,0.9-0.5
			c12.8-5.2,28.4-0.8,32.6,16c1.4,5.7,1.1,11.4-0.6,17c-4.1,13.7-12.5,23.4-26.3,28c-2.3,0.8-2.5,0.8-2.2,3.3c1,8.7,0.4,17.3-0.1,26
			c-0.8,13-4.4,25.2-10.1,36.9c-4.5,9.2-11.5,15.5-21.2,18.9c-0.7,0.2-1.3,0.4-2,0.6c-1.1,0.4-1.8,1-1.9,2.2
			c-0.6,7.5-0.3,14.9,2.1,22.1c1.5,4.5,4.2,8.4,7.8,11.5c5.4,4.7,11.5,8.4,18.5,10.2c10.1,2.6,20.2,4.9,30.2,7.8
			c19.8,5.6,38.7,13.2,56.6,23.4c31,17.6,53.2,42.9,66.8,75.9c6.2,15,10.8,30.4,14.5,46.1c1,4.4,2,8.8,2.8,13.2
			c0.7,3.5-0.4,4.8-4.1,5c-6.2,0.2-12.5,0.2-18.7,0.3c-24.1,0.3-48.3,0.6-72.4,0.9c-24.6,0.3-49.3,0.6-74,0.9
			c-16.1,0.2-32.3,0.6-48.4,0.8c-14.4,0.1-28.8,0-43.2,0C288.1-1361.9,288.1-1361.7,288.1-1361.6z M422.9-1366.3
			C422.9-1366.3,422.9-1366.2,422.9-1366.3c2.4,0.1,4.9,0.1,7.3,0.1c21.2-0.3,42.3-0.6,63.5-0.9c16.1-0.2,32.3-0.4,48.4-0.7
			c3.8-0.1,4.2-0.6,3.6-4.3c-0.1-0.3-0.1-0.7-0.2-1c-4.4-20-9.8-39.7-18-58.6c-12.8-29.4-32.9-52.3-60.3-69
			c-15.1-9.2-31.2-15.9-47.7-21.7c-12.1-4.3-24.7-7-37.1-10c-1-0.2-1.7,0.1-2,1.1c-0.4,1.1-0.8,2.3-1.2,3.4
			c-2.5,6.7-5.8,13-10.1,18.7c-10.8,14.3-25,23.8-41.9,29.6c-8.7,3-17.7,4.8-27,5.3c-2.8,0.2-3,0.3-3,3.1c0,5.6,0.1,11.1,0.3,16.7
			c0.6,19.8,1.2,39.5,1.8,59.3c0.3,8.8,0.6,17.7,0.9,26.5c0,0.7,0.1,1.4,0.1,2.1c0.1,1.2,0.8,1.9,2,1.9c2.1,0.1,4.2,0.1,6.2,0
			c5.2-0.1,10.4-0.3,15.6-0.3c9.4-0.1,18.7-0.1,28.1-0.2C375.7-1365.6,399.3-1366,422.9-1366.3z M164.4-1363c1.5,0,4.1,0,6.7,0
			c26.5-0.3,53.1-0.7,79.6-1c13.4-0.2,26.7-0.2,40.1-0.4c7.2-0.1,6.2-0.1,6.1-6.4c-0.2-10.8-0.7-21.5-1-32.3
			c-0.5-20.3-0.9-40.6-1.4-60.9c-0.1-2.6-0.2-5.2-0.4-7.8c-0.1-1.8-0.7-2.3-2.7-2.4c-0.7,0-1.4,0-2.1,0c-10.7-0.3-21-2.1-31.1-5.4
			c-23-7.6-41.8-20.8-55-41.4c-0.4-0.6-0.7-1.2-1.2-1.7c-0.5-0.6-1.1-0.8-1.8-0.6c-0.8,0.2-1.7,0.5-2.5,0.8
			c-21.9,7.4-43.3,16-64,26.2c-9.2,4.5-18.2,9.2-26.6,15.2c-14.1,10.1-26.1,22.3-37.5,35.2c-6.7,7.6-12.4,15.8-17.4,24.6
			c-5.5,9.5-10,19.4-14.1,29.5c-3.1,7.6-5.7,15.3-6.4,23.5c-0.7,7.9-0.7,7.2,6.1,7.1c16.3-0.2,32.6-0.5,48.9-0.7
			c7.3-0.1,14.6-0.1,21.9-0.2C126.9-1362.4,145.1-1362.7,164.4-1363z M292.9-1476.8c6.5,0.1,12.8-0.7,19.1-1.8
			c14.2-2.6,27.3-7.9,38.9-16.6c11.7-8.7,20.4-19.7,25.4-33.5c0.4-1.1,0.8-2.3,1.1-3.5c0.2-0.7,0-1.3-0.9-1.6
			c-0.5-0.2-1-0.4-1.5-0.5c-8.7-3.1-16.2-7.8-21.9-15.2c-0.8-1.1-1.7-1.6-3.1-1.2c-1.3,0.4-2.7,0.5-4.1,0.9
			c-6.4,1.7-13,2.2-19.6,2.4c-15.3,0.5-30.4-1.3-45.3-5c-16-3.9-30.1-11.2-42.4-22.3c-1.4-1.3-2.8-2.6-4.3-3.8
			c-0.7-0.5-1.4-1-2.2-1.2c-0.7-0.2-1.5,0-1.6,0.8c-0.1,1-0.1,2.1-0.1,3.1c0,7.3-1.2,14.5-3.3,21.5c-2.5,8.3-6.7,15.6-13.1,21.5
			c-2.4,2.2-5.2,4-8,5.8c-2,1.3-2.1,1.6-0.8,3.7c4.6,7.7,10.3,14.4,17,20.2C242.5-1485.5,266.3-1477.4,292.9-1476.8z"/>
		<path id="XMLID_193_" class="st4" d="M198-1732.1c0.1-22.4,18.5-40,40.9-38.2c21.2,1.7,32.3,17.7,34.4,31.1c0.1,0.5,0.2,1,0.2,1.5
			c0.3,2.4,0.6,4.8,0.9,7.2c2.4,1.1,4.6-0.7,7-0.6c3.3,0.2,6.6,0.4,9.8,1.3c2.7,0.7,2.8,0.7,3.1-2.1c0.5-4.5,1.6-8.9,3.7-12.9
			c5.9-11.4,15.1-18.2,27.7-20.6c18.2-3.6,39.6,8.9,43.6,30.9c3.2,18-8.3,39.8-31.2,43.8c-18.8,3.3-39.9-9.3-43.3-31.1
			c-0.5-3.1-1.9-4.7-4.7-5.4c-4.8-1.3-9.6-1.7-14.3,0.1c-1.4,0.5-2.4,1.3-2.7,2.8c-0.5,2-1,4-1.9,5.9c-6.4,15.1-18,23.4-34.1,23.9
			c-20.7,0.7-35-14-38.3-30.3C198.3-1727.4,197.8-1729.9,198-1732.1z M201-1732.7c-0.5,20.8,17.5,35.3,34.7,35.4
			c19.7,0.1,35.3-16.6,35.4-34.8c0.1-18.7-15.5-35.3-34.8-35.4C216.4-1767.6,200.6-1750.9,201-1732.7z M366.9-1728
			c0.7-19.7-16.6-35.2-34.8-35.3c-17.3,0-35.1,14-35.1,35.1c0,20.6,17.2,34.8,34.6,35C351.4-1693,367.4-1709.7,366.9-1728z"/>
		<path id="XMLID_192_" class="st4" d="M304.4-1685.9c0.1,6.6-3.2,11.5-9,13.8c-5.3,2-10.8,2.3-16.3,0.4c-0.6-0.2-1.2-0.7-1.7-1.2
			c-0.2-0.2-0.2-0.7-0.2-0.9c0.1-0.3,0.5-0.7,0.7-0.7c0.9,0,1.7,0.2,2.5,0.4c3.4,0.9,6.9,0.9,10.3,0.4c5.2-0.8,9-3.3,10.6-8.7
			c0.6-2.1,0.5-4.1,0-6.1c-0.9-3.7-2.3-7.3-4-10.7c-2.4-4.6-4.9-9.2-7.4-13.7c-0.4-0.8-0.8-1.5-1-2.3c-0.1-0.2,0.2-0.7,0.5-0.8
			c0.2-0.2,0.7-0.2,0.9-0.1c1,0.4,1.5,1.4,2.1,2.2c4.1,6.8,7.9,13.8,10.6,21.4C303.8-1690.2,304.6-1687.9,304.4-1685.9z"/>
		<path id="XMLID_191_" class="st4" d="M291.8-1625.6c-3.5,0.4-7.2-0.5-11-1.2c-4.7-0.9-8.7-3.3-12.2-6.6c-0.5-0.5-0.9-1.2-0.4-1.8
			c0.4-0.7,1.1-0.6,1.8-0.2c0.2,0.1,0.3,0.2,0.4,0.3c7,6.3,15.6,7,24.4,6.8c8-0.2,14.7-3.4,20.6-8.7c1-0.9,1.8-2.2,3.3-2.5
			c0.3-0.1,0.7,0.1,0.9,0.3c0.2,0.2,0.4,0.7,0.3,0.9c-0.4,0.7-0.9,1.5-1.5,2.1C311-1629.1,302.4-1625.2,291.8-1625.6z"/>
		<path id="XMLID_190_" class="st4" d="M167.8-1701.7c-0.3,2.5,0.5,4.8,2,6.8c0.8,1.1,1.6,2.2,2.5,3.4c0.6,0.8,1.5,1.8,0.3,2.7
			c-0.8,0.6-1.6-0.2-2.2-0.9c-4.1-4.4-6.7-9.4-4.9-15.6c2.2-7.6,8-10.7,15.7-8.3c0.7,0.2,1.2,0.9,0.8,1.6c-0.2,0.4-0.8,0.7-1.3,0.7
			c-1,0-2.1-0.3-3.1-0.4c-5.3-0.4-9.4,3.1-9.9,8.4C167.8-1702.7,167.8-1702.2,167.8-1701.7z"/>
		<path id="XMLID_189_" class="st4" d="M388.9-1714.3c4.7,0,9.2,3.8,10.4,8.7c1.1,4.2,0.6,8.3-1.9,12c-1.1,1.7-2.3,3.5-4,4.7
			c-0.4,0.3-1,0.4-1.4,0c-0.4-0.4-0.5-1-0.2-1.4c0.9-1.3,1.8-2.5,2.7-3.8c2-2.6,2.7-5.5,2.5-8.8c-0.4-5.6-4.5-9.2-10.1-8.7
			c-1,0.1-2.1,0.3-3.1,0.4c-0.6,0-0.9-0.4-1.1-0.9c-0.3-0.6,0.2-1,0.6-1.3c1-0.8,2.3-0.7,3.5-0.8
			C387.5-1714.2,388.2-1714.3,388.9-1714.3z"/>
		<path id="XMLID_188_" class="st4" d="M246.5-1644c-0.5-0.3-1.1-0.5-1.2-0.8c-0.1-0.4,0.2-1.1,0.6-1.3c0.9-0.5,1.9-0.8,2.9-1.2
			c7.6-2.9,14.2-7.1,18.5-14.3c0.2-0.3,0.4-0.5,0.7-0.8c0.5-0.4,1-0.3,1.4,0.1c0.2,0.2,0.5,0.7,0.4,0.9c-0.3,1-0.7,2-1.3,2.8
			c-2.1,3.2-4.9,5.8-8,8.1c-3.5,2.6-7.4,4.5-11.5,6C248.2-1644.3,247.3-1644.2,246.5-1644z"/>
		<path id="XMLID_187_" class="st4" d="M320.2-1660.6c0.4,0.1,0.8,0,1,0.2c0.5,0.5,0.9,1,1.3,1.6c3.2,4.9,7.5,8.5,12.7,11.2
			c2.2,1.1,4.3,2.2,6.5,3.3c0.5,0.2,0.8,0.7,0.7,1.2c-0.2,0.9-0.9,0.9-1.6,0.9c-0.3,0-0.7,0-1-0.2c-6.9-3.3-13.6-6.8-18.2-13.3
			c-0.8-1.1-1.8-2.2-1.9-3.6C319.6-1659.7,320-1660.2,320.2-1660.6z"/>
		<path id="XMLID_186_" class="st4" d="M295.2-1619.7c-2.7-0.2-5.3,0.3-7.8-0.5c-0.5-0.2-0.8-0.6-0.6-1.2c0.1-0.3,0.4-0.7,0.6-0.7
			c0.8-0.2,1.7-0.3,2.5-0.4c5-0.1,10,0.3,15-0.8c0.4-0.1,1.1,0.3,1.2,0.7c0.4,0.7-0.1,1.4-0.8,1.6c-1.1,0.4-2.3,0.7-3.5,0.8
			C299.6-1619.9,297.4-1619.8,295.2-1619.7z"/>
		<path id="XMLID_183_" class="st4" d="M275.5-1397.4c3.9-0.8,8.2,3.9,8.2,9.9c0,5-3,8.3-8.3,8.7c-5,0.5-9.7-4.3-9.6-9.5
			C265.9-1392.9,269.4-1397.6,275.5-1397.4z M274.9-1381.6c3.7,0.1,6.2-2.3,6.2-6.1c0-3.8-2.5-7.2-5.3-7.2c-4.3,0-7.1,2.5-7.2,6.5
			C268.4-1384.6,271.1-1381.7,274.9-1381.6z"/>
		<path id="XMLID_180_" class="st4" d="M284.5-1457.2c0,4.7-3.9,8.6-8.5,8.7c-4.6,0.1-9-3.8-9.1-8.2c-0.1-4.7,3.6-8.4,8.6-8.4
			C280.6-1465.1,284.5-1461.8,284.5-1457.2z M275.7-1451.2c3.3,0.1,6-2.4,6.2-5.7c0.2-2.8-2.8-5.4-6.4-5.4c-3.4,0-5.7,2.1-5.9,5.3
			C269.5-1453.9,272.2-1451.3,275.7-1451.2z"/>
		<path id="XMLID_179_" class="st4" d="M222.5-1740.1c-3.5,0.1-5.7-0.2-6.8-2.7c-0.9-2.1,0-4.5,2.4-6.3c4.6-3.3,9.9-4.8,15.6-4.8
			c1,0,2,0.3,2.9,0.9c1.7,1.1,2.2,2.7,1.1,4.5c-0.4,0.7-1,1.5-1.6,2.1C232.2-1742.5,227.1-1740.6,222.5-1740.1z"/>
		<path id="XMLID_178_" class="st4" d="M330.8-1754.1c4.1,0.5,8.8,1.6,13,4.3c1.3,0.9,2.4,2,3.1,3.4c1.2,2.6-0.2,5.4-3,6.1
			c-0.5,0.1-1,0.2-1.6,0.2c-6.3-0.1-11.8-2.3-16.3-6.9c-0.5-0.5-0.9-1.1-1.2-1.7c-1-1.8-0.5-3.3,1.2-4.4
			C327.3-1753.9,328.6-1754,330.8-1754.1z"/>
	</g>
</g>
<g id="XMLID_72_">
	<g id="XMLID_76_">
		<path id="XMLID_98_" class="st3" d="M-423.6-1360.1c-19.3,0-38.5,0.1-57.8,0c-31.4-0.1-62.8-0.4-94.3-0.5
			c-39.4-0.2-78.8-0.3-118.2-0.5c-2.9,0-5.9-0.2-8.8-0.3c-2.7-0.1-2.9-0.5-2.6-3.1c0.3-3.5,1.5-6.8,2.8-10
			c4.1-10,8.7-19.6,13.6-29.2c5-9.7,9.7-19.6,14.1-29.6c8.2-18.4,19.1-35,32.9-49.7c6.6-7,14.2-12.7,22.7-17.3
			c7.3-4,14.9-7.5,22.6-10.5c18.9-7.3,37.9-14.6,57-21.4c13.7-4.8,27.5-9.7,41.2-14.6c0.5-0.2,1-0.4,1.5-0.5c3.1-0.9,4-0.3,4.8,2.8
			c1,3.7,1.7,7.5,3,11c8.6,23.6,24.6,39.6,49.2,46c18.8,4.9,36.9,2,53.8-7.4c18.9-10.4,31.7-26.1,39.3-46.2c2.2-5.9,1.6-5.8,7.6-3.6
			c27.5,10.2,55.2,19.9,82.4,30.7c8.9,3.5,17.6,7.3,26.2,11.5c15.4,7.5,29.5,17,40.7,30.2c8.8,10.4,16.5,21.5,22.6,33.6
			c4.7,9.1,8.5,18.6,11.8,28.3c5.1,14.8,10,29.6,13.5,44.8c0.2,0.7,0.4,1.3,0.5,2c0.8,3.4-1.1,5.3-4,5c-0.9-0.1-1.7,0-2.6,0
			c-27.1-0.1-54.2-0.1-81.3-0.2c-12.8,0-25.7-0.2-38.5-0.2c-35.9-0.2-71.9-0.4-107.8-0.5c-16-0.1-31.9,0-47.9,0
			C-423.6-1359.7-423.6-1359.9-423.6-1360.1z"/>
		<path id="XMLID_95_" class="st4" d="M-307-1874.6c2.2,0.9,3.8,1.4,5.4,2.1c5.5,2.4,9.5,6.3,11.5,12.1c2,6,1.4,11.6-2.3,16.8
			c-1,1.4-2,2.9-3.3,4c-5.9,5.1-7.6,11.8-7.7,19.2c-0.1,2.1,0,4.2,0.1,6.2c1,14,1.2,28.1,1.5,42.1c0,1.6,0.1,3.1,0,4.7
			c-0.1,1.9,0.6,3.2,2.3,4.2c2.1,1.2,4.1,2.7,5.9,4.3c15.5,14.1,14.4,37.1-2.3,49.8c-5.8,4.4-12.5,6.8-19.6,7.6
			c-2.5,0.3-2.8,1-2.7,3.3c0.4,6.6,0.6,13.2,0.2,19.8c-1.2,21.1-7.1,40.6-20.3,57.5c-2,2.6-4.3,5-6.6,7.4c-1.2,1.2-1.7,2.5-1.6,4.2
			c0.2,3.6,0.3,7.3,0.5,10.9c0.6,10.6,1.3,21.1,2,31.7c0.5,7.3,1.1,14.5,1.5,21.8c0.2,2.9,0.2,5.9,0.2,8.8c0,0.4-0.3,1-1,1
			c-0.6,0-1.1-0.3-1.1-0.8c-0.4-2.4-0.7-4.8-0.9-7.2c-0.4-5.9-0.7-11.8-1.1-17.7c-0.2-3-0.4-3.3-3.6-2.8c-5.9,0.9-11.8,0.8-17.7,0.8
			c-31.1-0.2-60.4-7.7-87.7-22.8c-9.1-5.1-17.9-10.7-25.6-17.8c-2-1.8-4.3-3.5-6.9-4.9c-1,2.5-1,5-1.1,7.3
			c-0.8,14-1.6,28.1-2.5,42.1c-0.3,5.5-0.7,11.1-1.1,16.6c-0.1,1.9-0.4,3.8-0.7,5.7c-0.1,0.7-0.4,1.5-1.2,1.5c-1.1,0-1.3-1-1.3-1.9
			c0-2.4,0.1-4.9,0.2-7.3c0.6-8.5,1.2-17,1.7-25.4c0.7-11.3,1.4-22.5,2.1-33.8c0-0.7,0-1.4,0.1-2.1c0.7-4-0.6-7.1-3.6-10.2
			c-11.9-12.5-18.9-27.7-22.5-44.5c-2.6-12-2.9-24.1-2.3-36.2c0.1-1,0.1-2.1,0.1-3.1c0-1-0.5-1.6-1.5-1.8c-2.1-0.3-4.1-0.6-6.2-1
			c-8.2-1.9-15.2-5.9-20.6-12.4c-11.8-14.3-9.3-34.6,5.8-46c1.2-0.9,2.5-1.8,3.9-2.6c1.5-0.8,1.7-1.9,1.4-3.5
			c-3.6-17.8-4.2-35.8-3.5-53.9c0.6-14.7,2.2-29.4,5.9-43.8c3.3-12.8,9.5-24.2,18.9-33.6c2.9-3,6-5.8,9.1-8.6
			c7.8-7,16.8-11.6,26.8-14.5c12-3.6,24.2-6.1,36.6-7.5c6.9-0.8,13.8-1.4,20.6-2.6c12.4-2.1,23.9-7,35.3-12.2
			c6.8-3.1,13.5-6.3,20.7-8.5c5.7-1.7,11.5-2.4,17.4-2c8.3,0.5,16.9,7.2,18,18.5c0.6,5.8-0.1,11.4-1.6,17c-1,3.7-2.1,7.3-3.1,11
			c-0.4,1.4,0.2,2.1,1.5,1.7c2.9-0.7,5.7-1.5,8.5-2.3c5-1.5,10.2-2.1,15.4-1.9c0.7,0,1.4,0,2.1,0.1c8.6,0.7,13.8,7.3,12.3,15.9
			c-0.8,5.1-2.9,9.6-6.1,13.6C-303.5-1878.7-305.1-1876.9-307-1874.6z M-419.2-1590c10.7,0.4,21.4-0.5,31.8-3.3
			c30.9-8.1,51.7-27.3,61.5-57.8c5-15.4,6.2-31.3,4.7-47.3c-0.4-4.3-0.4-5.3,4.7-6c0.7-0.1,1.4-0.1,2.1-0.2
			c9.3-1.4,17.2-5.5,22.9-13.1c5.5-7.3,7.5-15.6,5.1-24.6c-1.9-7-5.9-12.5-11.7-16.7c-6.1-4.4-12.9-6.5-20.4-6.8
			c-3.9-0.1-4.8-0.9-5.5-4.8c-0.2-1.2-0.4-2.4-0.5-3.6c-0.4-4.8-0.8-9.7-1-14.5c-0.4-8.9-2-17.6-4.5-26.1c-2.8-9.6-7-18.5-13.4-26.3
			c-8.1-9.9-18.3-15.6-31.4-15.8c-6.8-0.1-13.5-0.1-20.3,0.3c-11.2,0.8-22.5,2-33.7,2.8c-13.5,0.9-26.9,3-40.2,5.5
			c-7.7,1.4-15.2,3.6-22.3,7c-12.9,6.2-21.4,15.6-23.1,30.4c-0.8,6.6-1.5,13.1-1.6,19.7c-0.1,6.4-0.1,12.8,0.6,19.2
			c0.5,5,0.7,6-5.2,6.2c-9.8,0.4-18.2,4.3-24.6,11.8c-10.1,11.8-9.2,27.6,0.8,38.4c5.9,6.4,13.2,10,21.8,10.9
			c1.5,0.2,3.1,0.5,4.6,0.9c1.1,0.3,1.7,1.2,1.6,2.4c0,0.9-0.2,1.7-0.3,2.6c-1.3,15-0.4,29.9,3.7,44.3c9.1,31.4,29.3,51.7,60.8,60.6
			C-441.6-1590.6-430.6-1589.5-419.2-1590z"/>
		<path id="XMLID_94_" class="st4" d="M-419-1447.6c-20-0.1-37.9-5.9-54.3-16.7c-15.3-10.1-27.4-23.3-37-38.9
			c-3.6-5.9-6.8-12.1-9.5-18.5c-0.3-0.8-0.9-1.6-0.5-2.5c0.1-0.3,0.4-0.6,0.7-0.7c0.3-0.1,0.7-0.1,0.9,0.1c1.4,0.9,1.7,2.6,2.3,4
			c3.9,8.7,8.6,17,14.3,24.7c11.6,15.9,25.8,28.5,43.7,36.8c13.8,6.4,28.2,9.5,43.4,8.7c19.5-1.1,36.8-7.9,52.2-19.7
			c16.6-12.8,28.4-29.2,36.8-48.3c0.6-1.4,0.9-3,2.1-4.1c0.4-0.4,0.9-0.4,1.4-0.1c0.2,0.2,0.5,0.6,0.5,0.8c-0.2,1-0.4,2-0.8,3
			c-6.4,15.2-15.1,28.9-26.7,40.6c-11.1,11.3-24,19.9-39,25.2C-398.3-1449.4-408.7-1447.7-419-1447.6z"/>
		<path id="XMLID_91_" class="st4" d="M-307.1-1417.6c10.6,0,21.2,0,31.7,0c6.7,0,5.9,0.7,5.3,6.1c-1.7,14.6-3.1,29.3-4.7,43.9
			c-0.2,1.5-0.5,3.1-0.9,4.6c-0.1,0.4-0.7,0.9-1.1,0.9c-0.9,0.1-1.2-0.7-1.2-1.3c0-1.6,0.1-3.1,0.2-4.7c1.1-10,2.2-20,3.3-30
			c0.2-2-0.3-2.6-2.2-2.5c-18.9,0.8-37.8,0.5-56.7,0.6c-2.4,0-4.9,0.2-7.3,0.3c-2.6,0.2-2.8,0.4-2.9,3.2c-0.7,10.7-1.3,21.5-2,32.2
			c-0.1,1.4,0.1,2.8-0.6,4.1c-0.1,0.2-0.6,0.4-0.9,0.4c-0.3,0-0.7-0.3-0.8-0.5c-0.2-0.8-0.4-1.7-0.4-2.5c0.6-11.9,1.3-23.9,2-35.8
			c0.2-3.8,0.4-7.6,0.6-11.4c0.1-1.4,0.1-2.8,0.3-4.1c0.4-2,1.1-2.6,3.2-2.7c5-0.1,10.1-0.1,15.1-0.2c6.6,0,13.2,0,19.8,0
			C-307.1-1417.2-307.1-1417.4-307.1-1417.6z M-307-1414.8c0,0,0,0.1,0,0.1c-10.7,0.3-21.5,0.5-32.2,0.8c-2.9,0.1-2.9,0.1-3.3,2.8
			c-0.2,1.4-0.4,2.7-0.5,4.1c-0.4,4.5-0.2,4.6,4.4,4.6c11.8,0,23.6,0.1,35.4-0.2c8.1-0.2,16.3,0.1,24.4-0.7c5.8-0.6,4.6,0.4,5.6-5.2
			c0.3-1.5,0.3-3.1,0.4-4.7c0.1-1-0.4-1.7-1.5-1.7c-1.2-0.1-2.4,0-3.6,0C-287.6-1414.8-297.3-1414.8-307-1414.8z"/>
		<path id="XMLID_88_" class="st4" d="M-473-1775.7c6.3-0.2,12.2,1,17.9,3.1c2.9,1.1,5.5,2.8,7.9,4.8c5.8,5,4.5,13.7-0.8,17.6
			c-3.3,2.4-7,4-10.9,4.6c-8.2,1.4-16.5,1.6-24.7-0.9c-2.8-0.9-5.5-2-7.9-3.8c-4.8-3.6-6.3-8.6-4.3-14.2c1.8-5.1,5.5-8.3,10.6-9.9
			C-481.1-1775.5-477-1775.9-473-1775.7z M-450-1766.4c-1,1-0.6,2.1-0.8,3.1c-1.4,7.2-5.4,12.2-12.4,14.7c-2.9,1-5.8,0.8-8.8,0.6
			c-9.3-0.7-16.1-7.6-16.6-16.9c-0.1-0.9,0-1.7-0.1-2.6c0-0.3-0.2-0.7-0.4-0.8c-0.6-0.3-1,0.1-1.3,0.4c-0.7,1-1.5,1.9-2,3
			c-2.7,5.2-1.5,9.8,3.3,13.1c2.5,1.7,5.3,2.6,8.1,3.4c6,1.7,12.1,1,18.1,0.8c4.7-0.2,9.2-1.8,13.1-4.5c2.6-1.8,3.9-4.5,3.8-7.6
			C-446-1762.6-447.6-1764.8-450-1766.4z"/>
		<path id="XMLID_85_" class="st4" d="M-369.4-1775.7c3.5-0.1,7.4,0.2,11.2,1.4c5.1,1.6,8.7,4.8,10.6,9.9c2.1,5.6,0.6,10.7-4.2,14.2
			c-2,1.5-4.1,2.5-6.4,3.3c-9.5,3.2-19,3-28.6,0.8c-2.9-0.7-5.5-2-8-3.7c-5.9-4-7.2-13.1-1-18.3c2.8-2.4,6-4.1,9.5-5.2
			C-381.1-1775.1-376.5-1775.7-369.4-1775.7z M-391.7-1767.2c-8.3,3.8-6.2,13.1-0.3,16c1.7,0.8,3.4,1.8,5.2,2.3
			c9.4,2.6,18.8,2.5,28.2-0.6c2-0.7,3.8-1.7,5.5-3c5.4-4.3,4.7-13.3-1.3-16.9c-0.1-0.1-0.4-0.1-0.5-0.1c-0.2,0.2-0.5,0.5-0.5,0.7
			c0.1,1,0.4,2,0.5,3.1c0.5,6.4-2.2,11-7.7,14.1c-4.8,2.7-9.9,3-15.1,2c-7.2-1.4-11.6-5.8-13-13.2
			C-391-1764.1-391.4-1765.6-391.7-1767.2z"/>
		<path id="XMLID_84_" class="st4" d="M-373-1789.6c-9.5,0.9-18.7,0.6-27.8,2.3c-2.7,0.5-4-0.5-4.4-3.1c-0.4-2.4-0.7-4.8-0.7-7.2
			c0.1-4,1.6-5.6,5.7-5.9c3.1-0.3,6.2-0.3,9.3-0.2c10.4,0,20.7,1.6,31,2.6c1.2,0.1,2.4,0.5,3.6,0.7c5.6,1.1,5.8,2.9,5.4,8.1
			c-0.2,2.2-1.5,3.4-3.8,3.5c-2.4,0.1-4.8-0.1-7.3-0.2c-2.6-0.1-5.2-0.4-7.8-0.5C-370.9-1789.7-372.2-1789.6-373-1789.6z"/>
		<path id="XMLID_83_" class="st4" d="M-465.6-1800.4c3.5,0,6.9-0.2,10.4,0c5.4,0.3,7.7,2.6,7.3,9.5c0,0.3-0.2,0.7-0.2,1
			c-1.2,5.7-2.5,6.5-8.2,5.8c-9.3-1.1-18.5-2.2-27.9-2.6c-3.1-0.1-6.2,0.6-9.3,0.8c-4.7,0.3-7.6-3.9-5.9-8.2c0.7-1.8,2.3-2.6,4-3
			c4-0.9,8.1-1.8,12.2-2.3C-477.4-1800.1-471.5-1800.7-465.6-1800.4z"/>
		<path id="XMLID_82_" class="st4" d="M-424-1690.1c4.4,0.2,8.6-1.1,12.5-3.1c3.1-1.6,4.9-3.8,4.5-7.5c-0.2-1.7-0.2-3.5-0.5-5.2
			c-1.8-10.2-3.7-20.5-5.5-30.7c-1.3-7.7-2.5-15.4-3.7-23.1c-0.1-0.8-0.1-1.7,0-2.6c0-0.2,0.4-0.5,0.7-0.6c0.3-0.1,0.7,0,0.9,0.2
			c0.8,0.8,0.8,1.9,0.9,2.9c1.3,7.7,2.6,15.4,3.9,23.1c1.6,9.2,3.3,18.4,4.9,27.7c0.4,2.6,0.9,5.1,1.1,7.7c0.4,4-1,7.2-4.4,9.4
			c-6.9,4.5-14.6,5.4-22.5,3.9c-3.1-0.6-5.2-2.6-6.5-5.5c-1.1-2.6-1.6-5.3-1.9-8.1c-1.1-12-0.5-23.9,1.3-35.8
			c0.9-6.3,1.9-12.7,2.9-19c0.3-1.7,0.5-3.4,1.4-4.9c0.1-0.2,0.6-0.3,0.9-0.4c0.7-0.1,0.9,0.5,1,1c0.1,1,0,2.1-0.1,3.1
			c-1.1,7.2-2.1,14.4-3.3,21.6c-1.7,10.5-2.3,21-1.5,31.6c0.2,2.6,0.6,5.2,1.2,7.7c1.1,4.4,3.1,6.1,7.6,6.6
			C-426.8-1689.9-425.4-1690.1-424-1690.1z"/>
		<path id="XMLID_79_" class="st4" d="M-367.2-1674.5c0.3,14.6-8.4,26-21.5,29c-11.7,2.7-23.9-2.5-29.4-12.5c-1-1.8-1.8-3.8-2.2-5.8
			c-0.3-1.4,0.5-2.5,2-2.3c12.2,1,21-5.8,29.5-13c3.8-3.2,5.8-7.7,7.6-12.3c1.1-2.7,2-5.5,3-8.3c0.3-0.9,0.9-1.6,1.8-1.6
			c0.9-0.1,1.6,0.6,2.1,1.3c0.4,0.6,0.7,1.2,1,1.8C-369.7-1690.4-367.5-1682.3-367.2-1674.5z M-375.9-1697.5
			c-1.2,3.1-2.1,5.1-2.9,7.2c-3,7.9-8,14.1-15.1,18.6c-2.1,1.3-4.1,2.5-6.2,3.7c-4.7,2.6-9.7,4.6-15.2,4.6c-1.6,0-1.8,0.5-1.3,1.9
			c2.1,5.2,5.7,9,10.8,11.4c16.9,7.9,35.6-3.7,35.9-22.2C-369.7-1680.7-372-1688.7-375.9-1697.5z"/>
		<path id="XMLID_78_" class="st4" d="M-297.7-1733.5c-0.3,4.9-2.6,9.5-7.5,12.7c-0.6,0.4-1.3,0.5-1.9,0.6c-0.3,0-0.7-0.2-0.8-0.5
			c-0.2-0.2-0.2-0.7-0.1-1c0.4-1.1,1.4-1.5,2.2-2.1c6.5-4.7,6.1-13.8,2.9-18.7c-2.4-3.7-5.7-6-9.8-7.3c-1.8-0.5-2.8-1.6-2.3-2.2
			c0.8-0.9,1.9-0.8,2.9-0.5C-304-1750.7-297.6-1742.6-297.7-1733.5z"/>
		<path id="XMLID_77_" class="st4" d="M-524-1752.7c0.4,0.3,0.8,0.6,1,1c0.3,0.5-0.1,1.1-0.6,1.3c-1.3,0.5-2.6,0.9-3.9,1.5
			c-5.7,2.4-10.2,8.2-9.9,15.1c0.2,3.7,1.5,6.7,4.1,9.2c0.6,0.6,1.4,1,2,1.6c1.2,1,1.6,2,0.9,2.5c-0.8,0.7-1.6,0.3-2.4-0.2
			c-5.5-3.4-8.2-8.6-7.7-14.9c0.7-9.2,7.2-14.9,14.1-16.8C-525.5-1752.6-524.8-1752.6-524-1752.7z"/>
	</g>
	<g id="XMLID_73_">
		<ellipse id="XMLID_75_" class="st2" cx="-350.4" cy="-1724.9" rx="20.1" ry="14.6"/>
		<ellipse id="XMLID_74_" class="st2" cx="-491.9" cy="-1724.9" rx="20.1" ry="14.6"/>
	</g>
</g>
<g id="XMLID_28_">
	<g id="XMLID_32_">
		<path id="XMLID_71_" class="st3" d="M287.4-637.9c-29.5,0-59,0.3-88.5-0.1c-47.6-0.6-95.1-0.7-142.7-1c-20.5-0.1-41-0.4-61.4-0.6
			c-0.2,0-0.3,0-0.5,0c-4-0.1-4-0.1-3.5-4.1c5.2-35.8,17.8-68.7,39.1-98.1c9.7-13.4,20-26.2,32.5-37.1c5.6-4.9,11.6-9.4,17.8-13.6
			c18.6-12.3,38.1-22.8,58.7-31.3c22.9-9.5,46.3-17.8,70-25c2.3-0.7,4.7-1.3,7.1-1.7c2.2-0.4,2.7,0,3,2.3c1.1,6.6,4.6,11.9,8.7,16.9
			c3.6,4.3,8,7.7,12.8,10.5c10.8,6.4,22.5,9.9,34.9,11.3c25.9,2.8,48.7-4.7,69-20.5c5.3-4.1,9.7-8.9,12.4-15.2
			c1.3-3,2.6-3.4,5.9-2.6c7.3,1.7,14.4,3.9,21.5,6.3c20.4,6.8,40.6,14.2,60.4,22.6c21.3,9.1,41.3,20.5,60.2,33.9
			c10.5,7.5,19.8,16.4,28.2,26.2c12.5,14.6,23.1,30.3,32.3,47.2c9.8,18,15.5,37.4,19.8,57.3c0.9,4.2,1.8,8.5,2.3,12.8
			c0.6,5.2-0.3,6.2-5.6,6.1c-16.8,0-33.7-0.2-50.5-0.2c-0.9,0-1.7-0.1-2.6-0.1c-21.9-0.1-43.7-0.3-65.6-0.4
			c-39.1-0.2-78.1-0.4-117.2-0.7c-19.4-0.2-38.9-0.5-58.3-0.7C287.4-637.7,287.4-637.8,287.4-637.9z"/>
		<path id="XMLID_67_" class="st4" d="M233.9-995c6.4-0.2,12.3,0.9,18,3.1c3,1.1,5.6,2.7,8,4.8c6,5.1,4.7,14-1,18
			c-3.3,2.3-7,3.9-10.9,4.5c-7.9,1.2-15.8,1.5-23.6-0.8c-3-0.9-5.9-2-8.4-3.9c-5-3.7-6.6-8.8-4.3-14.6c2-5,5.6-8.2,10.8-9.7
			C226.2-994.8,230.1-995.2,233.9-995z M251.8-969c2.9-0.6,4.5-1.6,5.9-2.7c4.4-3.6,4.6-9,0.7-13.1c-0.6-0.6-1.3-1.1-2-1.6
			c-0.4-0.3-0.9-0.6-1.3-0.2c-0.2,0.2-0.3,0.6-0.2,0.9C256-980.1,255.3-974.8,251.8-969z M219.9-970.2c-0.5-3.6-1.4-6.6-1.4-9.7
			c0-3.3,1.4-6.3,1.9-10.1c-4.6,2.5-6.7,6.1-7,10.6C213.1-975.1,215.5-972.3,219.9-970.2z"/>
		<path id="XMLID_63_" class="st4" d="M336.7-995c4.2-0.1,8.2,0.2,12,1.3c5.1,1.5,8.8,4.7,10.8,9.7c2.2,5.8,0.7,11-4.4,14.6
			c-3,2.2-6.4,3.4-10,4.2c-8.2,2-16.4,1.6-24.6-0.2c-2.7-0.6-5.2-1.8-7.6-3.3c-6.6-4-8-13.6-1.4-18.9c2.9-2.3,6-4,9.5-5.1
			C326.2-994.3,331.5-995.3,336.7-995z M357.7-979.5c-0.5-4.1-2.2-7.8-6.4-10.1c-0.3-0.2-0.7-0.4-0.9-0.3c-0.6,0.2-0.5,0.8-0.4,1.2
			c1.9,5.9,2.2,11.8-0.1,17.7c-0.1,0.2-0.2,0.4-0.1,0.5c0.2,0.2,0.5,0.6,0.7,0.5C354.3-970.7,357.7-975.1,357.7-979.5z M315.5-986.8
			c-0.2,0-0.3,0-0.5,0.1c-6.5,3.8-6.9,11.3-0.8,15.6c0.7,0.5,1.8,1.2,2.3,0.9c1.2-0.7,0.3-1.8-0.1-2.7c-0.9-2.3-0.9-4.7-0.8-7.1
			c0.1-2.1,0.3-4.1,0.5-6.2C316.1-986.3,315.7-986.5,315.5-986.8z"/>
		<path id="XMLID_60_" class="st4" d="M288.1-824.1c-13.3,0.4-26.3-1.2-39-5.3c-10.2-3.3-19.5-8.1-27.9-14.8
			c-15.3-12.3-25.1-28.1-30.2-46.9c-3.9-14.6-5-29.4-3.6-44.4c0.2-2.5,0-2.9-2.7-3.2c-9.5-0.9-17.7-4.8-24.3-11.8
			c-6-6.4-9.1-14.1-8.7-22.7c0.4-10.1,5-18.3,13-24.5c0.5-0.4,1.1-0.8,1.7-1.2c4.3-2.9,3.4-1.7,2.7-6.7
			c-3.7-25.1-0.7-49.1,10.6-71.9c4.7-9.5,10.7-17.8,19.2-24.2c6.8-5.1,14.3-7.8,22.8-7.1c3.6,0.3,7.2,1.2,10.6,2.4
			c1.7,0.6,3.3,0.8,5-0.2c7.6-4.2,16.1-5.6,24.5-6.2c9.1-0.7,18.3-1.3,27.6-0.6c10.1,0.8,19.9,2.7,29.7,4.9c1.4,0.3,2.7,0.6,4,1.1
			c1.1,0.3,2,0.3,3-0.2c12-5.2,23.8-3.8,35.3,1.4c11.9,5.3,21.2,13.7,28,24.9c4.7,7.8,8,16.1,10.6,24.8c4.1,14.2,6.4,28.8,5.9,43.6
			c-0.1,3-0.8,5.8-1.1,8.8c-0.2,1.4,0.2,2.3,1.4,3c3.6,1.9,6.7,4.3,9.5,7.2c6,6.4,9.2,14,8.8,22.7c-0.4,10-4.9,18.3-12.8,24.6
			c-5.6,4.4-11.9,7-19,7.8c-0.7,0.1-1.4,0.1-2.1,0.2c-1.5,0.2-2,0.9-1.8,2.5c0.9,6.6,0.8,13.2,0.4,19.8c-0.8,15-3.9,29.6-10.8,43.1
			c-12.5,24.4-32.3,39.3-58.7,45.9C309.2-824.7,298.7-823.8,288.1-824.1z M280-1110.8c-8,0-15.1,0.6-22.2,1.3
			c-12.5,1.2-23.6,6.2-33.2,13.7c-9.3,7.2-16.4,16.5-20.7,27.6c-5.6,14.5-9,29.5-10.6,44.9c-0.6,5.5-0.8,11.1-0.9,16.6
			c0,3.1-0.9,3.9-4.1,4.2c-0.7,0.1-1.4,0-2.1,0c-7.9,0.2-14.9,3-20.9,8.1c-13.6,11.4-14.3,30.8-1.6,43.2c5.9,5.8,13.2,8.8,21.3,9.9
			c5.4,0.7,5.6,0.7,5.2,6c-0.7,10.6-0.6,21.2,1.1,31.7c1.9,12.1,5.6,23.6,11.8,34.2c12.6,21.4,31.6,34.1,55.5,39.7
			c12.4,2.9,25.1,3.4,37.8,2.8c8.5-0.4,16.9-1.5,25.2-3.8c22.2-6.2,39.7-18.6,51.5-38.7c7.9-13.4,11.8-28.1,13-43.5
			c0.6-7.3,0.4-14.6,0-21.8c-0.4-5.8-0.3-5.8,5.6-6.6c8.9-1.2,16.6-4.8,22.6-11.7c9.3-10.6,9.7-25.8,1-36.8
			c-4.6-5.8-10.5-9.4-17.6-11.5c-3.2-1-6.5-1.1-9.8-1.2c-2.7-0.1-3.5-0.8-4-3.2c-0.4-2-0.7-4.1-1-6.2c-0.7-7.1-1.3-14.2-2.1-21.2
			c-2.1-19.4-9.9-36.4-22-51.4c-6.7-8.3-15.1-14.2-25.6-17c-5.4-1.4-10.6-3.1-16-4.4C304.7-1109,292.1-1111.3,280-1110.8z"/>
		<path id="XMLID_59_" class="st4" d="M281-785.5c-20.7-0.3-42.5-7.8-61.2-23.9c-8.3-7.2-15.1-15.8-20.2-25.6
			c-0.5-1.1-1.4-2-1.2-3.4c0.1-0.3,0.3-0.7,0.6-0.8c0.2-0.1,0.7-0.1,1,0c1.2,0.6,1.5,1.8,2.1,2.9c3.2,6,6.9,11.6,11.4,16.7
			c13.7,15.5,30.9,25.1,51,29.3c25.3,5.2,49.3,1.1,71.6-12.1c13.6-8,24.4-18.8,32.4-32.4c0.5-0.9,1-1.8,1.6-2.7c0.5-0.7,1-1.6,2-0.9
			c0.8,0.6,0.6,1.6,0.2,2.4c-0.8,1.5-1.6,3.1-2.6,4.5c-11.2,17.8-26.7,30.4-46,38.3C311.5-788,298.2-785.4,281-785.5z"/>
		<path id="XMLID_58_" class="st4" d="M419-676.9c0.4,0.1,0.9,0.1,1,0.3c0.4,0.7,0.8,1.5,1,2.3c2,10.6,5.3,20.8,8.2,31.1
			c0.1,0.5,0.3,1,0.3,1.5c0,0.3-0.3,0.6-0.6,0.7c-0.3,0.1-0.7,0.1-1-0.1c-0.9-0.4-1.2-1.2-1.4-2.1c-2.6-9.1-5.7-18.1-7.4-27.5
			c-0.3-1.7-1.2-3.3-0.9-5.1C418.4-676.1,418.7-676.5,419-676.9z"/>
		<path id="XMLID_57_" class="st4" d="M126-646.8c0.2-0.9,0.4-2.3,0.8-3.6c2-7,3.9-14,5.1-21.2c0.1-0.7,0.3-1.4,0.7-2
			c0.2-0.4,0.7-0.8,1.3-0.4c0.3,0.2,0.6,0.4,0.7,0.7c0.1,0.5,0.2,1,0.1,1.5c-1.5,8.9-4.1,17.5-6.3,26.3c-0.1,0.6-0.6,1.4-1.5,0.9
			c-0.4-0.2-0.5-0.8-0.8-1.2C126-646,126-646.2,126-646.8z"/>
		<path id="XMLID_56_" class="st4" d="M278.2-801.9c-0.5,2.8-0.9,5.5-2,8c-0.1,0.3-0.8,0.4-1.3,0.5c-0.1,0-0.5-0.5-0.5-0.8
			c-0.3-2.8,0.9-5.4,1.4-8c0.1-0.6,0.6-1.2,1.5-1.1C278.1-803.3,278.1-802.6,278.2-801.9z"/>
		<path id="XMLID_55_" class="st4" d="M269.5-794c-0.8-0.2-1.2-0.6-1.1-1.1c0.5-3,1.4-6,2.7-8.7c0.2-0.4,0.6-0.8,1.2-0.6
			c0.5,0.1,1,0.5,0.9,1c-0.7,3-1.4,6-2.7,8.8C270.3-794.3,269.9-793.8,269.5-794z"/>
		<path id="XMLID_54_" class="st4" d="M307-804.6c0-1.2,0.3-1.6,0.8-1.8c0.6-0.3,1.1,0.1,1.3,0.5c1.1,2.7,2,5.5,1.9,8.4
			c0,0.5-0.3,1-0.9,1c-0.6,0-1-0.3-1.1-0.8C308.2-799.9,307.5-802.6,307-804.6z"/>
		<path id="XMLID_53_" class="st4" d="M340.9-809.4c-0.4,0.3-0.7,0.6-0.9,0.6c-0.5,0-1-0.2-1.4-0.5c-1.9-1.8-3.3-3.9-4.6-6.2
			c-0.2-0.4-0.3-1,0.3-1.4c0.5-0.3,0.9-0.3,1.4,0c0.3,0.2,0.5,0.4,0.7,0.7c1.4,1.8,2.7,3.5,4,5.3
			C340.7-810.4,340.8-809.9,340.9-809.4z"/>
		<path id="XMLID_52_" class="st4" d="M364.5-833.2c0,0.2,0,0.4-0.1,0.5c-0.3,0.4-0.8,0.7-1.3,0.5c-2.3-1.1-4.4-2.4-6.2-4.3
			c-0.1-0.1-0.2-0.3-0.2-0.5c0-0.3,0.1-0.6,0.2-0.9c0.2-0.4,0.5-0.5,0.8-0.3c2.4,1.2,4.7,2.6,6.6,4.6
			C364.5-833.5,364.5-833.3,364.5-833.2z"/>
		<path id="XMLID_51_" class="st4" d="M305.1-797.6c-0.4,0.5-0.6,1.2-0.9,1.3c-0.4,0.1-1.2-0.2-1.3-0.5c-0.8-2.6-1.7-5.1-1.6-7.9
			c0-0.5,0.4-0.9,0.9-1c0.6-0.1,1,0.3,1.2,0.8C304-802.5,304.5-800.1,305.1-797.6z"/>
		<path id="XMLID_50_" class="st4" d="M214.7-845.5c-0.2,0.3-0.3,0.7-0.6,0.8c-2.2,1-4.4,1.9-6.6,2.7c-0.3,0.1-0.9-0.3-1.3-0.6
			c-0.1-0.1,0-0.7,0.2-0.9c2-2,4.6-2.8,7.4-3C214.3-846.7,214.7-846.1,214.7-845.5z"/>
		<path id="XMLID_49_" class="st4" d="M367.2-836.9c-0.2,0.5-0.5,1-1.1,0.8c-2.5-0.7-4.8-1.9-6.9-3.4c-0.3-0.2-0.4-0.9-0.3-1.4
			c0.1-0.5,0.7-0.8,1.2-0.5c2.2,1,4.3,2.1,6.4,3.2C367-838,367.3-837.5,367.2-836.9z"/>
		<path id="XMLID_48_" class="st4" d="M240.3-815.4c-0.1,0.4,0,1-0.3,1.4c-1.2,1.7-2.4,3.3-3.7,4.8c-0.4,0.5-1.1,0.7-1.8,0.1
			c-0.5-0.4-0.4-0.9-0.1-1.4c1.4-1.9,2.8-3.8,4.3-5.7c0.2-0.2,0.7-0.3,0.9-0.2C239.9-816.1,240.1-815.7,240.3-815.4z"/>
		<path id="XMLID_47_" class="st4" d="M230.1-812.4c-0.2-0.3-0.5-0.6-0.5-0.8c1.1-3,3.4-5,5.8-6.8c0.2-0.1,0.7,0.1,0.9,0.3
			c0.2,0.2,0.5,0.7,0.4,0.8c-1.5,2.5-3.3,4.7-5.7,6.4C230.9-812.4,230.4-812.4,230.1-812.4z"/>
		<path id="XMLID_46_" class="st4" d="M343.2-813c-0.2,0.5-0.6,1-1.1,0.7c-2.2-1.4-3.8-3.3-4.7-5.7c-0.1-0.2,0.2-0.6,0.5-0.8
			c0.2-0.1,0.7-0.2,0.9-0.1c1.9,1.4,3.4,3.3,4.5,5.4C343.4-813.3,343.2-813.1,343.2-813z"/>
		<path id="XMLID_45_" class="st4" d="M214.8-842.4c0.4,0.3,1,0.5,1.1,0.9c0.1,0.4-0.3,0.9-0.6,1.3c-0.1,0.1-0.3,0.2-0.5,0.2
			c-1.8,0.3-3.4,2-5.3,0.6c-0.1-0.1-0.1-0.3-0.1-0.5C210.7-842,212.8-841.9,214.8-842.4z"/>
		<path id="XMLID_44_" class="st4" d="M330.2-1027c8.9,0.4,17.6,1.8,26,4.5c2.3,0.8,4.5,1.7,6.7,2.8c1.2,0.6,2.3,1.5,3.2,2.6
			c1.8,2,1.5,4.6-0.6,6.4c-1.2,1-2.7,1.7-4.2,1.9c-3.8,0.5-7.5,1.2-11.4,0.9c-7.8-0.7-15.5-1-23.1-2.9c-3.2-0.8-6.4-1.6-9.2-3.4
			c-1.2-0.7-2.4-1.5-3.3-2.5c-2-2.2-1.9-4.9,0.2-6.9c1.8-1.6,3.9-2.9,6.4-3.2C324-1027,327.1-1027.1,330.2-1027z"/>
		<path id="XMLID_43_" class="st4" d="M222.8-1010.7c-3.3,0-6.6,0.1-9.9,0c-2.6-0.1-5.1-0.8-7.4-2.3c-2.2-1.5-2.6-3.6-1.1-5.8
			c0.8-1.2,1.8-2.1,3-2.8c1.7-0.9,3.3-1.9,5.1-2.5c12.1-3.8,24.4-4.8,36.9-2.2c1.3,0.3,2.7,0.7,4,1.2c2,0.9,3.6,2.3,3.7,4.6
			c0.1,2.1-1.2,3.5-2.9,4.6c-1.8,1.1-3.7,1.8-5.8,2.3C240.1-1011.6,231.5-1010.8,222.8-1010.7z"/>
		<path id="XMLID_42_" class="st4" d="M286.3-930.6c5.3-0.2,11.2-2.7,16.1-7.6c2.2-2.2,3.3-4.8,3.5-7.9c0.2-4.7-1-8.9-3.3-12.9
			c-1.6-2.7-3.4-5.2-5.6-7.5c-0.6-0.6-1.1-1.3-1.5-2.1c-0.1-0.2,0.1-0.7,0.3-0.9c0.2-0.2,0.7-0.4,0.9-0.4c0.6,0.3,1.3,0.6,1.7,1.1
			c5.7,5.5,9.4,12.1,10.3,19.9c0.5,4.3-0.6,8.3-3.6,11.6c-6,6.6-13.5,9.6-22.3,9.3c-11.5-0.5-19.6-9.6-19.3-21.6
			c0.2-7.4,3.2-13.8,7.3-19.7c0.3-0.4,0.8-0.7,1.2-0.9c0.2-0.1,0.7,0.1,0.9,0.3c0.2,0.2,0.5,0.6,0.4,0.9c-0.4,0.9-0.8,1.9-1.4,2.7
			c-2.2,3.6-3.9,7.4-5,11.4c-1,3.4-1.1,6.9-0.3,10.3C268.6-935.7,275.6-930.4,286.3-930.6z"/>
		<path id="XMLID_41_" class="st4" d="M266.7-1041.8c16.1,1,32.1,2,48,4.8c0.8,0.1,1.8,0,2.4,0.8c0.2,0.2,0.4,0.6,0.3,0.9
			c0,0.3-0.3,0.7-0.6,0.7c-1.7,0.4-3.4,0.1-5.2-0.2c-6.2-0.8-12.3-1.7-18.5-2.5c-0.7-0.1-1.4-0.3-2.1-0.3
			c-12.3-0.3-24.5-2.1-36.8-1.3c-0.2,0-0.3,0-0.5,0c-1,0-2.1,0.2-2.7-0.9c-0.4-0.8,0.7-1.5,2.7-1.6
			C258.1-1041.5,262.4-1041.6,266.7-1041.8z"/>
		<path id="XMLID_40_" class="st4" d="M286.8-888.3c-5.9-0.2-11.7-0.5-17.6-1.4c-1.9-0.3-3.7-0.7-5.6-1.1c-0.7-0.2-1.4-0.6-1.3-1.4
			c0.2-1.2,1.2-1,2-1c0.7,0,1.4,0.2,2.1,0.3c6.8,1.2,13.7,1.8,20.6,2c11.4,0.2,22.3-1.8,32.8-6.6c2.5-1.2,4-1.2,4.1-0.3
			c0,1.8-1.7,2.1-2.8,2.6C310.2-890,298.7-888.1,286.8-888.3z"/>
		<path id="XMLID_39_" class="st4" d="M182.7-989.8c0.8,0.1,1.4,0.4,1.4,1.2c0,0.4-0.3,1.1-0.6,1.3c-1.3,0.5-2.6,0.8-3.9,1.4
			c-4.8,2-7.9,5.5-9.4,10.5c-1.6,5.5-0.1,10.3,4.1,14.1c0.8,0.7,1.7,1.2,2.5,1.9c0.6,0.5,0.8,1.1,0.3,1.8c-0.5,0.6-1.2,0.6-1.9,0.3
			c-4.6-2.4-7.4-6.3-8.1-11.4c-1.5-10.5,5.7-19,15.2-21C182.3-989.8,182.5-989.7,182.7-989.8z"/>
		<path id="XMLID_38_" class="st4" d="M409.2-973.7c0,8-2.3,12.4-6.9,15.6c-0.7,0.5-1.5,0.7-2.4,1c-0.2,0.1-0.7-0.2-0.9-0.4
			c-0.4-0.4-0.4-1-0.1-1.4c0.5-0.5,1-1,1.6-1.3c8.5-5.7,7.6-17.8-0.8-23.8c-1.4-1-3-1.6-4.6-2.4c-0.6-0.3-1.3-0.3-2-0.5
			c-1-0.3-1.5-1.3-1.1-2c0.4-0.7,1.1-0.9,1.8-0.7C402.7-988.2,409.2-980.3,409.2-973.7z"/>
		<path id="XMLID_37_" class="st4" d="M274.9-1052c7.7,0.2,15.2,1.4,22.7,2.7c1.5,0.3,3.1,0.6,4.6,1c0.7,0.2,1.4,0.5,1.4,1.3
			c0,0.9-0.8,1-1.5,1c-1,0-2.1-0.1-3.1-0.3c-10.6-2.2-21.2-3.5-32-2.9c-0.9,0-1.7,0-2.6-0.1c-0.4-0.1-0.9-0.5-1-0.9
			c-0.2-0.9,0.5-1.2,1.2-1.3C267.9-1051.8,271.4-1051.9,274.9-1052z"/>
		<path id="XMLID_36_" class="st4" d="M229-899.2c-0.7-0.1-1.2-0.3-1.3-0.9c-0.1-0.6,0.3-1,0.7-1.2c0.9-0.5,1.9-0.8,2.9-1.1
			c7.5-2.3,12.7-7.5,16.8-14c0.7-1.2,1.4-2.4,2.2-3.5c0.3-0.4,0.8-0.7,1.4-0.4c0.5,0.2,0.7,0.7,0.7,1.3c0,0.2,0,0.4-0.1,0.5
			c-4.6,9.5-11.4,16.5-21.9,19.3C229.9-899.2,229.4-899.2,229-899.2z"/>
		<path id="XMLID_35_" class="st4" d="M279.6-1063c5.2,0.4,9.8,0.7,14.5,1.1c0.7,0.1,1.4,0.2,2,0.5c0.6,0.3,1.3,0.6,1.2,1.5
			c-0.2,0.8-0.9,1.1-1.5,1c-4.4-1-9-0.6-13.4-1c-3-0.3-5.9,0.1-8.8,0.1c-0.9,0-1.7-0.1-2.6-0.2c-0.2,0-0.5-0.5-0.6-0.8
			c-0.3-0.6,0.1-1,0.6-1.2c0.6-0.2,1.3-0.4,2-0.5C275.2-1062.6,277.6-1062.8,279.6-1063z"/>
		<path id="XMLID_34_" class="st4" d="M326.4-924.3c0.3,0.1,0.8,0.1,0.9,0.3c0.5,0.9,1,1.8,1.3,2.8c2.6,6.5,6.8,11.5,12.8,15.2
			c1.4,0.9,3.2,1.5,4,3.2c0.1,0.3,0.1,0.7-0.1,1c-0.1,0.2-0.5,0.4-0.8,0.5c-0.1,0.1-0.4,0-0.5,0c-8.4-4.4-14.9-10.5-18.1-19.7
			c-0.3-0.8-0.5-1.7-0.2-2.5C325.8-924,326.2-924.1,326.4-924.3z"/>
		<path id="XMLID_33_" class="st4" d="M294-878.4c-1.6-0.1-3.3,0.4-4.9-0.6c-0.2-0.1-0.5-0.6-0.4-0.8c0-0.3,0.3-0.7,0.5-0.7
			c1.2-0.2,2.4-0.2,3.6-0.3c5.7-0.4,11.4-0.7,16.9-2.7c1.8-0.7,3.5-1.4,5.3-2.1c0.6-0.2,1.3-0.2,2-0.2c0.3,0,0.7,0.3,0.8,0.6
			c0.1,0.3,0,0.8-0.3,0.9c-0.8,0.6-1.7,1.2-2.6,1.6C308.2-879.8,301.3-878.6,294-878.4z"/>
	</g>
	<g id="XMLID_29_">
		<ellipse id="XMLID_31_" class="st2" cx="360.4" cy="-948.9" rx="20.1" ry="14.6"/>
		<ellipse id="XMLID_30_" class="st2" cx="218.8" cy="-948.9" rx="20.1" ry="14.6"/>
	</g>
</g>
<g id="XMLID_304_">
	<path id="XMLID_154_" class="st5" d="M1025.4-69.9c-2.4,0.9-4.8,1.9-7.3,2.8c-1.2,0.5-1.9-0.4-2.5-1.3c-0.6-0.9-0.3-1.7,0.5-2.3
		c3-2.1,6-4.1,9-6.2c0.3-0.2,0.7-0.2,1-0.3c0.3,0.2,0.6,0.3,0.8,0.6c0.2,0.3,0.4,0.6,0.5,0.9C1029-71.8,1029.5-71.4,1025.4-69.9z"/>
	<path id="XMLID_155_" class="st5" d="M1028.2-56.2c-1.5,5.6-4.3,10.6-8.1,15c-1.9,2.3-1.9,2.2-4.7,1.1c-1.4-0.6-2.9-1.2-4.4-1.5
		c-1.5-0.3-3.1-0.3-4.5,0.6c-0.6,0.4-1.2,1-1,1.7c0.2,0.7,1,1,1.7,0.7c2.3-1,4.4-0.3,6.5,0.5c1.5,0.6,1.6,1.5,0.2,2.6
		c-3.6,2.8-7.7,4.7-12.2,5.6c-2,0.4-3,1.1-3.2,3.2c-0.5,4.8-1.8,9.5-3.2,14.2c-5.8,20.1-14.8,38.5-28.5,54.5
		c-11.3,13.1-24.7,23.3-41.3,28.9c-6.1,2.1-12.4,3.1-18.8,4.1c-4.8,0.7-9.7,1.3-14.5,0.7c-9.9-1.2-19.3-4-28.2-8.6
		c-12.7-6.6-23.2-15.8-32.1-26.9c-11.3-13.9-19.2-29.7-24.7-46.7c-2-6.3-3.7-12.6-4.7-19.2c-0.3-1.9-1.2-2.9-3.3-3.3
		c-4.1-0.7-7.9-2.5-11.4-4.9c-2-1.5-2.1-2.5,0.1-3.9c1.3-0.8,2.8-1.4,4.2-2.1c0.6-0.3,1.3-0.5,1.9-0.9c0.4-0.3,0.7-0.8,0.3-1.4
		c-0.2-0.3-0.5-0.6-0.8-0.6c-0.7-0.1-1.4,0-2,0.1c-2.4,0.7-4.5,1.8-6.4,3.3c-2,1.5-2.1,1.5-3.7-0.4c-4.7-5.3-8-11.4-9.3-18.4
		c-1.1-5.7-1.1-11.4,1.4-16.9c3.5-7.7,9.3-11.9,17.9-11.9c2.6,0,5.2,0.1,7.7,1.1c0.8,0.3,1.6,0.5,2.5,0.8c0.7,0.2,1.5,0,1.8-0.6
		c0.1-0.3,0.2-0.5,0.1-0.8c0.8-0.1,1.2-0.8,1.3-2.3c0.4-3.8,1.5-7.5,2.9-11c3.3-8.2,8.3-15.2,14.3-21.5c5.4-5.7,11.6-10.5,17.8-15.2
		c6.2-4.8,12-10,17.4-15.7c7.3-7.8,13.6-16.2,16.8-26.6c0.1-0.4,0.5-1,0.9-1.1c0.3-0.1,0.9,0.4,1.1,0.7c2.7,3.9,6,7.2,9.5,10.3
		c8.2,7.4,17.6,12.9,27.6,17.5c10.2,4.8,20.9,8.6,31.4,12.5c5.7,2.1,11.3,4.4,16.7,7.2c8.7,4.6,16.5,10.2,23.1,17.6
		c6.1,6.9,10.8,14.5,12.5,23.6c0.1,0.7,0.3,1.4,0.6,2c0.1,0.2,0.2,0.4,0.4,0.6c-0.3,0.4-0.3,0.8-0.1,1.2c0.8,1.1,1.9,0.6,2.8,0.2
		c3.6-1.4,7.4-1.7,11.3-1.4c4.9,0.4,8.9,2.5,12.2,6.2c0.7,0.7,0.7,1.6-0.2,2.2c-3.1,2.2-6.3,4.4-9.4,6.6c-1.2,0.8-2.2,0.5-3.4-0.1
		c-3.2-1.8-6.4-0.8-9.6-0.2c-0.5,0.1-0.8,0.6-0.8,1.2c0,0.6,0.4,0.9,1,0.9c2.1,0,4.2-0.1,6.2-0.1c0.9,0,2,0.2,2,1.2
		c0.1,2,1,2.7,2.9,2.7c0.7,0,1.1,0.8,0.7,1.6c-0.3,0.4-0.8,0.7-1,1.1c-0.5,0.9-0.5,1.9,0.6,2c1.7,0,2.1,0.8,2,2.3
		c-0.2,2.5-1.3,4.6-2.7,6.6c-0.9,1.3-1.9,2.5-2.7,3.8c-0.3,0.4-0.3,1,0.3,1.3c0.5,0.3,1,0.4,1.4,0c3.1-2.9,6.1-6.2,6-10.6
		c-0.1-4.4,1.8-6.2,5.6-7.2c1.5-0.4,2.9-1.2,4.4-1.7s2.2,0.1,2.3,1.8C1029.8-62.6,1029.1-59.4,1028.2-56.2z"/>
	<path id="XMLID_471_" class="st4" d="M1035.6-72.7c-4.1,0.1-7.3-5.5-4.8-8.9c-5.8-2.3-10.6-7.1-16.6-8.8c-6-1.7-12.8,0.1-17.2,4.4
		c9.1-1.9,20-3.2,26.3,3.6c0.4,0.4,0.8,1,0.8,1.6c0,0.5-0.3,1-0.6,1.4c-3.7,5-10.4,7.5-16.5,6.3c-2.5-0.5-6.3-0.5-6.1,2
		c4.5-0.9,9.4,1,12.1,4.7c0.6,1.2,0.2,2.7-0.8,3.4c3,0.2,3.3,4.7,1.7,7.2c-1.6,2.5-4.2,4.8-4,7.8c3.5-1.4,6.2-4.7,7-8.4
		c0.4-2,0.3-4.1,1.2-5.9c1.6-3.3,5.7-4.5,9.3-5.2c0.6-0.1,1.2-0.2,1.7,0.1c0.7,0.4,0.8,1.4,0.7,2.2c-0.4,8.1-3.3,16.1-8.2,22.6
		c-0.8,1.1-1.7,2.2-3,2.6c-2.4,0.8-4.8-0.8-7.2-1.6c-2.4-0.7-6,0.5-5.4,3c3.1-1,6.7-0.4,9.3,1.5c-2.8,3.3-6.7,5.6-10.9,6.5
		c-1.7,0.3-3.5,0.6-4.7,1.8c-0.9,1-1.1,2.3-1.4,3.6C991,14.8,965.7,57.3,925.5,71c-6.1,2.1-12.4,3.1-18.8,4.1
		c-4.8,0.7-9.7,1.3-14.5,0.7C847,70.3,812.8,26.5,805-16.1c-0.9-4.9-2-10.7-6.4-13.1c-2.6-1.4-5.7-1.3-8.3-2.6
		c-2.6-1.3-4.3-5.3-1.8-7c1-0.7,2.3-0.6,3.5-0.9s2.5-1.3,2.1-2.5c-2.8-0.4-5.6,0.4-7.8,2.1c-1.1,0.9-2.4,2.1-3.8,1.7
		c-0.8-0.2-1.4-0.9-1.9-1.6c-5.1-7.1-9.2-15.2-9.3-23.9c-0.2-8.7,4.4-17.9,12.4-21.2c6.2-2.6,13.3-1.3,19.9,0
		c-6.4-5.8-16.8-5.9-24-1.1c-7.2,4.7-11.2,13.5-11.2,22.1c0,8.6,3.6,17,8.8,23.8c1.4,1.8,3,3.7,3.3,6c0.2,1.8-0.4,3.6-0.7,5.4
		c-1.5,8.7,7.1,17.6,15.9,16.4c2.1-0.3,4.5-0.9,6,0.5c0.7,0.7,1.1,1.6,1.4,2.5c5.7,16.7,12.6,33.1,22.7,47.5
		c13.1,18.7,35.4,37.3,58.8,40.3c15.2,1.9,30.9-1.1,44.9-7c28.8-12.1,50.3-36,62.3-64.7c0.9-2.2,8.6-19.8,7-21.1
		c5.5,4.5,14.1,4.4,19.5-0.1s7.1-13,3.7-19.2c-0.6-1.1-1.4-2.3-1.2-3.5c0.1-1.2,1.1-2.1,1.9-3c4.3-4.4,7.2-10.2,8.3-16.2
		c1-5.7,0.7-12.2,4.8-16.3C1035.8-72.7,1035.7-72.7,1035.6-72.7z M1025.4-69.9c-2.4,0.9-4.8,1.9-7.3,2.8c-1.2,0.5-1.9-0.4-2.5-1.3
		c-0.6-0.9-0.3-1.7,0.5-2.3c3-2.1,6-4.1,9-6.2c0.3-0.2,0.7-0.2,1-0.3c0.3,0.2,0.6,0.3,0.8,0.6c0.2,0.3,0.4,0.6,0.5,0.9
		C1029-71.8,1029.5-71.4,1025.4-69.9z M799.1-15.7c-1.5,0.5-3,1-4,0.8c-0.3,0-0.7,0-1,0c-2.5-0.2-4.8-1-6.6-2.2
		c-4.5-3-6.6-8.6-4.6-13.9c0.5-1.3,1.3-1.7,2.4-0.9c1.5,1.1,3.1,2,4.8,2.9h0c0.1,0.1,0.3,0.2,0.4,0.2c2.4,1.2,4.9,2.2,7.5,2.8
		c0.9,0.2,1.4,0.9,1.6,1.8c0.4,2,0.8,4.1,1.2,6.1C800.9-16.8,800.2-16.1,799.1-15.7z M1008.5-13.6c-2.3,0-4.5-0.4-6.2-2
		c-1.6-1.5-2.9-3-1.8-5.4c0.3-0.6,0.3-1.3,0.3-2c0.1-2.6,1.5-4,4-4.6c4.1-1,7.6-3.1,11.1-5.6c2-1.4,2.2-1.2,3.6,0.9
		C1025.1-23.6,1017.3-13.5,1008.5-13.6z"/>
	<path id="XMLID_463_" class="st4" d="M795.7-70.9c-7.3-1.6-12,7.1-9.9,13.2c0.7,2,1.8,3.7,3.1,5.4c0.7,1,1.4,2,2,3
		c0.1,0.2-0.1,0.7-0.3,0.9c-0.2,0.2-0.6,0.4-0.9,0.4c-0.3,0-0.7-0.2-0.9-0.4c-3.8-3.8-6.5-8.1-6.1-13.8c0.3-4.3,2.4-7.5,5.8-10
		c1.9-1.3,4-2,6.4-1.4c1.5,0.4,3.2-0.1,4.5,1c0.2,0.2,0.4,0.6,0.3,0.9c0,0.3-0.3,0.8-0.5,0.8C798.1-70.9,796.9-70.9,795.7-70.9z"/>
	<path id="XMLID_462_" class="st4" d="M781.7-81.2c1.2,0,2.3,1.1,2.4,2.3c0.1,1.5-1.3,2.8-3.1,2.8c-1.1,0-2.3-1.3-2.1-2.5
		C779.1-80,780.4-81.3,781.7-81.2z"/>
	<path id="XMLID_461_" class="st4" d="M779.5-72.5c0.1,1.4-1,2.7-2.4,2.9c-1.2,0.2-2.4-0.7-2.6-2c-0.2-1.6,1-3.2,2.6-3.2
		C778.2-74.8,779.4-73.6,779.5-72.5z"/>
	<circle id="XMLID_458_" class="st2" cx="972.7" cy="-32.6" r="20.1"/>
	<circle id="XMLID_457_" class="st2" cx="837.4" cy="-32.6" r="20.1"/>
</g>
<path id="XMLID_143_" class="st4" d="M-790.8-1009.9"/>
<g id="XMLID_244_">
	<circle id="XMLID_258_" class="st6" cx="2001.4" cy="-1612.5" r="21.2"/>
	<circle id="XMLID_257_" class="st6" cx="1858.7" cy="-1612.5" r="21.2"/>
</g>
<path id="XMLID_236_" class="st7" d="M1249.1-1614c-1.2,1.3-1.4,3-1.8,4.6c-0.9,3.2-1.8,6.3-2.8,9.4c-4.9,15.3-15,26-29.1,33.2
	c-3.2,1.7-6.6,3.1-10,4.3c-17,6.2-34.6-2.9-41.5-13c-3.2-4.7-6-9.6-8.4-14.7c-1.8-4-2.4-8.4-3-12.7c-0.8-5.4-0.9-10.9-0.7-16.4
	c0.1-1.9,0.8-2.6,2.6-2.9c1.1-0.1,2.2-0.1,3.3-0.1c34.1,0.1,68.2,0.2,102.3,0.4c7.7,0,15.3,0.1,23,0.2c18.1,0.1,36.1,0.2,54.2,0.3
	c5.5,0,5.9,0.5,5,6.1c-0.6,3.6-1.2,7.2-2,10.7c-2.4,10.1-7.1,19.2-13.8,27c-8.3,9.7-19.2,13.6-31.8,11.9
	c-10.8-1.4-19.3-7.2-26.6-14.9c-7.6-8.1-12.5-17.9-16.4-28.2C1251-1610.5,1250.8-1612.6,1249.1-1614z M1247.1-1618.2
	c-1.4-0.8-2.7-0.6-4-0.6c-19.9-0.1-39.7-0.3-59.6-0.4c-4.6,0-9.1-0.2-13.7-0.3c-4-0.1-8-0.1-12,0c-2.6,0.1-3.3,0.7-3.3,3.3
	c0,4.2,0.5,8.3,0.8,12.5c0.8,11.5,5.8,21.2,13.3,29.3c8.8,9.6,20.2,13.5,33.2,10.1c9.4-2.5,18-7.1,25.2-13.7
	c5.4-5,9.9-10.6,12.9-17.5C1243.2-1602.8,1244.6-1610.7,1247.1-1618.2z M1295.8-1618.5c0-0.1,0-0.2,0-0.3c-12.8,0-25.5,0-38.3,0
	c-1.5,0-2.9,0-4.4,0.1c-0.8,0.1-1.3,0.6-1.2,1.5c0.2,1.1,0.5,2.1,0.8,3.2c2,5.9,4.4,11.6,7.1,17.1c3.7,7.4,8.8,13.9,15.1,19.2
	c6.1,5.1,12.9,8.7,21.1,9.5c11.7,1.2,21.3-2.6,28.7-11.4c8.3-9.9,13-21.4,14.6-34.2c0.1-0.9,0.2-1.8,0.2-2.7c0-1-0.6-1.7-1.6-1.8
	c-1.1-0.1-2.2-0.1-3.3-0.1C1321.7-1618.5,1308.7-1618.5,1295.8-1618.5z"/>
<path id="XMLID_232_" class="st7" d="M1988.9-1683.2c-5.6-0.6-10.9-2.6-15.2-6.9c-0.5-0.5-1-1.1-1.4-1.7c-1.4-2.3-0.5-4.8,2.2-5.6
	c0.9-0.3,1.8-0.4,2.7-0.4c5.4,0.2,10.4,1.6,14.9,4.6c1,0.7,2,1.7,2.7,2.7c2.2,3.2,0.6,6.7-3.3,7.2
	C1990.7-1683.2,1990-1683.2,1988.9-1683.2z"/>
<path id="XMLID_231_" class="st7" d="M1863.2-1683.1c-1.1-0.2-2.2-0.2-3.2-0.5c-2.7-0.9-3.7-3.7-2.4-6.2c0.9-1.7,2.2-2.9,3.8-3.9
	c4.2-2.4,8.7-3.7,13.5-4.1c0.5,0,1.1,0,1.6,0c1.9,0.1,3.7,0.7,4.5,2.6c0.8,2-0.3,3.5-1.6,4.9
	C1874.9-1685.8,1869.4-1683.7,1863.2-1683.1z"/>
<path id="XMLID_227_" class="st7" d="M1928.1-1556.4c-4.3,0.3-8-0.5-11.8-1.2c-4.8-0.9-8.8-3.5-12.4-6.6c-0.5-0.4-0.9-1.1-1.2-1.8
	c-0.1-0.2,0.1-0.7,0.3-1c0.2-0.2,0.7-0.4,0.9-0.3c0.6,0.3,1.3,0.7,1.8,1.1c5,4.4,10.9,6.3,17.5,6.7c5.5,0.3,10.9,0.1,16.3-1
	c7.6-1.6,13.9-5.3,19-11.1c1.1-1.2,1.9-2.7,3.5-3.4c0.5-0.2,1.1-0.1,1.4,0.4c0.2,0.3,0.2,0.7,0.2,1c0,0.2-0.1,0.3-0.2,0.5
	c-6.3,8-14.1,13.7-24.3,15.4C1935.4-1556.8,1931.6-1555.9,1928.1-1556.4z"/>
<path id="XMLID_226_" class="st7" d="M1928.1-1596.8c-1.8,0-3.6,0.1-5.5,0c-0.7,0-1.3-0.4-1.9-0.8c-0.2-0.1-0.3-0.6-0.3-1
	c-0.1-0.7,0.4-1.1,0.9-1.1c4.6,0.5,9.1,0.5,13.6-0.4c0.7-0.1,1.5-0.2,2.2-0.3c4-1,5-2.2,4.9-6.6c0-3.7-0.7-7.3-1.5-10.8
	c-2.1-9.4-4.3-18.8-6.5-28.2c-0.2-0.7-0.2-1.4-0.2-2.1c0-0.3,0.4-0.6,0.7-0.7c0.3-0.1,0.7,0,1,0.2c0.8,0.8,1.2,1.8,1.4,2.9
	c2.4,10.8,4.9,21.7,7.2,32.5c0.5,2.5,0.6,5.1,0.6,7.6c0,4-1.4,6.1-5.3,7.3c-2.6,0.8-5.3,1.4-8,1.4
	C1930.2-1596.8,1929.1-1596.8,1928.1-1596.8C1928.1-1596.8,1928.1-1596.8,1928.1-1596.8z"/>
<path id="XMLID_223_" class="st7" d="M1816.9-1642.7c-8.3-1.9-13.2,8-10.3,14.6c1,2.2,2.4,4.1,3.8,6c0.3,0.4,0.7,0.8,1,1.3
	c0.4,0.7,0.6,1.4-0.2,1.9c-0.4,0.2-1.2,0.2-1.5-0.1c-4.8-4.5-7.6-9.8-6.3-16.5c1.2-6.7,7-10.8,13.9-9.8c0.9,0.1,1.8,0.2,2.7,0.4
	c0.6,0.1,0.9,0.6,1,1.1c0.1,1-0.7,1.2-1.4,1.2C1818.7-1642.6,1817.7-1642.7,1816.9-1642.7z"/>
<path id="XMLID_222_" class="st7" d="M2035.3-1642.6c-0.4,0-1.3,0-2.2,0c-0.6,0-1.1-0.3-1.2-0.8c0-0.4,0.3-1.3,0.6-1.3
	c3-0.7,6-1.7,9.1-0.4c4.2,1.8,6.8,4.9,7.8,9.2c0.9,4,0.5,8-1.9,11.5c-1.3,2-2.6,4-4.5,5.4c-0.5,0.4-1,0.2-1.5-0.1
	c-0.6-0.4-0.5-1-0.2-1.4c1.3-2,2.8-3.8,4-5.8c2.7-4.6,2.2-9.5-0.8-13.3C2042.2-1642.5,2039.3-1643.3,2035.3-1642.6z"/>
<path id="XMLID_221_" class="st7" d="M1930-1541.6c-2,0.1-4,0.7-6,0c-0.4-0.2-1-0.7-1-1.1c0-0.4,0.5-1.1,0.9-1.2
	c1.2-0.2,2.5-0.3,3.8-0.4c2.4-0.1,4.7-0.1,7.1-0.3c5.5-0.6,10.7-2.1,15.1-5.7c0.5-0.4,1-0.3,1.5,0c0.8,0.6,0.5,1.3,0,1.9
	c-2.6,2.7-6,4.1-9.5,5.2C1938-1542,1934-1541.8,1930-1541.6z"/>
<path id="XMLID_216_" class="st7" d="M1876.8-1637.2c-6.1,0.2-11.3-0.7-16.4-2.2c-2.6-0.8-5.1-2-7.3-3.6c-5.2-3.8-6.8-9.5-4.3-15.5
	c2-4.9,5.4-8.1,10.4-9.7c5.3-1.7,10.7-2.2,16.2-1.8c5.3,0.4,10.5,1.4,15.5,3.3c3.3,1.3,6.2,3.1,8.8,5.4c5.7,5,4.6,14.2-0.8,18.2
	c-3.4,2.6-7.3,4.1-11.4,5C1883.8-1637.4,1879.9-1637.2,1876.8-1637.2z M1900.7-1652.9c0-3-1-5.1-3.9-7.4c-4.5-3.6-9.9-5.2-15.5-6.2
	c-0.9-0.2-1.3,0.6-0.8,1.9c2.2,5.9,3.2,11.8,1.9,18.1c-0.4,1.8-1.2,3.4-1.9,5.1c-0.2,0.5,0.2,1.2,0.7,1.1c5.7-0.4,11.1-1.6,15.8-5.1
	C1899.5-1647.2,1900.7-1649.7,1900.7-1652.9z"/>
<path id="XMLID_123_" class="st7" d="M1976.3-1637.3c-5.1,0.1-10.2-0.3-15.1-2c-2.4-0.8-4.7-2-6.8-3.4c-6.1-4.2-7.3-13.7-1.1-18.9
	c2.7-2.3,5.6-4.1,8.9-5.2c9.1-3.2,18.4-4.3,28-2.3c5.8,1.2,10.6,3.8,13.3,9.4c2.8,5.8,2.2,12.9-4.6,17.2c-5.1,3.3-10.7,4.4-16.5,5.1
	C1980.4-1637.1,1978.3-1637.3,1976.3-1637.3z M1985.7-1666.4c3.8,8.4,4,16.8-0.4,25.6c5.5-0.6,10-2.1,13.8-5.5
	c3.1-2.8,4-6.4,2.5-10.4C1999.3-1663.3,1993.4-1666.9,1985.7-1666.4z"/>
<g id="XMLID_302_">
	<path id="XMLID_126_" class="st8" d="M-355,30.1c-8.9-9.1-26.2-29.8-26-57c0.2-23,12.8-40.3,30-64c11.7-16.1,23.3-28,32-36
		c0.7,6,2.7,14.9,9,23c6.5,8.3,13.2,10.1,16,13C-286.5-83.3-294-55.4-355,30.1z"/>
	<path id="XMLID_27_" class="st8" d="M-405.7-123.9c-5.5,0.2-10.9,0.3-16.4,0.5c-3.4,0.1-3.7,0-4.8-3.1c-2.6-7.8-4.7-15.7-6.5-23.7
		c-1.2-5.3-2.2-10.7-3.4-16c-0.2-1.1-0.5-2.1-1-3.1c-0.2-0.4-0.9-0.6-1.4-0.6c-0.4,0-1,0.5-1.2,0.9c-0.8,1.3-0.6,2.8-0.6,4.3
		c-0.2,12.2,0,24.4,2.2,36.5c0.2,1.1,0.4,2.1,0.6,3.2c0.1,1.1-0.5,1.7-1.5,1.8c-0.2,0-0.4,0.1-0.5,0.1c-5.5,0.1-10.9,0.2-16.4,0.2
		c-1.9,0-2.6-0.6-2.9-2.6c-0.7-3.9-1.2-7.9-1.9-11.9c-0.2-1.3-0.4-2.5-0.6-3.8c-0.2-0.8-0.7-1.2-1.5-1.3c-0.8-0.1-1.5,0.3-1.8,1
		c-1,2.4-1.7,4.8-1.6,7.4c0,2.9,0.1,5.8,0.2,8.7c0.1,2-0.2,2.4-2,2.4c-4.4,0-8.8,0-13.1-0.4c-10.7-0.8-21.4-1.8-32.1-2.7
		c-0.5,0-1.1-0.1-1.6-0.1c-2.5-0.3-2.7-0.5-3.3-2.8c-0.3-1.1-0.5-2.1-0.6-3.2c-1.1-10.3-1.8-20.7-0.7-31.1c0.3-2.3,0.2-4.7,0.1-7.1
		c0-1-0.6-1.7-1.7-1.8c-0.8-0.1-1.5,0.4-1.8,1c-0.6,1.3-1.1,2.7-1.5,4.1c-3.4,11.1-4,22.6-3.4,34.1c0.1,1.1,0.2,2.2,0.2,3.3
		c0,2-0.6,2.5-2.7,2.2c-2.2-0.3-4.3-0.7-6.5-0.9c-1.1-0.1-1.7,0.6-1.8,1.6c-0.4,6-1.1,12,0.5,17.9c0.3,1.2,0.5,2.5,0.6,3.8
		c0.1,1.3-1.1,2.1-2.1,1.4c-2.1-1.5-4.4-1.6-6.8-1.8c-1.5-0.1-2.9,0-4.4-0.1c-3.7-0.2-6.1-1.8-7.1-5.6c-1.8-6.1-3.2-12.3-4-18.7
		c-6.8-50,20-98.9,65.7-123.4c22.2-11.9,46-17.5,71.1-16.3c36.5,1.8,68,15.4,93.1,42.3c16.5,17.7,26.7,38.6,30.6,62.4
		c3.2,19.8,1.2,39.2-5.5,58.1c-0.5,1.4-1.1,2.7-1.9,3.9c-0.4,0.6-1.5,0.8-1.8,0c-1.7-4.3-5.8-3.9-9.1-4.5c-3-0.5-6.2-0.3-9.2,0.9
		c-1.2,0.4-2.4,0.8-3.6,1.2c-2.2,0.6-2.6,0.4-2.8-1.8c-0.5-4.9-0.8-9.8-1.2-14.7c-0.1-1.3-0.1-2.5-0.2-3.8c-0.1-1.3-0.9-1.8-2.2-1.7
		c-3.6,0.2-7.3,0.4-10.9,0.7c-0.9,0.1-1.8,0.2-2.7,0.2c-1.2,0-2.1-0.5-2.7-1.6c-0.7-1.5-1.4-3-2-4.5c-4.6-12.3-9.1-24.6-12.2-37.4
		c-0.2-0.7-0.4-1.4-0.6-2.1c-0.3-1.1-0.6-2.2-2.1-1.9c-1.1,0.3-1.2,1.3-1.1,2.2c0.1,1.3,0.2,2.6,0.4,3.8c1.8,8,3.4,16,5.4,24
		c1.2,4.6,2.9,9,4.4,13.5c1.3,3.7,2.2,4.4-2.6,4.6c-0.9,0-1.8,0.3-2.7,0.4c-3.1,0.3-4-0.1-4.8-3.1c-1.4-5.5-2.5-11-3.8-16.5
		c-0.3-1.4-0.7-2.8-1.2-4.2c-0.1-0.4-0.9-0.7-1.3-0.7c-0.4,0-1,0.4-1.3,0.8c-0.7,1.1-0.5,2.5-0.5,3.7c-0.2,5.5,0.9,10.9,1.7,16.3
		c0.1,0.7,0.3,1.4,0.5,2.1c0.2,1-0.1,1.8-1.3,2c-2.5,0.3-5.1,0.7-7.6,0.7c-5.6,0.1-11.3,0-17,0C-405.7-124.1-405.7-124-405.7-123.9z
		"/>
	<path id="XMLID_26_" class="st8" d="M-286.3-18.2c9.1,2.7,16.6,7.5,22.8,14.1c6.3,6.7,10.4,14.5,11.7,23.6
		c2,14.8-3.7,26.6-15.5,35.1c-11.2,8.1-24.1,10.9-37.9,9.2c-13.9-1.7-25.6-7.8-35.6-17.5c-4.7-4.6-8.9-9.6-13-14.8
		c-0.8-1-1.4-2.1-2.2-3.1c-2.9-3.9-3.2-7.9-0.5-12.1c2.2-3.5,4-7.4,6.1-11c7.5-13.3,12.4-27.5,15.2-42.5c0.1-0.4,0.1-0.7,0.2-1.1
		c0.3-3.2,1.8-5.2,5.1-6.1c7.3-2.1,13.7-5.9,18.8-11.7c5-5.7,8.8-11.9,10.3-19.6c1.1-5.7,0.2-10.9-2-16c-0.9-2.2-2.1-4.3-3.2-6.3
		c-0.8-1.5-0.7-2.7,0.4-4c2.9-3.4,6.3-6.1,10.5-7.7c4.1-1.5,8.3-2.6,12.8-2.5c6,0.1,12,0.3,18,1.4c7.9,1.4,14.3,5.4,19,11.9
		c9.2,12.9,11.1,26.8,4.9,41.4c-5.4,12.8-14.5,22.6-26.4,29.8c-5,3-10.3,5.4-15.7,7.5C-283.8-19.7-285-19.5-286.3-18.2z"/>
	<path id="XMLID_25_" class="st7" d="M-318.5-147.1c0,1,0,1.4,0,1.7c-0.1,0.9,0,1.8-1,2.3c-0.7,0.4-1.5-0.4-1.7-2.2
		c-0.6-4.9-1-9.8-1.8-14.6c-1.9-11.5-4.2-22.9-8.9-33.7c-4.8-10.9-10.9-21-19-29.8c-2-2.2-4.1-4.1-6.4-5.9c-0.3-0.2-0.4-1.1-0.3-1.4
		c0.2-0.3,1-0.6,1.4-0.5c2,0.5,3.4,2.1,4.8,3.5c5.6,5.5,10.3,11.8,14.5,18.5c7.8,12.6,12.6,26.2,15.2,40.7c1.1,6.4,2,12.9,3,19.4
		C-318.5-148.3-318.5-147.4-318.5-147.1z"/>
	<path id="XMLID_24_" class="st7" d="M-316.9-37.6c-0.4-0.5-0.9-0.8-1.1-1.3c-0.1-0.2,0.1-0.8,0.3-0.9c0.8-0.5,1.5-0.9,2.4-1.3
		c17.7-6.9,31.9-18.9,44.7-32.6c7.2-7.7,13.9-15.9,19.3-25.1c0.1-0.2,0.2-0.3,0.3-0.5c0.5-0.8,1.1-1.5,2.1-1.4
		c0.7,0.1,0.7,1.8,0.1,2.9c-0.6,1.1-1.3,2.2-2,3.3c-12.5,18.6-27.6,34.8-46.5,47.2c-5.3,3.5-11,6.4-17,8.7
		C-315.2-38.1-316-37.9-316.9-37.6z"/>
	<path id="XMLID_23_" class="st7" d="M-339.2,0.8c-0.5-0.8-0.8-1.7-0.4-2.6c0.2-0.5,0.8-0.9,1.3-0.6c0.8,0.4,1.4,1.1,2.1,1.7
		c3.9,3.3,7.7,6.7,11.6,9.9c14.7,11.8,31.6,18.5,50,22c4.6,0.9,9.3,2,14.1,1.3c0.7-0.1,1.5,0,2.1,0.3c0.9,0.3,1.9,0.7,1.8,1.7
		c0,1.3-1.1,1.1-2,1.2c-7,0.4-13.7-1.2-20.5-2.6c-20.8-4.3-39-13.8-54.8-28c-1.7-1.6-3.2-3.5-5.5-4.5L-339.2,0.8z"/>
	<path id="XMLID_22_" class="st7" d="M-339.3,0.7c5.8,13.9,13.6,26.5,25.4,36.2c9.3,7.7,19.3,14.2,30.1,19.6
		c0.9,0.5,2.2,0.7,1.9,2.2c-0.2,1-1.6,1.2-3.2,0.4c-13.9-7.1-26.7-15.6-37.7-26.7c-8-8.1-13.4-18.1-18.2-28.3c-1-2-0.6-2.5,1.8-3.2
		L-339.3,0.7z"/>
	<path id="XMLID_21_" class="st7" d="M-311.7-33.9c-1.3-0.1-2.6-0.1-3.8-0.2c-0.7-0.1-1.5-0.4-1.4-1.3c0.1-0.9,0.9-1.1,1.6-1.1
		c5.7,0.1,11.2-0.9,16.8-2.1c7.9-1.7,15.5-4.1,22.8-7.5c10.8-5,21.1-10.8,30.1-18.7c0.4-0.4,0.9-0.7,1.3-0.9c0.3-0.1,0.7,0,1,0.2
		c0.6,0.3,0.6,1,0.3,1.4c-0.5,0.8-1,1.5-1.7,2.1c-1.7,1.4-3.4,2.8-5.1,4.1c-16.7,11.9-34.9,20.3-55.3,23.5
		C-307.4-34.2-309.5-34.1-311.7-33.9z"/>
	<path id="XMLID_20_" class="st7" d="M-335.9-146.6c0,0.3-0.1,1-0.3,1.7c-0.1,0.2-0.5,0.5-0.8,0.5c-0.3,0-0.8-0.2-0.9-0.4
		c-0.5-1.6-1-3.1-1.2-4.7c-1.2-9.2-3.5-18.2-5.8-27.2c-1.8-6.9-4.4-13.5-7.9-19.7c-2.4-4.3-5-8.5-9-11.5c-0.4-0.3-0.7-0.9-0.3-1.5
		c0.4-0.7,1.1-0.8,1.8-0.4c0.5,0.3,0.9,0.6,1.4,0.9c2.4,1.8,4.2,4,5.8,6.5c3.7,5.9,6.9,12,9,18.6c3.6,11.3,6.1,22.8,8.1,34.5
		C-336-148.5-336-147.7-335.9-146.6z"/>
	<path id="XMLID_19_" class="st7" d="M-432-192.6c0-0.8-0.1-1.2,0-1.5c0.1-0.7,0.3-1.6,1.1-1.7c1.2-0.2,1.5,0.9,1.6,1.7
		c0.5,3.6,0.5,7.2,1.3,10.8c2.2,10.7,4.6,21.4,7.4,31.9c1,3.7,2.4,7.3,4.1,10.7c0.3,0.5-0.1,1.1-0.6,1.3c-0.3,0.1-0.8,0-1-0.1
		c-1.9-1.4-2.7-3.4-3.3-5.5c-1.3-4.2-2.5-8.4-3.5-12.6c-2-8.3-3.9-16.7-5.6-25.1C-431.3-186.1-431.6-189.6-432-192.6z"/>
	<path id="XMLID_18_" class="st7" d="M-544.2-154.9c1.4-11.1,2.7-21.9,5.9-32.4c0.8-2.6,1.6-5.2,3.3-7.4c0.2-0.2,0.6-0.3,1-0.3
		c0.6,0.1,1,0.6,0.9,1.1c-0.1,0.7-0.3,1.4-0.6,2.1c-3.1,7.1-4.5,14.6-5.7,22.1c-1,6.3-2.3,12.5-2.1,18.9c0,0.4-0.5,1.2-0.8,1.2
		c-0.8,0.1-1.4-0.5-1.5-1.3C-544-152.2-544.1-153.6-544.2-154.9z"/>
	<path id="XMLID_17_" class="st7" d="M-356.3-178.7c0.3,0.2,0.9,0.4,1.1,0.8c0.5,1.1,1.1,2.3,1.3,3.6c1.3,5.7,2.5,11.4,3.7,17.1
		c0.1,0.5,0.1,1.1,0,1.6c-0.1,0.3-0.4,0.9-0.6,0.8c-0.5-0.1-1.2-0.2-1.4-0.6c-0.5-0.8-0.8-1.6-1-2.5c-1.3-6.4-2.5-12.9-4.4-19.1
		C-357.7-177.8-357.4-178.5-356.3-178.7z"/>
	<path id="XMLID_245_" class="st8" d="M-545-119.9c1.2,27.5,16.1,47.2,25,59c8.1,10.8,44.4,58.9,103,56c36.1-1.8,78.5-22.9,93-62
		c11.2-30.5,0.6-58.6-4-71c-14.4-38.2-58.9-101.1-124-92C-506.5-222.3-547.2-168.2-545-119.9z"/>
	<path id="XMLID_16_" class="st7" d="M-417.3-171.9c0.1-1.3,0.1-1.9,0.3-2.4c0.2-0.4,0.4-1.1,1.1-0.8c0.3,0.1,0.7,0.3,0.8,0.6
		c0.2,0.5,0.4,1,0.5,1.5c0.9,5.5,1.5,11.1,3.2,16.4c0.2,0.7,0.1,1.6-0.6,1.8c-0.7,0.2-1.3-0.3-1.7-1c-0.3-0.6-0.7-1.3-0.9-2
		C-415.5-162.8-416.5-167.7-417.3-171.9z"/>
</g>
<g id="XMLID_303_">
	<path id="XMLID_278_" class="st8" d="M540.1,330.3H-16.5c1.3-4.8,2.7-9.6,4.1-14.4c3.5-11.7,7.8-23.1,12.6-34.4
		c8.2-19.3,19.7-36.6,33.6-52.2c26.8-30.2,58.4-54.2,94.5-72.3c15.6-7.9,31.6-15,48.2-20.6c0.9-0.3,1.9-0.6,2.7-1
		c0.1,0,0.2-0.1,0.3-0.1c1.3-0.6,2.4-0.3,3.5,0.3c0.2,0.1,0.3,0.2,0.5,0.3c1.1,0.7,1.9,1.6,2.7,2.7c9.4,12.9,22.2,21.5,36.7,27.5
		c17.5,7.3,35.9,9.6,54.7,7.8c12.4-1.2,24.3-4.5,35.4-10.6c10.6-5.9,19.3-13.7,24.9-24.6c0.4-0.8,0.8-1.5,1.3-1.9
		c0.8-0.9,1.8-1.1,3.1-0.9c0.4,0.1,0.8,0.1,1.3,0.3c1.9,0.5,3.8,1.3,5.7,2c37.6,13.6,72.8,31.8,103.9,57.2
		c17,13.9,32.7,29.1,46.1,46.5c9.2,11.9,16.9,24.6,23.1,38.3C529.8,296.3,535.4,313.1,540.1,330.3z"/>
	<path id="XMLID_275_" class="st5" d="M339.2,136.7c-0.4,0.5-0.8,1.1-1.3,1.9c-5.6,11-14.3,18.8-24.9,24.6
		c-11,6.1-22.9,9.5-35.4,10.6c-18.8,1.8-37.1-0.5-54.7-7.8c-14.6-6-27.3-14.6-36.7-27.5c-0.8-1-1.6-1.9-2.7-2.7
		c-0.2-0.1-0.3-0.2-0.5-0.3c2.3-2.3,4.3-4.8,6.2-7.5c6.2-8.6,9.8-18.2,12-28.5c2.2-10.4,3.1-20.9,4.4-31.4c0.4-3,0.7-6,1.1-9.4
		c2.1,1,3.3,2.4,4.5,3.7c3.7,4.3,8.1,7.8,12.7,11.2c9.4,7,19.6,12.5,30.6,16.8c16.9,6.6,34.2,11.3,52.3,13c3.8,0.4,7.6,0.6,11.5,0.6
		c3.5,0,3.8,0.3,4.5,3.3c1.3,5.2,3.4,10,5.6,14.8C331.2,127.8,334.9,132.6,339.2,136.7z"/>
	<path id="XMLID_240_" class="st7" d="M188.6,74.4"/>
	<path id="XMLID_243_" class="st7" d="M349.4,141.1c-2.6-1.6-4.9-3.4-7-5.3c-6.9-6.2-11.7-14.1-14.9-23.1
		c-2.5-7.3-4.2-14.7-3.7-22.5c0.1-1.4,0.2-2.9,0.2-4.3c0.2-4.2,0.4-8.4,0.6-12.6c0.2-4.6,0.4-9.1,0.6-13.7c0.2-3.3,1.2-5.9,3.3-8.4
		c-0.9-0.4-1.9-0.8-2.9-1.2c-0.7,0.7-1.5,1.4-2.2,2.1H204.3c-0.9,0.5-1.9,1-2.8,1.5c1.8,1.8,2.5,3.7,2.2,6.1c0,0.5-0.1,1.1-0.1,1.6
		c-0.8,10.6-2.2,21-3.8,31.5c-1.2,7.6-3.1,15-6.2,22c-3.5,7.9-8.2,14.8-14.4,20.5c-0.4,0.3-0.7,0.7-1.1,1c-2.3,2-4.8,3.9-7.5,5.6
		c-2.5,1.6-5.2,2.5-7.9,3.7c-0.4,0.2-0.8,0.8-0.8,1.2c-0.1,1,0.8,1.2,1.5,1.1c2.8-0.3,5.2-1.6,7.6-2.9c4.3-2.6,8.2-5.6,11.7-9.1
		c0.1-0.1,0.3-0.3,0.4-0.4c2.3-2.3,4.3-4.8,6.2-7.4c6.2-8.6,9.8-18.2,12-28.5c1.3-6.3,2.2-12.6,2.9-19c0.5-4.1,0.9-8.3,1.5-12.4
		c0.4-3,0.7-6,1.1-9.4c2.1,1,3.3,2.4,4.5,3.7c3.7,4.3,8.1,7.8,12.7,11.2c6.3,4.6,12.9,8.6,19.8,12.1c3.5,1.7,7.1,3.3,10.8,4.7
		c9.6,3.7,19.3,6.9,29.2,9.2c7.6,1.8,15.3,3.1,23.1,3.8c3.8,0.4,7.6,0.6,11.5,0.6c3.5,0,3.8,0.3,4.5,3.3c1.3,5.1,3.4,10,5.6,14.8
		c2.7,5.6,6.3,10.3,10.7,14.4c2.6,2.5,5.5,4.7,8.5,6.8c1.9,1.3,3.6,1.4,3.8,0.5C351.7,142.4,350.4,141.8,349.4,141.1z"/>
</g>
<g id="XMLID_306_">
	<path id="XMLID_235_" class="st7" d="M2155.3-52.2c-1.8,0-3.6,0.1-5.5,0c-0.7,0-1.3-0.4-1.9-0.8c-0.2-0.1-0.3-0.6-0.3-1
		c-0.1-0.7,0.4-1.1,0.9-1.1c4.6,0.5,9.1,0.5,13.6-0.4c0.7-0.1,1.5-0.2,2.2-0.3c4-1,5-2.2,4.9-6.6c0-3.7-0.7-7.3-1.5-10.8
		c-2.1-9.4-4.3-18.8-6.5-28.2c-0.2-0.7-0.2-1.4-0.2-2.1c0-0.3,0.4-0.6,0.7-0.7c0.3-0.1,0.7,0,1,0.2c0.8,0.8,1.2,1.8,1.4,2.9
		c2.4,10.8,4.9,21.7,7.2,32.5c0.5,2.5,0.6,5.1,0.6,7.6c0,4-1.4,6.1-5.3,7.3c-2.6,0.8-5.3,1.4-8,1.4
		C2157.5-52.2,2156.4-52.2,2155.3-52.2C2155.3-52.2,2155.3-52.2,2155.3-52.2z"/>
</g>
<g id="XMLID_307_">
	<path id="XMLID_241_" class="st7" d="M2862.4,72.9c-4.3,0.3-8-0.5-11.8-1.2c-4.8-0.9-8.8-3.5-12.4-6.6c-0.5-0.4-0.9-1.1-1.2-1.8
		c-0.1-0.2,0.1-0.7,0.3-1c0.2-0.2,0.7-0.4,0.9-0.3c0.6,0.3,1.3,0.7,1.8,1.1c5,4.4,10.9,6.3,17.5,6.7c5.5,0.3,10.9,0.1,16.3-1
		c7.6-1.6,13.9-5.3,19-11.1c1.1-1.2,1.9-2.7,3.5-3.4c0.5-0.2,1.1-0.1,1.4,0.4c0.2,0.3,0.2,0.7,0.2,1c0,0.2-0.1,0.4-0.2,0.5
		c-6.3,8-14.1,13.7-24.3,15.4C2869.6,72.5,2865.8,73.5,2862.4,72.9z"/>
	<path id="XMLID_230_" class="st7" d="M2864.2,87.7c-2,0.1-4,0.7-6,0c-0.4-0.2-1-0.7-1-1.1c0-0.4,0.5-1.1,0.9-1.2
		c1.2-0.2,2.5-0.3,3.8-0.4c2.4-0.1,4.7-0.1,7.1-0.3c5.5-0.6,10.7-2.1,15.1-5.7c0.5-0.4,1-0.3,1.5,0c0.8,0.6,0.5,1.3,0,1.9
		c-2.6,2.7-6,4.1-9.5,5.2C2872.2,87.3,2868.2,87.6,2864.2,87.7z"/>
</g>
<g id="XMLID_305_">
	<path id="XMLID_246_" class="st7" d="M1587.7-133.9c-5.6-0.6-10.9-2.6-15.2-6.9c-0.5-0.5-1-1.1-1.4-1.7c-1.4-2.3-0.5-4.8,2.2-5.6
		c0.9-0.3,1.8-0.4,2.7-0.4c5.4,0.2,10.4,1.6,14.9,4.6c1,0.7,2,1.7,2.7,2.7c2.2,3.2,0.6,6.7-3.3,7.2
		C1589.6-133.9,1588.8-134,1587.7-133.9z"/>
	<path id="XMLID_242_" class="st7" d="M1462-133.9c-1.1-0.2-2.2-0.2-3.2-0.5c-2.7-0.9-3.7-3.7-2.4-6.2c0.9-1.7,2.2-2.9,3.8-3.9
		c4.2-2.4,8.7-3.7,13.5-4.1c0.5,0,1.1,0,1.6,0c1.9,0.1,3.7,0.7,4.5,2.6c0.8,2-0.3,3.5-1.6,4.9C1473.8-136.5,1468.3-134.4,1462-133.9
		z"/>
	<path id="XMLID_225_" class="st7" d="M1475.7-87.9c-6.1,0.2-11.3-0.7-16.4-2.2c-2.6-0.8-5.1-2-7.3-3.6c-5.2-3.8-6.8-9.5-4.3-15.5
		c2-4.9,5.4-8.1,10.4-9.7c5.3-1.7,10.7-2.2,16.2-1.8c5.3,0.4,10.5,1.4,15.5,3.3c3.3,1.3,6.2,3.1,8.8,5.4c5.7,5,4.6,14.2-0.8,18.2
		c-3.4,2.6-7.3,4.1-11.4,5C1482.6-88.1,1478.7-88,1475.7-87.9z M1499.5-103.6c0-3-1-5.1-3.9-7.4c-4.5-3.6-9.9-5.2-15.5-6.2
		c-0.9-0.2-1.3,0.6-0.8,1.9c2.2,5.9,3.2,11.8,1.9,18.1c-0.4,1.8-1.2,3.4-1.9,5.1c-0.2,0.5,0.2,1.2,0.7,1.1
		c5.7-0.4,11.1-1.6,15.8-5.1C1498.3-97.9,1499.6-100.5,1499.5-103.6z"/>
	<path id="XMLID_219_" class="st7" d="M1575.2-88.1c-5.1,0.1-10.2-0.3-15.1-2c-2.4-0.8-4.7-2-6.8-3.4c-6.1-4.2-7.3-13.7-1.1-18.9
		c2.7-2.3,5.6-4.1,8.9-5.2c9.1-3.2,18.4-4.3,28-2.3c5.8,1.2,10.6,3.8,13.3,9.4c2.8,5.8,2.2,12.9-4.6,17.2
		c-5.1,3.3-10.7,4.4-16.5,5.1C1579.2-87.8,1577.2-88.1,1575.2-88.1z M1584.5-117.1c3.8,8.4,4,16.8-0.4,25.6c5.5-0.6,10-2.1,13.8-5.5
		c3.1-2.8,4-6.4,2.5-10.4C1598.1-114,1592.3-117.6,1584.5-117.1z"/>
</g>
<rect id="XMLID_288_" x="838.9" y="-931.1" class="st0" width="510" height="80"/>
<rect id="XMLID_287_" x="836.2" y="-1025.6" class="st0" width="510" height="80"/>
<rect id="XMLID_286_" x="839.3" y="-1060.7" class="st0" width="510" height="80"/>
<rect id="XMLID_531_" x="835.2" y="-1207.4" class="st9" width="512" height="608"/>
<rect id="XMLID_530_" x="835" y="-1204.7" class="st10" width="514.8" height="416"/>
<rect id="XMLID_529_" x="836" y="-931.5" class="st11" width="512.7" height="336"/>
<rect id="XMLID_253_" x="836.4" y="-1138.7" class="st1" width="512" height="304"/>
<g id="XMLID_495_">
	<g id="XMLID_499_">
		<path id="XMLID_527_" class="st3" d="M1152.6-853.9c0.2-6.8,0.3-13.5,1.5-20.2c0.3-1.6,0.8-2.9,2.1-4c5.8-5.3,10.4-11.7,14.8-18.1
			c9.5-14,17.2-28.9,22.3-45.1c1.4-4.5,2.5-9,3.4-13.6c0.4-2.2,1.5-3.2,3.6-3.8c9.4-2.7,16.5-8.6,22.2-16.3c1-1.4,1.7-3,2.4-4.6
			c1.7-4.2,2.7-8.6,3.1-13.1c1.1-13.5-6.6-21.7-17.7-25.6c-2.7-1-5.5-0.7-8.2,0.2c-2,0.6-3.9,1.4-5.9,2c-1.2,0.4-2-0.2-2.6-1.2
			c-0.3-0.6-0.5-1.3-0.6-2c-1.8-9.1-6.5-16.7-12.5-23.6c-6.5-7.4-14.4-13-23.1-17.6c-5.4-2.9-11-5.1-16.7-7.2
			c-10.6-3.9-21.2-7.7-31.4-12.5c-10-4.6-19.4-10.2-27.6-17.5c-3.5-3.1-6.8-6.4-9.5-10.3c-0.2-0.4-0.9-0.8-1.1-0.7
			c-0.4,0.1-0.8,0.7-0.9,1.1c-3.2,10.4-9.5,18.8-16.8,26.6c-5.4,5.7-11.2,10.9-17.4,15.7c-6.2,4.8-12.3,9.6-17.8,15.2
			c-6.1,6.3-11.1,13.3-14.3,21.5c-1.4,3.6-2.5,7.2-2.9,11c-0.2,2.2-1,2.6-3.1,2c-3-0.9-6.1-1.5-9.2-1.3c-2.9,0.2-4.4-1.2-5.5-3.7
			c-3.6-8-6-16.3-7-24.9c-1.7-14.4-1.7-28.8,0-43.1c2.8-23.1,13-42.6,29.7-58.7c16-15.4,35.2-20,56.7-16.8c1,0.2,2.1,0.2,3.1,0.5
			c1.7,0.5,3,0,4.5-0.8c12.2-6.7,25.5-9.8,39.2-11.8c14.2-2,28.3-1.6,42.4,1.9c14.7,3.7,28.9,8.8,42.3,15.8
			c12.3,6.5,22.7,15.4,31.2,26.3c10.6,13.6,19.8,28.1,25.6,44.5c6.5,18.3,8.6,37.1,6.2,56.4c-1,8.1-2.3,16.2-3,24.3
			c-1,11.1-1,22.2,0.2,33.3c1.4,12.9,4.2,25.7,6.2,38.5c1.3,8.2,2.5,16.5,2.4,24.8c-0.3,38.8-26.3,63.9-56.3,70.8
			c-14.6,3.4-29.4,5-44.4,4c-2.8-0.2-5.5-0.7-8.3-1c-1.2-0.2-1.8-0.8-1.7-2.1C1152.1-843.8,1152.3-848.8,1152.6-853.9z"/>
		<path id="XMLID_526_" class="st3" d="M1094.1-611.1c-63.7,0.2-127.5,0.4-191.2,0.6c-1.7,0-3.5,0-5.2-0.1c-1.5-0.1-2.2-1.3-1.6-2.5
			c0.8-1.5,1.7-3,2.6-4.5c9.5-16,18.4-32.2,25.4-49.5c6.5-15.9,11.8-32.3,15.2-49.1c1.4-6.6,3.1-13.2,4.3-19.8
			c1.2-7.2,2-14.4,2.9-21.6c0.1-0.9,0.2-1.7,0.3-2.6c0.3-2.9,1.8-4.7,4.7-5.4c10-2.6,19.1-7.3,28.2-12c2-1,4-2.1,6.1-3
			c2.8-1.2,4.4-0.3,4.9,2.6c0.4,2.2,0.6,4.5,0.9,6.7c3.4,26.5,11.6,51.4,25.4,74.3c3.8,6.3,8.1,12,13.5,17.1
			c6.3,6,13.9,9.8,21.9,12.8c7.1,2.7,14.5,4.9,21.9,6.6c9.4,2.1,18.9,2.5,28.5,2.2c11.9-0.3,23.4-3.2,34.3-7.7
			c10.5-4.3,18.8-11.7,25.7-20.6c11.5-14.8,19.6-31.5,25.6-49.2c4.6-13.7,7.5-27.8,9.2-42.1c0.7-5.7,1.8-6.4,6.9-3.9
			c3.7,1.8,7.4,3.7,11.1,5.7c6.6,3.5,13.5,6.4,20.7,8.3c3.6,1,5.1,3,5.4,6.6c0.8,7.2,1.7,14.5,2.7,21.7c1.4,9.4,4,18.6,6.1,27.9
			c6.5,28.5,17.8,55.1,32.3,80.4c2.6,4.5,5.3,9,7.9,13.5c0.7,1.2,1.6,2.3,1.8,3.7c0.2,1.3-0.5,2.5-1.8,2.7c-1.4,0.1-2.8,0.1-4.2,0.1
			c-64.3,0-128.5,0-192.8,0C1094.1-611.4,1094.1-611.3,1094.1-611.1z"/>
		<path id="XMLID_525_" class="st3" d="M1028.1-842.7c-5.7,0.5-10.1-0.6-14.5-1.3c-9.2-1.5-18.4-3.3-27.6-5c-2.2-0.4-4.4-1-6.5-1.8
			c-7.9-2.8-13.1-8.3-15.8-16.1c-3.5-10.3-2.9-20.5,1.2-30.5c1.5-3.5,3.3-6.9,5.2-10.2c8.1-14.2,12.9-29.5,14.5-45.8
			c0.1-0.7,0.1-1.4,0.2-2.1c0.5-3,1.2-3.5,4.2-2.6c0.3,0.1,0.7,0.2,1,0.3c7.9,2.8,7.2,0.7,8.2,9.6c1.3,11.2,5.2,21.6,10.5,31.4
			c8,15.1,16.9,29.5,29.2,41.6c1.7,1.6,2.2,3.4,2.1,5.6c-0.1,5-1.1,10-1.7,15c-0.3,2.6-0.6,5.2-1.1,7.7c-0.5,2.8-1.6,3.8-4.5,4.2
			C1030.8-842.6,1028.9-842.7,1028.1-842.7z"/>
		<path id="XMLID_522_" class="st4" d="M1165.1-1019.3c4.9,1.5,8.5,4.5,10.5,9.3c2.4,5.9,0.9,11.3-4.4,15.1c-2.4,1.7-5.1,2.9-8,3.7
			c-8,2.3-16.1,2.1-24.2,0.8c-3.8-0.6-7.3-2.1-10.5-4.3c-6.1-4.1-7.2-13.2-1.1-18.3c2.3-1.9,4.7-3.5,7.5-4.5
			c5.7-2.2,11.6-3.4,17.9-3.2C1157-1020.9,1161.1-1020.6,1165.1-1019.3z M1129.5-997.5c1.5,1.1,3.2,2,4.9,2.8c1.3,0.6,2.1,0,1.7-1.3
			c-1.8-6.1-0.8-12,1.1-17.9c0.1-0.3,0-0.7-0.2-0.9c-0.2-0.2-0.7-0.3-0.9-0.2c-3.1,1.2-6,2.8-8.1,5.4c-1.3,1.5-2,3.3-1.9,5.4
			C1126.4-1001.6,1127.2-999.2,1129.5-997.5z"/>
		<path id="XMLID_519_" class="st4" d="M1066.1-1018.4c3.5,1.1,6.7,2.8,9.5,5.1c6.7,5.4,5.3,14.9-1.3,18.9c-2.2,1.4-4.5,2.6-7.1,3.2
			c-9.8,2.4-19.5,2.5-29.1-0.8c-2.3-0.8-4.5-1.9-6.4-3.4c-4.6-3.5-6-8.4-4.1-13.8c1.8-5.3,5.6-8.6,10.9-10.2c3.9-1.2,7.8-1.5,12-1.3
			C1055.7-1021,1061-1020,1066.1-1018.4z M1030.6-1009.3c-2.2,4.9-1,9.2,3.4,12.3c1.4,1,3,1.6,4.6,2.4c0.2,0.1,0.6,0,0.9-0.2
			c0.4-0.2,0.4-0.5,0.2-0.9c-2.9-6.6-1.1-12.9,1.4-19.1c0.2-0.6,0.5-1.2,1-2.5C1036.4-1016.4,1032.6-1014,1030.6-1009.3z"/>
		<path id="XMLID_511_" class="st4" d="M1195.3-943.5c-0.9,1.3-1.2,2.9-1.6,4.4c-5.6,18.4-13.9,35.5-26,50.6
			c-3.1,3.8-6.3,7.4-9.9,10.7c-1.8,1.6-2.7,3.5-2.9,5.9c-0.1,0.7-0.2,1.4-0.3,2.1c-0.4,10.8-1.9,21.5-1.4,32.2
			c0.8,16.6,6.5,31.1,19.6,42.1c2.8,2.4,5.8,4.4,9.3,5.6c4.6,1.7,9.1,3.3,13.7,5c0.8,0.3,1.7,0.4,2.3,1.1c0.2,0.2,0.3,0.7,0.2,0.9
			c-0.1,0.3-0.4,0.6-0.7,0.7c-1.2,0.3-2.4-0.2-3.5-0.6c-4.1-1.5-8.1-3-12.2-4.4c-2-0.7-2.3-0.6-2.8,1.6c-0.8,3.9-1.5,7.8-2.3,11.7
			c-3,14.8-7.5,29.2-11.8,43.7c-5.5,18.5-12.3,36.5-20.6,53.9c-4.1,8.5-8.9,16.5-14.5,24c-6.2,8.3-13.3,15.6-23.4,19.2
			c-1.6,0.6-1.6,0.9-1,2.7c0.3,1,0.8,2,0.9,3c0.6,4.4-1.8,8.4-5.7,10.1c-3.8,1.5-8.3,0.2-10.7-3.1c-2.5-3.4-2.4-8.4,0.3-11.6
			c1-1.2,2.3-2.1,3.4-3.2c-0.1-1-0.8-1.5-1.5-2.1c-17.1-14.9-30-33.1-41.4-52.5c-12.2-20.9-22.4-42.7-29.2-66c-2.6-9-5.1-18-7-27.2
			c-0.3-1.5-0.7-3.1-1-4.6c-1-4-1-4-4.6-2.1c-4.7,2.6-9.4,5.3-14.1,7.8c-0.9,0.5-1.9,0.7-2.9,1c-0.2,0.1-0.7-0.3-0.8-0.6
			c-0.1-0.2-0.1-0.8,0-0.9c0.6-0.6,1.3-1.1,2.1-1.5c3.8-2.1,7.5-4.4,11.4-6.3c13.6-7,21.9-18.3,26.9-32.4c2.3-6.6,3.7-13.4,4.6-20.3
			c1.2-8.6,1.9-17.2,2.9-25.9c0.3-3-0.4-5.2-2.6-7.4c-17.8-17-29.1-37.8-36.3-61.1c-0.3-0.8-0.5-1.7-0.8-2.5c-1-3-1-3-4.2-2.4
			c-2.9,0.6-5.9,0.7-8.8-0.1c-7.9-2.3-12.2-10.3-10-18.6c0.2-0.8,0.6-1.6,0.9-2.4c0.4-0.9,0.2-1.7-0.4-2.4c-0.3-0.4-0.7-0.8-1.1-1.1
			c-5.9-6.5-9.4-14-10.7-22.7c-0.9-5.9,0-11.4,2.5-16.7c4.4-9.5,14.2-14.4,24.5-12.4c2.2,0.4,4.4,0.9,6.5,1.9c0.8,0.4,1.6,1,1.1,2
			c-0.3,0.6-1.1,0.8-1.8,0.6c-0.8-0.3-1.7-0.5-2.5-0.8c-2.5-1-5.1-1.1-7.7-1.1c-8.6,0-14.4,4.2-17.9,11.9
			c-2.5,5.4-2.4,11.2-1.4,16.9c1.3,7,4.5,13.1,9.3,18.4c1.7,1.9,1.8,1.9,3.7,0.4c2-1.5,4.1-2.7,6.4-3.3c0.6-0.2,1.4-0.2,2-0.1
			c0.3,0,0.6,0.4,0.7,0.6c0.3,0.5,0,1.1-0.3,1.4c-0.6,0.4-1.2,0.6-1.9,0.9c-1.4,0.7-2.9,1.2-4.2,2.1c-2.1,1.4-2.1,2.4-0.1,3.9
			c3.4,2.5,7.2,4.2,11.4,4.9c2.1,0.3,3,1.3,3.2,3.3c1,6.5,2.7,12.9,4.7,19.2c5.5,17,13.4,32.7,24.7,46.7c9,11.1,19.5,20.2,32.1,26.9
			c8.9,4.6,18.3,7.4,28.2,8.6c4.8,0.6,9.7,0,14.5-0.7c6.3-1,12.7-2,18.8-4.1c16.6-5.6,30-15.8,41.3-28.9
			c13.7-15.9,22.7-34.4,28.5-54.5c1.4-4.7,2.7-9.4,3.2-14.2c0.2-2.2,1.3-2.9,3.2-3.2c4.5-0.8,8.6-2.8,12.2-5.6
			c1.4-1.1,1.4-2-0.2-2.6c-2.1-0.8-4.2-1.5-6.5-0.5c-0.7,0.3-1.5,0-1.7-0.7c-0.2-0.7,0.4-1.3,1-1.7c1.4-0.9,3-1,4.5-0.6
			c1.5,0.3,3,0.9,4.4,1.5c2.7,1.1,2.7,1.2,4.7-1.1c3.7-4.4,6.6-9.4,8.1-15c0.8-3.2,1.6-6.4,1.4-9.8c-0.1-1.7-0.8-2.3-2.3-1.8
			c-1.5,0.5-2.9,1.3-4.4,1.7c-3.8,1-5.6,2.8-5.6,7.2c0.1,4.3-3,7.6-6,10.6c-0.4,0.4-1,0.3-1.4,0c-0.6-0.3-0.6-0.9-0.3-1.3
			c0.9-1.3,1.8-2.5,2.7-3.8c1.4-2,2.5-4.1,2.7-6.7c0.1-1.4-0.3-2.2-2-2.3c-1.1,0-1.2-1.1-0.6-1.9c0.3-0.4,0.8-0.7,1-1.1
			c0.4-0.8,0-1.6-0.7-1.6c-1.9,0-2.8-0.7-2.9-2.7c0-1-1.2-1.2-2-1.2c-2.1,0-4.2,0.1-6.2,0.1c-0.5,0-1-0.3-1-0.9
			c0-0.6,0.3-1.1,0.8-1.2c3.2-0.6,6.5-1.6,9.6,0.2c1.1,0.6,2.2,1,3.4,0.1c3.1-2.2,6.3-4.4,9.4-6.6c0.9-0.6,0.9-1.5,0.2-2.2
			c-3.2-3.7-7.3-5.9-12.2-6.2c-3.8-0.3-7.6,0-11.3,1.4c-1,0.4-2,0.9-2.8-0.2c-0.6-0.7,0.3-1.9,2-2.5c9.6-3.5,18.4-2.4,26,5
			c1,1,1.7,2,3.5,1.5c1.6-0.5,2.1,0.3,1.1,2c-0.6,1-0.9,1.8-0.3,2.8c0.3,0.6,0.5,1.3,0.8,1.9c0.4,0.9,0.3,2.3,1.3,2.7
			c0.7,0.3,1.7-0.1,2.5-0.2c0.3,0,0.7-0.1,1,0.1c0.5,0.3,0.7,0.8,0.4,1.3c-0.1,0.3-0.4,0.6-0.7,0.7c-2.6,0.8-3.1,2.7-3,5.2
			c0.3,9.4-3.1,17.6-8.8,25c-0.7,1-1.6,1.9-2.3,2.8c-0.8,0.9-0.9,1.8-0.3,2.8c0.5,0.9,1.1,1.8,1.5,2.7c5,10.2-3.1,19.9-11.1,21.1
			C1203-939.9,1200.6-940.4,1195.3-943.5z M1111.1-725.7c-0.9,0-1.3,0.1-1.6,0c-0.5-0.1-1-0.3-1.1-0.9c0-0.6,0.2-1,0.8-1.2
			c0.6-0.2,1.3-0.4,2-0.5c6.9-1.5,13.1-4.4,18.7-8.7c11.5-8.9,20.9-19.8,28.9-31.9c3.3-5.1,6.4-10.4,8.6-16c0.9-2.4,1.6-4.9,2.3-7.4
			c0.2-0.8,0.2-1.8-0.4-2.5c-1-1-1.9-2.4-3.1-2.7c-1.6-0.4-1.9,1.6-2.9,2.5c-1.3,1.2-2.3,2.6-3.5,3.8c-1.6,1.6-3,3.3-3.3,5.7
			c-0.3,2.2-1.9,4-4.2,4c-2.5,0-4.2,1.4-6.1,2.5c-2.9,1.6-5.7,3.3-8.6,4.8c-1.5,0.8-2.7,1.6-3.4,3.6c-1.4,3.7-3.9,4.6-7.4,2.8
			c-1.9-0.9-3.5-0.8-5.4-0.4c-5.1,1.2-10.1,2.4-15.4,2.5c-2.5,0-4.5,0.6-6.5,2.5c-3,2.9-7.2,2.4-9.3-1.1c-1.3-2.1-2.9-2.8-4.9-3.2
			c-5.3-1.1-10.4-2.7-15.3-5.1c-1.9-0.9-3.6-1.5-5.9-0.7c-2.8,0.9-4.9-0.3-5.5-3.2c-0.5-2.4-2-3.4-3.7-4.7c-2.5-1.9-4.9-3.9-7.2-5.9
			c-1.6-1.4-2.9-2.7-5.3-2.8c-2.1-0.1-3.2-1.4-3-3.5c0.2-2.1-0.6-3.6-1.7-5.3c-1.2-1.7-2.1-3.6-3.2-5.3c-1.4-2.3-2.1-5.1-4-7.2
			c-2.8,1.5-3.2,4.7-5.2,6.8c-1.4,1.5-1.3,3.1-0.4,4.8c0.5,0.9,0.8,1.9,1.2,2.9c7.8,17.7,18.9,33.1,32.4,46.8
			c9.8,9.9,21.4,17.1,34.6,21.6c0.5,0.2,1,0.3,1.4,0.6c0.2,0.2,0.4,0.6,0.5,0.9c0.2,0.7-0.4,0.9-0.9,1c-2.3,0.3-4.5-0.5-6.5-1.4
			c-10.3-4.7-20.1-10.2-28.4-18.2c-14.5-14-26.3-29.9-34.8-48.3c-0.8-1.8-1.1-4-3-5.3c-1.9,0.9-3,2.8-4.6,4.1
			c-0.3,0.2-0.5,0.5-0.8,0.7c-1.3,1-1.4,2.1-1,3.7c2.5,9.9,4.6,19.9,7.4,29.8c10.3,36.1,27.4,68.9,49.8,99
			c6.9,9.2,15.2,17.1,23.8,24.8c0.3,0.2,0.5,0.5,0.8,0.7c2.5,2,5,2.5,8.2,1.2c6.7-2.8,12.5-6.6,17.3-12.1
			c8.2-9.5,14.8-20.1,20.2-31.5c9-19,16-38.8,21.9-59c4.7-15.8,9.2-31.6,11.9-47.9c0.4-2.6-0.2-3.9-2.2-5.1
			c-1.3-0.7-1.9-0.7-2.2,0.8c-1.6,5.9-4.4,11.3-7.3,16.7c-6.2,11.4-14.6,21.1-23.5,30.4c-4,4.1-8.5,7.7-13.3,10.9
			C1122.6-728.9,1116.8-726.7,1111.1-725.7z M1146.7-785.2c-0.1-4.2,0.4-4.9,4.3-5.9c0.7-0.2,1.5-0.7,2-0.4c2.8,1.5,4.1-0.6,5.6-2.3
			c1.2-1.3,2.3-2.6,3.4-4c1.8-2.4,1.8-2.5,0.1-5c-4.9-7.3-8.3-15.2-10.2-23.7c-0.3-1.2-0.6-2.4-0.9-3.5c-0.3-1.3-1.1-1.6-2.3-1.5
			c-0.9,0.1-1.7,0.2-2.6,0.3c-6.1,0.6-12.2,0.5-18.2-0.3c-16.8-2.1-33-6.1-48.6-12.9c-7.3-3.2-14.2-7.1-20.6-12
			c-4.3-3.3-8.2-6.9-12.1-10.6c-1.2-1.2-2.8-2-4.2-2.9c-1.5,1.3-0.9,3.2-1.1,4.8c-0.7,4.6-1.1,9.3-1.6,13.9
			c-1.3,11.2-2.7,22.4-6.9,33c-0.7,1.7-0.6,3.3,0.1,5c1.9,4.5,4.1,8.8,6.7,12.9c1,1.5,2,2.5,4.1,2.5c2.6,0.1,4.2,1.6,3.7,3.9
			c-0.5,2.6,0.6,4,2.2,5.3c2.4,2,4.8,3.9,7.3,5.9c1.2,0.9,2.2,1,3.7,0.2c3.9-2.1,6.1-1,7.3,3.2c0.1,0.3,0.1,0.7,0.1,1
			c-0.1,1.7,0.9,2.4,2.3,3.1c5.3,2.6,11,4.3,16.7,5.5c1.8,0.4,2.7,0,3.9-1.5c2.9-3.7,5.9-3.7,9.1-0.3c0.4,0.4,0.8,0.8,0.9,1.2
			c0.7,2.2,2.4,2.3,4.2,2.1c5-0.4,10-1.2,14.9-2.4c2-0.5,3.2-1.2,4-3.4c1.1-3.1,3.8-4.2,6.2-2.7c2.5,1.7,4.5,1.1,6.7-0.2
			c2.5-1.5,5.1-2.9,7.7-4.4C1146.2-782.1,1147.5-783.2,1146.7-785.2z M1204.7-942.9c8.8,0.1,16.6-10,11-18.7
			c-1.4-2.1-1.6-2.3-3.6-0.9c-3.4,2.4-7,4.6-11.1,5.6c-2.6,0.6-3.9,2-4,4.6c0,0.7,0,1.4-0.3,2c-1.1,2.4,0.1,4,1.8,5.4
			C1200.2-943.4,1202.4-942.9,1204.7-942.9z M991.3-944.2c1.1,0.1,2.6-0.3,4-0.9c1.1-0.4,1.8-1.1,1.6-2.3c-0.3-2-0.8-4.1-1.2-6.1
			c-0.2-0.9-0.7-1.6-1.6-1.8c-4.6-1.2-8.8-3.2-12.7-5.9c-1.1-0.8-1.9-0.4-2.4,0.9C976.1-952.6,982.1-944.2,991.3-944.2z
			 M1103.5-625.8c0.1-3.7-2.3-6.5-5.8-6.7c-3.8-0.2-6.7,2.5-6.8,6.2c-0.1,3.6,3.1,6.9,6.5,6.9
			C1100.6-619.4,1103.4-622.3,1103.5-625.8z M1222.4-1006.4c-0.3,0.1-0.7,0.1-1,0.3c-3,2-6,4.1-9,6.2c-0.8,0.5-1.1,1.3-0.5,2.2
			c0.6,0.9,1.3,1.8,2.5,1.3c2.4-0.9,4.8-1.9,7.3-2.8c4-1.5,3.6-1.9,2.1-5.8c-0.1-0.3-0.3-0.6-0.5-0.9
			C1223-1006.1,1222.7-1006.2,1222.4-1006.4z"/>
		<path id="XMLID_510_" class="st4" d="M1330.6-613.7c-9.9,1.3-19.8,1-29.6,1.5c-1,0.1-2.1,0.2-3-0.4c-0.3-0.2-0.5-0.6-0.5-0.8
			c0-0.3,0.3-0.6,0.5-0.8c0.7-0.6,1.6-0.5,2.5-0.5c12-0.4,23.9-0.9,35.9-1.3c7.6-0.3,15.3-0.6,22.9-0.9c0.7,0,1.4-0.1,2.1-0.2
			c0.8-0.2,1.2-0.8,1.1-1.5c-0.4-2-0.8-4.1-1.5-6c-3.9-10.6-8.6-20.8-13.6-30.9c-10.3-20.5-23.8-38.6-39.5-55.3
			c-17.8-18.8-38.1-34.4-59.8-48.4c-0.7-0.5-1.5-0.9-2.1-1.5c-0.3-0.3-0.6-1-0.4-1.3c0.2-0.3,0.9-0.7,1.3-0.6
			c1.1,0.4,2.2,0.9,3.2,1.6c3.7,2.3,7.4,4.6,10.9,7.2c12.4,9,24.8,17.8,35.9,28.4c13,12.3,25.2,25.4,35.6,40
			c5.1,7.1,9.7,14.4,13.8,22.1c6.2,11.5,11.9,23.2,16.4,35.4c1.3,3.4,2.4,6.9,2.5,10.6c0,2.1-0.6,2.9-2.7,3c-5,0.3-10,0.7-15.1,0.8
			C1341.7-613.6,1336.1-613.7,1330.6-613.7z"/>
		<path id="XMLID_509_" class="st4" d="M863.2-611.9c-13.4-0.6-23.1-1-32.8-1.4c-0.5,0-1,0-1.6,0c-3.5-0.2-4.3-1.1-3.5-4.7
			c0.6-2.9,1.3-5.8,2.3-8.5c4.7-13.1,10.8-25.5,17.5-37.7c9.6-17.4,21.8-32.9,35.5-47.4c17.3-18.3,37.1-33.5,58-47.3
			c1.6-1,3.1-2.2,5-2.7c0.6-0.2,1,0.2,1.2,0.7c0.1,0.3,0,0.8-0.2,0.9c-1.1,0.9-2.2,1.7-3.3,2.4c-14.7,9.3-28.7,19.6-41.6,31.2
			c-24.9,22.2-45.6,47.6-59.7,78c-3.7,8-7.1,16.2-10.5,24.4c-0.1,0.3-0.2,0.7-0.3,1c-2.4,7.7-1.2,7,5,7.2
			c14.9,0.5,29.8,1.2,44.7,1.7c3.6,0.1,7.3,0.2,10.9,0.4c0.8,0,1.7,0.3,2.5,0.5c0.2,0.1,0.4,0.6,0.3,0.9c0,0.3-0.2,0.7-0.5,0.8
			c-0.9,0.6-2,0.4-3,0.4C879.2-611.6,869.3-611.3,863.2-611.9z"/>
		<path id="XMLID_508_" class="st4" d="M1138.3-1052.6c12,0.4,22,4.4,31,11c1.2,0.9,2.4,2,3.5,3.1c1.4,1.5,1.8,3.3,1,4.2
			c-1.1,1.3-2.5,1-3.8,0.6c-1.3-0.4-2.6-0.9-3.9-1.4c-6.1-2.5-12.4-4.3-19-5.1c-2.7-0.3-5.5-0.5-8.3-0.7c-0.9-0.1-1.7,0-2.6-0.1
			c-4.5-0.5-6.4-2.9-5.8-7.4c0.3-2.5,1.9-4,4.5-4.3C1136.3-1052.7,1137.7-1052.6,1138.3-1052.6z"/>
		<path id="XMLID_507_" class="st4" d="M1054.5-1037.8c-8,0-15.9,1-23.7,2.8c-2.2,0.5-4.4,0.9-6.6,1.2c-0.7,0.1-1.3-0.4-1.6-1.1
			c-0.3-0.7,0-1.4,0.6-1.8c0.8-0.6,1.7-1.2,2.6-1.7c11.2-5.8,23-9.5,35.6-10.6c1-0.1,2.1-0.1,3.1,0.1c1.4,0.2,2.2,1,2.3,2.4
			c0.2,2.1,0.4,4.1,0.6,6.2c0.2,2-0.6,3-2.5,3.1c-1.2,0.1-2.4,0-3.6-0.1C1059-1037.6,1056.8-1037.7,1054.5-1037.8z"/>
		<path id="XMLID_506_" class="st4" d="M1100.1-925.8c-9.7,0.3-19-1.7-28.1-4.6c-6.4-2.1-11.9-5.5-17-9.7c-0.5-0.4-1-0.9-1.5-1.5
			c-0.6-0.6-1.2-1.3-0.8-2.3c0.3-0.7,1.6-0.5,2.6,0.5c8.6,8.3,19.4,11.7,30.8,13.8c5.3,1,10.7,1.1,16,1.2c9.2,0.2,17.8-2.2,26.1-6
			c5.9-2.7,11.2-6.2,16.5-9.9c1.3-0.9,2.6-1.7,3.9-2.5c0.4-0.3,1.1-0.1,1.3,0.4c0.1,0.4,0,1-0.1,1.4c-0.1,0.3-0.4,0.5-0.7,0.7
			c-10.5,7.8-21.6,14.5-34.6,17.3C1109.7-925.8,1104.9-926,1100.1-925.8z"/>
		<path id="XMLID_505_" class="st4" d="M1099.7-955.2c-2.8-0.1-5.5-0.2-8.3-0.5c-0.7-0.1-1.3-0.7-0.9-1.5c0.2-0.4,0.7-0.9,1.1-1
			c1-0.1,2.1,0,3.1,0.1c5.2,0.4,10.4,0.5,15.5-0.6c1.2-0.3,2.4-0.5,3.5-0.9c2.6-0.9,3.9-2.8,3.9-5.5c0-1.5-0.3-3.1-0.6-4.6
			c-2.7-13.6-6-27.1-9.5-40.5c-0.7-2.8-1.3-5.7-1.9-8.6c-0.2-0.7,0.2-1.4,1-1.5c0.8-0.1,1.3,0.5,1.5,1.2c0.5,1.8,0.8,3.7,1.3,5.6
			c3.7,13.9,7.1,27.9,10,42c0.5,2.2,0.8,4.4,0.7,6.7c-0.1,4.4-2.1,7.2-6.5,8.3c-2.8,0.7-5.7,1.4-8.7,1.3c-1.7-0.1-3.5,0-5.2,0
			C1099.8-955.3,1099.7-955.3,1099.7-955.2z"/>
		<path id="XMLID_504_" class="st4" d="M1098.3-911.6c-5.6,0.2-11-0.3-16.4-1.9c-2-0.6-3.9-1.3-5.6-2.5c-0.3-0.2-0.6-1-0.5-1.3
			c0.1-0.3,0.8-0.6,1.2-0.7c0.5,0,1,0.2,1.5,0.4c10.6,4.6,21.5,4.3,32.6,2.3c1.5-0.3,3-0.7,4.6-0.9c0.7-0.1,1.4,0,1.7,0.8
			c0.3,0.9-0.4,1.3-1,1.5c-4.4,1.1-8.7,2.1-13.2,2.3C1101.5-911.6,1099.9-911.6,1098.3-911.6z"/>
		<path id="XMLID_503_" class="st4" d="M991.9-1000.2c-7.3-1.6-12,7.1-9.9,13.2c0.7,2,1.8,3.7,3.1,5.4c0.7,1,1.4,2,2,3
			c0.1,0.2-0.1,0.7-0.3,0.9c-0.2,0.2-0.6,0.4-0.9,0.4c-0.3,0-0.7-0.2-0.9-0.4c-3.8-3.8-6.5-8.1-6.1-13.8c0.3-4.3,2.4-7.5,5.8-10
			c1.9-1.3,4-2,6.4-1.4c1.5,0.4,3.2-0.1,4.5,1c0.2,0.2,0.4,0.6,0.3,0.9c0,0.3-0.3,0.8-0.5,0.8
			C994.3-1000.2,993.1-1000.2,991.9-1000.2z"/>
		<path id="XMLID_502_" class="st4" d="M977.9-1010.5c1.2,0,2.3,1.1,2.4,2.3c0.1,1.5-1.3,2.8-3.1,2.8c-1.1,0-2.3-1.3-2.1-2.5
			C975.3-1009.3,976.6-1010.6,977.9-1010.5z"/>
		<path id="XMLID_501_" class="st4" d="M975.7-1001.8c0.1,1.4-1,2.7-2.4,2.9c-1.2,0.2-2.4-0.7-2.6-2c-0.2-1.6,1-3.2,2.6-3.2
			C974.4-1004.1,975.6-1002.9,975.7-1001.8z"/>
		<path id="XMLID_500_" class="st4" d="M1101.9-722.1c-1.8,0-3.2-1.7-3.3-3.8c0-2.4,1.6-4,3.7-3.9c1.7,0.1,2.9,1.5,3,3.5
			C1105.4-723.9,1103.9-722,1101.9-722.1z"/>
	</g>
	<g id="XMLID_496_">
		<circle id="XMLID_498_" class="st2" cx="1168.9" cy="-961.9" r="20.1"/>
		<circle id="XMLID_497_" class="st2" cx="1033.6" cy="-961.9" r="20.1"/>
	</g>
</g>
</svg>
