<?xml version="1.0" encoding="utf-8"?>
<!-- Generator: Adobe Illustrator 19.0.0, SVG Export Plug-In . SVG Version: 6.00 Build 0)  -->
<svg version="1.1" xmlns="http://www.w3.org/2000/svg" xmlns:xlink="http://www.w3.org/1999/xlink" x="0px" y="0px"
	 viewBox="0 0 509.8 510.4" style="enable-background:new 0 0 509.8 510.4;" xml:space="preserve">
<style type="text/css">
	.st0{fill:#FFFFFF;}
	.st1{fill:#EBB0AE;}
	.st2{fill:#CB8481;}
	.st3{fill:#392E38;}
	.st4{opacity:0.5;fill:#4DFF55;stroke:#000000;stroke-width:1.0103;stroke-miterlimit:10;}
	.st5{opacity:0.5;fill:#FFFFFF;stroke:#000000;stroke-miterlimit:10;}
	.st6{opacity:0.5;fill:#FF4A4A;stroke:#000000;stroke-width:1.2216;stroke-miterlimit:10;}
	.st7{opacity:0.5;fill:#FF4A4A;stroke:#000000;stroke-width:1.0956;stroke-miterlimit:10;}
	.st8{opacity:0.5;fill:#4DFF55;stroke:#000000;stroke-width:1.0414;stroke-miterlimit:10;}
	.st9{opacity:0.4;fill:#202F43;}
	.st10{fill:#102B42;}
	.st11{fill:#589BD4;}
</style>
<g id="BACKGROUND">
</g>
<g id="Warstwa_3">
</g>
<g id="OBJECTS">
	<path id="XMLID_154_" class="st0" d="M-924.6,1063.7c-2.4,0.9-4.8,1.9-7.3,2.8c-1.2,0.5-1.9-0.4-2.5-1.3c-0.6-0.9-0.3-1.7,0.5-2.3
		c3-2.1,6-4.1,9-6.2c0.3-0.2,0.7-0.2,1-0.3c0.3,0.2,0.6,0.3,0.8,0.6c0.2,0.3,0.4,0.6,0.5,0.9C-921,1061.8-920.6,1062.2-924.6,1063.7
		z"/>
	<path id="XMLID_155_" class="st0" d="M-921.8,1077.4c-1.5,5.6-4.3,10.6-8.1,15c-1.9,2.3-1.9,2.2-4.7,1.1c-1.4-0.6-2.9-1.2-4.4-1.5
		c-1.5-0.3-3.1-0.3-4.5,0.6c-0.6,0.4-1.2,1-1,1.7c0.2,0.7,1,1,1.7,0.7c2.3-1,4.4-0.3,6.5,0.5c1.5,0.6,1.6,1.5,0.2,2.6
		c-3.6,2.8-7.7,4.7-12.2,5.6c-2,0.4-3,1.1-3.2,3.2c-0.5,4.8-1.8,9.5-3.2,14.2c-5.8,20.1-14.8,38.5-28.5,54.5
		c-11.3,13.1-24.7,23.3-41.3,28.9c-6.1,2.1-12.4,3.1-18.8,4.1c-4.8,0.7-9.7,1.3-14.5,0.7c-9.9-1.2-19.3-4-28.2-8.6
		c-12.7-6.6-23.2-15.8-32.1-26.9c-11.3-13.9-19.2-29.7-24.7-46.7c-2-6.3-3.7-12.6-4.7-19.2c-0.3-1.9-1.2-2.9-3.3-3.3
		c-4.1-0.7-7.9-2.5-11.4-4.9c-2-1.5-2.1-2.5,0.1-3.9c1.3-0.8,2.8-1.4,4.2-2.1c0.6-0.3,1.3-0.5,1.9-0.9c0.4-0.3,0.7-0.8,0.3-1.3
		c-0.2-0.3-0.5-0.6-0.8-0.6c-0.7-0.1-1.4,0-2,0.1c-2.4,0.7-4.5,1.8-6.4,3.3c-2,1.5-2.1,1.5-3.7-0.4c-4.7-5.3-8-11.4-9.3-18.4
		c-1.1-5.7-1.1-11.4,1.4-16.9c3.5-7.7,9.3-11.9,17.9-11.9c2.6,0,5.2,0.1,7.7,1.1c0.8,0.3,1.6,0.5,2.5,0.8c0.7,0.2,1.5,0,1.8-0.6
		c0.1-0.3,0.2-0.5,0.1-0.8c0.8-0.1,1.2-0.8,1.3-2.3c0.4-3.8,1.5-7.5,2.9-11c3.3-8.2,8.3-15.2,14.3-21.5c5.4-5.7,11.6-10.5,17.8-15.2
		c6.2-4.8,12-10,17.4-15.7c7.3-7.8,13.6-16.2,16.8-26.6c0.1-0.4,0.5-1,0.9-1.1c0.3-0.1,0.9,0.4,1.1,0.7c2.7,3.9,6,7.2,9.5,10.3
		c8.2,7.4,17.6,12.9,27.6,17.5c10.2,4.8,20.9,8.6,31.4,12.5c5.7,2.1,11.3,4.4,16.7,7.2c8.7,4.6,16.5,10.2,23.1,17.6
		c6.1,6.9,10.8,14.5,12.5,23.6c0.1,0.7,0.3,1.4,0.6,2c0.1,0.2,0.2,0.4,0.4,0.6c-0.3,0.4-0.3,0.8-0.1,1.2c0.8,1.1,1.9,0.6,2.8,0.2
		c3.6-1.4,7.4-1.7,11.3-1.4c4.9,0.4,8.9,2.6,12.2,6.2c0.7,0.7,0.7,1.6-0.2,2.2c-3.1,2.2-6.3,4.3-9.4,6.6c-1.2,0.8-2.2,0.5-3.4-0.1
		c-3.2-1.8-6.4-0.8-9.6-0.2c-0.5,0.1-0.8,0.6-0.8,1.2c0,0.6,0.4,0.9,1,0.9c2.1,0,4.2-0.1,6.2-0.1c0.9,0,2,0.2,2,1.2
		c0.1,2,1,2.7,2.9,2.7c0.7,0,1.1,0.8,0.7,1.6c-0.3,0.4-0.8,0.7-1,1.1c-0.5,0.9-0.5,1.9,0.6,1.9c1.7,0,2.1,0.8,2,2.3
		c-0.2,2.5-1.3,4.7-2.7,6.7c-0.9,1.3-1.9,2.5-2.7,3.8c-0.3,0.4-0.3,1,0.3,1.3c0.5,0.3,1,0.4,1.4,0c3.1-2.9,6.1-6.2,6-10.6
		c-0.1-4.4,1.8-6.2,5.6-7.2c1.5-0.4,2.9-1.2,4.4-1.7s2.2,0.1,2.3,1.8C-920.3,1071-921,1074.2-921.8,1077.4z"/>
	<path id="XMLID_128_" class="st0" d="M-1772.2,1270.1c-23.7,14.2-47.8,22.1-60.5,31.5c-5.2,1.4-10.5,2.5-15,5
		c-70,38.5-100.9,101.9-114,142c84.7,2.7,171.9,4.1,261.5,4c94.7-0.1,186.7-1.9,276-5c-7.7-23.3-25.3-65.5-64.5-104
		c-41.8-41-85.8-56.1-114.5-65.5C-1636.4,1267.2-1707.3,1231.3-1772.2,1270.1z"/>
	<g id="XMLID_453_">
		<circle id="XMLID_455_" class="st1" cx="-1607.1" cy="-545.7" r="20.1"/>
		<circle id="XMLID_454_" class="st1" cx="-1742.5" cy="-545.7" r="20.1"/>
	</g>
	<path id="XMLID_452_" class="st2" d="M-1679.4-669.8c-1.7,0.5-2.4,1.9-3.4,2.8c-5.2,4.6-11.1,6.8-18.2,5.8
		c-2.8-0.4-5.5-0.9-8.2-1.6c-2.5-0.7-2.5-0.7-3.9,1.7c-0.9,1.5-1.7,3-2.8,4.4c-4.5,5.8-11.1,7.8-18.1,5.6c-2.3-0.7-4.6-1.7-6.9-2.5
		c-1,1.3-1.1,2.9-1.4,4.3c-1.9,7.5-6.3,12.2-14.4,12.9c-2.4,0.2-4.8,0.5-7.2,0.8c-2,0.2-2.4,0.6-2,2.6c1.1,5.8,0.2,11.4-2,16.8
		c-1.8,4.5-4.4,8.3-8.6,10.8c-2,1.2-3.2,2.6-3.2,4.9c0,1.2-0.6,2.4-1.3,3.3c-1.6,2-3.2,3.2-6.2,2.5c-5-1.2-10-0.6-14.5,2.4
		c-5.1,3.5-8.4,8.3-9.4,14.4c-0.6,4.1-0.9,8.2-0.3,12.4c0.8,5.7,2.9,10.7,6.7,14.9c2,2.2,4,4.3,5.9,6.6c1.3,1.6,1.1,2.8-0.6,3.9
		c-1.9,1.3-4,2-6.3,2.3c-3.2,0.4-6.2,0-9.2-1.2c-6.5-2.5-9.9-8.2-9.4-15.2c0.2-2.4,2.3-4.9,0.8-6.9c-1.2-1.7-3.7-2.4-5.6-3.7
		c-7.8-5.4-13.6-12.2-16-21.7c-2.7-10.5,1.3-23.7,11.6-30c1.2-0.8,3.3-1.1,3.3-2.9c-0.1-1.2-1.2-2.4-2-3.6
		c-2.4-3.6-3.5-7.6-3.8-11.8c-0.5-6.7,0.5-13.2,4-19c3-5,7.4-8.2,13.2-9.2c2.8-0.5,2.9-0.6,2.4-3.6c-1.1-7-0.6-13.9,2.2-20.4
		c2.8-6.6,7.4-11.2,14.2-13.6c2.6-0.9,2.7-1,2-3.7c-2.6-10.5-0.4-20.1,5.9-28.6c7.3-9.9,17.3-15.5,29.5-16.5
		c6.4-0.5,12.4,1.4,17.6,5.3c1.4,1,2.7,2.1,4.1,3.2c0.4,0.3,1,0.3,1.3-0.2c0.6-1,1.2-2.1,1.8-3.2c2.7-4.5,6.2-8.4,10.8-11.1
		c8.6-5,17.4-5.4,26.4-1c4.9,2.4,9.3,5.4,13.6,8.7c0.8,0.6,1.4,1.5,2.7,1.7c1.2-1.5,2.5-3.2,3.8-4.8c2.8-3.6,6.3-6.4,10.3-8.6
		c4.4-2.4,9.1-3.3,14.1-3.1c7.5,0.4,13.2,3.9,17,10.3c1.8,3.1,3.3,6.5,5,9.7c1,2,1.1,2.1,3.1,1c9.1-4.8,18.9-6.8,29.2-6
		c17.7,1.3,28.4,13.9,31,25.2c0.7,3,0.9,6.2,1.3,9.3c0.4,2.8,0.4,2.9,3.4,3.4c4.3,0.7,8.5,1.5,12.7,2.8c5.9,1.8,11.2,4.7,15.6,9.1
		c6.8,6.7,10.1,14.8,9,24.5c-0.4,3.3-1.6,6.4-2.8,9.4c1.2,1.2,2.6,1.2,3.9,1.5c16.9,4.7,29.7,19.9,31,37.2c0.4,5.1-0.9,10-3.5,14.5
		c-2.1,3.8-4.5,7.4-7.4,10.7c-1.6,1.8-1.8,3.5-0.8,5.7c0.8,1.7,1.2,3.6,1.5,5.5c1.1,6.8-0.1,13-3.9,18.9c-3.6,5.6-8,10-14.1,12.7
		c-0.3,0.1-0.6,0.3-0.9,0.5c-2.6,0.9-4.2,2.5-5.1,5.3c-1.4,4.6-4.3,8.3-8,11.3c-3.4,2.8-7.2,4.8-11.5,5.8c-6.1,1.5-11.7,0.2-17-2.9
		c-2.1-1.3-2.1-3.2-0.1-4.5c11.2-7.1,15.6-17.7,15.5-30.5c-0.1-5.5-1.9-10.6-4.6-15.3c-1.7-2.9-4.2-5.1-7.3-6.4
		c-4.1-1.6-8.2-2.6-12.7-1.8c-4.7,0.9-7.6-0.7-9.7-5c-1.6-3.2-2.2-6.6-2.2-10.1c0-4.9,0.8-9.7,1.8-14.4c0.5-2,0.2-2.3-2-2.6
		c-1.7-0.2-3.4-0.5-5.2-0.6c-7.2-0.7-12.3-4.3-15.3-10.9c-1.1-2.4-1.1-2.4-3.9-1.8c-2.7,0.6-5.5,1-8.2,1.1c-3.5,0.1-6.9-0.6-10.1-2
		c-4.4-1.9-7.6-4.8-9.3-9.3c-0.3-0.8-0.7-1.6-1-2.4c-0.3-0.7-1-0.9-1.7-0.8c-1.7,0.4-3.4,0.8-5.1,1.2c-3.6,0.8-7.2,1.2-10.8,0.9
		c-7.7-0.6-13.4-4.3-17.1-11.1C-1677.3-665-1678.2-667.3-1679.4-669.8z"/>
	<path id="XMLID_451_" class="st2" d="M-1675.9-241c-34.2,0-68.4-0.1-102.6,0c-27.4,0.1-54.9,0.2-82.3,0.6
		c-16.8,0.3-33.6,1.1-50.5,1.8c-6.4,0.2-12.8,0.5-19.3,0.7c-2.9,0.1-3.4-0.5-2.7-3.4c0.9-3.7,2-7.4,3-11.1c0.3-1.1,1-1.8,2.2-1.9
		c0.7-0.1,1.4-0.1,2.1-0.1c9.4-0.4,18.7-0.7,28.1-1.2c28.4-1.6,56.9-2,85.3-2.5c28.5-0.4,56.9-0.3,85.4-0.4
		c21.4-0.1,42.7,0,64.1-0.3c15.3-0.2,30.5-1,45.8-1.6c11.1-0.4,22.2-0.9,33.3-1.2c24.8-0.8,49.6-1.5,74.4-2.3
		c12.1-0.4,24.3-0.7,36.4-0.9c15.6-0.3,31.2,0.2,46.8,0.9c3.3,0.1,3.4,0.1,4.3,3.3c1.2,4,2.2,8,3.2,12.1c0.5,1.9,0,2.5-2.1,2.4
		c-2.9,0-5.9-0.1-8.8-0.3c-14.2-0.8-28.5-0.9-42.7-0.7c-20.1,0.3-40.3,0.9-60.4,1.4c-11.1,0.3-22.2,0.5-33.3,1
		c-20.5,0.8-40.9,1.7-61.4,2.6c-2.9,0.1-5.9,0.2-8.8,0.3c-13.2,0.3-26.4,0.7-39.6,1C-1675.9-240.9-1675.9-241-1675.9-241z"/>
	<path id="XMLID_450_" class="st2" d="M-1677.4-271.9c-59.3,1.2-121.1,0.8-182.9,1.3c-19.1,0.2-38.2,0.5-57.3,0.8
		c-1.6,0-3.1,0-4.7-0.1c-0.5,0-0.8-0.5-0.8-1.1c0-0.3,0.2-0.7,0.3-1c2-3.8,4.1-7.7,6-11.5c0.9-1.8,2.2-2.5,4.1-2.5
		c3.1,0,6.2-0.3,9.4-0.3c38.7-0.6,77.4-1.4,116.1-1.6c29.3-0.2,58.7-0.7,88-1.1c19.6-0.3,39.2-0.4,58.8-0.9
		c18.7-0.4,37.5-1.3,56.2-1.8c23.4-0.6,46.9-1.3,70.3-0.9c24.1,0.4,48.3,0.8,72.4,1.2c2.4,0,4.9,0.2,7.3,0.3
		c1.1,0.1,1.9,0.6,2.4,1.7c1.9,4.5,3.7,9,5,13.7c0.4,1.3-0.2,2-1.5,2.1c-0.5,0-1,0-1.6,0c-18.4-0.3-36.8-0.3-55.2-0.8
		c-22.7-0.7-45.5-0.7-68.2-0.4c-16.8,0.2-33.7,1-50.5,1.5c-2.8,0.1-5.6,0.2-8.3,0.2C-1632.9-272.7-1653.9-271.7-1677.4-271.9z"/>
	<path id="XMLID_449_" class="st2" d="M-1672.3-309.3c-15.5,0-30.9-0.1-46.4,0c-21.9,0.2-43.7,0.6-65.6,1.1
		c-20.1,0.5-40.2,1.3-60.4,2c-17.3,0.6-34.7,1.3-52,1.8c-2.2,0.1-4.5,0.4-6.7-0.3c0-2.8,2.4-4,3.9-5.8c2.3-2.6,4.9-4.9,7.2-7.5
		c2-2.2,4.3-3.2,7.3-3.2c5.9-0.1,11.8-0.5,17.7-0.7c12.8-0.5,25.7-0.9,38.5-1.5c26.5-1.3,53.1-2.1,79.6-2.8
		c28.3-0.7,56.6-1.1,84.9-0.8c25.5,0.3,51,0.5,76.6,1c32.5,0.7,64.9,0.6,97.4,1c12,0.1,24,0.5,35.9,0.5c2.8,0,4.5,1,5.9,3.3
		c2.5,4.2,5.5,8,7.6,12.4c0.6,1.2,0.1,2-1.3,2c-4.2,0-8.3,0-12.5-0.1c-22.4-0.2-44.8-0.4-67.2-0.7c-39.4-0.5-78.8-0.9-118.2-1.4
		c-10.8-0.1-21.5-0.4-32.3-0.6C-1672.3-309.4-1672.3-309.4-1672.3-309.3z"/>
	<path id="XMLID_448_" class="st2" d="M-1642.2-346.1c0.7-1.4,2.1-1.4,3.1-1.8c3.7-1.6,7.4-2.9,11.1-4.5c5.1-2.2,10-4.9,14.2-8.6
		c2.4-2.1,4.9-2.8,8-2.8c20.1,0.1,40.3,0,60.4,0.2c18.2,0.1,36.4,0.6,54.7,0.7c2.8,0,5,0.8,7.1,2.5c4.9,4.1,9.9,8.2,14.8,12.3
		c0.7,0.5,1.3,1.2,1.8,1.9c0.3,0.4,0.4,1.1-0.4,1.1c-2.1,0.1-4.2,0.2-6.2,0.1c-23.1-0.3-46.2-0.7-69.3-1
		c-30.9-0.4-61.8-0.2-92.7,0.1C-1637.7-345.8-1639.9-345.5-1642.2-346.1z"/>
	<path id="XMLID_447_" class="st2" d="M-1696.5-345.5c-1.4,1.1-2.8,0.8-4.1,0.8c-16,0.2-31.9,0.6-47.9,0.6
		c-36.6,0.1-73.2,0.2-109.9,0.2c-1.4,0-2.8,0-4.2-0.1c-0.3,0-0.7-0.2-0.8-0.5c-0.1-0.3,0-0.8,0.2-0.9c1.5-1.2,3-2.3,4.6-3.4
		c5-3.5,10-6.8,15.5-9.6c3-1.5,6.1-2.3,9.5-2.3c12,0,23.9-0.2,35.9-0.3c20-0.2,39.9-0.4,59.9-0.7c3.1-0.1,5.5,0.8,8.1,2.6
		c7.5,5.2,15.9,8.4,24.7,10.8C-1702.1-347.5-1699.3-346.8-1696.5-345.5z"/>
	<path id="XMLID_446_" class="st2" d="M-1587.7-377.2c-2.2,0-4.4,0-6.7,0c-1.4,0-1.8-0.8-0.9-2c2.7-3.9,5.3-7.7,7.2-12
		c0.5-1.2,1.4-1.9,2.8-2c1.7-0.1,3.4-0.4,5.2-0.5c7.1-0.4,14.2-0.6,21.3-1.1c3.3-0.2,6.5,0.3,9.7,1.5c9.4,3.5,18.8,7.1,27.9,11.3
		c0.8,0.4,1.6,0.7,2.3,1.2c0.2,0.1,0.3,0.6,0.3,0.9c0,0.1-0.2,0.2-0.4,0.2c-0.9,0.1-1.7,0.2-2.6,0.2c-17.5,0.5-35,0.9-52.5,1.4
		C-1578.6-377.9-1583.1-377.5-1587.7-377.2z"/>
	<path id="XMLID_445_" class="st2" d="M-1808.9-373.3c0.5-1.6,1.8-1.7,2.9-2.1c5.8-2.3,11.6-4.5,17.4-6.8c4.6-1.9,9.2-4,13.7-6.2
		c2.1-1,4.1-1.7,6.4-1.6c2.8,0.2,5.7-0.5,8.2,0.4c2.4,0.8,2.9,4.1,4.5,6.1c2.2,2.7,4.3,5.4,6.4,8.2c0.6,0.8,0.2,1.7-0.9,1.8
		c-0.9,0.1-1.7,0.1-2.6,0.1c-10.7-0.7-21.5-0.2-32.2,0c-7.1,0.1-14.2,0.1-21.3,0.2C-1807.2-373.1-1808-373.2-1808.9-373.3z"/>
	<path id="XMLID_444_" class="st2" d="M-1660.6-378.3c0.6-1.3,1-2.6,1.7-3.7c2.4-3.9,7.2-4.9,10.9-2.4c3.5,2.4,4.3,7.1,1.9,10.6
		c-2.5,3.6-7.4,4.3-11,1.7c-1.1-0.8-1.5-2.3-2.9-2.8c-1.3,0.7-1.2,2.1-2,3c-2.9,3.7-8.1,4.3-11.4,1.2c-3.1-2.8-3.2-7.7-0.4-10.8
		c3.1-3.4,8.3-3.2,11.5,0.4C-1661.7-380.2-1661.2-379.3-1660.6-378.3z"/>
	<path id="XMLID_443_" class="st2" d="M-1605.8-394.8c-4.9,0.1-8.7-3.1-8.8-7.6c-0.2-4.4,3.4-8.2,7.7-8c5.1,0.3,8.6,3.9,8.6,8
		C-1598.3-398.1-1601.4-394.9-1605.8-394.8z"/>
	<path id="XMLID_442_" class="st2" d="M-1628.2-381.8c0.1,4.2-3.3,7.7-7.5,7.7c-4.1,0.1-7.7-3.4-7.8-7.5c-0.1-4.2,3.3-7.7,7.5-7.8
		C-1631.8-389.4-1628.3-386-1628.2-381.8z"/>
	<path id="XMLID_441_" class="st2" d="M-1619.5-382.4c-4.2-0.1-7.5-3.6-7.4-7.8c0.1-4.2,3.6-7.6,7.8-7.5c4.2,0.1,7.5,3.6,7.4,7.9
		C-1611.9-385.6-1615.3-382.3-1619.5-382.4z"/>
	<path id="XMLID_440_" class="st2" d="M-1720.2-396.1c4.1,0.4,7.2,4.2,6.9,8.2c-0.4,4.1-4,7.3-8.1,7c-4.1-0.3-7.4-3.9-7.2-8
		C-1728.3-393.2-1724.5-396.5-1720.2-396.1z"/>
	<path id="XMLID_439_" class="st2" d="M-1678.6-377.5c0,4.3-3.3,7.6-7.5,7.6c-4.3,0-7.6-3.3-7.6-7.5c0-4.3,3.2-7.6,7.5-7.7
		C-1682-385.1-1678.7-381.7-1678.6-377.5z"/>
	<path id="XMLID_438_" class="st2" d="M-1738.1-390.4c-4.3,0-7.6-3.4-7.5-7.6c0-4.2,3.5-7.6,7.7-7.5c4.3,0,7.6,3.4,7.6,7.6
		C-1730.5-393.6-1733.8-390.3-1738.1-390.4z"/>
	<path id="XMLID_437_" class="st2" d="M-1702.8-372.9c-4.3,0-7.5-3.3-7.5-7.6c0-4.3,3.3-7.5,7.6-7.5c4.3,0,7.5,3.3,7.5,7.6
		C-1695.3-376.2-1698.6-372.9-1702.8-372.9z"/>
	<path id="XMLID_206_" class="st3" d="M-1727.7-569.9c-6.1,0.2-11.1-0.7-15.9-2.2c-2.8-0.9-5.5-2.2-7.7-4.1c-4.1-3.4-5.3-8-3.6-13.1
		c2-6.2,6.6-9.6,12.7-11c9.7-2.2,19.3-1.1,28.5,2.5c2.9,1.1,5.5,2.9,7.8,5c5.1,4.7,4.2,13-0.7,17c-3.2,2.5-6.9,4-10.8,4.9
		C-1721.1-570.2-1724.9-569.9-1727.7-569.9z M-1745.7-596.4c-5.1,3.3-7.5,7.1-7.1,12.1c0.3,4.1,3,6.6,7.4,8.3
		C-1748.1-582.8-1747.8-589.1-1745.7-596.4z M-1705-584.5c0-3.3-1.7-5.7-4.1-7.5c-0.7-0.5-1.8-1.3-2.2-1.1c-1.1,0.6-0.4,1.8-0.2,2.7
		c0.5,1.7,0.4,3.4,0.5,5.1c0.2,2.6-0.5,5.1-0.9,7.7c-0.1,0.8,0.6,1.4,1.2,1.1C-1707.1-578.1-1705.5-581-1705-584.5z"/>
	<path id="XMLID_202_" class="st3" d="M-1633.9-566.8c-4.4-0.1-9.2-0.4-13.8-2.1c-2.3-0.8-4.5-1.9-6.5-3.3c-5.8-4.1-6.8-12.9-0.9-18
		c3-2.5,6.3-4.4,9.9-5.5c8.4-2.5,16.9-3.5,25.6-1.5c6.3,1.4,11.1,4.7,13.1,11.2c1.6,5.1,0.3,9.6-3.8,13c-2.3,1.9-4.9,3.2-7.8,4.1
		C-1623.1-567.4-1628.1-566.5-1633.9-566.8z M-1648.1-591.2c-2.2,0.4-3.9,1.9-5.4,3.4c-4,4-3.8,9.5,0.6,13.1
		c1.6,1.3,3.5,2.2,5.4,2.9c0.4,0.2,1,0.3,1.4,0.1c0.6-0.3,0.2-0.9-0.1-1.3c-2.8-4.7-3-9.8-2.2-15
		C-1648.2-589-1647.4-589.9-1648.1-591.2z M-1615.8-572.8c4.7-2.1,7.3-4.9,7.3-9.4c0-2.3-0.8-4.4-2-6.3c-1.1-1.7-2.3-3.3-4.8-4.1
		C-1613.3-586-1612.7-579.8-1615.8-572.8z"/>
	<path id="XMLID_197_" class="st3" d="M-1676.3-227.9c-32.8,0.3-65.6,0.4-98.4,1.1c-27.1,0.6-54.2,0.4-81.2,1
		c-23.8,0.5-47.6,0.6-71.3,0.9c-1.6,0-3.1,0-4.7,0c-2.4-0.1-3.2-0.7-3.4-3c-0.3-3.8-0.1-7.6,0.6-11.4c1.1-6.2,3-12.2,5.2-18
		c3.8-9.9,8.3-19.5,13.3-28.8c9.2-17,21.5-31.5,35.3-44.8c5.8-5.5,11.6-11,18-15.8c8.1-6,16.6-11.3,25.7-15.8
		c21.9-11,44.6-20.1,67.6-28.3c15.9-5.7,26.6-16.6,30.7-33.4c1.5-6.3,2.6-12.6,2.5-19c-0.1-3.4-0.1-3.5-3.1-4.5
		c-9.2-3-16.5-8.7-22.4-16.3c-7.4-9.6-12.5-20.3-15-32.3c-2.3-11.1-3.7-22.2-5-33.4c-0.3-2.6-0.5-3-2.9-3.5
		c-15.1-3.3-29.9-20.9-28.7-40c0.2-3.3,0.9-6.5,2.2-9.6c6.2-14.2,20.8-15.9,31-11.6c0.5,0.2,0.9,0.6,1.2,0.9c0.2,0.2,0.3,0.7,0.2,1
		c-0.1,0.3-0.4,0.6-0.7,0.7c-1.3,0.3-2.4-0.3-3.5-0.7c-3.5-1.1-7.1-1.7-10.8-1c-7.2,1.4-12.3,5.5-15,12.3
		c-2.1,5.3-2.4,10.8-1.2,16.4c2.3,10.5,7.8,18.8,16.7,24.8c3.3,2.3,7,3.8,11,4.4c2.5,0.4,2.8,0.8,2.9,3.4c0.6,9.7,2.2,19.3,3.8,28.9
		c1.5,9.1,3.8,18,8.3,26.2c3.1,5.7,6.7,11,11.1,15.7c6.5,6.9,14.3,11.6,23.9,12.4c1.3,0.1,2.4,0.3,3.3,1.3c6.6,7,15.3,10,24.3,12.2
		c9.1,2.2,18.4,3.5,27.8,3.2c19.2-0.5,36.9-5.9,53.2-15.9c1.8-1.1,3.6-1.9,5.8-2.2c3.1-0.4,6.1-1.4,9-2.6c7.5-3.3,12.8-8.8,16.5-16
		c3.2-6.2,5.3-12.8,7.2-19.5c1.8-6.2,2.5-12.6,2.9-19c0.3-6.2,0.3-12.5,0.3-18.7c0-2.6-0.1-5.2-1.1-7.7c-0.6-1.3,0.2-2.3,1.7-2.6
		c16-3.4,24.4-14.3,28.2-29.4c1.2-4.7,0.9-9.6-0.6-14.4c-3.3-10.6-12.8-16.1-23.6-13.7c-2,0.4-4,1-6.1,1.4c-0.3,0.1-1.1-0.4-1.1-0.8
		c-0.1-0.4,0.3-0.9,0.5-1.3c0.2-0.3,0.6-0.4,0.9-0.5c12.8-5.2,28.4-0.8,32.6,16c1.4,5.7,1.1,11.4-0.6,17
		c-4.1,13.7-12.5,23.4-26.3,28c-2.3,0.8-2.5,0.8-2.2,3.3c1,8.7,0.4,17.3-0.1,26c-0.8,13-4.4,25.2-10.1,36.9
		c-4.5,9.2-11.5,15.5-21.2,18.9c-0.7,0.2-1.3,0.4-2,0.6c-1.1,0.4-1.8,1-1.9,2.2c-0.6,7.5-0.3,14.9,2.1,22.1
		c1.5,4.5,4.2,8.4,7.8,11.5c5.4,4.7,11.5,8.4,18.5,10.2c10.1,2.6,20.2,4.9,30.2,7.8c19.8,5.6,38.7,13.2,56.6,23.4
		c31,17.6,53.2,42.9,66.8,75.9c6.2,15,10.8,30.4,14.5,46.1c1,4.4,2,8.8,2.8,13.2c0.7,3.5-0.4,4.8-4.1,5c-6.2,0.2-12.5,0.2-18.7,0.3
		c-24.1,0.3-48.3,0.6-72.4,0.9c-24.7,0.3-49.3,0.6-74,0.9c-16.1,0.2-32.3,0.6-48.4,0.8c-14.4,0.1-28.8,0-43.2,0
		C-1676.3-228.2-1676.3-228-1676.3-227.9z M-1541.5-232.6C-1541.5-232.6-1541.5-232.5-1541.5-232.6c2.4,0.1,4.9,0.1,7.3,0.1
		c21.2-0.3,42.3-0.6,63.5-0.9c16.1-0.2,32.3-0.4,48.4-0.7c3.8-0.1,4.2-0.6,3.6-4.3c-0.1-0.3-0.1-0.7-0.2-1c-4.4-20-9.8-39.7-18-58.6
		c-12.8-29.4-32.9-52.3-60.3-69c-15.1-9.2-31.2-15.9-47.7-21.7c-12.1-4.3-24.7-7-37.1-10c-1-0.2-1.7,0.1-2,1.1
		c-0.4,1.1-0.8,2.3-1.2,3.4c-2.5,6.7-5.8,13-10.1,18.7c-10.8,14.3-25,23.8-41.9,29.6c-8.7,3-17.7,4.8-27,5.3c-2.8,0.2-3,0.3-3,3.1
		c0,5.6,0.1,11.1,0.3,16.7c0.6,19.8,1.2,39.5,1.8,59.3c0.3,8.8,0.6,17.7,0.9,26.5c0,0.7,0.1,1.4,0.1,2.1c0.1,1.2,0.8,1.9,2,1.9
		c2.1,0.1,4.2,0.1,6.2,0c5.2-0.1,10.4-0.3,15.6-0.3c9.4-0.1,18.7-0.1,28.1-0.2C-1588.7-231.9-1565.1-232.2-1541.5-232.6z
		 M-1800-229.3c1.5,0,4.1,0,6.7,0c26.5-0.3,53.1-0.7,79.6-1c13.4-0.2,26.7-0.2,40.1-0.4c7.2-0.1,6.2-0.1,6.1-6.4
		c-0.2-10.8-0.7-21.5-1-32.3c-0.5-20.3-0.9-40.6-1.4-60.9c-0.1-2.6-0.2-5.2-0.4-7.8c-0.1-1.8-0.7-2.3-2.7-2.4c-0.7,0-1.4,0-2.1,0
		c-10.7-0.3-21-2.1-31.1-5.4c-23-7.6-41.8-20.8-55-41.4c-0.4-0.6-0.7-1.2-1.2-1.7c-0.5-0.6-1.1-0.8-1.8-0.6
		c-0.8,0.2-1.7,0.5-2.5,0.8c-21.9,7.4-43.3,16-64,26.2c-9.2,4.5-18.2,9.2-26.6,15.2c-14.1,10.1-26.1,22.3-37.5,35.2
		c-6.7,7.6-12.4,15.8-17.4,24.6c-5.5,9.5-10,19.4-14.1,29.5c-3.1,7.6-5.7,15.3-6.4,23.5c-0.7,7.9-0.7,7.2,6.1,7.1
		c16.3-0.2,32.6-0.5,48.9-0.7c7.3-0.1,14.6-0.1,21.9-0.2C-1837.5-228.7-1819.3-229-1800-229.3z M-1671.5-343.1
		c6.5,0.1,12.8-0.7,19.1-1.8c14.2-2.6,27.3-7.9,38.9-16.6c11.7-8.7,20.4-19.7,25.4-33.5c0.4-1.1,0.8-2.3,1.1-3.5
		c0.2-0.7,0-1.3-0.9-1.6c-0.5-0.2-1-0.4-1.5-0.5c-8.7-3.1-16.2-7.8-21.9-15.2c-0.8-1.1-1.7-1.6-3.1-1.2c-1.3,0.4-2.7,0.5-4.1,0.9
		c-6.4,1.7-13,2.2-19.6,2.4c-15.3,0.5-30.4-1.3-45.3-5c-16-3.9-30.1-11.2-42.4-22.3c-1.4-1.3-2.8-2.6-4.3-3.8
		c-0.7-0.5-1.4-1-2.2-1.2c-0.7-0.2-1.5,0-1.6,0.8c-0.1,1-0.1,2.1-0.1,3.1c0,7.3-1.2,14.5-3.3,21.5c-2.5,8.3-6.7,15.6-13.1,21.5
		c-2.4,2.2-5.2,4-8,5.8c-2,1.3-2.1,1.6-0.8,3.7c4.6,7.7,10.3,14.4,17,20.2C-1721.8-351.7-1698-343.7-1671.5-343.1z"/>
	<path id="XMLID_193_" class="st3" d="M-720.2-29.7c0.1-22.4,18.5-40,40.9-38.2c21.2,1.7,32.3,17.7,34.4,31.1c0.1,0.5,0.2,1,0.2,1.5
		c0.3,2.4,0.6,4.8,0.9,7.2c2.4,1.1,4.6-0.7,7-0.6c3.3,0.2,6.6,0.4,9.8,1.3c2.7,0.7,2.8,0.7,3.1-2.1c0.5-4.5,1.6-8.9,3.7-12.9
		c5.9-11.4,15.1-18.2,27.7-20.6c18.2-3.6,39.6,8.9,43.6,30.9c3.2,18-8.3,39.8-31.2,43.8c-18.8,3.3-39.9-9.3-43.3-31.1
		c-0.5-3.1-1.9-4.7-4.7-5.4c-4.8-1.3-9.6-1.7-14.3,0.1c-1.4,0.5-2.4,1.3-2.7,2.8c-0.5,2-1,4-1.9,5.9c-6.4,15.1-18,23.4-34.1,23.9
		c-20.7,0.7-35-14-38.3-30.3C-719.9-25-720.4-27.5-720.2-29.7z M-717.2-30.3C-717.7-9.5-699.7,5-682.5,5.1
		c19.7,0.1,35.3-16.6,35.4-34.8c0.1-18.7-15.5-35.3-34.8-35.4C-701.8-65.2-717.6-48.5-717.2-30.3z M-551.3-25.6
		c0.7-19.7-16.6-35.2-34.8-35.3c-17.3,0-35.1,14-35.1,35.1c0,20.6,17.2,34.8,34.6,35C-566.8,9.4-550.8-7.3-551.3-25.6z"/>
	<path id="XMLID_192_" class="st3" d="M-1660-552.2c0.1,6.6-3.2,11.5-9,13.8c-5.3,2-10.8,2.3-16.3,0.4c-0.6-0.2-1.2-0.7-1.7-1.2
		c-0.2-0.2-0.2-0.7-0.2-0.9c0.1-0.3,0.5-0.7,0.7-0.7c0.8,0,1.7,0.2,2.5,0.4c3.4,0.9,6.9,0.9,10.3,0.4c5.2-0.8,9-3.3,10.6-8.7
		c0.6-2.1,0.5-4.1,0-6.1c-0.9-3.7-2.3-7.3-4-10.7c-2.4-4.6-4.9-9.2-7.4-13.7c-0.4-0.8-0.8-1.5-1-2.3c-0.1-0.2,0.2-0.7,0.5-0.8
		c0.2-0.2,0.7-0.2,0.9-0.1c1,0.4,1.5,1.4,2.1,2.2c4.1,6.8,7.9,13.8,10.6,21.4C-1660.6-556.5-1659.8-554.2-1660-552.2z"/>
	<path id="XMLID_191_" class="st3" d="M-1672.6-491.9c-3.5,0.4-7.2-0.5-11-1.2c-4.7-0.9-8.7-3.3-12.2-6.6c-0.5-0.5-0.9-1.2-0.4-1.8
		c0.4-0.7,1.1-0.6,1.8-0.2c0.2,0.1,0.3,0.2,0.4,0.3c7,6.3,15.6,7,24.4,6.8c8-0.2,14.8-3.4,20.6-8.7c1-0.9,1.8-2.2,3.3-2.5
		c0.3-0.1,0.7,0.1,0.9,0.3c0.2,0.2,0.4,0.7,0.3,0.9c-0.4,0.7-0.9,1.5-1.5,2.1C-1653.3-495.4-1661.9-491.5-1672.6-491.9z"/>
	<path id="XMLID_190_" class="st3" d="M-1796.6-568c-0.3,2.5,0.5,4.8,2,6.8c0.8,1.1,1.6,2.2,2.5,3.4c0.6,0.8,1.5,1.8,0.3,2.7
		c-0.8,0.6-1.6-0.2-2.2-0.9c-4.1-4.4-6.7-9.4-4.9-15.6c2.2-7.6,8-10.7,15.7-8.3c0.7,0.2,1.2,0.9,0.8,1.6c-0.2,0.4-0.8,0.7-1.3,0.7
		c-1,0-2.1-0.3-3.1-0.4c-5.3-0.4-9.4,3.1-9.9,8.4C-1796.6-569-1796.6-568.5-1796.6-568z"/>
	<path id="XMLID_189_" class="st3" d="M-1575.5-580.6c4.7,0,9.2,3.8,10.4,8.7c1.1,4.2,0.6,8.3-1.9,12c-1.1,1.7-2.3,3.5-4,4.7
		c-0.4,0.3-1,0.4-1.4,0c-0.4-0.4-0.5-1-0.2-1.4c0.9-1.3,1.8-2.5,2.7-3.8c2-2.6,2.7-5.5,2.5-8.8c-0.4-5.6-4.5-9.2-10.1-8.7
		c-1,0.1-2.1,0.3-3.1,0.4c-0.6,0-0.9-0.4-1.1-0.9c-0.3-0.6,0.2-1,0.6-1.3c1-0.8,2.3-0.7,3.5-0.8
		C-1576.9-580.5-1576.2-580.6-1575.5-580.6z"/>
	<path id="XMLID_188_" class="st3" d="M-1717.9-510.3c-0.5-0.3-1.1-0.5-1.2-0.8c-0.1-0.4,0.2-1.1,0.6-1.3c0.9-0.5,1.9-0.8,2.9-1.2
		c7.6-2.9,14.2-7.1,18.5-14.3c0.2-0.3,0.4-0.5,0.7-0.8c0.5-0.4,1-0.3,1.4,0.1c0.2,0.2,0.5,0.7,0.4,0.9c-0.3,1-0.7,2-1.3,2.8
		c-2.1,3.2-4.9,5.8-8,8.1c-3.5,2.6-7.4,4.5-11.5,6C-1716.2-510.6-1717-510.5-1717.9-510.3z"/>
	<path id="XMLID_187_" class="st3" d="M-1644.2-526.9c0.4,0.1,0.8,0,1,0.2c0.5,0.5,0.9,1,1.3,1.6c3.2,4.9,7.5,8.5,12.7,11.2
		c2.2,1.1,4.3,2.2,6.5,3.3c0.5,0.2,0.8,0.7,0.7,1.2c-0.2,0.9-0.9,0.9-1.6,0.9c-0.3,0-0.7,0-1-0.2c-6.9-3.3-13.6-6.8-18.2-13.3
		c-0.8-1.1-1.8-2.2-1.9-3.6C-1644.7-526-1644.4-526.5-1644.2-526.9z"/>
	<path id="XMLID_186_" class="st3" d="M-1669.2-486c-2.7-0.2-5.3,0.3-7.8-0.5c-0.5-0.2-0.8-0.6-0.6-1.2c0.1-0.3,0.4-0.7,0.6-0.7
		c0.8-0.2,1.7-0.3,2.5-0.4c5-0.1,10,0.3,15-0.8c0.4-0.1,1.1,0.3,1.2,0.7c0.4,0.7-0.1,1.4-0.8,1.6c-1.1,0.4-2.3,0.7-3.5,0.8
		C-1664.8-486.2-1667-486.1-1669.2-486z"/>
	<path id="XMLID_183_" class="st3" d="M-1688.9-263.7c3.9-0.8,8.2,3.9,8.2,9.9c0,5-3,8.3-8.3,8.7c-5,0.5-9.7-4.3-9.6-9.5
		C-1698.5-259.2-1695-263.9-1688.9-263.7z M-1689.5-247.9c3.7,0.1,6.2-2.3,6.2-6.1c0-3.8-2.5-7.2-5.3-7.2c-4.3,0-7.1,2.5-7.2,6.5
		C-1696-250.9-1693.2-248-1689.5-247.9z"/>
	<path id="XMLID_180_" class="st3" d="M-1679.9-323.5c0,4.7-3.9,8.6-8.5,8.7c-4.6,0.1-9-3.8-9.1-8.2c-0.1-4.7,3.6-8.4,8.6-8.4
		C-1683.8-331.4-1679.9-328.1-1679.9-323.5z M-1688.7-317.5c3.3,0.1,6-2.4,6.2-5.7c0.2-2.8-2.8-5.4-6.4-5.4c-3.4,0-5.7,2.1-5.9,5.3
		C-1694.9-320.2-1692.1-317.6-1688.7-317.5z"/>
	<path id="XMLID_179_" class="st3" d="M-1741.9-606.4c-3.5,0.1-5.7-0.2-6.8-2.7c-0.9-2.1,0-4.5,2.4-6.3c4.6-3.3,9.9-4.8,15.6-4.8
		c1,0,2,0.3,2.9,0.9c1.7,1.1,2.2,2.7,1.1,4.5c-0.4,0.7-1,1.5-1.6,2.1C-1732.2-608.8-1737.3-606.9-1741.9-606.4z"/>
	<path id="XMLID_178_" class="st3" d="M-1633.6-620.4c4.1,0.5,8.8,1.6,13,4.3c1.3,0.9,2.4,2,3.1,3.4c1.2,2.6-0.2,5.4-3,6.1
		c-0.5,0.1-1,0.2-1.6,0.2c-6.3-0.1-11.8-2.3-16.3-6.9c-0.5-0.5-0.9-1.1-1.2-1.7c-1-1.8-0.5-3.3,1.2-4.4
		C-1637.1-620.2-1635.8-620.3-1633.6-620.4z"/>
	<path id="XMLID_111_" class="st2" d="M-1496.8,1453.3c-1.4,0.1-2.8,0.1-4.2,0.1h-192.8v0.5c-63.7,0.2-127.5,0.4-191.2,0.6
		c-1.7,0-3.5,0-5.2-0.1c-1.5-0.1-2.2-1.3-1.6-2.6c0.8-1.5,1.7-3,2.6-4.5c9.5-16,18.4-32.2,25.4-49.5c6.5-15.9,11.8-32.3,15.3-49.1
		c1.4-6.6,3.1-13.2,4.3-19.8c1.2-7.2,2-14.4,2.9-21.7c0.1-0.9,0.2-1.7,0.3-2.6c0.3-2.9,1.8-4.7,4.7-5.5c10-2.6,19.1-7.3,28.2-12
		c2-1,4-2.1,6.1-3c2.8-1.2,4.4-0.3,4.9,2.6c0.4,2.2,0.6,4.5,0.9,6.7c3.4,26.5,11.6,51.4,25.4,74.3c3.8,6.3,8.1,12,13.5,17.1
		c6.3,6,13.9,9.8,21.9,12.8c5.5,2.1,11,3.9,16.7,5.3c1.4,0.3,2.8,0.7,4.1,1c0.4,0.1,0.7,0.2,1.1,0.3c9.4,2.1,18.9,2.5,28.5,2.2
		c11.3-0.3,22.1-2.9,32.6-7c0.6-0.2,1.2-0.5,1.8-0.7c0.8-0.3,1.6-0.7,2.4-1.1c9.4-4.4,16.9-11.3,23.3-19.5
		c11.5-14.8,19.6-31.5,25.6-49.2c4.6-13.7,7.5-27.8,9.2-42.1c0.7-5.7,1.8-6.4,6.9-3.9c3.8,1.8,7.4,3.7,11.1,5.7
		c6.6,3.5,13.5,6.4,20.7,8.3c3.6,1,5.1,3,5.4,6.6c0.8,7.2,1.7,14.5,2.7,21.7c1.4,9.4,4,18.7,6.1,27.9c6.5,28.5,17.8,55.1,32.3,80.4
		c2.6,4.5,5.3,9,7.9,13.5c0.7,1.2,1.6,2.3,1.8,3.7C-1494.8,1452-1495.5,1453.2-1496.8,1453.3z"/>
	<path id="XMLID_108_" class="st3" d="M-1457.2,1451.4c-9.9,1.3-19.8,1-29.6,1.5c-1,0.1-2.1,0.2-3-0.4c-0.3-0.2-0.5-0.6-0.5-0.8
		c0-0.3,0.3-0.6,0.5-0.8c0.7-0.6,1.6-0.5,2.5-0.5c12-0.4,23.9-0.9,35.9-1.3c7.6-0.3,15.3-0.6,22.9-0.9c0.7,0,1.4-0.1,2.1-0.2
		c0.8-0.2,1.2-0.8,1.1-1.5c-0.4-2-0.8-4.1-1.5-6c-3.9-10.6-8.6-20.8-13.6-30.9c-10.3-20.5-23.8-38.6-39.5-55.3
		c-17.8-18.8-38.1-34.4-59.8-48.4c-0.7-0.5-1.5-0.9-2.1-1.5c-0.3-0.3-0.6-1-0.4-1.3c0.2-0.3,0.9-0.7,1.3-0.6
		c1.1,0.4,2.2,0.9,3.2,1.6c3.7,2.3,7.4,4.6,10.9,7.2c12.4,9,24.8,17.8,35.9,28.4c13,12.3,25.2,25.4,35.6,40
		c5.1,7.1,9.7,14.4,13.8,22.1c6.2,11.5,11.9,23.2,16.4,35.4c1.3,3.4,2.4,6.9,2.5,10.6c0,2.1-0.6,2.9-2.7,3c-5,0.3-10,0.7-15.1,0.8
		C-1446.1,1451.5-1451.7,1451.4-1457.2,1451.4z"/>
	<path id="XMLID_107_" class="st3" d="M-1924.6,1453.1c-13.4-0.6-23.1-1-32.8-1.4c-0.5,0-1,0-1.6,0c-3.5-0.2-4.3-1.1-3.5-4.7
		c0.6-2.9,1.3-5.8,2.3-8.5c4.7-13.1,10.8-25.5,17.5-37.7c9.6-17.4,21.8-32.9,35.5-47.4c17.3-18.3,37.1-33.5,58-47.3
		c1.6-1,3.1-2.2,5-2.7c0.6-0.2,1,0.2,1.2,0.7c0.1,0.3,0,0.8-0.2,0.9c-1.1,0.9-2.2,1.7-3.3,2.4c-14.7,9.3-28.7,19.6-41.6,31.2
		c-24.9,22.2-45.6,47.6-59.7,78c-3.7,8-7.1,16.2-10.5,24.4c-0.1,0.3-0.2,0.7-0.3,1c-2.4,7.7-1.2,7,5,7.2c14.9,0.5,29.8,1.2,44.7,1.7
		c3.6,0.1,7.3,0.2,10.9,0.4c0.8,0,1.7,0.3,2.5,0.5c0.2,0.1,0.4,0.6,0.3,0.9c0,0.3-0.2,0.7-0.5,0.8c-0.9,0.6-2,0.4-3,0.4
		C-1908.6,1453.5-1918.5,1453.7-1924.6,1453.1z"/>
	<path id="XMLID_106_" class="st3" d="M-1685.9,1343c-1.8,0-3.2-1.7-3.3-3.8c0-2.4,1.6-4,3.7-3.9c1.7,0.1,2.9,1.5,3,3.5
		C-1682.4,1341.2-1683.9,1343-1685.9,1343z"/>
	<g id="XMLID_72_">
		<g id="XMLID_76_">
			<path id="XMLID_98_" class="st2" d="M-2373.7-226.5c-19.3,0-38.5,0.1-57.8,0c-31.4-0.1-62.8-0.4-94.3-0.5
				c-39.4-0.2-78.8-0.3-118.2-0.5c-2.9,0-5.9-0.2-8.8-0.3c-2.7-0.1-2.9-0.5-2.6-3.1c0.3-3.5,1.5-6.8,2.8-10
				c4.1-10,8.7-19.6,13.6-29.2c5-9.7,9.7-19.6,14.1-29.6c8.2-18.4,19.1-35,32.9-49.7c6.6-7,14.2-12.7,22.7-17.3
				c7.3-4,14.9-7.5,22.6-10.5c18.9-7.3,37.9-14.6,57-21.4c13.7-4.8,27.5-9.7,41.2-14.6c0.5-0.2,1-0.4,1.5-0.5c3.1-0.9,4-0.3,4.8,2.8
				c1,3.7,1.7,7.5,3,11c8.6,23.6,24.6,39.6,49.2,46c18.8,4.9,36.9,2,53.8-7.4c18.9-10.4,31.7-26.1,39.3-46.2
				c2.2-5.9,1.6-5.8,7.6-3.6c27.5,10.2,55.2,19.9,82.4,30.7c8.9,3.5,17.6,7.3,26.2,11.5c15.4,7.5,29.5,17,40.7,30.2
				c8.8,10.4,16.5,21.5,22.6,33.6c4.7,9.1,8.5,18.6,11.8,28.3c5.1,14.8,10,29.6,13.5,44.8c0.2,0.7,0.4,1.3,0.5,2
				c0.8,3.4-1.1,5.3-4,5c-0.9-0.1-1.7,0-2.6,0c-27.1-0.1-54.2-0.1-81.3-0.2c-12.8,0-25.7-0.2-38.5-0.2c-35.9-0.2-71.9-0.4-107.8-0.5
				c-16-0.1-31.9,0-47.9,0C-2373.7-226.2-2373.7-226.3-2373.7-226.5z"/>
			<path id="XMLID_95_" class="st3" d="M-2257.1-741c2.2,0.9,3.8,1.4,5.4,2.1c5.5,2.4,9.5,6.3,11.5,12.1c2,6,1.4,11.6-2.3,16.8
				c-1,1.4-2,2.9-3.3,4c-5.9,5.1-7.6,11.8-7.7,19.2c-0.1,2.1,0,4.2,0.1,6.2c1,14,1.2,28.1,1.5,42.1c0,1.6,0.1,3.1,0,4.7
				c-0.1,1.9,0.6,3.2,2.3,4.2c2.1,1.2,4.1,2.7,5.9,4.3c15.5,14.1,14.4,37.1-2.3,49.8c-5.8,4.4-12.5,6.8-19.6,7.6
				c-2.5,0.3-2.8,1-2.7,3.3c0.4,6.6,0.6,13.2,0.2,19.8c-1.2,21.1-7.1,40.6-20.3,57.5c-2,2.6-4.3,5-6.6,7.4c-1.2,1.2-1.7,2.5-1.6,4.2
				c0.2,3.6,0.3,7.3,0.5,10.9c0.6,10.6,1.3,21.1,2,31.7c0.5,7.3,1.1,14.5,1.5,21.8c0.2,2.9,0.2,5.9,0.2,8.8c0,0.4-0.3,1-1,1
				c-0.6,0-1.1-0.3-1.1-0.8c-0.4-2.4-0.7-4.8-0.9-7.2c-0.4-5.9-0.7-11.8-1.1-17.7c-0.2-3-0.4-3.3-3.6-2.8
				c-5.9,0.9-11.8,0.8-17.7,0.8c-31.1-0.2-60.4-7.7-87.7-22.8c-9.1-5.1-17.9-10.7-25.6-17.8c-2-1.8-4.3-3.5-6.9-4.9
				c-1,2.5-1,5-1.1,7.3c-0.8,14-1.6,28.1-2.5,42.1c-0.3,5.5-0.7,11.1-1.1,16.6c-0.1,1.9-0.4,3.8-0.7,5.7c-0.1,0.7-0.4,1.5-1.2,1.5
				c-1.1,0-1.3-1-1.3-1.9c0-2.4,0.1-4.9,0.2-7.3c0.6-8.5,1.2-17,1.7-25.4c0.7-11.3,1.4-22.5,2.1-33.8c0-0.7,0-1.4,0.1-2.1
				c0.7-4-0.6-7.1-3.6-10.2c-11.9-12.5-18.9-27.7-22.5-44.5c-2.6-12-2.9-24.1-2.3-36.2c0.1-1,0.1-2.1,0.1-3.1c0-1-0.5-1.6-1.5-1.8
				c-2.1-0.3-4.1-0.6-6.2-1c-8.2-1.9-15.2-5.9-20.6-12.4c-11.8-14.3-9.3-34.6,5.8-46c1.2-0.9,2.5-1.8,3.9-2.6
				c1.5-0.8,1.7-1.9,1.4-3.5c-3.6-17.8-4.2-35.8-3.5-53.9c0.6-14.7,2.2-29.4,5.9-43.8c3.3-12.8,9.5-24.2,18.9-33.6
				c2.9-3,6-5.8,9.1-8.6c7.8-7,16.8-11.6,26.8-14.5c12-3.6,24.2-6.1,36.6-7.5c6.9-0.8,13.8-1.4,20.6-2.6c12.4-2.1,23.9-7,35.3-12.2
				c6.8-3.1,13.5-6.3,20.7-8.5c5.7-1.7,11.5-2.4,17.4-2c8.3,0.5,16.9,7.2,18,18.5c0.6,5.8-0.1,11.4-1.6,17c-1,3.7-2.1,7.3-3.1,11
				c-0.4,1.4,0.2,2.1,1.5,1.7c2.9-0.7,5.7-1.5,8.5-2.3c5-1.5,10.2-2.1,15.4-1.9c0.7,0,1.4,0,2.1,0.1c8.6,0.7,13.8,7.3,12.3,15.9
				c-0.8,5.1-2.9,9.6-6.1,13.6C-2253.5-745.1-2255.1-743.3-2257.1-741z M-2369.3-456.4c10.7,0.4,21.4-0.5,31.8-3.3
				c30.9-8.1,51.7-27.3,61.5-57.8c5-15.4,6.2-31.3,4.7-47.3c-0.4-4.3-0.4-5.3,4.7-6c0.7-0.1,1.4-0.1,2.1-0.2
				c9.3-1.4,17.2-5.5,22.9-13.1c5.5-7.3,7.5-15.6,5.1-24.6c-1.9-7-5.9-12.5-11.7-16.7c-6.1-4.4-12.9-6.5-20.4-6.8
				c-3.9-0.1-4.8-0.9-5.5-4.8c-0.2-1.2-0.4-2.4-0.5-3.6c-0.4-4.8-0.8-9.7-1-14.5c-0.4-8.9-2-17.6-4.5-26.1
				c-2.8-9.6-7-18.5-13.4-26.3c-8.1-9.9-18.3-15.6-31.4-15.8c-6.8-0.1-13.5-0.1-20.3,0.3c-11.2,0.8-22.5,2-33.7,2.8
				c-13.5,0.9-26.9,3-40.2,5.5c-7.7,1.4-15.2,3.6-22.3,7c-12.9,6.2-21.4,15.6-23.1,30.4c-0.8,6.6-1.5,13.1-1.6,19.7
				c-0.1,6.4-0.1,12.8,0.6,19.2c0.5,5,0.7,6-5.2,6.2c-9.8,0.4-18.2,4.3-24.6,11.8c-10.1,11.8-9.2,27.6,0.8,38.4
				c5.9,6.4,13.2,10,21.8,10.9c1.5,0.2,3.1,0.5,4.6,0.9c1.1,0.3,1.7,1.2,1.6,2.4c0,0.9-0.2,1.7-0.3,2.6c-1.3,15-0.4,29.9,3.7,44.3
				c9.1,31.4,29.3,51.7,60.8,60.6C-2391.6-457.1-2380.6-456-2369.3-456.4z"/>
			<path id="XMLID_94_" class="st3" d="M-2369-314c-20-0.1-37.9-5.9-54.3-16.7c-15.3-10.1-27.4-23.3-37-38.9
				c-3.6-5.9-6.8-12.1-9.5-18.5c-0.3-0.8-0.9-1.6-0.5-2.5c0.1-0.3,0.4-0.6,0.7-0.7c0.3-0.1,0.7-0.1,0.9,0.1c1.4,0.9,1.7,2.6,2.3,4
				c3.9,8.7,8.6,17,14.3,24.7c11.6,15.9,25.8,28.5,43.7,36.8c13.8,6.4,28.2,9.5,43.4,8.7c19.5-1.1,36.8-7.9,52.2-19.7
				c16.6-12.8,28.4-29.2,36.8-48.3c0.6-1.4,0.9-3,2.1-4.1c0.4-0.4,0.9-0.4,1.4-0.1c0.2,0.2,0.5,0.6,0.5,0.8c-0.2,1-0.4,2-0.8,3
				c-6.4,15.2-15.1,28.9-26.7,40.6c-11.1,11.3-24,19.9-39,25.2C-2348.4-315.8-2358.8-314.1-2369-314z"/>
			<path id="XMLID_91_" class="st3" d="M-2257.2-284c10.6,0,21.2,0,31.7,0c6.7,0,5.9,0.7,5.3,6.1c-1.7,14.6-3.1,29.3-4.7,43.9
				c-0.2,1.5-0.5,3.1-0.9,4.6c-0.1,0.4-0.7,0.9-1.1,0.9c-0.9,0.1-1.2-0.7-1.2-1.3c0-1.6,0.1-3.1,0.2-4.7c1.1-10,2.2-20,3.3-30
				c0.2-2-0.3-2.6-2.2-2.5c-18.9,0.8-37.8,0.5-56.7,0.6c-2.4,0-4.9,0.2-7.3,0.3c-2.6,0.2-2.8,0.4-2.9,3.2c-0.7,10.7-1.3,21.5-2,32.2
				c-0.1,1.4,0.1,2.8-0.6,4.1c-0.1,0.2-0.6,0.4-0.9,0.4c-0.3,0-0.7-0.3-0.8-0.5c-0.2-0.8-0.4-1.7-0.4-2.5c0.6-11.9,1.3-23.9,2-35.8
				c0.2-3.8,0.4-7.6,0.6-11.4c0.1-1.4,0.1-2.8,0.3-4.1c0.4-2,1.1-2.6,3.2-2.7c5-0.1,10.1-0.1,15.1-0.2c6.6,0,13.2,0,19.8,0
				C-2257.2-283.6-2257.2-283.8-2257.2-284z M-2257.1-281.2c0,0,0,0.1,0,0.1c-10.7,0.3-21.5,0.5-32.2,0.8c-2.9,0.1-2.9,0.1-3.3,2.8
				c-0.2,1.4-0.4,2.7-0.5,4.1c-0.4,4.5-0.2,4.6,4.4,4.6c11.8,0,23.6,0.1,35.4-0.2c8.1-0.2,16.3,0.1,24.4-0.7
				c5.8-0.6,4.6,0.4,5.6-5.2c0.3-1.5,0.3-3.1,0.4-4.7c0.1-1-0.4-1.7-1.5-1.7c-1.2-0.1-2.4,0-3.6,0
				C-2237.6-281.2-2247.3-281.2-2257.1-281.2z"/>
			<path id="XMLID_88_" class="st3" d="M-2423-642.1c6.3-0.2,12.2,1,17.9,3.1c2.9,1.1,5.5,2.8,7.9,4.8c5.8,5,4.5,13.7-0.8,17.6
				c-3.3,2.4-7,4-10.9,4.6c-8.2,1.4-16.5,1.6-24.7-0.9c-2.8-0.9-5.5-2-7.9-3.8c-4.8-3.6-6.3-8.6-4.3-14.2c1.8-5.1,5.5-8.3,10.6-9.9
				C-2431.2-642-2427.1-642.3-2423-642.1z M-2400.1-632.8c-1,1-0.6,2.1-0.8,3.1c-1.4,7.2-5.4,12.2-12.4,14.7c-2.9,1-5.8,0.8-8.8,0.6
				c-9.3-0.7-16.1-7.6-16.6-16.9c-0.1-0.9,0-1.7-0.1-2.6c0-0.3-0.2-0.7-0.4-0.8c-0.6-0.3-1,0.1-1.3,0.4c-0.7,1-1.5,1.9-2,3
				c-2.7,5.2-1.5,9.8,3.3,13.1c2.5,1.7,5.3,2.6,8.1,3.4c6,1.7,12.1,1,18.1,0.8c4.7-0.2,9.2-1.8,13.1-4.5c2.6-1.8,3.9-4.5,3.8-7.6
				C-2396.1-629-2397.6-631.3-2400.1-632.8z"/>
			<path id="XMLID_85_" class="st3" d="M-2319.5-642.1c3.5-0.1,7.4,0.2,11.2,1.4c5.1,1.6,8.7,4.8,10.6,9.9
				c2.1,5.6,0.6,10.7-4.2,14.2c-2,1.5-4.1,2.5-6.4,3.3c-9.5,3.2-19,3-28.6,0.8c-2.9-0.7-5.5-2-8-3.7c-5.9-4-7.2-13.1-1-18.3
				c2.8-2.4,6-4.1,9.5-5.2C-2331.1-641.5-2326.6-642.1-2319.5-642.1z M-2341.8-633.6c-8.3,3.8-6.2,13.1-0.3,16
				c1.7,0.8,3.4,1.8,5.2,2.3c9.4,2.6,18.8,2.5,28.2-0.6c2-0.7,3.8-1.7,5.5-3c5.4-4.3,4.7-13.3-1.3-16.9c-0.1-0.1-0.4-0.1-0.5-0.1
				c-0.2,0.2-0.5,0.5-0.5,0.7c0.1,1,0.4,2,0.5,3.1c0.5,6.4-2.2,11-7.7,14.1c-4.8,2.7-9.9,3-15.1,2c-7.2-1.4-11.6-5.8-13-13.2
				C-2341.1-630.6-2341.4-632.1-2341.8-633.6z"/>
			<path id="XMLID_84_" class="st3" d="M-2323.1-656.1c-9.5,0.9-18.7,0.6-27.8,2.3c-2.7,0.5-4-0.5-4.4-3.1c-0.4-2.4-0.7-4.8-0.7-7.2
				c0.1-4,1.6-5.6,5.7-5.9c3.1-0.3,6.2-0.3,9.3-0.2c10.4,0,20.7,1.6,31,2.6c1.2,0.1,2.4,0.5,3.6,0.7c5.6,1.1,5.8,2.9,5.4,8.1
				c-0.2,2.2-1.5,3.4-3.8,3.5c-2.4,0.1-4.8-0.1-7.3-0.2c-2.6-0.1-5.2-0.4-7.8-0.5C-2321-656.1-2322.2-656.1-2323.1-656.1z"/>
			<path id="XMLID_83_" class="st3" d="M-2415.7-666.8c3.5,0,6.9-0.2,10.4,0c5.4,0.3,7.7,2.6,7.3,9.5c0,0.3-0.2,0.7-0.2,1
				c-1.2,5.7-2.5,6.5-8.2,5.8c-9.3-1.1-18.5-2.2-27.9-2.6c-3.1-0.1-6.2,0.6-9.3,0.8c-4.7,0.3-7.6-3.9-5.9-8.2c0.7-1.8,2.3-2.6,4-3
				c4-0.9,8.1-1.8,12.2-2.3C-2427.4-666.5-2421.6-667.2-2415.7-666.8z"/>
			<path id="XMLID_82_" class="st3" d="M-2374-556.5c4.4,0.2,8.6-1.1,12.5-3.1c3.1-1.6,4.9-3.8,4.5-7.5c-0.2-1.7-0.2-3.5-0.5-5.2
				c-1.8-10.2-3.7-20.5-5.5-30.7c-1.3-7.7-2.5-15.4-3.7-23.1c-0.1-0.8-0.1-1.7,0-2.6c0-0.2,0.4-0.5,0.7-0.6c0.3-0.1,0.7,0,0.9,0.2
				c0.8,0.8,0.8,1.9,0.9,2.9c1.3,7.7,2.6,15.4,3.9,23.1c1.6,9.2,3.3,18.4,4.9,27.7c0.4,2.6,0.9,5.1,1.1,7.7c0.4,4-1,7.2-4.4,9.4
				c-6.9,4.5-14.6,5.4-22.5,3.9c-3.1-0.6-5.2-2.6-6.5-5.5c-1.1-2.6-1.6-5.3-1.9-8.1c-1.1-12-0.5-23.9,1.3-35.8
				c0.9-6.3,1.9-12.7,2.9-19c0.3-1.7,0.5-3.4,1.4-4.9c0.1-0.2,0.6-0.3,0.9-0.4c0.7-0.1,0.9,0.5,1,1c0.1,1,0,2.1-0.1,3.1
				c-1.1,7.2-2.1,14.4-3.3,21.6c-1.7,10.5-2.3,21-1.5,31.6c0.2,2.6,0.6,5.2,1.2,7.7c1.1,4.4,3.1,6.1,7.6,6.6
				C-2376.8-556.4-2375.4-556.5-2374-556.5z"/>
			<path id="XMLID_79_" class="st3" d="M-2317.2-540.9c0.3,14.6-8.4,26-21.5,29c-11.7,2.7-23.9-2.5-29.4-12.5
				c-1-1.8-1.8-3.8-2.2-5.8c-0.3-1.4,0.5-2.5,2-2.3c12.2,1,21-5.8,29.5-13c3.8-3.2,5.8-7.7,7.6-12.3c1.1-2.7,2-5.5,3-8.3
				c0.3-0.9,0.9-1.6,1.8-1.6c0.9-0.1,1.6,0.6,2.1,1.3c0.4,0.6,0.7,1.2,1,1.8C-2319.8-556.8-2317.6-548.7-2317.2-540.9z
				 M-2325.9-563.9c-1.2,3.1-2.1,5.1-2.9,7.2c-3,7.9-8,14.1-15.1,18.6c-2.1,1.3-4.1,2.5-6.2,3.7c-4.7,2.6-9.7,4.6-15.2,4.6
				c-1.6,0-1.8,0.5-1.3,1.9c2.1,5.2,5.7,9,10.8,11.4c16.9,7.9,35.6-3.7,35.9-22.2C-2319.8-547.1-2322.1-555.1-2325.9-563.9z"/>
			<path id="XMLID_78_" class="st3" d="M-2247.7-599.9c-0.3,4.9-2.6,9.5-7.5,12.7c-0.6,0.4-1.3,0.5-1.9,0.6c-0.3,0-0.7-0.2-0.8-0.5
				c-0.2-0.2-0.2-0.7-0.1-1c0.4-1.1,1.4-1.5,2.2-2.1c6.5-4.7,6.1-13.8,2.9-18.7c-2.4-3.7-5.7-6-9.8-7.3c-1.8-0.5-2.8-1.6-2.3-2.2
				c0.8-0.9,1.9-0.8,2.9-0.5C-2254.1-617.1-2247.6-609-2247.7-599.9z"/>
			<path id="XMLID_77_" class="st3" d="M-2474.1-619.1c0.4,0.3,0.8,0.6,1,1c0.3,0.5-0.1,1.1-0.6,1.3c-1.3,0.5-2.6,0.9-3.9,1.5
				c-5.7,2.4-10.2,8.2-9.9,15.1c0.2,3.7,1.5,6.7,4.1,9.2c0.6,0.6,1.4,1,2,1.6c1.2,1,1.6,2,0.9,2.5c-0.8,0.7-1.6,0.3-2.4-0.2
				c-5.5-3.4-8.2-8.6-7.7-14.9c0.7-9.2,7.2-14.9,14.1-16.8C-2475.6-619-2474.9-619-2474.1-619.1z"/>
		</g>
		<g id="XMLID_73_">
			<ellipse id="XMLID_75_" class="st1" cx="-2300.4" cy="-591.3" rx="20.1" ry="14.6"/>
			<ellipse id="XMLID_74_" class="st1" cx="-2442" cy="-591.3" rx="20.1" ry="14.6"/>
		</g>
	</g>
	<g id="XMLID_28_">
		<g id="XMLID_32_">
			<path id="XMLID_71_" class="st2" d="M-1662.6,495.7c-29.5,0-59,0.3-88.5-0.1c-47.6-0.6-95.1-0.7-142.7-1
				c-20.5-0.1-41-0.4-61.4-0.6c-0.2,0-0.3,0-0.5,0c-4-0.1-4-0.1-3.5-4.1c5.2-35.8,17.8-68.7,39.1-98.1c9.7-13.4,20-26.2,32.5-37.1
				c5.6-4.9,11.6-9.4,17.8-13.6c18.6-12.3,38.1-22.8,58.7-31.3c22.9-9.5,46.3-17.8,70-25c2.3-0.7,4.7-1.3,7.1-1.7
				c2.2-0.4,2.7,0,3,2.3c1.1,6.6,4.6,11.9,8.7,16.9c3.6,4.3,8,7.7,12.8,10.5c10.8,6.4,22.5,9.9,34.9,11.3c25.9,2.8,48.7-4.7,69-20.5
				c5.3-4.1,9.7-8.9,12.4-15.2c1.3-3,2.6-3.4,5.9-2.6c7.3,1.7,14.4,3.9,21.5,6.3c20.4,6.8,40.6,14.2,60.4,22.6
				c21.3,9.1,41.3,20.5,60.2,33.9c10.5,7.4,19.8,16.4,28.2,26.2c12.5,14.6,23.1,30.3,32.3,47.2c9.8,18,15.5,37.4,19.8,57.3
				c0.9,4.2,1.8,8.5,2.3,12.8c0.6,5.2-0.3,6.2-5.6,6.1c-16.8,0-33.7-0.2-50.5-0.2c-0.9,0-1.7-0.1-2.6-0.1
				c-21.9-0.1-43.7-0.3-65.6-0.4c-39.1-0.2-78.1-0.4-117.2-0.7c-19.4-0.2-38.9-0.5-58.3-0.7
				C-1662.6,495.9-1662.6,495.8-1662.6,495.7z"/>
			<path id="XMLID_67_" class="st3" d="M-1716.2,138.6c6.4-0.2,12.3,0.9,18,3.1c3,1.1,5.6,2.7,8,4.8c6,5.1,4.7,14-1,18
				c-3.3,2.3-7,3.9-10.9,4.5c-7.9,1.2-15.8,1.5-23.6-0.8c-3-0.9-5.9-2-8.4-3.9c-5-3.7-6.6-8.8-4.3-14.6c2-5,5.6-8.2,10.8-9.7
				C-1723.9,138.8-1719.9,138.4-1716.2,138.6z M-1698.3,164.6c2.9-0.6,4.5-1.6,5.9-2.7c4.4-3.6,4.6-9,0.7-13.1
				c-0.6-0.6-1.3-1.1-2-1.6c-0.4-0.3-0.9-0.6-1.3-0.2c-0.2,0.2-0.3,0.6-0.2,0.9C-1694.1,153.5-1694.7,158.8-1698.3,164.6z
				 M-1730.2,163.4c-0.5-3.6-1.4-6.6-1.4-9.7c0-3.3,1.4-6.3,1.9-10.1c-4.6,2.5-6.7,6.1-7,10.6
				C-1737,158.5-1734.5,161.3-1730.2,163.4z"/>
			<path id="XMLID_63_" class="st3" d="M-1613.4,138.6c4.2-0.1,8.2,0.2,12,1.3c5.1,1.5,8.8,4.7,10.8,9.7c2.2,5.8,0.7,11-4.4,14.6
				c-3,2.2-6.4,3.4-10,4.2c-8.2,2-16.4,1.6-24.6-0.2c-2.7-0.6-5.2-1.8-7.6-3.3c-6.6-4-8-13.6-1.4-18.9c2.9-2.3,6-4,9.5-5.1
				C-1623.8,139.3-1618.6,138.3-1613.4,138.6z M-1592.3,154.1c-0.5-4.1-2.2-7.8-6.4-10.1c-0.3-0.2-0.7-0.4-0.9-0.3
				c-0.6,0.2-0.5,0.8-0.4,1.2c1.9,5.9,2.2,11.8-0.1,17.7c-0.1,0.2-0.2,0.4-0.1,0.5c0.2,0.2,0.5,0.6,0.7,0.5
				C-1595.8,162.9-1592.3,158.5-1592.3,154.1z M-1634.6,146.8c-0.2,0-0.3,0-0.5,0.1c-6.5,3.8-6.9,11.3-0.8,15.6
				c0.7,0.5,1.8,1.2,2.3,0.9c1.2-0.7,0.3-1.8-0.1-2.7c-0.9-2.3-0.9-4.7-0.8-7.1c0.1-2.1,0.3-4.1,0.5-6.2
				C-1634,147.3-1634.4,147-1634.6,146.8z"/>
			<path id="XMLID_60_" class="st3" d="M-1662,309.5c-13.3,0.4-26.3-1.2-39-5.3c-10.2-3.3-19.5-8.1-27.9-14.8
				c-15.3-12.3-25.1-28.1-30.2-46.9c-3.9-14.6-5-29.4-3.6-44.4c0.2-2.5,0-2.9-2.7-3.2c-9.5-0.9-17.7-4.8-24.3-11.8
				c-6-6.4-9.1-14.1-8.7-22.7c0.4-10.1,5-18.3,13-24.5c0.5-0.4,1.1-0.8,1.7-1.2c4.3-2.9,3.4-1.7,2.7-6.7
				c-3.7-25.1-0.7-49.1,10.6-71.9c4.7-9.5,10.7-17.8,19.2-24.2c6.8-5.1,14.3-7.8,22.8-7.1c3.6,0.3,7.2,1.2,10.6,2.4
				c1.7,0.6,3.3,0.8,5-0.2c7.6-4.2,16.1-5.6,24.5-6.2c9.1-0.7,18.3-1.3,27.6-0.6c10.1,0.8,19.9,2.7,29.7,4.9c1.4,0.3,2.7,0.6,4,1.1
				c1.1,0.3,2,0.3,3-0.2c12-5.2,23.8-3.8,35.3,1.4c11.9,5.3,21.2,13.7,28,24.9c4.7,7.8,8,16.1,10.6,24.8c4.1,14.2,6.4,28.8,5.9,43.6
				c-0.1,3-0.8,5.8-1.1,8.8c-0.2,1.4,0.2,2.3,1.4,3c3.6,1.9,6.7,4.3,9.5,7.2c6,6.4,9.2,14,8.8,22.7c-0.4,10-4.9,18.3-12.8,24.6
				c-5.6,4.4-11.9,7-19,7.8c-0.7,0.1-1.4,0.1-2.1,0.2c-1.5,0.2-2,0.9-1.8,2.5c0.9,6.6,0.8,13.2,0.4,19.8c-0.8,15-3.9,29.6-10.8,43.1
				c-12.5,24.4-32.3,39.3-58.7,45.9C-1640.8,308.9-1651.4,309.8-1662,309.5z M-1670,22.7c-8,0-15.1,0.6-22.2,1.3
				c-12.5,1.2-23.6,6.2-33.3,13.7c-9.3,7.2-16.4,16.5-20.7,27.6c-5.6,14.5-9,29.5-10.6,44.9c-0.6,5.5-0.8,11.1-0.9,16.6
				c0,3.1-0.9,3.9-4.1,4.2c-0.7,0.1-1.4,0-2.1,0c-7.9,0.2-14.9,3-20.9,8.1c-13.6,11.4-14.3,30.8-1.6,43.2c5.9,5.8,13.2,8.8,21.3,9.9
				c5.4,0.7,5.6,0.7,5.2,6c-0.7,10.6-0.6,21.2,1.1,31.7c1.9,12.1,5.6,23.6,11.8,34.2c12.6,21.4,31.6,34.1,55.5,39.7
				c12.4,2.9,25.1,3.4,37.8,2.8c8.5-0.4,16.9-1.5,25.2-3.8c22.2-6.2,39.7-18.6,51.5-38.7c7.9-13.4,11.8-28.1,13-43.5
				c0.6-7.3,0.4-14.6,0-21.8c-0.4-5.8-0.3-5.8,5.6-6.6c8.9-1.2,16.6-4.8,22.6-11.7c9.3-10.6,9.7-25.8,1-36.8
				c-4.6-5.8-10.5-9.4-17.6-11.5c-3.2-1-6.5-1.1-9.8-1.2c-2.7-0.1-3.5-0.8-4-3.2c-0.4-2-0.7-4.1-1-6.2c-0.7-7.1-1.3-14.2-2.1-21.2
				c-2.1-19.4-9.9-36.4-22-51.4c-6.7-8.3-15.1-14.2-25.6-17c-5.4-1.4-10.6-3.1-16-4.4C-1645.4,24.6-1658,22.3-1670,22.7z"/>
			<path id="XMLID_59_" class="st3" d="M-1669.1,348.1c-20.7-0.3-42.5-7.8-61.2-23.9c-8.3-7.2-15.1-15.8-20.2-25.6
				c-0.5-1.1-1.4-2-1.2-3.4c0.1-0.3,0.3-0.7,0.6-0.8c0.2-0.1,0.7-0.1,1,0c1.2,0.6,1.5,1.8,2.1,2.9c3.2,6,6.9,11.6,11.4,16.7
				c13.7,15.5,30.9,25.1,51,29.3c25.3,5.2,49.3,1.1,71.6-12.1c13.6-8,24.4-18.8,32.4-32.4c0.5-0.9,1-1.8,1.6-2.7
				c0.5-0.7,1-1.6,2-0.9c0.8,0.6,0.6,1.6,0.2,2.4c-0.8,1.5-1.6,3.1-2.6,4.5c-11.2,17.8-26.7,30.4-46,38.3
				C-1638.6,345.6-1651.9,348.1-1669.1,348.1z"/>
			<path id="XMLID_58_" class="st3" d="M-1531.1,456.7c0.4,0.1,0.9,0.1,1,0.3c0.4,0.7,0.8,1.5,1,2.3c2,10.6,5.3,20.8,8.2,31.1
				c0.1,0.5,0.3,1,0.3,1.5c0,0.3-0.3,0.6-0.6,0.7c-0.3,0.1-0.7,0.1-1-0.1c-0.9-0.4-1.2-1.2-1.4-2.1c-2.6-9.1-5.7-18.1-7.4-27.5
				c-0.3-1.7-1.2-3.3-0.9-5.1C-1531.7,457.4-1531.3,457-1531.1,456.7z"/>
			<path id="XMLID_57_" class="st3" d="M-1824,486.8c0.2-0.9,0.4-2.3,0.8-3.6c2-7,3.9-14,5.1-21.2c0.1-0.7,0.3-1.4,0.7-2
				c0.2-0.4,0.7-0.8,1.3-0.4c0.3,0.2,0.6,0.4,0.7,0.7c0.1,0.5,0.2,1,0.1,1.5c-1.5,8.9-4.1,17.5-6.3,26.3c-0.1,0.6-0.6,1.4-1.5,0.9
				c-0.4-0.2-0.5-0.8-0.8-1.2C-1824.1,487.6-1824,487.4-1824,486.8z"/>
			<path id="XMLID_56_" class="st3" d="M-1671.9,331.6c-0.5,2.8-0.9,5.5-2,8c-0.1,0.3-0.8,0.4-1.3,0.5c-0.1,0-0.5-0.5-0.5-0.8
				c-0.3-2.8,0.9-5.4,1.4-8c0.1-0.6,0.6-1.2,1.5-1.1C-1671.9,330.3-1671.9,331-1671.9,331.6z"/>
			<path id="XMLID_55_" class="st3" d="M-1680.6,339.6c-0.8-0.2-1.2-0.6-1.1-1.1c0.5-3,1.4-6,2.7-8.7c0.2-0.4,0.6-0.8,1.2-0.6
				c0.5,0.1,1,0.5,0.9,1c-0.7,3-1.4,6-2.7,8.8C-1679.8,339.3-1680.1,339.7-1680.6,339.6z"/>
			<path id="XMLID_54_" class="st3" d="M-1643.1,328.9c0-1.2,0.3-1.6,0.8-1.8c0.6-0.3,1.1,0.1,1.3,0.5c1.1,2.7,2,5.5,1.9,8.4
				c0,0.5-0.3,1-0.9,1c-0.6,0-1-0.3-1.1-0.8C-1641.9,333.6-1642.6,331-1643.1,328.9z"/>
			<path id="XMLID_53_" class="st3" d="M-1609.2,324.1c-0.4,0.3-0.7,0.6-0.9,0.6c-0.5,0-1-0.2-1.4-0.5c-1.9-1.8-3.3-3.9-4.6-6.2
				c-0.2-0.4-0.3-1,0.3-1.4c0.5-0.3,0.9-0.3,1.4,0c0.3,0.2,0.5,0.4,0.7,0.7c1.4,1.8,2.7,3.5,4,5.3
				C-1609.3,323.2-1609.3,323.7-1609.2,324.1z"/>
			<path id="XMLID_52_" class="st3" d="M-1585.5,300.4c0,0.2,0,0.4-0.1,0.5c-0.3,0.4-0.8,0.7-1.3,0.5c-2.3-1.1-4.4-2.4-6.2-4.3
				c-0.1-0.1-0.2-0.3-0.2-0.5c0-0.3,0.1-0.6,0.2-0.9c0.2-0.4,0.5-0.5,0.8-0.3c2.4,1.2,4.7,2.6,6.6,4.6
				C-1585.6,300-1585.6,300.2-1585.5,300.4z"/>
			<path id="XMLID_51_" class="st3" d="M-1645,336c-0.4,0.5-0.6,1.2-0.9,1.3c-0.4,0.1-1.2-0.2-1.3-0.5c-0.8-2.6-1.7-5.1-1.6-7.9
				c0-0.5,0.4-0.9,0.9-1c0.6-0.1,1,0.3,1.2,0.8C-1646.1,331-1645.5,333.5-1645,336z"/>
			<path id="XMLID_50_" class="st3" d="M-1735.4,288c-0.2,0.3-0.3,0.7-0.6,0.8c-2.2,1-4.4,1.9-6.6,2.7c-0.3,0.1-0.9-0.3-1.3-0.6
				c-0.1-0.1,0-0.7,0.2-0.9c2-2,4.6-2.8,7.4-3C-1735.8,286.9-1735.4,287.5-1735.4,288z"/>
			<path id="XMLID_49_" class="st3" d="M-1582.9,296.6c-0.2,0.5-0.5,1-1.1,0.8c-2.5-0.7-4.8-1.9-6.9-3.4c-0.3-0.2-0.4-0.9-0.3-1.4
				c0.1-0.5,0.7-0.8,1.2-0.5c2.2,1,4.3,2.1,6.4,3.2C-1583.1,295.6-1582.7,296-1582.9,296.6z"/>
			<path id="XMLID_48_" class="st3" d="M-1709.7,318.2c-0.1,0.4,0,1-0.3,1.4c-1.2,1.7-2.4,3.3-3.7,4.8c-0.4,0.5-1.1,0.7-1.8,0.1
				c-0.5-0.4-0.4-0.9-0.1-1.4c1.4-1.9,2.8-3.8,4.3-5.7c0.2-0.2,0.7-0.3,0.9-0.2C-1710.1,317.4-1710,317.8-1709.7,318.2z"/>
			<path id="XMLID_47_" class="st3" d="M-1719.9,321.2c-0.2-0.3-0.5-0.6-0.5-0.8c1.1-3,3.4-5,5.8-6.8c0.2-0.1,0.7,0.1,0.9,0.3
				c0.2,0.2,0.5,0.7,0.4,0.8c-1.5,2.5-3.3,4.7-5.7,6.4C-1719.2,321.2-1719.6,321.1-1719.9,321.2z"/>
			<path id="XMLID_46_" class="st3" d="M-1606.8,320.6c-0.2,0.5-0.6,1-1.1,0.7c-2.2-1.4-3.8-3.3-4.7-5.7c-0.1-0.2,0.2-0.6,0.5-0.8
				c0.2-0.1,0.7-0.2,0.9-0.1c1.9,1.4,3.4,3.3,4.5,5.4C-1606.7,320.2-1606.8,320.4-1606.8,320.6z"/>
			<path id="XMLID_45_" class="st3" d="M-1735.2,291.2c0.4,0.3,1,0.5,1.1,0.9c0.1,0.4-0.3,0.9-0.6,1.3c-0.1,0.1-0.3,0.2-0.5,0.2
				c-1.8,0.3-3.4,2-5.3,0.6c-0.1-0.1-0.1-0.3-0.1-0.5C-1739.4,291.6-1737.3,291.7-1735.2,291.2z"/>
			<path id="XMLID_44_" class="st3" d="M-1619.9,106.6c8.9,0.4,17.6,1.8,26,4.5c2.3,0.8,4.5,1.7,6.7,2.8c1.2,0.6,2.3,1.5,3.2,2.6
				c1.8,2,1.5,4.6-0.6,6.4c-1.2,1-2.7,1.7-4.2,1.9c-3.8,0.5-7.5,1.2-11.4,0.9c-7.8-0.7-15.5-1-23.1-2.9c-3.2-0.8-6.4-1.6-9.2-3.4
				c-1.2-0.7-2.4-1.5-3.3-2.5c-2-2.2-1.9-4.9,0.2-6.9c1.8-1.6,3.9-2.9,6.4-3.2C-1626.1,106.5-1623,106.4-1619.9,106.6z"/>
			<path id="XMLID_43_" class="st3" d="M-1727.2,122.8c-3.3,0-6.6,0.1-9.9,0c-2.6-0.1-5.1-0.8-7.4-2.3c-2.2-1.5-2.6-3.6-1.1-5.8
				c0.8-1.2,1.8-2.1,3-2.8c1.7-0.9,3.3-1.9,5.1-2.5c12.1-3.8,24.4-4.9,36.9-2.2c1.3,0.3,2.7,0.7,4,1.2c2,0.9,3.6,2.3,3.7,4.6
				c0.1,2.1-1.2,3.5-2.9,4.6c-1.8,1.1-3.7,1.8-5.8,2.3C-1709.9,122-1718.5,122.8-1727.2,122.8z"/>
			<path id="XMLID_42_" class="st3" d="M-1663.7,203c5.3-0.2,11.2-2.7,16.1-7.6c2.2-2.2,3.3-4.8,3.5-7.9c0.2-4.7-1-8.9-3.3-12.9
				c-1.6-2.7-3.4-5.2-5.6-7.5c-0.6-0.6-1.1-1.3-1.5-2.1c-0.1-0.2,0.1-0.7,0.3-0.9c0.2-0.2,0.7-0.4,0.9-0.4c0.6,0.3,1.3,0.6,1.7,1.1
				c5.7,5.5,9.4,12.1,10.3,19.9c0.5,4.3-0.6,8.3-3.6,11.6c-6,6.6-13.5,9.6-22.3,9.3c-11.5-0.5-19.6-9.6-19.3-21.6
				c0.2-7.4,3.2-13.8,7.3-19.7c0.3-0.4,0.8-0.7,1.2-0.9c0.2-0.1,0.7,0.1,0.9,0.3c0.2,0.2,0.5,0.6,0.4,0.9c-0.4,0.9-0.8,1.9-1.4,2.7
				c-2.2,3.6-3.9,7.4-5,11.4c-1,3.4-1.1,6.9-0.3,10.3C-1681.4,197.8-1674.5,203.2-1663.7,203z"/>
			<path id="XMLID_41_" class="st3" d="M-1683.3,91.8c16.1,1,32.1,2,48,4.8c0.8,0.1,1.8,0,2.4,0.8c0.2,0.2,0.4,0.6,0.3,0.9
				c0,0.3-0.3,0.7-0.6,0.7c-1.7,0.4-3.4,0.1-5.2-0.2c-6.2-0.8-12.3-1.7-18.5-2.5c-0.7-0.1-1.4-0.3-2.1-0.3
				c-12.3-0.3-24.5-2.1-36.8-1.3c-0.2,0-0.3,0-0.5,0c-1,0-2.1,0.2-2.7-0.9c-0.4-0.8,0.7-1.5,2.7-1.6
				C-1692,92.1-1687.6,92-1683.3,91.8z"/>
			<path id="XMLID_40_" class="st3" d="M-1663.3,245.2c-5.9-0.2-11.7-0.5-17.6-1.4c-1.9-0.3-3.7-0.7-5.6-1.1
				c-0.7-0.2-1.4-0.6-1.3-1.4c0.2-1.2,1.2-1,2-1c0.7,0,1.4,0.2,2.1,0.3c6.8,1.2,13.7,1.8,20.6,2c11.4,0.2,22.3-1.8,32.8-6.6
				c2.5-1.2,4-1.2,4.1-0.3c0,1.8-1.7,2.1-2.8,2.6C-1639.9,243.5-1651.4,245.4-1663.3,245.2z"/>
			<path id="XMLID_39_" class="st3" d="M-1767.4,143.8c0.8,0.1,1.4,0.4,1.4,1.2c0,0.4-0.3,1.1-0.6,1.3c-1.3,0.5-2.6,0.8-3.9,1.4
				c-4.8,2-7.9,5.5-9.4,10.5c-1.6,5.5-0.1,10.3,4.1,14.1c0.8,0.7,1.7,1.2,2.5,1.9c0.6,0.5,0.8,1.1,0.3,1.8c-0.5,0.6-1.2,0.6-1.9,0.3
				c-4.6-2.4-7.4-6.3-8.1-11.4c-1.5-10.5,5.7-19,15.2-21C-1767.7,143.8-1767.5,143.8-1767.4,143.8z"/>
			<path id="XMLID_38_" class="st3" d="M-1540.8,159.8c0,8-2.3,12.4-6.9,15.6c-0.7,0.5-1.5,0.7-2.4,1c-0.2,0.1-0.7-0.2-0.9-0.4
				c-0.4-0.4-0.4-1-0.1-1.4c0.5-0.5,1-1,1.6-1.3c8.5-5.7,7.6-17.8-0.8-23.8c-1.4-1-3-1.6-4.6-2.4c-0.6-0.3-1.3-0.3-2-0.5
				c-1-0.3-1.5-1.3-1.1-2c0.4-0.7,1.1-0.9,1.8-0.7C-1547.4,145.4-1540.8,153.3-1540.8,159.8z"/>
			<path id="XMLID_37_" class="st3" d="M-1675.2,81.5c7.7,0.2,15.2,1.4,22.7,2.7c1.5,0.3,3.1,0.6,4.6,1c0.7,0.2,1.4,0.5,1.4,1.3
				c0,0.9-0.8,1-1.5,1c-1,0-2.1-0.1-3.1-0.3c-10.6-2.2-21.2-3.5-32-2.9c-0.9,0-1.7,0-2.6-0.1c-0.4-0.1-0.9-0.5-1-0.9
				c-0.2-0.9,0.5-1.2,1.2-1.3C-1682.1,81.8-1678.7,81.7-1675.2,81.5z"/>
			<path id="XMLID_36_" class="st3" d="M-1721,234.4c-0.7-0.1-1.2-0.3-1.3-0.9c-0.1-0.6,0.3-1,0.7-1.2c0.9-0.5,1.9-0.8,2.9-1.1
				c7.5-2.3,12.7-7.5,16.8-14c0.7-1.2,1.4-2.4,2.2-3.5c0.3-0.4,0.8-0.7,1.4-0.4c0.5,0.2,0.7,0.7,0.7,1.3c0,0.2,0,0.4-0.1,0.5
				c-4.6,9.5-11.4,16.5-21.9,19.3C-1720.2,234.4-1720.7,234.4-1721,234.4z"/>
			<path id="XMLID_35_" class="st3" d="M-1670.5,70.6c5.2,0.4,9.8,0.7,14.5,1.1c0.7,0.1,1.4,0.2,2,0.5c0.6,0.3,1.3,0.6,1.2,1.5
				c-0.2,0.8-0.9,1.1-1.5,1c-4.4-1-9-0.6-13.4-1c-3-0.3-5.9,0.1-8.8,0.1c-0.9,0-1.7-0.1-2.6-0.2c-0.2,0-0.5-0.5-0.6-0.8
				c-0.3-0.6,0.1-1,0.6-1.2c0.6-0.2,1.3-0.4,2-0.5C-1674.8,70.9-1672.4,70.7-1670.5,70.6z"/>
			<path id="XMLID_34_" class="st3" d="M-1623.6,209.3c0.3,0.1,0.8,0.1,0.9,0.3c0.5,0.9,1,1.8,1.3,2.8c2.6,6.5,6.8,11.5,12.8,15.2
				c1.4,0.9,3.2,1.5,4,3.2c0.1,0.3,0.1,0.7-0.1,1c-0.1,0.2-0.5,0.4-0.8,0.5c-0.1,0.1-0.4,0-0.5,0c-8.4-4.4-14.9-10.5-18.1-19.7
				c-0.3-0.8-0.5-1.7-0.2-2.5C-1624.3,209.6-1623.9,209.5-1623.6,209.3z"/>
			<path id="XMLID_33_" class="st3" d="M-1656.1,255.2c-1.6-0.1-3.3,0.4-4.9-0.6c-0.2-0.1-0.5-0.6-0.4-0.8c0-0.3,0.3-0.7,0.5-0.7
				c1.2-0.2,2.4-0.2,3.6-0.3c5.7-0.4,11.4-0.7,16.9-2.7c1.8-0.7,3.5-1.4,5.3-2.1c0.6-0.2,1.3-0.2,2-0.2c0.3,0,0.7,0.3,0.8,0.6
				c0.1,0.3,0,0.8-0.3,0.9c-0.8,0.6-1.7,1.2-2.6,1.6C-1641.8,253.8-1648.8,255-1656.1,255.2z"/>
		</g>
		<g id="XMLID_29_">
			<ellipse id="XMLID_31_" class="st1" cx="-1589.7" cy="184.7" rx="20.1" ry="14.6"/>
			<ellipse id="XMLID_30_" class="st1" cx="-1731.2" cy="184.7" rx="20.1" ry="14.6"/>
		</g>
	</g>
	<path id="XMLID_471_" class="st3" d="M-914.5,1060.9c-4.1,0.1-7.3-5.5-4.8-8.9c-5.8-2.3-10.6-7.1-16.6-8.8
		c-6-1.7-12.8,0.1-17.2,4.4c9.1-1.9,20-3.2,26.3,3.6c0.4,0.4,0.8,1,0.8,1.6c0,0.5-0.3,1-0.6,1.4c-3.7,5-10.4,7.5-16.5,6.3
		c-2.5-0.5-6.3-0.5-6.1,2c4.5-0.9,9.4,1,12.1,4.7c0.6,1.2,0.2,2.7-0.8,3.4c3,0.2,3.3,4.7,1.7,7.2s-4.2,4.8-4,7.8
		c3.5-1.4,6.2-4.7,7-8.4c0.4-2,0.3-4.1,1.2-5.9c1.6-3.3,5.7-4.5,9.3-5.2c0.6-0.1,1.2-0.2,1.7,0.1c0.7,0.4,0.8,1.4,0.7,2.2
		c-0.4,8.1-3.3,16.1-8.2,22.6c-0.8,1.1-1.7,2.2-3,2.6c-2.4,0.8-4.8-0.8-7.2-1.6c-2.4-0.7-6,0.5-5.4,3c3.1-1,6.7-0.4,9.3,1.5
		c-2.8,3.3-6.7,5.6-10.9,6.5c-1.7,0.3-3.5,0.6-4.7,1.8c-0.9,1-1.1,2.3-1.4,3.6c-7.3,39.9-32.6,82.4-72.8,96.1
		c-6.1,2.1-12.4,3.1-18.8,4.1c-4.8,0.7-9.7,1.3-14.5,0.7c-45.2-5.4-79.3-49.2-87.2-91.9c-0.9-4.9-2-10.7-6.4-13.1
		c-2.6-1.4-5.7-1.3-8.3-2.6c-2.6-1.3-4.3-5.3-1.8-7c1-0.7,2.3-0.6,3.5-0.9s2.5-1.3,2.1-2.5c-2.8-0.4-5.6,0.4-7.8,2.1
		c-1.1,0.9-2.4,2.1-3.8,1.7c-0.8-0.2-1.4-0.9-1.9-1.6c-5.1-7.1-9.2-15.2-9.3-23.9s4.4-17.9,12.4-21.2c6.2-2.6,13.3-1.3,19.9,0
		c-6.4-5.8-16.8-5.9-24-1.1c-7.2,4.7-11.2,13.5-11.2,22.1s3.6,17,8.8,23.8c1.4,1.8,3,3.7,3.3,6c0.2,1.8-0.4,3.6-0.7,5.4
		c-1.5,8.7,7.1,17.6,15.9,16.4c2.1-0.3,4.5-0.9,6,0.5c0.7,0.7,1.1,1.6,1.4,2.5c5.7,16.7,12.6,33.1,22.7,47.5
		c13.1,18.7,35.4,37.3,58.8,40.3c15.2,1.9,30.9-1.1,44.9-7c28.8-12.1,50.3-36,62.3-64.7c0.9-2.2,8.6-19.8,7-21.1
		c5.5,4.5,14.1,4.4,19.5-0.1c5.4-4.5,7.1-13,3.7-19.2c-0.6-1.1-1.4-2.3-1.2-3.5c0.1-1.2,1.1-2.1,1.9-3c4.3-4.4,7.2-10.2,8.3-16.2
		c1-5.7,0.7-12.2,4.8-16.3C-914.3,1060.9-914.4,1060.9-914.5,1060.9z M-924.6,1063.7c-2.4,0.9-4.8,1.9-7.3,2.8
		c-1.2,0.5-1.9-0.4-2.5-1.3c-0.6-0.9-0.3-1.7,0.5-2.3c3-2.1,6-4.1,9-6.2c0.3-0.2,0.7-0.2,1-0.3c0.3,0.2,0.6,0.3,0.8,0.6
		c0.2,0.3,0.4,0.6,0.5,0.9C-921,1061.8-920.6,1062.2-924.6,1063.7z M-1150.9,1117.8c-1.5,0.5-3,1-4,0.8c-0.3,0-0.7,0-1,0
		c-2.5-0.2-4.8-1-6.6-2.2c-4.5-3-6.6-8.6-4.6-13.9c0.5-1.3,1.3-1.7,2.4-0.9c1.5,1.1,3.1,2,4.8,2.9h0c0.1,0.1,0.3,0.2,0.4,0.2
		c2.4,1.2,4.9,2.2,7.5,2.8c0.9,0.2,1.4,0.9,1.6,1.8c0.4,2,0.8,4.1,1.2,6.1C-1149.1,1116.7-1149.8,1117.4-1150.9,1117.8z
		 M-941.6,1120c-2.3,0-4.5-0.4-6.2-2c-1.6-1.5-2.9-3-1.8-5.4c0.3-0.6,0.3-1.3,0.3-2c0.1-2.6,1.5-4,4-4.6c4.1-1,7.6-3.1,11.1-5.6
		c2-1.4,2.2-1.2,3.6,0.9C-924.9,1110-932.7,1120-941.6,1120z"/>
	<path id="XMLID_463_" class="st3" d="M-1154.3,1062.7c-7.3-1.6-12,7.1-9.9,13.2c0.7,2,1.8,3.7,3.1,5.4c0.7,1,1.4,2,2,3
		c0.1,0.2-0.1,0.7-0.3,0.9c-0.2,0.2-0.6,0.4-0.9,0.4c-0.3,0-0.7-0.2-0.9-0.4c-3.8-3.8-6.5-8.1-6.1-13.8c0.3-4.3,2.4-7.5,5.8-10
		c1.9-1.3,4-2,6.4-1.4c1.5,0.4,3.2-0.1,4.5,1c0.2,0.2,0.4,0.6,0.3,0.9c0,0.3-0.3,0.8-0.5,0.8
		C-1152,1062.7-1153.2,1062.7-1154.3,1062.7z"/>
	<path id="XMLID_462_" class="st3" d="M-1168.3,1052.3c1.2,0,2.3,1.1,2.4,2.3c0.1,1.5-1.3,2.8-3.1,2.8c-1.1,0-2.3-1.3-2.1-2.5
		C-1171,1053.5-1169.6,1052.3-1168.3,1052.3z"/>
	<path id="XMLID_461_" class="st3" d="M-1170.5,1061.1c0.1,1.4-1,2.7-2.4,2.9c-1.2,0.2-2.4-0.7-2.6-2c-0.2-1.6,1-3.2,2.6-3.2
		C-1171.9,1058.8-1170.6,1060-1170.5,1061.1z"/>
	<circle id="XMLID_458_" class="st1" cx="-977.3" cy="1100.9" r="20.1"/>
	<circle id="XMLID_457_" class="st1" cx="-1112.7" cy="1100.9" r="20.1"/>
	<path id="XMLID_100_" class="st3" d="M-1589.7,1281.3c-0.5-0.8-1.5-0.8-2.3-1.1c-4.6-1.7-9.1-3.3-13.7-5c-3.5-1.3-6.5-3.3-9.3-5.6
		c-10.2-8.5-15.9-19.2-18.3-31.3c-0.7-3.5-1.1-7.1-1.3-10.8c-0.1-2.8-0.1-5.7,0-8.5c0.2-5.3,0.6-10.6,1-16c0.2-2.6,0.3-5.2,0.4-7.8
		c0-0.7,0.2-1.4,0.3-2.1c0-0.3,0.1-0.5,0.1-0.8c-0.1-1.9-0.2-3.9-0.4-5.8c-0.1,0.1-0.3,0.3-0.4,0.4v-2h-114.3v3.7
		c-0.1-0.1-0.2-0.2-0.3-0.3c-0.3,1.7-0.6,3.3-0.8,5c0.2,1,0.2,2,0.1,3.1c-0.3,3-0.7,6-1,9c-0.6,5.6-1.2,11.2-1.9,16.8
		c-0.9,6.9-2.3,13.7-4.6,20.3c-5,14.1-13.3,25.4-26.9,32.4c-3.9,2-7.6,4.2-11.4,6.3c-0.7,0.4-1.4,0.9-2,1.5c-0.2,0.2-0.2,0.7,0,0.9
		c0.2,0.3,0.6,0.6,0.8,0.6c1-0.3,2-0.5,2.9-1c4.7-2.6,9.4-5.2,14.1-7.8c3.6-2,3.6-2,4.6,2.1c0.4,1.5,0.7,3,1,4.6
		c1.9,9.2,4.4,18.2,7,27.2c6.9,23.3,17,45.1,29.2,66c5.6,9.6,11.7,19,18.4,27.8c6.8,8.9,14.4,17.3,23,24.8c0.6,0.6,1.4,1.1,1.4,2.1
		c-1.1,1.1-2.4,2-3.4,3.2c-2.7,3.2-2.8,8.2-0.3,11.6c2.4,3.3,6.9,4.6,10.7,3.1c4-1.6,6.4-5.7,5.8-10.1c-0.1-1-0.6-2-0.9-3
		c-0.6-1.8-0.6-2.1,1-2.7c10.1-3.6,17.1-10.9,23.4-19.2c3.6-4.8,6.9-9.8,9.8-15.1c1.7-2.9,3.2-5.9,4.7-9
		c8.3-17.4,15.1-35.4,20.6-53.9c4.3-14.5,8.8-28.9,11.8-43.7c0.8-3.9,1.5-7.8,2.3-11.7c0.5-2.2,0.8-2.3,2.8-1.6
		c4.1,1.5,8.1,3,12.2,4.4c1.1,0.4,2.3,0.9,3.5,0.6c0.3-0.1,0.6-0.4,0.7-0.7C-1589.4,1282-1589.5,1281.5-1589.7,1281.3z
		 M-1755.1,1246.7c3.5-8.8,5.1-18.1,6.3-27.4c0.2-1.8,0.5-3.7,0.7-5.5c0.1-0.7,0.2-1.5,0.3-2.2c0.4-3.9,0.8-7.8,1.4-11.7
		c0.3-1.6-0.3-3.4,1.1-4.8c1.4,1,3,1.8,4.2,2.9c3.9,3.7,7.9,7.3,12.2,10.6c5.3,4.1,11.1,7.5,17.1,10.4c1.1,0.6,2.3,1.1,3.5,1.6
		c15.5,6.9,31.8,10.8,48.6,12.9c6,0.8,12.1,0.9,18.2,0.3c0.9-0.1,1.7-0.2,2.6-0.3c1.2-0.1,2,0.3,2.3,1.5c0.3,1.2,0.6,2.3,0.9,3.5
		c0.4,2,1,3.9,1.6,5.8c2,6.4,4.9,12.3,8.7,17.9c1.7,2.5,1.7,2.6-0.1,5c-1,1.4-2.2,2.7-3.4,4c-1.5,1.6-2.8,3.7-5.6,2.3
		c-0.5-0.2-1.3,0.3-2,0.4c-3.9,1-4.4,1.7-4.3,5.9c0.8,2.1-0.5,3.1-2.1,4c-2.6,1.5-5.2,2.9-7.7,4.4c-2.2,1.3-4.1,1.9-6.7,0.2
		c-2.3-1.6-5.1-0.4-6.2,2.7c-0.8,2.2-2,2.9-4,3.4c-4.9,1.1-9.9,1.9-14.9,2.4c-1.8,0.2-3.5,0.1-4.2-2.1c-0.1-0.5-0.6-0.9-0.9-1.2
		c-3.2-3.4-6.2-3.4-9.1,0.3c-1.2,1.5-2.1,1.8-3.9,1.5c-5.8-1.2-11.4-2.9-16.8-5.5c-1.3-0.6-2.4-1.4-2.3-3.1c0-0.3,0-0.7-0.1-1
		c-1.2-4.3-3.3-5.4-7.3-3.2c-1.5,0.8-2.5,0.7-3.7-0.2c-2.4-1.9-4.9-3.9-7.3-5.9c-1.6-1.4-2.8-2.7-2.2-5.3c0.5-2.3-1.1-3.9-3.7-3.9
		c-2.1,0-3.1-1-4.1-2.5c-2.7-4.1-4.8-8.4-6.7-12.9C-1755.7,1250-1755.7,1248.4-1755.1,1246.7z M-1690.5,1445.7
		c-3.4,0-6.5-3.3-6.4-6.9c0.1-3.8,3-6.4,6.8-6.2c3.5,0.2,5.9,2.9,5.8,6.7C-1684.4,1442.8-1687.2,1445.7-1690.5,1445.7z
		 M-1611.4,1279.1c-2.8,16.3-7.3,32.1-11.9,47.9c-6,20.2-12.9,39.9-21.9,58.9c-2.2,4.7-4.6,9.2-7.2,13.5
		c-3.8,6.3-8.1,12.3-12.9,17.9c-4.8,5.5-10.6,9.3-17.3,12.1c-3.1,1.3-5.7,0.8-8.2-1.2c-0.3-0.2-0.5-0.4-0.8-0.7
		c-8.2-7.4-16.2-14.9-22.9-23.6c-0.3-0.4-0.6-0.7-0.8-1.1c-22.4-30.1-39.4-62.8-49.8-99c-2.8-9.8-4.9-19.8-7.4-29.8
		c-0.4-1.5-0.2-2.7,1.1-3.7c0.3-0.2,0.5-0.5,0.8-0.7c1.6-1.3,2.7-3.1,4.6-4.1c1.8,1.3,2.1,3.5,3,5.3c8.4,18.4,20.3,34.3,34.8,48.3
		c8.2,7.9,18,13.5,28.3,18.2c2,0.9,4.2,1.8,6.5,1.4c0.5-0.1,1-0.3,0.9-1c-0.1-0.3-0.2-0.7-0.5-0.9c-0.4-0.3-0.9-0.4-1.4-0.6
		c-13.2-4.5-24.8-11.7-34.6-21.6c-13.6-13.7-24.7-29.1-32.4-46.8c-0.4-1-0.8-2-1.3-2.9c-0.9-1.7-1-3.3,0.4-4.8
		c2-2.1,2.4-5.4,5.2-6.8c1.9,2.1,2.5,4.9,4,7.2c1.1,1.8,2.1,3.6,3.2,5.3c1.1,1.6,1.8,3.1,1.7,5.3c-0.2,2.1,0.9,3.4,3,3.5
		c2.4,0.1,3.7,1.5,5.3,2.8c2.3,2.1,4.8,4,7.2,5.9c1.7,1.3,3.2,2.3,3.7,4.7c0.6,2.9,2.7,4.1,5.5,3.2c2.3-0.8,4-0.2,5.9,0.7
		c4.9,2.3,10,4,15.3,5.1c2,0.4,3.6,1.1,4.9,3.2c2.1,3.6,6.3,4,9.3,1.1c2-1.9,4-2.5,6.5-2.5c5.3-0.1,10.3-1.3,15.4-2.4
		c1.9-0.4,3.5-0.6,5.4,0.4c3.6,1.8,6.1,0.9,7.5-2.8c0.7-1.9,1.8-2.7,3.4-3.6c2.9-1.6,5.8-3.2,8.6-4.8c1.9-1.1,3.6-2.4,6.1-2.5
		c2.2,0,3.9-1.8,4.2-4c0.3-2.5,1.7-4.1,3.3-5.7c1.2-1.3,2.2-2.7,3.5-3.8c1-0.9,1.3-2.9,2.9-2.5c1.2,0.3,2.1,1.7,3.1,2.7
		c0.7,0.7,0.7,1.6,0.4,2.5c-0.7,2.5-1.4,5-2.3,7.4c-2.2,5.7-5.2,11-8.6,16.1c-8,12.1-17.4,22.9-28.9,31.8
		c-5.6,4.3-11.8,7.2-18.7,8.7c-0.7,0.1-1.3,0.3-2,0.5c-0.5,0.2-0.8,0.6-0.8,1.2c0,0.6,0.6,0.8,1.1,0.9c0.3,0.1,0.7,0,1.6,0
		c5.7-0.9,11.5-3.2,16.8-6.7c4.8-3.2,9.3-6.7,13.3-10.9c9-9.3,17.4-18.9,23.5-30.3c2.9-5.4,5.7-10.7,7.3-16.7
		c0.4-1.4,0.9-1.5,2.2-0.8C-1611.5,1275.2-1610.9,1276.6-1611.4,1279.1z"/>
	<path id="XMLID_99_" class="st0" d="M-1625.8,1267.3c-1,1.4-2.2,2.7-3.4,4c-1.5,1.6-2.8,3.7-5.6,2.3c-0.5-0.2-1.3,0.3-2,0.4
		c-3.9,1-4.4,1.7-4.3,5.9c0.8,2.1-0.5,3.1-2.1,4c-2.6,1.5-5.2,2.9-7.7,4.4c-2.2,1.3-4.1,1.9-6.7,0.2c-2.3-1.6-5.1-0.4-6.2,2.7
		c-0.8,2.2-2,2.9-4,3.4c-4.9,1.1-9.9,1.9-14.9,2.4c-1.8,0.2-3.5,0.1-4.2-2.1c-0.1-0.5-0.6-0.9-0.9-1.2c-3.2-3.4-6.2-3.4-9.1,0.3
		c-1.2,1.5-2.1,1.8-3.9,1.5c-5.8-1.2-11.4-2.9-16.8-5.5c-1.3-0.6-2.4-1.4-2.3-3.1c0-0.3,0-0.7-0.1-1c-1.2-4.3-3.3-5.4-7.3-3.2
		c-1.5,0.8-2.5,0.7-3.7-0.2c-2.4-1.9-4.9-3.9-7.3-5.9c-1.6-1.4-2.8-2.7-2.2-5.3c0.5-2.3-1.1-3.9-3.7-3.9c-2.1,0-3.1-1-4.1-2.5
		c-2.7-4.1-4.8-8.4-6.7-12.9c-0.7-1.7-0.8-3.3-0.1-5c3.5-8.8,5.1-18.1,6.3-27.4c0.2-1.8,0.5-3.7,0.7-5.5c0.1-0.7,0.2-1.5,0.3-2.2
		c0.4-3.9,0.8-7.8,1.4-11.7c0.3-1.6-0.3-3.4,1.1-4.8c1.4,1,3,1.8,4.2,2.9c3.9,3.7,7.9,7.3,12.2,10.6c5.3,4.1,11.1,7.5,17.1,10.4
		c1.1,0.6,2.3,1.1,3.5,1.6c15.5,6.9,31.8,10.8,48.6,12.9c6,0.8,12.1,0.9,18.2,0.3c0.9-0.1,1.7-0.2,2.6-0.3c1.2-0.1,2,0.3,2.3,1.5
		c0.3,1.2,0.6,2.3,0.9,3.5c0.4,2,1,3.9,1.6,5.8c2,6.4,4.9,12.3,8.7,17.9C-1624,1264.8-1624,1264.9-1625.8,1267.3z"/>
	<path id="XMLID_2_" class="st0" d="M-1611.4,1279.1c-2.8,16.3-7.3,32.1-11.9,47.9c-6,20.2-12.9,39.9-21.9,58.9
		c-2.2,4.7-4.6,9.2-7.2,13.5c-10.4,4.1-21.3,6.7-32.6,7c-9.6,0.3-19.1-0.1-28.5-2.2c-0.4-0.1-0.7-0.2-1.1-0.3
		c-0.3-0.4-0.6-0.7-0.8-1.1c-22.4-30.1-39.4-62.8-49.8-99c-2.8-9.8-4.9-19.8-7.4-29.8c-0.4-1.5-0.2-2.7,1.1-3.7
		c0.3-0.2,0.5-0.5,0.8-0.7c1.6-1.3,2.7-3.1,4.6-4.1c1.8,1.3,2.1,3.5,3,5.3c8.4,18.4,20.3,34.3,34.8,48.3c8.2,7.9,18,13.5,28.3,18.2
		c2,0.9,4.2,1.8,6.5,1.4c0.5-0.1,1-0.3,0.9-1c-0.1-0.3-0.2-0.7-0.5-0.9c-0.4-0.3-0.9-0.4-1.4-0.6c-13.2-4.5-24.8-11.7-34.6-21.6
		c-13.6-13.7-24.7-29.1-32.4-46.8c-0.4-1-0.8-2-1.3-2.9c-0.9-1.7-1-3.3,0.4-4.8c2-2.1,2.4-5.4,5.2-6.8c1.9,2.1,2.5,4.9,4,7.2
		c1.1,1.8,2.1,3.6,3.2,5.3c1.1,1.6,1.8,3.1,1.7,5.3c-0.2,2.1,0.9,3.4,3,3.5c2.4,0.1,3.7,1.5,5.3,2.8c2.3,2.1,4.8,4,7.2,5.9
		c1.7,1.3,3.2,2.3,3.7,4.7c0.6,2.9,2.7,4.1,5.5,3.2c2.3-0.8,4-0.2,5.9,0.7c4.9,2.3,10,4,15.3,5.1c2,0.4,3.6,1.1,4.9,3.2
		c2.1,3.6,6.3,4,9.3,1.1c2-1.9,4-2.5,6.5-2.5c5.3-0.1,10.3-1.3,15.4-2.4c1.9-0.4,3.5-0.6,5.4,0.4c3.6,1.8,6.1,0.9,7.5-2.8
		c0.7-1.9,1.8-2.7,3.4-3.6c2.9-1.6,5.8-3.2,8.6-4.8c1.9-1.1,3.6-2.4,6.1-2.5c2.2,0,3.9-1.8,4.2-4c0.3-2.5,1.7-4.1,3.3-5.7
		c1.2-1.3,2.2-2.7,3.5-3.8c1-0.9,1.3-2.9,2.9-2.5c1.2,0.3,2.1,1.7,3.1,2.7c0.7,0.7,0.7,1.6,0.4,2.5c-0.7,2.5-1.4,5-2.3,7.4
		c-2.2,5.7-5.2,11-8.6,16.1c-8,12.1-17.4,22.9-28.9,31.8c-5.6,4.3-11.8,7.2-18.7,8.7c-0.7,0.1-1.3,0.3-2,0.5
		c-0.5,0.2-0.8,0.6-0.8,1.2c0,0.6,0.6,0.8,1.1,0.9c0.3,0.1,0.7,0,1.6,0c5.7-0.9,11.5-3.2,16.8-6.7c4.8-3.2,9.3-6.7,13.3-10.9
		c9-9.3,17.4-18.9,23.5-30.3c2.9-5.4,5.7-10.7,7.3-16.7c0.4-1.4,0.9-1.5,2.2-0.8C-1611.5,1275.2-1610.9,1276.6-1611.4,1279.1z"/>
	<path id="XMLID_143_" class="st3" d="M-2740.8,123.7"/>
	<rect id="XMLID_534_" x="-896.7" y="45" class="st4" width="510" height="80"/>
	<rect id="XMLID_533_" x="-899.3" y="-49.5" class="st4" width="510" height="80"/>
	<rect id="XMLID_532_" x="-896.2" y="-84.6" class="st4" width="510" height="80"/>
	<rect id="XMLID_531_" x="-900.3" y="-231.2" class="st5" width="512" height="608"/>
	<rect id="XMLID_530_" x="-900.5" y="-228.6" class="st6" width="514.8" height="416"/>
	<rect id="XMLID_529_" x="-899.5" y="44.6" class="st7" width="512.7" height="336"/>
	<rect id="XMLID_528_" x="-899.1" y="-162.6" class="st8" width="512" height="304"/>
	<rect id="XMLID_1_" x="-900" y="-163.4" class="st9" width="509.8" height="510.4"/>
	<path id="XMLID_176_" class="st10" d="M-561,186v0.2c-0.4,1.6-0.8,3.2-1.3,4.8c-4.8,16.9-12.9,32.9-24.5,48
		c-5.9,7.8-11.9,15.6-17.9,23.3c-3.9,5-8.3,9.7-13.1,14.3c-7.5,7.1-15.2,14-22.9,20.9c-2.9,2.7-3.5,2.6-5.8-0.3
		c-12.5-16-25.2-32-37.6-48c-12.1-15.5-23-31.4-30.7-48.3c-1.6-3.5-3.5-6.9-5.2-10.4c-0.9-1.8-1.6-3.6-2.4-5.4
		c-0.1-0.3-0.2-0.5-0.3-0.8c-0.8,0.3-1.6,0.7-2.4,1.1c0.1,0.1,0.1,0.3,0.2,0.4c2.4,4.9,5,9.8,7.2,14.7c6.5,14.6,15.2,28.4,25.3,41.8
		c11.7,15.5,23.9,30.8,35.9,46.2c3.1,4,6.1,8,9.2,12c1.2,1.5,1.2,2.8,0.3,4.3c-1.6,2.7-3.1,5.4-4.5,8.1c-0.6,1.2-1.3,2.4-1.6,3.6
		c-0.8,2.8,0.8,4.4,4.7,4.9c3,0.3,6,0.3,9,0c3.9-0.5,4.8-1.6,3.8-4.5c-0.3-0.8-0.5-1.5-0.9-2.2c-1.6-3.4-3-6.8-4.8-10.1
		c-0.9-1.7-0.5-2.8,1-4.1c5.4-4.7,10.6-9.5,15.9-14.3c6.7-6,13.4-12.2,18.9-18.8c10.4-12.6,20.5-25.5,29.2-38.8
		c7.9-12,13.1-24.6,16.9-37.5c0.3-1.1,0.5-2.3,1.2-3.4v0C-559.4,186.6-560.5,186.2-561,186z"/>
	<path id="XMLID_317_" class="st10" d="M339,349.3v0.2c-0.4,1.6-0.8,3.2-1.3,4.8c-4.8,16.9-12.9,32.9-24.5,48
		c-5.9,7.8-11.9,15.6-17.9,23.3c-3.9,5-8.3,9.7-13.1,14.3c-7.5,7.1-15.2,14-22.9,20.9c-2.9,2.7-3.5,2.6-5.8-0.3
		c-12.5-16-25.2-32-37.6-48c-12.1-15.5-23-31.4-30.7-48.3c-1.6-3.5-3.5-6.9-5.2-10.4c-0.9-1.8-1.6-3.6-2.4-5.4
		c-0.1-0.3-0.2-0.5-0.3-0.8c-0.8,0.3-1.6,0.7-2.4,1.1c0.1,0.1,0.1,0.3,0.2,0.4c2.4,4.9,5,9.8,7.2,14.7c6.5,14.6,15.2,28.4,25.3,41.8
		c11.7,15.5,23.9,30.8,35.9,46.2c3.1,4,6.1,8,9.2,12c1.2,1.5,1.2,2.8,0.3,4.3c-1.6,2.7-3.1,5.4-4.5,8.1c-0.6,1.2-1.3,2.4-1.6,3.6
		c-0.8,2.8,0.8,4.4,4.7,4.9c3,0.3,6,0.3,9,0c3.9-0.5,4.8-1.6,3.8-4.5c-0.3-0.8-0.5-1.5-0.9-2.2c-1.6-3.4-3-6.8-4.8-10.1
		c-0.9-1.7-0.5-2.8,1-4.1c5.4-4.7,10.6-9.5,15.9-14.3c6.7-6,13.4-12.2,18.9-18.8c10.4-12.6,20.5-25.5,29.2-38.8
		c7.9-12,13.1-24.6,16.9-37.5c0.3-1.1,0.5-2.3,1.2-3.4v0C340.6,350,339.5,349.5,339,349.3z"/>
</g>
<g id="element">
	<g id="XMLID_495_">
		<g id="XMLID_499_">
			<path id="XMLID_527_" class="st2" d="M-582.9,122.2c0.2-6.8,0.3-13.5,1.5-20.2c0.3-1.6,0.8-2.9,2.1-4
				c5.8-5.3,10.4-11.7,14.8-18.1c9.5-14,17.2-28.9,22.3-45.1c1.4-4.5,2.5-9,3.4-13.6c0.4-2.2,1.5-3.2,3.6-3.8
				c9.4-2.7,16.5-8.6,22.2-16.3c1-1.4,1.7-3,2.4-4.6c1.7-4.2,2.7-8.6,3.1-13.1c1.1-13.5-6.6-21.7-17.7-25.6c-2.7-1-5.5-0.7-8.2,0.2
				c-2,0.6-3.9,1.4-5.9,2c-1.2,0.4-2-0.2-2.6-1.2c-0.3-0.6-0.5-1.3-0.6-2c-1.8-9.1-6.5-16.7-12.5-23.6c-6.5-7.4-14.4-13-23.1-17.6
				c-5.4-2.9-11-5.1-16.7-7.2c-10.6-3.9-21.2-7.7-31.4-12.5c-10-4.6-19.4-10.2-27.6-17.5c-3.5-3.1-6.8-6.4-9.5-10.3
				c-0.2-0.4-0.9-0.8-1.1-0.7c-0.4,0.1-0.8,0.7-0.9,1.1c-3.2,10.4-9.5,18.8-16.8,26.6c-5.4,5.7-11.2,10.9-17.4,15.7
				c-6.2,4.8-12.3,9.6-17.8,15.2c-6.1,6.3-11.1,13.3-14.3,21.5c-1.4,3.6-2.5,7.2-2.9,11c-0.2,2.2-1,2.6-3.1,2
				c-3-0.9-6.1-1.5-9.2-1.3c-2.9,0.2-4.4-1.2-5.5-3.7c-3.6-8-6-16.3-7-24.9c-1.7-14.4-1.7-28.8,0-43.1c2.8-23.1,13-42.6,29.7-58.7
				c16-15.4,35.2-20,56.7-16.8c1,0.2,2.1,0.2,3.1,0.5c1.7,0.5,3,0,4.5-0.8c12.2-6.7,25.5-9.8,39.2-11.8c14.2-2,28.3-1.6,42.4,1.9
				c14.7,3.7,28.9,8.8,42.3,15.8c12.3,6.5,22.7,15.4,31.2,26.3c10.6,13.6,19.8,28.1,25.6,44.5c6.5,18.3,8.6,37.1,6.2,56.4
				c-1,8.1-2.3,16.2-3,24.3c-1,11.1-1,22.2,0.2,33.3c1.4,12.9,4.2,25.7,6.2,38.5c1.3,8.2,2.5,16.5,2.4,24.8
				c-0.3,38.8-26.3,63.9-56.3,70.8c-14.6,3.4-29.4,5-44.4,4c-2.8-0.2-5.5-0.7-8.3-1c-1.2-0.2-1.8-0.8-1.7-2.1
				C-583.4,132.3-583.2,127.3-582.9,122.2z"/>
			<path id="XMLID_526_" class="st2" d="M-641.4,365c-63.7,0.2-127.5,0.4-191.2,0.6c-1.7,0-3.5,0-5.2-0.1c-1.5-0.1-2.2-1.3-1.6-2.5
				c0.8-1.5,1.7-3,2.6-4.5c9.5-16,18.4-32.2,25.4-49.5c6.5-15.9,11.8-32.3,15.2-49.1c1.4-6.6,3.1-13.2,4.3-19.8
				c1.2-7.2,2-14.4,2.9-21.6c0.1-0.9,0.2-1.7,0.3-2.6c0.3-2.9,1.8-4.7,4.7-5.4c10-2.6,19.1-7.3,28.2-12c2-1,4-2.1,6.1-3
				c2.8-1.2,4.4-0.3,4.9,2.6c0.4,2.2,0.6,4.5,0.9,6.7c3.4,26.5,11.6,51.4,25.4,74.3c3.8,6.3,8.1,12,13.5,17.1
				c6.3,6,13.9,9.8,21.9,12.8c7.1,2.7,14.5,4.9,21.9,6.6c9.4,2.1,18.9,2.5,28.5,2.2c11.9-0.3,23.4-3.2,34.3-7.7
				c10.5-4.3,18.8-11.7,25.7-20.6c11.5-14.8,19.6-31.5,25.6-49.2c4.6-13.7,7.5-27.8,9.2-42.1c0.7-5.7,1.8-6.4,6.9-3.9
				c3.7,1.8,7.4,3.7,11.1,5.7c6.6,3.5,13.5,6.4,20.7,8.3c3.6,1,5.1,3,5.4,6.6c0.8,7.2,1.7,14.5,2.7,21.7c1.4,9.4,4,18.6,6.1,27.9
				c6.5,28.5,17.8,55.1,32.3,80.4c2.6,4.5,5.3,9,7.9,13.5c0.7,1.2,1.6,2.3,1.8,3.7c0.2,1.3-0.5,2.5-1.8,2.7
				c-1.4,0.1-2.8,0.1-4.2,0.1c-64.3,0-128.5,0-192.8,0C-641.4,364.7-641.4,364.8-641.4,365z"/>
			<path id="XMLID_525_" class="st2" d="M-707.4,133.4c-5.7,0.5-10.1-0.6-14.5-1.3c-9.2-1.5-18.4-3.3-27.6-5c-2.2-0.4-4.4-1-6.5-1.8
				c-7.9-2.8-13.1-8.3-15.8-16.1c-3.5-10.3-2.9-20.5,1.2-30.5c1.5-3.5,3.3-6.9,5.2-10.2c8.1-14.2,12.9-29.5,14.5-45.8
				c0.1-0.7,0.1-1.4,0.2-2.1c0.5-3,1.2-3.5,4.2-2.6c0.3,0.1,0.7,0.2,1,0.3c7.9,2.8,7.2,0.7,8.2,9.6c1.3,11.2,5.2,21.6,10.5,31.4
				c8,15.1,16.9,29.5,29.2,41.6c1.7,1.6,2.2,3.4,2.1,5.6c-0.1,5-1.1,10-1.7,15c-0.3,2.6-0.6,5.2-1.1,7.7c-0.5,2.8-1.6,3.8-4.5,4.2
				C-704.7,133.5-706.6,133.4-707.4,133.4z"/>
			<path id="XMLID_250_" class="st3" d="M-570.4-43.2c4.9,1.5,8.5,4.5,10.5,9.3c2.4,5.9,0.9,11.3-4.4,15.1c-2.4,1.7-5.1,2.9-8,3.7
				c-8,2.3-16.1,2.1-24.2,0.8c-3.8-0.6-7.3-2.1-10.5-4.3c-6.1-4.1-7.2-13.2-1.1-18.3c2.3-1.9,4.7-3.5,7.5-4.5
				c5.7-2.2,11.6-3.4,17.9-3.2C-578.5-44.8-574.4-44.5-570.4-43.2z M-606-21.4c1.5,1.1,3.2,2,4.9,2.8c1.3,0.7,2.1,0,1.7-1.3
				c-1.8-6.1-0.8-12,1.1-17.9c0.1-0.3,0-0.7-0.2-0.9c-0.2-0.2-0.7-0.3-0.9-0.2c-3.1,1.2-6,2.8-8.1,5.4c-1.3,1.5-2,3.3-1.9,5.4
				C-609.2-25.5-608.3-23.1-606-21.4z"/>
			<path id="XMLID_247_" class="st3" d="M-669.4-42.3c3.5,1.1,6.7,2.8,9.5,5.1c6.7,5.4,5.3,14.9-1.3,18.9c-2.2,1.4-4.5,2.6-7.1,3.2
				c-9.8,2.4-19.5,2.5-29.1-0.8c-2.3-0.8-4.5-1.9-6.4-3.4c-4.6-3.5-6-8.4-4.1-13.8c1.8-5.3,5.6-8.6,10.9-10.2
				c3.9-1.2,7.8-1.5,12-1.3C-679.8-44.9-674.5-43.9-669.4-42.3z M-704.9-33.2c-2.2,4.9-1,9.2,3.4,12.3c1.4,1,3,1.6,4.6,2.4
				c0.2,0.1,0.6,0,0.9-0.2c0.4-0.2,0.4-0.5,0.2-0.9c-2.9-6.6-1.1-12.9,1.4-19.1c0.2-0.6,0.5-1.2,1-2.5
				C-699.2-40.3-702.9-37.9-704.9-33.2z"/>
			<path id="XMLID_511_" class="st3" d="M-540.2,32.6c-0.9,1.3-1.2,2.9-1.6,4.4c-5.6,18.4-13.9,35.5-26,50.6
				c-3.1,3.8-6.3,7.4-9.9,10.7c-1.8,1.6-2.7,3.5-2.9,5.9c-0.1,0.7-0.2,1.4-0.3,2.1c-0.4,10.8-1.9,21.5-1.4,32.2
				c0.8,16.6,6.5,31.1,19.6,42.1c2.8,2.4,5.8,4.4,9.3,5.6c4.6,1.7,9.1,3.3,13.7,5c0.8,0.3,1.7,0.4,2.3,1.1c0.2,0.2,0.3,0.7,0.2,0.9
				c-0.1,0.3-0.4,0.6-0.7,0.7c-1.2,0.3-2.4-0.2-3.5-0.6c-4.1-1.5-8.1-3-12.2-4.4c-2-0.7-2.3-0.6-2.8,1.6c-0.8,3.9-1.5,7.8-2.3,11.7
				c-3,14.8-7.5,29.2-11.8,43.7c-5.5,18.5-12.3,36.5-20.6,53.9c-4.1,8.5-8.9,16.5-14.5,24c-6.2,8.3-13.3,15.6-23.4,19.2
				c-1.6,0.6-1.6,0.9-1,2.7c0.3,1,0.8,2,0.9,3c0.6,4.4-1.8,8.4-5.7,10.1c-3.8,1.5-8.3,0.2-10.7-3.1c-2.5-3.4-2.4-8.4,0.3-11.6
				c1-1.2,2.3-2.1,3.4-3.2c-0.1-1-0.8-1.5-1.5-2.1c-17.1-14.9-30-33.1-41.4-52.5c-12.2-20.9-22.4-42.7-29.2-66c-2.6-9-5.1-18-7-27.2
				c-0.3-1.5-0.7-3.1-1-4.6c-1-4-1-4-4.6-2.1c-4.7,2.6-9.4,5.3-14.1,7.8c-0.9,0.5-1.9,0.7-2.9,1c-0.2,0.1-0.7-0.3-0.8-0.6
				c-0.1-0.2-0.1-0.8,0-0.9c0.6-0.6,1.3-1.1,2.1-1.5c3.8-2.1,7.5-4.4,11.4-6.3c13.6-7,21.9-18.3,26.9-32.4
				c2.3-6.6,3.7-13.4,4.6-20.3c1.2-8.6,1.9-17.2,2.9-25.9c0.3-3-0.4-5.2-2.6-7.4c-17.8-17-29.1-37.8-36.3-61.1
				c-0.3-0.8-0.5-1.7-0.8-2.5c-1-3-1-3-4.2-2.4c-2.9,0.6-5.9,0.7-8.8-0.1c-7.9-2.3-12.2-10.3-10-18.6c0.2-0.8,0.6-1.6,0.9-2.4
				c0.4-0.9,0.2-1.7-0.4-2.4c-0.3-0.4-0.7-0.8-1.1-1.1c-5.9-6.5-9.4-14-10.7-22.7c-0.9-5.9,0-11.4,2.5-16.7
				c4.4-9.5,14.2-14.4,24.5-12.4c2.2,0.4,4.4,0.9,6.5,1.9c0.8,0.4,1.6,1,1.1,2c-0.3,0.6-1.1,0.8-1.8,0.6c-0.8-0.3-1.7-0.5-2.5-0.8
				c-2.5-1-5.1-1.1-7.7-1.1c-8.6,0-14.4,4.2-17.9,11.9c-2.5,5.4-2.4,11.2-1.4,16.9c1.3,7,4.5,13.1,9.3,18.4c1.7,1.9,1.8,1.9,3.7,0.4
				c2-1.5,4.1-2.7,6.4-3.3c0.6-0.2,1.4-0.2,2-0.1c0.3,0,0.6,0.4,0.7,0.6c0.3,0.5,0,1.1-0.3,1.4c-0.6,0.4-1.2,0.6-1.9,0.9
				c-1.4,0.7-2.9,1.2-4.2,2.1c-2.1,1.4-2.1,2.4-0.1,3.9c3.4,2.5,7.2,4.2,11.4,4.9c2.1,0.3,3,1.3,3.2,3.3c1,6.5,2.7,12.9,4.7,19.2
				c5.5,17,13.4,32.7,24.7,46.7c9,11.1,19.5,20.2,32.1,26.9c8.9,4.6,18.3,7.4,28.2,8.6c4.8,0.6,9.7,0,14.5-0.7
				c6.3-1,12.7-2,18.8-4.1c16.6-5.6,30-15.8,41.3-28.9c13.7-15.9,22.7-34.4,28.5-54.5c1.4-4.7,2.7-9.4,3.2-14.2
				c0.2-2.2,1.3-2.9,3.2-3.2c4.5-0.8,8.6-2.8,12.2-5.6c1.4-1.1,1.4-2-0.2-2.6c-2.1-0.8-4.2-1.5-6.5-0.5c-0.7,0.3-1.5,0-1.7-0.7
				c-0.2-0.7,0.4-1.3,1-1.7c1.4-0.9,3-1,4.5-0.6c1.5,0.3,3,0.9,4.4,1.5c2.7,1.1,2.7,1.2,4.7-1.1c3.7-4.4,6.6-9.4,8.1-15
				c0.8-3.2,1.6-6.4,1.4-9.8c-0.1-1.7-0.8-2.3-2.3-1.8c-1.5,0.5-2.9,1.3-4.4,1.7c-3.8,1-5.6,2.8-5.6,7.2c0.1,4.3-3,7.6-6,10.6
				c-0.4,0.4-1,0.3-1.4,0c-0.6-0.3-0.6-0.9-0.3-1.3c0.9-1.3,1.8-2.5,2.7-3.8c1.4-2,2.5-4.1,2.7-6.7c0.1-1.4-0.3-2.2-2-2.3
				c-1.1,0-1.2-1.1-0.6-1.9c0.3-0.4,0.8-0.7,1-1.1c0.4-0.8,0-1.6-0.7-1.6c-1.9,0-2.8-0.7-2.9-2.7c0-1-1.2-1.2-2-1.2
				c-2.1,0-4.2,0.1-6.2,0.1c-0.5,0-1-0.3-1-0.9c0-0.6,0.3-1.1,0.8-1.2c3.2-0.6,6.5-1.6,9.6,0.2c1.1,0.6,2.2,1,3.4,0.1
				c3.1-2.2,6.3-4.4,9.4-6.6c0.9-0.6,0.9-1.5,0.2-2.2c-3.2-3.7-7.3-5.9-12.2-6.2c-3.8-0.3-7.6,0-11.3,1.4c-1,0.4-2,0.9-2.8-0.2
				c-0.6-0.7,0.3-1.9,2-2.5c9.6-3.5,18.4-2.4,26,5c1,1,1.7,2,3.5,1.5c1.6-0.5,2.1,0.3,1.1,2c-0.6,1-0.9,1.8-0.3,2.8
				c0.3,0.6,0.5,1.3,0.8,1.9c0.4,0.9,0.3,2.3,1.3,2.7c0.7,0.3,1.7-0.1,2.5-0.2c0.3,0,0.7-0.1,1,0.1c0.5,0.3,0.7,0.8,0.4,1.3
				c-0.1,0.3-0.4,0.6-0.7,0.7c-2.6,0.8-3.1,2.7-3,5.2c0.3,9.4-3.1,17.6-8.8,25c-0.7,1-1.6,1.9-2.3,2.8c-0.8,0.9-0.9,1.8-0.3,2.8
				c0.5,0.9,1.1,1.8,1.5,2.7c5,10.2-3.1,19.9-11.1,21.1C-532.5,36.2-534.9,35.7-540.2,32.6z M-624.4,250.4c-0.9,0-1.3,0.1-1.6,0
				c-0.5-0.1-1-0.3-1.1-0.9c0-0.6,0.2-1,0.8-1.2c0.6-0.2,1.3-0.4,2-0.5c6.9-1.5,13.1-4.4,18.7-8.7c11.5-8.9,20.9-19.8,28.9-31.9
				c3.3-5.1,6.4-10.4,8.6-16c0.9-2.4,1.6-4.9,2.3-7.4c0.2-0.8,0.2-1.8-0.4-2.5c-1-1-1.9-2.4-3.1-2.7c-1.6-0.4-1.9,1.6-2.9,2.5
				c-1.3,1.2-2.3,2.6-3.5,3.8c-1.6,1.6-3,3.3-3.3,5.7c-0.3,2.2-1.9,4-4.2,4c-2.5,0-4.2,1.4-6.1,2.5c-2.9,1.6-5.7,3.3-8.6,4.8
				c-1.5,0.8-2.7,1.6-3.4,3.6c-1.4,3.7-3.9,4.6-7.4,2.8c-1.9-0.9-3.5-0.8-5.4-0.4c-5.1,1.2-10.1,2.4-15.4,2.5
				c-2.5,0-4.5,0.6-6.5,2.5c-3,2.9-7.2,2.4-9.3-1.1c-1.3-2.1-2.9-2.8-4.9-3.2c-5.3-1.1-10.4-2.7-15.3-5.1c-1.9-0.9-3.6-1.5-5.9-0.7
				c-2.8,0.9-4.9-0.3-5.5-3.2c-0.5-2.4-2-3.4-3.7-4.7c-2.5-1.9-4.9-3.9-7.2-5.9c-1.6-1.4-2.9-2.7-5.3-2.8c-2.1-0.1-3.2-1.4-3-3.5
				c0.2-2.1-0.6-3.6-1.7-5.3c-1.2-1.7-2.1-3.6-3.2-5.3c-1.4-2.3-2.1-5.1-4-7.2c-2.8,1.5-3.2,4.7-5.2,6.8c-1.4,1.5-1.3,3.1-0.4,4.8
				c0.5,0.9,0.8,1.9,1.2,2.9c7.8,17.7,18.9,33.1,32.4,46.8c9.8,9.9,21.4,17.1,34.6,21.6c0.5,0.2,1,0.3,1.4,0.6
				c0.2,0.2,0.4,0.6,0.5,0.9c0.2,0.7-0.4,0.9-0.9,1c-2.3,0.3-4.5-0.5-6.5-1.4c-10.3-4.7-20.1-10.2-28.4-18.2
				c-14.5-14-26.3-29.9-34.8-48.3c-0.8-1.8-1.1-4-3-5.3c-1.9,0.9-3,2.8-4.6,4.1c-0.3,0.2-0.5,0.5-0.8,0.7c-1.3,1-1.4,2.1-1,3.7
				c2.5,9.9,4.6,19.9,7.4,29.8c10.3,36.1,27.4,68.9,49.8,99c6.9,9.2,15.2,17.1,23.8,24.8c0.3,0.2,0.5,0.5,0.8,0.7
				c2.5,2,5,2.5,8.2,1.2c6.7-2.8,12.5-6.6,17.3-12.1c8.2-9.5,14.8-20.1,20.2-31.5c9-19,16-38.8,21.9-59c4.7-15.8,9.2-31.6,11.9-47.9
				c0.4-2.6-0.2-3.9-2.2-5.1c-1.3-0.7-1.9-0.7-2.2,0.8c-1.6,5.9-4.4,11.3-7.3,16.7c-6.2,11.4-14.6,21.1-23.5,30.4
				c-4,4.1-8.5,7.7-13.3,10.9C-612.9,247.2-618.7,249.4-624.4,250.4z M-588.8,190.9c-0.1-4.2,0.4-4.9,4.3-5.9c0.7-0.2,1.5-0.7,2-0.4
				c2.8,1.5,4.1-0.6,5.6-2.3c1.2-1.3,2.3-2.6,3.4-4c1.8-2.4,1.8-2.5,0.1-5c-4.9-7.3-8.3-15.2-10.2-23.7c-0.3-1.2-0.6-2.4-0.9-3.5
				c-0.3-1.3-1.1-1.6-2.3-1.5c-0.9,0.1-1.7,0.2-2.6,0.3c-6.1,0.6-12.2,0.5-18.2-0.3c-16.8-2.1-33-6.1-48.6-12.9
				c-7.3-3.2-14.2-7.1-20.6-12c-4.3-3.3-8.2-6.9-12.1-10.6c-1.2-1.2-2.8-2-4.2-2.9c-1.5,1.3-0.9,3.2-1.1,4.8
				c-0.7,4.6-1.1,9.3-1.6,13.9c-1.3,11.2-2.7,22.4-6.9,33c-0.7,1.7-0.6,3.3,0.1,5c1.9,4.5,4.1,8.8,6.7,12.9c1,1.5,2,2.5,4.1,2.5
				c2.6,0.1,4.2,1.6,3.7,3.9c-0.5,2.6,0.6,4,2.2,5.3c2.4,2,4.8,3.9,7.3,5.9c1.2,0.9,2.2,1,3.7,0.2c3.9-2.1,6.1-1,7.3,3.2
				c0.1,0.3,0.1,0.7,0.1,1c-0.1,1.7,0.9,2.4,2.3,3.1c5.3,2.6,11,4.3,16.7,5.5c1.8,0.4,2.7,0,3.9-1.5c2.9-3.7,5.9-3.7,9.1-0.3
				c0.4,0.4,0.8,0.8,0.9,1.2c0.7,2.2,2.4,2.3,4.2,2.1c5-0.4,10-1.2,14.9-2.4c2-0.5,3.2-1.2,4-3.4c1.1-3.1,3.8-4.2,6.2-2.7
				c2.5,1.7,4.5,1.1,6.7-0.2c2.5-1.5,5.1-2.9,7.7-4.4C-589.3,194-588,193-588.8,190.9z M-530.8,33.2c8.8,0.1,16.6-10,11-18.7
				c-1.4-2.1-1.6-2.3-3.6-0.9c-3.4,2.4-7,4.6-11.1,5.6c-2.6,0.6-3.9,2-4,4.6c0,0.7,0,1.4-0.3,2c-1.1,2.4,0.1,4,1.8,5.4
				C-535.3,32.7-533.1,33.2-530.8,33.2z M-744.2,31.9c1.1,0.1,2.6-0.3,4-0.9c1.1-0.4,1.8-1.1,1.6-2.3c-0.3-2-0.8-4.1-1.2-6.1
				c-0.2-0.9-0.7-1.6-1.6-1.8c-4.6-1.2-8.8-3.2-12.7-5.9c-1.1-0.8-1.9-0.4-2.4,0.9C-759.4,23.5-753.4,31.9-744.2,31.9z
				 M-632.1,350.3c0.1-3.7-2.3-6.5-5.8-6.7c-3.8-0.2-6.7,2.5-6.8,6.2c-0.1,3.6,3.1,6.9,6.5,6.9
				C-634.9,356.8-632.1,353.8-632.1,350.3z M-513.1-30.3c-0.3,0.1-0.7,0.1-1,0.3c-3,2-6,4.1-9,6.2c-0.8,0.5-1.1,1.3-0.5,2.2
				c0.6,0.9,1.3,1.8,2.5,1.3c2.4-0.9,4.8-1.9,7.3-2.8c4-1.5,3.6-1.9,2.1-5.8c-0.1-0.3-0.3-0.6-0.5-0.9
				C-512.5-29.9-512.9-30.1-513.1-30.3z"/>
			<path id="XMLID_510_" class="st3" d="M-404.9,362.4c-9.9,1.3-19.8,1-29.6,1.5c-1,0.1-2.1,0.2-3-0.4c-0.3-0.2-0.5-0.6-0.5-0.8
				c0-0.3,0.3-0.6,0.5-0.8c0.7-0.6,1.6-0.5,2.5-0.5c12-0.4,23.9-0.9,35.9-1.3c7.6-0.3,15.3-0.6,22.9-0.9c0.7,0,1.4-0.1,2.1-0.2
				c0.8-0.2,1.2-0.8,1.1-1.5c-0.4-2-0.8-4.1-1.5-6c-3.9-10.6-8.6-20.8-13.6-30.9c-10.3-20.5-23.8-38.6-39.5-55.3
				c-17.8-18.8-38.1-34.4-59.8-48.4c-0.7-0.5-1.5-0.9-2.1-1.5c-0.3-0.3-0.6-1-0.4-1.3c0.2-0.3,0.9-0.7,1.3-0.6
				c1.1,0.4,2.2,0.9,3.2,1.6c3.7,2.3,7.4,4.6,10.9,7.2c12.4,9,24.8,17.8,35.9,28.4c13,12.3,25.2,25.4,35.6,40
				c5.1,7.1,9.7,14.4,13.8,22.1c6.2,11.5,11.9,23.2,16.4,35.4c1.3,3.4,2.4,6.9,2.5,10.6c0,2.1-0.6,2.9-2.7,3c-5,0.3-10,0.7-15.1,0.8
				C-393.8,362.5-399.4,362.4-404.9,362.4z"/>
			<path id="XMLID_509_" class="st3" d="M-872.4,364.2c-13.4-0.6-23.1-1-32.8-1.4c-0.5,0-1,0-1.6,0c-3.5-0.2-4.3-1.1-3.5-4.7
				c0.6-2.9,1.3-5.8,2.3-8.5c4.7-13.1,10.8-25.5,17.5-37.7c9.6-17.4,21.8-32.9,35.5-47.4c17.3-18.3,37.1-33.5,58-47.3
				c1.6-1,3.1-2.2,5-2.7c0.6-0.2,1,0.2,1.2,0.7c0.1,0.3,0,0.8-0.2,0.9c-1.1,0.9-2.2,1.7-3.3,2.4c-14.7,9.3-28.7,19.6-41.6,31.2
				c-24.9,22.2-45.6,47.6-59.7,78c-3.7,8-7.1,16.2-10.5,24.4c-0.1,0.3-0.2,0.7-0.3,1c-2.4,7.7-1.2,7,5,7.2
				c14.9,0.5,29.8,1.2,44.7,1.7c3.6,0.1,7.3,0.2,10.9,0.4c0.8,0,1.7,0.3,2.5,0.5c0.2,0.1,0.4,0.6,0.3,0.9c0,0.3-0.2,0.7-0.5,0.8
				c-0.9,0.6-2,0.4-3,0.4C-856.3,364.5-866.2,364.8-872.4,364.2z"/>
			<path id="XMLID_246_" class="st3" d="M-597.2-76.5c12,0.4,22,4.4,31,11c1.2,0.9,2.4,2,3.5,3.1c1.4,1.5,1.8,3.3,1,4.2
				c-1.1,1.3-2.5,1-3.8,0.6c-1.3-0.4-2.6-0.9-3.9-1.4c-6.1-2.5-12.4-4.3-19-5.1c-2.7-0.3-5.5-0.5-8.3-0.7c-0.9-0.1-1.7,0-2.6-0.1
				c-4.5-0.5-6.4-2.9-5.8-7.4c0.3-2.5,1.9-4,4.5-4.3C-599.2-76.6-597.8-76.5-597.2-76.5z"/>
			<path id="XMLID_245_" class="st3" d="M-681-61.7c-8,0-15.9,1-23.7,2.8c-2.2,0.5-4.4,0.9-6.6,1.2c-0.7,0.1-1.3-0.4-1.6-1.1
				c-0.3-0.7,0-1.4,0.6-1.8c0.8-0.6,1.7-1.2,2.6-1.7c11.2-5.8,23-9.5,35.6-10.6c1-0.1,2.1-0.1,3.1,0.1c1.4,0.2,2.2,1,2.3,2.4
				c0.2,2.1,0.4,4.1,0.6,6.2c0.2,2-0.6,3-2.5,3.1c-1.2,0.1-2.4,0-3.6-0.1C-676.5-61.5-678.7-61.6-681-61.7z"/>
			<path id="XMLID_506_" class="st3" d="M-635.5,50.3c-9.7,0.3-19-1.7-28.1-4.6c-6.4-2.1-11.9-5.5-17-9.7c-0.5-0.4-1-0.9-1.5-1.5
				c-0.6-0.6-1.2-1.3-0.8-2.3c0.3-0.7,1.6-0.5,2.6,0.5c8.6,8.3,19.4,11.7,30.8,13.8c5.3,1,10.7,1.1,16,1.2c9.2,0.2,17.8-2.2,26.1-6
				c5.9-2.7,11.2-6.2,16.5-9.9c1.3-0.9,2.6-1.7,3.9-2.5c0.4-0.3,1.1-0.1,1.3,0.4c0.1,0.4,0,1-0.1,1.4c-0.1,0.3-0.4,0.5-0.7,0.7
				c-10.5,7.8-21.6,14.5-34.6,17.3C-625.8,50.3-630.6,50.1-635.5,50.3z"/>
			<path id="XMLID_505_" class="st3" d="M-635.8,20.9c-2.8-0.1-5.5-0.2-8.3-0.5c-0.7-0.1-1.3-0.7-0.9-1.5c0.2-0.4,0.7-0.9,1.1-1
				c1-0.1,2.1,0,3.1,0.1c5.2,0.4,10.4,0.5,15.5-0.6c1.2-0.3,2.4-0.5,3.5-0.9c2.6-0.9,3.9-2.8,3.9-5.5c0-1.5-0.3-3.1-0.6-4.6
				c-2.7-13.6-6-27.1-9.5-40.5c-0.7-2.8-1.3-5.7-1.9-8.6c-0.2-0.7,0.2-1.4,1-1.5c0.8-0.1,1.3,0.5,1.5,1.2c0.5,1.8,0.8,3.7,1.3,5.6
				c3.7,13.9,7.1,27.9,10,42c0.5,2.2,0.8,4.4,0.7,6.7c-0.1,4.4-2.1,7.2-6.5,8.3c-2.8,0.7-5.7,1.4-8.7,1.3c-1.7-0.1-3.5,0-5.2,0
				C-635.8,20.8-635.8,20.8-635.8,20.9z"/>
			<path id="XMLID_504_" class="st3" d="M-637.2,64.5c-5.6,0.2-11-0.3-16.4-1.9c-2-0.6-3.9-1.3-5.6-2.5c-0.3-0.2-0.6-1-0.5-1.3
				c0.1-0.3,0.8-0.6,1.2-0.7c0.5,0,1,0.2,1.5,0.4c10.6,4.6,21.5,4.3,32.6,2.3c1.5-0.3,3-0.7,4.6-0.9c0.7-0.1,1.4,0,1.7,0.8
				c0.3,0.9-0.4,1.3-1,1.5c-4.4,1.1-8.7,2.1-13.2,2.3C-634,64.5-635.6,64.5-637.2,64.5z"/>
			<path id="XMLID_503_" class="st3" d="M-743.6-24.1c-7.3-1.6-12,7.1-9.9,13.2c0.7,2,1.8,3.7,3.1,5.4c0.7,1,1.4,2,2,3
				c0.1,0.2-0.1,0.7-0.3,0.9c-0.2,0.2-0.6,0.4-0.9,0.4c-0.3,0-0.7-0.2-0.9-0.4c-3.8-3.8-6.5-8.1-6.1-13.8c0.3-4.3,2.4-7.5,5.8-10
				c1.9-1.3,4-2,6.4-1.4c1.5,0.4,3.2-0.1,4.5,1c0.2,0.2,0.4,0.6,0.3,0.9c0,0.3-0.3,0.8-0.5,0.8C-741.2-24.1-742.4-24.1-743.6-24.1z"
				/>
			<path id="XMLID_502_" class="st3" d="M-757.6-34.4c1.2,0,2.3,1.1,2.4,2.3c0.1,1.5-1.3,2.8-3.1,2.8c-1.1,0-2.3-1.3-2.1-2.5
				C-760.2-33.2-758.9-34.5-757.6-34.4z"/>
			<path id="XMLID_501_" class="st3" d="M-759.8-25.7c0.1,1.4-1,2.7-2.4,2.9c-1.2,0.2-2.4-0.7-2.6-2c-0.2-1.6,1-3.2,2.6-3.2
				C-761.1-28-759.9-26.8-759.8-25.7z"/>
			<path id="XMLID_500_" class="st3" d="M-633.6,254c-1.8,0-3.2-1.7-3.3-3.8c0-2.4,1.6-4,3.7-3.9c1.7,0.1,2.9,1.5,3,3.5
				C-630.1,252.2-631.6,254.1-633.6,254z"/>
		</g>
		<g id="XMLID_496_">
			<circle id="XMLID_498_" class="st1" cx="-566.6" cy="14.2" r="20.1"/>
			<circle id="XMLID_497_" class="st1" cx="-701.9" cy="14.2" r="20.1"/>
		</g>
	</g>
	<rect id="XMLID_130_" x="-1240.7" y="-671.8" class="st4" width="510" height="80"/>
	<rect id="XMLID_129_" x="-1243.4" y="-766.4" class="st4" width="510" height="80"/>
	<rect id="XMLID_124_" x="-1240.2" y="-801.5" class="st4" width="510" height="80"/>
	<rect id="XMLID_123_" x="-1244.4" y="-948.1" class="st5" width="512" height="608"/>
	<rect id="XMLID_122_" x="-1244.6" y="-945.4" class="st6" width="514.8" height="416"/>
	<rect id="XMLID_121_" x="-1243.5" y="-672.2" class="st7" width="512.7" height="336"/>
	<rect id="XMLID_120_" x="-1243.2" y="-879.4" class="st8" width="512" height="304"/>
	<rect id="XMLID_119_" x="-1244" y="-880.2" class="st9" width="509.8" height="510.4"/>
</g>
<g id="elementplacer">
	<path id="XMLID_141_" class="st10" d="M193,1068.4c0.4-4.5,0.9-9.9,1.5-15.4c0.6-6.5,1.3-13,2-19.5c0.2-2.2,0.4-4.4,1.3-6.5
		c0.1-0.2,0.6-0.4,0.8-0.4c0.3,0,0.6,0.2,0.8,0.5c0.6,0.9,0.3,2,0.2,3c-0.3,3.6-0.7,7.2-1.1,10.8c-0.8,7.9-1.7,15.7-2.5,23.6
		c-0.4,3.9-0.8,7.9-0.3,11.8c0.7,6.6,3,8.7,9.6,8.9c6,0.2,11.5-1.6,17.1-3.5c2.1-0.7,3.2-2.4,3.4-4.7c0.4-3.8-0.4-7.5-1-11.2
		c-1.6-9.3-4.7-18.3-7.1-27.4c-0.9-3.3-2-6.6-3-9.9c-0.2-0.8-0.3-1.7-0.4-2.5c0-0.2,0.4-0.5,0.7-0.6c0.3-0.1,0.8,0,0.9,0.2
		c0.5,0.7,1,1.4,1.2,2.2c1,2.9,2,5.9,2.8,8.9c2.5,9.1,5.6,18.1,7.3,27.4c0.8,4.2,1.6,8.4,1.4,12.8c-0.1,3.5-1.7,6.1-4.9,7.3
		c-6.8,2.5-13.8,4.4-21.1,3.6c-0.8-0.1-1.7-0.2-2.5-0.5c-3.9-1.2-5.9-4-6.6-7.8C192.8,1076,193.1,1072.7,193,1068.4z"/>
	<g id="XMLID_7_">
		<path id="XMLID_14_" class="st11" d="M-2222.6,1096.6c-1.5-16.6-3.6-33.2-6.4-49.6c-3.7-21.4-8.8-42.5-15.8-63
			c-6.9-20.1-15.6-39.4-27.4-57.1c-8.7-13.2-18.8-25-31.1-35.1c-19.8-16.3-42.6-24.9-68.2-26.2c-11.9-0.6-23.7,0.9-35.4,3.4
			c-12,2.6-23.5,6.5-34.8,11.5c-2.3,1-4.5,1.5-7,1.1c-6.6-1.2-13.1-0.3-19.5,1c-13.6,2.7-25,9.5-34.9,19
			c-11.1,10.6-19.3,23.3-26.1,36.9c-7,13.9-12.2,28.5-16.4,43.4c-5.9,20.7-9.8,41.9-12.7,63.2c-2.2,16.4-3.7,32.8-4.8,49.3
			c-1.2,18.2-1.5,36.5-1.4,56.9c-0.1,13.6,0.3,28,1,42.8c-0.1,13.6,0.1,26,0.2,36.8c0.8,58.5,9.2,106.6,16.7,139.3
			c56.6,6.4,124.5,9.2,200.7,2c38.3-3.6,73.8-9.3,106-16c4.7-28.2,9.3-56.4,14-84.7c0-0.6,0-1.1,0-1.7c0.1-0.5,0.2-1,0.3-1.6
			c0.1-0.9,0.1-1.7,0.2-2.6c0.5-6,1.1-12,1.6-18c0.9-11.7,2-23.3,2.6-35c0.6-11.5,0.9-23.1,1.1-34.6
			C-2219.5,1151-2220.2,1123.8-2222.6,1096.6z"/>
		<g id="XMLID_8_">
			<path id="XMLID_13_" class="st10" d="M-2421.5,927c0.2,0,0.6-0.1,0.9,0c0.5,0.2,0.9,0.5,1.3,0.8c12,9.4,25.8,15,40.1,19.6
				c12.3,4,24.6,7.9,36.8,12c5.4,1.8,10.6,4,15.9,6.2c10.3,4.4,19.2,10.8,26.5,19.3c3.9,4.6,7.9,9.1,11.3,14.1
				c1.2,1.7,2.5,3.4,2.5,5.6c0,0.3-0.2,0.7-0.5,0.9c-0.4,0.3-1,0.2-1.3-0.1c-0.2-0.2-0.4-0.5-0.6-0.8c-3.9-7.2-9.4-13.2-14.8-19.2
				c-6.4-7.2-14.1-12.6-22.9-16.5c-6.7-3.1-13.6-5.8-20.7-8.1c-10.6-3.5-21.3-6.9-31.9-10.4c-9.5-3.1-18.8-6.6-27.7-11.2
				c-4.8-2.5-9.2-5.4-13.5-8.6c-0.8-0.6-1.5-1.4-2.1-2.2C-2422.4,927.9-2422,927.4-2421.5,927z"/>
			<path id="XMLID_10_" class="st10" d="M-2334.8,930.1c-0.1,1.7-0.8,3.6-2,5.4c-1.2,1.9-1.2,2,0.3,3.5c5.6,5.6,11.7,10.7,19.3,13.5
				c0.6,0.2,1.3,0.5,1.9,0.8c0.7,0.3,1.3,0.7,1.1,1.5c-0.3,1.1-1.3,1-2.1,0.8c-1.3-0.3-2.7-0.7-3.9-1.3c-5.8-2.4-10.7-6.2-15.3-10.4
				c-1.7-1.5-3-3.5-5-4.4c-2.1-1-4.2,1-6.4,1.3c-5.5,0.9-11,0.7-16.4-0.1c-4.6-0.7-9.1-2-13.5-3.5c-11.4-3.9-22.3-9-32.5-15.7
				c-0.8-0.5-1.9-1-1.7-2.3c0.1-0.8,1.6-0.8,3.1,0.1c8,5.2,16.4,9.4,25.2,12.9c7,2.8,14.2,5.2,21.8,6.1c5.5,0.7,11,0.7,16.3-1
				c1.5-0.5,1.8-1.2,1.1-2.7c-0.3-0.6-0.6-1.2-0.9-1.9c-0.7-1.6-1.2-3.2-1.3-5c-0.1-2.6,0.8-4.2,2.8-5c2.3-0.9,4.9,0,6.4,2.1
				C-2335.5,926-2334.8,928.3-2334.8,930.1z M-2337.6,929.8c-0.2-0.9-0.3-1.9-0.7-2.9c-0.5-1.3-2.2-1.9-3.4-1.4
				c-1.1,0.5-1.3,1.6-1,2.6c0.4,1.5,1,2.9,1.6,4.3c0.3,0.8,0.8,1.7,1.8,1.5c0.5-0.1,1-1,1.2-1.6
				C-2337.8,931.7-2337.8,930.8-2337.6,929.8z"/>
			<path id="XMLID_9_" class="st10" d="M-2473.8,983.8c-0.5-0.2-0.8-0.4-1.1-0.6c-0.1-0.1-0.2-0.3-0.1-0.5c0.2-0.5,0.3-1,0.6-1.4
				c9-11.1,15.2-23.7,20.6-36.8c1.2-3,2.4-6.1,3.7-9.1c0.1-0.4,0.8-0.7,1.2-0.7c0.9,0.1,1,0.9,0.9,1.5c-0.1,0.7-0.3,1.4-0.5,2
				c-4.9,13.6-11.2,26.6-19.2,38.7c-1.3,2-2.7,4-4.5,5.6C-2472.7,983.3-2473.3,983.6-2473.8,983.8z"/>
		</g>
	</g>
	<g id="XMLID_3_">
		<path id="XMLID_149_" class="st10" d="M-465.4,1053.6c-6.3,0.2-11.1-0.7-15.9-2.1c-2.8-0.8-5.4-2.2-7.7-4.1
			c-4.1-3.4-5.3-7.9-3.7-12.9c1.7-5.1,5-8.5,10.1-10.2c5.1-1.7,10.4-2.2,15.7-1.8c5.3,0.5,10.5,1.4,15.5,3.6
			c2.7,1.2,5.1,2.8,7.3,4.7c5.2,4.7,4.3,13.2-1,17.1c-3.2,2.4-6.9,3.8-10.8,4.6C-459.4,1053.4-463,1053.6-465.4,1053.6z
			 M-454.2,1028c-0.6,1.5,0.2,2.5,0.5,3.6c1.2,4.8,1.3,9.5,0,14.2c-0.3,1-1.8,2.2-0.5,3.1c1,0.7,2.3-0.3,3.4-0.8
			c1.2-0.6,2.5-1.2,3.6-2c5-3.6,5.4-9.5,0.9-13.7C-448.5,1030.4-451.2,1028.9-454.2,1028z"/>
		<path id="XMLID_146_" class="st10" d="M-372.6,1053.6c-4.2-0.1-9-0.4-13.6-2c-2.1-0.7-4.1-1.7-6-2.9c-6.2-4-7.6-13.2-1.2-18.5
			c2.3-1.9,4.7-3.4,7.5-4.4c8.9-3.2,18-4.3,27.3-2.3c6.5,1.4,11.2,4.8,13.2,11.5c1.5,4.9,0.1,8.8-3.4,12.1c-2.3,2.2-5.1,3.5-8.1,4.4
			C-361.7,1053-366.8,1053.9-372.6,1053.6z M-358.5,1049.1c2.9-0.6,4.8-1.6,6.7-2.9c4.3-3.1,5.5-7.4,3.3-12.2
			c-2.5-5.6-7.3-7.7-13.6-8.2C-356.6,1033-353.9,1040.3-358.5,1049.1z"/>
		<path id="XMLID_145_" class="st10" d="M-359.4,1011.4c-8.3-0.2-16.4-1.5-24.4-3.5c-2.5-0.6-4.9-1.6-7.1-3.1
			c-1.8-1.2-3.4-2.6-3.2-4.9c0.2-2.5,2.1-3.8,4.3-4.6c3.5-1.3,7.1-1.3,10.7-1.3c7.8,0,15.3,1.8,22.6,4.6c1.9,0.7,3.7,1.8,5.4,3
			c1,0.6,1.8,1.6,2.5,2.6c2,2.9,0.9,5.9-2.5,6.7c-1.5,0.3-3.1,0.3-4.6,0.4C-357,1011.4-358.2,1011.4-359.4,1011.4z"/>
		<path id="XMLID_144_" class="st10" d="M-452,993c2.4,0.2,4.8,0.2,7.2,0.5c2,0.3,4.3,0.8,4.8,3.3c0.4,2.2-1.1,3.9-2.7,5.2
			c-1.6,1.3-3.4,2.3-5.3,3.1c-7.5,3.1-15.3,5-23.4,5.8c-2.9,0.3-5.8-0.4-8.7-1c-0.8-0.2-1.6-0.6-2.3-1.1c-1.9-1.3-2.4-3.4-1.4-5.4
			c1-1.9,2.5-3.3,4.4-4.3c1.9-0.9,3.7-1.8,5.7-2.4C-466.7,994.4-459.4,993-452,993z"/>
	</g>
	<g id="XMLID_4_">
		<path id="XMLID_134_" class="st10" d="M908.5,1204.2c-9.4-0.3-17.1-3.1-23.1-9.8c-1-1.1-2.1-2.3-2.5-3.8c-0.1-0.5-0.2-1,0.3-1.4
			c0.5-0.3,1-0.4,1.4,0c0.8,0.9,1.6,1.8,2.3,2.7c9.3,10.7,26,12.6,37.5,4.3c2.7-1.9,4.9-4.3,6.6-7.2c0.5-0.9,1.1-1.7,1.7-2.5
			c0.2-0.2,0.6-0.3,0.9-0.2c0.5,0.1,0.9,0.5,0.9,1.1c0.1,1.1-0.5,2-1,2.9c-4.2,7.4-10.8,11.4-18.9,13.2
			C912.4,1203.9,910.2,1204,908.5,1204.2z"/>
		<path id="XMLID_133_" class="st10" d="M907.8,1212.3c-3.1-0.1-6.4-0.4-9.4-1.8c-0.9-0.4-2.2-0.7-1.8-2c0.4-1.4,1.6-0.9,2.6-0.5
			c3.6,1.6,7.3,1.8,11.1,1.6c2.6-0.1,5-1,7.5-1.7c2.6-0.8,4.2-0.6,4,0.4c-0.3,1.8-2,1.7-3.2,2.1
			C915.1,1211.7,911.5,1212.3,907.8,1212.3z"/>
	</g>
</g>
<g id="Warstwa_6">
</g>
</svg>
