<?xml version="1.0" encoding="utf-8"?>
<!-- Generator: Adobe Illustrator 19.0.0, SVG Export Plug-In . SVG Version: 6.00 Build 0)  -->
<svg version="1.1" xmlns="http://www.w3.org/2000/svg" xmlns:xlink="http://www.w3.org/1999/xlink" x="0px" y="0px"
	 viewBox="0 0 510 80" style="enable-background:new 0 0 510 80;" xml:space="preserve">
<style type="text/css">
	.st0{fill:#EBB0AE;}
	.st1{fill:#CB8481;}
	.st2{fill:#392E38;}
	.st3{display:none;}
	.st4{display:inline;}
	.st5{fill:#39323A;}
	.st6{fill:#FFFFFF;}
	.st7{fill:#DAADAC;}
	.st8{fill:#E18581;}
</style>
<g id="BACKGROUND">
</g>
<g id="Warstwa_3">
</g>
<g id="OBJECTS">
	<g id="XMLID_176_">
		<g id="XMLID_453_">
			<circle id="XMLID_455_" class="st0" cx="-909.2" cy="-1529.2" r="20.1"/>
			<circle id="XMLID_454_" class="st0" cx="-1044.6" cy="-1529.2" r="20.1"/>
		</g>
		<g id="XMLID_177_">
			<path id="XMLID_452_" class="st1" d="M-981.5-1653.3c-1.7,0.5-2.4,1.9-3.4,2.8c-5.2,4.6-11.1,6.8-18.2,5.8
				c-2.8-0.4-5.5-0.9-8.2-1.6c-2.5-0.7-2.5-0.7-3.9,1.7c-0.9,1.5-1.7,3-2.8,4.4c-4.5,5.8-11.1,7.8-18.1,5.6
				c-2.3-0.7-4.6-1.7-6.9-2.5c-1,1.3-1.1,2.9-1.4,4.3c-1.9,7.5-6.3,12.2-14.4,12.9c-2.4,0.2-4.8,0.5-7.2,0.8c-2,0.2-2.4,0.6-2,2.6
				c1.1,5.8,0.2,11.4-2,16.8c-1.8,4.5-4.4,8.3-8.6,10.8c-2,1.2-3.2,2.6-3.2,4.9c0,1.2-0.6,2.4-1.3,3.3c-1.6,2-3.2,3.2-6.2,2.5
				c-5-1.2-10-0.6-14.5,2.4c-5.1,3.5-8.4,8.3-9.4,14.4c-0.6,4.1-0.9,8.2-0.3,12.4c0.8,5.7,2.9,10.7,6.7,14.9c2,2.2,4,4.3,5.9,6.6
				c1.3,1.6,1.1,2.8-0.6,3.9c-1.9,1.3-4,2-6.3,2.3c-3.2,0.4-6.2,0-9.2-1.2c-6.5-2.5-9.9-8.2-9.4-15.2c0.2-2.4,2.3-4.9,0.8-6.9
				c-1.2-1.7-3.7-2.4-5.6-3.7c-7.8-5.4-13.6-12.2-16-21.7c-2.7-10.5,1.3-23.7,11.6-30c1.2-0.8,3.3-1.1,3.3-2.9
				c-0.1-1.2-1.2-2.4-2-3.6c-2.4-3.6-3.5-7.6-3.8-11.8c-0.5-6.7,0.5-13.2,4-19c3-5,7.4-8.2,13.2-9.2c2.8-0.5,2.9-0.6,2.4-3.6
				c-1.1-7-0.6-13.9,2.2-20.4c2.8-6.6,7.4-11.2,14.2-13.6c2.6-0.9,2.7-1,2-3.7c-2.6-10.5-0.4-20.1,5.9-28.6
				c7.3-9.9,17.3-15.5,29.5-16.5c6.4-0.5,12.4,1.4,17.6,5.3c1.4,1,2.7,2.1,4.1,3.2c0.4,0.3,1,0.3,1.3-0.2c0.6-1,1.2-2.1,1.8-3.2
				c2.7-4.5,6.2-8.4,10.8-11.1c8.6-5,17.4-5.4,26.4-1c4.9,2.4,9.3,5.4,13.6,8.7c0.8,0.6,1.4,1.5,2.7,1.7c1.2-1.5,2.5-3.2,3.8-4.8
				c2.8-3.6,6.3-6.4,10.3-8.6c4.4-2.4,9.1-3.3,14.1-3.1c7.5,0.4,13.2,3.9,17,10.3c1.8,3.1,3.3,6.5,5,9.7c1,2,1.1,2.1,3.1,1
				c9.1-4.8,18.9-6.8,29.2-6c17.7,1.3,28.4,13.9,31,25.2c0.7,3,0.9,6.2,1.3,9.3c0.4,2.8,0.4,2.9,3.4,3.4c4.3,0.7,8.5,1.5,12.7,2.8
				c5.9,1.8,11.2,4.7,15.6,9.1c6.8,6.7,10.1,14.8,9,24.5c-0.4,3.3-1.6,6.4-2.8,9.4c1.2,1.2,2.6,1.2,3.9,1.5
				c16.9,4.7,29.7,19.9,31,37.2c0.4,5.1-0.9,10-3.5,14.5c-2.1,3.8-4.5,7.4-7.4,10.7c-1.6,1.8-1.8,3.5-0.8,5.7
				c0.8,1.7,1.2,3.6,1.5,5.5c1.1,6.8-0.1,13-3.9,18.9c-3.6,5.6-8,10-14.1,12.7c-0.3,0.1-0.6,0.3-0.9,0.5c-2.6,0.9-4.2,2.5-5.1,5.3
				c-1.4,4.6-4.3,8.3-8,11.3c-3.4,2.8-7.2,4.8-11.5,5.8c-6.1,1.5-11.7,0.2-17-2.9c-2.1-1.3-2.1-3.2-0.1-4.5
				c11.2-7.1,15.6-17.7,15.5-30.5c-0.1-5.5-1.9-10.6-4.6-15.3c-1.7-2.9-4.2-5.1-7.3-6.4c-4.1-1.6-8.2-2.6-12.7-1.8
				c-4.7,0.9-7.6-0.7-9.7-5c-1.6-3.2-2.2-6.6-2.2-10.1c0-4.9,0.8-9.7,1.8-14.4c0.5-2,0.2-2.3-2-2.6c-1.7-0.2-3.4-0.5-5.2-0.6
				c-7.2-0.7-12.3-4.3-15.3-10.9c-1.1-2.4-1.1-2.4-3.9-1.8c-2.7,0.6-5.5,1-8.2,1.1c-3.5,0.1-6.9-0.6-10.1-2
				c-4.4-1.9-7.6-4.8-9.3-9.3c-0.3-0.8-0.7-1.6-1-2.4c-0.3-0.7-1-0.9-1.7-0.8c-1.7,0.4-3.4,0.8-5.1,1.2c-3.6,0.8-7.2,1.2-10.8,0.9
				c-7.7-0.6-13.4-4.3-17.1-11.1C-979.4-1648.5-980.3-1650.8-981.5-1653.3z"/>
			<path id="XMLID_451_" class="st1" d="M-978-1224.5c-34.2,0-68.4-0.1-102.6,0c-27.4,0.1-54.9,0.2-82.3,0.6
				c-16.8,0.3-33.6,1.1-50.5,1.8c-6.4,0.2-12.8,0.5-19.3,0.7c-2.9,0.1-3.4-0.5-2.7-3.4c0.9-3.7,2-7.4,3-11.1c0.3-1.1,1-1.8,2.2-1.9
				c0.7-0.1,1.4-0.1,2.1-0.1c9.4-0.4,18.7-0.7,28.1-1.2c28.4-1.6,56.9-2,85.3-2.5c28.5-0.4,56.9-0.3,85.4-0.4
				c21.4-0.1,42.7,0,64.1-0.3c15.3-0.2,30.5-1,45.8-1.6c11.1-0.4,22.2-0.9,33.3-1.2c24.8-0.8,49.6-1.5,74.4-2.3
				c12.1-0.4,24.3-0.7,36.4-0.9c15.6-0.3,31.2,0.2,46.8,0.9c3.3,0.1,3.4,0.1,4.3,3.3c1.2,4,2.2,8,3.2,12.1c0.5,1.9,0,2.5-2.1,2.4
				c-3,0-5.9-0.1-8.8-0.3c-14.2-0.8-28.5-0.9-42.7-0.7c-20.1,0.3-40.3,0.9-60.4,1.4c-11.1,0.3-22.2,0.5-33.3,1
				c-20.5,0.8-40.9,1.7-61.4,2.6c-2.9,0.1-5.9,0.2-8.8,0.3c-13.2,0.3-26.4,0.7-39.6,1C-978-1224.4-978-1224.5-978-1224.5z"/>
			<path id="XMLID_450_" class="st1" d="M-979.5-1255.4c-59.3,1.2-121.1,0.8-182.9,1.3c-19.1,0.2-38.2,0.5-57.3,0.8
				c-1.6,0-3.1,0-4.7-0.1c-0.5,0-0.8-0.5-0.8-1.1c0-0.3,0.2-0.7,0.3-1c2-3.8,4.1-7.7,6-11.5c0.9-1.8,2.2-2.5,4.1-2.5
				c3.1,0,6.2-0.3,9.4-0.3c38.7-0.6,77.4-1.4,116.1-1.6c29.3-0.2,58.7-0.7,88-1.1c19.6-0.3,39.2-0.4,58.8-0.9
				c18.7-0.4,37.5-1.3,56.2-1.8c23.4-0.6,46.9-1.3,70.3-0.9c24.1,0.4,48.3,0.8,72.4,1.2c2.4,0,4.9,0.2,7.3,0.3
				c1.1,0.1,1.9,0.6,2.4,1.7c1.9,4.5,3.7,9,5,13.7c0.4,1.3-0.2,2-1.5,2.1c-0.5,0-1,0-1.6,0c-18.4-0.3-36.8-0.3-55.2-0.8
				c-22.7-0.7-45.5-0.7-68.2-0.4c-16.8,0.2-33.7,1-50.5,1.5c-2.8,0.1-5.6,0.2-8.3,0.2C-935-1256.2-956-1255.2-979.5-1255.4z"/>
			<path id="XMLID_449_" class="st1" d="M-974.4-1292.8c-15.5,0-30.9-0.1-46.4,0c-21.9,0.2-43.7,0.6-65.6,1.1
				c-20.1,0.5-40.2,1.3-60.4,2c-17.3,0.6-34.7,1.3-52,1.8c-2.2,0.1-4.5,0.4-6.7-0.3c0-2.8,2.4-4,3.9-5.8c2.3-2.6,4.9-4.9,7.2-7.5
				c2-2.2,4.3-3.2,7.3-3.2c5.9-0.1,11.8-0.5,17.7-0.7c12.8-0.5,25.7-0.9,38.5-1.5c26.5-1.3,53.1-2.1,79.6-2.8
				c28.3-0.7,56.6-1.1,84.9-0.8c25.5,0.3,51,0.5,76.6,1c32.5,0.7,64.9,0.6,97.4,1c12,0.1,24,0.5,35.9,0.5c2.8,0,4.5,1,5.9,3.3
				c2.5,4.2,5.5,8,7.6,12.4c0.6,1.2,0.1,2-1.3,2c-4.2,0-8.3,0-12.5-0.1c-22.4-0.2-44.8-0.4-67.2-0.7c-39.4-0.5-78.8-0.9-118.2-1.4
				c-10.8-0.1-21.5-0.4-32.3-0.6C-974.4-1292.9-974.4-1292.9-974.4-1292.8z"/>
			<path id="XMLID_448_" class="st1" d="M-944.3-1329.6c0.7-1.4,2.1-1.4,3.1-1.8c3.7-1.6,7.4-2.9,11.1-4.5c5.1-2.2,10-4.9,14.2-8.6
				c2.4-2.1,4.9-2.8,8-2.8c20.1,0.1,40.3,0,60.4,0.2c18.2,0.1,36.4,0.6,54.7,0.7c2.8,0,5,0.8,7.1,2.5c4.9,4.1,9.9,8.2,14.8,12.3
				c0.7,0.5,1.3,1.2,1.8,1.9c0.3,0.4,0.4,1.1-0.4,1.1c-2.1,0.1-4.2,0.2-6.2,0.1c-23.1-0.3-46.2-0.7-69.3-1
				c-30.9-0.4-61.8-0.2-92.7,0.1C-939.8-1329.3-942.1-1329-944.3-1329.6z"/>
			<path id="XMLID_447_" class="st1" d="M-998.6-1329c-1.4,1.1-2.8,0.8-4.1,0.8c-16,0.2-31.9,0.6-47.9,0.6
				c-36.6,0.1-73.2,0.2-109.9,0.2c-1.4,0-2.8,0-4.2-0.1c-0.3,0-0.7-0.2-0.8-0.5c-0.1-0.3,0-0.8,0.2-0.9c1.5-1.2,3-2.3,4.6-3.4
				c5-3.5,10-6.8,15.5-9.6c3-1.5,6.1-2.3,9.5-2.3c12,0,23.9-0.2,35.9-0.3c20-0.2,39.9-0.4,59.9-0.7c3.1-0.1,5.5,0.8,8.1,2.6
				c7.5,5.2,15.9,8.4,24.7,10.8C-1004.2-1331-1001.4-1330.3-998.6-1329z"/>
			<path id="XMLID_446_" class="st1" d="M-889.8-1360.7c-2.2,0-4.4,0-6.7,0c-1.4,0-1.8-0.8-0.9-2c2.7-3.9,5.3-7.7,7.2-12
				c0.5-1.2,1.4-1.9,2.8-2c1.7-0.1,3.4-0.4,5.2-0.5c7.1-0.4,14.2-0.6,21.3-1.1c3.3-0.2,6.5,0.3,9.7,1.5c9.4,3.5,18.8,7.1,27.9,11.3
				c0.8,0.4,1.6,0.7,2.3,1.2c0.2,0.1,0.3,0.6,0.3,0.9c0,0.1-0.2,0.2-0.4,0.2c-0.9,0.1-1.7,0.2-2.6,0.2c-17.5,0.5-35,0.9-52.5,1.4
				C-880.7-1361.4-885.2-1361-889.8-1360.7z"/>
			<path id="XMLID_445_" class="st1" d="M-1111-1356.8c0.5-1.6,1.8-1.7,2.9-2.1c5.8-2.3,11.6-4.5,17.4-6.8c4.6-1.9,9.2-4,13.7-6.2
				c2.1-1,4.1-1.7,6.4-1.6c2.8,0.2,5.7-0.5,8.2,0.4c2.4,0.8,2.9,4.1,4.5,6.1c2.2,2.7,4.3,5.4,6.4,8.2c0.6,0.8,0.2,1.7-0.9,1.8
				c-0.9,0.1-1.7,0.1-2.6,0.1c-10.7-0.7-21.5-0.2-32.2,0c-7.1,0.1-14.2,0.1-21.3,0.2C-1109.3-1356.6-1110.1-1356.7-1111-1356.8z"/>
			<path id="XMLID_444_" class="st1" d="M-962.7-1361.8c0.6-1.3,1-2.6,1.7-3.7c2.4-3.9,7.2-4.9,10.9-2.4c3.5,2.4,4.3,7.1,1.9,10.6
				c-2.5,3.6-7.4,4.3-11,1.7c-1.1-0.8-1.5-2.3-2.9-2.8c-1.3,0.7-1.2,2.1-2,3c-2.9,3.7-8.1,4.3-11.4,1.2c-3.1-2.8-3.2-7.7-0.4-10.8
				c3.1-3.4,8.3-3.2,11.5,0.4C-963.8-1363.7-963.3-1362.8-962.7-1361.8z"/>
			<path id="XMLID_443_" class="st1" d="M-907.9-1378.3c-4.9,0.1-8.7-3.1-8.8-7.6c-0.2-4.4,3.4-8.2,7.7-8c5.1,0.3,8.6,3.9,8.6,8
				C-900.4-1381.6-903.5-1378.4-907.9-1378.3z"/>
			<path id="XMLID_442_" class="st1" d="M-930.3-1365.3c0.1,4.2-3.3,7.7-7.5,7.7c-4.1,0.1-7.7-3.4-7.8-7.5c-0.1-4.2,3.3-7.7,7.5-7.8
				C-933.9-1372.9-930.4-1369.5-930.3-1365.3z"/>
			<path id="XMLID_441_" class="st1" d="M-921.6-1365.9c-4.2-0.1-7.5-3.6-7.4-7.8c0.1-4.2,3.6-7.6,7.8-7.5c4.2,0.1,7.5,3.6,7.4,7.9
				C-914-1369.1-917.4-1365.8-921.6-1365.9z"/>
			<path id="XMLID_440_" class="st1" d="M-1022.3-1379.6c4.1,0.4,7.2,4.2,6.9,8.2c-0.4,4.1-4,7.3-8.1,7c-4.1-0.3-7.4-3.9-7.2-8
				C-1030.4-1376.7-1026.6-1380-1022.3-1379.6z"/>
			<path id="XMLID_439_" class="st1" d="M-980.7-1361c0,4.3-3.3,7.6-7.5,7.6c-4.3,0-7.6-3.3-7.6-7.5c0-4.3,3.2-7.6,7.5-7.7
				C-984.1-1368.6-980.8-1365.2-980.7-1361z"/>
			<path id="XMLID_438_" class="st1" d="M-1040.2-1373.9c-4.3,0-7.6-3.4-7.5-7.6c0-4.2,3.5-7.6,7.7-7.5c4.3,0,7.6,3.4,7.6,7.6
				C-1032.6-1377.1-1035.9-1373.8-1040.2-1373.9z"/>
			<path id="XMLID_437_" class="st1" d="M-1005-1356.4c-4.3,0-7.5-3.3-7.5-7.6c0-4.3,3.3-7.5,7.6-7.5c4.3,0,7.5,3.3,7.5,7.6
				C-997.4-1359.7-1000.7-1356.4-1005-1356.4z"/>
			<path id="XMLID_206_" class="st2" d="M-1029.8-1553.4c-6.1,0.2-11.1-0.7-15.9-2.2c-2.8-0.9-5.5-2.2-7.7-4.1
				c-4.1-3.4-5.3-8-3.6-13.1c2-6.2,6.6-9.6,12.7-11c9.7-2.2,19.3-1.1,28.5,2.5c2.9,1.1,5.5,2.9,7.8,5c5.1,4.7,4.2,13-0.7,17
				c-3.2,2.5-6.9,4-10.8,4.9C-1023.2-1553.7-1027-1553.4-1029.8-1553.4z M-1047.8-1579.9c-5.1,3.3-7.5,7.1-7.1,12.1
				c0.3,4.1,3,6.6,7.4,8.3C-1050.2-1566.3-1049.9-1572.6-1047.8-1579.9z M-1007.1-1568c0-3.3-1.7-5.7-4.1-7.5
				c-0.7-0.5-1.8-1.3-2.2-1.1c-1.1,0.6-0.4,1.8-0.2,2.7c0.5,1.7,0.4,3.4,0.5,5.1c0.2,2.6-0.5,5.1-0.9,7.7c-0.1,0.8,0.6,1.4,1.2,1.1
				C-1009.2-1561.6-1007.6-1564.5-1007.1-1568z"/>
			<path id="XMLID_202_" class="st2" d="M-936-1550.3c-4.4-0.1-9.2-0.4-13.8-2.1c-2.3-0.8-4.5-1.9-6.5-3.3c-5.8-4.1-6.8-12.9-0.9-18
				c3-2.5,6.3-4.4,9.9-5.5c8.4-2.5,16.9-3.5,25.6-1.5c6.3,1.4,11.1,4.7,13.1,11.2c1.6,5.1,0.3,9.6-3.8,13c-2.3,1.9-4.9,3.2-7.8,4.1
				C-925.2-1550.9-930.2-1550-936-1550.3z M-950.2-1574.7c-2.2,0.4-3.9,1.9-5.4,3.4c-4,4-3.8,9.5,0.6,13.1c1.6,1.3,3.5,2.2,5.4,2.9
				c0.4,0.2,1,0.3,1.4,0.1c0.6-0.3,0.2-0.9-0.1-1.3c-2.8-4.7-3-9.8-2.2-15C-950.4-1572.5-949.5-1573.4-950.2-1574.7z M-918-1556.3
				c4.7-2.1,7.3-4.9,7.3-9.4c0-2.3-0.8-4.4-2-6.3c-1.1-1.7-2.3-3.3-4.8-4.1C-915.4-1569.5-914.8-1563.3-918-1556.3z"/>
			<path id="XMLID_197_" class="st2" d="M-978.4-1211.4c-32.8,0.3-65.6,0.4-98.4,1.1c-27.1,0.6-54.2,0.4-81.2,1
				c-23.8,0.5-47.6,0.6-71.3,0.9c-1.6,0-3.1,0-4.7,0c-2.4-0.1-3.2-0.7-3.4-3c-0.3-3.8-0.1-7.6,0.6-11.4c1.1-6.2,3-12.2,5.2-18
				c3.8-9.9,8.3-19.5,13.3-28.8c9.2-17,21.5-31.5,35.3-44.8c5.8-5.5,11.6-11,18-15.8c8.1-6,16.6-11.3,25.7-15.8
				c21.9-11,44.6-20.1,67.6-28.3c15.9-5.7,26.6-16.6,30.7-33.4c1.5-6.3,2.6-12.6,2.5-19c-0.1-3.4-0.1-3.5-3.1-4.5
				c-9.2-3-16.5-8.7-22.4-16.3c-7.4-9.6-12.5-20.3-15-32.3c-2.3-11.1-3.7-22.2-5-33.4c-0.3-2.6-0.5-3-2.9-3.5
				c-15.1-3.3-29.9-20.9-28.7-40c0.2-3.3,0.9-6.5,2.2-9.6c6.2-14.2,20.8-15.9,31-11.6c0.5,0.2,0.9,0.6,1.2,0.9
				c0.2,0.2,0.3,0.7,0.2,1c-0.1,0.3-0.4,0.6-0.7,0.7c-1.3,0.3-2.4-0.3-3.5-0.7c-3.5-1.1-7.1-1.7-10.8-1c-7.2,1.4-12.3,5.5-15,12.3
				c-2.1,5.3-2.4,10.8-1.2,16.4c2.3,10.5,7.8,18.8,16.7,24.8c3.3,2.3,7,3.8,11,4.4c2.5,0.4,2.8,0.8,2.9,3.4
				c0.6,9.7,2.2,19.3,3.8,28.9c1.5,9.1,3.8,18,8.3,26.2c3.1,5.7,6.7,11,11.1,15.7c6.5,6.9,14.3,11.6,23.9,12.4
				c1.3,0.1,2.4,0.3,3.3,1.3c6.6,7,15.3,10,24.3,12.2c9.1,2.2,18.4,3.5,27.8,3.2c19.2-0.5,36.9-5.9,53.2-15.9
				c1.8-1.1,3.6-1.9,5.8-2.2c3.1-0.4,6.1-1.4,9-2.6c7.5-3.3,12.8-8.8,16.5-16c3.2-6.2,5.3-12.8,7.2-19.5c1.8-6.2,2.5-12.6,2.9-19
				c0.3-6.2,0.3-12.5,0.3-18.7c0-2.6-0.1-5.2-1.1-7.7c-0.6-1.3,0.2-2.3,1.7-2.6c16-3.4,24.4-14.3,28.2-29.4
				c1.2-4.7,0.9-9.6-0.6-14.4c-3.3-10.6-12.8-16.1-23.6-13.7c-2,0.4-4,1-6.1,1.4c-0.3,0.1-1.1-0.4-1.1-0.8c-0.1-0.4,0.3-0.9,0.5-1.3
				c0.2-0.3,0.6-0.4,0.9-0.5c12.8-5.2,28.4-0.8,32.6,16c1.4,5.7,1.1,11.4-0.6,17c-4.1,13.7-12.5,23.4-26.3,28
				c-2.3,0.8-2.5,0.8-2.2,3.3c1,8.7,0.4,17.3-0.1,26c-0.8,13-4.4,25.2-10.1,36.9c-4.5,9.2-11.5,15.5-21.2,18.9
				c-0.7,0.2-1.3,0.4-2,0.6c-1.1,0.4-1.8,1-1.9,2.2c-0.6,7.5-0.3,14.9,2.1,22.1c1.5,4.5,4.2,8.4,7.8,11.5
				c5.4,4.7,11.5,8.4,18.5,10.2c10.1,2.6,20.2,4.9,30.2,7.8c19.8,5.6,38.7,13.2,56.6,23.4c31,17.6,53.2,42.9,66.8,75.9
				c6.2,15,10.8,30.4,14.5,46.1c1,4.4,2,8.8,2.8,13.2c0.7,3.5-0.4,4.8-4.1,5c-6.2,0.2-12.5,0.2-18.7,0.3
				c-24.1,0.3-48.3,0.6-72.4,0.9c-24.6,0.3-49.3,0.6-74,0.9c-16.1,0.2-32.3,0.6-48.4,0.8c-14.4,0.1-28.8,0-43.2,0
				C-978.4-1211.7-978.4-1211.5-978.4-1211.4z M-843.6-1216.1C-843.6-1216.1-843.6-1216-843.6-1216.1c2.4,0.1,4.9,0.1,7.3,0.1
				c21.2-0.3,42.3-0.6,63.5-0.9c16.1-0.2,32.3-0.4,48.4-0.7c3.8-0.1,4.2-0.6,3.6-4.3c-0.1-0.3-0.1-0.7-0.2-1
				c-4.4-20-9.8-39.7-18-58.6c-12.8-29.4-32.9-52.3-60.3-69c-15.1-9.2-31.2-15.9-47.7-21.7c-12.1-4.3-24.7-7-37.1-10
				c-1-0.2-1.7,0.1-2,1.1c-0.4,1.1-0.8,2.3-1.2,3.4c-2.5,6.7-5.8,13-10.1,18.7c-10.8,14.3-25,23.8-41.9,29.6c-8.7,3-17.7,4.8-27,5.3
				c-2.8,0.2-3,0.3-3,3.1c0,5.6,0.1,11.1,0.3,16.7c0.6,19.8,1.2,39.5,1.8,59.3c0.3,8.8,0.6,17.7,0.9,26.5c0,0.7,0.1,1.4,0.1,2.1
				c0.1,1.2,0.8,1.9,2,1.9c2.1,0.1,4.2,0.1,6.2,0c5.2-0.1,10.4-0.3,15.6-0.3c9.4-0.1,18.7-0.1,28.1-0.2
				C-890.8-1215.4-867.2-1215.7-843.6-1216.1z M-1102.1-1212.8c1.5,0,4.1,0,6.7,0c26.5-0.3,53.1-0.7,79.6-1
				c13.4-0.2,26.7-0.2,40.1-0.4c7.2-0.1,6.2-0.1,6.1-6.4c-0.2-10.8-0.7-21.5-1-32.3c-0.5-20.3-0.9-40.6-1.4-60.9
				c-0.1-2.6-0.2-5.2-0.4-7.8c-0.1-1.8-0.7-2.3-2.7-2.4c-0.7,0-1.4,0-2.1,0c-10.7-0.3-21-2.1-31.1-5.4c-23-7.6-41.8-20.8-55-41.4
				c-0.4-0.6-0.7-1.2-1.2-1.7c-0.5-0.6-1.1-0.8-1.8-0.6c-0.8,0.2-1.7,0.5-2.5,0.8c-21.9,7.4-43.3,16-64,26.2
				c-9.2,4.5-18.2,9.2-26.6,15.2c-14.1,10.1-26.1,22.3-37.5,35.2c-6.7,7.6-12.4,15.8-17.4,24.6c-5.5,9.5-10,19.4-14.1,29.5
				c-3.1,7.6-5.7,15.3-6.4,23.5c-0.7,7.9-0.7,7.2,6.1,7.1c16.3-0.2,32.6-0.5,48.9-0.7c7.3-0.1,14.6-0.1,21.9-0.2
				C-1139.6-1212.2-1121.4-1212.5-1102.1-1212.8z M-973.6-1326.6c6.5,0.1,12.8-0.7,19.1-1.8c14.2-2.6,27.3-7.9,38.9-16.6
				c11.7-8.7,20.4-19.7,25.4-33.5c0.4-1.1,0.8-2.3,1.1-3.5c0.2-0.7,0-1.3-0.9-1.6c-0.5-0.2-1-0.4-1.5-0.5
				c-8.7-3.1-16.2-7.8-21.9-15.2c-0.8-1.1-1.7-1.6-3.1-1.2c-1.3,0.4-2.7,0.5-4.1,0.9c-6.4,1.7-13,2.2-19.6,2.4
				c-15.3,0.5-30.4-1.3-45.3-5c-16-3.9-30.1-11.2-42.4-22.3c-1.4-1.3-2.8-2.6-4.3-3.8c-0.7-0.5-1.4-1-2.2-1.2
				c-0.7-0.2-1.5,0-1.6,0.8c-0.1,1-0.1,2.1-0.1,3.1c0,7.3-1.2,14.5-3.3,21.5c-2.5,8.3-6.7,15.6-13.1,21.5c-2.4,2.2-5.2,4-8,5.8
				c-2,1.3-2.1,1.6-0.8,3.7c4.6,7.7,10.3,14.4,17,20.2C-1023.9-1335.2-1000.1-1327.2-973.6-1326.6z"/>
			<path id="XMLID_193_" class="st2" d="M-1068.5-1581.9c0.1-22.4,18.5-40,40.9-38.2c21.2,1.7,32.3,17.7,34.4,31.1
				c0.1,0.5,0.2,1,0.2,1.5c0.3,2.4,0.6,4.8,0.9,7.2c2.4,1.1,4.6-0.7,7-0.6c3.3,0.2,6.6,0.4,9.8,1.3c2.7,0.7,2.8,0.7,3.1-2.1
				c0.5-4.5,1.6-8.9,3.7-12.9c5.9-11.4,15.1-18.2,27.7-20.6c18.2-3.6,39.6,8.9,43.6,30.9c3.2,18-8.3,39.8-31.2,43.8
				c-18.8,3.3-39.9-9.3-43.3-31.1c-0.5-3.1-1.9-4.7-4.7-5.4c-4.8-1.3-9.6-1.7-14.3,0.1c-1.4,0.5-2.4,1.3-2.7,2.8c-0.5,2-1,4-1.9,5.9
				c-6.4,15.1-18,23.4-34.1,23.9c-20.7,0.7-35-14-38.3-30.3C-1068.2-1577.2-1068.7-1579.7-1068.5-1581.9z M-1065.5-1582.5
				c-0.5,20.8,17.5,35.3,34.7,35.4c19.7,0.1,35.3-16.6,35.4-34.8c0.1-18.7-15.5-35.3-34.8-35.4
				C-1050.1-1617.4-1065.9-1600.7-1065.5-1582.5z M-899.6-1577.8c0.7-19.7-16.6-35.2-34.8-35.3c-17.3,0-35.1,14-35.1,35.1
				c0,20.6,17.2,34.8,34.6,35C-915.1-1542.8-899.1-1559.5-899.6-1577.8z"/>
			<path id="XMLID_192_" class="st2" d="M-962.1-1535.7c0.1,6.6-3.2,11.5-9,13.8c-5.3,2-10.8,2.3-16.3,0.4c-0.6-0.2-1.2-0.7-1.7-1.2
				c-0.2-0.2-0.2-0.7-0.2-0.9c0.1-0.3,0.5-0.7,0.7-0.7c0.9,0,1.7,0.2,2.5,0.4c3.4,0.9,6.9,0.9,10.3,0.4c5.2-0.8,9-3.3,10.6-8.7
				c0.6-2.1,0.5-4.1,0-6.1c-0.9-3.7-2.3-7.3-4-10.7c-2.4-4.6-4.9-9.2-7.4-13.7c-0.4-0.8-0.8-1.5-1-2.3c-0.1-0.2,0.2-0.7,0.5-0.8
				c0.2-0.2,0.7-0.2,0.9-0.1c1,0.4,1.5,1.4,2.1,2.2c4.1,6.8,7.9,13.8,10.6,21.4C-962.7-1540-961.9-1537.7-962.1-1535.7z"/>
			<path id="XMLID_191_" class="st2" d="M-974.7-1475.4c-3.5,0.4-7.2-0.5-11-1.2c-4.7-0.9-8.7-3.3-12.2-6.6
				c-0.5-0.5-0.9-1.2-0.4-1.8c0.4-0.7,1.1-0.6,1.8-0.2c0.2,0.1,0.3,0.2,0.4,0.3c7,6.3,15.6,7,24.4,6.8c8-0.2,14.8-3.4,20.6-8.7
				c1-0.9,1.8-2.2,3.3-2.5c0.3-0.1,0.7,0.1,0.9,0.3c0.2,0.2,0.4,0.7,0.3,0.9c-0.4,0.7-0.9,1.5-1.5,2.1
				C-955.4-1478.9-964.1-1475-974.7-1475.4z"/>
			<path id="XMLID_190_" class="st2" d="M-1098.7-1551.5c-0.3,2.5,0.5,4.8,2,6.8c0.8,1.1,1.6,2.2,2.5,3.4c0.6,0.8,1.5,1.8,0.3,2.7
				c-0.8,0.6-1.6-0.2-2.2-0.9c-4.1-4.4-6.7-9.4-4.9-15.6c2.2-7.6,8-10.7,15.7-8.3c0.7,0.2,1.2,0.9,0.8,1.6c-0.2,0.4-0.8,0.7-1.3,0.7
				c-1,0-2.1-0.3-3.1-0.4c-5.3-0.4-9.4,3.1-9.9,8.4C-1098.7-1552.5-1098.7-1552-1098.7-1551.5z"/>
			<path id="XMLID_189_" class="st2" d="M-877.6-1564.1c4.7,0,9.2,3.8,10.4,8.7c1.1,4.2,0.6,8.3-1.9,12c-1.1,1.7-2.3,3.5-4,4.7
				c-0.4,0.3-1,0.4-1.4,0c-0.4-0.4-0.5-1-0.2-1.4c0.9-1.3,1.8-2.5,2.7-3.8c2-2.6,2.7-5.5,2.5-8.8c-0.4-5.6-4.5-9.2-10.1-8.7
				c-1,0.1-2.1,0.3-3.1,0.4c-0.6,0-0.9-0.4-1.1-0.9c-0.3-0.6,0.2-1,0.6-1.3c1-0.8,2.3-0.7,3.5-0.8
				C-879-1564-878.3-1564.1-877.6-1564.1z"/>
			<path id="XMLID_188_" class="st2" d="M-1020-1493.8c-0.5-0.3-1.1-0.5-1.2-0.8c-0.1-0.4,0.2-1.1,0.6-1.3c0.9-0.5,1.9-0.8,2.9-1.2
				c7.6-2.9,14.2-7.1,18.5-14.3c0.2-0.3,0.4-0.5,0.7-0.8c0.5-0.4,1-0.3,1.4,0.1c0.2,0.2,0.5,0.7,0.4,0.9c-0.3,1-0.7,2-1.3,2.8
				c-2.1,3.2-4.9,5.8-8,8.1c-3.5,2.6-7.4,4.5-11.5,6C-1018.3-1494.1-1019.1-1494-1020-1493.8z"/>
			<path id="XMLID_187_" class="st2" d="M-946.3-1510.4c0.4,0.1,0.8,0,1,0.2c0.5,0.5,0.9,1,1.3,1.6c3.2,4.9,7.5,8.5,12.7,11.2
				c2.2,1.1,4.3,2.2,6.5,3.3c0.5,0.2,0.8,0.7,0.7,1.2c-0.2,0.9-0.9,0.9-1.6,0.9c-0.3,0-0.7,0-1-0.2c-6.9-3.3-13.6-6.8-18.2-13.3
				c-0.8-1.1-1.8-2.2-1.9-3.6C-946.8-1509.5-946.5-1510-946.3-1510.4z"/>
			<path id="XMLID_186_" class="st2" d="M-971.3-1469.5c-2.7-0.2-5.3,0.3-7.8-0.5c-0.5-0.2-0.8-0.6-0.6-1.2c0.1-0.3,0.4-0.7,0.6-0.7
				c0.8-0.2,1.7-0.3,2.5-0.4c5-0.1,10,0.3,15-0.8c0.4-0.1,1.1,0.3,1.2,0.7c0.4,0.7-0.1,1.4-0.8,1.6c-1.1,0.4-2.3,0.7-3.5,0.8
				C-966.9-1469.7-969.1-1469.6-971.3-1469.5z"/>
			<path id="XMLID_183_" class="st2" d="M-991-1247.2c3.9-0.8,8.2,3.9,8.2,9.9c0,5-3,8.3-8.3,8.7c-5,0.5-9.7-4.3-9.6-9.5
				C-1000.6-1242.7-997.1-1247.4-991-1247.2z M-991.6-1231.4c3.7,0.1,6.2-2.3,6.2-6.1c0-3.8-2.5-7.2-5.3-7.2c-4.3,0-7.1,2.5-7.2,6.5
				C-998.1-1234.4-995.4-1231.5-991.6-1231.4z"/>
			<path id="XMLID_180_" class="st2" d="M-982-1307c0,4.7-3.9,8.6-8.5,8.7c-4.6,0.1-9-3.8-9.1-8.2c-0.1-4.7,3.6-8.4,8.6-8.4
				C-985.9-1314.9-982-1311.6-982-1307z M-990.8-1301c3.3,0.1,6-2.4,6.2-5.7c0.2-2.8-2.8-5.4-6.4-5.4c-3.4,0-5.7,2.1-5.9,5.3
				C-997-1303.7-994.3-1301.1-990.8-1301z"/>
			<path id="XMLID_179_" class="st2" d="M-1044-1589.9c-3.5,0.1-5.7-0.2-6.8-2.7c-0.9-2.1,0-4.5,2.4-6.3c4.6-3.3,9.9-4.8,15.6-4.8
				c1,0,2,0.3,2.9,0.9c1.7,1.1,2.2,2.7,1.1,4.5c-0.4,0.7-1,1.5-1.6,2.1C-1034.3-1592.3-1039.4-1590.4-1044-1589.9z"/>
			<path id="XMLID_178_" class="st2" d="M-935.7-1603.9c4.1,0.5,8.8,1.6,13,4.3c1.3,0.9,2.4,2,3.1,3.4c1.2,2.6-0.2,5.4-3,6.1
				c-0.5,0.1-1,0.2-1.6,0.2c-6.3-0.1-11.8-2.3-16.3-6.9c-0.5-0.5-0.9-1.1-1.2-1.7c-1-1.8-0.5-3.3,1.2-4.4
				C-939.2-1603.7-937.9-1603.8-935.7-1603.9z"/>
		</g>
	</g>
	<g id="XMLID_72_">
		<g id="XMLID_76_">
			<path id="XMLID_98_" class="st1" d="M-1690.1-1209.9c-19.3,0-38.5,0.1-57.8,0c-31.4-0.1-62.8-0.4-94.3-0.5
				c-39.4-0.2-78.8-0.3-118.2-0.5c-2.9,0-5.9-0.2-8.8-0.3c-2.7-0.1-2.9-0.5-2.6-3.1c0.3-3.5,1.5-6.8,2.8-10
				c4.1-10,8.7-19.6,13.6-29.2c5-9.7,9.7-19.6,14.1-29.6c8.2-18.4,19.1-35,32.9-49.7c6.6-7,14.2-12.7,22.7-17.3
				c7.3-4,14.9-7.5,22.6-10.5c18.9-7.3,37.9-14.6,57-21.4c13.7-4.8,27.5-9.7,41.2-14.6c0.5-0.2,1-0.4,1.5-0.5c3.1-0.9,4-0.3,4.8,2.8
				c1,3.7,1.7,7.5,3,11c8.6,23.6,24.6,39.6,49.2,46c18.8,4.9,36.9,2,53.8-7.4c18.9-10.4,31.7-26.1,39.3-46.2
				c2.2-5.9,1.6-5.8,7.6-3.6c27.5,10.2,55.2,19.9,82.4,30.7c8.9,3.5,17.6,7.3,26.2,11.5c15.4,7.5,29.5,17,40.7,30.2
				c8.8,10.4,16.5,21.5,22.6,33.6c4.7,9.1,8.5,18.6,11.8,28.3c5.1,14.8,10,29.6,13.5,44.8c0.2,0.7,0.4,1.3,0.5,2
				c0.8,3.4-1.1,5.3-4,5c-0.9-0.1-1.7,0-2.6,0c-27.1-0.1-54.2-0.1-81.3-0.2c-12.8,0-25.7-0.2-38.5-0.2c-35.9-0.2-71.9-0.4-107.8-0.5
				c-16-0.1-31.9,0-47.9,0C-1690.1-1209.5-1690.1-1209.7-1690.1-1209.9z"/>
			<path id="XMLID_95_" class="st2" d="M-1573.5-1724.4c2.2,0.9,3.8,1.4,5.4,2.1c5.5,2.4,9.5,6.3,11.5,12.1c2,6,1.4,11.6-2.3,16.8
				c-1,1.4-2,2.9-3.3,4c-5.9,5.1-7.6,11.8-7.7,19.2c-0.1,2.1,0,4.2,0.1,6.2c1,14,1.2,28.1,1.5,42.1c0,1.6,0.1,3.1,0,4.7
				c-0.1,1.9,0.6,3.2,2.3,4.2c2.1,1.2,4.1,2.7,5.9,4.3c15.5,14.1,14.4,37.1-2.3,49.8c-5.8,4.4-12.5,6.8-19.6,7.6
				c-2.5,0.3-2.8,1-2.7,3.3c0.4,6.6,0.6,13.2,0.2,19.8c-1.2,21.1-7.1,40.6-20.3,57.5c-2,2.6-4.3,5-6.6,7.4c-1.2,1.2-1.7,2.5-1.6,4.2
				c0.2,3.6,0.3,7.3,0.5,10.9c0.6,10.6,1.3,21.1,2,31.7c0.5,7.3,1.1,14.5,1.5,21.8c0.2,2.9,0.2,5.9,0.2,8.8c0,0.4-0.3,1-1,1
				c-0.6,0-1.1-0.3-1.1-0.8c-0.4-2.4-0.7-4.8-0.9-7.2c-0.4-5.9-0.7-11.8-1.1-17.7c-0.2-3-0.4-3.3-3.6-2.8
				c-5.9,0.9-11.8,0.8-17.7,0.8c-31.1-0.2-60.4-7.7-87.7-22.8c-9.1-5.1-17.9-10.7-25.6-17.8c-2-1.8-4.3-3.5-6.9-4.9
				c-1,2.5-1,5-1.1,7.3c-0.8,14-1.6,28.1-2.5,42.1c-0.3,5.5-0.7,11.1-1.1,16.6c-0.1,1.9-0.4,3.8-0.7,5.7c-0.1,0.7-0.4,1.5-1.2,1.5
				c-1.1,0-1.3-1-1.3-1.9c0-2.4,0.1-4.9,0.2-7.3c0.6-8.5,1.2-17,1.7-25.4c0.7-11.3,1.4-22.5,2.1-33.8c0-0.7,0-1.4,0.1-2.1
				c0.7-4-0.6-7.1-3.6-10.2c-11.9-12.5-18.9-27.7-22.5-44.5c-2.6-12-2.9-24.1-2.3-36.2c0.1-1,0.1-2.1,0.1-3.1c0-1-0.5-1.6-1.5-1.8
				c-2.1-0.3-4.1-0.6-6.2-1c-8.2-1.9-15.2-5.9-20.6-12.4c-11.8-14.3-9.3-34.6,5.8-46c1.2-0.9,2.5-1.8,3.9-2.6
				c1.5-0.8,1.7-1.9,1.4-3.5c-3.6-17.8-4.2-35.8-3.5-53.9c0.6-14.7,2.2-29.4,5.9-43.8c3.3-12.8,9.5-24.2,18.9-33.6
				c2.9-3,6-5.8,9.1-8.6c7.8-7,16.8-11.6,26.8-14.5c12-3.6,24.2-6.1,36.6-7.5c6.9-0.8,13.8-1.4,20.6-2.6c12.4-2.1,23.9-7,35.3-12.2
				c6.8-3.1,13.5-6.3,20.7-8.5c5.7-1.7,11.5-2.4,17.4-2c8.3,0.5,16.9,7.2,18,18.5c0.6,5.8-0.1,11.4-1.6,17c-1,3.7-2.1,7.3-3.1,11
				c-0.4,1.4,0.2,2.1,1.5,1.7c2.9-0.7,5.7-1.5,8.5-2.3c5-1.5,10.2-2.1,15.4-1.9c0.7,0,1.4,0,2.1,0.1c8.6,0.7,13.8,7.3,12.3,15.9
				c-0.8,5.1-2.9,9.6-6.1,13.6C-1570-1728.5-1571.6-1726.7-1573.5-1724.4z M-1685.7-1439.8c10.7,0.4,21.4-0.5,31.8-3.3
				c30.9-8.1,51.7-27.3,61.5-57.8c5-15.4,6.2-31.3,4.7-47.3c-0.4-4.3-0.4-5.3,4.7-6c0.7-0.1,1.4-0.1,2.1-0.2
				c9.3-1.4,17.2-5.5,22.9-13.1c5.5-7.3,7.5-15.6,5.1-24.6c-1.9-7-5.9-12.5-11.7-16.7c-6.1-4.4-12.9-6.5-20.4-6.8
				c-3.9-0.1-4.8-0.9-5.5-4.8c-0.2-1.2-0.4-2.4-0.5-3.6c-0.4-4.8-0.8-9.7-1-14.5c-0.4-8.9-2-17.6-4.5-26.1
				c-2.8-9.6-7-18.5-13.4-26.3c-8.1-9.9-18.3-15.6-31.4-15.8c-6.8-0.1-13.5-0.1-20.3,0.3c-11.2,0.8-22.5,2-33.7,2.8
				c-13.5,0.9-26.9,3-40.2,5.5c-7.7,1.4-15.2,3.6-22.3,7c-12.9,6.2-21.4,15.6-23.1,30.4c-0.8,6.6-1.5,13.1-1.6,19.7
				c-0.1,6.4-0.1,12.8,0.6,19.2c0.5,5,0.7,6-5.2,6.2c-9.8,0.4-18.2,4.3-24.6,11.8c-10.1,11.8-9.2,27.6,0.8,38.4
				c5.9,6.4,13.2,10,21.8,10.9c1.5,0.2,3.1,0.5,4.6,0.9c1.1,0.3,1.7,1.2,1.6,2.4c0,0.9-0.2,1.7-0.3,2.6c-1.3,15-0.4,29.9,3.7,44.3
				c9.1,31.4,29.3,51.7,60.8,60.6C-1708.1-1440.4-1697-1439.3-1685.7-1439.8z"/>
			<path id="XMLID_94_" class="st2" d="M-1685.5-1297.4c-20-0.1-37.9-5.9-54.3-16.7c-15.3-10.1-27.4-23.3-37-38.9
				c-3.6-5.9-6.8-12.1-9.5-18.5c-0.3-0.8-0.9-1.6-0.5-2.5c0.1-0.3,0.4-0.6,0.7-0.7c0.3-0.1,0.7-0.1,0.9,0.1c1.4,0.9,1.7,2.6,2.3,4
				c3.9,8.7,8.6,17,14.3,24.7c11.6,15.9,25.8,28.5,43.7,36.8c13.8,6.4,28.2,9.5,43.4,8.7c19.5-1.1,36.8-7.9,52.2-19.7
				c16.6-12.8,28.4-29.2,36.8-48.3c0.6-1.4,0.9-3,2.1-4.1c0.4-0.4,0.9-0.4,1.4-0.1c0.2,0.2,0.5,0.6,0.5,0.8c-0.2,1-0.4,2-0.8,3
				c-6.4,15.2-15.1,28.9-26.7,40.6c-11.1,11.3-24,19.9-39,25.2C-1664.8-1299.2-1675.2-1297.5-1685.5-1297.4z"/>
			<path id="XMLID_91_" class="st2" d="M-1573.6-1267.4c10.6,0,21.2,0,31.7,0c6.7,0,5.9,0.7,5.3,6.1c-1.7,14.6-3.1,29.3-4.7,43.9
				c-0.2,1.5-0.5,3.1-0.9,4.6c-0.1,0.4-0.7,0.9-1.1,0.9c-0.9,0.1-1.2-0.7-1.2-1.3c0-1.6,0.1-3.1,0.2-4.7c1.1-10,2.2-20,3.3-30
				c0.2-2-0.3-2.6-2.2-2.5c-18.9,0.8-37.8,0.5-56.7,0.6c-2.4,0-4.9,0.2-7.3,0.3c-2.6,0.2-2.8,0.4-2.9,3.2c-0.7,10.7-1.3,21.5-2,32.2
				c-0.1,1.4,0.1,2.8-0.6,4.1c-0.1,0.2-0.6,0.4-0.9,0.4c-0.3,0-0.7-0.3-0.8-0.5c-0.2-0.8-0.4-1.7-0.4-2.5c0.6-11.9,1.3-23.9,2-35.8
				c0.2-3.8,0.4-7.6,0.6-11.4c0.1-1.4,0.1-2.8,0.3-4.1c0.4-2,1.1-2.6,3.2-2.7c5-0.1,10.1-0.1,15.1-0.2c6.6,0,13.2,0,19.8,0
				C-1573.6-1267-1573.6-1267.2-1573.6-1267.4z M-1573.5-1264.6c0,0,0,0.1,0,0.1c-10.7,0.3-21.5,0.5-32.2,0.8
				c-2.9,0.1-2.9,0.1-3.3,2.8c-0.2,1.4-0.4,2.7-0.5,4.1c-0.4,4.5-0.2,4.6,4.4,4.6c11.8,0,23.6,0.1,35.4-0.2
				c8.1-0.2,16.3,0.1,24.4-0.7c5.8-0.6,4.6,0.4,5.6-5.2c0.3-1.5,0.3-3.1,0.4-4.7c0.1-1-0.4-1.7-1.5-1.7c-1.2-0.1-2.4,0-3.6,0
				C-1554.1-1264.6-1563.8-1264.6-1573.5-1264.6z"/>
			<path id="XMLID_88_" class="st2" d="M-1739.5-1625.5c6.3-0.2,12.2,1,17.9,3.1c2.9,1.1,5.5,2.8,7.9,4.8c5.8,5,4.5,13.7-0.8,17.6
				c-3.3,2.4-7,4-10.9,4.6c-8.2,1.4-16.5,1.6-24.7-0.9c-2.8-0.9-5.5-2-7.9-3.8c-4.8-3.6-6.3-8.6-4.3-14.2c1.8-5.1,5.5-8.3,10.6-9.9
				C-1747.6-1625.3-1743.5-1625.7-1739.5-1625.5z M-1716.5-1616.2c-1,1-0.6,2.1-0.8,3.1c-1.4,7.2-5.4,12.2-12.4,14.7
				c-2.9,1-5.8,0.8-8.8,0.6c-9.3-0.7-16.1-7.6-16.6-16.9c-0.1-0.9,0-1.7-0.1-2.6c0-0.3-0.2-0.7-0.4-0.8c-0.6-0.3-1,0.1-1.3,0.4
				c-0.7,1-1.5,1.9-2,3c-2.7,5.2-1.5,9.8,3.3,13.1c2.5,1.7,5.3,2.6,8.1,3.4c6,1.7,12.1,1,18.1,0.8c4.7-0.2,9.2-1.8,13.1-4.5
				c2.6-1.8,3.9-4.5,3.8-7.6C-1712.5-1612.4-1714-1614.6-1716.5-1616.2z"/>
			<path id="XMLID_85_" class="st2" d="M-1635.9-1625.5c3.5-0.1,7.4,0.2,11.2,1.4c5.1,1.6,8.7,4.8,10.6,9.9
				c2.1,5.6,0.6,10.7-4.2,14.2c-2,1.5-4.1,2.5-6.4,3.3c-9.5,3.2-19,3-28.6,0.8c-2.9-0.7-5.5-2-8-3.7c-5.9-4-7.2-13.1-1-18.3
				c2.8-2.4,6-4.1,9.5-5.2C-1647.6-1624.9-1643-1625.5-1635.9-1625.5z M-1658.2-1617c-8.3,3.8-6.2,13.1-0.3,16
				c1.7,0.8,3.4,1.8,5.2,2.3c9.4,2.6,18.8,2.5,28.2-0.6c2-0.7,3.8-1.7,5.5-3c5.4-4.3,4.7-13.3-1.3-16.9c-0.1-0.1-0.4-0.1-0.5-0.1
				c-0.2,0.2-0.5,0.5-0.5,0.7c0.1,1,0.4,2,0.5,3.1c0.5,6.4-2.2,11-7.7,14.1c-4.8,2.7-9.9,3-15.1,2c-7.2-1.4-11.6-5.8-13-13.2
				C-1657.5-1613.9-1657.9-1615.4-1658.2-1617z"/>
			<path id="XMLID_84_" class="st2" d="M-1639.5-1639.4c-9.5,0.9-18.7,0.6-27.8,2.3c-2.7,0.5-4-0.5-4.4-3.1
				c-0.4-2.4-0.7-4.8-0.7-7.2c0.1-4,1.6-5.6,5.7-5.9c3.1-0.3,6.2-0.3,9.3-0.2c10.4,0,20.7,1.6,31,2.6c1.2,0.1,2.4,0.5,3.6,0.7
				c5.6,1.1,5.8,2.9,5.4,8.1c-0.2,2.2-1.5,3.4-3.8,3.5c-2.4,0.1-4.8-0.1-7.3-0.2c-2.6-0.1-5.2-0.4-7.8-0.5
				C-1637.4-1639.5-1638.7-1639.4-1639.5-1639.4z"/>
			<path id="XMLID_83_" class="st2" d="M-1732.1-1650.2c3.5,0,6.9-0.2,10.4,0c5.4,0.3,7.7,2.6,7.3,9.5c0,0.3-0.2,0.7-0.2,1
				c-1.2,5.7-2.5,6.5-8.2,5.8c-9.3-1.1-18.5-2.2-27.9-2.6c-3.1-0.1-6.2,0.6-9.3,0.8c-4.7,0.3-7.6-3.9-5.9-8.2c0.7-1.8,2.3-2.6,4-3
				c4-0.9,8.1-1.8,12.2-2.3C-1743.9-1649.9-1738-1650.5-1732.1-1650.2z"/>
			<path id="XMLID_82_" class="st2" d="M-1690.5-1539.9c4.4,0.2,8.6-1.1,12.5-3.1c3.1-1.6,4.9-3.8,4.5-7.5c-0.2-1.7-0.2-3.5-0.5-5.2
				c-1.8-10.2-3.7-20.5-5.5-30.7c-1.3-7.7-2.5-15.4-3.7-23.1c-0.1-0.8-0.1-1.7,0-2.6c0-0.2,0.4-0.5,0.7-0.6c0.3-0.1,0.7,0,0.9,0.2
				c0.8,0.8,0.8,1.9,0.9,2.9c1.3,7.7,2.6,15.4,3.9,23.1c1.6,9.2,3.3,18.4,4.9,27.7c0.4,2.6,0.9,5.1,1.1,7.7c0.4,4-1,7.2-4.4,9.4
				c-6.9,4.5-14.6,5.4-22.5,3.9c-3.1-0.6-5.2-2.6-6.5-5.5c-1.1-2.6-1.6-5.3-1.9-8.1c-1.1-12-0.5-23.9,1.3-35.8
				c0.9-6.3,1.9-12.7,2.9-19c0.3-1.7,0.5-3.4,1.4-4.9c0.1-0.2,0.6-0.3,0.9-0.4c0.7-0.1,0.9,0.5,1,1c0.1,1,0,2.1-0.1,3.1
				c-1.1,7.2-2.1,14.4-3.3,21.6c-1.7,10.5-2.3,21-1.5,31.6c0.2,2.6,0.6,5.2,1.2,7.7c1.1,4.4,3.1,6.1,7.6,6.6
				C-1693.2-1539.7-1691.8-1539.9-1690.5-1539.9z"/>
			<path id="XMLID_79_" class="st2" d="M-1633.7-1524.3c0.3,14.6-8.4,26-21.5,29c-11.7,2.7-23.9-2.5-29.4-12.5
				c-1-1.8-1.8-3.8-2.2-5.8c-0.3-1.4,0.5-2.5,2-2.3c12.2,1,21-5.8,29.5-13c3.8-3.2,5.8-7.7,7.6-12.3c1.1-2.7,2-5.5,3-8.3
				c0.3-0.9,0.9-1.6,1.8-1.6c0.9-0.1,1.6,0.6,2.1,1.3c0.4,0.6,0.7,1.2,1,1.8C-1636.2-1540.2-1634-1532.1-1633.7-1524.3z
				 M-1642.3-1547.3c-1.2,3.1-2.1,5.1-2.9,7.2c-3,7.9-8,14.1-15.1,18.6c-2.1,1.3-4.1,2.5-6.2,3.7c-4.7,2.6-9.7,4.6-15.2,4.6
				c-1.6,0-1.8,0.5-1.3,1.9c2.1,5.2,5.7,9,10.8,11.4c16.9,7.9,35.6-3.7,35.9-22.2C-1636.2-1530.5-1638.5-1538.5-1642.3-1547.3z"/>
			<path id="XMLID_78_" class="st2" d="M-1564.1-1583.3c-0.3,4.9-2.6,9.5-7.5,12.7c-0.6,0.4-1.3,0.5-1.9,0.6c-0.3,0-0.7-0.2-0.8-0.5
				c-0.2-0.2-0.2-0.7-0.1-1c0.4-1.1,1.4-1.5,2.2-2.1c6.5-4.7,6.1-13.8,2.9-18.7c-2.4-3.7-5.7-6-9.8-7.3c-1.8-0.5-2.8-1.6-2.3-2.2
				c0.8-0.9,1.9-0.8,2.9-0.5C-1570.5-1600.5-1564.1-1592.4-1564.1-1583.3z"/>
			<path id="XMLID_77_" class="st2" d="M-1790.5-1602.5c0.4,0.3,0.8,0.6,1,1c0.3,0.5-0.1,1.1-0.6,1.3c-1.3,0.5-2.6,0.9-3.9,1.5
				c-5.7,2.4-10.2,8.2-9.9,15.1c0.2,3.7,1.5,6.7,4.1,9.2c0.6,0.6,1.4,1,2,1.6c1.2,1,1.6,2,0.9,2.5c-0.8,0.7-1.6,0.3-2.4-0.2
				c-5.5-3.4-8.2-8.6-7.7-14.9c0.7-9.2,7.2-14.9,14.1-16.8C-1792-1602.4-1791.3-1602.4-1790.5-1602.5z"/>
		</g>
		<g id="XMLID_73_">
			<ellipse id="XMLID_75_" class="st0" cx="-1616.8" cy="-1574.7" rx="20.1" ry="14.6"/>
			<ellipse id="XMLID_74_" class="st0" cx="-1758.4" cy="-1574.7" rx="20.1" ry="14.6"/>
		</g>
	</g>
	<g id="XMLID_28_">
		<g id="XMLID_32_">
			<path id="XMLID_71_" class="st1" d="M-979.1-487.7c-29.5,0-59,0.3-88.5-0.1c-47.6-0.6-95.1-0.7-142.7-1
				c-20.5-0.1-41-0.4-61.4-0.6c-0.2,0-0.3,0-0.5,0c-4-0.1-4-0.1-3.5-4.1c5.2-35.8,17.8-68.7,39.1-98.1c9.7-13.4,20-26.2,32.5-37.1
				c5.6-4.9,11.6-9.4,17.8-13.6c18.6-12.3,38.1-22.8,58.7-31.3c22.9-9.5,46.3-17.8,70-25c2.3-0.7,4.7-1.3,7.1-1.7
				c2.2-0.4,2.7,0,3,2.3c1.1,6.6,4.6,11.9,8.7,16.9c3.6,4.3,8,7.7,12.8,10.5c10.8,6.4,22.5,9.9,34.9,11.3c25.9,2.8,48.7-4.7,69-20.5
				c5.3-4.1,9.7-8.9,12.4-15.2c1.3-3,2.6-3.4,5.9-2.6c7.3,1.7,14.4,3.9,21.5,6.3c20.4,6.8,40.6,14.2,60.4,22.6
				c21.3,9.1,41.3,20.5,60.2,33.9c10.5,7.4,19.8,16.4,28.2,26.2c12.5,14.6,23.1,30.3,32.3,47.2c9.8,18,15.5,37.4,19.8,57.3
				c0.9,4.2,1.8,8.5,2.3,12.8c0.6,5.2-0.3,6.2-5.6,6.1c-16.8,0-33.7-0.2-50.5-0.2c-0.9,0-1.7-0.1-2.6-0.1
				c-21.9-0.1-43.7-0.3-65.6-0.4c-39.1-0.2-78.1-0.4-117.2-0.7c-19.4-0.2-38.9-0.5-58.3-0.7C-979.1-487.5-979.1-487.6-979.1-487.7z"
				/>
			<path id="XMLID_67_" class="st2" d="M-1032.6-844.8c6.4-0.2,12.3,0.9,18,3.1c3,1.1,5.6,2.7,8,4.8c6,5.1,4.7,14-1,18
				c-3.3,2.3-7,3.9-10.9,4.5c-7.9,1.2-15.8,1.5-23.6-0.8c-3-0.9-5.9-2-8.4-3.9c-5-3.7-6.6-8.8-4.3-14.6c2-5,5.6-8.2,10.8-9.7
				C-1040.3-844.6-1036.3-845-1032.6-844.8z M-1014.7-818.8c2.9-0.6,4.5-1.6,5.9-2.7c4.4-3.6,4.6-9,0.7-13.1c-0.6-0.6-1.3-1.1-2-1.6
				c-0.4-0.3-0.9-0.6-1.3-0.2c-0.2,0.2-0.3,0.6-0.2,0.9C-1010.5-829.9-1011.2-824.6-1014.7-818.8z M-1046.6-820
				c-0.5-3.6-1.4-6.6-1.4-9.7c0-3.3,1.4-6.3,1.9-10.1c-4.6,2.5-6.7,6.1-7,10.6C-1053.4-824.9-1051-822.1-1046.6-820z"/>
			<path id="XMLID_63_" class="st2" d="M-929.8-844.8c4.2-0.1,8.2,0.2,12,1.3c5.1,1.5,8.8,4.7,10.8,9.7c2.2,5.8,0.7,11-4.4,14.6
				c-3,2.2-6.4,3.4-10,4.2c-8.2,2-16.4,1.6-24.6-0.2c-2.7-0.6-5.2-1.8-7.6-3.3c-6.6-4-8-13.6-1.4-18.9c2.9-2.3,6-4,9.5-5.1
				C-940.2-844.1-935-845.1-929.8-844.8z M-908.7-829.3c-0.5-4.1-2.2-7.8-6.4-10.1c-0.3-0.2-0.7-0.4-0.9-0.3
				c-0.6,0.2-0.5,0.8-0.4,1.2c1.9,5.9,2.2,11.8-0.1,17.7c-0.1,0.2-0.2,0.4-0.1,0.5c0.2,0.2,0.5,0.6,0.7,0.5
				C-912.2-820.5-908.7-824.9-908.7-829.3z M-951-836.6c-0.2,0-0.3,0-0.5,0.1c-6.5,3.8-6.9,11.3-0.8,15.6c0.7,0.5,1.8,1.2,2.3,0.9
				c1.2-0.7,0.3-1.8-0.1-2.7c-0.9-2.3-0.9-4.7-0.8-7.1c0.1-2.1,0.3-4.1,0.5-6.2C-950.4-836.1-950.8-836.3-951-836.6z"/>
			<path id="XMLID_60_" class="st2" d="M-978.4-673.9c-13.3,0.4-26.3-1.2-39-5.3c-10.2-3.3-19.5-8.1-27.9-14.8
				c-15.3-12.3-25.1-28.1-30.2-46.9c-3.9-14.6-5-29.4-3.6-44.4c0.2-2.5,0-2.9-2.7-3.2c-9.5-0.9-17.7-4.8-24.3-11.8
				c-6-6.4-9.1-14.1-8.7-22.7c0.4-10.1,5-18.3,13-24.5c0.5-0.4,1.1-0.8,1.7-1.2c4.3-2.9,3.4-1.7,2.7-6.7
				c-3.7-25.1-0.7-49.1,10.6-71.9c4.7-9.5,10.7-17.8,19.2-24.2c6.8-5.1,14.3-7.8,22.8-7.1c3.6,0.3,7.2,1.2,10.6,2.4
				c1.7,0.6,3.3,0.8,5-0.2c7.6-4.2,16.1-5.6,24.5-6.2c9.1-0.7,18.3-1.3,27.6-0.6c10.1,0.8,19.9,2.7,29.7,4.9c1.4,0.3,2.7,0.6,4,1.1
				c1.1,0.3,2,0.3,3-0.2c12-5.2,23.8-3.8,35.3,1.4c11.9,5.3,21.2,13.7,28,24.9c4.7,7.8,8,16.1,10.6,24.8c4.1,14.2,6.4,28.8,5.9,43.6
				c-0.1,3-0.8,5.8-1.1,8.8c-0.2,1.4,0.2,2.3,1.4,3c3.6,1.9,6.7,4.3,9.5,7.2c6,6.4,9.2,14,8.8,22.7c-0.4,10-4.9,18.3-12.8,24.6
				c-5.6,4.4-11.9,7-19,7.8c-0.7,0.1-1.4,0.1-2.1,0.2c-1.5,0.2-2,0.9-1.8,2.5c0.9,6.6,0.8,13.2,0.4,19.8c-0.8,15-3.9,29.6-10.8,43.1
				c-12.5,24.4-32.3,39.3-58.7,45.9C-957.3-674.5-967.8-673.6-978.4-673.9z M-986.5-960.6c-8,0-15.1,0.6-22.2,1.3
				c-12.5,1.2-23.6,6.2-33.2,13.7c-9.3,7.2-16.4,16.5-20.7,27.6c-5.6,14.5-9,29.5-10.6,44.9c-0.6,5.5-0.8,11.1-0.9,16.6
				c0,3.1-0.9,3.9-4.1,4.2c-0.7,0.1-1.4,0-2.1,0c-7.9,0.2-14.9,3-20.9,8.1c-13.6,11.4-14.3,30.8-1.6,43.2c5.9,5.8,13.2,8.8,21.3,9.9
				c5.4,0.7,5.6,0.7,5.2,6c-0.7,10.6-0.6,21.2,1.1,31.7c1.9,12.1,5.6,23.6,11.8,34.2c12.6,21.4,31.6,34.1,55.5,39.7
				c12.4,2.9,25.1,3.4,37.8,2.8c8.5-0.4,16.9-1.5,25.2-3.8c22.2-6.2,39.7-18.6,51.5-38.7c7.9-13.4,11.8-28.1,13-43.5
				c0.6-7.3,0.4-14.6,0-21.8c-0.4-5.8-0.3-5.8,5.6-6.6c8.9-1.2,16.6-4.8,22.6-11.7c9.3-10.6,9.7-25.8,1-36.8
				c-4.6-5.8-10.5-9.4-17.6-11.5c-3.2-1-6.5-1.1-9.8-1.2c-2.7-0.1-3.5-0.8-4-3.2c-0.4-2-0.7-4.1-1-6.2c-0.7-7.1-1.3-14.2-2.1-21.2
				c-2.1-19.4-9.9-36.4-22-51.4c-6.7-8.3-15.1-14.2-25.6-17c-5.4-1.4-10.6-3.1-16-4.4C-961.8-958.8-974.4-961.1-986.5-960.6z"/>
			<path id="XMLID_59_" class="st2" d="M-985.5-635.3c-20.7-0.3-42.5-7.8-61.2-23.9c-8.3-7.2-15.1-15.8-20.2-25.6
				c-0.5-1.1-1.4-2-1.2-3.4c0.1-0.3,0.3-0.7,0.6-0.8c0.2-0.1,0.7-0.1,1,0c1.2,0.6,1.5,1.8,2.1,2.9c3.2,6,6.9,11.6,11.4,16.7
				c13.7,15.5,30.9,25.1,51,29.3c25.3,5.2,49.3,1.1,71.6-12.1c13.6-8,24.4-18.8,32.4-32.4c0.5-0.9,1-1.8,1.6-2.7
				c0.5-0.7,1-1.6,2-0.9c0.8,0.6,0.6,1.6,0.2,2.4c-0.8,1.5-1.6,3.1-2.6,4.5c-11.2,17.8-26.7,30.4-46,38.3
				C-955-637.8-968.3-635.2-985.5-635.3z"/>
			<path id="XMLID_58_" class="st2" d="M-847.5-526.7c0.4,0.1,0.9,0.1,1,0.3c0.4,0.7,0.8,1.5,1,2.3c2,10.6,5.3,20.8,8.2,31.1
				c0.1,0.5,0.3,1,0.3,1.5c0,0.3-0.3,0.6-0.6,0.7c-0.3,0.1-0.7,0.1-1-0.1c-0.9-0.4-1.2-1.2-1.4-2.1c-2.6-9.1-5.7-18.1-7.4-27.5
				c-0.3-1.7-1.2-3.3-0.9-5.1C-848.1-525.9-847.7-526.3-847.5-526.7z"/>
			<path id="XMLID_57_" class="st2" d="M-1140.4-496.6c0.2-0.9,0.4-2.3,0.8-3.6c2-7,3.9-14,5.1-21.2c0.1-0.7,0.3-1.4,0.7-2
				c0.2-0.4,0.7-0.8,1.3-0.4c0.3,0.2,0.6,0.4,0.7,0.7c0.1,0.5,0.2,1,0.1,1.5c-1.5,8.9-4.1,17.5-6.3,26.3c-0.1,0.6-0.6,1.4-1.5,0.9
				c-0.4-0.2-0.5-0.8-0.8-1.2C-1140.5-495.8-1140.4-496-1140.4-496.6z"/>
			<path id="XMLID_56_" class="st2" d="M-988.3-651.7c-0.5,2.8-0.9,5.5-2,8c-0.1,0.3-0.8,0.4-1.3,0.5c-0.1,0-0.5-0.5-0.5-0.8
				c-0.3-2.8,0.9-5.4,1.4-8c0.1-0.6,0.6-1.2,1.5-1.1C-988.3-653.1-988.4-652.3-988.3-651.7z"/>
			<path id="XMLID_55_" class="st2" d="M-997-643.8c-0.8-0.2-1.2-0.6-1.1-1.1c0.5-3,1.4-6,2.7-8.7c0.2-0.4,0.6-0.8,1.2-0.6
				c0.5,0.1,1,0.5,0.9,1c-0.7,3-1.4,6-2.7,8.8C-996.2-644.1-996.6-643.6-997-643.8z"/>
			<path id="XMLID_54_" class="st2" d="M-959.5-654.4c0-1.2,0.3-1.6,0.8-1.8c0.6-0.3,1.1,0.1,1.3,0.5c1.1,2.7,2,5.5,1.9,8.4
				c0,0.5-0.3,1-0.9,1c-0.6,0-1-0.3-1.1-0.8C-958.3-649.7-959-652.4-959.5-654.4z"/>
			<path id="XMLID_53_" class="st2" d="M-925.6-659.2c-0.4,0.3-0.7,0.6-0.9,0.6c-0.5,0-1-0.2-1.4-0.5c-1.9-1.8-3.3-3.9-4.6-6.2
				c-0.2-0.4-0.3-1,0.3-1.4c0.5-0.3,0.9-0.3,1.4,0c0.3,0.2,0.5,0.4,0.7,0.7c1.4,1.8,2.7,3.5,4,5.3
				C-925.8-660.2-925.7-659.7-925.6-659.2z"/>
			<path id="XMLID_52_" class="st2" d="M-902-683c0,0.2,0,0.4-0.1,0.5c-0.3,0.4-0.8,0.7-1.3,0.5c-2.3-1.1-4.4-2.4-6.2-4.3
				c-0.1-0.1-0.2-0.3-0.2-0.5c0-0.3,0.1-0.6,0.2-0.9c0.2-0.4,0.5-0.5,0.8-0.3c2.4,1.2,4.7,2.6,6.6,4.6C-902-683.3-902-683.1-902-683
				z"/>
			<path id="XMLID_51_" class="st2" d="M-961.4-647.4c-0.4,0.5-0.6,1.2-0.9,1.3c-0.4,0.1-1.2-0.2-1.3-0.5c-0.8-2.6-1.7-5.1-1.6-7.9
				c0-0.5,0.4-0.9,0.9-1c0.6-0.1,1,0.3,1.2,0.8C-962.5-652.3-962-649.8-961.4-647.4z"/>
			<path id="XMLID_50_" class="st2" d="M-1051.8-695.3c-0.2,0.3-0.3,0.7-0.6,0.8c-2.2,1-4.4,1.9-6.6,2.7c-0.3,0.1-0.9-0.3-1.3-0.6
				c-0.1-0.1,0-0.7,0.2-0.9c2-2,4.6-2.8,7.4-3C-1052.2-696.5-1051.8-695.9-1051.8-695.3z"/>
			<path id="XMLID_49_" class="st2" d="M-899.3-686.7c-0.2,0.5-0.5,1-1.1,0.8c-2.5-0.7-4.8-1.9-6.9-3.4c-0.3-0.2-0.4-0.9-0.3-1.4
				c0.1-0.5,0.7-0.8,1.2-0.5c2.2,1,4.3,2.1,6.4,3.2C-899.5-687.8-899.2-687.3-899.3-686.7z"/>
			<path id="XMLID_48_" class="st2" d="M-1026.2-665.2c-0.1,0.4,0,1-0.3,1.4c-1.2,1.7-2.4,3.3-3.7,4.8c-0.4,0.5-1.1,0.7-1.8,0.1
				c-0.5-0.4-0.4-0.9-0.1-1.4c1.4-1.9,2.8-3.8,4.3-5.7c0.2-0.2,0.7-0.3,0.9-0.2C-1026.6-665.9-1026.4-665.5-1026.2-665.2z"/>
			<path id="XMLID_47_" class="st2" d="M-1036.4-662.2c-0.2-0.3-0.5-0.6-0.5-0.8c1.1-3,3.4-5,5.8-6.8c0.2-0.1,0.7,0.1,0.9,0.3
				c0.2,0.2,0.5,0.7,0.4,0.8c-1.5,2.5-3.3,4.7-5.7,6.4C-1035.6-662.1-1036-662.2-1036.4-662.2z"/>
			<path id="XMLID_46_" class="st2" d="M-923.3-662.8c-0.2,0.5-0.6,1-1.1,0.7c-2.2-1.4-3.8-3.3-4.7-5.7c-0.1-0.2,0.2-0.6,0.5-0.8
				c0.2-0.1,0.7-0.2,0.9-0.1c1.9,1.4,3.4,3.3,4.5,5.4C-923.1-663.1-923.2-662.9-923.3-662.8z"/>
			<path id="XMLID_45_" class="st2" d="M-1051.7-692.2c0.4,0.3,1,0.5,1.1,0.9c0.1,0.4-0.3,0.9-0.6,1.3c-0.1,0.1-0.3,0.2-0.5,0.2
				c-1.8,0.3-3.4,2-5.3,0.6c-0.1-0.1-0.1-0.3-0.1-0.5C-1055.8-691.8-1053.7-691.7-1051.7-692.2z"/>
			<path id="XMLID_44_" class="st2" d="M-936.3-876.8c8.9,0.4,17.6,1.8,26,4.5c2.3,0.8,4.5,1.7,6.7,2.8c1.2,0.6,2.3,1.5,3.2,2.6
				c1.8,2,1.5,4.6-0.6,6.4c-1.2,1-2.7,1.7-4.2,1.9c-3.8,0.5-7.5,1.2-11.4,0.9c-7.8-0.7-15.5-1-23.1-2.9c-3.2-0.8-6.4-1.6-9.2-3.4
				c-1.2-0.7-2.4-1.5-3.3-2.5c-2-2.2-1.9-4.9,0.2-6.9c1.8-1.6,3.9-2.9,6.4-3.2C-942.5-876.8-939.4-876.9-936.3-876.8z"/>
			<path id="XMLID_43_" class="st2" d="M-1043.6-860.5c-3.3,0-6.6,0.1-9.9,0c-2.6-0.1-5.1-0.8-7.4-2.3c-2.2-1.5-2.6-3.6-1.1-5.8
				c0.8-1.2,1.8-2.1,3-2.8c1.7-0.9,3.3-1.9,5.1-2.5c12.1-3.8,24.4-4.9,36.9-2.2c1.3,0.3,2.7,0.7,4,1.2c2,0.9,3.6,2.3,3.7,4.6
				c0.1,2.1-1.2,3.5-2.9,4.6c-1.8,1.1-3.7,1.8-5.8,2.3C-1026.4-861.4-1035-860.6-1043.6-860.5z"/>
			<path id="XMLID_42_" class="st2" d="M-980.1-780.4c5.3-0.2,11.2-2.7,16.1-7.6c2.2-2.2,3.3-4.8,3.5-7.9c0.2-4.7-1-8.9-3.3-12.9
				c-1.6-2.7-3.4-5.2-5.6-7.5c-0.6-0.6-1.1-1.3-1.5-2.1c-0.1-0.2,0.1-0.7,0.3-0.9c0.2-0.2,0.7-0.4,0.9-0.4c0.6,0.3,1.3,0.6,1.7,1.1
				c5.7,5.5,9.4,12.1,10.3,19.9c0.5,4.3-0.6,8.3-3.6,11.6c-6,6.6-13.5,9.6-22.3,9.3c-11.5-0.5-19.6-9.6-19.3-21.6
				c0.2-7.4,3.2-13.8,7.3-19.7c0.3-0.4,0.8-0.7,1.2-0.9c0.2-0.1,0.7,0.1,0.9,0.3c0.2,0.2,0.5,0.6,0.4,0.9c-0.4,0.9-0.8,1.9-1.4,2.7
				c-2.2,3.6-3.9,7.4-5,11.4c-1,3.4-1.1,6.9-0.3,10.3C-997.9-785.5-990.9-780.2-980.1-780.4z"/>
			<path id="XMLID_41_" class="st2" d="M-999.7-891.5c16.1,1,32.1,2,48,4.8c0.8,0.1,1.8,0,2.4,0.8c0.2,0.2,0.4,0.6,0.3,0.9
				c0,0.3-0.3,0.7-0.6,0.7c-1.7,0.4-3.4,0.1-5.2-0.2c-6.2-0.8-12.3-1.7-18.5-2.5c-0.7-0.1-1.4-0.3-2.1-0.3
				c-12.3-0.3-24.5-2.1-36.8-1.3c-0.2,0-0.3,0-0.5,0c-1,0-2.1,0.2-2.7-0.9c-0.4-0.8,0.7-1.5,2.7-1.6
				C-1008.4-891.3-1004.1-891.4-999.7-891.5z"/>
			<path id="XMLID_40_" class="st2" d="M-979.7-738.1c-5.9-0.2-11.7-0.5-17.6-1.4c-1.9-0.3-3.7-0.7-5.6-1.1
				c-0.7-0.2-1.4-0.6-1.3-1.4c0.2-1.2,1.2-1,2-1c0.7,0,1.4,0.2,2.1,0.3c6.8,1.2,13.7,1.8,20.6,2c11.4,0.2,22.3-1.8,32.8-6.6
				c2.5-1.2,4-1.2,4.1-0.3c0,1.8-1.7,2.1-2.8,2.6C-956.3-739.8-967.8-737.9-979.7-738.1z"/>
			<path id="XMLID_39_" class="st2" d="M-1083.8-839.6c0.8,0.1,1.4,0.4,1.4,1.2c0,0.4-0.3,1.1-0.6,1.3c-1.3,0.5-2.6,0.8-3.9,1.4
				c-4.8,2-7.9,5.5-9.4,10.5c-1.6,5.5-0.1,10.3,4.1,14.1c0.8,0.7,1.7,1.2,2.5,1.9c0.6,0.5,0.8,1.1,0.3,1.8c-0.5,0.6-1.2,0.6-1.9,0.3
				c-4.6-2.4-7.4-6.3-8.1-11.4c-1.5-10.5,5.7-19,15.2-21C-1084.1-839.6-1084-839.5-1083.8-839.6z"/>
			<path id="XMLID_38_" class="st2" d="M-857.2-823.5c0,8-2.3,12.4-6.9,15.6c-0.7,0.5-1.5,0.7-2.4,1c-0.2,0.1-0.7-0.2-0.9-0.4
				c-0.4-0.4-0.4-1-0.1-1.4c0.5-0.5,1-1,1.6-1.3c8.5-5.7,7.6-17.8-0.8-23.8c-1.4-1-3-1.6-4.6-2.4c-0.6-0.3-1.3-0.3-2-0.5
				c-1-0.3-1.5-1.3-1.1-2c0.4-0.7,1.1-0.9,1.8-0.7C-863.8-838-857.2-830.1-857.2-823.5z"/>
			<path id="XMLID_37_" class="st2" d="M-991.6-901.8c7.7,0.2,15.2,1.4,22.7,2.7c1.5,0.3,3.1,0.6,4.6,1c0.7,0.2,1.4,0.5,1.4,1.3
				c0,0.9-0.8,1-1.5,1c-1,0-2.1-0.1-3.1-0.3c-10.6-2.2-21.2-3.5-32-2.9c-0.9,0-1.7,0-2.6-0.1c-0.4-0.1-0.9-0.5-1-0.9
				c-0.2-0.9,0.5-1.2,1.2-1.3C-998.6-901.6-995.1-901.7-991.6-901.8z"/>
			<path id="XMLID_36_" class="st2" d="M-1037.5-749c-0.7-0.1-1.2-0.3-1.3-0.9c-0.1-0.6,0.3-1,0.7-1.2c0.9-0.5,1.9-0.8,2.9-1.1
				c7.5-2.3,12.7-7.5,16.8-14c0.7-1.2,1.4-2.4,2.2-3.5c0.3-0.4,0.8-0.7,1.4-0.4c0.5,0.2,0.7,0.7,0.7,1.3c0,0.2,0,0.4-0.1,0.5
				c-4.6,9.5-11.4,16.5-21.9,19.3C-1036.6-749-1037.1-749-1037.5-749z"/>
			<path id="XMLID_35_" class="st2" d="M-986.9-912.8c5.2,0.4,9.8,0.7,14.5,1.1c0.7,0.1,1.4,0.2,2,0.5c0.6,0.3,1.3,0.6,1.2,1.5
				c-0.2,0.8-0.9,1.1-1.5,1c-4.4-1-9-0.6-13.4-1c-3-0.3-5.9,0.1-8.8,0.1c-0.9,0-1.7-0.1-2.6-0.2c-0.2,0-0.5-0.5-0.6-0.8
				c-0.3-0.6,0.1-1,0.6-1.2c0.6-0.2,1.3-0.4,2-0.5C-991.3-912.4-988.8-912.6-986.9-912.8z"/>
			<path id="XMLID_34_" class="st2" d="M-940.1-774.1c0.3,0.1,0.8,0.1,0.9,0.3c0.5,0.9,1,1.8,1.3,2.8c2.6,6.5,6.8,11.5,12.8,15.2
				c1.4,0.9,3.2,1.5,4,3.2c0.1,0.3,0.1,0.7-0.1,1c-0.1,0.2-0.5,0.4-0.8,0.5c-0.1,0.1-0.4,0-0.5,0c-8.4-4.4-14.9-10.5-18.1-19.7
				c-0.3-0.8-0.5-1.7-0.2-2.5C-940.7-773.8-940.3-773.9-940.1-774.1z"/>
			<path id="XMLID_33_" class="st2" d="M-972.5-728.2c-1.6-0.1-3.3,0.4-4.9-0.6c-0.2-0.1-0.5-0.6-0.4-0.8c0-0.3,0.3-0.7,0.5-0.7
				c1.2-0.2,2.4-0.2,3.6-0.3c5.7-0.4,11.4-0.7,16.9-2.7c1.8-0.7,3.5-1.4,5.3-2.1c0.6-0.2,1.3-0.2,2-0.2c0.3,0,0.7,0.3,0.8,0.6
				c0.1,0.3,0,0.8-0.3,0.9c-0.8,0.6-1.7,1.2-2.6,1.6C-958.2-729.6-965.2-728.4-972.5-728.2z"/>
		</g>
		<g id="XMLID_29_">
			<ellipse id="XMLID_31_" class="st0" cx="-906.1" cy="-798.7" rx="20.1" ry="14.6"/>
			<ellipse id="XMLID_30_" class="st0" cx="-1047.7" cy="-798.7" rx="20.1" ry="14.6"/>
		</g>
	</g>
	<path id="XMLID_143_" class="st2" d="M-2057.3-859.7"/>
	<g id="XMLID_495_" class="st3">
		<g id="XMLID_499_" class="st4">
			<path id="XMLID_527_" class="st1" d="M100.6-861.1c0.2-6.8,0.3-13.5,1.5-20.2c0.3-1.6,0.8-2.9,2.1-4c5.8-5.3,10.4-11.7,14.8-18.1
				c9.5-14,17.2-28.9,22.3-45.1c1.4-4.5,2.5-9,3.4-13.6c0.4-2.2,1.5-3.2,3.6-3.8c9.4-2.7,16.5-8.6,22.2-16.3c1-1.4,1.7-3,2.4-4.6
				c1.7-4.2,2.7-8.6,3.1-13.1c1.1-13.5-6.6-21.7-17.7-25.6c-2.7-1-5.5-0.7-8.2,0.2c-2,0.6-3.9,1.4-5.9,2c-1.2,0.4-2-0.2-2.6-1.2
				c-0.3-0.6-0.5-1.3-0.6-2c-1.8-9.1-6.5-16.7-12.5-23.6c-6.5-7.4-14.4-13-23.1-17.6c-5.4-2.9-11-5.1-16.7-7.2
				c-10.6-3.9-21.2-7.7-31.4-12.5c-10-4.6-19.4-10.2-27.6-17.5c-3.5-3.1-6.8-6.4-9.5-10.3c-0.2-0.4-0.9-0.8-1.1-0.7
				c-0.4,0.1-0.8,0.7-0.9,1.1c-3.2,10.4-9.5,18.8-16.8,26.6c-5.4,5.7-11.2,10.9-17.4,15.7c-6.2,4.8-12.3,9.6-17.8,15.2
				c-6.1,6.3-11.1,13.3-14.3,21.5c-1.4,3.6-2.5,7.2-2.9,11c-0.2,2.2-1,2.6-3.1,2c-3-0.9-6.1-1.5-9.2-1.3c-2.9,0.2-4.4-1.2-5.5-3.7
				c-3.6-8-6-16.3-7-24.9c-1.7-14.4-1.7-28.8,0-43.1c2.8-23.1,13-42.6,29.7-58.7c16-15.4,35.2-20,56.7-16.8c1,0.2,2.1,0.2,3.1,0.5
				c1.7,0.5,3,0,4.5-0.8c12.2-6.7,25.5-9.8,39.2-11.8c14.2-2,28.3-1.6,42.4,1.9c14.7,3.7,28.9,8.8,42.3,15.8
				c12.3,6.5,22.7,15.4,31.2,26.3c10.6,13.6,19.8,28.1,25.6,44.5c6.5,18.3,8.6,37.1,6.2,56.4c-1,8.1-2.3,16.2-3,24.3
				c-1,11.1-1,22.2,0.2,33.3c1.4,12.9,4.2,25.7,6.2,38.5c1.3,8.2,2.5,16.5,2.4,24.8c-0.3,38.8-26.3,63.9-56.3,70.8
				c-14.6,3.4-29.4,5-44.4,4c-2.8-0.2-5.5-0.7-8.3-1c-1.2-0.2-1.8-0.8-1.7-2.1C100.2-851.1,100.4-856.1,100.6-861.1z"/>
			<path id="XMLID_526_" class="st1" d="M42.1-618.4c-63.7,0.2-127.5,0.4-191.2,0.6c-1.7,0-3.5,0-5.2-0.1c-1.5-0.1-2.2-1.3-1.6-2.5
				c0.8-1.5,1.7-3,2.6-4.5c9.5-16,18.4-32.2,25.4-49.5c6.5-15.9,11.8-32.3,15.2-49.1c1.4-6.6,3.1-13.2,4.3-19.8
				c1.2-7.2,2-14.4,2.9-21.6c0.1-0.9,0.2-1.7,0.3-2.6c0.3-2.9,1.8-4.7,4.7-5.4c10-2.6,19.1-7.3,28.2-12c2-1,4-2.1,6.1-3
				c2.8-1.2,4.4-0.3,4.9,2.6c0.4,2.2,0.6,4.5,0.9,6.7c3.4,26.5,11.6,51.4,25.4,74.3c3.8,6.3,8.1,12,13.5,17.1
				c6.3,6,13.9,9.8,21.9,12.8c7.1,2.7,14.5,4.9,21.9,6.6c9.4,2.1,18.9,2.5,28.5,2.2c11.9-0.3,23.4-3.2,34.3-7.7
				c10.5-4.3,18.8-11.7,25.7-20.6c11.5-14.8,19.6-31.5,25.6-49.2c4.6-13.7,7.5-27.8,9.2-42.1c0.7-5.7,1.8-6.4,6.9-3.9
				c3.7,1.8,7.4,3.7,11.1,5.7c6.6,3.5,13.5,6.4,20.7,8.3c3.6,1,5.1,3,5.4,6.6c0.8,7.2,1.7,14.5,2.7,21.7c1.4,9.4,4,18.6,6.1,27.9
				c6.5,28.5,17.8,55.1,32.3,80.4c2.6,4.5,5.3,9,7.9,13.5c0.7,1.2,1.6,2.3,1.8,3.7c0.2,1.3-0.5,2.5-1.8,2.7
				c-1.4,0.1-2.8,0.1-4.2,0.1c-64.3,0-128.5,0-192.8,0C42.1-618.7,42.1-618.5,42.1-618.4z"/>
			<path id="XMLID_525_" class="st1" d="M-23.8-850c-5.7,0.5-10.1-0.6-14.5-1.3c-9.2-1.5-18.4-3.3-27.6-5c-2.2-0.4-4.4-1-6.5-1.8
				c-7.9-2.8-13.1-8.3-15.8-16.1c-3.5-10.3-2.9-20.5,1.2-30.5c1.5-3.5,3.3-6.9,5.2-10.2c8.1-14.2,12.9-29.5,14.5-45.8
				c0.1-0.7,0.1-1.4,0.2-2.1c0.5-3,1.2-3.5,4.2-2.6c0.3,0.1,0.7,0.2,1,0.3c7.9,2.8,7.2,0.7,8.2,9.6c1.3,11.2,5.2,21.6,10.5,31.4
				c8,15.1,16.9,29.5,29.2,41.6c1.7,1.6,2.2,3.4,2.1,5.6c-0.1,5-1.1,10-1.7,15c-0.3,2.6-0.6,5.2-1.1,7.7c-0.5,2.8-1.6,3.8-4.5,4.2
				C-21.1-849.8-23-850-23.8-850z"/>
			<path id="XMLID_250_" class="st2" d="M113.2-1026.6c4.9,1.5,8.5,4.5,10.5,9.3c2.4,5.9,0.9,11.3-4.4,15.1c-2.4,1.7-5.1,2.9-8,3.7
				c-8,2.3-16.1,2.1-24.2,0.8c-3.8-0.6-7.3-2.1-10.5-4.3c-6.1-4.1-7.2-13.2-1.1-18.3c2.3-1.9,4.7-3.5,7.5-4.5
				c5.7-2.2,11.6-3.4,17.9-3.2C105-1028.1,109.2-1027.9,113.2-1026.6z M77.5-1004.8c1.5,1.1,3.2,2,4.9,2.8c1.3,0.7,2.1,0,1.7-1.3
				c-1.8-6.1-0.8-12,1.1-17.9c0.1-0.3,0-0.7-0.2-0.9c-0.2-0.2-0.7-0.3-0.9-0.2c-3.1,1.2-6,2.8-8.1,5.4c-1.3,1.5-2,3.3-1.9,5.4
				C74.4-1008.9,75.3-1006.4,77.5-1004.8z"/>
			<path id="XMLID_247_" class="st2" d="M14.2-1025.7c3.5,1.1,6.7,2.8,9.5,5.1c6.7,5.4,5.3,14.9-1.3,18.9c-2.2,1.4-4.5,2.6-7.1,3.2
				c-9.8,2.4-19.5,2.5-29.1-0.8c-2.3-0.8-4.5-1.9-6.4-3.4c-4.6-3.5-6-8.4-4.1-13.8c1.8-5.3,5.6-8.6,10.9-10.2
				c3.9-1.2,7.8-1.5,12-1.3C3.8-1028.3,9-1027.3,14.2-1025.7z M-21.4-1016.6c-2.2,4.9-1,9.2,3.4,12.3c1.4,1,3,1.6,4.6,2.4
				c0.2,0.1,0.6,0,0.9-0.2c0.4-0.2,0.4-0.5,0.2-0.9c-2.9-6.6-1.1-12.9,1.4-19.1c0.2-0.6,0.5-1.2,1-2.5
				C-15.6-1023.7-19.3-1021.3-21.4-1016.6z"/>
			<path id="XMLID_511_" class="st2" d="M143.4-950.7c-0.9,1.3-1.2,2.9-1.6,4.4c-5.6,18.4-13.9,35.5-26,50.6
				c-3.1,3.8-6.3,7.4-9.9,10.7c-1.8,1.6-2.7,3.5-2.9,5.9c-0.1,0.7-0.2,1.4-0.3,2.1c-0.4,10.8-1.9,21.5-1.4,32.2
				c0.8,16.6,6.5,31.1,19.6,42.1c2.8,2.4,5.8,4.4,9.3,5.6c4.6,1.7,9.1,3.3,13.7,5c0.8,0.3,1.7,0.4,2.3,1.1c0.2,0.2,0.3,0.7,0.2,0.9
				c-0.1,0.3-0.4,0.6-0.7,0.7c-1.2,0.3-2.4-0.2-3.5-0.6c-4.1-1.5-8.1-3-12.2-4.4c-2-0.7-2.3-0.6-2.8,1.6c-0.8,3.9-1.5,7.8-2.3,11.7
				c-3,14.8-7.5,29.2-11.8,43.7c-5.5,18.5-12.3,36.5-20.6,53.9c-4.1,8.5-8.9,16.5-14.5,24c-6.2,8.3-13.3,15.6-23.4,19.2
				c-1.6,0.6-1.6,0.9-1,2.7c0.3,1,0.8,2,0.9,3c0.6,4.4-1.8,8.4-5.7,10.1c-3.8,1.5-8.3,0.2-10.7-3.1c-2.5-3.4-2.4-8.4,0.3-11.6
				c1-1.2,2.3-2.1,3.4-3.2c-0.1-1-0.8-1.5-1.5-2.1c-17.1-14.9-30-33.1-41.4-52.5c-12.2-20.9-22.4-42.7-29.2-66c-2.6-9-5.1-18-7-27.2
				c-0.3-1.5-0.7-3.1-1-4.6c-1-4-1-4-4.6-2.1c-4.7,2.6-9.4,5.3-14.1,7.8c-0.9,0.5-1.9,0.7-2.9,1c-0.2,0.1-0.7-0.3-0.8-0.6
				c-0.1-0.2-0.1-0.8,0-0.9c0.6-0.6,1.3-1.1,2.1-1.5c3.8-2.1,7.5-4.4,11.4-6.3c13.6-7,21.9-18.3,26.9-32.4
				c2.3-6.6,3.7-13.4,4.6-20.3c1.2-8.6,1.9-17.2,2.9-25.9c0.3-3-0.4-5.2-2.6-7.4c-17.8-17-29.1-37.8-36.3-61.1
				c-0.3-0.8-0.5-1.7-0.8-2.5c-1-3-1-3-4.2-2.4c-2.9,0.6-5.9,0.7-8.8-0.1c-7.9-2.3-12.2-10.3-10-18.6c0.2-0.8,0.6-1.6,0.9-2.4
				c0.4-0.9,0.2-1.7-0.4-2.4c-0.3-0.4-0.7-0.8-1.1-1.1c-5.9-6.5-9.4-14-10.7-22.7c-0.9-5.9,0-11.4,2.5-16.7
				c4.4-9.5,14.2-14.4,24.5-12.4c2.2,0.4,4.4,0.9,6.5,1.9c0.8,0.4,1.6,1,1.1,2c-0.3,0.6-1.1,0.8-1.8,0.6c-0.8-0.3-1.7-0.5-2.5-0.8
				c-2.5-1-5.1-1.1-7.7-1.1c-8.6,0-14.4,4.2-17.9,11.9c-2.5,5.4-2.4,11.2-1.4,16.9c1.3,7,4.5,13.1,9.3,18.4c1.7,1.9,1.8,1.9,3.7,0.4
				c2-1.5,4.1-2.7,6.4-3.3c0.6-0.2,1.4-0.2,2-0.1c0.3,0,0.6,0.4,0.7,0.6c0.3,0.5,0,1.1-0.3,1.4c-0.6,0.4-1.2,0.6-1.9,0.9
				c-1.4,0.7-2.9,1.2-4.2,2.1c-2.1,1.4-2.1,2.4-0.1,3.9c3.4,2.5,7.2,4.2,11.4,4.9c2.1,0.3,3,1.3,3.2,3.3c1,6.5,2.7,12.9,4.7,19.2
				c5.5,17,13.4,32.7,24.7,46.7c9,11.1,19.5,20.2,32.1,26.9c8.9,4.6,18.3,7.4,28.2,8.6c4.8,0.6,9.7,0,14.5-0.7
				c6.3-1,12.7-2,18.8-4.1c16.6-5.6,30-15.8,41.3-28.9c13.7-15.9,22.7-34.4,28.5-54.5c1.4-4.7,2.7-9.4,3.2-14.2
				c0.2-2.2,1.3-2.9,3.2-3.2c4.5-0.8,8.6-2.8,12.2-5.6c1.4-1.1,1.4-2-0.2-2.6c-2.1-0.8-4.2-1.5-6.5-0.5c-0.7,0.3-1.5,0-1.7-0.7
				c-0.2-0.7,0.4-1.3,1-1.7c1.4-0.9,3-1,4.5-0.6c1.5,0.3,3,0.9,4.4,1.5c2.7,1.1,2.7,1.2,4.7-1.1c3.7-4.4,6.6-9.4,8.1-15
				c0.8-3.2,1.6-6.4,1.4-9.8c-0.1-1.7-0.8-2.3-2.3-1.8c-1.5,0.5-2.9,1.3-4.4,1.7c-3.8,1-5.6,2.8-5.6,7.2c0.1,4.3-3,7.6-6,10.6
				c-0.4,0.4-1,0.3-1.4,0c-0.6-0.3-0.6-0.9-0.3-1.3c0.9-1.3,1.8-2.5,2.7-3.8c1.4-2,2.5-4.1,2.7-6.7c0.1-1.4-0.3-2.2-2-2.3
				c-1.1,0-1.2-1.1-0.6-1.9c0.3-0.4,0.8-0.7,1-1.1c0.4-0.8,0-1.6-0.7-1.6c-1.9,0-2.8-0.7-2.9-2.7c0-1-1.2-1.2-2-1.2
				c-2.1,0-4.2,0.1-6.2,0.1c-0.5,0-1-0.3-1-0.9c0-0.6,0.3-1.1,0.8-1.2c3.2-0.6,6.5-1.6,9.6,0.2c1.1,0.6,2.2,1,3.4,0.1
				c3.1-2.2,6.3-4.4,9.4-6.6c0.9-0.6,0.9-1.5,0.2-2.2c-3.2-3.7-7.3-5.9-12.2-6.2c-3.8-0.3-7.6,0-11.3,1.4c-1,0.4-2,0.9-2.8-0.2
				c-0.6-0.7,0.3-1.9,2-2.5c9.6-3.5,18.4-2.4,26,5c1,1,1.7,2,3.5,1.5c1.6-0.5,2.1,0.3,1.1,2c-0.6,1-0.9,1.8-0.3,2.8
				c0.3,0.6,0.5,1.3,0.8,1.9c0.4,0.9,0.3,2.3,1.3,2.7c0.7,0.3,1.7-0.1,2.5-0.2c0.3,0,0.7-0.1,1,0.1c0.5,0.3,0.7,0.8,0.4,1.3
				c-0.1,0.3-0.4,0.6-0.7,0.7c-2.6,0.8-3.1,2.7-3,5.2c0.3,9.4-3.1,17.6-8.8,25c-0.7,1-1.6,1.9-2.3,2.8c-0.8,0.9-0.9,1.8-0.3,2.8
				c0.5,0.9,1.1,1.8,1.5,2.7c5,10.2-3.1,19.9-11.1,21.1C151.1-947.2,148.7-947.7,143.4-950.7z M59.2-733c-0.9,0-1.3,0.1-1.6,0
				c-0.5-0.1-1-0.3-1.1-0.9c0-0.6,0.2-1,0.8-1.2c0.6-0.2,1.3-0.4,2-0.5c6.9-1.5,13.1-4.4,18.7-8.7c11.5-8.9,20.9-19.8,28.9-31.9
				c3.3-5.1,6.4-10.4,8.6-16c0.9-2.4,1.6-4.9,2.3-7.4c0.2-0.8,0.2-1.8-0.4-2.5c-1-1-1.9-2.4-3.1-2.7c-1.6-0.4-1.9,1.6-2.9,2.5
				c-1.3,1.2-2.3,2.6-3.5,3.8c-1.6,1.6-3,3.3-3.3,5.7c-0.3,2.2-1.9,4-4.2,4c-2.5,0-4.2,1.4-6.1,2.5c-2.9,1.6-5.7,3.3-8.6,4.8
				c-1.5,0.8-2.7,1.6-3.4,3.6c-1.4,3.7-3.9,4.6-7.4,2.8c-1.9-0.9-3.5-0.8-5.4-0.4c-5.1,1.2-10.1,2.4-15.4,2.5
				c-2.5,0-4.5,0.6-6.5,2.5c-3,2.9-7.2,2.4-9.3-1.1c-1.3-2.1-2.9-2.8-4.9-3.2c-5.3-1.1-10.4-2.7-15.3-5.1c-1.9-0.9-3.6-1.5-5.9-0.7
				c-2.8,0.9-4.9-0.3-5.5-3.2c-0.5-2.4-2-3.4-3.7-4.7c-2.5-1.9-4.9-3.9-7.2-5.9c-1.6-1.4-2.9-2.7-5.3-2.8c-2.1-0.1-3.2-1.4-3-3.5
				c0.2-2.1-0.6-3.6-1.7-5.3c-1.2-1.7-2.1-3.6-3.2-5.3c-1.4-2.3-2.1-5.1-4-7.2c-2.8,1.5-3.2,4.7-5.2,6.8c-1.4,1.5-1.3,3.1-0.4,4.8
				c0.5,0.9,0.8,1.9,1.2,2.9C-18-786.4-6.9-771,6.6-757.3c9.8,9.9,21.4,17.1,34.6,21.6c0.5,0.2,1,0.3,1.4,0.6
				c0.2,0.2,0.4,0.6,0.5,0.9c0.2,0.7-0.4,0.9-0.9,1c-2.3,0.3-4.5-0.5-6.5-1.4c-10.3-4.7-20.1-10.2-28.4-18.2
				c-14.5-14-26.3-29.9-34.8-48.3c-0.8-1.8-1.1-4-3-5.3c-1.9,0.9-3,2.8-4.6,4.1c-0.3,0.2-0.5,0.5-0.8,0.7c-1.3,1-1.4,2.1-1,3.7
				c2.5,9.9,4.6,19.9,7.4,29.8c10.3,36.1,27.4,68.9,49.8,99c6.9,9.2,15.2,17.1,23.8,24.8c0.3,0.2,0.5,0.5,0.8,0.7
				c2.5,2,5,2.5,8.2,1.2c6.7-2.8,12.5-6.6,17.3-12.1c8.2-9.5,14.8-20.1,20.2-31.5c9-19,16-38.8,21.9-59c4.7-15.8,9.2-31.6,11.9-47.9
				c0.4-2.6-0.2-3.9-2.2-5.1c-1.3-0.7-1.9-0.7-2.2,0.8c-1.6,5.9-4.4,11.3-7.3,16.7c-6.2,11.4-14.6,21.1-23.5,30.4
				c-4,4.1-8.5,7.7-13.3,10.9C70.7-736.2,64.9-733.9,59.2-733z M94.8-792.5c-0.1-4.2,0.4-4.9,4.3-5.9c0.7-0.2,1.5-0.7,2-0.4
				c2.8,1.5,4.1-0.6,5.6-2.3c1.2-1.3,2.3-2.6,3.4-4c1.8-2.4,1.8-2.5,0.1-5c-4.9-7.3-8.3-15.2-10.2-23.7c-0.3-1.2-0.6-2.4-0.9-3.5
				c-0.3-1.3-1.1-1.6-2.3-1.5c-0.9,0.1-1.7,0.2-2.6,0.3c-6.1,0.6-12.2,0.5-18.2-0.3c-16.8-2.1-33-6.1-48.6-12.9
				c-7.3-3.2-14.2-7.1-20.6-12c-4.3-3.3-8.2-6.9-12.1-10.6c-1.2-1.2-2.8-2-4.2-2.9c-1.5,1.3-0.9,3.2-1.1,4.8
				c-0.7,4.6-1.1,9.3-1.6,13.9c-1.3,11.2-2.7,22.4-6.9,33c-0.7,1.7-0.6,3.3,0.1,5c1.9,4.5,4.1,8.8,6.7,12.9c1,1.5,2,2.5,4.1,2.5
				c2.6,0.1,4.2,1.6,3.7,3.9c-0.5,2.6,0.6,4,2.2,5.3c2.4,2,4.8,3.9,7.3,5.9c1.2,0.9,2.2,1,3.7,0.2c3.9-2.1,6.1-1,7.3,3.2
				c0.1,0.3,0.1,0.7,0.1,1c-0.1,1.7,0.9,2.4,2.3,3.1c5.3,2.6,11,4.3,16.7,5.5c1.8,0.4,2.7,0,3.9-1.5c2.9-3.7,5.9-3.7,9.1-0.3
				c0.4,0.4,0.8,0.8,0.9,1.2c0.7,2.2,2.4,2.3,4.2,2.1c5-0.4,10-1.2,14.9-2.4c2-0.5,3.2-1.2,4-3.4c1.1-3.1,3.8-4.2,6.2-2.7
				c2.5,1.7,4.5,1.1,6.7-0.2c2.5-1.5,5.1-2.9,7.7-4.4C94.3-789.4,95.6-790.4,94.8-792.5z M152.8-950.2c8.8,0.1,16.6-10,11-18.7
				c-1.4-2.1-1.6-2.3-3.6-0.9c-3.4,2.4-7,4.6-11.1,5.6c-2.6,0.6-3.9,2-4,4.6c0,0.7,0,1.4-0.3,2c-1.1,2.4,0.1,4,1.8,5.4
				C148.3-950.6,150.4-950.1,152.8-950.2z M-60.7-951.5c1.1,0.1,2.6-0.3,4-0.9c1.1-0.4,1.8-1.1,1.6-2.3c-0.3-2-0.8-4.1-1.2-6.1
				c-0.2-0.9-0.7-1.6-1.6-1.8c-4.6-1.2-8.8-3.2-12.7-5.9c-1.1-0.8-1.9-0.4-2.4,0.9C-75.8-959.8-69.8-951.5-60.7-951.5z M51.5-633.1
				c0.1-3.7-2.3-6.5-5.8-6.7c-3.8-0.2-6.7,2.5-6.8,6.2c-0.1,3.6,3.1,6.9,6.5,6.9C48.6-626.6,51.4-629.5,51.5-633.1z M170.4-1013.7
				c-0.3,0.1-0.7,0.1-1,0.3c-3,2-6,4.1-9,6.2c-0.8,0.5-1.1,1.3-0.5,2.2c0.6,0.9,1.3,1.8,2.5,1.3c2.4-0.9,4.8-1.9,7.3-2.8
				c4-1.5,3.6-1.9,2.1-5.8c-0.1-0.3-0.3-0.6-0.5-0.9C171-1013.3,170.7-1013.5,170.4-1013.7z"/>
			<path id="XMLID_510_" class="st2" d="M278.6-620.9c-9.9,1.3-19.8,1-29.6,1.5c-1,0.1-2.1,0.2-3-0.4c-0.3-0.2-0.5-0.6-0.5-0.8
				c0-0.3,0.3-0.6,0.5-0.8c0.7-0.6,1.6-0.5,2.5-0.5c12-0.4,23.9-0.9,35.9-1.3c7.6-0.3,15.3-0.6,22.9-0.9c0.7,0,1.4-0.1,2.1-0.2
				c0.8-0.2,1.2-0.8,1.1-1.5c-0.4-2-0.8-4.1-1.5-6c-3.9-10.6-8.6-20.8-13.6-30.9c-10.3-20.5-23.8-38.6-39.5-55.3
				c-17.8-18.8-38.1-34.4-59.8-48.4c-0.7-0.5-1.5-0.9-2.1-1.5c-0.3-0.3-0.6-1-0.4-1.3c0.2-0.3,0.9-0.7,1.3-0.6
				c1.1,0.4,2.2,0.9,3.2,1.6c3.7,2.3,7.4,4.6,10.9,7.2c12.4,9,24.8,17.8,35.9,28.4c13,12.3,25.2,25.4,35.6,40
				c5.1,7.1,9.7,14.4,13.8,22.1c6.2,11.5,11.9,23.2,16.4,35.4c1.3,3.4,2.4,6.9,2.5,10.6c0,2.1-0.6,2.9-2.7,3c-5,0.3-10,0.7-15.1,0.8
				C289.7-620.8,284.2-620.9,278.6-620.9z"/>
			<path id="XMLID_509_" class="st2" d="M-188.8-619.2c-13.4-0.6-23.1-1-32.8-1.4c-0.5,0-1,0-1.6,0c-3.5-0.2-4.3-1.1-3.5-4.7
				c0.6-2.9,1.3-5.8,2.3-8.5c4.7-13.1,10.8-25.5,17.5-37.7c9.6-17.4,21.8-32.9,35.5-47.4c17.3-18.3,37.1-33.5,58-47.3
				c1.6-1,3.1-2.2,5-2.7c0.6-0.2,1,0.2,1.2,0.7c0.1,0.3,0,0.8-0.2,0.9c-1.1,0.9-2.2,1.7-3.3,2.4c-14.7,9.3-28.7,19.6-41.6,31.2
				c-24.9,22.2-45.6,47.6-59.7,78c-3.7,8-7.1,16.2-10.5,24.4c-0.1,0.3-0.2,0.7-0.3,1c-2.4,7.7-1.2,7,5,7.2
				c14.9,0.5,29.8,1.2,44.7,1.7c3.6,0.1,7.3,0.2,10.9,0.4c0.8,0,1.7,0.3,2.5,0.5c0.2,0.1,0.4,0.6,0.3,0.9c0,0.3-0.2,0.7-0.5,0.8
				c-0.9,0.6-2,0.4-3,0.4C-172.7-618.8-182.6-618.6-188.8-619.2z"/>
			<path id="XMLID_246_" class="st2" d="M86.4-1059.8c12,0.4,22,4.4,31,11c1.2,0.9,2.4,2,3.5,3.1c1.4,1.5,1.8,3.3,1,4.2
				c-1.1,1.3-2.5,1-3.8,0.6c-1.3-0.4-2.6-0.9-3.9-1.4c-6.1-2.5-12.4-4.3-19-5.1c-2.7-0.3-5.5-0.5-8.3-0.7c-0.9-0.1-1.7,0-2.6-0.1
				c-4.5-0.5-6.4-2.9-5.8-7.4c0.3-2.5,1.9-4,4.5-4.3C84.3-1060,85.7-1059.8,86.4-1059.8z"/>
			<path id="XMLID_245_" class="st2" d="M2.6-1045.1c-8,0-15.9,1-23.7,2.8c-2.2,0.5-4.4,0.9-6.6,1.2c-0.7,0.1-1.3-0.4-1.6-1.1
				c-0.3-0.7,0-1.4,0.6-1.8c0.8-0.6,1.7-1.2,2.6-1.7c11.2-5.8,23-9.5,35.6-10.6c1-0.1,2.1-0.1,3.1,0.1c1.4,0.2,2.2,1,2.3,2.4
				c0.2,2.1,0.4,4.1,0.6,6.2c0.2,2-0.6,3-2.5,3.1c-1.2,0.1-2.4,0-3.6-0.1C7.1-1044.9,4.8-1045,2.6-1045.1z"/>
			<path id="XMLID_506_" class="st2" d="M48.1-933.1c-9.7,0.3-19-1.7-28.1-4.6c-6.4-2.1-11.9-5.5-17-9.7c-0.5-0.4-1-0.9-1.5-1.5
				c-0.6-0.6-1.2-1.3-0.8-2.3c0.3-0.7,1.6-0.5,2.6,0.5c8.6,8.3,19.4,11.7,30.8,13.8c5.3,1,10.7,1.1,16,1.2c9.2,0.2,17.8-2.2,26.1-6
				c5.9-2.7,11.2-6.2,16.5-9.9c1.3-0.9,2.6-1.7,3.9-2.5c0.4-0.3,1.1-0.1,1.3,0.4c0.1,0.4,0,1-0.1,1.4c-0.1,0.3-0.4,0.5-0.7,0.7
				c-10.5,7.8-21.6,14.5-34.6,17.3C57.8-933.1,52.9-933.2,48.1-933.1z"/>
			<path id="XMLID_505_" class="st2" d="M47.8-962.5c-2.8-0.1-5.5-0.2-8.3-0.5c-0.7-0.1-1.3-0.7-0.9-1.5c0.2-0.4,0.7-0.9,1.1-1
				c1-0.1,2.1,0,3.1,0.1c5.2,0.4,10.4,0.5,15.5-0.6c1.2-0.3,2.4-0.5,3.5-0.9c2.6-0.9,3.9-2.8,3.9-5.5c0-1.5-0.3-3.1-0.6-4.6
				c-2.7-13.6-6-27.1-9.5-40.5c-0.7-2.8-1.3-5.7-1.9-8.6c-0.2-0.7,0.2-1.4,1-1.5c0.8-0.1,1.3,0.5,1.5,1.2c0.5,1.8,0.8,3.7,1.3,5.6
				c3.7,13.9,7.1,27.9,10,42c0.5,2.2,0.8,4.4,0.7,6.7c-0.1,4.4-2.1,7.2-6.5,8.3c-2.8,0.7-5.7,1.4-8.7,1.3c-1.7-0.1-3.5,0-5.2,0
				C47.8-962.6,47.8-962.5,47.8-962.5z"/>
			<path id="XMLID_504_" class="st2" d="M46.4-918.9c-5.6,0.2-11-0.3-16.4-1.9c-2-0.6-3.9-1.3-5.6-2.5c-0.3-0.2-0.6-1-0.5-1.3
				c0.1-0.3,0.8-0.6,1.2-0.7c0.5,0,1,0.2,1.5,0.4c10.6,4.6,21.5,4.3,32.6,2.3c1.5-0.3,3-0.7,4.6-0.9c0.7-0.1,1.4,0,1.7,0.8
				c0.3,0.9-0.4,1.3-1,1.5c-4.4,1.1-8.7,2.1-13.2,2.3C49.5-918.9,48-918.9,46.4-918.9z"/>
			<path id="XMLID_503_" class="st2" d="M-60-1007.5c-7.3-1.6-12,7.1-9.9,13.2c0.7,2,1.8,3.7,3.1,5.4c0.7,1,1.4,2,2,3
				c0.1,0.2-0.1,0.7-0.3,0.9c-0.2,0.2-0.6,0.4-0.9,0.4c-0.3,0-0.7-0.2-0.9-0.4c-3.8-3.8-6.5-8.1-6.1-13.8c0.3-4.3,2.4-7.5,5.8-10
				c1.9-1.3,4-2,6.4-1.4c1.5,0.4,3.2-0.1,4.5,1c0.2,0.2,0.4,0.6,0.3,0.9c0,0.3-0.3,0.8-0.5,0.8C-57.7-1007.4-58.9-1007.5-60-1007.5z
				"/>
			<path id="XMLID_502_" class="st2" d="M-74-1017.8c1.2,0,2.3,1.1,2.4,2.3c0.1,1.5-1.3,2.8-3.1,2.8c-1.1,0-2.3-1.3-2.1-2.5
				C-76.6-1016.6-75.3-1017.8-74-1017.8z"/>
			<path id="XMLID_501_" class="st2" d="M-76.2-1009c0.1,1.4-1,2.7-2.4,2.9c-1.2,0.2-2.4-0.7-2.6-2c-0.2-1.6,1-3.2,2.6-3.2
				C-77.5-1011.4-76.3-1010.2-76.2-1009z"/>
			<path id="XMLID_500_" class="st2" d="M50-729.3c-1.8,0-3.2-1.7-3.3-3.8c0-2.4,1.6-4,3.7-3.9c1.7,0.1,2.9,1.5,3,3.5
				C53.4-731.2,52-729.3,50-729.3z"/>
		</g>
		<g id="XMLID_496_" class="st4">
			<circle id="XMLID_498_" class="st0" cx="117" cy="-969.2" r="20.1"/>
			<circle id="XMLID_497_" class="st0" cx="-18.4" cy="-969.2" r="20.1"/>
		</g>
	</g>
	<path id="XMLID_313_" class="st5" d="M-1830.5,51.3c-0.7,19.4,4.5,34.7,8,43c7.5,15,22.3,39.3,49,60c13.5,10.4,61.6,47.6,115,34
		c47.6-12.2,84.1-60.9,90-121c-2.9-6.5-46.3-99.3-134-108c-8.7-0.9-77.7-6.7-110,38C-1829,20.3-1830.4,48.7-1830.5,51.3z"/>
</g>
<g id="Warstwa_4">
	<path id="XMLID_306_" class="st6" d="M705.4,395.3c-0.2-0.7-1-0.9-1.7-0.8c-0.7,0.1-1.4,0.2-2.1,0.3c-7.9,2.2-13.5,9.7-13.5,17.1
		c-0.1,6,1.9,10.2,6,13.5c2.3,1.9,4.1,2.3,4.4,1.1c0.4-1.9-1.4-2.2-2.4-3c-5-4.2-6.6-10-4.4-16c1.7-4.5,4.8-7.6,9.2-9.5
		c1.1-0.5,2.3-0.8,3.5-1.2C705.2,396.6,705.6,396,705.4,395.3z"/>
	<g id="XMLID_303_">
		<path id="XMLID_305_" class="st6" d="M892.4,411.3c1-0.6,1.6-1.7,1.9-3c0.2-0.7,0.2-1.4,0.3-2.1c0.9-10.5,1.1-20.9,0.1-31.4
			c-0.3-3.2-1.6-4.6-4.8-5.2c-0.8-0.2-1.8-0.1-2.6-0.2c-8.6-0.9-17.1-0.4-25.7-1h-10.5c-3.7,0-7.3,0.1-11,0
			c-4.8-0.1-9.4,0.7-14.1,1.4c-3.2,0.5-4.1,1.7-4.2,5c0,2.3,0.2,4.5,0.4,6.8c0.7,6,0.5,6.3-5.6,5.5c-6.4-0.9-12.9-1.7-19.3,0.1
			c-1,0.3-1.7-0.3-1.7-1.3c-0.3-3.7-0.6-7.3-0.8-11c-0.2-2.9-0.6-3.4-3.4-3.6c-5.1-0.3-10.1-0.4-15.2-0.5c-14.5-0.3-29,1.7-43.5,2.1
			c-1.4,0.1-2.8,0.4-4.1,0.8c-3,0.9-3.9,2.1-4.1,5.3c0,0.5,0,1,0,1.6c0.2,5.4,0.4,10.8,0.5,16.3c0,3,0.5,5.9,1,8.8
			c0.3,2,1.2,3.7,2.3,5.2c0.7,1,1.7,1.7,3.1,1.8c0.2,0,0.3,0,0.4,0c-5.8,2.6-9.7,7.3-9.7,12.6c0,8.2,9.1,14.8,20.3,14.8
			c11.2,0,20.3-6.6,20.3-14.8c0-4.6-2.9-8.8-7.5-11.5c6,0.1,12,0.3,17.9,0.8c5.7,0.4,11.5-0.3,17.3-0.9c3.6-0.4,4.8-1.6,5.5-5.2
			c0.3-1.7,0.3-3.5,0.2-5.2c-0.2-3.7-0.3-7.4-0.5-11c-0.1-1.3,0.6-2,1.7-2.3c2.5-0.7,5-1.6,7.7-1.3c4.9,0.4,9.8,0.8,14.6,1.4
			c2.7,0.3,2.7,0.5,3.1,3.2c0.6,4.5,1.1,9,1.9,13.5c0.7,4.2,2.7,6,6.9,6.7c1.2,0.2,2.4,0.2,3.6,0.3c9.4,0.3,18.9,0.5,28.3,0.1
			c3.3-0.1,6.6-0.2,9.9-0.3c-4.8,2.7-8,7-8,11.8c0,8.2,9.1,14.8,20.3,14.8s20.4-6.6,20.4-14.8C906.3,418.8,900.5,413.3,892.4,411.3z
			"/>
		<path id="XMLID_304_" class="st6" d="M774.9,385c-0.2-0.5-0.3-1.2,0.3-1.4c0.4-0.2,1,0,1.4,0.2c1.7,0.9,3.2,2,4.7,3.3
			c4.3,3.8,3.2,10.4-0.6,13.3c-1.5,1.1-3.1,2.2-4.9,2.6c-0.2-0.3-0.4-0.5-0.4-0.6C777.4,396.5,777,390.7,774.9,385z"/>
	</g>
	<path id="XMLID_302_" class="st6" d="M772.6,355.3c-0.1-5.4-0.4-6.1-6.2-4.4c-9.9,2.9-19.4,6.8-28.8,11c-0.5,0.2-1,0.4-1.4,0.7
		c-1.7,1.1-4.5,1.8-3.9,4.3c0.5,2.1,3.2,1.7,5.1,1.7c4.6,0.1,9.1,0,13.6,0v-0.1c4.5,0,9.1,0.1,13.6,0c1.5,0,3.1-0.4,4.6-0.7
		c2.1-0.5,3.4-1.9,3.4-4.1C772.7,360.9,772.6,358.1,772.6,355.3z"/>
	<path id="XMLID_277_" class="st6" d="M1570.8,229c-1.5-0.5-3-1-4.4-1.5c-5.1-1.9-10.1-3.9-12.8-9.1c-0.2-0.3-1-0.6-1.4-0.4
		c-0.3,0.1-0.7,0.9-0.6,1.3c0.4,2.3,1.9,4.1,3.7,5.5c4.2,3.2,9,5.2,14.1,6.5c0.5,0.1,1,0,1.5-0.2c0.3-0.1,0.4-0.5,0.6-0.7
		C1571.6,229.6,1571.3,229.2,1570.8,229z"/>
	<path id="XMLID_276_" class="st6" d="M1587.5,227.3c-2-0.4-4.1-0.7-6.2-1.2c-6.7-1.5-13.2-3.6-18.1-8.8c-4-4.4-7.6-9.1-9.2-15
		c-0.1-0.5-0.4-1-0.7-1.4c-0.2-0.2-0.7-0.3-0.9-0.3c-0.3,0.1-0.6,0.4-0.7,0.7c-0.5,2.2,0.4,4.1,1.4,6c1.8,3.6,4.1,6.9,6.6,10
		c1.9,2.3,4.1,4.3,6.6,5.9c6.2,3.8,13.1,5.5,19.4,6.3c1.1,0,1.3,0.1,1.4,0.1c0.7-0.1,1.5,0,1.6-0.9
		C1588.8,227.9,1588.1,227.5,1587.5,227.3z"/>
	<path id="XMLID_299_" class="st6" d="M826.5,444.8c-0.1-3.4-1.1-6.5-1.9-9.7c-2.1-8.1-4.2-16.2-6.2-24.3c-0.6-2.5-0.9-5.2-1.4-7.7
		c-0.1-0.7-0.2-1.4-0.5-2c-0.2-0.3-0.8-0.5-1.3-0.6c-0.2,0-0.6,0.5-0.6,0.7c-0.4,3.7,0.6,7.3,1.5,10.8c2.3,9.5,4.8,18.9,7.2,28.4
		c0.4,1.7,0.6,3.4,0.8,5.1c0.3,2.6-1.1,4.3-3.4,5.3c-2.1,0.9-4.3,1.4-6.6,1.5c-3.1,0.1-6.3,0.3-9.3-0.9c-0.5-0.2-1-0.2-1.6-0.2
		c-0.3,0-0.7,0.2-0.9,0.5c-0.3,0.5-0.2,1,0.3,1.4c2.7,2.1,5.9,1.6,9.3,1.8c1.6-0.1,3.6-0.1,5.5-0.3c1-0.1,2-0.5,3-0.8
		C825.2,452,826.6,449.9,826.5,444.8z"/>
	<path id="XMLID_298_" class="st6" d="M890.4,359c-1.2-1.4-2.8-2.1-4.4-2.8c-10.1-4.5-20.5-8-31.3-10.5c-1.9-0.5-3.8-0.6-5.7-0.4
		c-2.2,0.2-3.1,1.2-3.3,3.4c-0.3,3,0.1,5.9,0.6,8.9c0.8,4.6,2.3,5.8,7.1,5.9c5.1,0.1,10.2,0,15.2,0v-0.1c1.6,0,3.2,0,4.7,0
		c3.8,0,7.7,0.1,11.5,0.1c1.8,0,3.5-0.3,5-1.3C891.1,361.3,891.3,360,890.4,359z"/>
	<path id="XMLID_297_" class="st6" d="M918.8,394.7c-1-0.3-2.1-0.6-3.1-0.1c-0.3,0.1-0.5,0.5-0.5,0.8s0,0.9,0.2,0.9
		c1.4,0.6,2.9,1.1,4.3,1.7c11.8,5.2,13.4,20.2,3.7,26.1c-0.6,0.3-1,0.9-1.4,1.5c-0.2,0.2-0.1,0.7,0.1,0.9c0.2,0.3,0.6,0.6,0.8,0.5
		c0.7-0.1,1.4-0.2,1.9-0.6c5.1-3.3,7.7-7.9,7.6-16.2C932.5,404.3,926.7,396.8,918.8,394.7z"/>
	<path id="XMLID_296_" class="st6" d="M918.8,394.7c-1-0.3-2.1-0.6-3.1-0.1c-0.3,0.1-0.5,0.5-0.5,0.8s0,0.9,0.2,0.9
		c1.4,0.6,2.9,1.1,4.3,1.7c11.8,5.2,13.4,20.2,3.7,26.1c-0.6,0.3-1,0.9-1.4,1.5c-0.2,0.2-0.1,0.7,0.1,0.9c0.2,0.3,0.6,0.6,0.8,0.5
		c0.7-0.1,1.4-0.2,1.9-0.6c5.1-3.3,7.7-7.9,7.6-16.2C932.5,404.3,926.7,396.8,918.8,394.7z"/>
	<g id="XMLID_293_">
		<path id="XMLID_295_" class="st6" d="M892.4,411.3c1-0.6,1.6-1.7,1.9-3c0.2-0.7,0.2-1.4,0.3-2.1c0.9-10.5,1.1-20.9,0.1-31.4
			c-0.3-3.2-1.6-4.6-4.8-5.2c-0.8-0.2-1.8-0.1-2.6-0.2c-8.6-0.9-17.1-0.4-25.7-1h-10.5c-3.7,0-7.3,0.1-11,0
			c-4.8-0.1-9.4,0.7-14.1,1.4c-3.2,0.5-4.1,1.7-4.2,5c0,2.3,0.2,4.5,0.4,6.8c0.7,6,0.5,6.3-5.6,5.5c-6.4-0.9-12.9-1.7-19.3,0.1
			c-1,0.3-1.7-0.3-1.7-1.3c-0.3-3.7-0.6-7.3-0.8-11c-0.2-2.9-0.6-3.4-3.4-3.6c-5.1-0.3-10.1-0.4-15.2-0.5c-14.5-0.3-29,1.7-43.5,2.1
			c-1.4,0.1-2.8,0.4-4.1,0.8c-3,0.9-3.9,2.1-4.1,5.3c0,0.5,0,1,0,1.6c0.2,5.4,0.4,10.8,0.5,16.3c0,3,0.5,5.9,1,8.8
			c0.3,2,1.2,3.7,2.3,5.2c0.7,1,1.7,1.7,3.1,1.8c0.2,0,0.3,0,0.4,0c-5.8,2.6-9.7,7.3-9.7,12.6c0,8.2,9.1,14.8,20.3,14.8
			c11.2,0,20.3-6.6,20.3-14.8c0-4.6-2.9-8.8-7.5-11.5c6,0.1,12,0.3,17.9,0.8c5.7,0.4,11.5-0.3,17.3-0.9c3.6-0.4,4.8-1.6,5.5-5.2
			c0.3-1.7,0.3-3.5,0.2-5.2c-0.2-3.7-0.3-7.4-0.5-11c-0.1-1.3,0.6-2,1.7-2.3c2.5-0.7,5-1.6,7.7-1.3c4.9,0.4,9.8,0.8,14.6,1.4
			c2.7,0.3,2.7,0.5,3.1,3.2c0.6,4.5,1.1,9,1.9,13.5c0.7,4.2,2.7,6,6.9,6.7c1.2,0.2,2.4,0.2,3.6,0.3c9.4,0.3,18.9,0.5,28.3,0.1
			c3.3-0.1,6.6-0.2,9.9-0.3c-4.8,2.7-8,7-8,11.8c0,8.2,9.1,14.8,20.3,14.8s20.4-6.6,20.4-14.8C906.3,418.8,900.5,413.3,892.4,411.3z
			"/>
		<path id="XMLID_294_" class="st6" d="M774.9,385c-0.2-0.5-0.3-1.2,0.3-1.4c0.4-0.2,1,0,1.4,0.2c1.7,0.9,3.2,2,4.7,3.3
			c4.3,3.8,3.2,10.4-0.6,13.3c-1.5,1.1-3.1,2.2-4.9,2.6c-0.2-0.3-0.4-0.5-0.4-0.6C777.4,396.5,777,390.7,774.9,385z"/>
	</g>
	<path id="XMLID_292_" class="st6" d="M853.4,363.4c5.1,0.1,10.2,0,15.2,0v-0.1c1.6,0,3.2,0,4.7,0c3.8,0,7.7,0.1,11.5,0.1
		c1.8,0,3.5-0.3,5-1.3c1.2-0.8,1.3-2.1,0.4-3.1c-1.2-1.4-2.8-2.1-4.4-2.8c-10.1-4.5-20.5-8-31.3-10.5c-1.9-0.5-3.8-0.6-5.7-0.4
		c-2.2,0.2-3.1,1.2-3.3,3.4c-0.3,3,0.1,5.9,0.6,8.9C847.2,362.1,848.7,363.3,853.4,363.4z"/>
	<path id="XMLID_291_" class="st6" d="M824.6,435.1c-2.1-8.1-4.2-16.2-6.2-24.3c-0.6-2.5-0.9-5.2-1.4-7.7c-0.1-0.7-0.2-1.4-0.5-2
		c-0.2-0.3-0.8-0.5-1.3-0.6c-0.2,0-0.6,0.5-0.6,0.7c-0.4,3.7,0.6,7.3,1.5,10.8c2.3,9.5,4.8,18.9,7.2,28.4c0.4,1.7,0.6,3.4,0.8,5.1
		c0.3,2.6-1.1,4.3-3.4,5.3c-2.1,0.9-4.3,1.4-6.6,1.5c-3.1,0.1-6.3,0.3-9.3-0.9c-0.5-0.2-1-0.2-1.6-0.2c-0.3,0-0.7,0.2-0.9,0.5
		c-0.3,0.5-0.2,1,0.3,1.4c2.7,2.1,5.9,1.6,9.3,1.8c1.6-0.1,3.6-0.1,5.5-0.3c1-0.1,2-0.5,3-0.8c4.9-1.8,6.3-3.9,6.2-9
		C826.4,441.4,825.4,438.3,824.6,435.1z"/>
	<path id="XMLID_270_" class="st6" d="M1587.5,227.3c-2-0.4-4.1-0.7-6.2-1.2c-6.7-1.5-13.2-3.6-18.1-8.8c-4-4.4-7.6-9.1-9.2-15
		c-0.1-0.5-0.4-1-0.7-1.4c-0.2-0.2-0.7-0.3-0.9-0.3c-0.3,0.1-0.6,0.4-0.7,0.7c-0.5,2.2,0.4,4.1,1.4,6c1.8,3.6,4.1,6.9,6.6,10
		c1.9,2.3,4.1,4.3,6.6,5.9c6.2,3.8,13.1,5.5,19.4,6.3c1.1,0,1.3,0.1,1.4,0.1c0.7-0.1,1.5,0,1.6-0.9
		C1588.8,227.9,1588.1,227.5,1587.5,227.3z"/>
	<path id="XMLID_269_" class="st6" d="M1570.8,229c-1.5-0.5-3-1-4.4-1.5c-5.1-1.9-10.1-3.9-12.8-9.1c-0.2-0.3-1-0.6-1.4-0.4
		c-0.3,0.1-0.7,0.9-0.6,1.3c0.4,2.3,1.9,4.1,3.7,5.5c4.2,3.2,9,5.2,14.1,6.5c0.5,0.1,1,0,1.5-0.2c0.3-0.1,0.4-0.5,0.6-0.7
		C1571.6,229.6,1571.3,229.2,1570.8,229z"/>
	<path id="XMLID_288_" class="st6" d="M737.3,368.6c4.6,0.1,9.1,0,13.6,0v-0.1c4.5,0,9.1,0.1,13.6,0c1.5,0,3.1-0.4,4.6-0.7
		c2.1-0.5,3.4-1.9,3.4-4.1c0.1-2.8-0.1-5.6-0.1-8.4c-0.1-5.4-0.4-6.1-6.2-4.4c-9.9,2.9-19.4,6.8-28.8,11c-0.5,0.2-1,0.4-1.4,0.7
		c-1.7,1.1-4.5,1.8-3.9,4.3C732.7,369,735.4,368.5,737.3,368.6z"/>
	<path id="XMLID_287_" class="st6" d="M703.7,394.4c-0.7,0.1-1.4,0.2-2.1,0.3c-7.9,2.2-13.5,9.7-13.5,17.1c-0.1,6,1.9,10.2,6,13.5
		c2.3,1.9,4.1,2.3,4.4,1.1c0.4-1.9-1.4-2.2-2.4-3c-5-4.2-6.6-10-4.4-16c1.7-4.5,4.8-7.6,9.2-9.5c1.1-0.5,2.3-0.8,3.5-1.2
		c0.7-0.3,1.2-0.9,0.9-1.6C705.2,394.5,704.4,394.3,703.7,394.4z"/>
	<path id="XMLID_161_" class="st6" d="M-941.1,279.2c0.1,0.5,0.2,1,0.2,1.5c0.3,6.1,0.7,12.1,1.1,18.2c0.1,0.9,0.1,1.8,0.2,2.7
		c0.2,2.2-0.5,4-1.9,5.7c-3,3.7-6.5,6.9-10.4,9.6c-4.3,3-8.8,5.7-13.6,7.8c-1.2,0.5-2.5,1.1-3.8,1.6c-11.2,4.6-22.8,8.1-34.9,9.5
		c-4,0.4-8,0.4-12,0.6c-15.5,0-30.2-3.5-44.3-9.4c-1-0.4-2.1-0.9-3-1.4c-4.5-2.2-8.6-5-12.5-8.3c-3.5-2.9-6.7-6.2-10.1-9.2
		c-1.9-1.6-2.5-3.6-2.3-6.1c0.1-1.8,0.3-3.6,0.3-5.4c0.4-5.9,0.8-11.8,1.1-17.6c0.5-8,1.1-16.1,1.6-24.1c0.4-6.3,0.8-12.6,1.1-18.9
		c0-0.5,0.2-1.2,0.5-1.4c0.7-0.5,1.3,0.1,1.8,0.6c4.1,3.9,8.9,6.8,13.5,10c14.6,10.2,30.8,17.1,47.8,22.4
		c11.5,3.6,23.2,6.6,35.2,8.2c11.8,1.6,23.7,2.5,35.6,2.2c2.3-0.1,4.5-0.5,6.8-0.7C-942,277.4-941.2,278-941.1,279.2z"/>
	<g id="XMLID_149_">
		<path id="XMLID_160_" class="st6" d="M-1261.9,447.6c1.1-3.7,2.2-7.4,3.5-11.1c5.9-0.2,11.7-0.3,17.6-0.4
			c30.3-0.6,60.6-1.9,90.8-2.4c31.2-0.5,62.3-1.2,93.5-1.4c20.8-0.2,41.6-0.4,62.5-0.3c15.4,0,30.8,0.1,46.2,0.3
			c17.5,0.3,35,0.2,52.5,0.2c20.1-0.1,40.3-0.3,60.4-0.4c11.4-0.1,22.8,0,34.1-0.1c14.5-0.1,29-0.5,43.5-1.1
			c4.7,9.1,8.8,18.6,12.5,28.3c-16.4,0.7-32.9,1.3-49.4,1.2c-14.5-0.1-29,0.7-43.6,0.5c-9.5-0.1-18.9,0.3-28.4,0.2
			c-18.5-0.3-37.1-0.2-55.6-0.2c-11,0-22.1,0-33.1-0.1c-17.5-0.2-35-0.5-52.5-0.6c-9.6-0.1-19.3,0-28.9,0.2
			c-16.5,0.2-32.9,0.4-49.4,0.7c-35.7,0.7-71.4,2.9-116.4,3.1c-15.2,0.6-39.3,1.5-63.6,2.5C-1265,460.1-1263.7,453.8-1261.9,447.6z"
			/>
		<path id="XMLID_155_" class="st6" d="M-1003.7,347.5c-9-0.1-17.9-0.1-26.9-0.1h-0.1c-4.3-0.8-8.5-1.8-12.7-3
			c-9.1-2.7-18.1-5.3-26.4-10.1c-4.5-2.6-8.7-5.6-12.6-8.9c4.4,0.1,8.9,0.2,13.3,0.3c4.5,2.8,9.4,5,14.5,6.7c12.9,4.4,26,7,39.6,6.9
			c12.4-0.2,24.4-2.3,36-6.3c5.5-1.9,10.9-3.9,16.2-6.5c5.4,0,10.8,0,16.2,0c0,0,0,0,0,0h0.1c-5.7,4.6-12,8.5-18.8,11.6
			c-4.8,2.2-9.6,4.2-14.7,5.7c-1.2,0.3-2.3,0.8-3.4,1.3c-0.5,0.2-0.8,0.8-0.5,1.3c0.2,0.4,0.8,0.7,1.2,0.7c1-0.1,2.1-0.4,3.1-0.7
			c13.8-4.2,26.2-10.8,37.2-20c15.7,0,31.3,0,47-0.1c8.9,0,17.9-0.1,26.9-0.1c2.7,1.1,5.3,2.2,8,3.3c13.1,5.6,25.1,12.9,36.3,21.4
			c-10.3-0.3-20.7-0.6-31-0.8c-8.6-0.2-17.2-0.2-25.7-0.5c-17.7-0.5-35.3-1.1-53-1c-8.2,0-16.5-0.1-24.7-0.2
			C-973.6,348.1-988.7,347.6-1003.7,347.5z"/>
		<path id="XMLID_154_" class="st6" d="M-1142.2,323.9c0.7-0.2,1.4-0.4,2-0.6c11.8,0.5,23.5,1.1,35.2,1.5c6.1,0.2,12.1,0.3,18.2,0.4
			c0,0,0,0,0,0c0.1,0.1,0.2,0.2,0.3,0.3c9,8,19.2,14.1,30.6,17.9c3.3,1.1,6.7,2.1,10.1,3c1.2,0.3,2.4,0.7,3.6,1h0
			c-4.8,0-9.7,0.1-14.6,0.1c-18.6,0.2-37.1,0.5-55.7,1c-11,0.3-22,0.8-29.5,1.1c-10.9,0-18.3,0-25.6,0.1c-8.7,0.1-17.5,0.3-26.2,0.6
			c1.7-1.1,3.5-2.1,5.3-3.1c7.9-4.5,15.7-9.1,23.7-13.6C-1157.6,329.6-1150,326.4-1142.2,323.9z"/>
		<path id="XMLID_152_" class="st6" d="M-1216,379.5c22.8-0.9,45.5-1.2,68.3-1.6c27.1-0.5,54.3-1.5,81.4-1.7
			c7.4-0.1,14.7-0.3,22.1-0.2c18.4,0.2,36.8,0.2,55.1,0.2c15.9,0.1,31.9,0.3,47.8,0.1c16.1-0.1,32.2,0,48.3,0.3
			c13.1,0.3,26.3,0.5,39.4,0.5c19.7,0,39.5,0.8,59.2,0.3c8.2,8.7,15.5,18,22.1,27.7c-12.2,0.2-24.4,0.2-36.6,0
			c-16.3-0.3-32.6-0.2-48.8-0.3c-14.9-0.1-29.8-0.3-44.6-0.3c-19.8-0.1-39.6-0.4-59.3-0.9c-15.2-0.3-30.4-0.3-45.7-0.3
			c-21.7,0.1-43.4,0.2-65.1,0.4c-14.5,0.1-29.1,0.3-43.6,0.6c-20.5,0.4-41,0.7-61.4,1.3c-23.4,0.7-46.8,1.5-70.2,2.2
			c0.3-0.6,0.5-1.2,0.8-1.8c4.2-9.7,9.8-18.3,16.6-26.1C-1225.5,379.9-1220.8,379.7-1216,379.5z"/>
	</g>
	<path id="XMLID_280_" class="st6" d="M919.8,398.1c11.8,5.2,13.4,20.2,3.7,26.1c-0.6,0.3-1,0.9-1.4,1.5c-0.2,0.2-0.1,0.7,0.1,0.9
		c0.2,0.3,0.6,0.6,0.8,0.5c0.7-0.1,1.4-0.2,1.9-0.6c5.1-3.3,7.7-7.9,7.6-16.2c0-6-5.8-13.5-13.7-15.6c-1-0.3-2.1-0.6-3.1-0.1
		c-0.3,0.1-0.5,0.5-0.5,0.8s0,0.9,0.2,0.9C916.9,397,918.3,397.4,919.8,398.1z"/>
	<path id="XMLID_279_" class="st6" d="M853.4,363.4c5.1,0.1,10.2,0,15.2,0v-0.1c1.6,0,3.2,0,4.7,0c3.8,0,7.7,0.1,11.5,0.1
		c1.8,0,3.5-0.3,5-1.3c1.2-0.8,1.3-2.1,0.4-3.1c-1.2-1.4-2.8-2.1-4.4-2.8c-10.1-4.5-20.5-8-31.3-10.5c-1.9-0.5-3.8-0.6-5.7-0.4
		c-2.2,0.2-3.1,1.2-3.3,3.4c-0.3,3,0.1,5.9,0.6,8.9C847.2,362.1,848.7,363.3,853.4,363.4z"/>
	<path id="XMLID_278_" class="st6" d="M824.6,435.1c-2.1-8.1-4.2-16.2-6.2-24.3c-0.6-2.5-0.9-5.2-1.4-7.7c-0.1-0.7-0.2-1.4-0.5-2
		c-0.2-0.3-0.8-0.5-1.3-0.6c-0.2,0-0.6,0.5-0.6,0.7c-0.4,3.7,0.6,7.3,1.5,10.8c2.3,9.5,4.8,18.9,7.2,28.4c0.4,1.7,0.6,3.4,0.8,5.1
		c0.3,2.6-1.1,4.3-3.4,5.3c-2.1,0.9-4.3,1.4-6.6,1.5c-3.1,0.1-6.3,0.3-9.3-0.9c-0.5-0.2-1-0.2-1.6-0.2c-0.3,0-0.7,0.2-0.9,0.5
		c-0.3,0.5-0.2,1,0.3,1.4c2.7,2.1,5.9,1.6,9.3,1.8c1.6-0.1,3.6-0.1,5.5-0.3c1-0.1,2-0.5,3-0.8c4.9-1.8,6.3-3.9,6.2-9
		C826.4,441.4,825.4,438.3,824.6,435.1z"/>
	<path id="XMLID_268_" class="st6" d="M1587.5,227.3c-2-0.4-4.1-0.7-6.2-1.2c-6.7-1.5-13.2-3.6-18.1-8.8c-4-4.4-7.6-9.1-9.2-15
		c-0.1-0.5-0.4-1-0.7-1.4c-0.2-0.2-0.7-0.3-0.9-0.3c-0.3,0.1-0.6,0.4-0.7,0.7c-0.5,2.2,0.4,4.1,1.4,6c1.8,3.6,4.1,6.9,6.6,10
		c1.9,2.3,4.1,4.3,6.6,5.9c6.2,3.8,13.1,5.5,19.4,6.3c1.1,0,1.3,0.1,1.4,0.1c0.7-0.1,1.5,0,1.6-0.9
		C1588.8,227.9,1588.1,227.5,1587.5,227.3z"/>
	<path id="XMLID_267_" class="st6" d="M1570.8,229c-1.5-0.5-3-1-4.4-1.5c-5.1-1.9-10.1-3.9-12.8-9.1c-0.2-0.3-1-0.6-1.4-0.4
		c-0.3,0.1-0.7,0.9-0.6,1.3c0.4,2.3,1.9,4.1,3.7,5.5c4.2,3.2,9,5.2,14.1,6.5c0.5,0.1,1,0,1.5-0.2c0.3-0.1,0.4-0.5,0.6-0.7
		C1571.6,229.6,1571.3,229.2,1570.8,229z"/>
	<path id="XMLID_275_" class="st6" d="M737.3,368.6c4.6,0.1,9.1,0,13.6,0v-0.1c4.5,0,9.1,0.1,13.6,0c1.5,0,3.1-0.4,4.6-0.7
		c2.1-0.5,3.4-1.9,3.4-4.1c0.1-2.8-0.1-5.6-0.1-8.4c-0.1-5.4-0.4-6.1-6.2-4.4c-9.9,2.9-19.4,6.8-28.8,11c-0.5,0.2-1,0.4-1.4,0.7
		c-1.7,1.1-4.5,1.8-3.9,4.3C732.7,369,735.4,368.5,737.3,368.6z"/>
	<g id="XMLID_272_">
		<path id="XMLID_274_" class="st6" d="M742.6,440.2c11.2,0,20.3-6.6,20.3-14.8c0-4.6-2.9-8.8-7.5-11.5c6,0.1,12,0.3,17.9,0.8
			c5.7,0.4,11.5-0.3,17.3-0.9c3.6-0.4,4.8-1.6,5.5-5.2c0.3-1.7,0.3-3.5,0.2-5.2c-0.2-3.7-0.3-7.4-0.5-11c-0.1-1.3,0.6-2,1.7-2.3
			c2.5-0.7,5-1.6,7.7-1.3c4.9,0.4,9.8,0.8,14.6,1.4c2.7,0.3,2.7,0.5,3.1,3.2c0.6,4.5,1.1,9,1.9,13.5c0.7,4.2,2.7,6,6.9,6.7
			c1.2,0.2,2.4,0.2,3.6,0.3c9.4,0.3,18.9,0.5,28.3,0.1c3.3-0.1,6.6-0.2,9.9-0.3c-4.8,2.7-8,7-8,11.8c0,8.2,9.1,14.8,20.3,14.8
			s20.4-6.6,20.4-14.8c0-6.5-5.8-12.1-13.9-14c1-0.6,1.6-1.7,1.9-3c0.2-0.7,0.2-1.4,0.3-2.1c0.9-10.5,1.1-20.9,0.1-31.4
			c-0.3-3.2-1.6-4.6-4.8-5.2c-0.8-0.2-1.8-0.1-2.6-0.2c-8.6-0.9-17.1-0.4-25.7-1h-10.5c-3.7,0-7.3,0.1-11,0
			c-4.8-0.1-9.4,0.7-14.1,1.4c-3.2,0.5-4.1,1.7-4.2,5c0,2.3,0.2,4.5,0.4,6.8c0.7,6,0.5,6.3-5.6,5.5c-6.4-0.9-12.9-1.7-19.3,0.1
			c-1,0.3-1.7-0.3-1.7-1.3c-0.3-3.7-0.6-7.3-0.8-11c-0.2-2.9-0.6-3.4-3.4-3.6c-5.1-0.3-10.1-0.4-15.2-0.5c-14.5-0.3-29,1.7-43.5,2.1
			c-1.4,0.1-2.8,0.4-4.1,0.8c-3,0.9-3.9,2.1-4.1,5.3c0,0.5,0,1,0,1.6c0.2,5.4,0.4,10.8,0.5,16.3c0,3,0.5,5.9,1,8.8
			c0.3,2,1.2,3.7,2.3,5.2c0.7,1,1.7,1.7,3.1,1.8c0.2,0,0.3,0,0.4,0c-5.8,2.6-9.7,7.3-9.7,12.6C722.2,433.5,731.4,440.2,742.6,440.2z
			"/>
		<path id="XMLID_273_" class="st6" d="M775.2,383.6c0.4-0.2,1,0,1.4,0.2c1.7,0.9,3.2,2,4.7,3.3c4.3,3.8,3.2,10.4-0.6,13.3
			c-1.5,1.1-3.1,2.2-4.9,2.6c-0.2-0.3-0.4-0.5-0.4-0.6c2-5.9,1.6-11.6-0.5-17.3C774.7,384.5,774.7,383.8,775.2,383.6z"/>
	</g>
	<path id="XMLID_271_" class="st6" d="M694.1,425.4c2.3,1.9,4.1,2.3,4.4,1.1c0.4-1.9-1.4-2.2-2.4-3c-5-4.2-6.6-10-4.4-16
		c1.7-4.5,4.8-7.6,9.2-9.5c1.1-0.5,2.3-0.8,3.5-1.2c0.7-0.3,1.2-0.9,0.9-1.6c-0.2-0.7-1-0.9-1.7-0.8c-0.7,0.1-1.4,0.2-2.1,0.3
		c-7.9,2.2-13.5,9.7-13.5,17.1C688,417.9,690,422.1,694.1,425.4z"/>
	<path id="XMLID_223_" class="st6" d="M-234.9,87.7c-3.7-11.7-12.2-18.4-23.8-21.6c-3.2-0.9-6.5-1.2-9.9-1.1
		c-1.4,0.1-2.3-0.8-2.6-2.1c-0.2-1-0.3-2.1-0.4-3.1c-0.8-8-1.6-16-2.3-24c-0.4-4-1.5-7.4-4.7-10.1c-2-1.7-3.7-3.7-5.5-5.6
		c-3.1-3.2-6.5-5.8-10.4-8C-303.6,7-313.2,3.6-323.5,2c-2.8-0.4-5.5-0.7-8.4-0.4c-9.5,0.9-18.5,3.6-27.1,7.7
		c-6.2,2.9-12.3,5.9-18.5,8.8c-9.2,4.3-18.8,6.3-28.9,6.7c-6.8,0.3-13.7,0.1-20.4-0.9c-10.9-1.6-20.4-6.1-27.2-15.2
		c-0.8-1.1-1.6-2.3-2.5-3.4c-0.2-0.3-0.6-0.5-0.9-0.4c-0.3,0.1-0.6,0.4-0.7,0.7c-0.2,0.7-0.3,1.4-0.4,2c-0.8,6.2-1.6,12.5-2.4,18.7
		c-1.4,11.1-3.1,22.2-4,33.3c-0.4,4.9-0.8,5.1-5.7,5.4c-10.3,0.5-19,4.5-25.6,12.5c-6.4,7.9-8.4,16.9-5.3,26.6
		c3.6,11.5,11.9,18.2,23.2,21.5c2.7,0.8,5.5,1,8.3,1.3c2.6,0.4,3.2,1.3,3.1,3.9c-0.2,4.4-0.4,8.7-0.6,11.9c0,11.8,1,22.2,3.7,32.5
		c3.9,15,10.6,28.5,21.5,39.7c15.1,15.7,33.9,23.6,55.2,26.5c7.9,1,15.7,1,23.6,0.9c10.2,0,20.3-1.4,30-4.2
		c26.5-7.7,45.5-24,56.3-49.6c6.6-15.8,8.6-32.3,8-49.3c-0.1-3-0.4-5.9-0.4-8.9c-0.1-1.8,0.6-2.7,2.2-3c1.4-0.3,2.8-0.3,4.1-0.5
		c9.6-1.4,17.7-5.5,23.6-13.3C-233.7,105.7-231.9,97-234.9,87.7z"/>
</g>
<g id="Warstwa_5">
	<g id="XMLID_129_">
		<path id="XMLID_147_" class="st7" d="M-272.1,109.9c0,8.2-9.1,14.8-20.4,14.8s-20.3-6.6-20.3-14.8c0-4.8,3.1-9,8-11.8
			c3.4-1.9,7.7-3,12.4-3c2.3,0,4.4,0.3,6.4,0.8C-278,97.9-272.1,103.4-272.1,109.9z"/>
		<path id="XMLID_148_" class="st7" d="M-415.5,109.9c0,8.2-9.1,14.8-20.3,14.8c-11.2,0-20.3-6.6-20.3-14.8c0-5.3,3.9-10,9.7-12.6
			c2.2-1,4.6-1.7,7.2-2c1.1-0.2,2.3-0.2,3.5-0.2c2.3,0,4.5,0.3,6.6,0.8c2.3,0.6,4.4,1.4,6.2,2.5
			C-418.5,101.2-415.5,105.3-415.5,109.9z"/>
	</g>
	<path id="XMLID_169_" class="st8" d="M-737.9,475.1c0,1.3-0.6,2-1.8,2c-1.9,0.1-3.8,0.1-5.8,0.1h-387.2c-42.7,0-85.4-0.1-128.2-0.1
		h-1.6c-5.3-0.1-5.8-0.8-6-6.2c-0.1-1.5-0.1-2.9,0-4.4c0.3,0,0.5,0,0.8,0c0.7,0,1.4-0.1,2.1-0.1c24.3-1,48.4-1.9,63.6-2.5
		c45.1-0.2,80.8-2.4,116.4-3.1c16.4-0.3,32.9-0.5,49.4-0.7c9.6-0.1,19.3-0.2,28.9-0.2c17.5,0.1,35,0.4,52.5,0.6
		c11,0.1,22,0.1,33.1,0.1c18.5,0.1,37.1-0.1,55.6,0.2c9.5,0.2,18.9-0.3,28.4-0.2c14.5,0.1,29.1-0.6,43.6-0.5
		c16.5,0.1,33-0.5,49.4-1.2c1-0.1,2-0.1,3-0.1c0.9,2.4,1.7,4.8,2.4,7.3C-738.5,469.2-737.9,472.1-737.9,475.1z"/>
	<path id="XMLID_168_" class="st8" d="M-754.2,430.7c-1,0.1-2,0.1-3,0.1c-14.5,0.6-29,0.9-43.5,1.1c-11.4,0.1-22.8,0-34.1,0.1
		c-20.1,0.2-40.3,0.3-60.4,0.4c-17.5,0-35,0.1-52.5-0.2c-15.4-0.2-30.8-0.3-46.2-0.3c-20.8-0.1-41.7,0.2-62.5,0.3
		c-31.2,0.2-62.3,0.9-93.5,1.4c-30.3,0.5-60.5,1.8-90.8,2.4c-5.9,0.1-11.7,0.3-17.6,0.4c-1,0-2,0.1-3,0.1
		c3.1-9.7,6.6-19.2,10.7-28.5c1-0.1,2-0.1,3.1-0.1c23.4-0.8,46.8-1.5,70.2-2.2c20.5-0.6,40.9-0.9,61.4-1.3c14.5-0.3,29-0.5,43.6-0.6
		c21.7-0.2,43.4-0.4,65.1-0.4c15.2,0,30.5,0,45.7,0.3c19.8,0.5,39.6,0.8,59.3,0.9c14.9,0.1,29.8,0.3,44.6,0.3
		c16.3,0.1,32.6,0,48.8,0.3c12.2,0.2,24.4,0.2,36.6,0c1.1,0,2.1,0,3.2-0.1C-763.6,413.3-758.7,421.8-754.2,430.7z"/>
	<path id="XMLID_167_" class="st8" d="M-790.7,377.4c-0.9,0-1.7,0-2.6,0c-0.4,0-0.8,0-1.1,0c-19.7,0.5-39.5-0.3-59.2-0.3
		c-13.1,0-26.3-0.2-39.4-0.5c-16.1-0.4-32.2-0.5-48.3-0.3c-15.9,0.1-31.9-0.1-47.8-0.1c-18.4,0-36.8,0-55.1-0.2
		c-7.3-0.1-14.7,0.1-22.1,0.2c-27.1,0.3-54.3,1.3-81.4,1.7c-22.8,0.4-45.5,0.7-68.3,1.6c-4.8,0.2-9.6,0.4-14.4,0.6
		c-1.3,0-2.6,0.1-3.9,0.2c3.2-3.8,6.7-7.4,10.5-10.8c7.7-7,15.9-13.4,24.6-19c1.8-0.1,3.6-0.1,5.4-0.2c8.7-0.3,17.5-0.4,26.2-0.6
		c7.4-0.1,14.7-0.1,25.6-0.1c7.5-0.3,18.5-0.8,29.5-1.1c18.6-0.4,37.1-0.8,55.7-1c4.9,0,9.7-0.1,14.6-0.1h0c3.8,0,7.6,0,11.5,0h0.1
		c8.9,0,17.9,0,26.9,0.1c15.1,0.1,30.1,0.6,45.2,0.8c8.2,0.2,16.4,0.3,24.7,0.2c17.7-0.1,35.4,0.5,53,1c8.6,0.3,17.2,0.3,25.7,0.5
		c10.4,0.3,20.7,0.6,31,0.8c1.6,0,3.1,0.1,4.6,0.1c2.8,2.2,5.6,4.5,8.4,6.8C-803.8,363.9-797,370.5-790.7,377.4z"/>
	<path id="XMLID_165_" class="st8" d="M-1063.6,325.7c-1.8-0.1-3.7-0.1-5.6-0.1c-4.4-0.1-8.9-0.2-13.3-0.3c-1.4,0-2.8,0-4.3-0.1
		c0,0,0,0,0,0c-6.1-0.1-12.1-0.3-18.2-0.4c-11.8-0.3-23.5-1-35.2-1.5c-2.4-0.1-4.9-0.2-7.3-0.3c2.8-1,5.7-2,8.5-2.8
		c12.9-3.8,25.8-7.8,38.7-11.7c2.2-0.7,4.3-1.4,6.5-2c1.5-0.5,2.3-1.5,2.5-3c0-0.7,0.2-1.4,0.2-2.1c0.1-1.5,0.2-3.1,0.3-4.6
		c0.9,0,1.8,0.1,2.7,0.1c-0.1,1.8-0.2,3.6-0.3,5.4c-0.2,2.5,0.4,4.4,2.3,6.1c3.4,3,6.6,6.2,10.1,9.2
		C-1072.2,320.7-1068.1,323.5-1063.6,325.7z"/>
	<path id="XMLID_164_" class="st8" d="M-861.5,326.1c-2.3,0-4.6,0-7,0c-8.9,0-17.9,0.1-26.9,0.1c-15.7,0.1-31.3,0.1-47,0.1h-4.2
		c0,0,0,0,0,0c-5.4,0-10.8,0-16.2,0h-6.5c1.3-0.5,2.5-1,3.8-1.6c4.8-2.1,9.4-4.8,13.6-7.8c3.9-2.7,7.4-5.9,10.4-9.6
		c1.4-1.7,2.1-3.5,1.9-5.7c-0.1-0.9-0.1-1.8-0.2-2.7c0.9,0,1.8,0,2.7,0c0,0.9,0.1,1.7,0.1,2.6c0.1,1.4,0.8,2.3,2.2,2.6
		c0.3,0.1,0.7,0.2,1,0.2c9.9,0.5,19.2,3.8,28.6,6.4C-890.2,314.9-875.8,320.3-861.5,326.1C-861.5,326.1-861.5,326.1-861.5,326.1z"/>
	<path id="XMLID_24_" class="st5" d="M-1555.5,42.5c2.4,12.7,0.1,24.3-7.2,35c-2.7,3.9-5.4,7.8-8.9,11c-0.2,0.2-0.4,0.4-0.6,0.5
		c-2.1-7.7-6.1-16.1-13.5-20.8c-6.1-3.9-17.1-6.9-18.7-7.3c-3.5-1-6.7-1.6-9.4-2c-0.8-7.7-1.5-15.4-2.2-23.1
		c-0.4-4-1.5-7.4-4.7-10.1c-2-1.7-3.7-3.7-5.5-5.6c-3.1-3.2-6.5-5.8-10.4-8c-9.1-5.1-18.8-8.5-29.1-10.1c-2.8-0.4-5.5-0.7-8.4-0.4
		c-9.5,0.9-18.5,3.6-27.1,7.7c-6.2,2.9-12.3,5.9-18.5,8.8c-9.2,4.3-18.8,6.3-28.9,6.7c-6.8,0.3-13.7,0.1-20.4-0.9
		c-10.9-1.6-20.4-6.1-27.2-15.2c-0.8-1.1-1.6-2.3-2.5-3.4c-0.2-0.3-0.6-0.5-0.9-0.4c-0.3,0.1-0.6,0.4-0.7,0.7
		c-0.2,0.7-0.3,1.4-0.4,2c-0.8,6.2-1.6,12.5-2.4,18.7c-1.4,11.1-3.1,22.2-4,33.3c-0.1,0.9-0.1,1.6-0.2,2.2
		c-2.8-0.1-6.6-0.2-11.2,0.3c-4.4,0.5-7.8,1.2-10.3,1.9c0-0.2-0.1-0.3-0.1-0.5c-2.2-7.8-5.9-15-10-21.9c-3.1-5.1-6.4-10.1-8.8-15.5
		c-1.9-4.5-3.5-9.1-4.2-14c-1.2-8.6,0.9-16,7.7-21.7c0.3-0.2,0.5-0.5,0.8-0.7c6.1-4,8.2-10.1,8.7-17.1c0.4-5.3,0.3-10.5,0.1-15.8
		c-0.2-5.2-0.3-10.5,0.2-15.7c0.9-9.8,3.7-18.9,10.2-26.5c7.8-9.2,17.5-14.3,29.8-13.9c2.9,0.1,5.5,1,8.2,1.8
		c3.7,1.2,7.4,2.1,11.2,2.9c6.6,1.4,12.9,0.7,19-2c7.6-3.2,14.8-7.2,21.7-11.6c2.8-1.8,5.6-3.7,8.4-5.4c5.3-3.2,10.9-5.5,17-6.8
		c13.7-2.9,28.8,2.2,37.9,12.9c2.8,3.3,5.1,7.1,7.4,10.8c2.7,4.3,5.7,8.4,9.2,12.1c4.7,5,10.3,8.3,17.3,9.1
		c5.4,0.6,10.8,0.9,16.2-0.1c6.4-1.1,12.8-1.9,19.3-1.6c8,0.4,15.6,2,22.9,5.2c7.3,3.2,13,8.2,17.1,15c3.6,6,6.2,12.5,7.5,19.5
		c1.1,5.8,0.3,11.5-1.2,17.1c-1,3.6-2.3,7-3.8,10.3c-1.2,2.7-2.5,5.4-3.6,8.2c-1.9,5-2.1,10.2-1,15.5c1,4.8,2.7,9.4,4.2,14.1
		C-1557.9,32.7-1556.5,37.5-1555.5,42.5z"/>
	<path id="XMLID_11_" class="st5" d="M-230,89.1c-2.1-7.7-6.1-16.1-13.5-20.8c-6.1-3.9-17.1-6.9-18.7-7.3c-3.5-1-6.7-1.6-9.4-2
		c0,0.3,0.1,0.6,0.1,0.9c0.1,1,0.1,2.1,0.4,3.1c0.3,1.3,1.2,2.1,2.6,2.1c3.3-0.1,6.7,0.2,9.9,1.1c11.6,3.2,20.1,9.9,23.8,21.6
		c2.9,9.3,1.1,18-4.7,25.8c-5.9,7.8-14,12-23.6,13.3c-1.3,0.2-2.8,0.2-4.1,0.5c-1.7,0.4-2.3,1.2-2.2,3c0.1,3,0.3,6,0.4,8.9
		c0.7,17-1.3,33.6-8,49.3c-4.3,10.1-9.8,18.8-16.7,26.1c-9.1,9.7-20.3,16.8-33.7,21.6c10.9-3.8,21.8-8.9,32.5-15.3
		c0.4-1.1,1-2.1,2-3.1c0.2-0.2,0.4-0.4,0.6-0.6c7.7-7.9,13.6-17.1,17.8-27.3c5.2-12.4,7.7-25.4,8.3-38.8c0.3-6.3,0.4-12.6-0.4-18.9
		c-0.2-1.7,0.1-2,1.9-2.4c1.4-0.3,2.7-0.5,4.1-0.7c5.1-0.8,9.8-2.6,14.1-5.5c11.1-7.6,17-17.8,15.5-31.6
		C-231.2,90.8-230.8,89.9-230,89.1z M-363.4,242.4c-7.9,0-15.7,0.1-23.6-0.9c-21.3-2.8-40.2-10.8-55.2-26.5
		c-10.8-11.3-17.6-24.7-21.5-39.7c-0.3-1.2-0.6-2.5-0.9-3.7c-2-9.1-2.8-18.4-2.8-28.8c0.2-3.1,0.4-7.5,0.6-11.9
		c0.1-2.6-0.6-3.5-3.1-3.9c-2.8-0.3-5.6-0.5-8.3-1.3c-11.3-3.3-19.6-10-23.2-21.5c-3.1-9.7-1.1-18.8,5.3-26.6
		c6.6-8.1,15.3-12,25.6-12.5c4-0.2,5-0.4,5.4-3.2c-2.8-0.1-6.6-0.2-11.2,0.3c-4.4,0.5-7.8,1.2-10.3,1.9c0.5,1.7,0.3,1.9-1.3,2.9
		c-1.3,0.9-2.7,1.6-4,2.6c-15.1,11.2-18.6,31.1-6.7,46.3c4.7,6,10.8,10,18,12.1c2.8,0.8,5.8,1.3,8.7,1.9c2.2,0.4,2.3,0.6,2.1,2.7
		c-1.1,11.6-0.6,23.1,1.3,34.5c1.3,7.5,3.2,14.6,5.9,21.4c4.3,10.9,10.6,20.8,19.2,29.6c1,1,1.6,2,1.9,3.2c0.4,0.4,0.7,0.7,1.1,1
		c25.7,23.3,67.1,28.9,109.3,15.2c-0.8,0.3-1.6,0.5-2.5,0.8C-343.1,241.1-353.2,242.4-363.4,242.4z"/>
	<path id="XMLID_135_" class="st5" d="M-739.3,466.4c-0.8-2.5-1.6-4.9-2.4-7.3c-1.6-4.5-3.4-8.9-5.3-13.3c-2.2-5.1-4.6-10.1-7.1-15
		c-4.5-8.9-9.4-17.4-14.9-25.6c-6.5-9.8-13.6-19-21.6-27.7c-6.3-6.9-13.1-13.4-20.4-19.6c-2.8-2.3-5.6-4.6-8.4-6.8
		c-12.9-10-26.7-18.6-42-24.8c0,0,0,0-0.1,0c-14.3-5.8-28.7-11.3-43.5-15.3c-9.4-2.6-18.7-5.8-28.6-6.4c-0.3,0-0.7-0.1-1-0.2
		c-1.4-0.3-2.1-1.2-2.2-2.6c0-0.8-0.1-1.7-0.1-2.6v0c-0.5-8.7-0.9-17.5-1.5-26.2c-0.9-12.9-1.7-25.8-2.7-38.7
		c-0.1-1.3,0-2.4,0.4-3.4c-10.7,6.4-21.6,11.5-32.5,15.3c-0.4,0.1-0.8,0.3-1.1,0.4c-0.8,0.3-1.5,0.5-2.3,0.8
		c-42.2,13.7-83.6,8.1-109.3-15.2c-0.3-0.3-0.7-0.6-1.1-1c0.3,0.9,0.3,1.8,0.3,2.9c-0.3,4.2-0.6,8.4-0.9,12.6
		c-0.6,9.4-1.3,18.8-1.9,28.3c-0.4,7.4-0.8,14.7-1.2,22.1c-0.1,1.5-0.2,3.1-0.3,4.6c-0.1,0.7-0.2,1.4-0.2,2.1
		c-0.1,1.6-0.9,2.5-2.5,3c-2.2,0.6-4.3,1.4-6.5,2c-12.9,3.9-25.8,7.8-38.7,11.7c-2.9,0.8-5.7,1.8-8.5,2.8c-8.7,3.1-17,7.1-25.1,11.8
		c-6.1,3.5-12,7.1-18.2,10.6c-2.9,1.6-5.7,3.3-8.4,5.1c-8.7,5.6-16.9,12-24.6,19c-3.8,3.4-7.3,7-10.5,10.8
		c-5.2,6.2-9.7,13-13.2,20.4c-1.2,2.5-2.3,5-3.4,7.5c-4.1,9.3-7.6,18.8-10.7,28.5c-1.6,4.9-3,9.8-4.4,14.8c-1.4,5-2.3,10.1-2.6,15.3
		c-0.1,1.5-0.1,2.9,0,4.4c0.1,1.5,0.2,2.7,0.3,3.5c0.5,2.2,1.9,2.6,5.7,2.6h1.6c9,0,18,0,27,0c33.8,0,67.5,0.1,101.2,0.1h387.2
		c1.9,0,3.8,0,5.8-0.1c1.2-0.1,1.8-0.8,1.8-2C-737.9,472.1-738.5,469.2-739.3,466.4z M-1088.5,302.2c0.1-1.8,0.3-3.6,0.3-5.4
		c0.4-5.9,0.8-11.8,1.1-17.6c0.5-8,1.1-16.1,1.6-24.1c0.4-6.3,0.8-12.6,1.1-18.9c0-0.5,0.2-1.2,0.5-1.4c0.7-0.5,1.3,0.1,1.8,0.6
		c4.1,3.9,8.9,6.8,13.5,10c14.6,10.2,30.8,17.1,47.8,22.4c11.5,3.6,23.2,6.6,35.2,8.2c11.8,1.6,23.7,2.5,35.6,2.2
		c2.3-0.1,4.5-0.5,6.8-0.7c1.3-0.1,2,0.4,2.2,1.6c0.1,0.5,0.2,1,0.2,1.5c0.3,6.1,0.7,12.1,1.1,18.2c0.1,0.9,0.1,1.8,0.2,2.7
		c0.2,2.2-0.5,4-1.9,5.7c-3,3.7-6.5,6.9-10.4,9.6c-4.3,3-8.8,5.7-13.6,7.8c-1.2,0.5-2.5,1.1-3.8,1.6c-11.2,4.6-22.8,8.1-34.9,9.5
		c-4,0.4-8,0.4-12,0.6c-15.5,0-30.2-3.5-44.3-9.4c-1-0.4-2.1-0.9-3-1.4c-4.5-2.2-8.6-5-12.5-8.3c-3.5-2.9-6.7-6.2-10.1-9.2
		C-1088.1,306.6-1088.7,304.7-1088.5,302.2z M-741.5,472.7c-0.5,1.3-1.1,2-2.6,2c-1.6-0.1-3.1,0-4.7,0h-443.8
		c-22.4,0-44.8,0.1-67.3,0.1c-4.8,0-6.3,1.3-5.9-6.1c0-0.7,0.1-1.5,0.2-2.1c0.5-6.4,1.8-12.7,3.7-18.9c1.1-3.7,2.2-7.4,3.5-11.1
		c3.2-9.6,6.8-19.1,10.7-28.5c0.3-0.6,0.5-1.2,0.8-1.8c4.2-9.7,9.8-18.3,16.6-26.1c3.5-4,7.4-7.8,11.5-11.4
		c7.9-6.8,16.2-13,25.1-18.4c1.7-1.1,3.5-2.1,5.3-3.1c7.9-4.5,15.7-9.1,23.7-13.6c7.2-4,14.8-7.2,22.7-9.7c0.7-0.2,1.4-0.4,2-0.6
		c15.4-4.8,30.7-9.4,46.1-14.1c0.8-0.3,1.7-0.3,2.6-0.6c1-0.3,1.7,0,2.4,0.7c0.8,0.7,1.5,1.5,2.2,2.2c2.1,1.9,4.1,3.9,6.2,5.7
		c3.7,3.2,7.5,6,11.6,8.4c4.5,2.8,9.4,5,14.5,6.7c12.9,4.4,26,7,39.6,6.9c12.4-0.2,24.4-2.3,36-6.3c5.5-1.9,10.9-3.9,16.2-6.5
		c2.5-1.2,4.9-2.5,7.3-3.9c5.9-3.6,11.3-7.7,15.7-13c1.6-2,3.4-2.7,5.9-2.7c3.3,0.1,6.6,0.7,9.8,1.5c19,4.6,37.5,10.5,55.6,17.8
		c2.7,1.1,5.3,2.2,8,3.3c13.1,5.6,25.1,12.9,36.3,21.4c2.4,1.8,4.9,3.7,7.2,5.6c8.1,6.6,15.6,13.6,22.5,21
		c8.2,8.7,15.5,18,22.1,27.7c5.6,8.2,10.6,16.8,15.1,25.7c4.7,9.1,8.8,18.6,12.5,28.3c0.5,1.3,1,2.6,1.5,4c0.7,2,1.2,4,1.8,6
		C-741.1,470.4-741,471.5-741.5,472.7z"/>
	<path id="XMLID_27_" class="st6" d="M-234.9,87.7c-3.7-11.7-12.2-18.4-23.8-21.6c-3.2-0.9-6.5-1.2-9.9-1.1
		c-1.4,0.1-2.3-0.8-2.6-2.1c-0.2-1-0.3-2.1-0.4-3.1c0-0.3-0.1-0.6-0.1-0.9c-0.8-7.7-1.5-15.4-2.2-23.1c-0.4-4-1.5-7.4-4.7-10.1
		c-2-1.7-3.7-3.7-5.5-5.6c-3.1-3.1-6.5-5.8-10.4-8C-303.6,7-313.2,3.6-323.5,2c-2.8-0.4-5.5-0.7-8.4-0.4c-9.5,0.9-18.5,3.6-27.1,7.7
		c-6.2,2.9-12.3,5.9-18.5,8.8c-9.2,4.3-18.8,6.3-28.9,6.7c-6.8,0.3-13.7,0.1-20.4-0.9c-10.9-1.6-20.4-6.1-27.2-15.2
		c-0.8-1.1-1.6-2.3-2.5-3.4c-0.2-0.3-0.6-0.5-0.9-0.4c-0.3,0.1-0.6,0.4-0.7,0.7c-0.2,0.7-0.3,1.4-0.4,2.1
		c-0.8,6.2-1.6,12.5-2.4,18.7c-1.4,11.1-3.1,22.2-4,33.3c-0.1,0.9-0.1,1.6-0.2,2.2c-0.4,2.7-1.4,2.9-5.4,3.2
		c-10.3,0.5-19,4.4-25.6,12.5c-6.4,7.9-8.4,16.9-5.3,26.6c3.6,11.5,11.9,18.2,23.2,21.5c2.7,0.8,5.5,1,8.3,1.3
		c2.6,0.4,3.2,1.3,3.1,3.9c-0.2,4.4-0.4,8.7-0.6,11.8c0,11.8,1,22.2,3.7,32.5c3.9,15,10.6,28.5,21.5,39.7
		c15.1,15.7,33.9,23.6,55.2,26.5c7.9,1,15.7,1,23.6,0.9c10.2,0,20.3-1.4,30-4.2c26.5-7.7,45.5-24,56.3-49.6
		c6.6-15.8,8.6-32.3,8-49.3c-0.1-3-0.4-5.9-0.4-8.9c-0.1-1.8,0.6-2.7,2.2-3c1.4-0.3,2.8-0.3,4.1-0.5c9.6-1.4,17.7-5.5,23.6-13.3
		C-233.7,105.7-231.9,97-234.9,87.7z M-474,80.7c-1.1,0.4-2.3,0.7-3.5,1.2c-4.4,1.8-7.5,5-9.2,9.5c-2.3,6-0.6,11.8,4.4,16
		c1,0.8,2.8,1.1,2.4,3c-0.3,1.2-2.1,0.8-4.4-1.1c-4.1-3.3-6.1-7.5-6-13.5c0-7.5,5.7-15,13.5-17.1c0.7-0.2,1.4-0.3,2.1-0.3
		c0.7-0.1,1.5,0.1,1.7,0.8C-472.8,79.8-473.3,80.5-474,80.7z M-332.8,32.5c0.2-2.2,1.1-3.1,3.3-3.4c1.9-0.2,3.8-0.1,5.7,0.4
		c10.8,2.5,21.2,6,31.3,10.5c1.6,0.7,3.2,1.5,4.4,2.8c0.8,0.9,0.8,2,0,2.8c-0.1,0.1-0.3,0.2-0.4,0.3c-1.5,1-3.2,1.3-5,1.3
		c-3.8,0-7.7-0.1-11.5-0.1c-1.6,0-3.1,0-4.7,0v0.1c-5.1,0-10.1,0.1-15.2,0c-4.8-0.1-6.3-1.3-7.1-5.9c-0.1-0.8-0.3-1.5-0.4-2.3
		C-332.8,36.9-333,34.7-332.8,32.5z M-442.4,46.5c0.4-0.3,0.9-0.5,1.4-0.7c9.4-4.2,18.9-8.1,28.8-11c5.8-1.7,6.2-1,6.2,4.4
		c0,2.8,0.2,5.6,0.1,8.4c-0.1,2.2-1.3,3.6-3.4,4.1c-1.5,0.3-3.1,0.7-4.6,0.7c-4.5,0.1-9.1,0-13.6,0v0.1c-4.5,0-9.1,0.1-13.6,0
		c-1.9,0-4.6,0.4-5.1-1.7C-446.9,48.3-444.1,47.6-442.4,46.5z M-387.8,176.8c-0.5,0.2-1,0.3-1.5,0.2c-5.1-1.3-9.8-3.3-14.1-6.5
		c-1.8-1.4-3.3-3.1-3.7-5.5c-0.1-0.4,0.3-1.1,0.6-1.3c0.4-0.1,1.2,0.1,1.4,0.4c2.7,5.3,7.7,7.2,12.8,9.1c1.5,0.6,3,1,4.4,1.5
		c0.5,0.2,0.8,0.6,0.7,1.2C-387.4,176.3-387.6,176.7-387.8,176.8z M-371.6,175.5c-0.2,0-0.3,0-1.4-0.1c-6.3-0.8-13.2-2.5-19.4-6.3
		c-2.6-1.6-4.8-3.5-6.6-5.9c-2.5-3.1-4.8-6.4-6.6-10c-1-1.8-1.9-3.8-1.4-6c0.1-0.3,0.4-0.6,0.7-0.7c0.3-0.1,0.8,0.1,0.9,0.3
		c0.3,0.4,0.6,0.9,0.7,1.4c1.6,5.9,5.2,10.7,9.2,15c4.8,5.2,11.3,7.3,18.1,8.8c2.1,0.4,4.1,0.7,6.2,1.2c0.7,0.1,1.4,0.5,1.3,1.4
		C-370.1,175.5-370.9,175.5-371.6,175.5z M-358.2,137.6c-1,0.3-2,0.7-3,0.8c-1.9,0.2-3.8,0.2-5.5,0.3c-3.4-0.2-6.6,0.3-9.3-1.8
		c-0.4-0.3-0.6-0.9-0.3-1.3c0.2-0.3,0.6-0.4,0.9-0.5c0.5,0,1.1,0,1.6,0.2c3,1.1,6.2,0.9,9.3,0.9c2.3-0.1,4.5-0.6,6.6-1.5
		c2.3-1,3.7-2.7,3.4-5.3c-0.2-1.7-0.4-3.5-0.8-5.2c-2.4-9.5-4.9-18.9-7.2-28.4c-0.9-3.5-1.8-7.1-1.5-10.8c0-0.3,0.4-0.8,0.6-0.7
		c0.5,0.1,1.1,0.2,1.3,0.6c0.3,0.6,0.4,1.3,0.5,2c0.5,2.6,0.8,5.2,1.4,7.7c2,8.1,4.1,16.2,6.2,24.3c0.8,3.2,1.8,6.4,1.9,9.7
		C-351.8,133.7-353.3,135.9-358.2,137.6z M-292.5,124c-11.2,0-20.3-6.6-20.3-14.8c0-4.8,3.1-9,8-11.8c-3.3,0.1-6.6,0.2-9.9,0.3
		c-9.4,0.3-18.9,0.2-28.3-0.1c-1.2,0-2.5,0-3.6-0.3c-4.2-0.7-6.2-2.5-6.9-6.7c-0.8-4.5-1.3-9-1.9-13.5c-0.4-2.7-0.4-2.9-3.1-3.2
		c-4.8-0.6-9.7-1-14.6-1.4c-2.7-0.2-5.2,0.6-7.7,1.3c-1.1,0.3-1.8,1.1-1.7,2.3c0.2,3.7,0.3,7.3,0.5,11c0.1,1.8,0.2,3.5-0.2,5.2
		c-0.7,3.6-1.9,4.8-5.5,5.2c-5.7,0.7-11.5,1.4-17.3,0.9c-6-0.4-12-0.6-17.9-0.8c4.6,2.7,7.5,6.8,7.5,11.5c0,8.2-9.1,14.8-20.3,14.8
		c-11.2,0-20.3-6.6-20.3-14.8c0-5.3,3.9-10,9.7-12.6c-0.1,0-0.3,0-0.4-0.1c-1.4-0.1-2.3-0.8-3.1-1.8c-1.1-1.6-2-3.3-2.3-5.2
		c-0.5-2.9-1-5.8-1-8.8c-0.1-5.5-0.3-10.8-0.5-16.3c0-0.5,0-1.1,0-1.6c0-0.2,0-0.4,0-0.5c0.2-2.8,1.2-3.9,4-4.8
		c1.3-0.4,2.7-0.7,4.1-0.8c11.4-0.4,22.8-1.7,34.3-2.1c3.1-0.1,6.1-0.2,9.2-0.1c5.1,0.1,10.2,0.2,15.2,0.5c2.8,0.2,3.2,0.7,3.4,3.6
		c0.3,3.7,0.5,7.3,0.8,11c0.1,1.1,0.7,1.6,1.7,1.3c6.4-1.8,12.8-1,19.3-0.1c6.1,0.8,6.3,0.6,5.6-5.5c-0.3-2.3-0.5-4.5-0.4-6.8
		c0-3.3,1-4.5,4.2-5c4.6-0.7,9.3-1.5,14.1-1.4c3.7,0.1,7.4,0,11,0h10.5c8.6,0.6,17.2,0.2,25.7,1c0.9,0.1,1.8,0.1,2.6,0.2
		c3.2,0.7,4.5,2,4.8,5.2c1,10.5,0.8,21-0.1,31.4c-0.1,0.7-0.2,1.4-0.3,2.1c-0.3,1.3-0.9,2.3-1.9,3c8.1,1.9,13.9,7.5,13.9,14
		C-272.1,117.4-281.2,124-292.5,124z M-253.5,110.4c-0.6,0.4-1.3,0.5-1.9,0.6c-0.3,0-0.7-0.3-0.8-0.5c-0.2-0.3-0.2-0.7-0.1-0.9
		c0.4-0.6,0.8-1.2,1.4-1.5c9.7-5.9,8.1-20.9-3.7-26.1c-1.4-0.6-2.9-1.1-4.3-1.7c-0.2-0.1-0.3-0.6-0.2-0.9s0.3-0.7,0.5-0.8
		c1-0.5,2.1-0.1,3.1,0.1c7.9,2.1,13.6,9.6,13.7,15.6C-245.8,102.5-248.4,107.1-253.5,110.4z"/>
	<path id="XMLID_128_" class="st6" d="M-941.5,307.5c-3,3.7-6.5,6.9-10.4,9.6c-4.3,3-8.8,5.7-13.6,7.8c-1.2,0.5-2.5,1.1-3.8,1.6
		c-11.2,4.6-22.8,8.1-34.9,9.5c-4,0.4-8,0.4-12,0.6c-15.5,0-30.2-3.5-44.3-9.4c-1-0.4-2.1-0.9-3-1.4c-4.5-2.2-8.6-5-12.5-8.3
		c-3.5-2.9-6.7-6.2-10.1-9.2c-1.9-1.6-2.5-3.6-2.3-6.1c0.1-1.8,0.3-3.6,0.3-5.4c0.4-5.9,0.8-11.8,1.1-17.6c0.5-8,1.1-16.1,1.6-24.1
		c0.4-6.3,0.8-12.6,1.1-18.9c0-0.5,0.2-1.2,0.5-1.4c0.7-0.5,1.3,0.1,1.8,0.6c4.1,3.9,8.9,6.8,13.5,10c14.6,10.2,30.8,17.1,47.8,22.4
		c11.5,3.6,23.2,6.6,35.2,8.2c11.8,1.6,23.7,2.5,35.6,2.2c2.3-0.1,4.5-0.5,6.8-0.7c1.3-0.1,2,0.4,2.2,1.6c0.1,0.5,0.2,1,0.2,1.5
		c0.3,6.1,0.7,12.1,1.1,18.2c0.1,0.9,0.1,1.8,0.2,2.7C-939.4,304-940,305.7-941.5,307.5z"/>
	<path id="XMLID_127_" class="st6" d="M-744.8,459.2c-16.4,0.7-32.9,1.3-49.4,1.2c-14.5-0.1-29,0.7-43.6,0.5
		c-9.5-0.1-18.9,0.3-28.4,0.2c-18.5-0.3-37.1-0.2-55.6-0.2c-11,0-22.1,0-33.1-0.1c-17.5-0.2-35-0.5-52.5-0.6
		c-9.6-0.1-19.3,0-28.9,0.2c-16.5,0.2-32.9,0.4-49.4,0.7c-35.7,0.7-71.4,2.9-116.4,3.1c-15.2,0.6-39.3,1.5-63.6,2.5
		c0.5-6.4,1.8-12.7,3.7-18.9c1.1-3.7,2.2-7.4,3.5-11.1c5.9-0.2,11.7-0.3,17.6-0.4c30.3-0.6,60.6-1.9,90.8-2.4
		c31.2-0.5,62.3-1.2,93.5-1.4c20.8-0.2,41.6-0.4,62.5-0.3c15.4,0,30.8,0.1,46.2,0.3c17.5,0.3,35,0.2,52.5,0.2
		c20.1-0.1,40.3-0.3,60.4-0.4c11.4-0.1,22.8,0,34.1-0.1c14.5-0.1,29-0.5,43.5-1.1C-752.6,440-748.4,449.4-744.8,459.2z"/>
	<path id="XMLID_126_" class="st6" d="M-772.3,405.2c-12.2,0.2-24.4,0.2-36.6,0c-16.3-0.3-32.6-0.2-48.8-0.3
		c-14.9-0.1-29.8-0.3-44.6-0.3c-19.8-0.1-39.6-0.4-59.3-0.9c-15.2-0.3-30.4-0.3-45.7-0.3c-21.7,0.1-43.4,0.2-65.1,0.4
		c-14.5,0.1-29.1,0.3-43.6,0.6c-20.5,0.4-41,0.7-61.4,1.3c-23.4,0.7-46.8,1.5-70.2,2.2c0.3-0.6,0.5-1.2,0.8-1.8
		c4.2-9.7,9.8-18.3,16.6-26.1c4.8-0.2,9.6-0.4,14.4-0.6c22.8-0.9,45.5-1.2,68.3-1.6c27.1-0.5,54.3-1.5,81.4-1.7
		c7.4-0.1,14.7-0.3,22.1-0.2c18.4,0.2,36.8,0.2,55.1,0.2c15.9,0.1,31.9,0.3,47.8,0.1c16.1-0.1,32.2,0,48.3,0.3
		c13.1,0.3,26.3,0.5,39.4,0.5c19.7,0,39.5,0.8,59.2,0.3C-786.2,386.1-778.9,395.4-772.3,405.2z"/>
	<path id="XMLID_125_" class="st6" d="M-824.1,350.9c-10.3-0.3-20.7-0.6-31-0.8c-8.6-0.2-17.2-0.2-25.7-0.5c-17.7-0.5-35.3-1.1-53-1
		c-8.2,0-16.5-0.1-24.7-0.2c-15.1-0.3-30.1-0.7-45.2-0.8c-9-0.1-17.9-0.1-26.9-0.1h-0.1c-4.3-0.8-8.5-1.8-12.7-3
		c-9.1-2.7-18.1-5.3-26.4-10.1c-4.5-2.6-8.7-5.6-12.6-8.9c4.4,0.1,8.9,0.2,13.3,0.3c4.5,2.8,9.4,5,14.5,6.7c12.9,4.4,26,7,39.6,6.9
		c12.4-0.2,24.4-2.3,36-6.3c5.5-1.9,10.9-3.9,16.2-6.5c5.4,0,10.8,0,16.2,0c0,0,0,0,0,0h0.1c-5.7,4.6-12,8.5-18.8,11.6
		c-4.8,2.2-9.6,4.2-14.7,5.7c-1.2,0.3-2.3,0.8-3.4,1.3c-0.5,0.2-0.8,0.8-0.5,1.3c0.2,0.4,0.8,0.7,1.2,0.7c1-0.1,2.1-0.4,3.1-0.7
		c13.8-4.2,26.2-10.8,37.2-20c15.7,0,31.3,0,47-0.1c8.9,0,17.9-0.1,26.9-0.1c2.7,1.1,5.3,2.2,8,3.3
		C-847.3,335.1-835.4,342.4-824.1,350.9z"/>
	<path id="XMLID_124_" class="st6" d="M-1042.2,347.4L-1042.2,347.4c-4.9,0-9.7,0.1-14.6,0.1c-18.6,0.2-37.1,0.5-55.7,1
		c-11,0.3-22,0.8-29.5,1.1c-10.9,0-18.3,0-25.6,0.1c-8.7,0.1-17.5,0.3-26.2,0.6c1.7-1.1,3.5-2.1,5.3-3.1c7.9-4.5,15.7-9.1,23.7-13.6
		c7.2-4,14.8-7.2,22.7-9.7c0.7-0.2,1.4-0.4,2-0.6c11.8,0.5,23.5,1.1,35.2,1.5c6.1,0.2,12.1,0.3,18.2,0.4c0,0,0,0,0,0
		c0.1,0.1,0.2,0.2,0.3,0.3c9,8,19.2,14.1,30.6,17.9c3.3,1.1,6.7,2.1,10.1,3C-1044.5,346.8-1043.3,347.1-1042.2,347.4z"/>
	<path id="XMLID_120_" class="st5" d="M-998.5,350.6c0,0.1-0.2,0.3-0.3,0.4c-0.6,0.7-1.5,0.8-2.4,0.9c-3.2,0-6.3,0-9.5,0
		c-10.8,0.2-21.2-1.8-31.5-4.5c-1.2-0.3-2.4-0.6-3.6-1c-3.4-0.9-6.7-1.9-10.1-3c-11.5-3.8-21.6-9.9-30.6-17.9
		c-0.1-0.1-0.2-0.2-0.3-0.3c0,0,0,0,0,0c-2.1-1.9-4.2-3.8-6.3-5.8c-0.6-0.6-1.2-1.4-0.2-2.2c0.6-0.5,1.3-0.3,1.9,0.2
		c1.4,1.3,2.9,2.6,4.3,3.9c1.5,1.4,3,2.7,4.6,4c4,3.3,8.2,6.3,12.6,8.9c8.3,4.8,17.3,7.5,26.4,10.1c4.2,1.2,8.5,2.2,12.7,3
		c6.9,1.3,13.8,2,20.9,2.3c2.6,0.1,5.2-0.2,7.9-0.3c1-0.1,2.1-0.3,3,0.4C-998.7,349.9-998.6,350.3-998.5,350.6z"/>
	<path id="XMLID_119_" class="st5" d="M-931.9,316c-1.4,2.3-3.4,4-5.3,5.8c-1.7,1.6-3.4,3.1-5.1,4.6c-10.9,9.2-23.3,15.8-37.2,20
		c-1,0.3-2,0.6-3.1,0.7c-0.4,0-1-0.3-1.2-0.7c-0.3-0.5,0-1.1,0.5-1.3c1.1-0.5,2.2-1,3.4-1.3c5-1.5,9.9-3.5,14.7-5.7
		c6.8-3.1,13.1-7,18.8-11.6c4.6-3.7,8.8-7.8,12.8-12.2c0.3-0.4,0.8-0.8,1.2-0.9c0.5-0.1,0.9,0.4,1.1,0.8
		C-931.1,314.9-931.5,315.5-931.9,316z"/>
	<path id="XMLID_8_" class="st5" d="M909.1-225.4c-0.3-3.2-1.6-4.6-4.8-5.2c-0.8-0.2-1.8-0.1-2.6-0.2c-8.6-0.9-17.1-0.4-25.7-1
		h-10.5c-3.7,0-7.3,0.1-11,0c-4.8-0.1-9.4,0.7-14.1,1.4c-3.2,0.5-4.1,1.7-4.2,5c0,2.3,0.2,4.5,0.4,6.8c0.7,6,0.5,6.3-5.6,5.5
		c-6.4-0.9-12.9-1.7-19.3,0.1c-1,0.3-1.7-0.3-1.7-1.3c-0.3-3.7-0.6-7.3-0.8-11c-0.2-2.9-0.6-3.4-3.4-3.6c-5.1-0.3-10.1-0.4-15.2-0.5
		c-14.5-0.3-29,1.7-43.5,2.1c-1.4,0.1-2.8,0.4-4.1,0.8c-3,0.9-3.9,2.1-4.1,5.3c0,0.5,0,1,0,1.6c0.2,5.4,0.4,10.8,0.5,16.3
		c0,3,0.5,5.9,1,8.8c0.3,2,1.2,3.7,2.3,5.2c0.7,1,1.7,1.7,3.1,1.8c0.2,0,0.3,0,0.4,0c3.2,0.3,6.3,0.9,9.5,1c4.7,0,9.4,0.1,14,0.2
		c6,0.1,12,0.3,17.9,0.8c5.7,0.4,11.5-0.3,17.3-0.9c3.6-0.4,4.8-1.6,5.5-5.2c0.3-1.7,0.3-3.5,0.2-5.2c-0.2-3.7-0.3-7.4-0.5-11
		c-0.1-1.3,0.6-2,1.7-2.3c2.5-0.7,5-1.6,7.7-1.3c4.9,0.4,9.8,0.8,14.6,1.4c2.7,0.3,2.7,0.5,3.1,3.2c0.6,4.5,1.1,9,1.9,13.5
		c0.7,4.2,2.7,6,6.9,6.7c1.2,0.2,2.4,0.2,3.6,0.3c9.4,0.3,18.9,0.5,28.3,0.1c3.3-0.1,6.6-0.2,9.9-0.3c4.2-0.1,8.5-0.4,12.7-1
		c1.6-0.3,3.1-0.5,4.6-0.7c0.6-0.1,1.1-0.3,1.5-0.5c1-0.6,1.6-1.7,1.9-3c0.2-0.7,0.2-1.4,0.3-2.1
		C909.9-204.5,910.1-214.9,909.1-225.4z M807.8-192.7c-0.1,2.4-0.7,3.1-3,3.6c-1.4,0.3-2.8,0.3-4.2,0.4c-7,0.6-14,0.6-21-0.1
		c-5.4,0-10.8-0.2-16.2,0c-0.2,0-0.4,0-0.6,0c-3.2,0.1-6.4-0.3-9.5-0.6c-2-0.2-4.1-0.4-6.1-0.5c-1.4,0-2.3-0.8-2.9-1.9
		c-0.9-1.5-1.4-3.2-1.6-4.9c-0.4-4-0.9-8-0.8-12c0.1-3.7-0.2-7.3-0.3-11c0-3.5,0.6-4.3,4.2-4.6c5.5-0.5,11.2-0.7,16.7-1.2
		c13.1-1.3,26.2-1.3,39.3-0.8c0.9,0,1.8,0,2.6,0.1c1.7,0.1,2.1,0.4,2.2,2.2c0.4,6.8,0.8,13.6,1.1,20.4
		C807.9-200.1,807.9-196.4,807.8-192.7z M906.5-196.8c0,1.2-0.1,2.5-0.3,3.7c-0.2,1.4-1,2.2-2.4,2.3c-2.3,0.3-4.5,0.7-6.8,0.9
		c-8,0.5-16.1,0.9-24.1,1.3c0-0.1,0-0.1,0-0.2h-19.9c-2.5,0-4.9-0.3-7.3-0.8c-2.4-0.5-3.7-1.9-4.1-4.2c-0.4-2.2-0.9-4.5-1-6.7
		c-0.5-5.7-0.9-11.5-1.4-17.2c-0.2-2.3-0.5-4.5-0.6-6.8c-0.1-2.1,0.4-2.9,2.5-3.3c6.2-1.2,12.4-1.8,18.7-1.7
		c9.4,0.2,18.8,0.5,28.3,0.8c3,0.1,5.9,0.1,8.9,0.2c1.4,0,2.8,0,4.2,0.2c5.2,0.9,4.9,0.8,5.3,5.9
		C907.2-213.9,906.8-205.3,906.5-196.8z"/>
	<path id="XMLID_209_" class="st5" d="M894.9,109c-1,0.3-2,0.7-3,0.8c-1.9,0.2-3.8,0.2-5.5,0.3c-3.4-0.2-6.6,0.3-9.3-1.8
		c-0.4-0.4-0.6-0.9-0.3-1.4c0.2-0.3,0.6-0.4,0.9-0.5c0.5,0,1.1,0,1.6,0.2c3,1.1,6.2,1,9.3,0.9c2.3-0.1,4.5-0.6,6.6-1.5
		c2.3-1,3.7-2.7,3.4-5.3c-0.2-1.7-0.4-3.5-0.8-5.1c-2.4-9.5-4.9-18.9-7.2-28.4c-0.8-3.5-1.8-7.1-1.5-10.8c0-0.3,0.4-0.8,0.6-0.7
		c0.5,0.1,1.1,0.2,1.3,0.6c0.3,0.6,0.4,1.3,0.5,2c0.5,2.6,0.8,5.2,1.4,7.7c2,8.1,4.1,16.2,6.2,24.3c0.8,3.2,1.8,6.4,1.9,9.7
		C901.3,105.1,899.8,107.3,894.9,109z"/>
	<path id="XMLID_139_" class="st5" d="M-474,80.7c-1.1,0.4-2.3,0.7-3.5,1.2c-4.4,1.8-7.5,5-9.2,9.5c-2.3,6-0.6,11.8,4.4,16
		c1,0.8,2.8,1.1,2.4,3c-0.3,1.2-2.1,0.8-4.4-1.1c-4.1-3.3-6.1-7.5-6-13.5c0-7.5,5.7-15,13.5-17.1c0.7-0.2,1.4-0.3,2.1-0.3
		c0.7-0.1,1.5,0.1,1.7,0.8C-472.8,79.8-473.3,80.5-474,80.7z"/>
	<path id="XMLID_132_" class="st5" d="M-246,94.2c0.1,8.3-2.5,12.9-7.6,16.2c-0.5,0.4-1.3,0.5-1.9,0.6c-0.3,0-0.7-0.3-0.8-0.5
		c-0.2-0.3-0.2-0.7-0.1-0.9c0.4-0.6,0.8-1.2,1.4-1.5c9.7-5.9,8.1-20.9-3.7-26.1c-1.4-0.6-2.9-1.1-4.3-1.7c-0.2-0.1-0.3-0.6-0.2-0.9
		s0.3-0.7,0.5-0.8c1-0.5,2.1-0.1,3.1,0.1C-251.7,80.7-246,88.2-246,94.2z"/>
	<g id="XMLID_208_">
		<path id="XMLID_141_" class="st5" d="M1588.7,228.7c-0.1,0.9-0.9,0.9-1.6,0.9c-0.2,0-0.3,0-1.4-0.1c-6.3-0.8-13.2-2.5-19.4-6.3
			c-2.6-1.6-4.8-3.5-6.6-5.9c-2.5-3.1-4.8-6.4-6.6-10c-1-1.9-1.9-3.8-1.4-6c0.1-0.3,0.4-0.6,0.7-0.7c0.3-0.1,0.8,0.1,0.9,0.3
			c0.3,0.4,0.6,0.9,0.7,1.4c1.6,5.9,5.2,10.7,9.2,15c4.8,5.2,11.3,7.3,18.1,8.8c2.1,0.4,4.1,0.7,6.2,1.2
			C1588.1,227.5,1588.8,227.9,1588.7,228.7z"/>
		<path id="XMLID_131_" class="st5" d="M1571.5,230.2c-0.2,0.3-0.4,0.6-0.6,0.7c-0.5,0.2-1,0.3-1.5,0.2c-5.1-1.3-9.8-3.3-14.1-6.5
			c-1.8-1.4-3.3-3.1-3.7-5.5c-0.1-0.4,0.3-1.1,0.6-1.3c0.4-0.1,1.2,0.1,1.4,0.4c2.7,5.3,7.7,7.2,12.8,9.1c1.5,0.5,3,1,4.4,1.5
			C1571.3,229.2,1571.6,229.6,1571.5,230.2z"/>
	</g>
	<g id="XMLID_224_">
		<path id="XMLID_236_" class="st5" d="M334.8,30c-1.5,1-3.2,1.3-5,1.3c-3.8,0-7.7-0.1-11.5-0.1c-1.6,0-3.1,0-4.7,0v0.1
			c-5.1,0-10.1,0.1-15.2,0c-4.8-0.1-6.3-1.3-7.1-5.9c-0.5-2.9-0.9-5.9-0.6-8.9c0.2-2.2,1.1-3.1,3.3-3.4c1.9-0.2,3.8-0.1,5.7,0.4
			c10.8,2.5,21.2,6,31.3,10.5c1.6,0.7,3.2,1.5,4.4,2.8C336.1,27.9,336,29.2,334.8,30z"/>
		<path id="XMLID_235_" class="st5" d="M217.5,31.6c-0.1,2.2-1.3,3.6-3.4,4.1c-1.5,0.3-3.1,0.7-4.6,0.7c-4.5,0.1-9.1,0-13.6,0v0.1
			c-4.5,0-9.1,0.1-13.6,0c-1.9,0-4.6,0.4-5.1-1.7c-0.6-2.4,2.2-3.1,3.9-4.3c0.4-0.3,0.9-0.5,1.4-0.7c9.4-4.2,18.9-8.1,28.8-11
			c5.8-1.7,6.2-1,6.2,4.4C217.4,26,217.6,28.8,217.5,31.6z"/>
		<path id="XMLID_230_" class="st5" d="M327.9,55.4c-2.2-5.1-6.1-8-11.3-9.4c-3.6-1-7.2-1.5-11.2-1.2c-3.6-0.4-7.4,0.3-11.2,1.1
			c-5.2,1.1-10,3-14.2,6.3c-6.7,5.3-5.6,15,1.1,19.2c2.1,1.3,4.3,2.4,6.7,3.1c10,2.7,20,2.8,29.9-0.6c2.1-0.8,4.2-1.8,6.1-3.1
			C329,66.9,330.4,61.3,327.9,55.4z M284.5,67.8c0.2,0.6,0.7,1.4-0.1,1.8c-0.3,0.2-1-0.2-1.4-0.4c-6.1-4-6.4-10.5-0.9-15.2
			c0.8-0.7,1.7-1.2,2.5-1.7c0.4,0.4,0.9,0.6,0.8,0.8c-0.2,0.8-0.5,1.6-0.8,2.5C283.3,59.6,283,63.7,284.5,67.8z M324.4,66.4
			c-0.8,0.9-1.7,1.7-2.7,2.4c-1.3,0.9-2.9,2.5-4.1,1.8c-1.5-0.9,0-2.7,0.3-4.1c1-5.4,1.1-10.7-0.8-16c-0.2-0.5-0.2-1,0.3-1.3
			c0.3-0.1,0.7,0,1,0.1c5,2.1,7.4,6.1,8,10.4C326.6,62.9,325.8,64.8,324.4,66.4z"/>
		<path id="XMLID_225_" class="st5" d="M227.6,52.6c-2.5-2-5.1-3.7-8.1-4.8c-5.8-2.1-11.8-3.3-18-3.1c-5.6,0-9.8,0.7-13.4,2.1
			c-4.6,1.8-7.5,5-9.2,9.5c-2,5.4-0.5,10.6,4,14.1c2.2,1.7,4.7,3,7.4,3.8c8.9,2.8,17.9,2.8,27,0.9c3.4-0.7,6.6-2.1,9.5-4.2
			C232.8,66.5,233.5,57.4,227.6,52.6z M180.8,60.8c0.2-5.5,3-9.4,8.7-11.7c-0.8,2.7-1.5,5-2,7.3c-0.5,2.2-0.3,4.5-0.1,6.7
			c0.2,2.4,0.9,4.7,2.2,8C184.5,68.7,180.6,66.1,180.8,60.8z M225.6,68.3c-1.5,1.1-3.1,2.2-4.9,2.6c-0.2-0.3-0.4-0.5-0.4-0.6
			c2-5.9,1.6-11.6-0.5-17.3c-0.2-0.5-0.3-1.2,0.3-1.4c0.4-0.2,1,0,1.4,0.2c1.7,0.9,3.2,2,4.7,3.3C230.5,58.8,229.4,65.4,225.6,68.3z
			"/>
	</g>
	<path id="XMLID_10_" class="st6" d="M780.7,400.4c-1.5,1.1-3.1,2.2-4.9,2.6c-0.2-0.3-0.4-0.5-0.4-0.6c2-5.9,1.6-11.6-0.5-17.3
		c-0.2-0.5-0.3-1.2,0.3-1.4c0.4-0.2,1,0,1.4,0.2c1.7,0.9,3.2,2,4.7,3.3C785.6,390.9,784.5,397.5,780.7,400.4z"/>
	<path id="XMLID_4_" class="st5" d="M689.6,503.8"/>
	<path id="XMLID_20_" class="st5" d="M-1086.5,229.3c0-0.3-0.3-3.1-0.5-6.5c-0.3-5.1-0.5-9.4-0.5-12.5c48.3,0,96.7,0,145,0
		c0.2,3.2,0.3,6.3,0.5,9.5c0.6,12.8,1.1,25.5,1.5,38c-11.6,2.3-26.7,4.4-44.5,4.5C-1044.4,262.5-1085.4,239.3-1086.5,229.3z"/>
</g>
</svg>
