<?xml version="1.0" encoding="utf-8"?>
<!-- Generator: Adobe Illustrator 19.0.0, SVG Export Plug-In . SVG Version: 6.00 Build 0)  -->
<svg version="1.1" xmlns="http://www.w3.org/2000/svg" xmlns:xlink="http://www.w3.org/1999/xlink" x="0px" y="0px"
	 viewBox="0 0 508.7 304" style="enable-background:new 0 0 508.7 304;" xml:space="preserve">
<style type="text/css">
	.st0{opacity:0.5;fill:#4DFF55;stroke:#000000;stroke-width:1.0103;stroke-miterlimit:10;}
	.st1{fill:#7099D0;}
	.st2{fill:#EBB0AE;}
	.st3{fill:#CB8481;}
	.st4{fill:#392E38;}
	.st5{fill:#DAADAC;}
	.st6{fill:#202F43;}
	.st7{fill:#FFFFFF;}
</style>
<g id="BACKGROUND">
</g>
<g id="Warstwa_3">
</g>
<g id="OBJECTS">
	<rect id="XMLID_534_" x="1025.3" y="-1355.5" class="st0" width="510" height="80"/>
	<rect id="XMLID_533_" x="1022.6" y="-1450" class="st0" width="510" height="80"/>
	<rect id="XMLID_532_" x="1025.8" y="-1485.1" class="st0" width="510" height="80"/>
	<path id="XMLID_126_" class="st1" d="M-996.8,239.5c-8.9-9.1-26.2-29.8-26-57c0.2-23,12.8-40.3,30-64c11.7-16.1,23.3-28,32-36
		c0.7,6,2.7,14.9,9,23c6.5,8.3,13.2,10.1,16,13C-928.4,126.1-935.9,153.9-996.8,239.5z"/>
	<g id="XMLID_176_">
		<g id="XMLID_453_">
			<circle id="XMLID_455_" class="st2" cx="-284.6" cy="-1470" r="20.1"/>
			<circle id="XMLID_454_" class="st2" cx="-419.9" cy="-1470" r="20.1"/>
		</g>
		<g id="XMLID_177_">
			<path id="XMLID_452_" class="st3" d="M-356.9-1594.1c-1.7,0.5-2.4,1.9-3.4,2.8c-5.2,4.6-11.1,6.8-18.2,5.8
				c-2.8-0.4-5.5-0.9-8.2-1.6c-2.5-0.7-2.5-0.7-3.9,1.7c-0.9,1.5-1.7,3-2.8,4.4c-4.5,5.8-11.1,7.8-18.1,5.6
				c-2.3-0.7-4.6-1.7-6.9-2.5c-1,1.3-1.1,2.9-1.4,4.3c-1.9,7.5-6.3,12.2-14.4,12.9c-2.4,0.2-4.8,0.5-7.2,0.8c-2,0.2-2.4,0.6-2,2.6
				c1.1,5.8,0.2,11.4-2,16.8c-1.8,4.5-4.4,8.3-8.6,10.8c-2,1.2-3.2,2.6-3.2,4.9c0,1.2-0.6,2.4-1.3,3.3c-1.6,2-3.2,3.2-6.2,2.5
				c-5-1.2-10-0.6-14.5,2.4c-5.1,3.5-8.4,8.3-9.4,14.4c-0.6,4.1-0.9,8.2-0.3,12.4c0.8,5.7,2.9,10.7,6.7,14.9c2,2.2,4,4.3,5.9,6.6
				c1.3,1.6,1.1,2.8-0.6,3.9c-1.9,1.3-4,2-6.3,2.3c-3.2,0.4-6.2,0-9.2-1.2c-6.5-2.5-9.9-8.2-9.4-15.2c0.2-2.4,2.3-4.9,0.8-6.9
				c-1.2-1.7-3.7-2.4-5.6-3.7c-7.8-5.4-13.6-12.2-16-21.7c-2.7-10.5,1.3-23.7,11.6-30c1.2-0.8,3.3-1.1,3.3-2.9
				c-0.1-1.2-1.2-2.4-2-3.6c-2.4-3.6-3.5-7.6-3.8-11.8c-0.5-6.7,0.5-13.2,4-19c3-5,7.4-8.2,13.2-9.2c2.8-0.5,2.9-0.6,2.4-3.6
				c-1.1-7-0.6-13.9,2.2-20.4c2.8-6.6,7.4-11.2,14.2-13.6c2.6-0.9,2.7-1,2-3.7c-2.6-10.5-0.4-20.1,5.9-28.6
				c7.3-9.9,17.3-15.5,29.5-16.5c6.4-0.5,12.4,1.4,17.6,5.3c1.4,1,2.7,2.1,4.1,3.2c0.4,0.3,1,0.3,1.3-0.2c0.6-1,1.2-2.1,1.8-3.2
				c2.7-4.5,6.2-8.4,10.8-11.1c8.6-5,17.4-5.4,26.4-1c4.9,2.4,9.3,5.4,13.6,8.7c0.8,0.6,1.4,1.5,2.7,1.7c1.2-1.5,2.5-3.2,3.8-4.8
				c2.8-3.6,6.3-6.4,10.3-8.6c4.4-2.4,9.1-3.3,14.1-3.1c7.5,0.4,13.2,3.9,17,10.3c1.8,3.1,3.3,6.5,5,9.7c1,2,1.1,2.1,3.1,1
				c9.1-4.8,18.9-6.8,29.2-6c17.7,1.3,28.4,13.9,31,25.2c0.7,3,0.9,6.2,1.3,9.3c0.4,2.8,0.4,2.9,3.4,3.4c4.3,0.7,8.5,1.5,12.7,2.8
				c5.9,1.8,11.2,4.7,15.6,9.1c6.8,6.7,10.1,14.8,9,24.5c-0.4,3.3-1.6,6.4-2.8,9.4c1.2,1.2,2.6,1.2,3.9,1.5
				c16.9,4.7,29.7,19.9,31,37.2c0.4,5.1-0.9,10-3.5,14.5c-2.1,3.8-4.5,7.4-7.4,10.7c-1.6,1.8-1.8,3.5-0.8,5.7
				c0.8,1.7,1.2,3.6,1.5,5.5c1.1,6.8-0.1,13-3.9,18.9c-3.6,5.6-8,10-14.1,12.7c-0.3,0.1-0.6,0.3-0.9,0.5c-2.6,0.9-4.2,2.5-5.1,5.3
				c-1.4,4.6-4.3,8.3-8,11.3c-3.4,2.8-7.2,4.8-11.5,5.8c-6.1,1.5-11.7,0.2-17-2.9c-2.1-1.3-2.1-3.2-0.1-4.5
				c11.2-7.1,15.6-17.7,15.5-30.5c-0.1-5.5-1.9-10.6-4.6-15.3c-1.7-2.9-4.2-5.1-7.3-6.4c-4.1-1.6-8.2-2.6-12.7-1.8
				c-4.7,0.8-7.6-0.7-9.7-5c-1.6-3.2-2.2-6.6-2.2-10.1c0-4.9,0.8-9.7,1.8-14.4c0.5-2,0.2-2.3-2-2.6c-1.7-0.2-3.4-0.5-5.2-0.6
				c-7.2-0.7-12.3-4.3-15.3-10.9c-1.1-2.4-1.1-2.4-3.9-1.8c-2.7,0.6-5.5,1-8.2,1.1c-3.5,0.1-6.9-0.6-10.1-2
				c-4.4-1.9-7.6-4.8-9.3-9.3c-0.3-0.8-0.7-1.6-1-2.4c-0.3-0.7-1-0.9-1.7-0.8c-1.7,0.4-3.4,0.8-5.1,1.2c-3.6,0.8-7.2,1.2-10.8,0.9
				c-7.7-0.6-13.4-4.3-17.1-11.1C-354.8-1589.4-355.7-1591.6-356.9-1594.1z"/>
			<path id="XMLID_451_" class="st3" d="M-353.4-1165.4c-34.2,0-68.4-0.1-102.6,0c-27.4,0.1-54.9,0.2-82.3,0.6
				c-16.8,0.3-33.6,1.1-50.5,1.8c-6.4,0.2-12.8,0.5-19.3,0.7c-2.9,0.1-3.4-0.5-2.7-3.4c0.9-3.7,2-7.4,3-11.1c0.3-1.1,1-1.8,2.2-1.9
				c0.7-0.1,1.4-0.1,2.1-0.1c9.4-0.4,18.7-0.7,28.1-1.2c28.4-1.6,56.9-2,85.3-2.5c28.5-0.4,56.9-0.3,85.4-0.4
				c21.4-0.1,42.7,0,64.1-0.3c15.3-0.2,30.5-1,45.8-1.6c11.1-0.4,22.2-0.9,33.3-1.2c24.8-0.8,49.6-1.5,74.4-2.3
				c12.1-0.4,24.3-0.7,36.4-0.9c15.6-0.3,31.2,0.2,46.8,0.9c3.3,0.1,3.4,0.1,4.3,3.3c1.2,4,2.2,8,3.2,12.1c0.5,1.9,0,2.5-2.1,2.4
				c-2.9,0-5.9-0.1-8.8-0.3c-14.2-0.8-28.5-0.9-42.7-0.7c-20.1,0.3-40.3,0.9-60.4,1.4c-11.1,0.3-22.2,0.5-33.3,1
				c-20.5,0.8-40.9,1.7-61.4,2.6c-2.9,0.1-5.9,0.2-8.8,0.3c-13.2,0.3-26.4,0.7-39.6,1C-353.4-1165.2-353.4-1165.3-353.4-1165.4z"/>
			<path id="XMLID_450_" class="st3" d="M-354.8-1196.2c-59.3,1.2-121.1,0.8-182.9,1.3c-19.1,0.2-38.2,0.5-57.3,0.8
				c-1.6,0-3.1,0-4.7-0.1c-0.5,0-0.8-0.5-0.8-1.1c0-0.3,0.2-0.7,0.3-1c2-3.8,4.1-7.7,6-11.5c0.9-1.8,2.2-2.5,4.1-2.5
				c3.1,0,6.2-0.3,9.4-0.3c38.7-0.6,77.4-1.4,116.1-1.6c29.3-0.2,58.7-0.7,88-1.1c19.6-0.3,39.2-0.4,58.8-0.9
				c18.7-0.4,37.5-1.3,56.2-1.8c23.4-0.6,46.9-1.3,70.3-0.9c24.1,0.4,48.3,0.8,72.4,1.2c2.4,0,4.9,0.2,7.3,0.3
				c1.1,0.1,1.9,0.6,2.4,1.7c1.9,4.5,3.7,9,5,13.7c0.4,1.3-0.2,2-1.5,2.1c-0.5,0-1,0-1.6,0c-18.4-0.3-36.8-0.3-55.2-0.8
				c-22.7-0.7-45.5-0.7-68.2-0.4c-16.8,0.2-33.7,1-50.5,1.5c-2.8,0.1-5.6,0.2-8.3,0.2C-310.4-1197.1-331.4-1196-354.8-1196.2z"/>
			<path id="XMLID_449_" class="st3" d="M-349.8-1233.7c-15.5,0-30.9-0.1-46.4,0c-21.9,0.2-43.7,0.6-65.6,1.1
				c-20.1,0.5-40.2,1.3-60.4,2c-17.3,0.6-34.7,1.3-52,1.8c-2.2,0.1-4.5,0.4-6.7-0.3c0-2.8,2.4-4,3.9-5.8c2.3-2.6,4.9-4.9,7.2-7.5
				c2-2.2,4.3-3.2,7.3-3.2c5.9-0.1,11.8-0.5,17.7-0.7c12.8-0.5,25.7-0.9,38.5-1.5c26.5-1.3,53.1-2.1,79.6-2.8
				c28.3-0.7,56.6-1.1,84.9-0.8c25.5,0.3,51,0.5,76.6,1c32.5,0.7,64.9,0.6,97.4,1c12,0.1,24,0.5,35.9,0.5c2.8,0,4.5,1,5.9,3.3
				c2.5,4.2,5.5,8,7.6,12.4c0.6,1.2,0.1,2-1.3,2c-4.2,0-8.3,0-12.5-0.1c-22.4-0.2-44.8-0.4-67.2-0.7c-39.4-0.5-78.8-0.9-118.2-1.4
				c-10.8-0.1-21.5-0.4-32.3-0.6C-349.8-1233.7-349.8-1233.7-349.8-1233.7z"/>
			<path id="XMLID_448_" class="st3" d="M-319.7-1270.5c0.7-1.4,2.1-1.4,3.1-1.8c3.7-1.6,7.4-2.9,11.1-4.5c5.1-2.2,10-4.9,14.2-8.6
				c2.4-2.1,4.9-2.8,8-2.8c20.1,0.1,40.3,0,60.4,0.2c18.2,0.1,36.4,0.6,54.7,0.7c2.8,0,5,0.8,7.1,2.5c4.9,4.1,9.9,8.2,14.8,12.3
				c0.7,0.5,1.3,1.2,1.8,1.9c0.3,0.4,0.4,1.1-0.4,1.1c-2.1,0.1-4.2,0.2-6.2,0.1c-23.1-0.3-46.2-0.7-69.3-1
				c-30.9-0.4-61.8-0.2-92.7,0.1C-315.2-1270.1-317.4-1269.8-319.7-1270.5z"/>
			<path id="XMLID_447_" class="st3" d="M-374-1269.8c-1.4,1.1-2.8,0.8-4.1,0.8c-16,0.2-31.9,0.6-47.9,0.6
				c-36.6,0.1-73.2,0.2-109.9,0.2c-1.4,0-2.8,0-4.2-0.1c-0.3,0-0.7-0.2-0.8-0.5c-0.1-0.3,0-0.8,0.2-0.9c1.5-1.2,3-2.3,4.6-3.4
				c5-3.5,10-6.8,15.5-9.6c3-1.5,6.1-2.3,9.5-2.3c12,0,23.9-0.2,35.9-0.3c20-0.2,39.9-0.4,59.9-0.7c3.1-0.1,5.5,0.8,8.1,2.6
				c7.5,5.2,15.9,8.4,24.7,10.8C-379.6-1271.8-376.8-1271.1-374-1269.8z"/>
			<path id="XMLID_446_" class="st3" d="M-265.2-1301.6c-2.2,0-4.4,0-6.7,0c-1.4,0-1.8-0.8-0.9-2c2.7-3.9,5.3-7.7,7.2-12
				c0.5-1.2,1.4-1.9,2.8-2c1.7-0.1,3.4-0.4,5.2-0.5c7.1-0.4,14.2-0.6,21.3-1.1c3.3-0.2,6.5,0.3,9.7,1.5c9.4,3.5,18.8,7.1,27.9,11.3
				c0.8,0.4,1.6,0.7,2.3,1.2c0.2,0.1,0.3,0.6,0.3,0.9c0,0.1-0.2,0.2-0.4,0.2c-0.9,0.1-1.7,0.2-2.6,0.2c-17.5,0.5-35,0.9-52.5,1.4
				C-256.1-1302.2-260.6-1301.8-265.2-1301.6z"/>
			<path id="XMLID_445_" class="st3" d="M-486.4-1297.6c0.5-1.6,1.8-1.7,2.9-2.1c5.8-2.3,11.6-4.5,17.4-6.8c4.6-1.9,9.2-4,13.7-6.2
				c2.1-1,4.1-1.7,6.4-1.6c2.8,0.2,5.7-0.5,8.2,0.4c2.4,0.8,2.9,4.1,4.5,6.1c2.2,2.7,4.3,5.4,6.4,8.2c0.6,0.8,0.2,1.7-0.9,1.8
				c-0.9,0.1-1.7,0.1-2.6,0.1c-10.7-0.7-21.5-0.2-32.2,0c-7.1,0.1-14.2,0.1-21.3,0.2C-484.7-1297.5-485.5-1297.6-486.4-1297.6z"/>
			<path id="XMLID_444_" class="st3" d="M-338.1-1302.6c0.6-1.3,1-2.6,1.7-3.7c2.4-3.9,7.2-4.9,10.9-2.4c3.5,2.4,4.3,7.1,1.9,10.6
				c-2.5,3.6-7.4,4.3-11,1.7c-1.1-0.8-1.5-2.3-2.9-2.8c-1.3,0.7-1.2,2.1-2,3c-2.9,3.7-8.1,4.3-11.4,1.2c-3.1-2.8-3.2-7.7-0.4-10.8
				c3.1-3.4,8.3-3.2,11.5,0.4C-339.2-1304.6-338.7-1303.6-338.1-1302.6z"/>
			<path id="XMLID_443_" class="st3" d="M-283.3-1319.1c-4.9,0.1-8.7-3.1-8.8-7.6c-0.2-4.4,3.4-8.2,7.7-8c5.1,0.3,8.6,3.9,8.6,8
				C-275.8-1322.4-278.9-1319.2-283.3-1319.1z"/>
			<path id="XMLID_442_" class="st3" d="M-305.7-1306.1c0.1,4.2-3.3,7.7-7.5,7.7c-4.1,0.1-7.7-3.4-7.8-7.5c-0.1-4.2,3.3-7.7,7.5-7.8
				C-309.3-1313.7-305.8-1310.3-305.7-1306.1z"/>
			<path id="XMLID_441_" class="st3" d="M-297-1306.8c-4.2-0.1-7.5-3.6-7.4-7.8c0.1-4.2,3.6-7.6,7.8-7.5c4.2,0.1,7.5,3.6,7.4,7.9
				C-289.4-1310-292.8-1306.7-297-1306.8z"/>
			<path id="XMLID_440_" class="st3" d="M-397.6-1320.4c4.1,0.4,7.2,4.2,6.9,8.2c-0.4,4.1-4,7.3-8.1,7c-4.1-0.3-7.4-3.9-7.2-8
				C-405.8-1317.5-402-1320.8-397.6-1320.4z"/>
			<path id="XMLID_439_" class="st3" d="M-356.1-1301.8c0,4.3-3.3,7.6-7.5,7.6c-4.3,0-7.6-3.3-7.6-7.5c0-4.3,3.2-7.6,7.5-7.7
				C-359.5-1309.4-356.2-1306.1-356.1-1301.8z"/>
			<path id="XMLID_438_" class="st3" d="M-415.6-1314.7c-4.3,0-7.6-3.4-7.5-7.6c0-4.2,3.5-7.6,7.7-7.5c4.3,0,7.6,3.4,7.6,7.6
				C-407.9-1318-411.3-1314.7-415.6-1314.7z"/>
			<path id="XMLID_437_" class="st3" d="M-380.3-1297.3c-4.3,0-7.5-3.3-7.5-7.6c0-4.3,3.3-7.5,7.6-7.5c4.3,0,7.5,3.3,7.5,7.6
				C-372.7-1300.5-376.1-1297.2-380.3-1297.3z"/>
			<path id="XMLID_206_" class="st4" d="M-405.2-1494.3c-6.1,0.2-11.1-0.7-15.9-2.2c-2.8-0.9-5.5-2.2-7.7-4.1
				c-4.1-3.4-5.3-8-3.6-13.1c2-6.2,6.6-9.6,12.7-11c9.7-2.2,19.3-1.1,28.5,2.5c2.9,1.1,5.5,2.9,7.8,5c5.1,4.7,4.2,13-0.7,17
				c-3.2,2.5-6.9,4-10.8,4.9C-398.6-1494.5-402.4-1494.3-405.2-1494.3z M-423.2-1520.7c-5.1,3.3-7.5,7.1-7.1,12.1
				c0.3,4.1,3,6.6,7.4,8.3C-425.6-1507.1-425.3-1513.5-423.2-1520.7z M-382.5-1508.8c0-3.3-1.7-5.7-4.1-7.5
				c-0.7-0.5-1.8-1.3-2.2-1.1c-1.1,0.6-0.4,1.8-0.2,2.7c0.5,1.7,0.4,3.4,0.5,5.1c0.2,2.6-0.5,5.1-0.9,7.7c-0.1,0.8,0.6,1.4,1.2,1.1
				C-384.6-1502.5-383-1505.3-382.5-1508.8z"/>
			<path id="XMLID_202_" class="st4" d="M-311.4-1491.2c-4.4-0.1-9.2-0.4-13.8-2.1c-2.3-0.8-4.5-1.9-6.5-3.3
				c-5.8-4.1-6.8-12.9-0.9-18c3-2.5,6.3-4.4,9.9-5.5c8.4-2.5,16.9-3.5,25.6-1.5c6.3,1.4,11.1,4.7,13.1,11.2c1.6,5.1,0.3,9.6-3.8,13
				c-2.3,1.9-4.9,3.2-7.8,4.1C-300.5-1491.8-305.6-1490.9-311.4-1491.2z M-325.6-1515.6c-2.2,0.4-3.9,1.9-5.4,3.4
				c-4,4-3.8,9.5,0.6,13.1c1.6,1.3,3.5,2.2,5.4,2.9c0.4,0.2,1,0.3,1.4,0.1c0.6-0.3,0.2-0.9-0.1-1.3c-2.8-4.7-3-9.8-2.2-15
				C-325.7-1513.4-324.9-1514.2-325.6-1515.6z M-293.3-1497.1c4.7-2.1,7.3-4.9,7.3-9.4c0-2.3-0.8-4.4-2-6.3
				c-1.1-1.7-2.3-3.3-4.8-4.1C-290.8-1510.3-290.2-1504.1-293.3-1497.1z"/>
			<path id="XMLID_197_" class="st4" d="M-353.8-1152.2c-32.8,0.3-65.6,0.4-98.4,1.1c-27.1,0.6-54.2,0.4-81.2,1
				c-23.8,0.5-47.6,0.6-71.3,0.9c-1.6,0-3.1,0-4.7,0c-2.4-0.1-3.2-0.7-3.4-3c-0.3-3.8-0.1-7.6,0.6-11.4c1.1-6.2,3-12.2,5.2-18
				c3.8-9.9,8.3-19.5,13.3-28.8c9.2-17,21.5-31.5,35.3-44.8c5.8-5.5,11.6-11,18-15.8c8.1-6,16.6-11.3,25.7-15.8
				c21.9-11,44.6-20.1,67.6-28.3c15.9-5.7,26.6-16.6,30.7-33.4c1.5-6.3,2.6-12.6,2.5-19c-0.1-3.4-0.1-3.5-3.1-4.5
				c-9.2-3-16.5-8.7-22.4-16.3c-7.4-9.6-12.5-20.3-15-32.3c-2.3-11.1-3.7-22.2-5-33.4c-0.3-2.6-0.5-3-2.9-3.5
				c-15.1-3.3-29.9-20.9-28.7-40c0.2-3.3,0.9-6.5,2.2-9.6c6.2-14.2,20.8-15.9,31-11.6c0.5,0.2,0.9,0.6,1.2,0.9
				c0.2,0.2,0.3,0.7,0.2,1c-0.1,0.3-0.4,0.6-0.7,0.7c-1.3,0.3-2.4-0.3-3.5-0.7c-3.5-1.1-7.1-1.7-10.8-1c-7.2,1.4-12.3,5.5-15,12.3
				c-2.1,5.3-2.4,10.8-1.2,16.4c2.3,10.5,7.8,18.8,16.7,24.8c3.3,2.3,7,3.8,11,4.4c2.5,0.4,2.8,0.8,2.9,3.4
				c0.6,9.7,2.2,19.3,3.8,28.9c1.5,9.1,3.8,18,8.3,26.2c3.1,5.7,6.7,11,11.1,15.7c6.5,6.9,14.3,11.6,23.9,12.4
				c1.3,0.1,2.4,0.3,3.3,1.3c6.6,7,15.3,10,24.3,12.2c9.1,2.2,18.4,3.5,27.8,3.2c19.2-0.5,36.9-5.9,53.2-15.9
				c1.8-1.1,3.6-1.9,5.8-2.2c3.1-0.4,6.1-1.4,9-2.6c7.5-3.3,12.8-8.8,16.5-16c3.2-6.2,5.3-12.8,7.2-19.5c1.8-6.2,2.5-12.6,2.9-19
				c0.3-6.2,0.3-12.5,0.3-18.7c0-2.6-0.1-5.2-1.1-7.7c-0.6-1.3,0.2-2.3,1.7-2.6c16-3.4,24.4-14.3,28.2-29.4
				c1.2-4.7,0.9-9.6-0.6-14.4c-3.3-10.6-12.8-16.1-23.6-13.7c-2,0.4-4,1-6.1,1.4c-0.3,0.1-1.1-0.4-1.1-0.8c-0.1-0.4,0.3-0.9,0.5-1.3
				c0.2-0.3,0.6-0.4,0.9-0.5c12.8-5.2,28.4-0.8,32.6,16c1.4,5.7,1.1,11.4-0.6,17c-4.1,13.7-12.5,23.4-26.3,28
				c-2.3,0.8-2.5,0.8-2.2,3.3c1,8.7,0.4,17.3-0.1,26c-0.8,13-4.4,25.2-10.1,36.9c-4.5,9.2-11.5,15.5-21.2,18.9
				c-0.7,0.2-1.3,0.4-2,0.6c-1.1,0.4-1.8,1-1.9,2.2c-0.6,7.5-0.3,14.9,2.1,22.1c1.5,4.5,4.2,8.4,7.8,11.5
				c5.4,4.7,11.5,8.4,18.5,10.2c10.1,2.6,20.2,4.9,30.2,7.8c19.8,5.6,38.7,13.2,56.6,23.4c31,17.6,53.2,42.9,66.8,75.9
				c6.2,15,10.8,30.4,14.5,46.1c1,4.4,2,8.8,2.8,13.2c0.7,3.5-0.4,4.8-4.1,5c-6.2,0.2-12.5,0.2-18.7,0.3
				c-24.1,0.3-48.3,0.6-72.4,0.9c-24.6,0.3-49.3,0.6-74,0.9c-16.1,0.2-32.3,0.6-48.4,0.8c-14.4,0.1-28.8,0-43.2,0
				C-353.8-1152.5-353.8-1152.4-353.8-1152.2z M-219-1156.9C-219-1156.9-219-1156.9-219-1156.9c2.4,0.1,4.9,0.1,7.3,0.1
				c21.2-0.3,42.3-0.6,63.5-0.9c16.1-0.2,32.3-0.4,48.4-0.7c3.8-0.1,4.2-0.6,3.6-4.3c-0.1-0.3-0.1-0.7-0.2-1
				c-4.4-20-9.8-39.7-18-58.6c-12.8-29.4-32.9-52.3-60.3-69c-15.1-9.2-31.2-15.9-47.7-21.7c-12.1-4.3-24.7-7-37.1-10
				c-1-0.2-1.7,0.1-2,1.1c-0.4,1.1-0.8,2.3-1.2,3.4c-2.5,6.7-5.8,13-10.1,18.7c-10.8,14.3-25,23.8-41.9,29.6c-8.7,3-17.7,4.8-27,5.3
				c-2.8,0.2-3,0.3-3,3.1c0,5.6,0.1,11.1,0.3,16.7c0.6,19.8,1.2,39.5,1.8,59.3c0.3,8.8,0.6,17.7,0.9,26.5c0,0.7,0.1,1.4,0.1,2.1
				c0.1,1.2,0.8,1.9,2,1.9c2.1,0.1,4.2,0.1,6.2,0c5.2-0.1,10.4-0.3,15.6-0.3c9.4-0.1,18.7-0.1,28.1-0.2
				C-266.2-1156.2-242.6-1156.6-219-1156.9z M-477.5-1153.6c1.5,0,4.1,0,6.7,0c26.5-0.3,53.1-0.7,79.6-1c13.4-0.2,26.7-0.2,40.1-0.4
				c7.2-0.1,6.2-0.1,6.1-6.4c-0.2-10.8-0.7-21.5-1-32.3c-0.5-20.3-0.9-40.6-1.4-60.9c-0.1-2.6-0.2-5.2-0.4-7.8
				c-0.1-1.8-0.7-2.3-2.7-2.4c-0.7,0-1.4,0-2.1,0c-10.7-0.3-21-2.1-31.1-5.4c-23-7.6-41.8-20.8-55-41.4c-0.4-0.6-0.7-1.2-1.2-1.7
				c-0.5-0.6-1.1-0.8-1.8-0.6c-0.8,0.2-1.7,0.5-2.5,0.8c-21.9,7.4-43.3,16-64,26.2c-9.2,4.5-18.2,9.2-26.6,15.2
				c-14.1,10.1-26.1,22.3-37.5,35.2c-6.7,7.6-12.4,15.8-17.4,24.6c-5.5,9.5-10,19.4-14.1,29.5c-3.1,7.6-5.7,15.3-6.4,23.5
				c-0.7,7.9-0.7,7.2,6.1,7.1c16.3-0.2,32.6-0.5,48.9-0.7c7.3-0.1,14.6-0.1,21.9-0.2C-515-1153-496.8-1153.3-477.5-1153.6z
				 M-348.9-1267.5c6.5,0.1,12.8-0.7,19.1-1.8c14.2-2.6,27.3-7.9,38.9-16.6c11.7-8.7,20.4-19.7,25.4-33.5c0.4-1.1,0.8-2.3,1.1-3.5
				c0.2-0.7,0-1.3-0.9-1.6c-0.5-0.2-1-0.4-1.5-0.5c-8.7-3.1-16.2-7.8-21.9-15.2c-0.8-1.1-1.7-1.6-3.1-1.2c-1.3,0.4-2.7,0.5-4.1,0.9
				c-6.4,1.7-13,2.2-19.6,2.4c-15.3,0.5-30.4-1.3-45.3-5c-16-3.9-30.1-11.2-42.4-22.3c-1.4-1.3-2.8-2.6-4.3-3.8
				c-0.7-0.5-1.4-1-2.2-1.2c-0.7-0.2-1.5,0-1.6,0.8c-0.1,1-0.1,2.1-0.1,3.1c0,7.3-1.2,14.5-3.3,21.5c-2.5,8.3-6.7,15.6-13.1,21.5
				c-2.4,2.2-5.2,4-8,5.8c-2,1.3-2.1,1.6-0.8,3.7c4.6,7.7,10.3,14.4,17,20.2C-399.3-1276.1-375.5-1268-348.9-1267.5z"/>
			<path id="XMLID_193_" class="st4" d="M-443.9-1522.7c0.1-22.4,18.5-40,40.9-38.2c21.2,1.7,32.3,17.7,34.4,31.1
				c0.1,0.5,0.2,1,0.2,1.5c0.3,2.4,0.6,4.8,0.9,7.2c2.4,1.1,4.6-0.7,7-0.6c3.3,0.2,6.6,0.4,9.8,1.3c2.7,0.7,2.8,0.7,3.1-2.1
				c0.5-4.5,1.6-8.9,3.7-12.9c5.9-11.4,15.1-18.2,27.7-20.6c18.2-3.6,39.6,8.9,43.6,30.9c3.2,18-8.3,39.8-31.2,43.8
				c-18.8,3.3-39.9-9.3-43.3-31.1c-0.5-3.1-1.9-4.7-4.7-5.4c-4.8-1.3-9.6-1.7-14.3,0.1c-1.4,0.5-2.4,1.3-2.7,2.8c-0.5,2-1,4-1.9,5.9
				c-6.4,15.1-18,23.4-34.1,23.9c-20.7,0.7-35-14-38.3-30.3C-443.6-1518-444.1-1520.5-443.9-1522.7z M-440.9-1523.4
				c-0.5,20.8,17.5,35.3,34.7,35.4c19.7,0.1,35.3-16.6,35.4-34.8c0.1-18.7-15.5-35.3-34.8-35.4
				C-425.5-1558.3-441.3-1541.6-440.9-1523.4z M-275-1518.6c0.7-19.7-16.6-35.2-34.8-35.3c-17.3,0-35.1,14-35.1,35.1
				c0,20.6,17.2,34.8,34.6,35C-290.5-1483.7-274.5-1500.3-275-1518.6z"/>
			<path id="XMLID_192_" class="st4" d="M-337.5-1476.5c0.1,6.6-3.2,11.5-9,13.8c-5.3,2-10.8,2.3-16.3,0.4c-0.6-0.2-1.2-0.7-1.7-1.2
				c-0.2-0.2-0.2-0.7-0.2-0.9c0.1-0.3,0.5-0.7,0.7-0.7c0.9,0,1.7,0.2,2.5,0.4c3.4,0.9,6.9,0.9,10.3,0.4c5.2-0.8,9-3.3,10.6-8.7
				c0.6-2.1,0.5-4.1,0-6.1c-0.9-3.7-2.3-7.3-4-10.7c-2.4-4.6-4.9-9.2-7.4-13.7c-0.4-0.8-0.8-1.5-1-2.3c-0.1-0.2,0.2-0.7,0.5-0.8
				c0.2-0.2,0.7-0.2,0.9-0.1c1,0.4,1.5,1.4,2.1,2.2c4.1,6.8,7.9,13.8,10.6,21.4C-338.1-1480.9-337.3-1478.6-337.5-1476.5z"/>
			<path id="XMLID_191_" class="st4" d="M-350.1-1416.2c-3.5,0.4-7.2-0.5-11-1.2c-4.7-0.9-8.7-3.3-12.2-6.6
				c-0.5-0.5-0.9-1.2-0.4-1.8c0.4-0.7,1.1-0.6,1.8-0.2c0.2,0.1,0.3,0.2,0.4,0.3c7,6.3,15.6,7,24.4,6.8c8-0.2,14.7-3.4,20.6-8.7
				c1-0.9,1.8-2.2,3.3-2.5c0.3-0.1,0.7,0.1,0.9,0.3c0.2,0.2,0.4,0.7,0.3,0.9c-0.4,0.7-0.9,1.5-1.5,2.1
				C-330.8-1419.7-339.4-1415.9-350.1-1416.2z"/>
			<path id="XMLID_190_" class="st4" d="M-474.1-1492.3c-0.3,2.5,0.5,4.8,2,6.8c0.8,1.1,1.6,2.2,2.5,3.4c0.6,0.8,1.5,1.8,0.3,2.7
				c-0.8,0.6-1.6-0.2-2.2-0.9c-4.1-4.4-6.7-9.4-4.9-15.6c2.2-7.6,8-10.7,15.7-8.3c0.7,0.2,1.2,0.9,0.8,1.6c-0.2,0.4-0.8,0.7-1.3,0.7
				c-1,0-2.1-0.3-3.1-0.4c-5.3-0.4-9.4,3.1-9.9,8.4C-474.1-1493.4-474.1-1492.8-474.1-1492.3z"/>
			<path id="XMLID_189_" class="st4" d="M-253-1504.9c4.7,0,9.2,3.8,10.4,8.7c1.1,4.2,0.6,8.3-1.9,12c-1.1,1.7-2.3,3.5-4,4.7
				c-0.4,0.3-1,0.4-1.4,0c-0.4-0.4-0.5-1-0.2-1.4c0.9-1.3,1.8-2.5,2.7-3.8c2-2.6,2.7-5.5,2.5-8.8c-0.4-5.6-4.5-9.2-10.1-8.7
				c-1,0.1-2.1,0.3-3.1,0.4c-0.6,0-0.9-0.4-1.1-0.9c-0.3-0.6,0.2-1,0.6-1.3c1-0.8,2.3-0.7,3.5-0.8
				C-254.4-1504.9-253.7-1504.9-253-1504.9z"/>
			<path id="XMLID_188_" class="st4" d="M-395.4-1434.6c-0.5-0.3-1.1-0.5-1.2-0.8c-0.1-0.4,0.2-1.1,0.6-1.3c0.9-0.5,1.9-0.8,2.9-1.2
				c7.6-2.9,14.2-7.1,18.5-14.3c0.2-0.3,0.4-0.5,0.7-0.8c0.5-0.4,1-0.3,1.4,0.1c0.2,0.2,0.5,0.7,0.4,0.9c-0.3,1-0.7,2-1.3,2.8
				c-2.1,3.2-4.9,5.8-8,8.1c-3.5,2.6-7.4,4.5-11.5,6C-393.6-1434.9-394.5-1434.8-395.4-1434.6z"/>
			<path id="XMLID_187_" class="st4" d="M-321.7-1451.3c0.4,0.1,0.8,0,1,0.2c0.5,0.5,0.9,1,1.3,1.6c3.2,4.9,7.5,8.5,12.7,11.2
				c2.2,1.1,4.3,2.2,6.5,3.3c0.5,0.2,0.8,0.7,0.7,1.2c-0.2,0.9-0.9,0.9-1.6,0.9c-0.3,0-0.7,0-1-0.2c-6.9-3.3-13.6-6.8-18.2-13.3
				c-0.8-1.1-1.8-2.2-1.9-3.6C-322.2-1450.3-321.9-1450.8-321.7-1451.3z"/>
			<path id="XMLID_186_" class="st4" d="M-346.7-1410.3c-2.7-0.2-5.3,0.3-7.8-0.5c-0.5-0.2-0.8-0.6-0.6-1.2c0.1-0.3,0.4-0.7,0.6-0.7
				c0.8-0.2,1.7-0.3,2.5-0.4c5-0.1,10,0.3,15-0.8c0.4-0.1,1.1,0.3,1.2,0.7c0.4,0.7-0.1,1.4-0.8,1.6c-1.1,0.4-2.3,0.7-3.5,0.8
				C-342.2-1410.6-344.5-1410.5-346.7-1410.3z"/>
			<path id="XMLID_183_" class="st4" d="M-366.4-1188.1c3.9-0.8,8.2,3.9,8.2,9.9c0,5-3,8.3-8.3,8.7c-5,0.5-9.7-4.3-9.6-9.5
				C-376-1183.6-372.5-1188.2-366.4-1188.1z M-367-1172.2c3.7,0.1,6.2-2.3,6.2-6.1c0-3.8-2.5-7.2-5.3-7.2c-4.3,0-7.1,2.5-7.2,6.5
				C-373.4-1175.2-370.7-1172.3-367-1172.2z"/>
			<path id="XMLID_180_" class="st4" d="M-357.4-1247.8c0,4.7-3.9,8.6-8.5,8.7c-4.6,0.1-9-3.8-9.1-8.2c-0.1-4.7,3.6-8.4,8.6-8.4
				C-361.2-1255.8-357.4-1252.4-357.4-1247.8z M-366.2-1241.9c3.3,0.1,6-2.4,6.2-5.7c0.2-2.8-2.8-5.4-6.4-5.4
				c-3.4,0-5.7,2.1-5.9,5.3C-372.3-1244.6-369.6-1242-366.2-1241.9z"/>
			<path id="XMLID_179_" class="st4" d="M-419.4-1530.8c-3.5,0.1-5.7-0.2-6.8-2.7c-0.9-2.1,0-4.5,2.4-6.3c4.6-3.3,9.9-4.8,15.6-4.8
				c1,0,2,0.3,2.9,0.9c1.7,1.1,2.2,2.7,1.1,4.5c-0.4,0.7-1,1.5-1.6,2.1C-409.7-1533.1-414.8-1531.2-419.4-1530.8z"/>
			<path id="XMLID_178_" class="st4" d="M-311.1-1544.7c4.1,0.5,8.8,1.6,13,4.3c1.3,0.9,2.4,2,3.1,3.4c1.2,2.6-0.2,5.4-3,6.1
				c-0.5,0.1-1,0.2-1.6,0.2c-6.3-0.1-11.8-2.3-16.3-6.9c-0.5-0.5-0.9-1.1-1.2-1.7c-1-1.8-0.5-3.3,1.2-4.4
				C-314.6-1544.6-313.2-1544.6-311.1-1544.7z"/>
		</g>
	</g>
	<g id="XMLID_72_">
		<g id="XMLID_76_">
			<path id="XMLID_98_" class="st3" d="M-1065.5-1150.7c-19.3,0-38.5,0.1-57.8,0c-31.4-0.1-62.8-0.4-94.3-0.5
				c-39.4-0.2-78.8-0.3-118.2-0.5c-2.9,0-5.9-0.2-8.8-0.3c-2.7-0.1-2.9-0.5-2.6-3.1c0.3-3.5,1.5-6.8,2.8-10
				c4.1-10,8.7-19.6,13.6-29.2c5-9.7,9.7-19.6,14.1-29.6c8.2-18.4,19.1-35,32.9-49.7c6.6-7,14.2-12.7,22.7-17.3
				c7.3-4,14.9-7.5,22.6-10.5c18.9-7.3,37.9-14.6,57-21.4c13.7-4.8,27.5-9.7,41.2-14.6c0.5-0.2,1-0.4,1.5-0.5c3.1-0.9,4-0.3,4.8,2.8
				c1,3.7,1.7,7.5,3,11c8.6,23.6,24.6,39.6,49.2,46c18.8,4.9,36.9,2,53.8-7.4c18.9-10.4,31.7-26.1,39.3-46.2
				c2.2-5.9,1.6-5.8,7.6-3.6c27.5,10.2,55.2,19.9,82.4,30.7c8.9,3.5,17.6,7.3,26.2,11.5c15.4,7.5,29.5,17,40.7,30.2
				c8.8,10.4,16.5,21.5,22.6,33.6c4.7,9.1,8.5,18.6,11.8,28.3c5.1,14.8,10,29.6,13.5,44.8c0.2,0.7,0.4,1.3,0.5,2
				c0.8,3.4-1.1,5.3-4,5c-0.9-0.1-1.7,0-2.6,0c-27.1-0.1-54.2-0.1-81.3-0.2c-12.8,0-25.7-0.2-38.5-0.2c-35.9-0.2-71.9-0.4-107.8-0.5
				c-16-0.1-31.9,0-47.9,0C-1065.5-1150.4-1065.5-1150.5-1065.5-1150.7z"/>
			<path id="XMLID_95_" class="st4" d="M-948.9-1665.3c2.2,0.9,3.8,1.4,5.4,2.1c5.5,2.4,9.5,6.3,11.5,12.1c2,6,1.4,11.6-2.3,16.8
				c-1,1.4-2,2.9-3.3,4c-5.9,5.1-7.6,11.8-7.7,19.2c-0.1,2.1,0,4.2,0.1,6.2c1,14,1.2,28.1,1.5,42.1c0,1.6,0.1,3.1,0,4.7
				c-0.1,1.9,0.6,3.2,2.3,4.2c2.1,1.2,4.1,2.7,5.9,4.3c15.5,14.1,14.4,37.1-2.3,49.8c-5.8,4.4-12.5,6.8-19.6,7.6
				c-2.5,0.3-2.8,1-2.7,3.3c0.4,6.6,0.6,13.2,0.2,19.8c-1.2,21.1-7.1,40.6-20.3,57.5c-2,2.6-4.3,5-6.6,7.4c-1.2,1.2-1.7,2.5-1.6,4.2
				c0.2,3.6,0.3,7.3,0.5,10.9c0.6,10.6,1.3,21.1,2,31.7c0.5,7.3,1.1,14.5,1.5,21.8c0.2,2.9,0.2,5.9,0.2,8.8c0,0.4-0.3,1-1,1
				c-0.6,0-1.1-0.3-1.1-0.8c-0.4-2.4-0.7-4.8-0.9-7.2c-0.4-5.9-0.7-11.8-1.1-17.7c-0.2-3-0.4-3.3-3.6-2.8
				c-5.9,0.9-11.8,0.8-17.7,0.8c-31.1-0.2-60.4-7.7-87.7-22.8c-9.1-5.1-17.9-10.7-25.6-17.8c-2-1.8-4.3-3.5-6.9-4.9
				c-1,2.5-1,5-1.1,7.3c-0.8,14-1.6,28.1-2.5,42.1c-0.3,5.5-0.7,11.1-1.1,16.6c-0.1,1.9-0.4,3.8-0.7,5.7c-0.1,0.7-0.4,1.5-1.2,1.5
				c-1.1,0-1.3-1-1.3-1.9c0-2.4,0.1-4.9,0.2-7.3c0.6-8.5,1.2-17,1.7-25.4c0.7-11.3,1.4-22.5,2.1-33.8c0-0.7,0-1.4,0.1-2.1
				c0.7-4-0.6-7.1-3.6-10.2c-11.9-12.5-18.9-27.7-22.5-44.5c-2.6-12-2.9-24.1-2.3-36.2c0.1-1,0.1-2.1,0.1-3.1c0-1-0.5-1.6-1.5-1.8
				c-2.1-0.3-4.1-0.6-6.2-1c-8.2-1.9-15.2-5.9-20.6-12.4c-11.8-14.3-9.3-34.6,5.8-46c1.2-0.9,2.5-1.8,3.9-2.6
				c1.5-0.8,1.7-1.9,1.4-3.5c-3.6-17.8-4.2-35.8-3.5-53.9c0.6-14.7,2.2-29.4,5.9-43.8c3.3-12.8,9.5-24.2,18.9-33.6
				c2.9-3,6-5.8,9.1-8.6c7.8-7,16.8-11.6,26.8-14.5c12-3.6,24.2-6.1,36.6-7.5c6.9-0.8,13.8-1.4,20.6-2.6c12.4-2.1,23.9-7,35.3-12.2
				c6.8-3.1,13.5-6.3,20.7-8.5c5.7-1.7,11.5-2.4,17.4-2c8.3,0.5,16.9,7.2,18,18.5c0.6,5.8-0.1,11.4-1.6,17c-1,3.7-2.1,7.3-3.1,11
				c-0.4,1.4,0.2,2.1,1.5,1.7c2.9-0.7,5.7-1.5,8.5-2.3c5-1.5,10.2-2.1,15.4-1.9c0.7,0,1.4,0,2.1,0.1c8.6,0.7,13.8,7.3,12.3,15.9
				c-0.8,5.1-2.9,9.6-6.1,13.6C-945.3-1669.3-946.9-1667.5-948.9-1665.3z M-1061.1-1380.6c10.7,0.4,21.4-0.5,31.8-3.3
				c30.9-8.1,51.7-27.3,61.5-57.8c5-15.4,6.2-31.3,4.7-47.3c-0.4-4.3-0.4-5.3,4.7-6c0.7-0.1,1.4-0.1,2.1-0.2
				c9.3-1.4,17.2-5.5,22.9-13.1c5.5-7.3,7.5-15.6,5.1-24.6c-1.9-7-5.9-12.5-11.7-16.7c-6.1-4.4-12.9-6.5-20.4-6.8
				c-3.9-0.1-4.8-0.9-5.5-4.8c-0.2-1.2-0.4-2.4-0.5-3.6c-0.4-4.8-0.8-9.7-1-14.5c-0.4-8.9-2-17.6-4.5-26.1
				c-2.8-9.6-7-18.5-13.4-26.3c-8.1-9.9-18.3-15.6-31.4-15.8c-6.8-0.1-13.5-0.1-20.3,0.3c-11.2,0.8-22.5,2-33.7,2.8
				c-13.5,0.9-26.9,3-40.2,5.5c-7.7,1.4-15.2,3.6-22.3,7c-12.9,6.2-21.4,15.6-23.1,30.4c-0.8,6.6-1.5,13.1-1.6,19.7
				c-0.1,6.4-0.1,12.8,0.6,19.2c0.5,5,0.7,6-5.2,6.2c-9.8,0.4-18.2,4.3-24.6,11.8c-10.1,11.8-9.2,27.6,0.8,38.4
				c5.9,6.4,13.2,10,21.8,10.9c1.5,0.2,3.1,0.5,4.6,0.9c1.1,0.3,1.7,1.2,1.6,2.4c0,0.9-0.2,1.7-0.3,2.6c-1.3,15-0.4,29.9,3.7,44.3
				c9.1,31.4,29.3,51.7,60.8,60.6C-1083.5-1381.3-1072.4-1380.2-1061.1-1380.6z"/>
			<path id="XMLID_94_" class="st4" d="M-1060.8-1238.2c-20-0.1-37.9-5.9-54.3-16.7c-15.3-10.1-27.4-23.3-37-38.9
				c-3.6-5.9-6.8-12.1-9.5-18.5c-0.3-0.8-0.9-1.6-0.5-2.5c0.1-0.3,0.4-0.6,0.7-0.7c0.3-0.1,0.7-0.1,0.9,0.1c1.4,0.9,1.7,2.6,2.3,4
				c3.9,8.7,8.6,17,14.3,24.7c11.6,15.9,25.8,28.5,43.7,36.8c13.8,6.4,28.2,9.5,43.4,8.7c19.5-1.1,36.8-7.9,52.2-19.7
				c16.6-12.8,28.4-29.2,36.8-48.3c0.6-1.4,0.9-3,2.1-4.1c0.4-0.4,0.9-0.4,1.4-0.1c0.2,0.2,0.5,0.6,0.5,0.8c-0.2,1-0.4,2-0.8,3
				c-6.4,15.2-15.1,28.9-26.7,40.6c-11.1,11.3-24,19.9-39,25.2C-1040.2-1240-1050.6-1238.3-1060.8-1238.2z"/>
			<path id="XMLID_91_" class="st4" d="M-949-1208.2c10.6,0,21.2,0,31.7,0c6.7,0,5.9,0.7,5.3,6.1c-1.7,14.6-3.1,29.3-4.7,43.9
				c-0.2,1.5-0.5,3.1-0.9,4.6c-0.1,0.4-0.7,0.9-1.1,0.9c-0.9,0.1-1.2-0.7-1.2-1.3c0-1.6,0.1-3.1,0.2-4.7c1.1-10,2.2-20,3.3-30
				c0.2-2-0.3-2.6-2.2-2.5c-18.9,0.8-37.8,0.5-56.7,0.6c-2.4,0-4.9,0.2-7.3,0.3c-2.6,0.2-2.8,0.4-2.9,3.2c-0.7,10.7-1.3,21.5-2,32.2
				c-0.1,1.4,0.1,2.8-0.6,4.1c-0.1,0.2-0.6,0.4-0.9,0.4c-0.3,0-0.7-0.3-0.8-0.5c-0.2-0.8-0.4-1.7-0.4-2.5c0.6-11.9,1.3-23.9,2-35.8
				c0.2-3.8,0.4-7.6,0.6-11.4c0.1-1.4,0.1-2.8,0.3-4.1c0.4-2,1.1-2.6,3.2-2.7c5-0.1,10.1-0.1,15.1-0.2c6.6,0,13.2,0,19.8,0
				C-949-1207.8-949-1208-949-1208.2z M-948.9-1205.4c0,0,0,0.1,0,0.1c-10.7,0.3-21.5,0.5-32.2,0.8c-2.9,0.1-2.9,0.1-3.3,2.8
				c-0.2,1.4-0.4,2.7-0.5,4.1c-0.4,4.5-0.2,4.6,4.4,4.6c11.8,0,23.6,0.1,35.4-0.2c8.1-0.2,16.3,0.1,24.4-0.7
				c5.8-0.6,4.6,0.4,5.6-5.2c0.3-1.5,0.3-3.1,0.4-4.7c0.1-1-0.4-1.7-1.5-1.7c-1.2-0.1-2.4,0-3.6,0
				C-929.4-1205.4-939.1-1205.4-948.9-1205.4z"/>
			<path id="XMLID_88_" class="st4" d="M-1114.9-1566.3c6.3-0.2,12.2,1,17.9,3.1c2.9,1.1,5.5,2.8,7.9,4.8c5.8,5,4.5,13.7-0.8,17.6
				c-3.3,2.4-7,4-10.9,4.6c-8.2,1.4-16.5,1.6-24.7-0.9c-2.8-0.9-5.5-2-7.9-3.8c-4.8-3.6-6.3-8.6-4.3-14.2c1.8-5.1,5.5-8.3,10.6-9.9
				C-1123-1566.2-1118.9-1566.5-1114.9-1566.3z M-1091.9-1557c-1,1-0.6,2.1-0.8,3.1c-1.4,7.2-5.4,12.2-12.4,14.7
				c-2.9,1-5.8,0.8-8.8,0.6c-9.3-0.7-16.1-7.6-16.6-16.9c-0.1-0.9,0-1.7-0.1-2.6c0-0.3-0.2-0.7-0.4-0.8c-0.6-0.3-1,0.1-1.3,0.4
				c-0.7,1-1.5,1.9-2,3c-2.7,5.2-1.5,9.8,3.3,13.1c2.5,1.7,5.3,2.6,8.1,3.4c6,1.7,12.1,1,18.1,0.8c4.7-0.2,9.2-1.8,13.1-4.5
				c2.6-1.8,3.9-4.5,3.8-7.6C-1087.9-1553.2-1089.4-1555.5-1091.9-1557z"/>
			<path id="XMLID_85_" class="st4" d="M-1011.3-1566.3c3.5-0.1,7.4,0.2,11.2,1.4c5.1,1.6,8.7,4.8,10.6,9.9
				c2.1,5.6,0.6,10.7-4.2,14.2c-2,1.5-4.1,2.5-6.4,3.3c-9.5,3.2-19,3-28.6,0.8c-2.9-0.7-5.5-2-8-3.7c-5.9-4-7.2-13.1-1-18.3
				c2.8-2.4,6-4.1,9.5-5.2C-1022.9-1565.7-1018.4-1566.3-1011.3-1566.3z M-1033.6-1557.8c-8.3,3.8-6.2,13.1-0.3,16
				c1.7,0.8,3.4,1.8,5.2,2.3c9.4,2.6,18.8,2.5,28.2-0.6c2-0.7,3.8-1.7,5.5-3c5.4-4.3,4.7-13.3-1.3-16.9c-0.1-0.1-0.4-0.1-0.5-0.1
				c-0.2,0.2-0.5,0.5-0.5,0.7c0.1,1,0.4,2,0.5,3.1c0.5,6.4-2.2,11-7.7,14.1c-4.8,2.7-9.9,3-15.1,2c-7.2-1.4-11.6-5.8-13-13.2
				C-1032.9-1554.8-1033.3-1556.3-1033.6-1557.8z"/>
			<path id="XMLID_84_" class="st4" d="M-1014.9-1580.3c-9.5,0.9-18.7,0.6-27.8,2.3c-2.7,0.5-4-0.5-4.4-3.1
				c-0.4-2.4-0.7-4.8-0.7-7.2c0.1-4,1.6-5.6,5.7-5.9c3.1-0.3,6.2-0.3,9.3-0.2c10.4,0,20.7,1.6,31,2.6c1.2,0.1,2.4,0.5,3.6,0.7
				c5.6,1.1,5.8,2.9,5.4,8.1c-0.2,2.2-1.5,3.4-3.8,3.5c-2.4,0.1-4.8-0.1-7.3-0.2c-2.6-0.1-5.2-0.4-7.8-0.5
				C-1012.8-1580.3-1014-1580.3-1014.9-1580.3z"/>
			<path id="XMLID_83_" class="st4" d="M-1107.5-1591c3.5,0,6.9-0.2,10.4,0c5.4,0.3,7.7,2.6,7.3,9.5c0,0.3-0.2,0.7-0.2,1
				c-1.2,5.7-2.5,6.5-8.2,5.8c-9.3-1.1-18.5-2.2-27.9-2.6c-3.1-0.1-6.2,0.6-9.3,0.8c-4.7,0.3-7.6-3.9-5.9-8.2c0.7-1.8,2.3-2.6,4-3
				c4-0.9,8.1-1.8,12.2-2.3C-1119.3-1590.7-1113.4-1591.4-1107.5-1591z"/>
			<path id="XMLID_82_" class="st4" d="M-1065.8-1480.7c4.4,0.2,8.6-1.1,12.5-3.1c3.1-1.6,4.9-3.8,4.5-7.5c-0.2-1.7-0.2-3.5-0.5-5.2
				c-1.8-10.2-3.7-20.5-5.5-30.7c-1.3-7.7-2.5-15.4-3.7-23.1c-0.1-0.8-0.1-1.7,0-2.6c0-0.2,0.4-0.5,0.7-0.6c0.3-0.1,0.7,0,0.9,0.2
				c0.8,0.8,0.8,1.9,0.9,2.9c1.3,7.7,2.6,15.4,3.9,23.1c1.6,9.2,3.3,18.4,4.9,27.7c0.4,2.6,0.9,5.1,1.1,7.7c0.4,4-1,7.2-4.4,9.4
				c-6.9,4.5-14.6,5.4-22.5,3.9c-3.1-0.6-5.2-2.6-6.5-5.5c-1.1-2.6-1.6-5.3-1.9-8.1c-1.1-12-0.5-23.9,1.3-35.8
				c0.9-6.3,1.9-12.7,2.9-19c0.3-1.7,0.5-3.4,1.4-4.9c0.1-0.2,0.6-0.3,0.9-0.4c0.7-0.1,0.9,0.5,1,1c0.1,1,0,2.1-0.1,3.1
				c-1.1,7.2-2.1,14.4-3.3,21.6c-1.7,10.5-2.3,21-1.5,31.6c0.2,2.6,0.6,5.2,1.2,7.7c1.1,4.4,3.1,6.1,7.6,6.6
				C-1068.6-1480.6-1067.2-1480.7-1065.8-1480.7z"/>
			<path id="XMLID_79_" class="st4" d="M-1009-1465.1c0.3,14.6-8.4,26-21.5,29c-11.7,2.7-23.9-2.5-29.4-12.5c-1-1.8-1.8-3.8-2.2-5.8
				c-0.3-1.4,0.5-2.5,2-2.3c12.2,1,21-5.8,29.5-13c3.8-3.2,5.8-7.7,7.6-12.3c1.1-2.7,2-5.5,3-8.3c0.3-0.9,0.9-1.6,1.8-1.6
				c0.9-0.1,1.6,0.6,2.1,1.3c0.4,0.6,0.7,1.2,1,1.8C-1011.6-1481-1009.4-1472.9-1009-1465.1z M-1017.7-1488.1
				c-1.2,3.1-2.1,5.1-2.9,7.2c-3,7.9-8,14.1-15.1,18.6c-2.1,1.3-4.1,2.5-6.2,3.7c-4.7,2.6-9.7,4.6-15.2,4.6c-1.6,0-1.8,0.5-1.3,1.9
				c2.1,5.2,5.7,9,10.8,11.4c16.9,7.9,35.6-3.7,35.9-22.2C-1011.6-1471.3-1013.9-1479.3-1017.7-1488.1z"/>
			<path id="XMLID_78_" class="st4" d="M-939.5-1524.2c-0.3,4.9-2.6,9.5-7.5,12.7c-0.6,0.4-1.3,0.5-1.9,0.6c-0.3,0-0.7-0.2-0.8-0.5
				c-0.2-0.2-0.2-0.7-0.1-1c0.4-1.1,1.4-1.5,2.2-2.1c6.5-4.7,6.1-13.8,2.9-18.7c-2.4-3.7-5.7-6-9.8-7.3c-1.8-0.5-2.8-1.6-2.3-2.2
				c0.8-0.9,1.9-0.8,2.9-0.5C-945.9-1541.3-939.4-1533.2-939.5-1524.2z"/>
			<path id="XMLID_77_" class="st4" d="M-1165.9-1543.3c0.4,0.3,0.8,0.6,1,1c0.3,0.5-0.1,1.1-0.6,1.3c-1.3,0.5-2.6,0.9-3.9,1.5
				c-5.7,2.4-10.2,8.2-9.9,15.1c0.2,3.7,1.5,6.7,4.1,9.2c0.6,0.6,1.4,1,2,1.6c1.2,1,1.6,2,0.9,2.5c-0.8,0.7-1.6,0.3-2.4-0.2
				c-5.5-3.4-8.2-8.6-7.7-14.9c0.7-9.2,7.2-14.9,14.1-16.8C-1167.4-1543.2-1166.7-1543.2-1165.9-1543.3z"/>
		</g>
		<g id="XMLID_73_">
			<ellipse id="XMLID_75_" class="st2" cx="-992.2" cy="-1515.6" rx="20.1" ry="14.6"/>
			<ellipse id="XMLID_74_" class="st2" cx="-1133.8" cy="-1515.6" rx="20.1" ry="14.6"/>
		</g>
	</g>
	<g id="XMLID_28_">
		<g id="XMLID_32_">
			<path id="XMLID_71_" class="st3" d="M-354.4-428.5c-29.5,0-59,0.3-88.5-0.1c-47.6-0.6-95.1-0.7-142.7-1
				c-20.5-0.1-41-0.4-61.4-0.6c-0.2,0-0.3,0-0.5,0c-4-0.1-4-0.1-3.5-4.1c5.2-35.8,17.8-68.7,39.1-98.1c9.7-13.4,20-26.2,32.5-37.1
				c5.6-4.9,11.6-9.4,17.8-13.6c18.6-12.3,38.1-22.8,58.7-31.3c22.9-9.5,46.3-17.8,70-25c2.3-0.7,4.7-1.3,7.1-1.7
				c2.2-0.4,2.7,0,3,2.3c1.1,6.6,4.6,11.9,8.7,16.9c3.6,4.3,8,7.7,12.8,10.5c10.8,6.4,22.5,9.9,34.9,11.3c25.9,2.8,48.7-4.7,69-20.5
				c5.3-4.1,9.7-8.9,12.4-15.2c1.3-3,2.6-3.4,5.9-2.6c7.3,1.7,14.4,3.9,21.5,6.3c20.4,6.8,40.6,14.2,60.4,22.6
				c21.3,9.1,41.3,20.5,60.2,33.9c10.5,7.4,19.8,16.4,28.2,26.2c12.5,14.6,23.1,30.3,32.3,47.2c9.8,18,15.5,37.4,19.8,57.3
				c0.9,4.2,1.8,8.5,2.3,12.8c0.6,5.2-0.3,6.2-5.6,6.1c-16.8,0-33.7-0.2-50.5-0.2c-0.9,0-1.7-0.1-2.6-0.1
				c-21.9-0.1-43.7-0.3-65.6-0.4c-39.1-0.2-78.1-0.4-117.2-0.7c-19.4-0.2-38.9-0.5-58.3-0.7C-354.4-428.3-354.4-428.4-354.4-428.5z"
				/>
			<path id="XMLID_67_" class="st4" d="M-408-785.6c6.4-0.2,12.3,0.9,18,3.1c3,1.1,5.6,2.7,8,4.8c6,5.1,4.7,14-1,18
				c-3.3,2.3-7,3.9-10.9,4.5c-7.9,1.2-15.8,1.5-23.6-0.8c-3-0.9-5.9-2-8.4-3.9c-5-3.7-6.6-8.8-4.3-14.6c2-5,5.6-8.2,10.8-9.7
				C-415.7-785.4-411.7-785.8-408-785.6z M-390.1-759.6c2.9-0.6,4.5-1.6,5.9-2.7c4.4-3.6,4.6-9,0.7-13.1c-0.6-0.6-1.3-1.1-2-1.6
				c-0.4-0.3-0.9-0.6-1.3-0.2c-0.2,0.2-0.3,0.6-0.2,0.9C-385.9-770.7-386.5-765.4-390.1-759.6z M-422-760.8
				c-0.5-3.6-1.4-6.6-1.4-9.7c0-3.3,1.4-6.3,1.9-10.1c-4.6,2.5-6.7,6.1-7,10.6C-428.8-765.7-426.4-762.9-422-760.8z"/>
			<path id="XMLID_63_" class="st4" d="M-305.2-785.6c4.2-0.1,8.2,0.2,12,1.3c5.1,1.5,8.8,4.7,10.8,9.7c2.2,5.8,0.7,11-4.4,14.6
				c-3,2.2-6.4,3.4-10,4.2c-8.2,2-16.4,1.6-24.6-0.2c-2.7-0.6-5.2-1.8-7.6-3.3c-6.6-4-8-13.6-1.4-18.9c2.9-2.3,6-4,9.5-5.1
				C-315.6-784.9-310.4-785.9-305.2-785.6z M-284.1-770.1c-0.5-4.1-2.2-7.8-6.4-10.1c-0.3-0.2-0.7-0.4-0.9-0.3
				c-0.6,0.2-0.5,0.8-0.4,1.2c1.9,5.9,2.2,11.8-0.1,17.7c-0.1,0.2-0.2,0.4-0.1,0.5c0.2,0.2,0.5,0.6,0.7,0.5
				C-287.6-761.3-284.1-765.8-284.1-770.1z M-326.4-777.4c-0.2,0-0.3,0-0.5,0.1c-6.5,3.8-6.9,11.3-0.8,15.6c0.7,0.5,1.8,1.2,2.3,0.9
				c1.2-0.7,0.3-1.8-0.1-2.7c-0.9-2.3-0.9-4.7-0.8-7.1c0.1-2.1,0.3-4.1,0.5-6.2C-325.8-776.9-326.2-777.2-326.4-777.4z"/>
			<path id="XMLID_60_" class="st4" d="M-353.8-614.7c-13.3,0.4-26.3-1.2-39-5.3c-10.2-3.3-19.5-8.1-27.9-14.8
				c-15.3-12.3-25.1-28.1-30.2-46.9c-3.9-14.6-5-29.4-3.6-44.4c0.2-2.5,0-2.9-2.7-3.2c-9.5-0.9-17.7-4.8-24.3-11.8
				c-6-6.4-9.1-14.1-8.7-22.7c0.4-10.1,5-18.3,13-24.5c0.5-0.4,1.1-0.8,1.7-1.2c4.3-2.9,3.4-1.7,2.7-6.7
				c-3.7-25.1-0.7-49.1,10.6-71.9c4.7-9.5,10.7-17.8,19.2-24.2c6.8-5.1,14.3-7.8,22.8-7.1c3.6,0.3,7.2,1.2,10.6,2.4
				c1.7,0.6,3.3,0.8,5-0.2c7.6-4.2,16.1-5.6,24.5-6.2c9.1-0.7,18.3-1.3,27.6-0.6c10.1,0.8,19.9,2.7,29.7,4.9c1.4,0.3,2.7,0.6,4,1.1
				c1.1,0.3,2,0.3,3-0.2c12-5.2,23.8-3.8,35.3,1.4c11.9,5.3,21.2,13.7,28,24.9c4.7,7.8,8,16.1,10.6,24.8c4.1,14.2,6.4,28.8,5.9,43.6
				c-0.1,3-0.8,5.8-1.1,8.8c-0.2,1.4,0.2,2.3,1.4,3c3.6,1.9,6.7,4.3,9.5,7.2c6,6.4,9.2,14,8.8,22.7c-0.4,10-4.9,18.3-12.8,24.6
				c-5.6,4.4-11.9,7-19,7.8c-0.7,0.1-1.4,0.1-2.1,0.2c-1.5,0.2-2,0.9-1.8,2.5c0.9,6.6,0.8,13.2,0.4,19.8c-0.8,15-3.9,29.6-10.8,43.1
				c-12.5,24.4-32.3,39.3-58.7,45.9C-332.7-615.3-343.2-614.4-353.8-614.7z M-361.9-901.5c-8,0-15.1,0.6-22.2,1.3
				c-12.5,1.2-23.6,6.2-33.2,13.7c-9.3,7.2-16.4,16.5-20.7,27.6c-5.6,14.5-9,29.5-10.6,44.9c-0.6,5.5-0.8,11.1-0.9,16.6
				c0,3.1-0.9,3.9-4.1,4.2c-0.7,0.1-1.4,0-2.1,0c-7.9,0.2-14.9,3-20.9,8.1c-13.6,11.4-14.3,30.8-1.6,43.2c5.9,5.8,13.2,8.8,21.3,9.9
				c5.4,0.7,5.6,0.7,5.2,6c-0.7,10.6-0.6,21.2,1.1,31.7c1.9,12.1,5.6,23.6,11.8,34.2c12.6,21.4,31.6,34.1,55.5,39.7
				c12.4,2.9,25.1,3.4,37.8,2.8c8.5-0.4,16.9-1.5,25.2-3.8c22.2-6.2,39.7-18.6,51.5-38.7c7.9-13.4,11.8-28.1,13-43.5
				c0.6-7.3,0.4-14.6,0-21.8c-0.4-5.8-0.3-5.8,5.6-6.6c8.9-1.2,16.6-4.8,22.6-11.7c9.3-10.6,9.7-25.8,1-36.8
				c-4.6-5.8-10.5-9.4-17.6-11.5c-3.2-1-6.5-1.1-9.8-1.2c-2.7-0.1-3.5-0.8-4-3.2c-0.4-2-0.7-4.1-1-6.2c-0.7-7.1-1.3-14.2-2.1-21.2
				c-2.1-19.4-9.9-36.4-22-51.4c-6.7-8.3-15.1-14.2-25.6-17c-5.4-1.4-10.6-3.1-16-4.4C-337.2-899.6-349.8-901.9-361.9-901.5z"/>
			<path id="XMLID_59_" class="st4" d="M-360.9-576.1c-20.7-0.3-42.5-7.8-61.2-23.9c-8.3-7.2-15.1-15.8-20.2-25.6
				c-0.5-1.1-1.4-2-1.2-3.4c0.1-0.3,0.3-0.7,0.6-0.8c0.2-0.1,0.7-0.1,1,0c1.2,0.6,1.5,1.8,2.1,2.9c3.2,6,6.9,11.6,11.4,16.7
				c13.7,15.5,30.9,25.1,51,29.3c25.3,5.2,49.3,1.1,71.6-12.1c13.6-8,24.4-18.8,32.4-32.4c0.5-0.9,1-1.8,1.6-2.7
				c0.5-0.7,1-1.6,2-0.9c0.8,0.6,0.6,1.6,0.2,2.4c-0.8,1.5-1.6,3.1-2.6,4.5c-11.2,17.8-26.7,30.4-46,38.3
				C-330.4-578.7-343.7-576.1-360.9-576.1z"/>
			<path id="XMLID_58_" class="st4" d="M-222.9-467.6c0.4,0.1,0.9,0.1,1,0.3c0.4,0.7,0.8,1.5,1,2.3c2,10.6,5.3,20.8,8.2,31.1
				c0.1,0.5,0.3,1,0.3,1.5c0,0.3-0.3,0.6-0.6,0.7c-0.3,0.1-0.7,0.1-1-0.1c-0.9-0.4-1.2-1.2-1.4-2.1c-2.6-9.1-5.7-18.1-7.4-27.5
				c-0.3-1.7-1.2-3.3-0.9-5.1C-223.5-466.8-223.1-467.2-222.9-467.6z"/>
			<path id="XMLID_57_" class="st4" d="M-515.8-437.4c0.2-0.9,0.4-2.3,0.8-3.6c2-7,3.9-14,5.1-21.2c0.1-0.7,0.3-1.4,0.7-2
				c0.2-0.4,0.7-0.8,1.3-0.4c0.3,0.2,0.6,0.4,0.7,0.7c0.1,0.5,0.2,1,0.1,1.5c-1.5,8.9-4.1,17.5-6.3,26.3c-0.1,0.6-0.6,1.4-1.5,0.9
				c-0.4-0.2-0.5-0.8-0.8-1.2C-515.9-436.6-515.8-436.8-515.8-437.4z"/>
			<path id="XMLID_56_" class="st4" d="M-363.7-592.6c-0.5,2.8-0.9,5.5-2,8c-0.1,0.3-0.8,0.4-1.3,0.5c-0.1,0-0.5-0.5-0.5-0.8
				c-0.3-2.8,0.9-5.4,1.4-8c0.1-0.6,0.6-1.2,1.5-1.1C-363.7-593.9-363.7-593.2-363.7-592.6z"/>
			<path id="XMLID_55_" class="st4" d="M-372.4-584.6c-0.8-0.2-1.2-0.6-1.1-1.1c0.5-3,1.4-6,2.7-8.7c0.2-0.4,0.6-0.8,1.2-0.6
				c0.5,0.1,1,0.5,0.9,1c-0.7,3-1.4,6-2.7,8.8C-371.6-584.9-372-584.5-372.4-584.6z"/>
			<path id="XMLID_54_" class="st4" d="M-334.9-595.3c0-1.2,0.3-1.6,0.8-1.8c0.6-0.3,1.1,0.1,1.3,0.5c1.1,2.7,2,5.5,1.9,8.4
				c0,0.5-0.3,1-0.9,1c-0.6,0-1-0.3-1.1-0.8C-333.7-590.6-334.4-593.2-334.9-595.3z"/>
			<path id="XMLID_53_" class="st4" d="M-301-600.1c-0.4,0.3-0.7,0.6-0.9,0.6c-0.5,0-1-0.2-1.4-0.5c-1.9-1.8-3.3-3.9-4.6-6.2
				c-0.2-0.4-0.3-1,0.3-1.4c0.5-0.3,0.9-0.3,1.4,0c0.3,0.2,0.5,0.4,0.7,0.7c1.4,1.8,2.7,3.5,4,5.3C-301.1-601-301.1-600.5-301-600.1
				z"/>
			<path id="XMLID_52_" class="st4" d="M-277.4-623.8c0,0.2,0,0.4-0.1,0.5c-0.3,0.4-0.8,0.7-1.3,0.5c-2.3-1.1-4.4-2.4-6.2-4.3
				c-0.1-0.1-0.2-0.3-0.2-0.5c0-0.3,0.1-0.6,0.2-0.9c0.2-0.4,0.5-0.5,0.8-0.3c2.4,1.2,4.7,2.6,6.6,4.6
				C-277.4-624.2-277.4-624-277.4-623.8z"/>
			<path id="XMLID_51_" class="st4" d="M-336.8-588.3c-0.4,0.5-0.6,1.2-0.9,1.3c-0.4,0.1-1.2-0.2-1.3-0.5c-0.8-2.6-1.7-5.1-1.6-7.9
				c0-0.5,0.4-0.9,0.9-1c0.6-0.1,1,0.3,1.2,0.8C-337.9-593.2-337.4-590.7-336.8-588.3z"/>
			<path id="XMLID_50_" class="st4" d="M-427.2-636.2c-0.2,0.3-0.3,0.7-0.6,0.8c-2.2,1-4.4,1.9-6.6,2.7c-0.3,0.1-0.9-0.3-1.3-0.6
				c-0.1-0.1,0-0.7,0.2-0.9c2-2,4.6-2.8,7.4-3C-427.6-637.3-427.2-636.8-427.2-636.2z"/>
			<path id="XMLID_49_" class="st4" d="M-274.7-627.6c-0.2,0.5-0.5,1-1.1,0.8c-2.5-0.7-4.8-1.9-6.9-3.4c-0.3-0.2-0.4-0.9-0.3-1.4
				c0.1-0.5,0.7-0.8,1.2-0.5c2.2,1,4.3,2.1,6.4,3.2C-274.9-628.6-274.5-628.2-274.7-627.6z"/>
			<path id="XMLID_48_" class="st4" d="M-401.6-606c-0.1,0.4,0,1-0.3,1.4c-1.2,1.7-2.4,3.3-3.7,4.8c-0.4,0.5-1.1,0.7-1.8,0.1
				c-0.5-0.4-0.4-0.9-0.1-1.4c1.4-1.9,2.8-3.8,4.3-5.7c0.2-0.2,0.7-0.3,0.9-0.2C-402-606.8-401.8-606.4-401.6-606z"/>
			<path id="XMLID_47_" class="st4" d="M-411.7-603.1c-0.2-0.3-0.5-0.6-0.5-0.8c1.1-3,3.4-5,5.8-6.8c0.2-0.1,0.7,0.1,0.9,0.3
				c0.2,0.2,0.5,0.7,0.4,0.8c-1.5,2.5-3.3,4.7-5.7,6.4C-411-603-411.4-603.1-411.7-603.1z"/>
			<path id="XMLID_46_" class="st4" d="M-298.7-603.6c-0.2,0.5-0.6,1-1.1,0.7c-2.2-1.4-3.8-3.3-4.7-5.7c-0.1-0.2,0.2-0.6,0.5-0.8
				c0.2-0.1,0.7-0.2,0.9-0.1c1.9,1.4,3.4,3.3,4.5,5.4C-298.5-604-298.6-603.8-298.7-603.6z"/>
			<path id="XMLID_45_" class="st4" d="M-427-633c0.4,0.3,1,0.5,1.1,0.9c0.1,0.4-0.3,0.9-0.6,1.3c-0.1,0.1-0.3,0.2-0.5,0.2
				c-1.8,0.3-3.4,2-5.3,0.6c-0.1-0.1-0.1-0.3-0.1-0.5C-431.2-632.6-429.1-632.6-427-633z"/>
			<path id="XMLID_44_" class="st4" d="M-311.7-817.6c8.9,0.4,17.6,1.8,26,4.5c2.3,0.8,4.5,1.7,6.7,2.8c1.2,0.6,2.3,1.5,3.2,2.6
				c1.8,2,1.5,4.6-0.6,6.4c-1.2,1-2.7,1.7-4.2,1.9c-3.8,0.5-7.5,1.2-11.4,0.9c-7.8-0.7-15.5-1-23.1-2.9c-3.2-0.8-6.4-1.6-9.2-3.4
				c-1.2-0.7-2.4-1.5-3.3-2.5c-2-2.2-1.9-4.9,0.2-6.9c1.8-1.6,3.9-2.9,6.4-3.2C-317.9-817.7-314.8-817.8-311.7-817.6z"/>
			<path id="XMLID_43_" class="st4" d="M-419-801.4c-3.3,0-6.6,0.1-9.9,0c-2.6-0.1-5.1-0.8-7.4-2.3c-2.2-1.5-2.6-3.6-1.1-5.8
				c0.8-1.2,1.8-2.1,3-2.8c1.7-0.9,3.3-1.9,5.1-2.5c12.1-3.8,24.4-4.8,36.9-2.2c1.3,0.3,2.7,0.7,4,1.2c2,0.9,3.6,2.3,3.7,4.6
				c0.1,2.1-1.2,3.5-2.9,4.6c-1.8,1.1-3.7,1.8-5.8,2.3C-401.8-802.2-410.4-801.4-419-801.4z"/>
			<path id="XMLID_42_" class="st4" d="M-355.5-721.2c5.3-0.2,11.2-2.7,16.1-7.6c2.2-2.2,3.3-4.8,3.5-7.9c0.2-4.7-1-8.9-3.3-12.9
				c-1.6-2.7-3.4-5.2-5.6-7.5c-0.6-0.6-1.1-1.3-1.5-2.1c-0.1-0.2,0.1-0.7,0.3-0.9c0.2-0.2,0.7-0.4,0.9-0.4c0.6,0.3,1.3,0.6,1.7,1.1
				c5.7,5.5,9.4,12.1,10.3,19.9c0.5,4.3-0.6,8.3-3.6,11.6c-6,6.6-13.5,9.6-22.3,9.3c-11.5-0.5-19.6-9.6-19.3-21.6
				c0.2-7.4,3.2-13.8,7.3-19.7c0.3-0.4,0.8-0.7,1.2-0.9c0.2-0.1,0.7,0.1,0.9,0.3c0.2,0.2,0.5,0.6,0.4,0.9c-0.4,0.9-0.8,1.9-1.4,2.7
				c-2.2,3.6-3.9,7.4-5,11.4c-1,3.4-1.1,6.9-0.3,10.3C-373.2-726.4-366.3-721-355.5-721.2z"/>
			<path id="XMLID_41_" class="st4" d="M-375.1-832.4c16.1,1,32.1,2,48,4.8c0.8,0.1,1.8,0,2.4,0.8c0.2,0.2,0.4,0.6,0.3,0.9
				c0,0.3-0.3,0.7-0.6,0.7c-1.7,0.4-3.4,0.1-5.2-0.2c-6.2-0.8-12.3-1.7-18.5-2.5c-0.7-0.1-1.4-0.3-2.1-0.3
				c-12.3-0.3-24.5-2.1-36.8-1.3c-0.2,0-0.3,0-0.5,0c-1,0-2.1,0.2-2.7-0.9c-0.4-0.8,0.7-1.5,2.7-1.6
				C-383.8-832.1-379.4-832.2-375.1-832.4z"/>
			<path id="XMLID_40_" class="st4" d="M-355.1-679c-5.9-0.2-11.7-0.5-17.6-1.4c-1.9-0.3-3.7-0.7-5.6-1.1c-0.7-0.2-1.4-0.6-1.3-1.4
				c0.2-1.2,1.2-1,2-1c0.7,0,1.4,0.2,2.1,0.3c6.8,1.2,13.7,1.8,20.6,2c11.4,0.2,22.3-1.8,32.8-6.6c2.5-1.2,4-1.2,4.1-0.3
				c0,1.8-1.7,2.1-2.8,2.6C-331.7-680.7-343.2-678.8-355.1-679z"/>
			<path id="XMLID_39_" class="st4" d="M-459.2-780.4c0.8,0.1,1.4,0.4,1.4,1.2c0,0.4-0.3,1.1-0.6,1.3c-1.3,0.5-2.6,0.8-3.9,1.4
				c-4.8,2-7.9,5.5-9.4,10.5c-1.6,5.5-0.1,10.3,4.1,14.1c0.8,0.7,1.7,1.2,2.5,1.9c0.6,0.5,0.8,1.1,0.3,1.8c-0.5,0.6-1.2,0.6-1.9,0.3
				c-4.6-2.4-7.4-6.3-8.1-11.4c-1.5-10.5,5.7-19,15.2-21C-459.5-780.4-459.3-780.4-459.2-780.4z"/>
			<path id="XMLID_38_" class="st4" d="M-232.6-764.4c0,8-2.3,12.4-6.9,15.6c-0.7,0.5-1.5,0.7-2.4,1c-0.2,0.1-0.7-0.2-0.9-0.4
				c-0.4-0.4-0.4-1-0.1-1.4c0.5-0.5,1-1,1.6-1.3c8.5-5.7,7.6-17.8-0.8-23.8c-1.4-1-3-1.6-4.6-2.4c-0.6-0.3-1.3-0.3-2-0.5
				c-1-0.3-1.5-1.3-1.1-2c0.4-0.7,1.1-0.9,1.8-0.7C-239.2-778.8-232.6-770.9-232.6-764.4z"/>
			<path id="XMLID_37_" class="st4" d="M-367-842.7c7.7,0.2,15.2,1.4,22.7,2.7c1.5,0.3,3.1,0.6,4.6,1c0.7,0.2,1.4,0.5,1.4,1.3
				c0,0.9-0.8,1-1.5,1c-1,0-2.1-0.1-3.1-0.3c-10.6-2.2-21.2-3.5-32-2.9c-0.9,0-1.7,0-2.6-0.1c-0.4-0.1-0.9-0.5-1-0.9
				c-0.2-0.9,0.5-1.2,1.2-1.3C-373.9-842.4-370.5-842.5-367-842.7z"/>
			<path id="XMLID_36_" class="st4" d="M-412.8-689.8c-0.7-0.1-1.2-0.3-1.3-0.9c-0.1-0.6,0.3-1,0.7-1.2c0.9-0.5,1.9-0.8,2.9-1.1
				c7.5-2.3,12.7-7.5,16.8-14c0.7-1.2,1.4-2.4,2.2-3.5c0.3-0.4,0.8-0.7,1.4-0.4c0.5,0.2,0.7,0.7,0.7,1.3c0,0.2,0,0.4-0.1,0.5
				c-4.6,9.5-11.4,16.5-21.9,19.3C-412-689.8-412.5-689.8-412.8-689.8z"/>
			<path id="XMLID_35_" class="st4" d="M-362.3-853.6c5.2,0.4,9.8,0.7,14.5,1.1c0.7,0.1,1.4,0.2,2,0.5c0.6,0.3,1.3,0.6,1.2,1.5
				c-0.2,0.8-0.9,1.1-1.5,1c-4.4-1-9-0.6-13.4-1c-3-0.3-5.9,0.1-8.8,0.1c-0.9,0-1.7-0.1-2.6-0.2c-0.2,0-0.5-0.5-0.6-0.8
				c-0.3-0.6,0.1-1,0.6-1.2c0.6-0.2,1.3-0.4,2-0.5C-366.6-853.3-364.2-853.5-362.3-853.6z"/>
			<path id="XMLID_34_" class="st4" d="M-315.4-714.9c0.3,0.1,0.8,0.1,0.9,0.3c0.5,0.9,1,1.8,1.3,2.8c2.6,6.5,6.8,11.5,12.8,15.2
				c1.4,0.9,3.2,1.5,4,3.2c0.1,0.3,0.1,0.7-0.1,1c-0.1,0.2-0.5,0.4-0.8,0.5c-0.1,0.1-0.4,0-0.5,0c-8.4-4.4-14.9-10.5-18.1-19.7
				c-0.3-0.8-0.5-1.7-0.2-2.5C-316.1-714.6-315.7-714.7-315.4-714.9z"/>
			<path id="XMLID_33_" class="st4" d="M-347.9-669.1c-1.6-0.1-3.3,0.4-4.9-0.6c-0.2-0.1-0.5-0.6-0.4-0.8c0-0.3,0.3-0.7,0.5-0.7
				c1.2-0.2,2.4-0.2,3.6-0.3c5.7-0.4,11.4-0.7,16.9-2.7c1.8-0.7,3.5-1.4,5.3-2.1c0.6-0.2,1.3-0.2,2-0.2c0.3,0,0.7,0.3,0.8,0.6
				c0.1,0.3,0,0.8-0.3,0.9c-0.8,0.6-1.7,1.2-2.6,1.6C-333.6-670.5-340.6-669.2-347.9-669.1z"/>
		</g>
		<g id="XMLID_29_">
			<ellipse id="XMLID_31_" class="st2" cx="-281.5" cy="-739.5" rx="20.1" ry="14.6"/>
			<ellipse id="XMLID_30_" class="st2" cx="-423.1" cy="-739.5" rx="20.1" ry="14.6"/>
		</g>
	</g>
	<path id="XMLID_143_" class="st4" d="M-1432.6-800.6"/>
	<g id="XMLID_244_">
		<circle id="XMLID_258_" class="st5" cx="1359.6" cy="-1403.1" r="21.2"/>
		<circle id="XMLID_257_" class="st5" cx="1216.8" cy="-1403.1" r="21.2"/>
	</g>
	<path id="XMLID_236_" class="st6" d="M607.3-1404.6c-1.2,1.3-1.4,3-1.8,4.6c-0.9,3.2-1.8,6.3-2.8,9.4c-4.9,15.3-15,26-29.1,33.2
		c-3.2,1.7-6.6,3.1-10,4.3c-17,6.2-34.6-2.9-41.5-13c-3.2-4.7-6-9.6-8.4-14.7c-1.8-4-2.4-8.4-3-12.7c-0.8-5.4-0.9-10.9-0.7-16.4
		c0.1-1.9,0.8-2.6,2.6-2.9c1.1-0.1,2.2-0.1,3.3-0.1c34.1,0.1,68.2,0.2,102.3,0.4c7.7,0,15.3,0.1,23,0.2c18.1,0.1,36.1,0.2,54.2,0.3
		c5.5,0,5.9,0.5,5,6.1c-0.6,3.6-1.2,7.2-2,10.7c-2.4,10.1-7.1,19.2-13.8,27c-8.3,9.7-19.2,13.6-31.8,11.9
		c-10.8-1.4-19.3-7.2-26.6-14.9c-7.6-8.1-12.5-17.9-16.4-28.2C609.1-1401.1,609-1403.2,607.3-1404.6z M605.3-1408.9
		c-1.4-0.8-2.7-0.6-4-0.6c-19.9-0.1-39.7-0.3-59.6-0.4c-4.6,0-9.1-0.2-13.7-0.3c-4-0.1-8-0.1-12,0c-2.6,0.1-3.3,0.7-3.3,3.3
		c0,4.2,0.5,8.3,0.8,12.5c0.8,11.5,5.8,21.2,13.3,29.3c8.8,9.6,20.2,13.5,33.2,10.1c9.4-2.5,18-7.1,25.2-13.7
		c5.4-5,9.9-10.6,12.9-17.5C601.4-1393.5,602.7-1401.4,605.3-1408.9z M653.9-1409.1c0-0.1,0-0.2,0-0.3c-12.8,0-25.5,0-38.3,0
		c-1.5,0-2.9,0-4.4,0.1c-0.8,0.1-1.3,0.6-1.2,1.5c0.2,1.1,0.5,2.1,0.8,3.2c2,5.9,4.4,11.6,7.1,17.1c3.7,7.4,8.8,13.9,15.1,19.2
		c6.1,5.1,12.9,8.7,21.1,9.5c11.7,1.2,21.3-2.6,28.7-11.4c8.3-9.9,13-21.4,14.6-34.2c0.1-0.9,0.2-1.8,0.2-2.7c0-1-0.6-1.7-1.6-1.8
		c-1.1-0.1-2.2-0.1-3.3-0.1C679.8-1409.1,666.9-1409.1,653.9-1409.1z"/>
	<path id="XMLID_232_" class="st6" d="M1347-1473.8c-5.6-0.6-10.9-2.6-15.2-6.9c-0.5-0.5-1-1.1-1.4-1.7c-1.4-2.3-0.5-4.8,2.2-5.6
		c0.9-0.3,1.8-0.4,2.7-0.4c5.4,0.2,10.4,1.6,14.9,4.6c1,0.7,2,1.7,2.7,2.7c2.2,3.2,0.6,6.7-3.3,7.2
		C1348.9-1473.8,1348.1-1473.9,1347-1473.8z"/>
	<path id="XMLID_231_" class="st6" d="M1221.3-1473.8c-1.1-0.2-2.2-0.2-3.2-0.5c-2.7-0.9-3.7-3.7-2.4-6.2c0.9-1.7,2.2-2.9,3.8-3.9
		c4.2-2.4,8.7-3.7,13.5-4.1c0.5,0,1.1,0,1.6,0c1.9,0.1,3.7,0.7,4.5,2.6c0.8,2-0.3,3.5-1.6,4.9
		C1233.1-1476.4,1227.6-1474.3,1221.3-1473.8z"/>
	<path id="XMLID_227_" class="st6" d="M1286.3-1347c-4.3,0.3-8-0.5-11.8-1.2c-4.8-0.9-8.8-3.5-12.4-6.6c-0.5-0.4-0.9-1.1-1.2-1.8
		c-0.1-0.2,0.1-0.7,0.3-1c0.2-0.2,0.7-0.4,0.9-0.3c0.6,0.3,1.3,0.7,1.8,1.1c5,4.4,10.9,6.3,17.5,6.7c5.5,0.3,10.9,0.1,16.3-1
		c7.6-1.6,13.9-5.3,19-11.1c1.1-1.2,1.9-2.7,3.5-3.4c0.5-0.2,1.1-0.1,1.4,0.4c0.2,0.3,0.2,0.7,0.2,1c0,0.2-0.1,0.4-0.2,0.5
		c-6.3,8-14.1,13.7-24.3,15.4C1293.5-1347.4,1289.8-1346.5,1286.3-1347z"/>
	<path id="XMLID_226_" class="st6" d="M1286.2-1387.4c-1.8,0-3.6,0.1-5.5,0c-0.7,0-1.3-0.4-1.9-0.8c-0.2-0.1-0.3-0.6-0.3-1
		c-0.1-0.7,0.4-1.1,0.9-1.1c4.6,0.5,9.1,0.5,13.6-0.4c0.7-0.1,1.5-0.2,2.2-0.3c4-1,5-2.2,4.9-6.6c0-3.7-0.7-7.3-1.5-10.8
		c-2.1-9.4-4.3-18.8-6.5-28.2c-0.2-0.7-0.2-1.4-0.2-2.1c0-0.3,0.4-0.6,0.7-0.7c0.3-0.1,0.7,0,1,0.2c0.8,0.8,1.2,1.8,1.4,2.9
		c2.4,10.8,4.9,21.7,7.2,32.5c0.5,2.5,0.6,5.1,0.6,7.6c0,4-1.4,6.1-5.3,7.3c-2.6,0.8-5.3,1.4-8,1.4
		C1288.4-1387.5,1287.3-1387.4,1286.2-1387.4C1286.2-1387.4,1286.2-1387.4,1286.2-1387.4z"/>
	<path id="XMLID_223_" class="st6" d="M1175-1433.4c-8.3-1.9-13.2,8-10.3,14.6c1,2.2,2.4,4.1,3.8,6c0.3,0.4,0.7,0.8,1,1.3
		c0.4,0.7,0.6,1.4-0.2,1.9c-0.4,0.2-1.2,0.2-1.5-0.1c-4.8-4.5-7.6-9.8-6.3-16.5c1.2-6.7,7-10.8,13.9-9.8c0.9,0.1,1.8,0.2,2.7,0.4
		c0.6,0.1,0.9,0.6,1,1.1c0.1,1-0.7,1.2-1.4,1.2C1176.8-1433.2,1175.9-1433.3,1175-1433.4z"/>
	<path id="XMLID_222_" class="st6" d="M1393.4-1433.2c-0.4,0-1.3,0-2.2,0c-0.6,0-1.1-0.3-1.2-0.8c0-0.4,0.3-1.3,0.6-1.3
		c3-0.7,6-1.7,9.1-0.4c4.2,1.8,6.8,4.9,7.8,9.2c0.9,4,0.5,8-1.9,11.5c-1.3,2-2.6,4-4.5,5.4c-0.5,0.4-1,0.2-1.5-0.1
		c-0.6-0.4-0.5-1-0.2-1.4c1.3-2,2.8-3.8,4-5.8c2.7-4.6,2.2-9.5-0.8-13.3C1400.3-1433.2,1397.4-1433.9,1393.4-1433.2z"/>
	<path id="XMLID_221_" class="st6" d="M1288.1-1332.2c-2,0.1-4,0.7-6,0c-0.4-0.2-1-0.7-1-1.1c0-0.4,0.5-1.1,0.9-1.2
		c1.2-0.2,2.5-0.3,3.8-0.4c2.4-0.1,4.7-0.1,7.1-0.3c5.5-0.6,10.7-2.1,15.1-5.7c0.5-0.4,1-0.3,1.5,0c0.8,0.6,0.5,1.3,0,1.9
		c-2.6,2.7-6,4.1-9.5,5.2C1296.1-1332.7,1292.1-1332.4,1288.1-1332.2z"/>
	<path id="XMLID_216_" class="st6" d="M1235-1427.8c-6.1,0.2-11.3-0.7-16.4-2.2c-2.6-0.8-5.1-2-7.3-3.6c-5.2-3.8-6.8-9.5-4.3-15.5
		c2-4.9,5.4-8.1,10.4-9.7c5.3-1.7,10.7-2.2,16.2-1.8c5.3,0.4,10.5,1.4,15.5,3.3c3.3,1.3,6.2,3.1,8.8,5.4c5.7,5,4.6,14.2-0.8,18.2
		c-3.4,2.6-7.3,4.1-11.4,5C1241.9-1428,1238.1-1427.9,1235-1427.8z M1258.8-1443.5c0-3-1-5.1-3.9-7.4c-4.5-3.6-9.9-5.2-15.5-6.2
		c-0.9-0.2-1.3,0.6-0.8,1.9c2.2,5.9,3.2,11.8,1.9,18.1c-0.4,1.8-1.2,3.4-1.9,5.1c-0.2,0.5,0.2,1.2,0.7,1.1
		c5.7-0.4,11.1-1.6,15.8-5.1C1257.6-1437.8,1258.9-1440.4,1258.8-1443.5z"/>
	<path id="XMLID_123_" class="st6" d="M1334.5-1427.9c-5.1,0.1-10.2-0.3-15.1-2c-2.4-0.8-4.7-2-6.8-3.4c-6.1-4.2-7.3-13.7-1.1-18.9
		c2.7-2.3,5.6-4.1,8.9-5.2c9.1-3.2,18.4-4.3,28-2.3c5.8,1.2,10.6,3.8,13.3,9.4c2.8,5.8,2.2,12.9-4.6,17.2
		c-5.1,3.3-10.7,4.4-16.5,5.1C1338.5-1427.7,1336.5-1427.9,1334.5-1427.9z M1343.9-1457c3.8,8.4,4,16.8-0.4,25.6
		c5.5-0.6,10-2.1,13.8-5.5c3.1-2.8,4-6.4,2.5-10.4C1357.4-1453.9,1351.6-1457.5,1343.9-1457z"/>
	<path id="XMLID_27_" class="st1" d="M-1047.6,85.5c-5.5,0.2-10.9,0.3-16.4,0.5c-3.4,0.1-3.7,0-4.8-3.1c-2.6-7.8-4.7-15.7-6.5-23.7
		c-1.2-5.3-2.2-10.7-3.4-16c-0.2-1.1-0.5-2.1-1-3.1c-0.2-0.4-0.9-0.6-1.4-0.6c-0.4,0-1,0.5-1.2,0.9c-0.8,1.3-0.6,2.8-0.6,4.3
		c-0.2,12.2,0,24.4,2.2,36.5c0.2,1.1,0.4,2.1,0.6,3.2c0.1,1.1-0.5,1.7-1.5,1.8c-0.2,0-0.4,0.1-0.5,0.1c-5.5,0.1-10.9,0.2-16.4,0.2
		c-1.9,0-2.6-0.6-2.9-2.6c-0.7-3.9-1.2-7.9-1.9-11.9c-0.2-1.3-0.4-2.5-0.6-3.8c-0.2-0.8-0.7-1.2-1.5-1.3c-0.8-0.1-1.5,0.3-1.8,1
		c-1,2.4-1.7,4.8-1.6,7.4c0,2.9,0.1,5.8,0.2,8.7c0.1,2-0.2,2.4-2,2.4c-4.4,0-8.8,0-13.1-0.4c-10.7-0.8-21.4-1.8-32.1-2.7
		c-0.5,0-1.1-0.1-1.6-0.1c-2.5-0.3-2.7-0.5-3.3-2.8c-0.3-1.1-0.5-2.1-0.6-3.2c-1.1-10.3-1.8-20.7-0.7-31.1c0.3-2.3,0.2-4.7,0.1-7.1
		c0-1-0.6-1.7-1.7-1.8c-0.8-0.1-1.5,0.4-1.8,1c-0.6,1.3-1.1,2.7-1.5,4.1c-3.4,11.1-4,22.6-3.4,34.1c0.1,1.1,0.2,2.2,0.2,3.3
		c0,2-0.6,2.5-2.7,2.2c-2.2-0.3-4.3-0.7-6.5-0.9c-1.1-0.1-1.7,0.6-1.8,1.6c-0.4,6-1.1,12,0.5,17.9c0.3,1.2,0.5,2.5,0.6,3.8
		c0.1,1.3-1.1,2.1-2.1,1.4c-2.1-1.5-4.4-1.6-6.8-1.8c-1.5-0.1-2.9,0-4.4-0.1c-3.7-0.2-6.1-1.8-7.1-5.6c-1.8-6.1-3.2-12.3-4-18.7
		c-6.8-50,20-98.9,65.7-123.4c22.2-11.9,46-17.5,71.1-16.3c36.5,1.8,68,15.4,93.1,42.3c16.5,17.7,26.7,38.6,30.6,62.4
		c3.2,19.8,1.2,39.2-5.5,58.1c-0.5,1.4-1.1,2.7-1.9,3.9c-0.4,0.6-1.5,0.8-1.8,0c-1.7-4.3-5.8-3.9-9.1-4.5c-3-0.5-6.2-0.3-9.2,0.9
		c-1.2,0.4-2.4,0.8-3.6,1.2c-2.2,0.6-2.6,0.4-2.8-1.8c-0.5-4.9-0.8-9.8-1.2-14.7c-0.1-1.3-0.1-2.5-0.2-3.8c-0.1-1.3-0.9-1.8-2.2-1.7
		c-3.6,0.2-7.3,0.4-10.9,0.7c-0.9,0.1-1.8,0.2-2.7,0.2c-1.2,0-2.1-0.5-2.7-1.6c-0.7-1.5-1.4-3-2-4.5c-4.6-12.3-9.1-24.6-12.2-37.4
		c-0.2-0.7-0.4-1.4-0.6-2.1c-0.3-1.1-0.6-2.2-2.1-1.9c-1.1,0.3-1.2,1.3-1.1,2.2c0.1,1.3,0.2,2.6,0.4,3.8c1.8,8,3.4,16,5.4,24
		c1.2,4.6,2.9,9,4.4,13.5c1.3,3.7,2.2,4.4-2.6,4.6c-0.9,0-1.8,0.3-2.7,0.4c-3.1,0.3-4-0.1-4.8-3.1c-1.4-5.5-2.5-11-3.8-16.5
		c-0.3-1.4-0.7-2.8-1.2-4.2c-0.1-0.4-0.9-0.7-1.3-0.7c-0.4,0-1,0.4-1.3,0.8c-0.7,1.1-0.5,2.5-0.5,3.7c-0.2,5.5,0.9,10.9,1.7,16.3
		c0.1,0.7,0.3,1.4,0.5,2.1c0.2,1-0.1,1.8-1.3,2c-2.5,0.3-5.1,0.7-7.6,0.7c-5.6,0.1-11.3,0-17,0
		C-1047.6,85.3-1047.6,85.4-1047.6,85.5z"/>
	<path id="XMLID_26_" class="st1" d="M-928.2,191.2c9.1,2.7,16.6,7.5,22.8,14.1c6.3,6.7,10.4,14.5,11.7,23.6
		c2,14.8-3.7,26.6-15.5,35.1c-11.2,8.1-24.1,10.9-37.9,9.2c-13.9-1.7-25.6-7.8-35.6-17.5c-4.7-4.6-8.9-9.6-13-14.8
		c-0.8-1-1.4-2.1-2.2-3.1c-2.9-3.9-3.2-7.9-0.5-12.1c2.2-3.5,4-7.4,6.1-11c7.5-13.3,12.4-27.5,15.2-42.5c0.1-0.4,0.1-0.7,0.2-1.1
		c0.3-3.2,1.8-5.2,5.1-6.1c7.3-2.1,13.7-5.9,18.8-11.7c5-5.7,8.8-11.9,10.3-19.6c1.1-5.7,0.2-10.9-2-16c-0.9-2.2-2.1-4.3-3.2-6.3
		c-0.8-1.5-0.7-2.7,0.4-4c2.9-3.4,6.3-6.1,10.5-7.7c4.1-1.5,8.3-2.6,12.8-2.5c6,0.1,12,0.3,18,1.4c7.9,1.4,14.3,5.4,19,11.9
		c9.2,12.9,11.1,26.8,4.9,41.4c-5.4,12.8-14.5,22.6-26.4,29.8c-5,3-10.3,5.4-15.7,7.5C-925.6,189.6-926.9,189.9-928.2,191.2z"/>
	<path id="XMLID_25_" class="st6" d="M-960.4,62.2c0,1,0,1.4,0,1.7c-0.1,0.9,0,1.8-1,2.3c-0.7,0.4-1.5-0.4-1.7-2.2
		c-0.6-4.9-1-9.8-1.8-14.6c-1.9-11.5-4.2-22.9-8.9-33.7c-4.8-10.9-10.9-21-19-29.8c-2-2.2-4.1-4.1-6.4-5.9c-0.3-0.2-0.4-1.1-0.3-1.4
		c0.2-0.3,1-0.6,1.4-0.5c2,0.5,3.4,2.1,4.8,3.5c5.6,5.5,10.3,11.8,14.5,18.5c7.8,12.6,12.6,26.2,15.2,40.7c1.1,6.4,2,12.9,3,19.4
		C-960.4,61-960.4,62-960.4,62.2z"/>
	<path id="XMLID_24_" class="st6" d="M-958.8,171.8c-0.4-0.5-0.9-0.8-1.1-1.3c-0.1-0.2,0.1-0.8,0.3-0.9c0.8-0.5,1.5-0.9,2.4-1.3
		c17.7-6.9,31.9-18.9,44.7-32.6c7.2-7.7,13.9-15.9,19.3-25.1c0.1-0.2,0.2-0.3,0.3-0.5c0.5-0.8,1.1-1.5,2.1-1.4
		c0.7,0.1,0.7,1.8,0.1,2.9c-0.6,1.1-1.3,2.2-2,3.3c-12.5,18.6-27.6,34.8-46.5,47.2c-5.3,3.5-11,6.4-17,8.7
		C-957,171.2-957.9,171.5-958.8,171.8z"/>
	<path id="XMLID_23_" class="st6" d="M-981.1,210.2c-0.5-0.8-0.8-1.7-0.4-2.6c0.2-0.5,0.8-0.9,1.3-0.6c0.8,0.4,1.4,1.1,2.1,1.7
		c3.9,3.3,7.7,6.7,11.6,9.9c14.7,11.8,31.6,18.5,50,22c4.6,0.9,9.3,2,14.1,1.3c0.7-0.1,1.5,0,2.1,0.3c0.9,0.3,1.9,0.7,1.8,1.7
		c0,1.3-1.1,1.1-2,1.2c-7,0.4-13.7-1.2-20.5-2.6c-20.8-4.3-39-13.8-54.8-28c-1.7-1.6-3.2-3.5-5.5-4.5L-981.1,210.2z"/>
	<path id="XMLID_22_" class="st6" d="M-981.2,210.1c5.8,13.9,13.6,26.5,25.4,36.2c9.3,7.7,19.3,14.2,30.1,19.6
		c0.9,0.5,2.2,0.7,1.9,2.2c-0.2,1-1.6,1.2-3.2,0.4c-13.9-7.1-26.7-15.6-37.7-26.7c-8-8.1-13.4-18.1-18.2-28.3c-1-2-0.6-2.5,1.8-3.2
		L-981.2,210.1z"/>
	<path id="XMLID_21_" class="st6" d="M-953.6,175.5c-1.3-0.1-2.6-0.1-3.8-0.2c-0.7-0.1-1.5-0.4-1.4-1.3c0.1-0.9,0.9-1.1,1.6-1.1
		c5.7,0.1,11.2-0.9,16.8-2.1c7.9-1.7,15.5-4.1,22.8-7.5c10.8-5,21.1-10.8,30.1-18.7c0.4-0.4,0.9-0.7,1.3-0.9c0.3-0.1,0.7,0,1,0.2
		c0.6,0.3,0.6,1,0.3,1.4c-0.5,0.8-1,1.5-1.7,2.1c-1.7,1.4-3.4,2.8-5.1,4.1c-16.7,11.9-34.9,20.3-55.3,23.5
		C-949.2,175.2-951.4,175.3-953.6,175.5z"/>
	<path id="XMLID_20_" class="st6" d="M-977.7,62.8c0,0.3-0.1,1-0.3,1.7c-0.1,0.2-0.5,0.5-0.8,0.5c-0.3,0-0.8-0.2-0.9-0.4
		c-0.5-1.6-1-3.1-1.2-4.7c-1.2-9.2-3.5-18.2-5.8-27.2c-1.8-6.9-4.4-13.5-7.9-19.7c-2.4-4.3-5-8.5-9-11.5c-0.4-0.3-0.7-0.9-0.3-1.5
		c0.4-0.7,1.1-0.8,1.8-0.4c0.5,0.3,0.9,0.6,1.4,0.9c2.4,1.8,4.2,4,5.8,6.5c3.7,5.9,6.9,12,9,18.6c3.6,11.3,6.1,22.8,8.1,34.5
		C-977.8,60.9-977.8,61.6-977.7,62.8z"/>
	<path id="XMLID_19_" class="st6" d="M-1073.9,16.8c0-0.8-0.1-1.2,0-1.5c0.1-0.7,0.3-1.6,1.1-1.7c1.2-0.2,1.5,0.9,1.6,1.7
		c0.5,3.6,0.5,7.2,1.3,10.8c2.2,10.7,4.6,21.4,7.4,31.9c1,3.7,2.4,7.3,4.1,10.7c0.3,0.5-0.1,1.1-0.6,1.3c-0.3,0.1-0.8,0-1-0.1
		c-1.9-1.4-2.7-3.4-3.3-5.5c-1.3-4.2-2.5-8.4-3.5-12.6c-2-8.3-3.9-16.7-5.6-25.1C-1073.2,23.2-1073.5,19.8-1073.9,16.8z"/>
	<path id="XMLID_18_" class="st6" d="M-1186.1,54.5c1.4-11.1,2.7-21.9,5.9-32.4c0.8-2.6,1.6-5.2,3.3-7.4c0.2-0.2,0.6-0.3,1-0.3
		c0.6,0.1,1,0.6,0.9,1.1c-0.1,0.7-0.3,1.4-0.6,2.1c-3.1,7.1-4.5,14.6-5.7,22.1c-1,6.3-2.3,12.5-2.1,18.9c0,0.4-0.5,1.2-0.8,1.2
		c-0.8,0.1-1.4-0.5-1.5-1.3C-1185.9,57.2-1186,55.7-1186.1,54.5z"/>
	<path id="XMLID_17_" class="st6" d="M-998.2,30.6c0.3,0.2,0.9,0.4,1.1,0.8c0.5,1.1,1.1,2.3,1.3,3.6c1.3,5.7,2.5,11.4,3.7,17.1
		c0.1,0.5,0.1,1.1,0,1.6c-0.1,0.3-0.4,0.9-0.6,0.8c-0.5-0.1-1.2-0.2-1.4-0.6c-0.5-0.8-0.8-1.6-1-2.5c-1.3-6.4-2.5-12.9-4.4-19.1
		C-999.6,31.5-999.3,30.8-998.2,30.6z"/>
	<path id="XMLID_245_" class="st1" d="M-1186.8,89.5c1.2,27.5,16.1,47.2,25,59c8.1,10.8,44.4,58.9,103,56c36.1-1.8,78.5-22.9,93-62
		c11.2-30.5,0.6-58.6-4-71c-14.4-38.2-58.9-101.1-124-92C-1148.4-12.9-1189,41.1-1186.8,89.5z"/>
	<path id="XMLID_16_" class="st6" d="M-1059.1,37.4c0.1-1.3,0.1-1.9,0.3-2.4c0.2-0.4,0.4-1.1,1.1-0.8c0.3,0.1,0.7,0.3,0.8,0.6
		c0.2,0.5,0.4,1,0.5,1.5c0.9,5.5,1.5,11.1,3.2,16.4c0.2,0.7,0.1,1.6-0.6,1.8c-0.7,0.2-1.3-0.3-1.7-1c-0.3-0.6-0.7-1.3-0.9-2
		C-1057.4,46.6-1058.3,41.7-1059.1,37.4z"/>
	<path id="XMLID_278_" class="st1" d="M-101.8,539.6h-556.6c1.3-4.8,2.7-9.6,4.1-14.4c3.5-11.7,7.8-23.1,12.6-34.4
		c8.2-19.3,19.7-36.6,33.6-52.2c26.8-30.2,58.4-54.2,94.5-72.3c15.6-7.9,31.6-15,48.2-20.6c0.9-0.3,1.9-0.6,2.7-1
		c0.1,0,0.2-0.1,0.3-0.1c1.3-0.6,2.4-0.3,3.5,0.3c0.2,0.1,0.3,0.2,0.5,0.3c1.1,0.7,1.9,1.6,2.7,2.7c9.4,12.9,22.2,21.5,36.7,27.5
		c17.5,7.3,35.9,9.6,54.7,7.8c12.4-1.2,24.3-4.5,35.4-10.6c10.6-5.9,19.3-13.7,24.9-24.6c0.4-0.8,0.8-1.5,1.3-1.9
		c0.8-0.9,1.8-1.1,3.1-0.9c0.4,0.1,0.8,0.1,1.3,0.3c1.9,0.5,3.8,1.3,5.7,2c37.6,13.6,72.8,31.8,103.9,57.2
		c17,13.9,32.7,29.1,46.1,46.5c9.2,11.9,16.9,24.6,23.1,38.3C-112.1,505.6-106.5,522.5-101.8,539.6z"/>
	<path id="XMLID_275_" class="st7" d="M-302.6,346c-0.4,0.5-0.8,1.1-1.3,1.9c-5.6,11-14.3,18.8-24.9,24.6
		c-11,6.1-22.9,9.5-35.4,10.6c-18.8,1.8-37.1-0.5-54.7-7.8c-14.6-6-27.3-14.6-36.7-27.5c-0.8-1-1.6-1.9-2.7-2.7
		c-0.2-0.1-0.3-0.2-0.5-0.3c2.3-2.3,4.3-4.8,6.2-7.5c6.2-8.6,9.8-18.2,12-28.5c2.2-10.4,3.1-20.9,4.4-31.4c0.4-3,0.7-6,1.1-9.4
		c2.1,1,3.3,2.4,4.5,3.7c3.7,4.3,8.1,7.8,12.7,11.2c9.4,7,19.6,12.5,30.6,16.8c16.9,6.6,34.2,11.3,52.3,13c3.8,0.4,7.6,0.6,11.5,0.6
		c3.5,0,3.8,0.3,4.5,3.3c1.3,5.2,3.4,10,5.6,14.8C-310.6,337.2-307,341.9-302.6,346z"/>
	<path id="XMLID_240_" class="st6" d="M-453.3,283.7"/>
	<path id="XMLID_243_" class="st6" d="M-292.5,350.5c-2.6-1.6-4.9-3.4-7-5.3c-6.9-6.2-11.7-14.1-14.9-23.1
		c-2.5-7.3-4.2-14.7-3.7-22.5c0.1-1.4,0.2-2.9,0.2-4.3c0.2-4.2,0.4-8.4,0.6-12.6c0.2-4.6,0.4-9.1,0.6-13.7c0.2-3.3,1.2-5.9,3.3-8.4
		c-0.9-0.4-1.9-0.8-2.9-1.2c-0.7,0.7-1.5,1.4-2.2,2.1h-119c-0.9,0.5-1.9,1-2.8,1.5c1.8,1.8,2.5,3.7,2.2,6.1c0,0.5-0.1,1.1-0.1,1.6
		c-0.8,10.6-2.2,21-3.8,31.5c-1.2,7.6-3.1,15-6.2,22c-3.5,7.9-8.2,14.8-14.4,20.5c-0.4,0.3-0.7,0.7-1.1,1c-2.3,2-4.8,3.9-7.5,5.6
		c-2.5,1.6-5.2,2.5-7.9,3.7c-0.4,0.2-0.8,0.8-0.8,1.2c-0.1,1,0.8,1.2,1.5,1.1c2.8-0.3,5.2-1.6,7.6-2.9c4.3-2.6,8.2-5.6,11.7-9.1
		c0.1-0.1,0.3-0.3,0.4-0.4c2.3-2.3,4.3-4.8,6.2-7.4c6.2-8.6,9.8-18.2,12-28.5c1.3-6.3,2.2-12.6,2.9-19c0.5-4.1,0.9-8.3,1.5-12.4
		c0.4-3,0.7-6,1.1-9.4c2.1,1,3.3,2.4,4.5,3.7c3.7,4.3,8.1,7.8,12.7,11.2c6.3,4.6,12.9,8.6,19.8,12.1c3.5,1.7,7.1,3.3,10.8,4.7
		c9.6,3.7,19.3,6.9,29.2,9.2c7.6,1.8,15.3,3.1,23.1,3.8c3.8,0.4,7.6,0.6,11.5,0.6c3.5,0,3.8,0.3,4.5,3.3c1.3,5.1,3.4,10,5.6,14.8
		c2.7,5.6,6.3,10.3,10.7,14.4c2.6,2.5,5.5,4.7,8.5,6.8c1.9,1.3,3.6,1.4,3.8,0.5C-290.2,351.7-291.4,351.1-292.5,350.5z"/>
	<path id="XMLID_246_" class="st6" d="M945.8,75.5c-5.6-0.6-10.9-2.6-15.2-6.9c-0.5-0.5-1-1.1-1.4-1.7c-1.4-2.3-0.5-4.8,2.2-5.6
		c0.9-0.3,1.8-0.4,2.7-0.4c5.4,0.2,10.4,1.6,14.9,4.6c1,0.7,2,1.7,2.7,2.7c2.2,3.2,0.6,6.7-3.3,7.2C947.7,75.4,947,75.4,945.8,75.5z
		"/>
	<path id="XMLID_242_" class="st6" d="M820.2,75.5c-1.1-0.2-2.2-0.2-3.2-0.5c-2.7-0.9-3.7-3.7-2.4-6.2c0.9-1.7,2.2-2.9,3.8-3.9
		c4.2-2.4,8.7-3.7,13.5-4.1c0.5,0,1.1,0,1.6,0c1.9,0.1,3.7,0.7,4.5,2.6c0.8,2-0.3,3.5-1.6,4.9C831.9,72.9,826.4,74.9,820.2,75.5z"/>
	<path id="XMLID_241_" class="st6" d="M2220.5,282.3c-4.3,0.3-8-0.5-11.8-1.2c-4.8-0.9-8.8-3.5-12.4-6.6c-0.5-0.4-0.9-1.1-1.2-1.8
		c-0.1-0.2,0.1-0.7,0.3-1c0.2-0.2,0.7-0.4,0.9-0.3c0.6,0.3,1.3,0.7,1.8,1.1c5,4.4,10.9,6.3,17.5,6.7c5.5,0.3,10.9,0.1,16.3-1
		c7.6-1.6,13.9-5.3,19-11.1c1.1-1.2,1.9-2.7,3.5-3.4c0.5-0.2,1.1-0.1,1.4,0.4c0.2,0.3,0.2,0.7,0.2,1c0,0.2-0.1,0.4-0.2,0.5
		c-6.3,8-14.1,13.7-24.3,15.4C2227.7,281.9,2224,282.8,2220.5,282.3z"/>
	<path id="XMLID_235_" class="st6" d="M1513.4,157.2c-1.8,0-3.6,0.1-5.5,0c-0.7,0-1.3-0.4-1.9-0.8c-0.2-0.1-0.3-0.6-0.3-1
		c-0.1-0.7,0.4-1.1,0.9-1.1c4.6,0.5,9.1,0.5,13.6-0.4c0.7-0.1,1.5-0.2,2.2-0.3c4-1,5-2.2,4.9-6.6c0-3.7-0.7-7.3-1.5-10.8
		c-2.1-9.4-4.3-18.8-6.5-28.2c-0.2-0.7-0.2-1.4-0.2-2.1c0-0.3,0.4-0.6,0.7-0.7c0.3-0.1,0.7,0,1,0.2c0.8,0.8,1.2,1.8,1.4,2.9
		c2.4,10.8,4.9,21.7,7.2,32.5c0.5,2.5,0.6,5.1,0.6,7.6c0,4-1.4,6.1-5.3,7.3c-2.6,0.8-5.3,1.4-8,1.4
		C1515.6,157.2,1514.5,157.2,1513.4,157.2C1513.4,157.2,1513.4,157.2,1513.4,157.2z"/>
	<path id="XMLID_230_" class="st6" d="M2222.3,297.1c-2,0.1-4,0.7-6,0c-0.4-0.2-1-0.7-1-1.1c0-0.4,0.5-1.1,0.9-1.2
		c1.2-0.2,2.5-0.3,3.8-0.4c2.4-0.1,4.7-0.1,7.1-0.3c5.5-0.6,10.7-2.1,15.1-5.7c0.5-0.4,1-0.3,1.5,0c0.8,0.6,0.5,1.3,0,1.9
		c-2.6,2.7-6,4.1-9.5,5.2C2230.3,296.7,2226.3,296.9,2222.3,297.1z"/>
	<path id="XMLID_225_" class="st6" d="M833.8,121.5c-6.1,0.2-11.3-0.7-16.4-2.2c-2.6-0.8-5.1-2-7.3-3.6c-5.2-3.8-6.8-9.5-4.3-15.5
		c2-4.9,5.4-8.1,10.4-9.7c5.3-1.7,10.7-2.2,16.2-1.8c5.3,0.4,10.5,1.4,15.5,3.3c3.3,1.3,6.2,3.1,8.8,5.4c5.7,5,4.6,14.2-0.8,18.2
		c-3.4,2.6-7.3,4.1-11.4,5C840.7,121.2,836.9,121.4,833.8,121.5z M857.6,105.8c0-3-1-5.1-3.9-7.4c-4.5-3.6-9.9-5.2-15.5-6.2
		c-0.9-0.2-1.3,0.6-0.8,1.9c2.2,5.9,3.2,11.8,1.9,18.1c-0.4,1.8-1.2,3.4-1.9,5.1c-0.2,0.5,0.2,1.2,0.7,1.1
		c5.7-0.4,11.1-1.6,15.8-5.1C856.5,111.4,857.7,108.9,857.6,105.8z"/>
	<path id="XMLID_219_" class="st6" d="M933.3,121.3c-5.1,0.1-10.2-0.3-15.1-2c-2.4-0.8-4.7-2-6.8-3.4c-6.1-4.2-7.3-13.7-1.1-18.9
		c2.7-2.3,5.6-4.1,8.9-5.2c9.1-3.2,18.4-4.3,28-2.3c5.8,1.2,10.6,3.8,13.3,9.4c2.8,5.8,2.2,12.9-4.6,17.2
		c-5.1,3.3-10.7,4.4-16.5,5.1C937.3,121.5,935.3,121.3,933.3,121.3z M942.7,92.2c3.8,8.4,4,16.8-0.4,25.6c5.5-0.6,10-2.1,13.8-5.5
		c3.1-2.8,4-6.4,2.5-10.4C956.2,95.3,950.4,91.7,942.7,92.2z"/>
</g>
<g id="Warstwa_5">
	<path id="XMLID_135_" class="st7" d="M1417.4-1426.4c-1.3,12.1-6.7,22-16.5,29.4c-0.7,0.5-1.5,1-2.3,1.4c-0.2,0.1-0.7,0-0.9-0.2
		c-0.2-0.2-0.4-0.6-0.4-1c-0.2-1.4,1-2.3,1.4-3.4c0.5-1.1,0.5-2.1-0.1-3.1c-1.1-2.2-3.3-3-5.4-1.9c-2.3,1.2-3.1,3.2-2,5.4
		c0.6,1.3,1.7,2.2,1.2,3.9c-0.7,2.4-1.7,4.4-4.5,4.6c-2.1,0.1-2.6,1.4-2.9,3.2c-0.6,4.9-1.8,9.6-3.2,14.3
		c-6.1,21.1-15.5,40.5-29.9,57.3c-11.9,13.8-26.1,24.5-43.5,30.4c-5.2,1.7-10.5,2.7-15.9,3.6c-9.3,1.7-18.6,1.7-28-0.5
		c-15.5-3.7-29-11.2-40.6-21.9c-23.5-21.7-36.6-49-42.9-79.9c-0.7-3.3-1.3-5.9-5.4-5.9c-2.5,0-3.1-2.1-3.8-4
		c-0.6-1.7,0.8-2.1,1.6-3.1c1.6-2,1.5-4.4-0.3-6.3c-1.6-1.7-3.6-2.1-5.4-1.2c-2.5,1.3-3.3,3.3-2.5,5.8c0.2,0.7,0.5,1.4,0.9,2
		c0.4,0.7,0.5,1.4-0.2,1.8c-0.3,0.2-1.1-0.1-1.5-0.4c-11.3-8.9-17.2-20.4-15.9-35c1-10.8,9.1-20.3,21.9-19.4
		c2.4,0.2,4.7,0.4,6.9,1.2c1,0.3,2.1,0.6,3.1,0.8c0.6,0.1,1-0.4,1.2-0.9c0-0.1,0.1-0.2,0.1-0.3c0.9,0.3,1.7-0.5,1.6-1.6
		c-0.1-1.3-0.3-2.5-0.6-3.7c-1.6-5.9-1-11.8-0.5-17.8c0.1-1,0.7-1.7,1.8-1.6c2.2,0.3,4.3,0.6,6.4,0.9c2.1,0.3,2.7-0.2,2.7-2.2
		c0-1.1-0.1-2.2-0.2-3.3c-0.6-11.4,0-22.8,3.4-33.8c0.4-1.4,0.9-2.8,1.5-4.1c0.3-0.6,1-1,1.8-1c1.1,0.1,1.7,0.8,1.7,1.8
		c0,2.3,0.1,4.7-0.2,7.1c-1.1,10.3-0.4,20.6,0.7,30.9c0.1,1.1,0.4,2.1,0.6,3.2c0.5,2.3,0.8,2.5,3.3,2.8c0.5,0.1,1.1,0.1,1.6,0.1
		c10.6,0.9,21.2,1.9,31.9,2.7c4.3,0.3,8.7,0.3,13,0.4c1.8,0,2.1-0.4,2-2.4c-0.1-2.9-0.2-5.8-0.2-8.7c0-2.6,0.6-5,1.6-7.3
		c0.3-0.7,1-1.1,1.8-1c0.8,0.1,1.4,0.5,1.5,1.3c0.3,1.2,0.4,2.5,0.6,3.7c0.6,3.9,1.1,7.9,1.9,11.8c0.4,2,1,2.5,2.9,2.5
		c5.4,0,10.9-0.1,16.3-0.2c0.2,0,0.4,0,0.5-0.1c1-0.2,1.6-0.7,1.5-1.8c-0.1-1.1-0.4-2.1-0.6-3.2c-2.2-12-2.3-24.1-2.2-36.2
		c0-1.4-0.1-2.9,0.6-4.2c0.2-0.4,0.8-0.8,1.2-0.9c0.4-0.1,1.2,0.2,1.4,0.6c0.4,1,0.7,2,1,3.1c1.1,5.3,2.2,10.6,3.4,15.9
		c1.8,7.9,3.8,15.8,6.4,23.5c1.1,3.1,1.3,3.2,4.7,3.1c5.4-0.2,10.8-0.3,16.3-0.5v-0.3c5.6,0,11.2,0.1,16.8,0c2.5,0,5-0.4,7.6-0.7
		c1.1-0.1,1.4-0.9,1.3-1.9c-0.1-0.7-0.4-1.4-0.5-2.1c-0.8-5.4-1.9-10.7-1.7-16.2c0-1.3-0.1-2.6,0.6-3.7c0.2-0.4,0.8-0.8,1.2-0.8
		c0.4,0,1.2,0.3,1.3,0.7c0.5,1.3,0.9,2.8,1.2,4.2c1.3,5.5,2.4,11,3.7,16.4c0.8,3,1.6,3.4,4.7,3.1c0.9-0.1,1.8-0.4,2.7-0.4
		c4.7-0.2,3.8-0.9,2.6-4.5c-1.5-4.5-3.2-8.9-4.4-13.4c-2-7.9-3.6-15.9-5.3-23.8c-0.3-1.2-0.4-2.5-0.4-3.8c0-0.9,0-1.9,1.1-2.2
		c1.5-0.3,1.8,0.9,2.1,1.9c0.2,0.7,0.4,1.4,0.6,2.1c3.1,12.7,7.6,24.9,12.1,37.1c0.6,1.5,1.3,3,1.9,4.5c0.5,1.1,1.5,1.6,2.6,1.5
		c0.9,0,1.8-0.1,2.7-0.2c3.6-0.2,7.2-0.4,10.8-0.7c1.3-0.1,2.1,0.4,2.2,1.7c0.1,1.3,0.1,2.5,0.2,3.8c0.4,4.9,0.8,9.7,1.2,14.6
		c0.1,0.8,0.2,1.3,0.4,1.6c-0.3,0.4-0.3,0.9,0,1.3c0.2,0.4,1,0.7,1.3,0.6c1.6-0.4,3.1-1,4.7-1.4c12.9-2.8,22.1,2.9,25.8,13.9
		C1417.3-1433.7,1417.8-1430.1,1417.4-1426.4z"/>
	<path id="XMLID_154_" class="st7" d="M374.1,167.4c-0.2,0.1-0.7,0-0.9-0.2c-0.2-0.2-0.4-0.6-0.4-1c-0.2-1.4,1-2.3,1.4-3.4
		c0.5-1.1,0.5-2.1-0.1-3.1c-1.1-2.2-3.3-3-5.4-1.9c-2.3,1.2-3.1,3.2-2,5.4c0.6,1.3,1.7,2.2,1.2,3.9c-0.7,2.4-1.7,4.4-4.5,4.6
		c-2.1,0.1-2.6,1.4-2.9,3.2c-0.6,4.9-1.8,9.6-3.2,14.3c-6.1,21.1-15.5,40.5-29.9,57.3c-11.9,13.8-26.1,24.5-43.5,30.4
		c-5.2,1.7-10.5,2.7-15.9,3.6c-9.3,1.7-18.6,1.7-28-0.5c-15.5-3.7-29-11.2-40.6-21.9c-23.5-21.7-36.6-49-42.9-79.9
		c-0.7-3.3-1.3-5.9-5.4-5.9c-2.5,0-3.1-2.1-3.8-4c-0.6-1.7,0.8-2.1,1.6-3.1c1.6-2,1.5-4.4-0.3-6.3c-1.6-1.7-3.6-2.1-5.4-1.2
		c-2.5,1.3-3.3,3.3-2.5,5.8c0.2,0.7,0.5,1.4,0.9,2c0.4,0.7,0.5,1.4-0.2,1.8c-0.3,0.2-1.1-0.1-1.5-0.4c-11.3-8.9-17.2-20.4-15.9-35
		c1-10.8,9.1-20.3,21.9-19.5c2.4,0.2,4.7,0.4,6.9,1.2c1,0.3,2.1,0.6,3.1,0.8c0.6,0.1,1-0.4,1.2-0.9c0-0.1,0.1-0.2,0.1-0.3
		c0.9,0.3,1.7-0.5,1.6-1.6c-0.1-1.3-0.3-2.5-0.6-3.7c-1.6-5.9-1-11.8-0.5-17.8c0.1-1,0.7-1.7,1.8-1.6c2.2,0.3,4.3,0.6,6.4,0.9
		c2.1,0.3,2.7-0.2,2.7-2.2c0-1.1-0.1-2.2-0.2-3.3c-0.6-11.4,0-22.8,3.4-33.8c0.4-1.4,0.9-2.8,1.5-4.1c0.3-0.6,1-1,1.8-1
		c1.1,0.1,1.7,0.8,1.7,1.8c0,2.3,0.1,4.7-0.2,7c-1.1,10.3-0.4,20.6,0.7,30.9c0.1,1.1,0.4,2.1,0.6,3.2c0.5,2.3,0.8,2.5,3.3,2.8
		c0.5,0.1,1.1,0.1,1.6,0.1c10.6,0.9,21.2,1.9,31.9,2.7c4.3,0.3,8.7,0.3,13,0.4c1.8,0,2.1-0.4,2-2.4c-0.1-2.9-0.2-5.8-0.2-8.7
		c0-2.6,0.6-5,1.6-7.3c0.3-0.7,1-1.1,1.8-1c0.8,0.1,1.4,0.5,1.5,1.3c0.3,1.2,0.4,2.5,0.6,3.7c0.6,3.9,1.1,7.9,1.9,11.8
		c0.4,2,1,2.5,2.9,2.5c5.4,0,10.9-0.1,16.3-0.1c0.2,0,0.4,0,0.5-0.1c1-0.2,1.6-0.7,1.5-1.8c-0.1-1.1-0.4-2.1-0.6-3.2
		c-2.2-12-2.3-24.1-2.2-36.2c0-1.4-0.1-2.9,0.6-4.2c0.2-0.4,0.8-0.8,1.2-0.9c0.4-0.1,1.2,0.2,1.4,0.6c0.4,1,0.7,2,1,3.1
		c1.1,5.3,2.2,10.6,3.4,15.9c1.8,7.9,3.8,15.8,6.4,23.5c1.1,3.1,1.3,3.2,4.7,3.1c5.4-0.2,10.8-0.3,16.3-0.5v-0.3
		c5.6,0,11.2,0.1,16.8,0c2.5,0,5-0.4,7.6-0.7c1.1-0.1,1.4-0.9,1.3-1.9c-0.1-0.7-0.4-1.4-0.5-2.1c-0.8-5.4-1.9-10.7-1.7-16.2
		c0-1.3-0.1-2.6,0.6-3.7c0.2-0.4,0.8-0.8,1.2-0.8c0.4,0,1.2,0.3,1.3,0.7c0.5,1.3,0.9,2.8,1.2,4.2c1.3,5.5,2.4,11,3.7,16.4
		c0.8,3,1.6,3.4,4.7,3.1c0.9-0.1,1.8-0.4,2.7-0.4c4.7-0.2,3.8-0.9,2.6-4.5c-1.5-4.5-3.2-8.9-4.4-13.4c-2-7.9-3.6-15.9-5.3-23.8
		c-0.3-1.2-0.4-2.5-0.4-3.8c0-0.9,0-1.9,1.1-2.2c1.5-0.3,1.8,0.9,2.1,1.9c0.2,0.7,0.4,1.4,0.6,2.1c3.1,12.7,7.6,24.9,12.1,37.1
		c0.6,1.5,1.3,3,1.9,4.5c0.5,1.1,1.5,1.6,2.6,1.5c0.9,0,1.8-0.1,2.7-0.2c3.6-0.2,7.2-0.4,10.8-0.7c1.3-0.1,2.1,0.4,2.2,1.7
		c0.1,1.3,0.1,2.5,0.2,3.8c0.4,4.9,0.8,9.7,1.2,14.6c0.1,0.8,0.2,1.3,0.4,1.6c-0.3,0.4-0.3,0.9,0,1.3c0.2,0.4,1,0.7,1.3,0.6
		c1.6-0.4,3.1-1,4.7-1.4c12.9-2.8,22.1,2.9,25.8,13.9c1.1,3.5,1.7,7.1,1.3,10.7c-1.3,12.1-6.7,22-16.5,29.4
		C375.7,166.6,374.9,167,374.1,167.4z"/>
	<path id="XMLID_144_" class="st7" d="M1443.2-1171.5c-15.7,85.5-177.4,155.8-277,97c-51.1-30.2-93.8-99.1-77-161
		c16.3-60.2,86.2-103.9,111-91c1.1,0.6,2,1.2,2.8,1.9c2,1.7,3.3,3.9,5,6.7c2.3,3.8,5.5,8.8,12.2,15.4c0.7,0.7,1.6,1.5,2.5,2.4
		c0.9,0.8,1.9,1.8,3,2.7c3.1,2.7,7,5.9,11.8,9c1.8,1.5,3.6,2.8,5.4,4.2c9.4,6.9,19.5,12.5,30.3,16.7c16.8,6.5,33.9,11.3,51.9,12.9
		c3.8,0.3,7.6,0.6,11.4,0.5c3.4,0,3.8,0.3,4.5,3.3c1.3,5.1,3.3,9.9,5.6,14.7c4.3,8.9,11,15.6,19.1,21.1c1.9,1.3,3.6,1.4,3.7,0.5
		c0.2-1.6-1.1-2.2-2.1-2.8c-10.7-6.8-17.6-16.5-21.7-28.3c-2.5-7.2-4.2-14.6-3.7-22.3c0.6-10.1,1-20.2,1.5-30.3
		c0.2-3.8,1.5-6.7,4.3-9.5c2.3-2.2,4.4-4.5,6.5-6.8c0,0,0,0,0,0C1381-1322,1455.4-1237.9,1443.2-1171.5z"/>
</g>
<g id="Warstwa_4">
	<circle id="XMLID_261_" class="st5" cx="338.6" cy="158.9" r="21"/>
	<circle id="XMLID_260_" class="st5" cx="196.9" cy="158.9" r="21"/>
	<path id="XMLID_116_" class="st1" d="M1556.5-1029.5c-4.6-17-10.3-33.7-17.5-49.9c-6.1-13.6-13.8-26.2-22.9-38
		c-13.4-17.3-28.9-32.4-45.8-46.1c-31-25.2-65.8-43.2-103.1-56.7c-1.9-0.7-3.7-1.4-5.6-2c-3-0.8-4.2-0.3-5.6,2.5
		c-5.6,10.9-14.2,18.6-24.7,24.4c-10.9,6.1-22.8,9.4-35.1,10.6c-18.6,1.8-36.9-0.5-54.3-7.8c-14.4-6-27.1-14.5-36.4-27.3
		c-0.8-1-1.6-1.9-2.7-2.6c-1.3-0.9-2.5-1.4-4-0.7c-1,0.5-2,0.8-3.1,1.1c-16.5,5.6-32.3,12.7-47.8,20.5c-35.8,18-67.2,41.8-93.8,71.8
		c-13.8,15.5-25.2,32.6-33.3,51.8c-4.7,11.2-9.1,22.5-12.5,34.1c-1.4,4.8-2.8,9.5-4.1,14.3H1556.5z"/>
	<path id="XMLID_138_" class="st1" d="M1412.1-1452.9c-0.4,1-0.8,2-1.3,2.9c-0.2,0.3-0.4,0.7-0.6,1c-0.4,0.6-1.5,0.8-1.8,0
		c-1.7-4.3-5.7-3.9-9.1-4.5c-3-0.5-6.1-0.3-9.1,0.8c-1.2,0.4-2.4,0.8-3.6,1.1c-1.4,0.4-2.1,0.5-2.4-0.2c-0.2-0.3-0.3-0.8-0.4-1.6
		c-0.5-4.9-0.8-9.7-1.2-14.6c-0.1-1.3-0.1-2.5-0.2-3.8c-0.1-1.3-0.9-1.8-2.2-1.7c-3.6,0.2-7.2,0.4-10.8,0.7
		c-0.9,0.1-1.8,0.2-2.7,0.2c-1.2,0-2.1-0.4-2.6-1.5c-0.7-1.5-1.4-3-1.9-4.5c-4.6-12.2-9-24.4-12.1-37.1c-0.2-0.7-0.4-1.4-0.6-2.1
		c-0.3-1-0.6-2.2-2.1-1.9c-1.1,0.3-1.2,1.3-1.1,2.2c0.1,1.3,0.2,2.5,0.4,3.8c1.7,8,3.4,15.9,5.3,23.8c1.2,4.5,2.8,8.9,4.4,13.4
		c1.3,3.7,2.2,4.3-2.6,4.5c-0.9,0.1-1.8,0.3-2.7,0.4c-3.1,0.3-4-0.1-4.7-3.1c-1.4-5.4-2.5-10.9-3.7-16.4c-0.3-1.4-0.7-2.8-1.2-4.2
		c-0.1-0.4-0.9-0.7-1.3-0.7c-0.4,0-1,0.4-1.2,0.8c-0.7,1.1-0.5,2.4-0.6,3.7c-0.2,5.5,0.9,10.8,1.7,16.2c0.1,0.7,0.3,1.4,0.5,2.1
		c0.2,1-0.1,1.8-1.3,1.9c-2.5,0.3-5,0.7-7.6,0.7c-5.6,0.1-11.2,0-16.8,0v0.3c-5.4,0.2-10.9,0.3-16.3,0.5c-3.4,0.1-3.7,0-4.7-3.1
		c-2.6-7.7-4.6-15.6-6.4-23.5c-1.2-5.3-2.2-10.6-3.4-15.9c-0.2-1-0.5-2.1-1-3.1c-0.2-0.3-0.9-0.6-1.4-0.6c-0.4,0-1,0.4-1.2,0.9
		c-0.8,1.3-0.6,2.8-0.6,4.2c-0.2,12.1,0,24.2,2.2,36.2c0.2,1.1,0.4,2.1,0.6,3.2c0.1,1.1-0.5,1.6-1.5,1.8c-0.2,0-0.4,0.1-0.5,0.1
		c-5.4,0.1-10.9,0.2-16.3,0.2c-1.9,0-2.5-0.6-2.9-2.5c-0.7-3.9-1.2-7.9-1.9-11.8c-0.2-1.3-0.4-2.5-0.6-3.7c-0.2-0.8-0.7-1.2-1.5-1.3
		c-0.8-0.1-1.5,0.3-1.8,1c-1,2.3-1.7,4.8-1.6,7.3c0,2.9,0.1,5.8,0.2,8.7c0.1,1.9-0.2,2.4-2,2.4c-4.3-0.1-8.7,0-13-0.4
		c-10.6-0.8-21.3-1.8-31.9-2.7c-0.5,0-1.1-0.1-1.6-0.1c-2.5-0.3-2.7-0.4-3.3-2.8c-0.3-1.1-0.5-2.1-0.6-3.2
		c-1.1-10.3-1.8-20.5-0.7-30.9c0.3-2.3,0.2-4.7,0.2-7.1c0-1-0.6-1.7-1.7-1.8c-0.8-0.1-1.5,0.4-1.8,1c-0.6,1.3-1,2.7-1.5,4.1
		c-3.4,11-4,22.4-3.4,33.8c0.1,1.1,0.2,2.2,0.2,3.3c0,2-0.6,2.5-2.7,2.2c-2.2-0.3-4.3-0.7-6.4-0.9c-1.1-0.1-1.7,0.5-1.8,1.6
		c-0.4,5.9-1,11.9,0.5,17.8c0.3,1.2,0.5,2.5,0.6,3.7c0.1,1.1-0.7,1.9-1.6,1.6c-0.2,0-0.3-0.1-0.5-0.2c-2-1.5-4.4-1.6-6.7-1.8
		c-1.4-0.1-2.9,0-4.3-0.1c-1.9-0.1-3.5-0.6-4.7-1.6c-1.1-0.9-1.9-2.2-2.4-3.9c-1.8-6.1-3.2-12.3-4-18.5
		c-6.8-49.7,19.8-98.2,65.2-122.4c22-11.8,45.6-17.4,70.5-16.2c36.2,1.8,67.4,15.3,92.4,42c16.4,17.5,26.5,38.3,30.3,62
		C1420.8-1490.9,1418.8-1471.6,1412.1-1452.9z"/>
	<path id="XMLID_114_" class="st1" d="M1433.5-1365.1c9.1,2.7,16.5,7.4,22.7,14c6.2,6.6,10.4,14.4,11.6,23.4
		c2,14.7-3.7,26.4-15.4,34.9c-11.1,8-23.9,10.8-37.6,9.1c-13.8-1.7-25.4-7.7-35.3-17.4c-4.7-4.6-8.9-9.5-12.9-14.6
		c-0.8-1-1.4-2.1-2.2-3.1c-2.9-3.9-3.1-7.8-0.5-12c2.2-3.5,4-7.3,6-10.9c7.5-13.2,12.3-27.3,15-42.2c0.1-0.4,0.1-0.7,0.2-1.1
		c0.3-3.2,1.8-5.1,5.1-6.1c7.2-2.1,13.6-5.9,18.6-11.6c5-5.6,8.8-11.8,10.2-19.4c1-5.6,0.2-10.8-2-15.9c-0.9-2.2-2-4.2-3.2-6.3
		c-0.8-1.5-0.7-2.7,0.4-4c2.9-3.3,6.2-6.1,10.4-7.6c4.1-1.5,8.3-2.5,12.7-2.5c6,0.1,11.9,0.3,17.8,1.4c7.8,1.4,14.2,5.3,18.8,11.8
		c9.1,12.8,11,26.6,4.9,41.1c-5.4,12.7-14.4,22.5-26.2,29.6c-5,3-10.2,5.4-15.6,7.5C1436-1366.6,1434.7-1366.4,1433.5-1365.1z"/>
	<path id="XMLID_141_" class="st6" d="M395,142.4c-2.5,11.3-8.5,20.2-18,26.8c-0.4,0.3-0.9,0.6-1.4,0.9c-1.5,0.8-1.9,2-1.5,3.6
		c0.5,2.3,1,4.6,1.4,6.9c0.7,3.9,0.8,7.9,0.7,11.9c-0.1,2.8-1.2,5.2-3.4,7.1c-3.2,2.8-6.9,2.3-9-1.5c-1.5-2.8-1.8-5.8-1.6-9
		c0.1-2,0.4-3.9,0.5-5.9c-3,8.2-5.3,16.4-8.6,24.3c-6.2,15-14,29-24.6,41c-7.1,2-6,9-19,20c-17.5,14.9-43.9,22.9-69,18
		c-11.6-2.3-21.2-6.9-28.7-11.8c-2.6-2.1-5-4.4-7.1-6.9c-1.2-1.3-2.3-2.7-4.4-3.7c-0.1,0.5-0.1,1.1-0.2,1.6c-1.1-1-2.1-1.9-3-2.7
		c-0.2-1.6-1-3-2.4-4.3c-3-2.8-5.9-5.9-8.6-9c-1.3-1.5-2.5-3-3.7-4.5c-1.7-2.8-3-5-5-6.7c-10.9-15.6-18.2-33-23.1-51.6
		c-0.8-3.2-1.5-6.3-2.2-9.5c-0.2-0.7-0.5-1.4-1.3-1.5c-0.5-0.1-1.2-0.1-1.3,0.5c-0.1,0.7,0,1.4,0.2,2.1c0.9,4.3,1.7,8.5,1.7,12.9
		c0.1,6-4.8,9.7-10.5,8c-2.1-0.6-3.2-2.2-3.8-4.3c-0.7-2.5-0.8-5-0.6-7.5c0.3-4.5,0.9-9,2.4-13.3c0.8-2.3,0.1-3.6-1.8-5.1
		c-7.8-5.8-13-13.5-15.7-22.9c-1.7-5.8-2.1-11.6-0.8-17.7c2.4-10.5,10-17.5,19.5-18.9c4.6-0.7,9.6-0.1,14.7,2
		c0.3,0.1,0.6,0.4,0.9,0.6c0.3,0.3,0.7,0.7,0.6,1.1c0,0.1,0,0.2-0.1,0.3c-0.2,0.5-0.6,1-1.2,0.9c-1-0.2-2.1-0.5-3.1-0.8
		c-2.2-0.8-4.6-1-6.9-1.2c-12.8-0.9-20.9,8.7-21.9,19.5c-1.3,14.5,4.7,26,15.9,35c0.4,0.3,1.1,0.6,1.5,0.4c0.8-0.4,0.6-1.1,0.2-1.8
		c-0.4-0.6-0.7-1.3-0.9-2c-0.8-2.6,0-4.5,2.5-5.8c1.8-1,3.8-0.5,5.4,1.2c1.8,1.9,1.9,4.3,0.3,6.3c-0.8,0.9-2.2,1.4-1.6,3.1
		c0.7,1.9,1.4,4,3.8,4c4,0,4.7,2.7,5.4,5.9c6.3,30.9,19.5,58.2,42.9,79.9c11.6,10.7,25.1,18.2,40.6,21.9c9.4,2.3,18.6,2.2,28,0.5
		c5.3-1,10.7-1.9,15.9-3.6c17.5-5.9,31.6-16.5,43.5-30.4c14.4-16.8,23.8-36.2,29.9-57.3c1.3-4.7,2.6-9.4,3.2-14.3
		c0.2-1.9,0.8-3.1,2.9-3.2c2.9-0.1,3.8-2.2,4.5-4.6c0.5-1.7-0.6-2.7-1.2-3.9c-1.1-2.2-0.3-4.2,2-5.4c2.2-1.1,4.3-0.4,5.4,1.9
		c0.5,1,0.6,2,0.1,3.1c-0.5,1.1-1.6,2-1.4,3.4c0,0.3,0.2,0.7,0.4,1c0.2,0.2,0.7,0.3,0.9,0.2c0.8-0.4,1.6-0.9,2.3-1.4
		c9.8-7.4,15.2-17.3,16.5-29.4c0.4-3.6-0.2-7.3-1.3-10.7c-3.7-11-12.9-16.7-25.8-13.9c-1.6,0.3-3.1,1-4.7,1.4
		c-0.4,0.1-1.1-0.3-1.3-0.6c-0.3-0.5-0.2-0.9,0-1.3c0.1-0.2,0.3-0.4,0.5-0.5c0.2-0.1,0.3-0.2,0.5-0.3c9-3.9,18.7-2.9,25.6,2.5
		c3.5,2.7,6.3,6.6,8,11.6C396.3,130.5,396.3,136.4,395,142.4z"/>
	<path id="XMLID_134_" class="st6" d="M1207.9-1317.9c-1.7-2.2-3.4-4.4-5-6.7C1204.9-1322.9,1206.2-1320.7,1207.9-1317.9z"/>
	<path id="XMLID_137_" class="st6" d="M1225.7-1297.3c-0.3,2.7-0.6,5.2-0.9,7.7c-1.3,10.4-2.2,20.9-4.4,31.1
		c-2.2,10.2-5.8,19.8-11.9,28.3c-4.9,6.9-10.9,12.5-18.2,16.8c-2.3,1.4-4.8,2.6-7.5,2.9c-0.7,0.1-1.6-0.1-1.5-1.1
		c0-0.4,0.4-1.1,0.8-1.2c2.6-1.1,5.4-2.1,7.8-3.6c10.5-6.6,17.8-15.7,22.8-26.9c3.1-7,5-14.3,6.2-21.9c1.6-10.4,3-20.8,3.8-31.2
		c0-0.5,0.1-1.1,0.1-1.6c0.1-0.7,0.1-1.4,0-2C1223.6-1299.2,1224.6-1298.3,1225.7-1297.3z"/>
	<path id="XMLID_109_" class="st6" d="M1764-1459.9c-1.2,1.3-1.3,3-1.8,4.5c-0.8,3.1-1.7,6.3-2.7,9.4c-4.9,15.1-14.9,25.8-28.8,33
		c-3.2,1.6-6.6,3.1-9.9,4.3c-16.9,6.1-34.4-2.9-41.2-12.9c-3.2-4.7-6-9.5-8.3-14.6c-1.8-4-2.3-8.3-3-12.6
		c-0.8-5.4-0.9-10.8-0.7-16.2c0.1-1.9,0.8-2.6,2.6-2.8c1.1-0.1,2.2-0.1,3.2-0.1c33.8,0.1,67.7,0.2,101.5,0.4
		c7.6,0,15.2,0.1,22.8,0.2c17.9,0.1,35.8,0.2,53.7,0.3c5.5,0,5.9,0.5,4.9,6c-0.6,3.6-1.1,7.1-2,10.7c-2.4,10-7,19.1-13.7,26.8
		c-8.3,9.6-19,13.5-31.6,11.9c-10.7-1.4-19.2-7.1-26.4-14.8c-7.6-8.1-12.4-17.7-16.3-28C1765.8-1456.4,1765.7-1458.5,1764-1459.9z
		 M1762-1464.1c-1.4-0.8-2.7-0.6-4-0.6c-19.7-0.1-39.4-0.3-59.1-0.4c-4.5,0-9-0.2-13.5-0.3c-4-0.1-8-0.1-11.9,0
		c-2.6,0.1-3.3,0.7-3.3,3.2c0,4.2,0.5,8.3,0.8,12.4c0.8,11.4,5.8,21,13.2,29.1c8.8,9.6,20.1,13.4,33,10c9.4-2.5,17.8-7,25-13.6
		c5.4-4.9,9.8-10.6,12.8-17.3C1758.2-1448.8,1759.5-1456.6,1762-1464.1z M1810.3-1464.3c0-0.1,0-0.2,0-0.3c-12.7,0-25.3,0-38,0
		c-1.4,0-2.9,0-4.3,0.1c-0.8,0.1-1.3,0.6-1.2,1.4c0.2,1.1,0.5,2.1,0.8,3.1c1.9,5.8,4.3,11.5,7.1,17c3.7,7.4,8.7,13.8,15,19.1
		c6,5.1,12.8,8.6,20.9,9.5c11.6,1.2,21.1-2.6,28.4-11.4c8.2-9.8,12.9-21.3,14.5-34c0.1-0.9,0.2-1.8,0.2-2.7c0-1-0.6-1.7-1.6-1.8
		c-1.1-0.1-2.2-0.1-3.3-0.1C1836-1464.3,1823.2-1464.3,1810.3-1464.3z"/>
	<path id="XMLID_108_" class="st6" d="M1401.5-1493c0,1,0,1.4,0,1.7c-0.1,0.9,0,1.8-1,2.3c-0.7,0.4-1.5-0.4-1.7-2.2
		c-0.6-4.8-1-9.7-1.8-14.5c-1.9-11.4-4.2-22.8-8.8-33.4c-4.7-10.9-10.8-20.8-18.9-29.6c-2-2.1-4.1-4.1-6.4-5.9
		c-0.3-0.2-0.4-1.1-0.3-1.4c0.2-0.3,1-0.6,1.4-0.5c2,0.5,3.4,2.1,4.8,3.4c5.5,5.5,10.2,11.7,14.3,18.3c7.7,12.5,12.5,26,15.1,40.4
		c1.1,6.4,2,12.8,3,19.3C1401.5-1494.2,1401.5-1493.3,1401.5-1493z"/>
	<path id="XMLID_107_" class="st6" d="M1403.1-1384.3c-0.4-0.5-0.9-0.8-1.1-1.2c-0.1-0.2,0.1-0.8,0.3-0.9c0.7-0.5,1.5-0.9,2.4-1.3
		c17.6-6.9,31.6-18.7,44.3-32.3c7.2-7.7,13.8-15.8,19.2-24.9c0.1-0.2,0.2-0.3,0.3-0.5c0.5-0.8,1.1-1.5,2.1-1.4
		c0.6,0.1,0.7,1.8,0.1,2.9c-0.6,1.1-1.3,2.2-2,3.2c-12.5,18.5-27.4,34.5-46.1,46.8c-5.3,3.5-10.9,6.4-16.9,8.6
		C1404.8-1384.9,1404-1384.6,1403.1-1384.3z"/>
	<path id="XMLID_106_" class="st6" d="M1380.9-1346.2c-0.5-0.8-0.8-1.6-0.4-2.6c0.2-0.5,0.8-0.9,1.3-0.6c0.8,0.4,1.4,1.1,2.1,1.7
		c3.8,3.3,7.6,6.7,11.5,9.9c14.6,11.7,31.4,18.4,49.6,21.8c4.6,0.9,9.2,2,13.9,1.3c0.7-0.1,1.5,0,2.1,0.2c0.9,0.3,1.8,0.7,1.8,1.7
		c0,1.2-1.1,1.1-2,1.2c-6.9,0.4-13.6-1.2-20.3-2.6c-20.6-4.3-38.7-13.7-54.4-27.8c-1.7-1.6-3.2-3.4-5.4-4.4L1380.9-1346.2z"/>
	<path id="XMLID_103_" class="st6" d="M1380.8-1346.3c5.8,13.8,13.5,26.3,25.2,36c9.3,7.6,19.2,14.1,29.9,19.5
		c0.9,0.5,2.2,0.7,1.9,2.1c-0.2,1-1.6,1.2-3.2,0.4c-13.8-7-26.5-15.5-37.4-26.5c-8-8.1-13.3-18-18.1-28.1c-0.9-2-0.6-2.5,1.8-3.2
		L1380.8-1346.3z"/>
	<path id="XMLID_102_" class="st6" d="M1408.2-1380.7c-1.3-0.1-2.5-0.1-3.8-0.2c-0.7-0.1-1.5-0.4-1.3-1.3c0.1-0.8,0.9-1.1,1.6-1.1
		c5.6,0.1,11.1-0.9,16.6-2.1c7.8-1.7,15.4-4.1,22.6-7.5c10.7-5,20.9-10.7,29.9-18.5c0.4-0.4,0.8-0.7,1.3-0.9c0.3-0.1,0.7,0,1,0.2
		c0.6,0.3,0.6,1,0.3,1.4c-0.5,0.8-1,1.5-1.7,2.1c-1.6,1.4-3.3,2.8-5.1,4c-16.6,11.8-34.7,20.1-54.9,23.3
		C1412.6-1381,1410.4-1380.9,1408.2-1380.7z"/>
	<path id="XMLID_101_" class="st6" d="M1384.3-1492.5c0,0.3-0.1,1-0.3,1.7c-0.1,0.2-0.5,0.5-0.8,0.5c-0.3,0-0.8-0.2-0.9-0.4
		c-0.5-1.5-1-3.1-1.2-4.7c-1.2-9.2-3.5-18.1-5.8-27c-1.8-6.9-4.4-13.4-7.8-19.6c-2.4-4.3-4.9-8.4-8.9-11.5c-0.4-0.3-0.7-0.9-0.3-1.5
		c0.4-0.7,1.1-0.8,1.8-0.4c0.5,0.3,0.9,0.6,1.3,0.9c2.3,1.8,4.2,4,5.7,6.5c3.6,5.8,6.8,11.9,8.9,18.5c3.6,11.2,6.1,22.7,8,34.2
		C1384.2-1494.4,1384.2-1493.7,1384.3-1492.5z"/>
	<path id="XMLID_100_" class="st6" d="M1760.3-1348.5c-4.2,0.3-8-0.5-11.7-1.2c-4.8-0.8-8.7-3.4-12.3-6.5c-0.5-0.4-0.9-1.1-1.2-1.8
		c-0.1-0.2,0.1-0.7,0.3-0.9c0.2-0.2,0.7-0.4,0.9-0.3c0.6,0.3,1.3,0.7,1.8,1.1c5,4.3,10.8,6.3,17.3,6.7c5.4,0.3,10.8,0.1,16.2-1
		c7.5-1.6,13.7-5.3,18.9-11c1.1-1.2,1.9-2.7,3.5-3.3c0.5-0.2,1.1-0.1,1.4,0.4c0.2,0.3,0.2,0.6,0.2,1c0,0.2-0.1,0.3-0.2,0.5
		c-6.2,7.9-14,13.6-24.1,15.3C1767.5-1348.9,1763.8-1348,1760.3-1348.5z"/>
	<path id="XMLID_99_" class="st6" d="M1760.3-1388.6c-1.8,0-3.6,0.1-5.4,0c-0.7,0-1.3-0.4-1.9-0.8c-0.2-0.1-0.3-0.6-0.3-1
		c-0.1-0.6,0.4-1.1,0.9-1.1c4.5,0.5,9,0.5,13.5-0.4c0.7-0.1,1.4-0.2,2.1-0.3c4-1,4.9-2.2,4.9-6.5c0-3.6-0.7-7.2-1.5-10.7
		c-2.1-9.3-4.3-18.7-6.5-28c-0.2-0.7-0.2-1.4-0.2-2.1c0-0.3,0.4-0.6,0.7-0.7c0.3-0.1,0.7,0,0.9,0.2c0.8,0.8,1.1,1.8,1.4,2.9
		c2.4,10.8,4.9,21.5,7.2,32.3c0.5,2.5,0.6,5,0.6,7.6c0,4-1.4,6-5.2,7.3c-2.6,0.8-5.2,1.4-8,1.4
		C1762.4-1388.6,1761.3-1388.6,1760.3-1388.6C1760.3-1388.6,1760.3-1388.6,1760.3-1388.6z"/>
	<path id="XMLID_15_" class="st6" d="M1288.9-1538.2c0-0.8-0.1-1.2,0-1.5c0.1-0.7,0.3-1.5,1.1-1.7c1.2-0.2,1.5,0.8,1.6,1.7
		c0.5,3.6,0.5,7.2,1.3,10.8c2.2,10.6,4.6,21.2,7.4,31.7c1,3.7,2.4,7.2,4.1,10.6c0.3,0.5-0.1,1.1-0.6,1.2c-0.3,0.1-0.8,0-1-0.1
		c-1.8-1.4-2.7-3.4-3.3-5.5c-1.3-4.2-2.5-8.3-3.5-12.5c-2-8.3-3.8-16.6-5.6-24.9C1289.5-1531.7,1289.3-1535.2,1288.9-1538.2z"/>
	<path id="XMLID_14_" class="st6" d="M1177.5-1500.7c1.4-11,2.7-21.7,5.9-32.2c0.8-2.6,1.6-5.2,3.3-7.4c0.2-0.2,0.6-0.3,0.9-0.3
		c0.6,0.1,1,0.6,0.9,1.1c-0.1,0.7-0.3,1.4-0.6,2.1c-3.1,7-4.5,14.5-5.6,22c-1,6.2-2.3,12.4-2.1,18.8c0,0.4-0.5,1.2-0.8,1.2
		c-0.8,0.1-1.4-0.5-1.5-1.3C1177.7-1498.1,1177.6-1499.5,1177.5-1500.7z"/>
	<path id="XMLID_13_" class="st6" d="M155.4,128.9c-8.2-1.9-13.1,8-10.2,14.5c0.9,2.2,2.3,4.1,3.8,5.9c0.3,0.4,0.7,0.8,1,1.3
		c0.4,0.6,0.6,1.4-0.2,1.8c-0.4,0.2-1.2,0.2-1.5-0.1c-4.7-4.4-7.5-9.7-6.3-16.4c1.2-6.7,7-10.7,13.8-9.7c0.9,0.1,1.8,0.2,2.7,0.4
		c0.6,0.1,0.9,0.6,1,1.1c0.1,1-0.7,1.2-1.4,1.2C157.2,129,156.3,128.9,155.4,128.9z"/>
	<path id="XMLID_12_" class="st6" d="M372.2,129c-0.4,0-1.3,0-2.2,0c-0.6,0-1.1-0.3-1.2-0.8c0-0.4,0.3-1.2,0.6-1.3
		c3-0.6,5.9-1.7,9-0.4c4.1,1.7,6.8,4.9,7.7,9.2c0.9,4,0.5,7.9-1.9,11.5c-1.3,2-2.5,4-4.4,5.4c-0.5,0.4-1,0.2-1.5-0.1
		c-0.6-0.4-0.5-1-0.2-1.4c1.3-1.9,2.8-3.8,4-5.8c2.6-4.6,2.2-9.4-0.8-13.2C379.1,129.1,376.1,128.4,372.2,129z"/>
	<path id="XMLID_11_" class="st6" d="M1762.1-1333.8c-2,0.1-4,0.7-5.9,0c-0.4-0.2-1-0.7-1-1.1c0-0.4,0.5-1.1,0.9-1.1
		c1.2-0.2,2.5-0.3,3.7-0.4c2.3-0.1,4.7-0.1,7-0.3c5.5-0.6,10.6-2.1,15-5.6c0.5-0.4,1-0.3,1.5,0c0.8,0.6,0.5,1.3,0,1.9
		c-2.6,2.7-5.9,4.1-9.4,5.1C1770.1-1334.2,1766.1-1334,1762.1-1333.8z"/>
	<path id="XMLID_10_" class="st6" d="M1364-1524.4c0.3,0.2,0.9,0.4,1.1,0.8c0.5,1.1,1,2.3,1.3,3.5c1.3,5.6,2.5,11.3,3.7,16.9
		c0.1,0.5,0.1,1.1,0,1.6c-0.1,0.3-0.4,0.8-0.6,0.8c-0.5-0.1-1.2-0.2-1.4-0.6c-0.5-0.8-0.8-1.6-1-2.5c-1.3-6.4-2.5-12.8-4.4-19
		C1362.6-1523.5,1362.9-1524.2,1364-1524.4z"/>
	<path id="XMLID_9_" class="st6" d="M1303.5-1517.7c0.1-1.3,0.1-1.9,0.3-2.4c0.2-0.4,0.4-1.1,1.1-0.8c0.3,0.1,0.7,0.3,0.8,0.6
		c0.2,0.5,0.4,1,0.5,1.5c0.9,5.5,1.5,11,3.2,16.3c0.2,0.7,0.1,1.5-0.6,1.8c-0.7,0.2-1.3-0.3-1.7-1c-0.3-0.6-0.7-1.3-0.9-2
		C1305.2-1508.5,1304.3-1513.5,1303.5-1517.7z"/>
	<path id="XMLID_6_" class="st6" d="M1709.4-1428.6c-6,0.2-11.2-0.7-16.2-2.2c-2.6-0.8-5.1-2-7.3-3.6c-5.2-3.8-6.7-9.5-4.3-15.4
		c2-4.8,5.4-8,10.4-9.6c5.2-1.7,10.6-2.2,16.1-1.8c5.2,0.4,10.4,1.3,15.3,3.3c3.2,1.3,6.1,3,8.8,5.3c5.7,5,4.6,14.1-0.8,18.1
		c-3.4,2.5-7.2,4-11.3,4.9C1716.3-1428.9,1712.5-1428.7,1709.4-1428.6z M1733.1-1444.2c0-3-1-5-3.9-7.3c-4.5-3.6-9.8-5.2-15.3-6.1
		c-0.9-0.2-1.3,0.6-0.8,1.9c2.2,5.8,3.2,11.7,1.9,17.9c-0.4,1.8-1.2,3.4-1.9,5c-0.2,0.5,0.2,1.2,0.7,1.1c5.6-0.4,11-1.6,15.7-5.1
		C1731.9-1438.6,1733.2-1441.1,1733.1-1444.2z"/>
	<path id="XMLID_3_" class="st6" d="M1808.2-1428.8c-5.1,0.1-10.1-0.3-15-2c-2.4-0.8-4.7-1.9-6.8-3.4c-6.1-4.1-7.2-13.6-1.1-18.8
		c2.7-2.3,5.6-4.1,8.8-5.2c9-3.1,18.3-4.2,27.8-2.3c5.8,1.2,10.5,3.8,13.2,9.4c2.8,5.7,2.2,12.8-4.5,17.1c-5,3.2-10.7,4.4-16.4,5.1
		C1812.2-1428.6,1810.2-1428.8,1808.2-1428.8z M1817.5-1457.6c3.7,8.3,4,16.7-0.4,25.4c5.4-0.6,10-2.1,13.7-5.5
		c3.1-2.8,3.9-6.3,2.5-10.4C1830.9-1454.6,1825.1-1458.1,1817.5-1457.6z"/>
</g>
</svg>
