<?xml version="1.0" encoding="utf-8"?>
<!-- Generator: Adobe Illustrator 19.0.0, SVG Export Plug-In . SVG Version: 6.00 Build 0)  -->
<svg version="1.1" xmlns="http://www.w3.org/2000/svg" xmlns:xlink="http://www.w3.org/1999/xlink" x="0px" y="0px"
	 viewBox="0 0 514.8 416" style="enable-background:new 0 0 514.8 416;" xml:space="preserve">
<style type="text/css">
	.st0{fill:#FFFFFF;}
	.st1{fill:#EBB0AE;}
	.st2{fill:#CB8481;}
	.st3{fill:#392E38;}
	.st4{opacity:0.5;fill:#4DFF55;stroke:#000000;stroke-width:1.0103;stroke-miterlimit:10;}
	.st5{opacity:0.5;fill:#FFFFFF;stroke:#000000;stroke-miterlimit:10;}
	.st6{opacity:0.5;fill:#FF4A4A;stroke:#000000;stroke-width:1.2216;stroke-miterlimit:10;}
	.st7{opacity:0.5;fill:#FF4A4A;stroke:#000000;stroke-width:1.0956;stroke-miterlimit:10;}
	.st8{opacity:0.5;fill:#4DFF55;stroke:#000000;stroke-width:1.0414;stroke-miterlimit:10;}
</style>
<g id="BACKGROUND">
</g>
<g id="Warstwa_3">
</g>
<g id="OBJECTS">
	<path id="XMLID_154_" class="st0" d="M1726.8,213.6c-2.4,0.9-4.8,1.9-7.3,2.8c-1.2,0.5-1.9-0.4-2.5-1.3c-0.6-0.9-0.3-1.7,0.5-2.3
		c3-2.1,6-4.1,9-6.2c0.3-0.2,0.7-0.2,1-0.3c0.3,0.2,0.6,0.3,0.8,0.6c0.2,0.3,0.4,0.6,0.5,0.9
		C1730.4,211.7,1730.9,212.1,1726.8,213.6z"/>
	<path id="XMLID_155_" class="st0" d="M1729.6,227.3c-1.5,5.6-4.3,10.6-8.1,15c-1.9,2.3-1.9,2.2-4.7,1.1c-1.4-0.6-2.9-1.2-4.4-1.5
		c-1.5-0.3-3.1-0.3-4.5,0.6c-0.6,0.4-1.2,1-1,1.7c0.2,0.7,1,1,1.7,0.7c2.3-1,4.4-0.3,6.5,0.5c1.5,0.6,1.6,1.5,0.2,2.6
		c-3.6,2.8-7.7,4.7-12.2,5.6c-2,0.4-3,1.1-3.2,3.2c-0.5,4.8-1.8,9.5-3.2,14.2c-5.8,20.1-14.8,38.5-28.5,54.5
		c-11.3,13.1-24.7,23.3-41.3,28.9c-6.1,2.1-12.4,3.1-18.8,4.1c-4.8,0.7-9.7,1.3-14.5,0.7c-9.9-1.2-19.3-4-28.2-8.6
		c-12.7-6.6-23.2-15.8-32.1-26.9c-11.3-13.9-19.2-29.7-24.7-46.7c-2-6.3-3.7-12.6-4.7-19.2c-0.3-1.9-1.2-2.9-3.3-3.3
		c-4.1-0.7-7.9-2.5-11.4-4.9c-2-1.5-2.1-2.5,0.1-3.9c1.3-0.8,2.8-1.4,4.2-2.1c0.6-0.3,1.3-0.5,1.9-0.9c0.4-0.3,0.7-0.8,0.3-1.4
		c-0.2-0.3-0.5-0.6-0.8-0.6c-0.7-0.1-1.4,0-2,0.1c-2.4,0.7-4.5,1.8-6.4,3.3c-2,1.5-2.1,1.5-3.7-0.4c-4.7-5.3-8-11.4-9.3-18.4
		c-1.1-5.7-1.1-11.4,1.4-16.9c3.5-7.7,9.3-11.9,17.9-11.9c2.6,0,5.2,0.1,7.7,1.1c0.8,0.3,1.6,0.5,2.5,0.8c0.7,0.2,1.5,0,1.8-0.6
		c0.1-0.3,0.2-0.5,0.1-0.8c0.8-0.1,1.2-0.8,1.3-2.3c0.4-3.8,1.5-7.5,2.9-11c3.3-8.2,8.3-15.2,14.3-21.5c5.4-5.7,11.6-10.5,17.8-15.2
		c6.2-4.8,12-10,17.4-15.7c7.3-7.8,13.6-16.2,16.8-26.6c0.1-0.4,0.5-1,0.9-1.1c0.3-0.1,0.9,0.4,1.1,0.7c2.7,3.9,6,7.2,9.5,10.3
		c8.2,7.4,17.6,12.9,27.6,17.5c10.2,4.8,20.9,8.6,31.4,12.5c5.7,2.1,11.3,4.4,16.7,7.2c8.7,4.6,16.5,10.2,23.1,17.6
		c6.1,6.9,10.8,14.5,12.5,23.6c0.1,0.7,0.3,1.4,0.6,2c0.1,0.2,0.2,0.4,0.4,0.6c-0.3,0.4-0.3,0.8-0.1,1.2c0.8,1.1,1.9,0.6,2.8,0.2
		c3.6-1.4,7.4-1.7,11.3-1.4c4.9,0.4,8.9,2.5,12.2,6.2c0.7,0.7,0.7,1.6-0.2,2.2c-3.1,2.2-6.3,4.4-9.4,6.6c-1.2,0.8-2.2,0.5-3.4-0.1
		c-3.2-1.8-6.4-0.8-9.6-0.2c-0.5,0.1-0.8,0.6-0.8,1.2c0,0.6,0.4,0.9,1,0.9c2.1,0,4.2-0.1,6.2-0.1c0.9,0,2,0.2,2,1.2
		c0.1,2,1,2.7,2.9,2.7c0.7,0,1.1,0.8,0.7,1.6c-0.3,0.4-0.8,0.7-1,1.1c-0.5,0.9-0.5,1.9,0.6,2c1.7,0,2.1,0.8,2,2.3
		c-0.2,2.5-1.3,4.6-2.7,6.6c-0.9,1.3-1.9,2.5-2.7,3.8c-0.3,0.4-0.3,1,0.3,1.3c0.5,0.3,1,0.4,1.4,0c3.1-2.9,6.1-6.2,6-10.6
		c-0.1-4.4,1.8-6.2,5.6-7.2c1.5-0.4,2.9-1.2,4.4-1.7s2.2,0.1,2.3,1.8C1731.2,220.9,1730.5,224.1,1729.6,227.3z"/>
	<path id="XMLID_128_" class="st0" d="M879.2,420.1c-23.7,14.2-47.8,22.1-60.5,31.5c-5.2,1.4-10.5,2.5-15,5
		c-70,38.5-100.9,101.9-114,142c84.7,2.7,171.9,4.1,261.5,4c94.7-0.1,186.7-1.9,276-5c-7.7-23.3-25.3-65.5-64.5-104
		c-41.8-41-85.8-56.1-114.5-65.5C1015,417.1,944.2,381.2,879.2,420.1z"/>
	<g id="XMLID_453_">
		<circle id="XMLID_455_" class="st1" cx="1058.7" cy="-1395.9" r="20.1"/>
		<circle id="XMLID_454_" class="st1" cx="923.3" cy="-1395.9" r="20.1"/>
	</g>
	<g id="XMLID_177_">
		<path id="XMLID_452_" class="st2" d="M986.4-1520c-1.7,0.5-2.4,1.9-3.4,2.8c-5.2,4.6-11.1,6.8-18.2,5.8c-2.8-0.4-5.5-0.9-8.2-1.6
			c-2.5-0.7-2.5-0.7-3.9,1.7c-0.9,1.5-1.7,3-2.8,4.4c-4.5,5.8-11.1,7.8-18.1,5.6c-2.3-0.7-4.6-1.7-6.9-2.5c-1,1.3-1.1,2.9-1.4,4.3
			c-1.9,7.5-6.3,12.2-14.4,12.9c-2.4,0.2-4.8,0.5-7.2,0.8c-2,0.2-2.4,0.6-2,2.6c1.1,5.8,0.2,11.4-2,16.8c-1.8,4.5-4.4,8.3-8.6,10.8
			c-2,1.2-3.2,2.6-3.2,4.9c0,1.2-0.6,2.4-1.3,3.3c-1.6,2-3.2,3.2-6.2,2.5c-5-1.2-10-0.6-14.5,2.4c-5.1,3.5-8.4,8.3-9.4,14.4
			c-0.6,4.1-0.9,8.2-0.3,12.4c0.8,5.7,2.9,10.7,6.7,14.9c2,2.2,4,4.3,5.9,6.6c1.3,1.6,1.1,2.8-0.6,3.9c-1.9,1.3-4,2-6.3,2.3
			c-3.2,0.4-6.2,0-9.2-1.2c-6.5-2.5-9.9-8.2-9.4-15.2c0.2-2.4,2.3-4.9,0.8-6.9c-1.2-1.7-3.7-2.4-5.6-3.7c-7.8-5.4-13.6-12.2-16-21.7
			c-2.7-10.5,1.3-23.7,11.6-30c1.2-0.8,3.3-1.1,3.3-2.9c-0.1-1.2-1.2-2.4-2-3.6c-2.4-3.6-3.5-7.6-3.8-11.8c-0.5-6.7,0.5-13.2,4-19
			c3-5,7.4-8.2,13.2-9.2c2.8-0.5,2.9-0.6,2.4-3.6c-1.1-7-0.6-13.9,2.2-20.4c2.8-6.6,7.4-11.2,14.2-13.6c2.6-0.9,2.7-1,2-3.7
			c-2.6-10.5-0.4-20.1,5.9-28.6c7.3-9.9,17.3-15.5,29.5-16.5c6.4-0.5,12.4,1.4,17.6,5.3c1.4,1,2.7,2.1,4.1,3.2
			c0.4,0.3,1,0.3,1.3-0.2c0.6-1,1.2-2.1,1.8-3.2c2.7-4.5,6.2-8.4,10.8-11.1c8.6-5,17.4-5.4,26.4-1c4.9,2.4,9.3,5.4,13.6,8.7
			c0.8,0.6,1.4,1.5,2.7,1.7c1.2-1.5,2.5-3.2,3.8-4.8c2.8-3.6,6.3-6.4,10.3-8.6c4.4-2.4,9.1-3.3,14.1-3.1c7.5,0.4,13.2,3.9,17,10.3
			c1.8,3.1,3.3,6.5,5,9.7c1,2,1.1,2.1,3.1,1c9.1-4.8,18.9-6.8,29.2-6c17.7,1.3,28.4,13.9,31,25.2c0.7,3,0.9,6.2,1.3,9.3
			c0.4,2.8,0.4,2.9,3.4,3.4c4.3,0.7,8.5,1.5,12.7,2.8c5.9,1.8,11.2,4.7,15.6,9.1c6.8,6.7,10.1,14.8,9,24.5c-0.4,3.3-1.6,6.4-2.8,9.4
			c1.2,1.2,2.6,1.2,3.9,1.5c16.9,4.7,29.7,19.9,31,37.2c0.4,5.1-0.9,10-3.5,14.5c-2.1,3.8-4.5,7.4-7.4,10.7
			c-1.6,1.8-1.8,3.5-0.8,5.7c0.8,1.7,1.2,3.6,1.5,5.5c1.1,6.8-0.1,13-3.9,18.9c-3.6,5.6-8,10-14.1,12.7c-0.3,0.1-0.6,0.3-0.9,0.5
			c-2.6,0.9-4.2,2.5-5.1,5.3c-1.4,4.6-4.3,8.3-8,11.3c-3.4,2.8-7.2,4.8-11.5,5.8c-6.1,1.5-11.7,0.2-17-2.9c-2.1-1.3-2.1-3.2-0.1-4.5
			c11.2-7.1,15.6-17.7,15.5-30.5c-0.1-5.5-1.9-10.6-4.6-15.3c-1.7-2.9-4.2-5.1-7.3-6.4c-4.1-1.6-8.2-2.6-12.7-1.8
			c-4.7,0.9-7.6-0.7-9.7-5c-1.6-3.2-2.2-6.6-2.2-10.1c0-4.9,0.8-9.7,1.8-14.4c0.5-2,0.2-2.3-2-2.6c-1.7-0.2-3.4-0.5-5.2-0.6
			c-7.2-0.7-12.3-4.3-15.3-10.9c-1.1-2.4-1.1-2.4-3.9-1.8c-2.7,0.6-5.5,1-8.2,1.1c-3.5,0.1-6.9-0.6-10.1-2c-4.4-1.9-7.6-4.8-9.3-9.3
			c-0.3-0.8-0.7-1.6-1-2.4c-0.3-0.7-1-0.9-1.7-0.8c-1.7,0.4-3.4,0.8-5.1,1.2c-3.6,0.8-7.2,1.2-10.8,0.9c-7.7-0.6-13.4-4.3-17.1-11.1
			C988.5-1515.3,987.6-1517.5,986.4-1520z"/>
		<path id="XMLID_451_" class="st2" d="M989.9-1091.2c-34.2,0-68.4-0.1-102.6,0c-27.4,0.1-54.9,0.2-82.3,0.6
			c-16.8,0.3-33.6,1.1-50.5,1.8c-6.4,0.2-12.8,0.5-19.3,0.7c-2.9,0.1-3.4-0.5-2.7-3.4c0.9-3.7,2-7.4,3-11.1c0.3-1.1,1-1.8,2.2-1.9
			c0.7-0.1,1.4-0.1,2.1-0.1c9.4-0.4,18.7-0.7,28.1-1.2c28.4-1.6,56.9-2,85.3-2.5c28.5-0.4,56.9-0.3,85.4-0.4
			c21.4-0.1,42.7,0,64.1-0.3c15.3-0.2,30.5-1,45.8-1.6c11.1-0.4,22.2-0.9,33.3-1.2c24.8-0.8,49.6-1.5,74.4-2.3
			c12.1-0.4,24.3-0.7,36.4-0.9c15.6-0.3,31.2,0.2,46.8,0.9c3.3,0.1,3.4,0.1,4.3,3.3c1.2,4,2.2,8,3.2,12.1c0.5,1.9,0,2.5-2.1,2.4
			c-2.9,0-5.9-0.1-8.8-0.3c-14.2-0.8-28.5-0.9-42.7-0.7c-20.1,0.3-40.3,0.9-60.4,1.4c-11.1,0.3-22.2,0.5-33.3,1
			c-20.5,0.8-40.9,1.7-61.4,2.6c-2.9,0.1-5.9,0.2-8.8,0.3c-13.2,0.3-26.4,0.7-39.6,1C989.9-1091.1,989.9-1091.2,989.9-1091.2z"/>
		<path id="XMLID_450_" class="st2" d="M988.4-1122.1c-59.3,1.2-121.1,0.8-182.9,1.3c-19.1,0.2-38.2,0.5-57.3,0.8
			c-1.6,0-3.1,0-4.7-0.1c-0.5,0-0.8-0.5-0.8-1.1c0-0.3,0.2-0.7,0.3-1c2-3.8,4.1-7.7,6-11.5c0.9-1.8,2.2-2.5,4.1-2.5
			c3.1,0,6.2-0.3,9.4-0.3c38.7-0.6,77.4-1.4,116.1-1.6c29.3-0.2,58.7-0.7,88-1.1c19.6-0.3,39.2-0.4,58.8-0.9
			c18.7-0.4,37.5-1.3,56.2-1.8c23.4-0.6,46.9-1.3,70.3-0.9c24.1,0.4,48.3,0.8,72.4,1.2c2.4,0,4.9,0.2,7.3,0.3
			c1.1,0.1,1.9,0.6,2.4,1.7c1.9,4.5,3.7,9,5,13.7c0.4,1.3-0.2,2-1.5,2.1c-0.5,0-1,0-1.6,0c-18.4-0.3-36.8-0.3-55.2-0.8
			c-22.7-0.7-45.5-0.7-68.2-0.4c-16.8,0.2-33.7,1-50.5,1.5c-2.8,0.1-5.6,0.2-8.3,0.2C1032.9-1122.9,1011.9-1121.9,988.4-1122.1z"/>
		<path id="XMLID_449_" class="st2" d="M993.5-1159.5c-15.5,0-30.9-0.1-46.4,0c-21.9,0.2-43.7,0.6-65.6,1.1
			c-20.1,0.5-40.2,1.3-60.4,2c-17.3,0.6-34.7,1.3-52,1.8c-2.2,0.1-4.5,0.4-6.7-0.3c0-2.8,2.4-4,3.9-5.8c2.3-2.6,4.9-4.9,7.2-7.5
			c2-2.2,4.3-3.2,7.3-3.2c5.9-0.1,11.8-0.5,17.7-0.7c12.8-0.5,25.7-0.9,38.5-1.5c26.5-1.3,53.1-2.1,79.6-2.8
			c28.3-0.7,56.6-1.1,84.9-0.8c25.5,0.3,51,0.5,76.6,1c32.5,0.7,64.9,0.6,97.4,1c12,0.1,24,0.5,35.9,0.5c2.8,0,4.5,1,5.9,3.3
			c2.5,4.2,5.5,8,7.6,12.4c0.6,1.2,0.1,2-1.3,2c-4.2,0-8.3,0-12.5-0.1c-22.4-0.2-44.8-0.4-67.2-0.7c-39.4-0.5-78.8-0.9-118.2-1.4
			c-10.8-0.1-21.5-0.4-32.3-0.6C993.5-1159.6,993.5-1159.6,993.5-1159.5z"/>
		<path id="XMLID_448_" class="st2" d="M1023.6-1196.3c0.7-1.4,2.1-1.4,3.1-1.8c3.7-1.6,7.4-2.9,11.1-4.5c5.1-2.2,10-4.9,14.2-8.6
			c2.4-2.1,4.9-2.8,8-2.8c20.1,0.1,40.3,0,60.4,0.2c18.2,0.1,36.4,0.6,54.7,0.7c2.8,0,5,0.8,7.1,2.5c4.9,4.1,9.9,8.2,14.8,12.3
			c0.7,0.5,1.3,1.2,1.8,1.9c0.3,0.4,0.4,1.1-0.4,1.1c-2.1,0.1-4.2,0.2-6.2,0.1c-23.1-0.3-46.2-0.7-69.3-1
			c-30.9-0.4-61.8-0.2-92.7,0.1C1028.1-1196,1025.8-1195.7,1023.6-1196.3z"/>
		<path id="XMLID_447_" class="st2" d="M969.3-1195.7c-1.4,1.1-2.8,0.8-4.1,0.8c-16,0.2-31.9,0.6-47.9,0.6
			c-36.6,0.1-73.2,0.2-109.9,0.2c-1.4,0-2.8,0-4.2-0.1c-0.3,0-0.7-0.2-0.8-0.5c-0.1-0.3,0-0.8,0.2-0.9c1.5-1.2,3-2.3,4.6-3.4
			c5-3.5,10-6.8,15.5-9.6c3-1.5,6.1-2.3,9.5-2.3c12,0,23.9-0.2,35.9-0.3c20-0.2,39.9-0.4,59.9-0.7c3.1-0.1,5.5,0.8,8.1,2.6
			c7.5,5.2,15.9,8.4,24.7,10.8C963.6-1197.7,966.5-1197,969.3-1195.7z"/>
		<path id="XMLID_446_" class="st2" d="M1078.1-1227.4c-2.2,0-4.4,0-6.7,0c-1.4,0-1.8-0.8-0.9-2c2.7-3.9,5.3-7.7,7.2-12
			c0.5-1.2,1.4-1.9,2.8-2c1.7-0.1,3.4-0.4,5.2-0.5c7.1-0.4,14.2-0.6,21.3-1.1c3.3-0.2,6.5,0.3,9.7,1.5c9.4,3.5,18.8,7.1,27.9,11.3
			c0.8,0.4,1.6,0.7,2.3,1.2c0.2,0.1,0.3,0.6,0.3,0.9c0,0.1-0.2,0.2-0.4,0.2c-0.9,0.1-1.7,0.2-2.6,0.2c-17.5,0.5-35,0.9-52.5,1.4
			C1087.2-1228.1,1082.7-1227.7,1078.1-1227.4z"/>
		<path id="XMLID_445_" class="st2" d="M856.8-1223.5c0.5-1.6,1.8-1.7,2.9-2.1c5.8-2.3,11.6-4.5,17.4-6.8c4.6-1.9,9.2-4,13.7-6.2
			c2.1-1,4.1-1.7,6.4-1.6c2.8,0.2,5.7-0.5,8.2,0.4c2.4,0.8,2.9,4.1,4.5,6.1c2.2,2.7,4.3,5.4,6.4,8.2c0.6,0.8,0.2,1.7-0.9,1.8
			c-0.9,0.1-1.7,0.1-2.6,0.1c-10.7-0.7-21.5-0.2-32.2,0c-7.1,0.1-14.2,0.1-21.3,0.2C858.6-1223.3,857.8-1223.4,856.8-1223.5z"/>
		<path id="XMLID_444_" class="st2" d="M1005.2-1228.5c0.6-1.3,1-2.6,1.7-3.7c2.4-3.9,7.2-4.9,10.9-2.4c3.5,2.4,4.3,7.1,1.9,10.6
			c-2.5,3.6-7.4,4.3-11,1.7c-1.1-0.8-1.5-2.3-2.9-2.8c-1.3,0.7-1.2,2.1-2,3c-2.9,3.7-8.1,4.3-11.4,1.2c-3.1-2.8-3.2-7.7-0.4-10.8
			c3.1-3.4,8.3-3.2,11.5,0.4C1004.1-1230.4,1004.6-1229.5,1005.2-1228.5z"/>
		<path id="XMLID_443_" class="st2" d="M1060-1245c-4.9,0.1-8.7-3.1-8.8-7.6c-0.2-4.4,3.4-8.2,7.7-8c5.1,0.3,8.6,3.9,8.6,8
			C1067.5-1248.3,1064.4-1245.1,1060-1245z"/>
		<path id="XMLID_442_" class="st2" d="M1037.6-1232c0.1,4.2-3.3,7.7-7.5,7.7c-4.1,0.1-7.7-3.4-7.8-7.5c-0.1-4.2,3.3-7.7,7.5-7.8
			C1034-1239.6,1037.5-1236.2,1037.6-1232z"/>
		<path id="XMLID_441_" class="st2" d="M1046.2-1232.6c-4.2-0.1-7.5-3.6-7.4-7.8c0.1-4.2,3.6-7.6,7.8-7.5c4.2,0.1,7.5,3.6,7.4,7.9
			C1053.9-1235.9,1050.5-1232.5,1046.2-1232.6z"/>
		<path id="XMLID_440_" class="st2" d="M945.6-1246.3c4.1,0.4,7.2,4.2,6.9,8.2c-0.4,4.1-4,7.3-8.1,7c-4.1-0.3-7.4-4-7.2-8
			C937.5-1243.4,941.3-1246.7,945.6-1246.3z"/>
		<path id="XMLID_439_" class="st2" d="M987.1-1227.7c0,4.3-3.3,7.6-7.5,7.6c-4.3,0-7.6-3.3-7.6-7.5c0-4.3,3.2-7.6,7.5-7.7
			C983.7-1235.3,987.1-1231.9,987.1-1227.7z"/>
		<path id="XMLID_438_" class="st2" d="M927.7-1240.6c-4.3,0-7.6-3.4-7.5-7.6c0-4.2,3.5-7.6,7.7-7.5c4.3,0,7.6,3.4,7.6,7.6
			C935.3-1243.8,932-1240.5,927.7-1240.6z"/>
		<path id="XMLID_437_" class="st2" d="M962.9-1223.1c-4.3,0-7.5-3.3-7.5-7.6c0-4.3,3.3-7.5,7.6-7.5c4.3,0,7.5,3.3,7.5,7.6
			C970.5-1226.4,967.2-1223.1,962.9-1223.1z"/>
		<path id="XMLID_206_" class="st3" d="M938.1-1420.1c-6.1,0.2-11.1-0.7-15.9-2.2c-2.8-0.9-5.5-2.2-7.7-4.1c-4.1-3.4-5.3-8-3.6-13.1
			c2-6.2,6.6-9.6,12.7-11c9.7-2.2,19.3-1.1,28.5,2.5c2.9,1.1,5.5,2.9,7.8,5c5.1,4.7,4.2,13-0.7,17c-3.2,2.5-6.9,4-10.8,4.9
			C944.6-1420.4,940.8-1420.2,938.1-1420.1z M920-1446.6c-5.1,3.3-7.5,7.1-7.1,12.1c0.3,4.1,3,6.6,7.4,8.3
			C917.6-1433,918-1439.4,920-1446.6z M960.8-1434.7c0-3.3-1.7-5.7-4.1-7.5c-0.7-0.5-1.8-1.3-2.2-1.1c-1.1,0.6-0.4,1.8-0.2,2.7
			c0.5,1.7,0.4,3.4,0.5,5.1c0.2,2.6-0.5,5.1-0.9,7.7c-0.1,0.8,0.6,1.4,1.2,1.1C958.7-1428.3,960.3-1431.2,960.8-1434.7z"/>
		<path id="XMLID_202_" class="st3" d="M1031.9-1417c-4.4-0.1-9.2-0.4-13.8-2.1c-2.3-0.8-4.5-1.9-6.5-3.3c-5.8-4.1-6.8-12.9-0.9-18
			c3-2.5,6.3-4.4,9.9-5.5c8.4-2.5,16.9-3.5,25.6-1.5c6.3,1.4,11.1,4.7,13.1,11.2c1.6,5.1,0.3,9.6-3.8,13c-2.3,1.9-4.9,3.2-7.8,4.1
			C1042.7-1417.6,1037.6-1416.7,1031.9-1417z M1017.7-1441.4c-2.2,0.4-3.9,1.9-5.4,3.4c-4,4-3.8,9.5,0.6,13.1
			c1.6,1.3,3.5,2.2,5.4,2.9c0.4,0.2,1,0.3,1.4,0.1c0.6-0.3,0.2-0.9-0.1-1.3c-2.8-4.7-3-9.8-2.2-15
			C1017.5-1439.2,1018.4-1440.1,1017.7-1441.4z M1049.9-1423c4.7-2.1,7.3-4.9,7.3-9.4c0-2.3-0.8-4.4-2-6.3c-1.1-1.7-2.3-3.3-4.8-4.1
			C1052.5-1436.2,1053.1-1430,1049.9-1423z"/>
		<path id="XMLID_197_" class="st3" d="M989.5-1078.1c-32.8,0.3-65.6,0.4-98.4,1.1c-27.1,0.6-54.2,0.4-81.2,1
			c-23.8,0.5-47.6,0.6-71.3,0.9c-1.6,0-3.1,0-4.7,0c-2.4-0.1-3.2-0.7-3.4-3c-0.3-3.8-0.1-7.6,0.6-11.4c1.1-6.2,3-12.2,5.2-18
			c3.8-9.9,8.3-19.5,13.3-28.8c9.2-17,21.5-31.5,35.3-44.8c5.8-5.5,11.6-11,18-15.8c8.1-6,16.6-11.3,25.7-15.8
			c21.9-11,44.6-20.1,67.6-28.3c15.9-5.7,26.6-16.6,30.7-33.4c1.5-6.3,2.6-12.6,2.5-19c-0.1-3.4-0.1-3.5-3.1-4.5
			c-9.2-3-16.5-8.7-22.4-16.3c-7.4-9.6-12.5-20.3-15-32.3c-2.3-11.1-3.7-22.2-5-33.4c-0.3-2.6-0.5-3-2.9-3.5
			c-15.1-3.3-29.9-20.9-28.7-40c0.2-3.3,0.9-6.5,2.2-9.6c6.2-14.2,20.8-15.9,31-11.6c0.5,0.2,0.9,0.6,1.2,0.9c0.2,0.2,0.3,0.7,0.2,1
			c-0.1,0.3-0.4,0.6-0.7,0.7c-1.3,0.3-2.4-0.3-3.5-0.7c-3.5-1.1-7.1-1.7-10.8-1c-7.2,1.4-12.3,5.5-15,12.3
			c-2.1,5.3-2.4,10.8-1.2,16.4c2.3,10.5,7.8,18.8,16.7,24.8c3.3,2.3,7,3.8,11,4.4c2.5,0.4,2.8,0.8,2.9,3.4
			c0.6,9.7,2.2,19.3,3.8,28.9c1.5,9.1,3.8,18,8.3,26.2c3.1,5.7,6.7,11,11.1,15.7c6.5,6.9,14.3,11.6,23.9,12.4
			c1.3,0.1,2.4,0.3,3.3,1.3c6.6,7,15.3,10,24.3,12.2c9.1,2.2,18.4,3.5,27.8,3.2c19.2-0.5,36.9-5.9,53.2-15.9
			c1.8-1.1,3.6-1.9,5.8-2.2c3.1-0.4,6.1-1.4,9-2.6c7.5-3.3,12.8-8.8,16.5-16c3.2-6.2,5.3-12.8,7.2-19.5c1.8-6.2,2.5-12.6,2.9-19
			c0.3-6.2,0.3-12.5,0.3-18.7c0-2.6-0.1-5.2-1.1-7.7c-0.6-1.3,0.2-2.3,1.7-2.6c16-3.4,24.4-14.3,28.2-29.4c1.2-4.7,0.9-9.6-0.6-14.4
			c-3.3-10.6-12.8-16.1-23.6-13.7c-2,0.4-4,1-6.1,1.4c-0.3,0.1-1.1-0.4-1.1-0.8c-0.1-0.4,0.3-0.9,0.5-1.3c0.2-0.3,0.6-0.4,0.9-0.5
			c12.8-5.2,28.4-0.8,32.6,16c1.4,5.7,1.1,11.4-0.6,17c-4.1,13.7-12.5,23.4-26.3,28c-2.3,0.8-2.5,0.8-2.2,3.3c1,8.7,0.4,17.3-0.1,26
			c-0.8,13-4.4,25.2-10.1,36.9c-4.5,9.2-11.5,15.5-21.2,18.9c-0.7,0.2-1.3,0.4-2,0.6c-1.1,0.4-1.8,1-1.9,2.2
			c-0.6,7.5-0.3,14.9,2.1,22.1c1.5,4.5,4.2,8.4,7.8,11.5c5.4,4.7,11.5,8.4,18.5,10.2c10.1,2.6,20.2,4.9,30.2,7.8
			c19.8,5.6,38.7,13.2,56.6,23.4c31,17.6,53.2,42.9,66.8,75.9c6.2,15,10.8,30.4,14.5,46.1c1,4.4,2,8.8,2.8,13.2
			c0.7,3.5-0.4,4.8-4.1,5c-6.2,0.2-12.5,0.2-18.7,0.3c-24.1,0.3-48.3,0.6-72.4,0.9c-24.6,0.3-49.3,0.6-74,0.9
			c-16.1,0.2-32.3,0.6-48.4,0.8c-14.4,0.1-28.8,0-43.2,0C989.5-1078.4,989.5-1078.3,989.5-1078.1z M1124.3-1082.8
			C1124.3-1082.8,1124.3-1082.8,1124.3-1082.8c2.4,0.1,4.9,0.1,7.3,0.1c21.2-0.3,42.3-0.6,63.5-0.9c16.1-0.2,32.3-0.4,48.4-0.7
			c3.8-0.1,4.2-0.6,3.6-4.3c-0.1-0.3-0.1-0.7-0.2-1c-4.4-20-9.8-39.7-18-58.6c-12.8-29.4-32.9-52.3-60.3-69
			c-15.1-9.2-31.2-15.9-47.7-21.7c-12.1-4.3-24.7-7-37.1-10c-1-0.2-1.7,0.1-2,1.1c-0.4,1.1-0.8,2.3-1.2,3.4
			c-2.5,6.7-5.8,13-10.1,18.7c-10.8,14.3-25,23.8-41.9,29.6c-8.7,3-17.7,4.8-27,5.3c-2.8,0.2-3,0.3-3,3.1c0,5.6,0.1,11.1,0.3,16.7
			c0.6,19.8,1.2,39.5,1.8,59.3c0.3,8.8,0.6,17.7,0.9,26.5c0,0.7,0.1,1.4,0.1,2.1c0.1,1.2,0.8,1.9,2,1.9c2.1,0.1,4.2,0.1,6.2,0
			c5.2-0.1,10.4-0.3,15.6-0.3c9.4-0.1,18.7-0.1,28.1-0.2C1077.1-1082.1,1100.7-1082.5,1124.3-1082.8z M865.8-1079.5
			c1.5,0,4.1,0,6.7,0c26.5-0.3,53.1-0.7,79.6-1c13.4-0.2,26.7-0.2,40.1-0.4c7.2-0.1,6.2-0.1,6.1-6.4c-0.2-10.8-0.7-21.5-1-32.3
			c-0.5-20.3-0.9-40.6-1.4-60.9c-0.1-2.6-0.2-5.2-0.4-7.8c-0.1-1.8-0.7-2.3-2.7-2.4c-0.7,0-1.4,0-2.1,0c-10.7-0.3-21-2.1-31.1-5.4
			c-23-7.6-41.8-20.8-55-41.4c-0.4-0.6-0.7-1.2-1.2-1.7c-0.5-0.6-1.1-0.8-1.8-0.6c-0.8,0.2-1.7,0.5-2.5,0.8
			c-21.9,7.4-43.3,16-64,26.2c-9.2,4.5-18.2,9.2-26.6,15.2c-14.1,10.1-26.1,22.3-37.5,35.2c-6.7,7.6-12.4,15.8-17.4,24.6
			c-5.5,9.5-10,19.4-14.1,29.5c-3.1,7.6-5.7,15.3-6.4,23.5c-0.7,7.9-0.7,7.2,6.1,7.1c16.3-0.2,32.6-0.5,48.9-0.7
			c7.3-0.1,14.6-0.1,21.9-0.2C828.3-1078.9,846.5-1079.2,865.8-1079.5z M994.3-1193.3c6.5,0.1,12.8-0.7,19.1-1.8
			c14.2-2.6,27.3-7.9,38.9-16.6c11.7-8.7,20.4-19.7,25.4-33.5c0.4-1.1,0.8-2.3,1.1-3.5c0.2-0.7,0-1.3-0.9-1.6
			c-0.5-0.2-1-0.4-1.5-0.5c-8.7-3.1-16.2-7.8-21.9-15.2c-0.8-1.1-1.7-1.6-3.1-1.2c-1.3,0.4-2.7,0.5-4.1,0.9
			c-6.4,1.7-13,2.2-19.6,2.4c-15.3,0.5-30.4-1.3-45.3-5c-16-3.9-30.1-11.2-42.4-22.3c-1.4-1.3-2.8-2.6-4.3-3.8
			c-0.7-0.5-1.4-1-2.2-1.2c-0.7-0.2-1.5,0-1.6,0.8c-0.1,1-0.1,2.1-0.1,3.1c0,7.3-1.2,14.5-3.3,21.5c-2.5,8.3-6.7,15.6-13.1,21.5
			c-2.4,2.2-5.2,4-8,5.8c-2,1.3-2.1,1.6-0.8,3.7c4.6,7.7,10.3,14.4,17,20.2C943.9-1202,967.7-1193.9,994.3-1193.3z"/>
		<path id="XMLID_193_" class="st3" d="M899.4-1448.6c0.1-22.4,18.5-40,40.9-38.2c21.2,1.7,32.3,17.7,34.4,31.1
			c0.1,0.5,0.2,1,0.2,1.5c0.3,2.4,0.6,4.8,0.9,7.2c2.4,1.1,4.6-0.7,7-0.6c3.3,0.2,6.6,0.4,9.8,1.3c2.7,0.7,2.8,0.7,3.1-2.1
			c0.5-4.5,1.6-8.9,3.7-12.9c5.9-11.4,15.1-18.2,27.7-20.6c18.2-3.6,39.6,8.9,43.6,30.9c3.2,18-8.3,39.8-31.2,43.8
			c-18.8,3.3-39.9-9.3-43.3-31.1c-0.5-3.1-1.9-4.7-4.7-5.4c-4.8-1.3-9.6-1.7-14.3,0.1c-1.4,0.5-2.4,1.3-2.7,2.8c-0.5,2-1,4-1.9,5.9
			c-6.4,15.1-18,23.4-34.1,23.9c-20.7,0.7-35-14-38.3-30.3C899.7-1443.9,899.2-1446.4,899.4-1448.6z M902.4-1449.2
			c-0.5,20.8,17.5,35.3,34.7,35.4c19.7,0.1,35.3-16.6,35.4-34.8c0.1-18.7-15.5-35.3-34.8-35.4C917.8-1484.1,902-1467.4,902.4-1449.2
			z M1068.3-1444.5c0.7-19.7-16.6-35.2-34.8-35.3c-17.3,0-35.1,14-35.1,35.1c0,20.6,17.2,34.8,34.6,35
			C1052.8-1409.5,1068.8-1426.2,1068.3-1444.5z"/>
		<path id="XMLID_192_" class="st3" d="M1005.8-1402.4c0.1,6.6-3.2,11.5-9,13.8c-5.3,2-10.8,2.3-16.3,0.4c-0.6-0.2-1.2-0.7-1.7-1.2
			c-0.2-0.2-0.2-0.7-0.2-0.9c0.1-0.3,0.5-0.7,0.7-0.7c0.9,0,1.7,0.2,2.5,0.4c3.4,0.9,6.9,0.9,10.3,0.4c5.2-0.8,9-3.3,10.6-8.7
			c0.6-2.1,0.5-4.1,0-6.1c-0.9-3.7-2.3-7.3-4-10.7c-2.4-4.6-4.9-9.2-7.4-13.7c-0.4-0.8-0.8-1.5-1-2.3c-0.1-0.2,0.2-0.7,0.5-0.8
			c0.2-0.2,0.7-0.2,0.9-0.1c1,0.4,1.5,1.4,2.1,2.2c4.1,6.8,7.9,13.8,10.6,21.4C1005.2-1406.8,1006-1404.4,1005.8-1402.4z"/>
		<path id="XMLID_191_" class="st3" d="M993.2-1342.1c-3.5,0.4-7.2-0.5-11-1.2c-4.7-0.9-8.7-3.3-12.2-6.6c-0.5-0.5-0.9-1.2-0.4-1.8
			c0.4-0.7,1.1-0.6,1.8-0.2c0.2,0.1,0.3,0.2,0.4,0.3c7,6.3,15.6,7,24.4,6.8c8-0.2,14.8-3.4,20.6-8.7c1-0.9,1.8-2.2,3.3-2.5
			c0.3-0.1,0.7,0.1,0.9,0.3c0.2,0.2,0.4,0.7,0.3,0.9c-0.4,0.7-0.9,1.5-1.5,2.1C1012.4-1345.6,1003.8-1341.7,993.2-1342.1z"/>
		<path id="XMLID_190_" class="st3" d="M869.2-1418.2c-0.3,2.5,0.5,4.8,2,6.8c0.8,1.1,1.6,2.2,2.5,3.4c0.6,0.8,1.5,1.8,0.3,2.7
			c-0.8,0.6-1.6-0.2-2.2-0.9c-4.1-4.4-6.7-9.4-4.9-15.6c2.2-7.6,8-10.7,15.7-8.3c0.7,0.2,1.2,0.9,0.8,1.6c-0.2,0.4-0.8,0.7-1.3,0.7
			c-1,0-2.1-0.3-3.1-0.4c-5.3-0.4-9.4,3.1-9.9,8.4C869.2-1419.2,869.2-1418.7,869.2-1418.2z"/>
		<path id="XMLID_189_" class="st3" d="M1090.3-1430.8c4.7,0,9.2,3.8,10.4,8.7c1.1,4.2,0.6,8.3-1.9,12c-1.1,1.7-2.3,3.5-4,4.7
			c-0.4,0.3-1,0.4-1.4,0c-0.4-0.4-0.5-1-0.2-1.4c0.9-1.3,1.8-2.5,2.7-3.8c2-2.6,2.7-5.5,2.5-8.8c-0.4-5.6-4.5-9.2-10.1-8.7
			c-1,0.1-2.1,0.3-3.1,0.4c-0.6,0-0.9-0.4-1.1-0.9c-0.3-0.6,0.2-1,0.6-1.3c1-0.8,2.3-0.7,3.5-0.8
			C1088.9-1430.7,1089.6-1430.8,1090.3-1430.8z"/>
		<path id="XMLID_188_" class="st3" d="M947.9-1360.5c-0.5-0.3-1.1-0.5-1.2-0.8c-0.1-0.4,0.2-1.1,0.6-1.3c0.9-0.5,1.9-0.8,2.9-1.2
			c7.6-2.9,14.2-7.1,18.5-14.3c0.2-0.3,0.4-0.5,0.7-0.8c0.5-0.4,1-0.3,1.4,0.1c0.2,0.2,0.5,0.7,0.4,0.9c-0.3,1-0.7,2-1.3,2.8
			c-2.1,3.2-4.9,5.8-8,8.1c-3.5,2.6-7.4,4.5-11.5,6C949.6-1360.8,948.7-1360.7,947.9-1360.5z"/>
		<path id="XMLID_187_" class="st3" d="M1021.6-1377.1c0.4,0.1,0.8,0,1,0.2c0.5,0.5,0.9,1,1.3,1.6c3.2,4.9,7.5,8.5,12.7,11.2
			c2.2,1.1,4.3,2.2,6.5,3.3c0.5,0.2,0.8,0.7,0.7,1.2c-0.2,0.9-0.9,0.9-1.6,0.9c-0.3,0-0.7,0-1-0.2c-6.9-3.3-13.6-6.8-18.2-13.3
			c-0.8-1.1-1.8-2.2-1.9-3.6C1021-1376.2,1021.4-1376.7,1021.6-1377.1z"/>
		<path id="XMLID_186_" class="st3" d="M996.6-1336.2c-2.7-0.2-5.3,0.3-7.8-0.5c-0.5-0.2-0.8-0.6-0.6-1.2c0.1-0.3,0.4-0.7,0.6-0.7
			c0.8-0.2,1.7-0.3,2.5-0.4c5-0.1,10,0.3,15-0.8c0.4-0.1,1.1,0.3,1.2,0.7c0.4,0.7-0.1,1.4-0.8,1.6c-1.1,0.4-2.3,0.7-3.5,0.8
			C1001-1336.4,998.8-1336.3,996.6-1336.2z"/>
		<path id="XMLID_183_" class="st3" d="M976.9-1113.9c3.9-0.8,8.2,3.9,8.2,9.9c0,5-3,8.3-8.3,8.7c-5,0.5-9.7-4.3-9.6-9.5
			C967.2-1109.4,970.8-1114.1,976.9-1113.9z M976.3-1098.1c3.7,0.1,6.2-2.3,6.2-6.1c0-3.8-2.5-7.2-5.3-7.2c-4.3,0-7.1,2.5-7.2,6.5
			C969.8-1101.1,972.5-1098.2,976.3-1098.1z"/>
		<path id="XMLID_180_" class="st3" d="M985.9-1173.7c0,4.7-3.9,8.6-8.5,8.7c-4.6,0.1-9-3.8-9.1-8.2c-0.1-4.7,3.6-8.4,8.6-8.4
			C982-1181.6,985.9-1178.3,985.9-1173.7z M977-1167.7c3.3,0.1,6-2.4,6.2-5.7c0.2-2.8-2.8-5.4-6.4-5.4c-3.4,0-5.7,2.1-5.9,5.3
			C970.9-1170.5,973.6-1167.8,977-1167.7z"/>
		<path id="XMLID_179_" class="st3" d="M923.9-1456.7c-3.5,0.1-5.7-0.2-6.8-2.7c-0.9-2.1,0-4.5,2.4-6.3c4.6-3.3,9.9-4.8,15.6-4.8
			c1,0,2,0.3,2.9,0.9c1.7,1.1,2.2,2.7,1.1,4.5c-0.4,0.7-1,1.5-1.6,2.1C933.6-1459,928.5-1457.1,923.9-1456.7z"/>
		<path id="XMLID_178_" class="st3" d="M1032.2-1470.6c4.1,0.5,8.8,1.6,13,4.3c1.3,0.9,2.4,2,3.1,3.4c1.2,2.6-0.2,5.4-3,6.1
			c-0.5,0.1-1,0.2-1.6,0.2c-6.3-0.1-11.8-2.3-16.3-6.9c-0.5-0.5-0.9-1.1-1.2-1.7c-1-1.8-0.5-3.3,1.2-4.4
			C1028.6-1470.5,1030-1470.5,1032.2-1470.6z"/>
	</g>
	<path id="XMLID_111_" class="st2" d="M1154.7,603.3c-1.4,0.1-2.8,0.1-4.2,0.1H957.7v0.5c-63.7,0.2-127.5,0.4-191.2,0.6
		c-1.7,0-3.5,0-5.2-0.1c-1.5-0.1-2.2-1.3-1.6-2.5c0.8-1.5,1.7-3,2.6-4.5c9.5-16,18.4-32.2,25.4-49.5c6.5-16,11.8-32.3,15.3-49.1
		c1.4-6.6,3.1-13.2,4.3-19.8c1.2-7.2,2-14.4,2.9-21.6c0.1-0.9,0.2-1.7,0.3-2.6c0.3-2.9,1.8-4.7,4.7-5.5c10-2.6,19.1-7.3,28.2-12
		c2-1,4-2.1,6.1-3c2.8-1.2,4.4-0.3,4.9,2.5c0.4,2.2,0.6,4.5,0.9,6.7c3.4,26.5,11.6,51.4,25.4,74.3c3.8,6.3,8.1,12,13.5,17.1
		c6.3,6,13.9,9.8,21.9,12.8c5.5,2.1,11,3.9,16.7,5.3c1.4,0.3,2.8,0.7,4.1,1c0.4,0.1,0.7,0.2,1.1,0.3c9.4,2.1,18.9,2.5,28.5,2.2
		c11.3-0.3,22.1-2.9,32.6-7c0.6-0.2,1.2-0.5,1.8-0.7c0.8-0.3,1.6-0.7,2.4-1.1c9.4-4.4,16.9-11.3,23.3-19.5
		c11.5-14.8,19.6-31.5,25.6-49.2c4.6-13.7,7.5-27.8,9.2-42.1c0.7-5.7,1.8-6.4,6.9-3.9c3.8,1.8,7.4,3.7,11.1,5.7
		c6.6,3.5,13.5,6.4,20.7,8.3c3.6,1,5.1,3,5.4,6.6c0.8,7.2,1.7,14.5,2.7,21.7c1.4,9.5,4,18.7,6.1,27.9c6.5,28.5,17.8,55.1,32.3,80.4
		c2.6,4.5,5.3,9,7.9,13.5c0.7,1.2,1.6,2.3,1.8,3.7C1156.6,601.9,1155.9,603.1,1154.7,603.3z"/>
	<path id="XMLID_108_" class="st3" d="M1194.2,601.3c-9.9,1.3-19.8,1-29.6,1.5c-1,0.1-2.1,0.2-3-0.4c-0.3-0.2-0.5-0.6-0.5-0.8
		c0-0.3,0.3-0.6,0.5-0.8c0.7-0.6,1.6-0.5,2.5-0.5c12-0.4,23.9-0.9,35.9-1.3c7.6-0.3,15.3-0.6,22.9-0.9c0.7,0,1.4-0.1,2.1-0.2
		c0.8-0.2,1.2-0.8,1.1-1.5c-0.4-2-0.8-4.1-1.5-6c-3.9-10.6-8.6-20.8-13.6-30.9c-10.3-20.5-23.8-38.6-39.5-55.3
		c-17.8-18.8-38.1-34.4-59.8-48.4c-0.7-0.5-1.5-0.9-2.1-1.5c-0.3-0.3-0.6-1-0.4-1.3c0.2-0.3,0.9-0.7,1.3-0.6
		c1.1,0.4,2.2,0.9,3.2,1.6c3.7,2.3,7.4,4.6,10.9,7.2c12.4,9,24.8,17.8,35.9,28.4c13,12.3,25.2,25.4,35.6,40
		c5.1,7.1,9.7,14.4,13.8,22.1c6.2,11.5,11.9,23.2,16.4,35.4c1.3,3.4,2.4,6.9,2.5,10.6c0,2.1-0.6,2.9-2.7,3c-5,0.3-10,0.7-15.1,0.8
		C1205.3,601.4,1199.8,601.3,1194.2,601.3z"/>
	<path id="XMLID_107_" class="st3" d="M726.8,603.1c-13.4-0.6-23.1-1-32.8-1.4c-0.5,0-1,0-1.6,0c-3.5-0.2-4.3-1.1-3.5-4.7
		c0.6-2.9,1.3-5.8,2.3-8.5c4.7-13.1,10.8-25.5,17.5-37.7c9.6-17.4,21.8-32.9,35.5-47.4c17.3-18.3,37.1-33.5,58-47.3
		c1.6-1,3.1-2.2,5-2.7c0.6-0.2,1,0.2,1.2,0.7c0.1,0.3,0,0.8-0.2,0.9c-1.1,0.9-2.2,1.7-3.3,2.4c-14.7,9.3-28.7,19.6-41.6,31.2
		c-24.9,22.2-45.6,47.6-59.7,78c-3.7,8-7.1,16.2-10.5,24.4c-0.1,0.3-0.2,0.7-0.3,1c-2.4,7.7-1.2,7,5,7.2c14.9,0.5,29.8,1.2,44.7,1.7
		c3.6,0.1,7.3,0.2,10.9,0.4c0.8,0,1.7,0.3,2.5,0.5c0.2,0.1,0.4,0.6,0.3,0.9c0,0.3-0.2,0.7-0.5,0.8c-0.9,0.6-2,0.4-3,0.4
		C742.9,603.4,733,603.7,726.8,603.1z"/>
	<path id="XMLID_106_" class="st3" d="M965.6,492.9c-1.8,0-3.2-1.7-3.3-3.8c0-2.4,1.6-4,3.7-3.9c1.7,0.1,2.9,1.5,3,3.5
		C969,491.1,967.5,492.9,965.6,492.9z"/>
	<g id="XMLID_28_">
		<g id="XMLID_32_">
			<path id="XMLID_71_" class="st2" d="M988.8-354.4c-29.5,0-59,0.3-88.5-0.1c-47.6-0.6-95.1-0.7-142.7-1c-20.5-0.1-41-0.4-61.4-0.6
				c-0.2,0-0.3,0-0.5,0c-4-0.1-4-0.1-3.5-4.1c5.2-35.8,17.8-68.7,39.1-98.1c9.7-13.4,20-26.2,32.5-37.1c5.6-4.9,11.6-9.4,17.8-13.6
				c18.6-12.3,38.1-22.8,58.7-31.3c22.9-9.5,46.3-17.8,70-25c2.3-0.7,4.7-1.3,7.1-1.7c2.2-0.4,2.7,0,3,2.3
				c1.1,6.6,4.6,11.9,8.7,16.9c3.6,4.3,8,7.7,12.8,10.5c10.8,6.4,22.5,9.9,34.9,11.3c25.9,2.8,48.7-4.7,69-20.5
				c5.3-4.1,9.7-8.9,12.4-15.2c1.3-3,2.6-3.4,5.9-2.6c7.3,1.7,14.4,3.9,21.5,6.3c20.4,6.8,40.6,14.2,60.4,22.6
				c21.3,9.1,41.3,20.5,60.2,33.9c10.5,7.4,19.8,16.4,28.2,26.2c12.5,14.6,23.1,30.3,32.3,47.2c9.8,18,15.5,37.4,19.8,57.3
				c0.9,4.2,1.8,8.5,2.3,12.8c0.6,5.2-0.3,6.2-5.6,6.1c-16.8,0-33.7-0.2-50.5-0.2c-0.9,0-1.7-0.1-2.6-0.1
				c-21.9-0.1-43.7-0.3-65.6-0.4c-39.1-0.2-78.1-0.4-117.2-0.7c-19.4-0.2-38.9-0.5-58.3-0.7C988.8-354.2,988.8-354.3,988.8-354.4z"
				/>
			<path id="XMLID_67_" class="st3" d="M935.3-711.5c6.4-0.2,12.3,0.9,18,3.1c3,1.1,5.6,2.7,8,4.8c6,5.1,4.7,14-1,18
				c-3.3,2.3-7,3.9-10.9,4.5c-7.9,1.2-15.8,1.5-23.6-0.8c-3-0.9-5.9-2-8.4-3.9c-5-3.7-6.6-8.8-4.3-14.6c2-5,5.6-8.2,10.8-9.7
				C927.6-711.3,931.5-711.7,935.3-711.5z M953.2-685.5c2.9-0.6,4.5-1.6,5.9-2.7c4.4-3.6,4.6-9,0.7-13.1c-0.6-0.6-1.3-1.1-2-1.6
				c-0.4-0.3-0.9-0.6-1.3-0.2c-0.2,0.2-0.3,0.6-0.2,0.9C957.4-696.6,956.7-691.3,953.2-685.5z M921.3-686.7
				c-0.5-3.6-1.4-6.6-1.4-9.7c0-3.3,1.4-6.3,1.9-10.1c-4.6,2.5-6.7,6.1-7,10.6C914.5-691.6,916.9-688.8,921.3-686.7z"/>
			<path id="XMLID_63_" class="st3" d="M1038.1-711.5c4.2-0.1,8.2,0.2,12,1.3c5.1,1.5,8.8,4.7,10.8,9.7c2.2,5.8,0.7,11-4.4,14.6
				c-3,2.2-6.4,3.4-10,4.2c-8.2,2-16.4,1.6-24.6-0.2c-2.7-0.6-5.2-1.8-7.6-3.3c-6.6-4-8-13.6-1.4-18.9c2.9-2.3,6-4,9.5-5.1
				C1027.6-710.8,1032.9-711.8,1038.1-711.5z M1059.1-696c-0.5-4.1-2.2-7.8-6.4-10.1c-0.3-0.2-0.7-0.4-0.9-0.3
				c-0.6,0.2-0.5,0.8-0.4,1.2c1.9,5.9,2.2,11.8-0.1,17.7c-0.1,0.2-0.2,0.4-0.1,0.5c0.2,0.2,0.5,0.6,0.7,0.5
				C1055.7-687.2,1059.1-691.6,1059.1-696z M1016.9-703.3c-0.2,0-0.3,0-0.5,0.1c-6.5,3.8-6.9,11.3-0.8,15.6c0.7,0.5,1.8,1.2,2.3,0.9
				c1.2-0.7,0.3-1.8-0.1-2.7c-0.9-2.3-0.9-4.7-0.8-7.1c0.1-2.1,0.3-4.1,0.5-6.2C1017.5-702.8,1017.1-703,1016.9-703.3z"/>
			<path id="XMLID_60_" class="st3" d="M989.5-540.6c-13.3,0.4-26.3-1.2-39-5.3c-10.2-3.3-19.5-8.1-27.9-14.8
				c-15.3-12.3-25.1-28.1-30.2-46.9c-3.9-14.6-5-29.4-3.6-44.4c0.2-2.5,0-2.9-2.7-3.2c-9.5-0.9-17.7-4.8-24.3-11.8
				c-6-6.4-9.1-14.1-8.7-22.7c0.4-10.1,5-18.3,13-24.5c0.5-0.4,1.1-0.8,1.7-1.2c4.3-2.9,3.4-1.7,2.7-6.7
				c-3.7-25.1-0.7-49.1,10.6-71.9c4.7-9.5,10.7-17.8,19.2-24.2c6.8-5.1,14.3-7.8,22.8-7.1c3.6,0.3,7.2,1.2,10.6,2.4
				c1.7,0.6,3.3,0.8,5-0.2c7.6-4.2,16.1-5.6,24.5-6.2c9.1-0.7,18.3-1.3,27.6-0.6c10.1,0.8,19.9,2.7,29.7,4.9c1.4,0.3,2.7,0.6,4,1.1
				c1.1,0.3,2,0.3,3-0.2c12-5.2,23.8-3.8,35.3,1.4c11.9,5.3,21.2,13.7,28,24.9c4.7,7.8,8,16.1,10.6,24.8c4.1,14.2,6.4,28.8,5.9,43.6
				c-0.1,3-0.8,5.8-1.1,8.8c-0.2,1.4,0.2,2.3,1.4,3c3.6,1.9,6.7,4.3,9.5,7.2c6,6.4,9.2,14,8.8,22.7c-0.4,10-4.9,18.3-12.8,24.6
				c-5.6,4.4-11.9,7-19,7.8c-0.7,0.1-1.4,0.1-2.1,0.2c-1.5,0.2-2,0.9-1.8,2.5c0.9,6.6,0.8,13.2,0.4,19.8c-0.8,15-3.9,29.6-10.8,43.1
				c-12.5,24.4-32.3,39.3-58.7,45.9C1010.6-541.2,1000.1-540.3,989.5-540.6z M981.4-827.3c-8,0-15.1,0.6-22.2,1.3
				c-12.5,1.2-23.6,6.2-33.2,13.7c-9.3,7.2-16.4,16.5-20.7,27.6c-5.6,14.5-9,29.5-10.6,44.9c-0.6,5.5-0.8,11.1-0.9,16.6
				c0,3.1-0.9,3.9-4.1,4.2c-0.7,0.1-1.4,0-2.1,0c-7.9,0.2-14.9,3-20.9,8.1c-13.6,11.4-14.3,30.8-1.6,43.2c5.9,5.8,13.2,8.8,21.3,9.9
				c5.4,0.7,5.6,0.7,5.2,6c-0.7,10.6-0.6,21.2,1.1,31.7c1.9,12.1,5.6,23.6,11.8,34.2c12.6,21.4,31.6,34.1,55.5,39.7
				c12.4,2.9,25.1,3.4,37.8,2.8c8.5-0.4,16.9-1.5,25.2-3.8c22.2-6.2,39.7-18.6,51.5-38.7c7.9-13.4,11.8-28.1,13-43.5
				c0.6-7.3,0.4-14.6,0-21.8c-0.4-5.8-0.3-5.8,5.6-6.6c8.9-1.2,16.6-4.8,22.6-11.7c9.3-10.6,9.7-25.8,1-36.8
				c-4.6-5.8-10.5-9.4-17.6-11.5c-3.2-1-6.5-1.1-9.8-1.2c-2.7-0.1-3.5-0.8-4-3.2c-0.4-2-0.7-4.1-1-6.2c-0.7-7.1-1.3-14.2-2.1-21.2
				c-2.1-19.4-9.9-36.4-22-51.4c-6.7-8.3-15.1-14.2-25.6-17c-5.4-1.4-10.6-3.1-16-4.4C1006.1-825.5,993.5-827.8,981.4-827.3z"/>
			<path id="XMLID_59_" class="st3" d="M982.4-502c-20.7-0.3-42.5-7.8-61.2-23.9c-8.3-7.2-15.1-15.8-20.2-25.6
				c-0.5-1.1-1.4-2-1.2-3.4c0.1-0.3,0.3-0.7,0.6-0.8c0.2-0.1,0.7-0.1,1,0c1.2,0.6,1.5,1.8,2.1,2.9c3.2,6,6.9,11.6,11.4,16.7
				c13.7,15.5,30.9,25.1,51,29.3c25.3,5.2,49.3,1.1,71.6-12.1c13.6-8,24.4-18.8,32.4-32.4c0.5-0.9,1-1.8,1.6-2.7
				c0.5-0.7,1-1.6,2-0.9c0.8,0.6,0.6,1.6,0.2,2.4c-0.8,1.5-1.6,3.1-2.6,4.5c-11.2,17.8-26.7,30.4-46,38.3
				C1012.9-504.5,999.6-501.9,982.4-502z"/>
			<path id="XMLID_58_" class="st3" d="M1120.4-393.4c0.4,0.1,0.9,0.1,1,0.3c0.4,0.7,0.8,1.5,1,2.3c2,10.6,5.3,20.8,8.2,31.1
				c0.1,0.5,0.3,1,0.3,1.5c0,0.3-0.3,0.6-0.6,0.7c-0.3,0.1-0.7,0.1-1-0.1c-0.9-0.4-1.2-1.2-1.4-2.1c-2.6-9.1-5.7-18.1-7.4-27.5
				c-0.3-1.7-1.2-3.3-0.9-5.1C1119.8-392.6,1120.1-393,1120.4-393.4z"/>
			<path id="XMLID_57_" class="st3" d="M827.4-363.3c0.2-0.9,0.4-2.3,0.8-3.6c2-7,3.9-14,5.1-21.2c0.1-0.7,0.3-1.4,0.7-2
				c0.2-0.4,0.7-0.8,1.3-0.4c0.3,0.2,0.6,0.4,0.7,0.7c0.1,0.5,0.2,1,0.1,1.5c-1.5,8.9-4.1,17.5-6.3,26.3c-0.1,0.6-0.6,1.4-1.5,0.9
				c-0.4-0.2-0.5-0.8-0.8-1.2C827.4-362.5,827.4-362.7,827.4-363.3z"/>
			<path id="XMLID_56_" class="st3" d="M979.6-518.5c-0.5,2.8-0.9,5.5-2,8c-0.1,0.3-0.8,0.4-1.3,0.5c-0.1,0-0.5-0.5-0.5-0.8
				c-0.3-2.8,0.9-5.4,1.4-8c0.1-0.6,0.6-1.2,1.5-1.1C979.5-519.8,979.5-519.1,979.6-518.5z"/>
			<path id="XMLID_55_" class="st3" d="M970.9-510.5c-0.8-0.2-1.2-0.6-1.1-1.1c0.5-3,1.4-6,2.7-8.7c0.2-0.4,0.6-0.8,1.2-0.6
				c0.5,0.1,1,0.5,0.9,1c-0.7,3-1.4,6-2.7,8.8C971.7-510.8,971.3-510.3,970.9-510.5z"/>
			<path id="XMLID_54_" class="st3" d="M1008.4-521.1c0-1.2,0.3-1.6,0.8-1.8c0.6-0.3,1.1,0.1,1.3,0.5c1.1,2.7,2,5.5,1.9,8.4
				c0,0.5-0.3,1-0.9,1c-0.6,0-1-0.3-1.1-0.8C1009.5-516.5,1008.9-519.1,1008.4-521.1z"/>
			<path id="XMLID_53_" class="st3" d="M1042.3-525.9c-0.4,0.3-0.7,0.6-0.9,0.6c-0.5,0-1-0.2-1.4-0.5c-1.9-1.8-3.3-3.9-4.6-6.2
				c-0.2-0.4-0.3-1,0.3-1.4c0.5-0.3,0.9-0.3,1.4,0c0.3,0.2,0.5,0.4,0.7,0.7c1.4,1.8,2.7,3.5,4,5.3
				C1042.1-526.9,1042.2-526.4,1042.3-525.9z"/>
			<path id="XMLID_52_" class="st3" d="M1065.9-549.7c0,0.2,0,0.4-0.1,0.5c-0.3,0.4-0.8,0.7-1.3,0.5c-2.3-1.1-4.4-2.4-6.2-4.3
				c-0.1-0.1-0.2-0.3-0.2-0.5c0-0.3,0.1-0.6,0.2-0.9c0.2-0.4,0.5-0.5,0.8-0.3c2.4,1.2,4.7,2.6,6.6,4.6
				C1065.9-550.1,1065.9-549.9,1065.9-549.7z"/>
			<path id="XMLID_51_" class="st3" d="M1006.5-514.1c-0.4,0.5-0.6,1.2-0.9,1.3c-0.4,0.1-1.2-0.2-1.3-0.5c-0.8-2.6-1.7-5.1-1.6-7.9
				c0-0.5,0.4-0.9,0.9-1c0.6-0.1,1,0.3,1.2,0.8C1005.4-519,1005.9-516.6,1006.5-514.1z"/>
			<path id="XMLID_50_" class="st3" d="M916.1-562.1c-0.2,0.3-0.3,0.7-0.6,0.8c-2.2,1-4.4,1.9-6.6,2.7c-0.3,0.1-0.9-0.3-1.3-0.6
				c-0.1-0.1,0-0.7,0.2-0.9c2-2,4.6-2.8,7.4-3C915.7-563.2,916-562.6,916.1-562.1z"/>
			<path id="XMLID_49_" class="st3" d="M1068.6-553.4c-0.2,0.5-0.5,1-1.1,0.8c-2.5-0.7-4.8-1.9-6.9-3.4c-0.3-0.2-0.4-0.9-0.3-1.4
				c0.1-0.5,0.7-0.8,1.2-0.5c2.2,1,4.3,2.1,6.4,3.2C1068.4-554.5,1068.7-554,1068.6-553.4z"/>
			<path id="XMLID_48_" class="st3" d="M941.7-531.9c-0.1,0.4,0,1-0.3,1.4c-1.2,1.7-2.4,3.3-3.7,4.8c-0.4,0.5-1.1,0.7-1.8,0.1
				c-0.5-0.4-0.4-0.9-0.1-1.4c1.4-1.9,2.8-3.8,4.3-5.7c0.2-0.2,0.7-0.3,0.9-0.2C941.3-532.7,941.4-532.3,941.7-531.9z"/>
			<path id="XMLID_47_" class="st3" d="M931.5-528.9c-0.2-0.3-0.5-0.6-0.5-0.8c1.1-3,3.4-5,5.8-6.8c0.2-0.1,0.7,0.1,0.9,0.3
				c0.2,0.2,0.5,0.7,0.4,0.8c-1.5,2.5-3.3,4.7-5.7,6.4C932.3-528.9,931.8-528.9,931.5-528.9z"/>
			<path id="XMLID_46_" class="st3" d="M1044.6-529.5c-0.2,0.5-0.6,1-1.1,0.7c-2.2-1.4-3.8-3.3-4.7-5.7c-0.1-0.2,0.2-0.6,0.5-0.8
				c0.2-0.1,0.7-0.2,0.9-0.1c1.9,1.4,3.4,3.3,4.5,5.4C1044.8-529.8,1044.6-529.6,1044.6-529.5z"/>
			<path id="XMLID_45_" class="st3" d="M916.2-558.9c0.4,0.3,1,0.5,1.1,0.9c0.1,0.4-0.3,0.9-0.6,1.3c-0.1,0.1-0.3,0.2-0.5,0.2
				c-1.8,0.3-3.4,2-5.3,0.6c-0.1-0.1-0.1-0.3-0.1-0.5C912.1-558.5,914.2-558.4,916.2-558.9z"/>
			<path id="XMLID_44_" class="st3" d="M1031.6-743.5c8.9,0.4,17.6,1.8,26,4.5c2.3,0.8,4.5,1.7,6.7,2.8c1.2,0.6,2.3,1.5,3.2,2.6
				c1.8,2,1.5,4.6-0.6,6.4c-1.2,1-2.7,1.7-4.2,1.9c-3.8,0.5-7.5,1.2-11.4,0.9c-7.8-0.7-15.5-1-23.1-2.9c-3.2-0.8-6.4-1.6-9.2-3.4
				c-1.2-0.7-2.4-1.5-3.3-2.5c-2-2.2-1.9-4.9,0.2-6.9c1.8-1.6,3.9-2.9,6.4-3.2C1025.4-743.5,1028.5-743.6,1031.6-743.5z"/>
			<path id="XMLID_43_" class="st3" d="M924.2-727.2c-3.3,0-6.6,0.1-9.9,0c-2.6-0.1-5.1-0.8-7.4-2.3c-2.2-1.5-2.6-3.6-1.1-5.8
				c0.8-1.2,1.8-2.1,3-2.8c1.7-0.9,3.3-1.9,5.1-2.5c12.1-3.8,24.4-4.8,36.9-2.2c1.3,0.3,2.7,0.7,4,1.2c2,0.9,3.6,2.3,3.7,4.6
				c0.1,2.1-1.2,3.5-2.9,4.6c-1.8,1.1-3.7,1.8-5.8,2.3C941.5-728.1,932.9-727.3,924.2-727.2z"/>
			<path id="XMLID_42_" class="st3" d="M987.7-647.1c5.3-0.2,11.2-2.7,16.1-7.6c2.2-2.2,3.3-4.8,3.5-7.9c0.2-4.7-1-8.9-3.3-12.9
				c-1.6-2.7-3.4-5.2-5.6-7.5c-0.6-0.6-1.1-1.3-1.5-2.1c-0.1-0.2,0.1-0.7,0.3-0.9c0.2-0.2,0.7-0.4,0.9-0.4c0.6,0.3,1.3,0.6,1.7,1.1
				c5.7,5.5,9.4,12.1,10.3,19.9c0.5,4.3-0.6,8.3-3.6,11.6c-6,6.6-13.5,9.6-22.3,9.3c-11.5-0.5-19.6-9.6-19.3-21.6
				c0.2-7.4,3.2-13.8,7.3-19.7c0.3-0.4,0.8-0.7,1.2-0.9c0.2-0.1,0.7,0.1,0.9,0.3c0.2,0.2,0.5,0.6,0.4,0.9c-0.4,0.9-0.8,1.9-1.4,2.7
				c-2.2,3.6-3.9,7.4-5,11.4c-1,3.4-1.1,6.9-0.3,10.3C970-652.2,977-646.9,987.7-647.1z"/>
			<path id="XMLID_41_" class="st3" d="M968.1-758.3c16.1,1,32.1,2,48,4.8c0.8,0.1,1.8,0,2.4,0.8c0.2,0.2,0.4,0.6,0.3,0.9
				c0,0.3-0.3,0.7-0.6,0.7c-1.7,0.4-3.4,0.1-5.2-0.2c-6.2-0.8-12.3-1.7-18.5-2.5c-0.7-0.1-1.4-0.3-2.1-0.3
				c-12.3-0.3-24.5-2.1-36.8-1.3c-0.2,0-0.3,0-0.5,0c-1,0-2.1,0.2-2.7-0.9c-0.4-0.8,0.7-1.5,2.7-1.6
				C959.5-758,963.8-758.1,968.1-758.3z"/>
			<path id="XMLID_40_" class="st3" d="M988.2-604.9c-5.9-0.2-11.7-0.5-17.6-1.4c-1.9-0.3-3.7-0.7-5.6-1.1c-0.7-0.2-1.4-0.6-1.3-1.4
				c0.2-1.2,1.2-1,2-1c0.7,0,1.4,0.2,2.1,0.3c6.8,1.2,13.7,1.8,20.6,2c11.4,0.2,22.3-1.8,32.8-6.6c2.5-1.2,4-1.2,4.1-0.3
				c0,1.8-1.7,2.1-2.8,2.6C1011.6-606.6,1000.1-604.6,988.2-604.9z"/>
			<path id="XMLID_39_" class="st3" d="M884.1-706.3c0.8,0.1,1.4,0.4,1.4,1.2c0,0.4-0.3,1.1-0.6,1.3c-1.3,0.5-2.6,0.8-3.9,1.4
				c-4.8,2-7.9,5.5-9.4,10.5c-1.6,5.5-0.1,10.3,4.1,14.1c0.8,0.7,1.7,1.2,2.5,1.9c0.6,0.5,0.8,1.1,0.3,1.8c-0.5,0.6-1.2,0.6-1.9,0.3
				c-4.6-2.4-7.4-6.3-8.1-11.4c-1.5-10.5,5.7-19,15.2-21C883.7-706.3,883.9-706.3,884.1-706.3z"/>
			<path id="XMLID_38_" class="st3" d="M1110.6-690.2c0,8-2.3,12.4-6.9,15.6c-0.7,0.5-1.5,0.7-2.4,1c-0.2,0.1-0.7-0.2-0.9-0.4
				c-0.4-0.4-0.4-1-0.1-1.4c0.5-0.5,1-1,1.6-1.3c8.5-5.7,7.6-17.8-0.8-23.8c-1.4-1-3-1.6-4.6-2.4c-0.6-0.3-1.3-0.3-2-0.5
				c-1-0.3-1.5-1.3-1.1-2c0.4-0.7,1.1-0.9,1.8-0.7C1104.1-704.7,1110.6-696.8,1110.6-690.2z"/>
			<path id="XMLID_37_" class="st3" d="M976.2-768.5c7.7,0.2,15.2,1.4,22.7,2.7c1.5,0.3,3.1,0.6,4.6,1c0.7,0.2,1.4,0.5,1.4,1.3
				c0,0.9-0.8,1-1.5,1c-1,0-2.1-0.1-3.1-0.3c-10.6-2.2-21.2-3.5-32-2.9c-0.9,0-1.7,0-2.6-0.1c-0.4-0.1-0.9-0.5-1-0.9
				c-0.2-0.9,0.5-1.2,1.2-1.3C969.3-768.3,972.8-768.4,976.2-768.5z"/>
			<path id="XMLID_36_" class="st3" d="M930.4-615.7c-0.7-0.1-1.2-0.3-1.3-0.9c-0.1-0.6,0.3-1,0.7-1.2c0.9-0.5,1.9-0.8,2.9-1.1
				c7.5-2.3,12.7-7.5,16.8-14c0.7-1.2,1.4-2.4,2.2-3.5c0.3-0.4,0.8-0.7,1.4-0.4c0.5,0.2,0.7,0.7,0.7,1.3c0,0.2,0,0.4-0.1,0.5
				c-4.6,9.5-11.4,16.5-21.9,19.3C931.3-615.7,930.8-615.7,930.4-615.7z"/>
			<path id="XMLID_35_" class="st3" d="M981-779.5c5.2,0.4,9.8,0.7,14.5,1.1c0.7,0.1,1.4,0.2,2,0.5c0.6,0.3,1.3,0.6,1.2,1.5
				c-0.2,0.8-0.9,1.1-1.5,1c-4.4-1-9-0.6-13.4-1c-3-0.3-5.9,0.1-8.8,0.1c-0.9,0-1.7-0.1-2.6-0.2c-0.2,0-0.5-0.5-0.6-0.8
				c-0.3-0.6,0.1-1,0.6-1.2c0.6-0.2,1.3-0.4,2-0.5C976.6-779.2,979-779.3,981-779.5z"/>
			<path id="XMLID_34_" class="st3" d="M1027.8-640.8c0.3,0.1,0.8,0.1,0.9,0.3c0.5,0.9,1,1.8,1.3,2.8c2.6,6.5,6.8,11.5,12.8,15.2
				c1.4,0.9,3.2,1.5,4,3.2c0.1,0.3,0.1,0.7-0.1,1c-0.1,0.2-0.5,0.4-0.8,0.5c-0.1,0.1-0.4,0-0.5,0c-8.4-4.4-14.9-10.5-18.1-19.7
				c-0.3-0.8-0.5-1.7-0.2-2.5C1027.2-640.5,1027.6-640.6,1027.8-640.8z"/>
			<path id="XMLID_33_" class="st3" d="M995.4-594.9c-1.6-0.1-3.3,0.4-4.9-0.6c-0.2-0.1-0.5-0.6-0.4-0.8c0-0.3,0.3-0.7,0.5-0.7
				c1.2-0.2,2.4-0.2,3.6-0.3c5.7-0.4,11.4-0.7,16.9-2.7c1.8-0.7,3.5-1.4,5.3-2.1c0.6-0.2,1.3-0.2,2-0.2c0.3,0,0.7,0.3,0.8,0.6
				c0.1,0.3,0,0.8-0.3,0.9c-0.8,0.6-1.7,1.2-2.6,1.6C1009.6-596.3,1002.7-595.1,995.4-594.9z"/>
		</g>
		<g id="XMLID_29_">
			<ellipse id="XMLID_31_" class="st1" cx="1061.8" cy="-665.4" rx="20.1" ry="14.6"/>
			<ellipse id="XMLID_30_" class="st1" cx="920.2" cy="-665.4" rx="20.1" ry="14.6"/>
		</g>
	</g>
	<path id="XMLID_471_" class="st3" d="M1737,210.8c-4.1,0.1-7.3-5.5-4.8-8.9c-5.8-2.3-10.6-7.1-16.6-8.8c-6-1.7-12.8,0.1-17.2,4.4
		c9.1-1.9,20-3.2,26.3,3.6c0.4,0.4,0.8,1,0.8,1.6c0,0.5-0.3,1-0.6,1.4c-3.7,5-10.4,7.5-16.5,6.3c-2.5-0.5-6.3-0.5-6.1,2
		c4.5-0.9,9.4,1,12.1,4.7c0.6,1.2,0.2,2.7-0.8,3.4c3,0.2,3.3,4.7,1.7,7.2c-1.6,2.5-4.2,4.8-4,7.8c3.5-1.4,6.2-4.7,7-8.4
		c0.4-2,0.3-4.1,1.2-5.9c1.6-3.3,5.7-4.5,9.3-5.2c0.6-0.1,1.2-0.2,1.7,0.1c0.7,0.4,0.8,1.4,0.7,2.2c-0.4,8.1-3.3,16.1-8.2,22.6
		c-0.8,1.1-1.7,2.2-3,2.6c-2.4,0.8-4.8-0.8-7.2-1.6c-2.4-0.7-6,0.5-5.4,3c3.1-1,6.7-0.4,9.3,1.5c-2.8,3.3-6.7,5.6-10.9,6.5
		c-1.7,0.3-3.5,0.6-4.7,1.8c-0.9,1-1.1,2.3-1.4,3.6c-7.3,39.9-32.6,82.4-72.8,96.1c-6.1,2.1-12.4,3.1-18.8,4.1
		c-4.8,0.7-9.7,1.3-14.5,0.7c-45.2-5.4-79.3-49.2-87.2-91.9c-0.9-4.9-2-10.7-6.4-13.1c-2.6-1.4-5.7-1.3-8.3-2.6
		c-2.6-1.3-4.3-5.3-1.8-7c1-0.7,2.3-0.6,3.5-0.9c1.2-0.3,2.5-1.3,2.1-2.5c-2.8-0.4-5.6,0.4-7.8,2.1c-1.1,0.9-2.4,2.1-3.8,1.7
		c-0.8-0.2-1.4-0.9-1.9-1.6c-5.1-7.1-9.2-15.2-9.3-23.9c-0.2-8.7,4.4-17.9,12.4-21.2c6.2-2.6,13.3-1.3,19.9,0
		c-6.4-5.8-16.8-5.9-24-1.1s-11.2,13.5-11.2,22.1s3.6,17,8.8,23.8c1.4,1.8,3,3.7,3.3,6c0.2,1.8-0.4,3.6-0.7,5.4
		c-1.5,8.7,7.1,17.6,15.9,16.4c2.1-0.3,4.5-0.9,6,0.5c0.7,0.7,1.1,1.6,1.4,2.5c5.7,16.7,12.6,33.1,22.7,47.5
		c13.1,18.7,35.4,37.3,58.8,40.3c15.2,1.9,30.9-1.1,44.9-7c28.8-12.1,50.3-36,62.3-64.7c0.9-2.2,8.6-19.8,7-21.1
		c5.5,4.5,14.1,4.4,19.5-0.1c5.4-4.5,7.1-13,3.7-19.2c-0.6-1.1-1.4-2.3-1.2-3.5c0.1-1.2,1.1-2.1,1.9-3c4.3-4.4,7.2-10.2,8.3-16.2
		c1-5.7,0.7-12.2,4.8-16.3C1737.2,210.8,1737.1,210.8,1737,210.8z M1726.8,213.6c-2.4,0.9-4.8,1.9-7.3,2.8c-1.2,0.5-1.9-0.4-2.5-1.3
		c-0.6-0.9-0.3-1.7,0.5-2.3c3-2.1,6-4.1,9-6.2c0.3-0.2,0.7-0.2,1-0.3c0.3,0.2,0.6,0.3,0.8,0.6c0.2,0.3,0.4,0.6,0.5,0.9
		C1730.4,211.7,1730.9,212.1,1726.8,213.6z M1500.5,267.7c-1.5,0.5-3,1-4,0.8c-0.3,0-0.7,0-1,0c-2.5-0.2-4.8-1-6.6-2.2
		c-4.5-3-6.6-8.6-4.6-13.9c0.5-1.3,1.3-1.7,2.4-0.9c1.5,1.1,3.1,2,4.8,2.9h0c0.1,0.1,0.3,0.2,0.4,0.2c2.4,1.2,4.9,2.2,7.5,2.8
		c0.9,0.2,1.4,0.9,1.6,1.8c0.4,2,0.8,4.1,1.2,6.1C1502.3,266.7,1501.6,267.3,1500.5,267.7z M1709.9,269.9c-2.3,0-4.5-0.4-6.2-2
		c-1.6-1.5-2.9-3-1.8-5.4c0.3-0.6,0.3-1.3,0.3-2c0.1-2.6,1.5-4,4-4.6c4.1-1,7.6-3.1,11.1-5.6c2-1.4,2.2-1.2,3.6,0.9
		C1726.5,259.9,1718.7,270,1709.9,269.9z"/>
	<path id="XMLID_463_" class="st3" d="M1497.1,212.6c-7.3-1.6-12,7.1-9.9,13.2c0.7,2,1.8,3.7,3.1,5.4c0.7,1,1.4,2,2,3
		c0.1,0.2-0.1,0.7-0.3,0.9c-0.2,0.2-0.6,0.4-0.9,0.4c-0.3,0-0.7-0.2-0.9-0.4c-3.8-3.8-6.5-8.1-6.1-13.8c0.3-4.3,2.4-7.5,5.8-10
		c1.9-1.3,4-2,6.4-1.4c1.5,0.4,3.2-0.1,4.5,1c0.2,0.2,0.4,0.6,0.3,0.9c0,0.3-0.3,0.8-0.5,0.8
		C1499.5,212.6,1498.3,212.6,1497.1,212.6z"/>
	<path id="XMLID_462_" class="st3" d="M1483.1,202.3c1.2,0,2.3,1.1,2.4,2.3c0.1,1.5-1.3,2.8-3.1,2.8c-1.1,0-2.3-1.3-2.1-2.5
		C1480.5,203.5,1481.8,202.2,1483.1,202.3z"/>
	<path id="XMLID_461_" class="st3" d="M1480.9,211c0.1,1.4-1,2.7-2.4,2.9c-1.2,0.2-2.4-0.7-2.6-2c-0.2-1.6,1-3.2,2.6-3.2
		C1479.6,208.7,1480.8,209.9,1480.9,211z"/>
	<circle id="XMLID_458_" class="st1" cx="1674.1" cy="250.9" r="20.1"/>
	<circle id="XMLID_457_" class="st1" cx="1538.8" cy="250.9" r="20.1"/>
	<path id="XMLID_522_" class="st3" d="M2293.6,174.7c4.9,1.5,8.5,4.5,10.5,9.3c2.4,5.9,0.9,11.3-4.4,15.1c-2.4,1.7-5.1,2.9-8,3.7
		c-8,2.3-16.1,2.1-24.2,0.8c-3.8-0.6-7.3-2.1-10.5-4.3c-6.1-4.1-7.2-13.2-1.1-18.3c2.3-1.9,4.7-3.5,7.5-4.5
		c5.7-2.2,11.6-3.4,17.9-3.2C2285.5,173.1,2289.6,173.4,2293.6,174.7z M2258,196.5c1.5,1.1,3.2,2,4.9,2.8c1.3,0.7,2.1,0,1.7-1.3
		c-1.8-6.1-0.8-12,1.1-17.9c0.1-0.3,0-0.7-0.2-0.9c-0.2-0.2-0.7-0.3-0.9-0.2c-3.1,1.2-6,2.8-8.1,5.4c-1.3,1.5-2,3.3-1.9,5.4
		C2254.9,192.4,2255.7,194.8,2258,196.5z"/>
	<path id="XMLID_519_" class="st3" d="M2194.7,175.6c3.5,1.1,6.7,2.8,9.5,5.1c6.7,5.4,5.3,14.9-1.3,18.9c-2.2,1.4-4.5,2.6-7.1,3.2
		c-9.8,2.4-19.5,2.5-29.1-0.8c-2.3-0.8-4.5-1.9-6.4-3.4c-4.6-3.5-6-8.4-4.1-13.8c1.8-5.3,5.6-8.6,10.9-10.2c3.9-1.2,7.8-1.5,12-1.3
		C2184.3,173,2189.5,174,2194.7,175.6z M2159.1,184.7c-2.2,4.9-1,9.2,3.4,12.3c1.4,1,3,1.6,4.6,2.4c0.2,0.1,0.6,0,0.9-0.2
		c0.4-0.2,0.4-0.5,0.2-0.9c-2.9-6.6-1.1-12.9,1.4-19.1c0.2-0.6,0.5-1.2,1-2.5C2164.9,177.6,2161.2,180,2159.1,184.7z"/>
	<path id="XMLID_508_" class="st3" d="M2266.9,141.4c12,0.4,22,4.4,31,11c1.2,0.9,2.4,2,3.5,3.1c1.4,1.5,1.8,3.3,1,4.2
		c-1.1,1.3-2.5,1-3.8,0.6c-1.3-0.4-2.6-0.9-3.9-1.4c-6.1-2.5-12.4-4.3-19-5.1c-2.7-0.3-5.5-0.5-8.3-0.7c-0.9-0.1-1.7,0-2.6-0.1
		c-4.5-0.5-6.4-2.9-5.8-7.4c0.3-2.5,1.9-4,4.5-4.3C2264.8,141.3,2266.2,141.4,2266.9,141.4z"/>
	<path id="XMLID_507_" class="st3" d="M2183,156.2c-8,0-15.9,1-23.7,2.8c-2.2,0.5-4.4,0.9-6.6,1.2c-0.7,0.1-1.3-0.4-1.6-1.1
		c-0.3-0.7,0-1.4,0.6-1.8c0.8-0.6,1.7-1.2,2.6-1.7c11.2-5.8,23-9.5,35.6-10.6c1-0.1,2.1-0.1,3.1,0.1c1.4,0.2,2.2,1,2.3,2.4
		c0.2,2.1,0.4,4.1,0.6,6.2c0.2,2-0.6,3-2.5,3.1c-1.2,0.1-2.4,0-3.6-0.1C2187.5,156.4,2185.3,156.3,2183,156.2z"/>
	<path id="XMLID_100_" class="st3" d="M1061.8,431.2c-0.5-0.8-1.5-0.8-2.3-1.1c-4.6-1.6-9.1-3.3-13.7-5c-3.5-1.3-6.5-3.3-9.3-5.6
		c-10.2-8.5-15.9-19.2-18.3-31.3c-0.7-3.5-1.1-7.1-1.3-10.8c-0.1-2.8-0.1-5.7,0-8.5c0.2-5.3,0.6-10.6,1-16c0.2-2.6,0.3-5.2,0.4-7.8
		c0-0.7,0.2-1.4,0.3-2.1c0-0.3,0.1-0.5,0.1-0.8c-0.1-1.9-0.2-3.9-0.4-5.8c-0.1,0.1-0.3,0.3-0.4,0.4v-2H903.6v3.7
		c-0.1-0.1-0.2-0.2-0.3-0.3c-0.3,1.7-0.6,3.3-0.8,5c0.2,1,0.2,2,0.1,3.1c-0.3,3-0.7,6-1,9c-0.6,5.6-1.2,11.2-1.9,16.8
		c-0.9,6.9-2.3,13.7-4.6,20.3c-5,14.1-13.3,25.4-26.9,32.4c-3.9,2-7.6,4.2-11.4,6.3c-0.7,0.4-1.4,0.9-2,1.5c-0.2,0.2-0.2,0.7,0,0.9
		c0.2,0.3,0.6,0.6,0.8,0.5c1-0.3,2-0.5,2.9-1c4.7-2.6,9.4-5.2,14.1-7.8c3.6-2,3.6-2,4.6,2.1c0.4,1.5,0.7,3,1,4.6
		c1.9,9.2,4.4,18.2,7,27.2c6.9,23.3,17,45.1,29.2,66c5.6,9.6,11.7,19,18.4,27.8c6.8,8.9,14.4,17.3,23,24.8c0.6,0.6,1.4,1.1,1.4,2.1
		c-1.1,1-2.4,2-3.4,3.2c-2.7,3.2-2.8,8.2-0.3,11.6c2.4,3.3,6.9,4.6,10.7,3.1c4-1.6,6.4-5.7,5.8-10.1c-0.1-1-0.6-2-0.9-3
		c-0.6-1.8-0.6-2.1,1-2.7c10.1-3.6,17.1-10.9,23.4-19.2c3.6-4.8,6.9-9.8,9.8-15c1.7-2.9,3.2-5.9,4.7-9c8.3-17.4,15.1-35.4,20.6-53.9
		c4.3-14.5,8.8-28.9,11.8-43.7c0.8-3.9,1.5-7.8,2.3-11.7c0.5-2.2,0.8-2.3,2.8-1.6c4.1,1.5,8.1,3,12.2,4.4c1.1,0.4,2.3,0.9,3.5,0.6
		c0.3-0.1,0.6-0.4,0.7-0.7C1062,431.9,1061.9,431.5,1061.8,431.2z M896.4,396.6c3.5-8.8,5.1-18.1,6.3-27.4c0.2-1.8,0.5-3.7,0.7-5.5
		c0.1-0.7,0.2-1.5,0.3-2.2c0.4-3.9,0.8-7.8,1.4-11.7c0.3-1.6-0.3-3.4,1.1-4.8c1.4,1,3,1.8,4.2,2.9c3.9,3.7,7.9,7.3,12.2,10.6
		c5.3,4.1,11.1,7.5,17.1,10.4c1.1,0.6,2.3,1.1,3.5,1.6c15.5,6.9,31.8,10.8,48.6,12.9c6,0.8,12.1,0.9,18.2,0.3
		c0.9-0.1,1.7-0.2,2.6-0.3c1.2-0.1,2,0.3,2.3,1.5c0.3,1.2,0.6,2.3,0.9,3.5c0.4,2,1,3.9,1.6,5.8c2,6.4,4.9,12.3,8.7,17.9
		c1.7,2.5,1.7,2.6-0.1,5c-1,1.4-2.2,2.7-3.4,4c-1.5,1.6-2.8,3.7-5.6,2.3c-0.5-0.2-1.3,0.3-2,0.4c-3.9,1-4.4,1.7-4.3,5.9
		c0.8,2-0.5,3.1-2.1,4c-2.6,1.5-5.2,2.9-7.7,4.4c-2.2,1.3-4.1,1.9-6.7,0.2c-2.3-1.6-5.1-0.4-6.2,2.7c-0.8,2.2-2,3-4,3.4
		c-4.9,1.1-9.9,1.9-14.9,2.4c-1.8,0.2-3.5,0.1-4.2-2.1c-0.1-0.5-0.6-0.9-0.9-1.2c-3.2-3.4-6.2-3.4-9.1,0.3c-1.2,1.5-2.1,1.8-3.9,1.5
		c-5.8-1.2-11.4-3-16.8-5.5c-1.3-0.6-2.4-1.4-2.3-3.1c0-0.3,0-0.7-0.1-1c-1.2-4.3-3.3-5.4-7.3-3.2c-1.5,0.8-2.5,0.7-3.7-0.2
		c-2.4-1.9-4.9-3.9-7.3-5.9c-1.6-1.4-2.8-2.7-2.2-5.3c0.5-2.3-1.1-3.9-3.7-3.9c-2.1,0-3.1-1-4.1-2.5c-2.7-4.1-4.8-8.4-6.7-12.9
		C895.8,399.9,895.7,398.3,896.4,396.6z M960.9,595.7c-3.4,0-6.5-3.3-6.4-6.9c0.1-3.8,3-6.4,6.8-6.2c3.5,0.2,5.9,2.9,5.8,6.7
		C967,592.7,964.2,595.6,960.9,595.7z M1040.1,429.1c-2.8,16.3-7.3,32.1-11.9,47.9c-6,20.2-12.9,39.9-21.9,59
		c-2.2,4.6-4.6,9.2-7.2,13.5c-3.8,6.3-8.1,12.3-12.9,17.9c-4.8,5.5-10.6,9.3-17.3,12.1c-3.1,1.3-5.7,0.8-8.2-1.2
		c-0.3-0.2-0.5-0.4-0.8-0.7c-8.2-7.4-16.2-14.9-22.9-23.6c-0.3-0.4-0.6-0.7-0.8-1.1c-22.4-30.1-39.4-62.8-49.8-99
		c-2.8-9.8-4.9-19.8-7.4-29.8c-0.4-1.5-0.2-2.7,1.1-3.7c0.3-0.2,0.5-0.5,0.8-0.7c1.6-1.3,2.7-3.1,4.6-4.1c1.8,1.3,2.1,3.5,3,5.3
		c8.4,18.4,20.3,34.3,34.8,48.3c8.2,7.9,18,13.5,28.3,18.2c2,0.9,4.2,1.8,6.5,1.4c0.5-0.1,1-0.3,0.9-1c-0.1-0.3-0.2-0.7-0.5-0.9
		c-0.4-0.3-0.9-0.4-1.4-0.6c-13.2-4.5-24.8-11.7-34.6-21.6c-13.6-13.7-24.7-29.1-32.4-46.8c-0.4-1-0.8-2-1.3-2.9
		c-0.9-1.7-1-3.3,0.4-4.8c2-2.1,2.4-5.4,5.2-6.8c1.9,2.1,2.5,4.9,4,7.2c1.1,1.8,2.1,3.6,3.2,5.3c1.1,1.6,1.8,3.1,1.7,5.3
		c-0.2,2.1,0.9,3.4,3,3.5c2.4,0.1,3.7,1.5,5.3,2.8c2.3,2.1,4.8,4,7.2,5.9c1.7,1.3,3.2,2.3,3.7,4.7c0.6,2.9,2.7,4.1,5.5,3.2
		c2.3-0.8,4-0.2,5.9,0.7c4.9,2.3,10,4,15.3,5.1c2,0.4,3.6,1,4.9,3.2c2.1,3.6,6.3,4,9.3,1.1c2-1.9,4-2.5,6.5-2.5
		c5.3-0.1,10.3-1.3,15.4-2.4c1.9-0.5,3.5-0.6,5.4,0.4c3.6,1.8,6.1,0.9,7.5-2.8c0.7-1.9,1.8-2.7,3.4-3.5c2.9-1.6,5.8-3.2,8.6-4.9
		c1.9-1.1,3.6-2.4,6.1-2.5c2.2,0,3.9-1.8,4.2-4c0.3-2.5,1.7-4.1,3.3-5.7c1.2-1.3,2.2-2.7,3.5-3.8c1-0.9,1.3-2.9,2.9-2.5
		c1.2,0.3,2.1,1.7,3.1,2.7c0.7,0.7,0.7,1.6,0.4,2.5c-0.7,2.5-1.4,5-2.3,7.4c-2.2,5.7-5.2,11-8.6,16.1c-8,12.1-17.4,22.9-28.9,31.8
		c-5.6,4.3-11.8,7.2-18.7,8.7c-0.7,0.1-1.3,0.3-2,0.5c-0.5,0.2-0.8,0.6-0.8,1.2c0,0.6,0.6,0.8,1.1,0.9c0.3,0.1,0.7,0,1.6,0
		c5.7-0.9,11.5-3.2,16.8-6.7c4.8-3.2,9.3-6.7,13.3-10.9c9-9.3,17.4-18.9,23.5-30.3c2.9-5.4,5.7-10.7,7.3-16.7
		c0.4-1.4,0.9-1.5,2.2-0.8C1039.9,425.1,1040.5,426.5,1040.1,429.1z"/>
	<path id="XMLID_99_" class="st0" d="M1025.6,417.2c-1,1.4-2.2,2.7-3.4,4c-1.5,1.6-2.8,3.7-5.6,2.3c-0.5-0.2-1.3,0.3-2,0.4
		c-3.9,1-4.4,1.7-4.3,5.9c0.8,2-0.5,3.1-2.1,4c-2.6,1.5-5.2,2.9-7.7,4.4c-2.2,1.3-4.1,1.9-6.7,0.2c-2.3-1.6-5.1-0.4-6.2,2.7
		c-0.8,2.2-2,3-4,3.4c-4.9,1.1-9.9,1.9-14.9,2.4c-1.8,0.2-3.5,0.1-4.2-2.1c-0.1-0.5-0.6-0.9-0.9-1.2c-3.2-3.4-6.2-3.4-9.1,0.3
		c-1.2,1.5-2.1,1.8-3.9,1.5c-5.8-1.2-11.4-3-16.8-5.5c-1.3-0.6-2.4-1.4-2.3-3.1c0-0.3,0-0.7-0.1-1c-1.2-4.3-3.3-5.4-7.3-3.2
		c-1.5,0.8-2.5,0.7-3.7-0.2c-2.4-1.9-4.9-3.9-7.3-5.9c-1.6-1.4-2.8-2.7-2.2-5.3c0.5-2.3-1.1-3.9-3.7-3.9c-2.1,0-3.1-1-4.1-2.5
		c-2.7-4.1-4.8-8.4-6.7-12.9c-0.7-1.7-0.8-3.3-0.1-5c3.5-8.8,5.1-18.1,6.3-27.4c0.2-1.8,0.5-3.7,0.7-5.5c0.1-0.7,0.2-1.5,0.3-2.2
		c0.4-3.9,0.8-7.8,1.4-11.7c0.3-1.6-0.3-3.4,1.1-4.8c1.4,1,3,1.8,4.2,2.9c3.9,3.7,7.9,7.3,12.2,10.6c5.3,4.1,11.1,7.5,17.1,10.4
		c1.1,0.6,2.3,1.1,3.5,1.6c15.5,6.9,31.8,10.8,48.6,12.9c6,0.8,12.1,0.9,18.2,0.3c0.9-0.1,1.7-0.2,2.6-0.3c1.2-0.1,2,0.3,2.3,1.5
		c0.3,1.2,0.6,2.3,0.9,3.5c0.4,2,1,3.9,1.6,5.8c2,6.4,4.9,12.3,8.7,17.9C1027.4,414.7,1027.4,414.8,1025.6,417.2z"/>
	<path id="XMLID_2_" class="st0" d="M1040.1,429.1c-2.8,16.3-7.3,32.1-11.9,47.9c-6,20.2-12.9,39.9-21.9,59
		c-2.2,4.6-4.6,9.2-7.2,13.5c-10.4,4.1-21.3,6.7-32.6,7c-9.6,0.3-19.1-0.1-28.5-2.2c-0.4-0.1-0.7-0.2-1.1-0.3
		c-0.3-0.4-0.6-0.7-0.8-1.1c-22.4-30.1-39.4-62.8-49.8-99c-2.8-9.8-4.9-19.8-7.4-29.8c-0.4-1.5-0.2-2.7,1.1-3.7
		c0.3-0.2,0.5-0.5,0.8-0.7c1.6-1.3,2.7-3.1,4.6-4.1c1.8,1.3,2.1,3.5,3,5.3c8.4,18.4,20.3,34.3,34.8,48.3c8.2,7.9,18,13.5,28.3,18.2
		c2,0.9,4.2,1.8,6.5,1.4c0.5-0.1,1-0.3,0.9-1c-0.1-0.3-0.2-0.7-0.5-0.9c-0.4-0.3-0.9-0.4-1.4-0.6c-13.2-4.5-24.8-11.7-34.6-21.6
		c-13.6-13.7-24.7-29.1-32.4-46.8c-0.4-1-0.8-2-1.3-2.9c-0.9-1.7-1-3.3,0.4-4.8c2-2.1,2.4-5.4,5.2-6.8c1.9,2.1,2.5,4.9,4,7.2
		c1.1,1.8,2.1,3.6,3.2,5.3c1.1,1.6,1.8,3.1,1.7,5.3c-0.2,2.1,0.9,3.4,3,3.5c2.4,0.1,3.7,1.5,5.3,2.8c2.3,2.1,4.8,4,7.2,5.9
		c1.7,1.3,3.2,2.3,3.7,4.7c0.6,2.9,2.7,4.1,5.5,3.2c2.3-0.8,4-0.2,5.9,0.7c4.9,2.3,10,4,15.3,5.1c2,0.4,3.6,1,4.9,3.2
		c2.1,3.6,6.3,4,9.3,1.1c2-1.9,4-2.5,6.5-2.5c5.3-0.1,10.3-1.3,15.4-2.4c1.9-0.5,3.5-0.6,5.4,0.4c3.6,1.8,6.1,0.9,7.5-2.8
		c0.7-1.9,1.8-2.7,3.4-3.5c2.9-1.6,5.8-3.2,8.6-4.9c1.9-1.1,3.6-2.4,6.1-2.5c2.2,0,3.9-1.8,4.2-4c0.3-2.5,1.7-4.1,3.3-5.7
		c1.2-1.3,2.2-2.7,3.5-3.8c1-0.9,1.3-2.9,2.9-2.5c1.2,0.3,2.1,1.7,3.1,2.7c0.7,0.7,0.7,1.6,0.4,2.5c-0.7,2.5-1.4,5-2.3,7.4
		c-2.2,5.7-5.2,11-8.6,16.1c-8,12.1-17.4,22.9-28.9,31.8c-5.6,4.3-11.8,7.2-18.7,8.7c-0.7,0.1-1.3,0.3-2,0.5
		c-0.5,0.2-0.8,0.6-0.8,1.2c0,0.6,0.6,0.8,1.1,0.9c0.3,0.1,0.7,0,1.6,0c5.7-0.9,11.5-3.2,16.8-6.7c4.8-3.2,9.3-6.7,13.3-10.9
		c9-9.3,17.4-18.9,23.5-30.3c2.9-5.4,5.7-10.7,7.3-16.7c0.4-1.4,0.9-1.5,2.2-0.8C1039.9,425.1,1040.5,426.5,1040.1,429.1z"/>
	<path id="XMLID_143_" class="st3" d="M-89.4-726.4"/>
	<path id="XMLID_110_" class="st3" d="M2856.7,234.9c-2.8-0.1-5.5-0.2-8.3-0.5c-0.7-0.1-1.3-0.7-0.9-1.5c0.2-0.4,0.7-0.9,1.1-1
		c1-0.1,2.1,0,3.1,0.1c5.2,0.4,10.4,0.5,15.5-0.6c1.2-0.3,2.4-0.5,3.5-0.9c2.6-0.9,3.9-2.8,3.9-5.5c0-1.5-0.3-3.1-0.6-4.6
		c-2.7-13.6-6-27.1-9.5-40.5c-0.7-2.8-1.3-5.7-1.9-8.6c-0.2-0.7,0.2-1.4,1-1.5c0.8-0.1,1.3,0.5,1.5,1.2c0.5,1.8,0.8,3.7,1.3,5.6
		c3.7,13.9,7.1,27.9,10,42c0.5,2.2,0.8,4.4,0.7,6.7c-0.1,4.4-2.1,7.2-6.5,8.3c-2.8,0.7-5.7,1.4-8.7,1.3c-1.7-0.1-3.5,0-5.2,0
		C2856.7,234.9,2856.7,234.9,2856.7,234.9z"/>
	<path id="XMLID_127_" class="st3" d="M3564,355.9c-9.7,0.3-19-1.7-28.1-4.6c-6.4-2.1-11.9-5.5-17-9.7c-0.5-0.4-1-0.9-1.5-1.5
		c-0.6-0.6-1.2-1.3-0.8-2.3c0.3-0.7,1.6-0.5,2.6,0.5c8.6,8.3,19.4,11.7,30.8,13.8c5.3,1,10.7,1.1,16,1.2c9.2,0.2,17.8-2.2,26.1-6
		c5.9-2.7,11.2-6.2,16.5-9.9c1.3-0.9,2.6-1.7,3.9-2.5c0.4-0.3,1.1-0.1,1.3,0.4c0.1,0.4,0,1-0.1,1.4c-0.1,0.3-0.4,0.5-0.7,0.7
		c-10.5,7.8-21.6,14.5-34.6,17.3C3573.6,355.9,3568.8,355.7,3564,355.9z"/>
	<path id="XMLID_125_" class="st3" d="M3562.3,370c-5.6,0.2-11-0.3-16.4-1.9c-2-0.6-3.9-1.3-5.6-2.5c-0.3-0.2-0.6-1-0.5-1.3
		c0.1-0.3,0.8-0.6,1.2-0.7c0.5,0,1,0.2,1.5,0.4c10.6,4.6,21.5,4.3,32.6,2.3c1.5-0.3,3-0.7,4.6-0.9c0.7-0.1,1.4,0,1.7,0.8
		c0.3,0.9-0.4,1.3-1,1.5c-4.4,1.1-8.7,2.1-13.2,2.3C3565.4,370.1,3563.8,370,3562.3,370z"/>
	<rect id="XMLID_534_" x="1754.8" y="-805.1" class="st4" width="510" height="80"/>
	<rect id="XMLID_533_" x="1752.1" y="-899.6" class="st4" width="510" height="80"/>
	<rect id="XMLID_532_" x="1755.3" y="-934.7" class="st4" width="510" height="80"/>
	<rect id="XMLID_531_" x="1751.1" y="-1081.3" class="st5" width="512" height="608"/>
	<rect id="XMLID_530_" x="1750.9" y="-1078.6" class="st6" width="514.8" height="416"/>
	<rect id="XMLID_529_" x="1752" y="-805.5" class="st7" width="512.7" height="336"/>
	<rect id="XMLID_528_" x="1752.3" y="-1012.7" class="st8" width="512" height="304"/>
	<g id="XMLID_495_">
		<g id="XMLID_499_">
			<path id="XMLID_527_" class="st2" d="M2068.5-727.8c0.2-6.8,0.3-13.5,1.5-20.2c0.3-1.6,0.8-2.9,2.1-4
				c5.8-5.3,10.4-11.7,14.8-18.1c9.5-14,17.2-28.9,22.3-45.1c1.4-4.5,2.5-9,3.4-13.6c0.4-2.2,1.5-3.2,3.6-3.8
				c9.4-2.7,16.5-8.6,22.2-16.3c1-1.4,1.7-3,2.4-4.6c1.7-4.2,2.7-8.6,3.1-13.1c1.1-13.5-6.6-21.7-17.7-25.6c-2.7-1-5.5-0.7-8.2,0.2
				c-2,0.6-3.9,1.4-5.9,2c-1.2,0.4-2-0.2-2.6-1.2c-0.3-0.6-0.5-1.3-0.6-2c-1.8-9.1-6.5-16.7-12.5-23.6c-6.5-7.4-14.4-13-23.1-17.6
				c-5.4-2.9-11-5.1-16.7-7.2c-10.6-3.9-21.2-7.7-31.4-12.5c-10-4.6-19.4-10.2-27.6-17.5c-3.5-3.1-6.8-6.4-9.5-10.3
				c-0.2-0.4-0.9-0.8-1.1-0.7c-0.4,0.1-0.8,0.7-0.9,1.1c-3.2,10.4-9.5,18.8-16.8,26.6c-5.4,5.7-11.2,10.9-17.4,15.7
				c-6.2,4.8-12.3,9.6-17.8,15.2c-6.1,6.3-11.1,13.3-14.3,21.5c-1.4,3.6-2.5,7.2-2.9,11c-0.2,2.2-1,2.6-3.1,2
				c-3-0.9-6.1-1.5-9.2-1.3c-2.9,0.2-4.4-1.2-5.5-3.7c-3.6-8-6-16.3-7-24.9c-1.7-14.4-1.7-28.8,0-43.1c2.8-23.1,13-42.6,29.7-58.7
				c16-15.4,35.2-20,56.7-16.8c1,0.2,2.1,0.2,3.1,0.5c1.7,0.5,3,0,4.5-0.8c12.2-6.7,25.5-9.8,39.2-11.8c14.2-2,28.3-1.6,42.4,1.9
				c14.7,3.7,28.9,8.8,42.3,15.8c12.3,6.5,22.7,15.4,31.2,26.3c10.6,13.6,19.8,28.1,25.6,44.5c6.5,18.3,8.6,37.1,6.2,56.4
				c-1,8.1-2.3,16.2-3,24.3c-1,11.1-1,22.2,0.2,33.3c1.4,12.9,4.2,25.7,6.2,38.5c1.3,8.2,2.5,16.5,2.4,24.8
				c-0.3,38.8-26.3,63.9-56.3,70.8c-14.6,3.4-29.4,5-44.4,4c-2.8-0.2-5.5-0.7-8.3-1c-1.2-0.2-1.8-0.8-1.7-2.1
				C2068.1-717.8,2068.3-722.8,2068.5-727.8z"/>
			<path id="XMLID_526_" class="st2" d="M2010-485.1c-63.7,0.2-127.5,0.4-191.2,0.6c-1.7,0-3.5,0-5.2-0.1c-1.5-0.1-2.2-1.3-1.6-2.5
				c0.8-1.5,1.7-3,2.6-4.5c9.5-16,18.4-32.2,25.4-49.5c6.5-15.9,11.8-32.3,15.2-49.1c1.4-6.6,3.1-13.2,4.3-19.8
				c1.2-7.2,2-14.4,2.9-21.6c0.1-0.9,0.2-1.7,0.3-2.6c0.3-2.9,1.8-4.7,4.7-5.4c10-2.6,19.1-7.3,28.2-12c2-1,4-2.1,6.1-3
				c2.8-1.2,4.4-0.3,4.9,2.6c0.4,2.2,0.6,4.5,0.9,6.7c3.4,26.5,11.6,51.4,25.4,74.3c3.8,6.3,8.1,12,13.5,17.1
				c6.3,6,13.9,9.8,21.9,12.8c7.1,2.7,14.5,4.9,21.9,6.6c9.4,2.1,18.9,2.5,28.5,2.2c11.9-0.3,23.4-3.2,34.3-7.7
				c10.5-4.3,18.8-11.7,25.7-20.6c11.5-14.8,19.6-31.5,25.6-49.2c4.6-13.7,7.5-27.8,9.2-42.1c0.7-5.7,1.8-6.4,6.9-3.9
				c3.7,1.8,7.4,3.7,11.1,5.7c6.6,3.5,13.5,6.4,20.7,8.3c3.6,1,5.1,3,5.4,6.6c0.8,7.2,1.7,14.5,2.7,21.7c1.4,9.4,4,18.6,6.1,27.9
				c6.5,28.5,17.8,55.1,32.3,80.4c2.6,4.5,5.3,9,7.9,13.5c0.7,1.2,1.6,2.3,1.8,3.7c0.2,1.3-0.5,2.5-1.8,2.7
				c-1.4,0.1-2.8,0.1-4.2,0.1c-64.3,0-128.5,0-192.8,0C2010-485.4,2010-485.2,2010-485.1z"/>
			<path id="XMLID_525_" class="st2" d="M1944.1-716.7c-5.7,0.5-10.1-0.6-14.5-1.3c-9.2-1.5-18.4-3.3-27.6-5c-2.2-0.4-4.4-1-6.5-1.8
				c-7.9-2.8-13.1-8.3-15.8-16.1c-3.5-10.3-2.9-20.5,1.2-30.5c1.5-3.5,3.3-6.9,5.2-10.2c8.1-14.2,12.9-29.5,14.5-45.8
				c0.1-0.7,0.1-1.4,0.2-2.1c0.5-3,1.2-3.5,4.2-2.6c0.3,0.1,0.7,0.2,1,0.3c7.9,2.8,7.2,0.7,8.2,9.6c1.3,11.2,5.2,21.6,10.5,31.4
				c8,15.1,16.9,29.5,29.2,41.6c1.7,1.6,2.2,3.4,2.1,5.6c-0.1,5-1.1,10-1.7,15c-0.3,2.6-0.6,5.2-1.1,7.7c-0.5,2.8-1.6,3.8-4.5,4.2
				C1946.8-716.5,1944.9-716.7,1944.1-716.7z"/>
			<path id="XMLID_250_" class="st3" d="M2081.1-893.3c4.9,1.5,8.5,4.5,10.5,9.3c2.4,5.9,0.9,11.3-4.4,15.1c-2.4,1.7-5.1,2.9-8,3.7
				c-8,2.3-16.1,2.1-24.2,0.8c-3.8-0.6-7.3-2.1-10.5-4.3c-6.1-4.1-7.2-13.2-1.1-18.3c2.3-1.9,4.7-3.5,7.5-4.5
				c5.7-2.2,11.6-3.4,17.9-3.2C2072.9-894.9,2077-894.6,2081.1-893.3z M2045.4-871.5c1.5,1.1,3.2,2,4.9,2.8c1.3,0.7,2.1,0,1.7-1.3
				c-1.8-6.1-0.8-12,1.1-17.9c0.1-0.3,0-0.7-0.2-0.9c-0.2-0.2-0.7-0.3-0.9-0.2c-3.1,1.2-6,2.8-8.1,5.4c-1.3,1.5-2,3.3-1.9,5.4
				C2042.3-875.6,2043.2-873.1,2045.4-871.5z"/>
			<path id="XMLID_247_" class="st3" d="M1982.1-892.4c3.5,1.1,6.7,2.8,9.5,5.1c6.7,5.4,5.3,14.9-1.3,18.9c-2.2,1.4-4.5,2.6-7.1,3.2
				c-9.8,2.4-19.5,2.5-29.1-0.8c-2.3-0.8-4.5-1.9-6.4-3.4c-4.6-3.5-6-8.4-4.1-13.8c1.8-5.3,5.6-8.6,10.9-10.2
				c3.9-1.2,7.8-1.5,12-1.3C1971.7-895,1976.9-894,1982.1-892.4z M1946.5-883.3c-2.2,4.9-1,9.2,3.4,12.3c1.4,1,3,1.6,4.6,2.4
				c0.2,0.1,0.6,0,0.9-0.2c0.4-0.2,0.4-0.5,0.2-0.9c-2.9-6.6-1.1-12.9,1.4-19.1c0.2-0.6,0.5-1.2,1-2.5
				C1952.3-890.4,1948.6-888,1946.5-883.3z"/>
			<path id="XMLID_511_" class="st3" d="M2111.3-817.5c-0.9,1.3-1.2,2.9-1.6,4.4c-5.6,18.4-13.9,35.5-26,50.6
				c-3.1,3.8-6.3,7.4-9.9,10.7c-1.8,1.6-2.7,3.5-2.9,5.9c-0.1,0.7-0.2,1.4-0.3,2.1c-0.4,10.8-1.9,21.5-1.4,32.2
				c0.8,16.6,6.5,31.1,19.6,42.1c2.8,2.4,5.8,4.4,9.3,5.6c4.6,1.7,9.1,3.3,13.7,5c0.8,0.3,1.7,0.4,2.3,1.1c0.2,0.2,0.3,0.7,0.2,0.9
				c-0.1,0.3-0.4,0.6-0.7,0.7c-1.2,0.3-2.4-0.2-3.5-0.6c-4.1-1.5-8.1-3-12.2-4.4c-2-0.7-2.3-0.6-2.8,1.6c-0.8,3.9-1.5,7.8-2.3,11.7
				c-3,14.8-7.5,29.2-11.8,43.7c-5.5,18.5-12.3,36.5-20.6,53.9c-4.1,8.5-8.9,16.5-14.5,24c-6.2,8.3-13.3,15.6-23.4,19.2
				c-1.6,0.6-1.6,0.9-1,2.7c0.3,1,0.8,2,0.9,3c0.6,4.4-1.8,8.4-5.7,10.1c-3.8,1.5-8.3,0.2-10.7-3.1c-2.5-3.4-2.4-8.4,0.3-11.6
				c1-1.2,2.3-2.1,3.4-3.2c-0.1-1-0.8-1.5-1.5-2.1c-17.1-14.9-30-33.1-41.4-52.5c-12.2-20.9-22.4-42.7-29.2-66c-2.6-9-5.1-18-7-27.2
				c-0.3-1.5-0.7-3.1-1-4.6c-1-4-1-4-4.6-2.1c-4.7,2.6-9.4,5.3-14.1,7.8c-0.9,0.5-1.9,0.7-2.9,1c-0.2,0.1-0.7-0.3-0.8-0.6
				c-0.1-0.2-0.1-0.8,0-0.9c0.6-0.6,1.3-1.1,2.1-1.5c3.8-2.1,7.5-4.4,11.4-6.3c13.6-7,21.9-18.3,26.9-32.4
				c2.3-6.6,3.7-13.4,4.6-20.3c1.2-8.6,1.9-17.2,2.9-25.9c0.3-3-0.4-5.2-2.6-7.4c-17.8-17-29.1-37.8-36.3-61.1
				c-0.3-0.8-0.5-1.7-0.8-2.5c-1-3-1-3-4.2-2.4c-2.9,0.6-5.9,0.7-8.8-0.1c-7.9-2.3-12.2-10.3-10-18.6c0.2-0.8,0.6-1.6,0.9-2.4
				c0.4-0.9,0.2-1.7-0.4-2.4c-0.3-0.4-0.7-0.8-1.1-1.1c-5.9-6.5-9.4-14-10.7-22.7c-0.9-5.9,0-11.4,2.5-16.7
				c4.4-9.5,14.2-14.4,24.5-12.4c2.2,0.4,4.4,0.9,6.5,1.9c0.8,0.4,1.6,1,1.1,2c-0.3,0.6-1.1,0.8-1.8,0.6c-0.8-0.3-1.7-0.5-2.5-0.8
				c-2.5-1-5.1-1.1-7.7-1.1c-8.6,0-14.4,4.2-17.9,11.9c-2.5,5.4-2.4,11.2-1.4,16.9c1.3,7,4.5,13.1,9.3,18.4c1.7,1.9,1.8,1.9,3.7,0.4
				c2-1.5,4.1-2.7,6.4-3.3c0.6-0.2,1.4-0.2,2-0.1c0.3,0,0.6,0.4,0.7,0.6c0.3,0.5,0,1.1-0.3,1.4c-0.6,0.4-1.2,0.6-1.9,0.9
				c-1.4,0.7-2.9,1.2-4.2,2.1c-2.1,1.4-2.1,2.4-0.1,3.9c3.4,2.5,7.2,4.2,11.4,4.9c2.1,0.3,3,1.3,3.2,3.3c1,6.5,2.7,12.9,4.7,19.2
				c5.5,17,13.4,32.7,24.7,46.7c9,11.1,19.5,20.2,32.1,26.9c8.9,4.6,18.3,7.4,28.2,8.6c4.8,0.6,9.7,0,14.5-0.7
				c6.3-1,12.7-2,18.8-4.1c16.6-5.6,30-15.8,41.3-28.9c13.7-15.9,22.7-34.4,28.5-54.5c1.4-4.7,2.7-9.4,3.2-14.2
				c0.2-2.2,1.3-2.9,3.2-3.2c4.5-0.8,8.6-2.8,12.2-5.6c1.4-1.1,1.4-2-0.2-2.6c-2.1-0.8-4.2-1.5-6.5-0.5c-0.7,0.3-1.5,0-1.7-0.7
				c-0.2-0.7,0.4-1.3,1-1.7c1.4-0.9,3-1,4.5-0.6c1.5,0.3,3,0.9,4.4,1.5c2.7,1.1,2.7,1.2,4.7-1.1c3.7-4.4,6.6-9.4,8.1-15
				c0.8-3.2,1.6-6.4,1.4-9.8c-0.1-1.7-0.8-2.3-2.3-1.8c-1.5,0.5-2.9,1.3-4.4,1.7c-3.8,1-5.6,2.8-5.6,7.2c0.1,4.3-3,7.6-6,10.6
				c-0.4,0.4-1,0.3-1.4,0c-0.6-0.3-0.6-0.9-0.3-1.3c0.9-1.3,1.8-2.5,2.7-3.8c1.4-2,2.5-4.1,2.7-6.7c0.1-1.4-0.3-2.2-2-2.3
				c-1.1,0-1.2-1.1-0.6-1.9c0.3-0.4,0.8-0.7,1-1.1c0.4-0.8,0-1.6-0.7-1.6c-1.9,0-2.8-0.7-2.9-2.7c0-1-1.2-1.2-2-1.2
				c-2.1,0-4.2,0.1-6.2,0.1c-0.5,0-1-0.3-1-0.9c0-0.6,0.3-1.1,0.8-1.2c3.2-0.6,6.5-1.6,9.6,0.2c1.1,0.6,2.2,1,3.4,0.1
				c3.1-2.2,6.3-4.4,9.4-6.6c0.9-0.6,0.9-1.5,0.2-2.2c-3.2-3.7-7.3-5.9-12.2-6.2c-3.8-0.3-7.6,0-11.3,1.4c-1,0.4-2,0.9-2.8-0.2
				c-0.6-0.7,0.3-1.9,2-2.5c9.6-3.5,18.4-2.4,26,5c1,1,1.7,2,3.5,1.5c1.6-0.5,2.1,0.3,1.1,2c-0.6,1-0.9,1.8-0.3,2.8
				c0.3,0.6,0.5,1.3,0.8,1.9c0.4,0.9,0.3,2.3,1.3,2.7c0.7,0.3,1.7-0.1,2.5-0.2c0.3,0,0.7-0.1,1,0.1c0.5,0.3,0.7,0.8,0.4,1.3
				c-0.1,0.3-0.4,0.6-0.7,0.7c-2.6,0.8-3.1,2.7-3,5.2c0.3,9.4-3.1,17.6-8.8,25c-0.7,1-1.6,1.9-2.3,2.8c-0.8,0.9-0.9,1.8-0.3,2.8
				c0.5,0.9,1.1,1.8,1.5,2.7c5,10.2-3.1,19.9-11.1,21.1C2119-813.9,2116.6-814.4,2111.3-817.5z M2027.1-599.7c-0.9,0-1.3,0.1-1.6,0
				c-0.5-0.1-1-0.3-1.1-0.9c0-0.6,0.2-1,0.8-1.2c0.6-0.2,1.3-0.4,2-0.5c6.9-1.5,13.1-4.4,18.7-8.7c11.5-8.9,20.9-19.8,28.9-31.9
				c3.3-5.1,6.4-10.4,8.6-16c0.9-2.4,1.6-4.9,2.3-7.4c0.2-0.8,0.2-1.8-0.4-2.5c-1-1-1.9-2.4-3.1-2.7c-1.6-0.4-1.9,1.6-2.9,2.5
				c-1.3,1.2-2.3,2.6-3.5,3.8c-1.6,1.6-3,3.3-3.3,5.7c-0.3,2.2-1.9,4-4.2,4c-2.5,0-4.2,1.4-6.1,2.5c-2.9,1.6-5.7,3.3-8.6,4.8
				c-1.5,0.8-2.7,1.6-3.4,3.6c-1.4,3.7-3.9,4.6-7.4,2.8c-1.9-0.9-3.5-0.8-5.4-0.4c-5.1,1.2-10.1,2.4-15.4,2.5
				c-2.5,0-4.5,0.6-6.5,2.5c-3,2.9-7.2,2.4-9.3-1.1c-1.3-2.1-2.9-2.8-4.9-3.2c-5.3-1.1-10.4-2.7-15.3-5.1c-1.9-0.9-3.6-1.5-5.9-0.7
				c-2.8,0.9-4.9-0.3-5.5-3.2c-0.5-2.4-2-3.4-3.7-4.7c-2.5-1.9-4.9-3.9-7.2-5.9c-1.6-1.4-2.9-2.7-5.3-2.8c-2.1-0.1-3.2-1.4-3-3.5
				c0.2-2.1-0.6-3.6-1.7-5.3c-1.2-1.7-2.1-3.6-3.2-5.3c-1.4-2.3-2.1-5.1-4-7.2c-2.8,1.5-3.2,4.7-5.2,6.8c-1.4,1.5-1.3,3.1-0.4,4.8
				c0.5,0.9,0.8,1.9,1.2,2.9c7.8,17.7,18.9,33.1,32.4,46.8c9.8,9.9,21.4,17.1,34.6,21.6c0.5,0.2,1,0.3,1.4,0.6
				c0.2,0.2,0.4,0.6,0.5,0.9c0.2,0.7-0.4,0.9-0.9,1c-2.3,0.3-4.5-0.5-6.5-1.4c-10.3-4.7-20.1-10.2-28.4-18.2
				c-14.5-14-26.3-29.9-34.8-48.3c-0.8-1.8-1.1-4-3-5.3c-1.9,0.9-3,2.8-4.6,4.1c-0.3,0.2-0.5,0.5-0.8,0.7c-1.3,1-1.4,2.1-1,3.7
				c2.5,9.9,4.6,19.9,7.4,29.8c10.3,36.1,27.4,68.9,49.8,99c6.9,9.2,15.2,17.1,23.8,24.8c0.3,0.2,0.5,0.5,0.8,0.7
				c2.5,2,5,2.5,8.2,1.2c6.7-2.8,12.5-6.6,17.3-12.1c8.2-9.5,14.8-20.1,20.2-31.5c9-19,16-38.8,21.9-59c4.7-15.8,9.2-31.6,11.9-47.9
				c0.4-2.6-0.2-3.9-2.2-5.1c-1.3-0.7-1.9-0.7-2.2,0.8c-1.6,5.9-4.4,11.3-7.3,16.7c-6.2,11.4-14.6,21.1-23.5,30.4
				c-4,4.1-8.5,7.7-13.3,10.9C2038.6-602.9,2032.8-600.6,2027.1-599.7z M2062.7-659.2c-0.1-4.2,0.4-4.9,4.3-5.9
				c0.7-0.2,1.5-0.7,2-0.4c2.8,1.5,4.1-0.6,5.6-2.3c1.2-1.3,2.3-2.6,3.4-4c1.8-2.4,1.8-2.5,0.1-5c-4.9-7.3-8.3-15.2-10.2-23.7
				c-0.3-1.2-0.6-2.4-0.9-3.5c-0.3-1.3-1.1-1.6-2.3-1.5c-0.9,0.1-1.7,0.2-2.6,0.3c-6.1,0.6-12.2,0.5-18.2-0.3
				c-16.8-2.1-33-6.1-48.6-12.9c-7.3-3.2-14.2-7.1-20.6-12c-4.3-3.3-8.2-6.9-12.1-10.6c-1.2-1.2-2.8-2-4.2-2.9
				c-1.5,1.3-0.9,3.2-1.1,4.8c-0.7,4.6-1.1,9.3-1.6,13.9c-1.3,11.2-2.7,22.4-6.9,33c-0.7,1.7-0.6,3.3,0.1,5
				c1.9,4.5,4.1,8.8,6.7,12.9c1,1.5,2,2.5,4.1,2.5c2.6,0.1,4.2,1.6,3.7,3.9c-0.5,2.6,0.6,4,2.2,5.3c2.4,2,4.8,3.9,7.3,5.9
				c1.2,0.9,2.2,1,3.7,0.2c3.9-2.1,6.1-1,7.3,3.2c0.1,0.3,0.1,0.7,0.1,1c-0.1,1.7,0.9,2.4,2.3,3.1c5.3,2.6,11,4.3,16.7,5.5
				c1.8,0.4,2.7,0,3.9-1.5c2.9-3.7,5.9-3.7,9.1-0.3c0.4,0.4,0.8,0.8,0.9,1.2c0.7,2.2,2.4,2.3,4.2,2.1c5-0.4,10-1.2,14.9-2.4
				c2-0.5,3.2-1.2,4-3.4c1.1-3.1,3.8-4.2,6.2-2.7c2.5,1.7,4.5,1.1,6.7-0.2c2.5-1.5,5.1-2.9,7.7-4.4
				C2062.1-656.1,2063.5-657.1,2062.7-659.2z M2120.6-816.9c8.8,0.1,16.6-10,11-18.7c-1.4-2.1-1.6-2.3-3.6-0.9
				c-3.4,2.4-7,4.6-11.1,5.6c-2.6,0.6-3.9,2-4,4.6c0,0.7,0,1.4-0.3,2c-1.1,2.4,0.1,4,1.8,5.4
				C2116.2-817.3,2118.3-816.9,2120.6-816.9z M1907.2-818.2c1.1,0.1,2.6-0.3,4-0.9c1.1-0.4,1.8-1.1,1.6-2.3c-0.3-2-0.8-4.1-1.2-6.1
				c-0.2-0.9-0.7-1.6-1.6-1.8c-4.6-1.2-8.8-3.2-12.7-5.9c-1.1-0.8-1.9-0.4-2.4,0.9C1892-826.6,1898.1-818.2,1907.2-818.2z
				 M2019.4-499.8c0.1-3.7-2.3-6.5-5.8-6.7c-3.8-0.2-6.7,2.5-6.8,6.2c-0.1,3.6,3.1,6.9,6.5,6.9
				C2016.5-493.3,2019.3-496.2,2019.4-499.8z M2138.3-880.4c-0.3,0.1-0.7,0.1-1,0.3c-3,2-6,4.1-9,6.2c-0.8,0.5-1.1,1.3-0.5,2.2
				c0.6,0.9,1.3,1.8,2.5,1.3c2.4-0.9,4.8-1.9,7.3-2.8c4-1.5,3.6-1.9,2.1-5.8c-0.1-0.3-0.3-0.6-0.5-0.9
				C2138.9-880,2138.6-880.2,2138.3-880.4z"/>
			<path id="XMLID_510_" class="st3" d="M2246.5-487.7c-9.9,1.3-19.8,1-29.6,1.5c-1,0.1-2.1,0.2-3-0.4c-0.3-0.2-0.5-0.6-0.5-0.8
				c0-0.3,0.3-0.6,0.5-0.8c0.7-0.6,1.6-0.5,2.5-0.5c12-0.4,23.9-0.9,35.9-1.3c7.6-0.3,15.3-0.6,22.9-0.9c0.7,0,1.4-0.1,2.1-0.2
				c0.8-0.2,1.2-0.8,1.1-1.5c-0.4-2-0.8-4.1-1.5-6c-3.9-10.6-8.6-20.8-13.6-30.9c-10.3-20.5-23.8-38.6-39.5-55.3
				c-17.8-18.8-38.1-34.4-59.8-48.4c-0.7-0.5-1.5-0.9-2.1-1.5c-0.3-0.3-0.6-1-0.4-1.3c0.2-0.3,0.9-0.7,1.3-0.6
				c1.1,0.4,2.2,0.9,3.2,1.6c3.7,2.3,7.4,4.6,10.9,7.2c12.4,9,24.8,17.8,35.9,28.4c13,12.3,25.2,25.4,35.6,40
				c5.1,7.1,9.7,14.4,13.8,22.1c6.2,11.5,11.9,23.2,16.4,35.4c1.3,3.4,2.4,6.9,2.5,10.6c0,2.1-0.6,2.9-2.7,3c-5,0.3-10,0.7-15.1,0.8
				C2257.6-487.6,2252.1-487.7,2246.5-487.7z"/>
			<path id="XMLID_509_" class="st3" d="M1779.1-485.9c-13.4-0.6-23.1-1-32.8-1.4c-0.5,0-1,0-1.6,0c-3.5-0.2-4.3-1.1-3.5-4.7
				c0.6-2.9,1.3-5.8,2.3-8.5c4.7-13.1,10.8-25.5,17.5-37.7c9.6-17.4,21.8-32.9,35.5-47.4c17.3-18.3,37.1-33.5,58-47.3
				c1.6-1,3.1-2.2,5-2.7c0.6-0.2,1,0.2,1.2,0.7c0.1,0.3,0,0.8-0.2,0.9c-1.1,0.9-2.2,1.7-3.3,2.4c-14.7,9.3-28.7,19.6-41.6,31.2
				c-24.9,22.2-45.6,47.6-59.7,78c-3.7,8-7.1,16.2-10.5,24.4c-0.1,0.3-0.2,0.7-0.3,1c-2.4,7.7-1.2,7,5,7.2
				c14.9,0.5,29.8,1.2,44.7,1.7c3.6,0.1,7.3,0.2,10.9,0.4c0.8,0,1.7,0.3,2.5,0.5c0.2,0.1,0.4,0.6,0.3,0.9c0,0.3-0.2,0.7-0.5,0.8
				c-0.9,0.6-2,0.4-3,0.4C1795.2-485.6,1785.2-485.3,1779.1-485.9z"/>
			<path id="XMLID_246_" class="st3" d="M2054.3-926.6c12,0.4,22,4.4,31,11c1.2,0.9,2.4,2,3.5,3.1c1.4,1.5,1.8,3.3,1,4.2
				c-1.1,1.3-2.5,1-3.8,0.6c-1.3-0.4-2.6-0.9-3.9-1.4c-6.1-2.5-12.4-4.3-19-5.1c-2.7-0.3-5.5-0.5-8.3-0.7c-0.9-0.1-1.7,0-2.6-0.1
				c-4.5-0.5-6.4-2.9-5.8-7.4c0.3-2.5,1.9-4,4.5-4.3C2052.2-926.7,2053.6-926.6,2054.3-926.6z"/>
			<path id="XMLID_245_" class="st3" d="M1970.5-911.8c-8,0-15.9,1-23.7,2.8c-2.2,0.5-4.4,0.9-6.6,1.2c-0.7,0.1-1.3-0.4-1.6-1.1
				c-0.3-0.7,0-1.4,0.6-1.8c0.8-0.6,1.7-1.2,2.6-1.7c11.2-5.8,23-9.5,35.6-10.6c1-0.1,2.1-0.1,3.1,0.1c1.4,0.2,2.2,1,2.3,2.4
				c0.2,2.1,0.4,4.1,0.6,6.2c0.2,2-0.6,3-2.5,3.1c-1.2,0.1-2.4,0-3.6-0.1C1975-911.6,1972.7-911.7,1970.5-911.8z"/>
			<path id="XMLID_506_" class="st3" d="M2016-799.8c-9.7,0.3-19-1.7-28.1-4.6c-6.4-2.1-11.9-5.5-17-9.7c-0.5-0.4-1-0.9-1.5-1.5
				c-0.6-0.6-1.2-1.3-0.8-2.3c0.3-0.7,1.6-0.5,2.6,0.5c8.6,8.3,19.4,11.7,30.8,13.8c5.3,1,10.7,1.1,16,1.2c9.2,0.2,17.8-2.2,26.1-6
				c5.9-2.7,11.2-6.2,16.5-9.9c1.3-0.9,2.6-1.7,3.9-2.5c0.4-0.3,1.1-0.1,1.3,0.4c0.1,0.4,0,1-0.1,1.4c-0.1,0.3-0.4,0.5-0.7,0.7
				c-10.5,7.8-21.6,14.5-34.6,17.3C2025.7-799.8,2020.8-799.9,2016-799.8z"/>
			<path id="XMLID_505_" class="st3" d="M2015.7-829.2c-2.8-0.1-5.5-0.2-8.3-0.5c-0.7-0.1-1.3-0.7-0.9-1.5c0.2-0.4,0.7-0.9,1.1-1
				c1-0.1,2.1,0,3.1,0.1c5.2,0.4,10.4,0.5,15.5-0.6c1.2-0.3,2.4-0.5,3.5-0.9c2.6-0.9,3.9-2.8,3.9-5.5c0-1.5-0.3-3.1-0.6-4.6
				c-2.7-13.6-6-27.1-9.5-40.5c-0.7-2.8-1.3-5.7-1.9-8.6c-0.2-0.7,0.2-1.4,1-1.5c0.8-0.1,1.3,0.5,1.5,1.2c0.5,1.8,0.8,3.7,1.3,5.6
				c3.7,13.9,7.1,27.9,10,42c0.5,2.2,0.8,4.4,0.7,6.7c-0.1,4.4-2.1,7.2-6.5,8.3c-2.8,0.7-5.7,1.4-8.7,1.3c-1.7-0.1-3.5,0-5.2,0
				C2015.7-829.3,2015.7-829.2,2015.7-829.2z"/>
			<path id="XMLID_504_" class="st3" d="M2014.3-785.6c-5.6,0.2-11-0.3-16.4-1.9c-2-0.6-3.9-1.3-5.6-2.5c-0.3-0.2-0.6-1-0.5-1.3
				c0.1-0.3,0.8-0.6,1.2-0.7c0.5,0,1,0.2,1.5,0.4c10.6,4.6,21.5,4.3,32.6,2.3c1.5-0.3,3-0.7,4.6-0.9c0.7-0.1,1.4,0,1.7,0.8
				c0.3,0.9-0.4,1.3-1,1.5c-4.4,1.1-8.7,2.1-13.2,2.3C2017.4-785.6,2015.9-785.6,2014.3-785.6z"/>
			<path id="XMLID_503_" class="st3" d="M1907.8-874.2c-7.3-1.6-12,7.1-9.9,13.2c0.7,2,1.8,3.7,3.1,5.4c0.7,1,1.4,2,2,3
				c0.1,0.2-0.1,0.7-0.3,0.9c-0.2,0.2-0.6,0.4-0.9,0.4c-0.3,0-0.7-0.2-0.9-0.4c-3.8-3.8-6.5-8.1-6.1-13.8c0.3-4.3,2.4-7.5,5.8-10
				c1.9-1.3,4-2,6.4-1.4c1.5,0.4,3.2-0.1,4.5,1c0.2,0.2,0.4,0.6,0.3,0.9c0,0.3-0.3,0.8-0.5,0.8
				C1910.2-874.1,1909-874.2,1907.8-874.2z"/>
			<path id="XMLID_502_" class="st3" d="M1893.9-884.5c1.2,0,2.3,1.1,2.4,2.3c0.1,1.5-1.3,2.8-3.1,2.8c-1.1,0-2.3-1.3-2.1-2.5
				C1891.2-883.3,1892.6-884.6,1893.9-884.5z"/>
			<path id="XMLID_501_" class="st3" d="M1891.7-875.7c0.1,1.3-1,2.7-2.4,2.9c-1.2,0.2-2.4-0.7-2.6-2c-0.2-1.6,1-3.2,2.6-3.2
				C1890.3-878.1,1891.6-876.9,1891.7-875.7z"/>
			<path id="XMLID_500_" class="st3" d="M2017.9-596c-1.8,0-3.2-1.7-3.3-3.8c0-2.4,1.6-4,3.7-3.9c1.7,0.1,2.9,1.5,3,3.5
				C2021.3-597.9,2019.8-596,2017.9-596z"/>
		</g>
		<g id="XMLID_496_">
			<circle id="XMLID_498_" class="st1" cx="2084.9" cy="-835.9" r="20.1"/>
			<circle id="XMLID_497_" class="st1" cx="1949.5" cy="-835.9" r="20.1"/>
		</g>
	</g>
	<path id="XMLID_212_" class="st3" d="M380.9,207.2c-0.7,1.2-1.5,2.5-2.3,3.7c-1.6-0.7-3.2-1.3-4.9-1.9c-3.3-1-6.6-1.4-10-1.4
		c-4.3-0.1-4.3-0.2-5-4.4c-1.2-7.4-2.3-14.8-3.7-22.2c-1.3-6.7-2.9-13.3-5.4-19.6c-3.5-8.8-8.7-16.4-15.8-22.7
		c-4.9-4.4-10.3-5.5-16.3-2.3c-0.8,0.4-1.6,0.8-2.4,1.2c-6.3,2.6-12.4,5.7-19.1,6.9c-11.3,2-22.5,3.6-34.1,2.5
		c-10.2-1-20.2-2.8-29.9-6.1c-4.4-1.5-8.8-3.1-13.2-4.5c-5.3-1.7-10.5-3.4-16.1-3.9c-6.8-0.6-11.9,2.3-15.5,7.7
		c-1.9,2.8-3.3,5.9-4.7,9c-3.2,7-5.3,14.4-7.6,21.8c-2.2,7.2-4.4,14.4-6.7,21.5c-1.3,3.9-3.1,7.6-5.1,11.2c-1.4,2.6-3.5,4-6.5,3.9
		c-0.5,0-1.1,0-1.6,0c-4.5,0.2-8.6,1.1-12.4,2.6c-0.6-1.8-1.1-3.7-1.5-5.4c0-0.1,0-0.3,0-0.4c0.1-11.5,1.8-22.8,4.4-34
		c5.1-21.7,14.3-41.5,27.2-59.7c9.3-13,21.8-22,36.2-28.6c3.7-1.7,7.6-3.1,11.5-4.6c2.5-1,2.7-1.1,1.4-3.3
		c-2.8-4.7-4.6-9.6-5.8-14.9c-1.4-6.9-2.1-13.9-0.6-20.8c2.5-10.9,8.2-19.7,18.2-25.3c6-3.3,12.6-4.9,19.4-6.1
		c9.8-1.7,19.6-1.9,29.3,0.6c9.8,2.5,18.1,7.6,24.4,15.6c5.2,6.7,8,14.2,8,22.8c0,9.7-2.2,18.8-6.1,27.5c-0.4,0.8-0.9,1.6-1.2,2.4
		c-0.7,1.4-0.5,2,0.8,2.5c0.8,0.4,1.7,0.7,2.5,1c16.8,6.6,31.1,16.6,42.5,30.8c10,12.4,17.8,25.9,21.9,41.4c1.9,7.1,3,14.3,3.8,21.6
		c1.3,10.3,1.4,20.7,1.6,31.1C380.5,205.6,380.6,206.4,380.9,207.2z"/>
	<path id="XMLID_18_" class="st3" d="M141.8,191c-1,5.4-1.7,9.6-1.3,15.3c1.4,20.2,8.2,48.6,27.3,64.7
		c41.4,34.8,69.4,38.9,93.3,39.3c37.6,0.7,67.6-18.4,84.7-35.3c16.6-16.5,31.1-41.5,34-68.7c3.4-32.3-15-63.3-38.7-79.3
		c-18.5-12.6-36.5-13-72.7-14c-47.2-1.3-74.9-2-96.7,18C150.2,150.7,143.3,182.5,141.8,191z"/>
</g>
<g id="Warstwa_4">
	<path id="XMLID_98_" class="st2" d="M2013.5-483.2c-19.3,0-38.5,0.1-57.8,0c-31.4-0.1-62.8-0.4-94.3-0.5
		c-39.4-0.2-78.8-0.3-118.2-0.5c-2.9,0-5.9-0.2-8.8-0.3c-2.7-0.1-2.9-0.5-2.6-3.1c0.3-3.5,1.5-6.8,2.8-10c4.1-10,8.7-19.6,13.6-29.2
		c5-9.7,9.7-19.6,14.1-29.6c8.2-18.4,19.1-35,32.9-49.7c6.6-7,14.2-12.7,22.7-17.3c7.3-4,14.9-7.5,22.6-10.5
		c18.9-7.3,37.9-14.6,57-21.4c13.7-4.8,27.5-9.7,41.2-14.6c0.5-0.2,1-0.4,1.5-0.5c3.1-0.9,4-0.3,4.8,2.8c1,3.7,1.7,7.5,3,11
		c8.6,23.6,24.6,39.6,49.2,46c18.8,4.9,36.9,2,53.8-7.4c18.9-10.4,31.7-26.1,39.3-46.2c2.2-5.9,1.6-5.8,7.6-3.6
		c27.5,10.2,55.2,19.9,82.4,30.7c8.9,3.5,17.6,7.3,26.2,11.5c15.4,7.5,29.5,17,40.7,30.2c8.8,10.4,16.5,21.5,22.6,33.6
		c4.7,9.1,8.5,18.6,11.8,28.3c5.1,14.8,10,29.6,13.5,44.8c0.2,0.7,0.4,1.3,0.5,2c0.8,3.4-1.1,5.3-4,5c-0.9-0.1-1.7,0-2.6,0
		c-27.1-0.1-54.2-0.1-81.3-0.2c-12.8,0-25.7-0.2-38.5-0.2c-35.9-0.2-71.9-0.4-107.8-0.5c-16-0.1-31.9,0-47.9,0
		C2013.5-482.9,2013.5-483,2013.5-483.2z"/>
	<path id="XMLID_95_" class="st3" d="M2143.5-882c-1.8-1.6-3.8-3.1-5.9-4.3c-1.7-1-2.4-2.3-2.3-4.2c0-0.5,0.1-1.1,0.1-1.6
		c-5.7-1-13-2.1-22.6-3.2c0.1,0.6,0.2,1.2,0.3,1.8c0.8,3.8,1.7,4.6,5.5,4.8c7.5,0.2,14.3,2.4,20.4,6.8c5.8,4.2,9.9,9.8,11.7,16.7
		c2.4,9,0.5,17.3-5.1,24.6c-5.7,7.6-13.5,11.7-22.9,13.1c-0.7,0.1-1.4,0.1-2.1,0.2c-5.1,0.8-5.1,1.7-4.7,6c1.5,16,0.3,31.9-4.7,47.3
		c-0.7,2.2-1.5,4.4-2.3,6.5c-10.6,26.8-30.5,43.8-59.2,51.4c-10.5,2.8-21.2,3.7-31.8,3.3c-11.3,0.4-22.3-0.7-33.1-3.7
		c-31.3-8.8-51.4-28.9-60.6-59.8c-0.1-0.3-0.2-0.5-0.2-0.7c-4.2-14.5-5.1-29.3-3.8-44.3c0.1-0.9,0.3-1.7,0.3-2.6
		c0-1.2-0.5-2.1-1.6-2.4c-1.5-0.4-3-0.8-4.6-0.9c-8.6-1-16-4.5-21.8-10.9c-9.9-10.8-10.8-26.6-0.8-38.4c3.9-4.6,8.6-7.8,13.9-9.7
		c-1.9-1.5-3.7-2.6-5.3-3.5c0,0,0,0.1,0,0.1c0.3,1.6,0.1,2.7-1.4,3.5c-1.4,0.8-2.7,1.6-3.9,2.6c-15.1,11.5-17.6,31.7-5.8,46
		c5.4,6.5,12.4,10.5,20.6,12.4c2,0.5,4.1,0.7,6.2,1c1,0.2,1.5,0.8,1.5,1.8c0,1-0.1,2.1-0.1,3.1c-0.7,12.2-0.3,24.3,2.3,36.2
		c0.4,1.9,0.9,3.9,1.4,5.8c3.9,14.5,10.5,27.7,21.1,38.7c2.9,3.1,4.2,6.1,3.6,10.2c-0.1,0.7-0.1,1.4-0.1,2.1
		c-0.7,11.3-1.4,22.5-2.1,33.8c-0.5,7.4-1,14.7-1.5,22.1c-0.1,1.1-0.2,2.2-0.2,3.3c-0.1,2.4-0.2,4.8-0.2,7.3c0,0.9,0.1,1.9,1.3,1.9
		c0.8,0,1.1-0.7,1.2-1.5c0.2-1.9,0.5-3.8,0.7-5.7c0.1-1,0.1-2,0.2-2.9c0.3-4.6,0.6-9.1,0.9-13.7c0.8-14,1.6-28.1,2.5-42.1
		c0.1-2.4,0.1-4.8,1.1-7.3c2.6,1.4,4.9,3.1,6.9,4.9c7.7,7.1,16.4,12.8,25.6,17.8c27.3,15.1,56.5,22.5,87.7,22.8
		c5.9,0,11.8,0.1,17.7-0.8c3.2-0.5,3.4-0.2,3.5,2.8c0.4,5.5,0.6,11,1,16.6c0,0.4,0,0.7,0.1,1.1c0.2,2.4,0.6,4.8,0.9,7.2
		c0.1,0.5,0.6,0.8,1.1,0.8c0.7,0,1-0.6,1-1c0-2.9,0-5.9-0.2-8.8c0-0.3,0-0.6-0.1-0.9c-0.4-7-1-14-1.5-20.9
		c-0.7-10.6-1.4-21.1-2-31.7c-0.2-3.6-0.3-7.3-0.5-10.9c-0.1-1.7,0.5-3,1.6-4.2c2.3-2.4,4.6-4.8,6.6-7.4
		c5.9-7.6,10.4-15.7,13.6-24.3c3.9-10.4,6-21.5,6.7-33.1c0.4-6.6,0.2-13.2-0.2-19.8c-0.2-2.4,0.2-3.1,2.7-3.3
		c7.2-0.8,13.8-3.2,19.6-7.6C2157.9-844.9,2159-867.9,2143.5-882z"/>
	<path id="XMLID_9_" class="st0" d="M2144.7-966.7c-1,1.4-2,2.9-3.3,4c-5.9,5.1-7.6,11.8-7.8,19.2c-0.1,2.1,0,4.2,0.1,6.2
		c1,14,1.2,28.1,1.5,42.1c0,1,0.1,2,0,3c-5.7-1-13-2.1-22.6-3.2c-0.1-0.6-0.2-1.2-0.2-1.8c-0.4-4.8-0.8-9.7-1.1-14.5
		c-0.4-8.9-2-17.6-4.5-26.1c-2.8-9.6-7-18.5-13.4-26.3c-8.1-9.9-18.3-15.6-31.4-15.8c-6.8-0.1-13.5-0.1-20.3,0.3
		c-11.2,0.8-22.4,2-33.7,2.8c-13.5,0.9-26.9,3-40.2,5.5c-7.7,1.5-15.2,3.6-22.3,7c-12.9,6.2-21.4,15.6-23.1,30.4
		c-0.8,6.6-1.5,13.1-1.6,19.7c-0.1,6.4-0.1,12.8,0.6,19.2c0.5,5,0.7,6-5.2,6.3c-3.8,0.2-7.4,0.8-10.7,2c-1.9-1.5-3.7-2.6-5.3-3.5
		c-3.6-17.8-4.2-35.8-3.5-53.8c0.6-14.7,2.2-29.4,5.9-43.8c3.3-12.8,9.5-24.2,18.9-33.6c2.9-3,6-5.8,9.1-8.6
		c7.8-7,16.8-11.6,26.8-14.5c12-3.5,24.2-6.1,36.6-7.5c6.9-0.8,13.8-1.4,20.6-2.6c12.4-2.1,23.9-7,35.3-12.2
		c6.8-3.1,13.5-6.3,20.7-8.5c5.7-1.7,11.5-2.4,17.5-2c8.3,0.5,16.9,7.2,18,18.5c0.6,5.8-0.1,11.4-1.6,17c-1,3.7-2.1,7.3-3.1,11
		c-0.4,1.4,0.2,2.1,1.5,1.7c2.8-0.7,5.7-1.5,8.5-2.3c5-1.5,10.2-2.1,15.4-1.9c0.7,0,1.4,0,2.1,0.1c8.6,0.7,13.8,7.3,12.3,15.9
		c-0.8,5.1-2.9,9.6-6.1,13.6c-1.5,1.9-3.1,3.7-5.1,6c2.2,0.9,3.8,1.4,5.4,2.1c5.5,2.4,9.5,6.3,11.5,12.1
		C2149-977.6,2148.4-971.9,2144.7-966.7z"/>
	<path id="XMLID_94_" class="st3" d="M2018.2-570.7c-20-0.1-37.9-5.9-54.3-16.7c-15.3-10.1-27.4-23.3-37-38.9
		c-3.6-5.9-6.8-12.1-9.5-18.5c-0.3-0.8-0.9-1.6-0.5-2.5c0.1-0.3,0.4-0.6,0.7-0.7c0.3-0.1,0.7-0.1,0.9,0.1c1.4,0.9,1.7,2.6,2.3,4
		c3.9,8.7,8.6,17,14.3,24.7c11.6,15.9,25.8,28.5,43.7,36.8c13.8,6.4,28.2,9.5,43.4,8.7c19.5-1.1,36.8-7.9,52.2-19.7
		c16.6-12.8,28.4-29.2,36.8-48.3c0.6-1.4,0.9-3,2.1-4.1c0.4-0.4,0.9-0.4,1.4-0.1c0.2,0.2,0.5,0.6,0.5,0.8c-0.2,1-0.4,2-0.8,3
		c-6.4,15.2-15.1,28.9-26.7,40.6c-11.1,11.3-24,19.9-39,25.2C2038.8-572.5,2028.4-570.8,2018.2-570.7z"/>
	<path id="XMLID_91_" class="st3" d="M2130-540.7c10.6,0,21.2,0,31.7,0c6.7,0,5.9,0.7,5.3,6.1c-1.7,14.6-3.1,29.3-4.7,43.9
		c-0.2,1.5-0.5,3.1-0.9,4.6c-0.1,0.4-0.7,0.9-1.1,0.9c-0.9,0.1-1.2-0.7-1.2-1.3c0-1.6,0.1-3.1,0.2-4.7c1.1-10,2.2-20,3.3-30
		c0.2-2-0.3-2.6-2.2-2.5c-18.9,0.8-37.8,0.5-56.7,0.6c-2.4,0-4.9,0.2-7.3,0.3c-2.6,0.2-2.8,0.4-2.9,3.2c-0.7,10.7-1.3,21.5-2,32.2
		c-0.1,1.4,0.1,2.8-0.6,4.1c-0.1,0.2-0.6,0.4-0.9,0.4c-0.3,0-0.7-0.3-0.8-0.5c-0.2-0.8-0.4-1.7-0.4-2.5c0.6-11.9,1.3-23.9,2-35.8
		c0.2-3.8,0.4-7.6,0.6-11.4c0.1-1.4,0.1-2.8,0.3-4.1c0.4-2,1.1-2.6,3.2-2.7c5-0.1,10.1-0.1,15.1-0.2c6.6,0,13.2,0,19.8,0
		C2130-540.4,2130-540.5,2130-540.7z M2130.2-537.9c0,0,0,0.1,0,0.1c-10.7,0.3-21.5,0.5-32.2,0.8c-2.9,0.1-2.9,0.1-3.3,2.8
		c-0.2,1.4-0.4,2.7-0.5,4.1c-0.4,4.5-0.2,4.6,4.4,4.6c11.8,0,23.6,0.1,35.4-0.2c8.1-0.2,16.3,0.1,24.4-0.7c5.8-0.6,4.6,0.4,5.6-5.2
		c0.3-1.5,0.3-3.1,0.4-4.7c0.1-1-0.4-1.7-1.5-1.7c-1.2-0.1-2.4,0-3.6,0C2149.6-537.9,2139.9-537.9,2130.2-537.9z"/>
	<path id="XMLID_88_" class="st3" d="M1964.2-898.8c6.3-0.2,12.2,1,17.9,3.1c2.9,1.1,5.5,2.8,7.9,4.8c5.8,5,4.5,13.7-0.8,17.6
		c-3.3,2.4-7,4-10.9,4.6c-8.2,1.4-16.5,1.6-24.7-0.9c-2.8-0.9-5.5-2-7.9-3.8c-4.8-3.6-6.3-8.6-4.3-14.2c1.8-5.1,5.5-8.3,10.6-9.9
		C1956-898.7,1960.1-899,1964.2-898.8z M1987.1-889.5c-1,1-0.6,2.1-0.8,3.1c-1.4,7.2-5.4,12.2-12.4,14.7c-2.9,1-5.8,0.8-8.8,0.6
		c-9.3-0.7-16.1-7.6-16.6-16.9c-0.1-0.9,0-1.7-0.1-2.6c0-0.3-0.2-0.7-0.4-0.8c-0.6-0.3-1,0.1-1.3,0.4c-0.7,1-1.5,1.9-2,3
		c-2.7,5.2-1.5,9.8,3.3,13.1c2.5,1.7,5.3,2.6,8.1,3.4c6,1.7,12.1,1,18.1,0.8c4.7-0.2,9.2-1.8,13.1-4.5c2.6-1.8,3.9-4.5,3.8-7.6
		C1991.1-885.8,1989.6-888,1987.1-889.5z"/>
	<path id="XMLID_85_" class="st3" d="M2067.7-898.8c3.5-0.1,7.4,0.2,11.2,1.4c5.1,1.6,8.7,4.8,10.6,9.9c2.1,5.6,0.6,10.7-4.2,14.2
		c-2,1.5-4.1,2.5-6.4,3.3c-9.5,3.2-19,3-28.6,0.8c-2.9-0.7-5.5-2-8-3.7c-5.9-4-7.2-13.1-1-18.3c2.8-2.4,6-4.1,9.5-5.2
		C2056.1-898.2,2060.6-898.8,2067.7-898.8z M2045.4-890.3c-8.3,3.8-6.2,13.1-0.3,16c1.7,0.8,3.4,1.8,5.2,2.3
		c9.4,2.6,18.8,2.5,28.2-0.6c2-0.7,3.8-1.7,5.5-3c5.4-4.3,4.7-13.3-1.3-16.9c-0.1-0.1-0.4-0.1-0.5-0.1c-0.2,0.2-0.5,0.5-0.5,0.7
		c0.1,1,0.4,2,0.5,3.1c0.5,6.4-2.2,11-7.7,14.1c-4.8,2.7-9.9,3-15.1,2c-7.2-1.4-11.6-5.8-13-13.2
		C2046.1-887.3,2045.8-888.8,2045.4-890.3z"/>
	<path id="XMLID_84_" class="st3" d="M2064.1-912.8c-9.5,0.9-18.7,0.6-27.8,2.3c-2.7,0.5-4-0.5-4.4-3.1c-0.4-2.4-0.7-4.8-0.7-7.2
		c0.1-4,1.6-5.6,5.7-5.9c3.1-0.3,6.2-0.3,9.3-0.2c10.4,0,20.7,1.6,31,2.6c1.2,0.1,2.4,0.5,3.6,0.7c5.6,1.1,5.8,2.9,5.4,8.1
		c-0.2,2.2-1.5,3.4-3.8,3.5c-2.4,0.1-4.8-0.1-7.3-0.2c-2.6-0.1-5.2-0.4-7.8-0.5C2066.2-912.8,2065-912.8,2064.1-912.8z"/>
	<path id="XMLID_83_" class="st3" d="M1971.5-923.5c3.5,0,6.9-0.2,10.4,0c5.4,0.3,7.7,2.6,7.3,9.5c0,0.3-0.2,0.7-0.2,1
		c-1.2,5.7-2.5,6.5-8.2,5.8c-9.3-1.1-18.5-2.2-27.9-2.6c-3.1-0.1-6.2,0.6-9.3,0.8c-4.7,0.3-7.6-3.9-5.9-8.2c0.7-1.8,2.3-2.6,4-3
		c4-0.9,8.1-1.8,12.2-2.3C1959.8-923.2,1965.6-923.9,1971.5-923.5z"/>
	<path id="XMLID_82_" class="st3" d="M2013.2-813.2c4.4,0.2,8.6-1.1,12.5-3.1c3.1-1.6,4.9-3.8,4.5-7.5c-0.2-1.7-0.2-3.5-0.5-5.2
		c-1.8-10.2-3.7-20.5-5.5-30.7c-1.3-7.7-2.5-15.4-3.7-23.1c-0.1-0.8-0.1-1.7,0-2.6c0-0.2,0.4-0.5,0.7-0.6c0.3-0.1,0.7,0,0.9,0.2
		c0.8,0.8,0.8,1.9,0.9,2.9c1.3,7.7,2.6,15.4,3.9,23.1c1.6,9.2,3.3,18.4,4.9,27.7c0.4,2.6,0.9,5.1,1.1,7.7c0.4,4-1,7.2-4.4,9.4
		c-6.9,4.5-14.6,5.4-22.5,3.9c-3.1-0.6-5.2-2.6-6.5-5.5c-1.1-2.6-1.6-5.3-1.9-8.1c-1.1-12-0.5-23.9,1.3-35.8
		c0.9-6.3,1.9-12.7,2.9-19c0.3-1.7,0.5-3.4,1.4-4.9c0.1-0.2,0.6-0.3,0.9-0.4c0.7-0.1,0.9,0.5,1,1c0.1,1,0,2.1-0.1,3.1
		c-1.1,7.2-2.1,14.4-3.3,21.6c-1.7,10.5-2.3,21-1.5,31.6c0.2,2.6,0.6,5.2,1.2,7.7c1.1,4.4,3.1,6.1,7.6,6.6
		C2010.4-813.1,2011.8-813.2,2013.2-813.2z"/>
	<path id="XMLID_79_" class="st3" d="M2070-797.6c0.3,14.6-8.4,26-21.5,29c-11.7,2.7-23.9-2.5-29.4-12.5c-1-1.8-1.8-3.8-2.2-5.8
		c-0.3-1.4,0.5-2.5,2-2.3c12.2,1,21-5.8,29.5-13c3.8-3.2,5.8-7.7,7.6-12.3c1.1-2.7,2-5.5,3-8.3c0.3-0.9,0.9-1.6,1.8-1.6
		c0.9-0.1,1.6,0.6,2.1,1.3c0.4,0.6,0.7,1.2,1,1.8C2067.4-813.5,2069.6-805.4,2070-797.6z M2061.3-820.6c-1.2,3.1-2.1,5.1-2.9,7.2
		c-3,7.9-8,14.1-15.1,18.6c-2.1,1.3-4.1,2.5-6.2,3.7c-4.7,2.6-9.7,4.6-15.2,4.6c-1.6,0-1.8,0.5-1.3,1.9c2.1,5.2,5.7,9,10.8,11.4
		c16.9,7.9,35.6-3.7,35.9-22.2C2067.4-803.8,2065.1-811.8,2061.3-820.6z"/>
	<path id="XMLID_78_" class="st3" d="M2139.5-856.7c-0.3,4.9-2.6,9.5-7.5,12.7c-0.6,0.4-1.3,0.5-1.9,0.6c-0.3,0-0.7-0.2-0.8-0.5
		c-0.2-0.2-0.2-0.7-0.1-1c0.4-1.1,1.4-1.5,2.2-2.1c6.5-4.7,6.1-13.8,2.9-18.7c-2.4-3.7-5.7-6-9.8-7.3c-1.8-0.5-2.8-1.6-2.3-2.2
		c0.8-0.9,1.9-0.8,2.9-0.5C2133.1-873.8,2139.6-865.7,2139.5-856.7z"/>
	<path id="XMLID_77_" class="st3" d="M1913.1-875.8c0.4,0.3,0.8,0.6,1,1c0.3,0.5-0.1,1.1-0.6,1.3c-1.3,0.5-2.6,0.9-3.9,1.5
		c-5.7,2.4-10.2,8.2-9.9,15.1c0.2,3.7,1.5,6.7,4.1,9.2c0.6,0.6,1.4,1,2,1.6c1.2,1,1.6,2,0.9,2.5c-0.8,0.7-1.6,0.3-2.4-0.2
		c-5.5-3.4-8.2-8.6-7.7-14.9c0.7-9.2,7.2-14.9,14.1-16.8C1911.6-875.7,1912.3-875.7,1913.1-875.8z"/>
	<g id="XMLID_73_">
		<ellipse id="XMLID_75_" class="st1" cx="2086.8" cy="-848.1" rx="20.1" ry="14.6"/>
		<ellipse id="XMLID_74_" class="st1" cx="1945.2" cy="-848.1" rx="20.1" ry="14.6"/>
	</g>
</g>
</svg>
