<?xml version="1.0" encoding="utf-8"?>
<!-- Generator: Adobe Illustrator 19.0.0, SVG Export Plug-In . SVG Version: 6.00 Build 0)  -->
<svg version="1.1" xmlns="http://www.w3.org/2000/svg" xmlns:xlink="http://www.w3.org/1999/xlink" x="0px" y="0px"
	 viewBox="0 0 510 80" style="enable-background:new 0 0 510 80;" xml:space="preserve">
<style type="text/css">
	.st0{fill:#FFFFFF;}
	.st1{fill:#EBB0AE;}
	.st2{fill:#CB8481;}
	.st3{fill:#392E38;}
	.st4{opacity:0.5;fill:#4DFF55;stroke:#000000;stroke-width:1.0103;stroke-miterlimit:10;}
	.st5{opacity:0.5;fill:#FFFFFF;stroke:#000000;stroke-miterlimit:10;}
	.st6{opacity:0.5;fill:#FF4A4A;stroke:#000000;stroke-width:1.2216;stroke-miterlimit:10;}
	.st7{opacity:0.5;fill:#FF4A4A;stroke:#000000;stroke-width:1.0956;stroke-miterlimit:10;}
	.st8{opacity:0.5;fill:#4DFF55;stroke:#000000;stroke-width:1.0414;stroke-miterlimit:10;}
	.st9{opacity:0.4;fill:#202F43;}
	.st10{fill:#102B42;}
	.st11{fill:#589BD4;}
</style>
<g id="BACKGROUND">
</g>
<g id="Warstwa_3">
</g>
<g id="OBJECTS">
	<path id="XMLID_154_" class="st0" d="M-866.3,47.2c-2.4,0.9-4.8,1.9-7.3,2.8c-1.2,0.5-1.9-0.4-2.5-1.3c-0.6-0.9-0.3-1.7,0.5-2.3
		c3-2.1,6-4.1,9-6.2c0.3-0.2,0.7-0.2,1-0.3c0.3,0.2,0.6,0.3,0.8,0.6c0.2,0.3,0.4,0.6,0.5,0.9C-862.7,45.3-862.2,45.7-866.3,47.2z"/>
	<path id="XMLID_155_" class="st0" d="M-863.5,60.8c-1.5,5.6-4.3,10.6-8.1,15c-1.9,2.3-1.9,2.2-4.7,1.1c-1.4-0.6-2.9-1.2-4.4-1.5
		c-1.5-0.3-3.1-0.3-4.5,0.6c-0.6,0.4-1.2,1-1,1.7c0.2,0.7,1,1,1.7,0.7c2.3-1,4.4-0.3,6.5,0.5c1.5,0.6,1.6,1.5,0.2,2.6
		c-3.6,2.8-7.7,4.7-12.2,5.6c-2,0.4-3,1.1-3.2,3.2c-0.5,4.8-1.8,9.5-3.2,14.2c-5.8,20.1-14.8,38.5-28.5,54.5
		c-11.3,13.1-24.7,23.3-41.3,28.9c-6.1,2.1-12.4,3.1-18.8,4.1c-4.8,0.7-9.7,1.3-14.5,0.7c-9.9-1.2-19.3-4-28.2-8.6
		c-12.7-6.6-23.2-15.8-32.1-26.9c-11.3-13.9-19.2-29.7-24.7-46.7c-2-6.3-3.7-12.6-4.7-19.2c-0.3-1.9-1.2-2.9-3.3-3.3
		c-4.1-0.7-7.9-2.5-11.4-4.9c-2-1.5-2.1-2.5,0.1-3.9c1.3-0.8,2.8-1.4,4.2-2.1c0.6-0.3,1.3-0.5,1.9-0.9c0.4-0.3,0.7-0.8,0.3-1.4
		c-0.2-0.3-0.5-0.6-0.8-0.6c-0.7-0.1-1.4,0-2,0.1c-2.4,0.7-4.5,1.8-6.4,3.3c-2,1.5-2.1,1.5-3.7-0.4c-4.7-5.3-8-11.4-9.3-18.4
		c-1.1-5.7-1.1-11.4,1.4-16.9c3.5-7.7,9.3-11.9,17.9-11.9c2.6,0,5.2,0.1,7.7,1.1c0.8,0.3,1.6,0.5,2.5,0.8c0.7,0.2,1.5,0,1.8-0.6
		c0.1-0.3,0.2-0.5,0.1-0.8c0.8-0.1,1.2-0.8,1.3-2.3c0.4-3.8,1.5-7.5,2.9-11c3.3-8.2,8.3-15.2,14.3-21.5c5.4-5.7,11.6-10.5,17.8-15.2
		c6.2-4.8,12-10,17.4-15.7c7.3-7.8,13.6-16.2,16.8-26.6c0.1-0.4,0.5-1,0.9-1.1c0.3-0.1,0.9,0.4,1.1,0.7c2.7,3.9,6,7.2,9.5,10.3
		c8.2,7.4,17.6,12.9,27.6,17.5c10.2,4.8,20.9,8.6,31.4,12.5c5.7,2.1,11.3,4.4,16.7,7.2C-921.9-9.6-914-4-907.5,3.4
		c6.1,6.9,10.8,14.5,12.5,23.6c0.1,0.7,0.3,1.4,0.6,2c0.1,0.2,0.2,0.4,0.4,0.6c-0.3,0.4-0.3,0.8-0.1,1.2c0.8,1.1,1.9,0.6,2.8,0.2
		c3.6-1.4,7.4-1.7,11.3-1.4c4.9,0.4,8.9,2.5,12.2,6.2c0.7,0.7,0.7,1.6-0.2,2.2c-3.1,2.2-6.3,4.4-9.4,6.6c-1.2,0.8-2.2,0.5-3.4-0.1
		c-3.2-1.8-6.4-0.8-9.6-0.2c-0.5,0.1-0.8,0.6-0.8,1.2c0,0.6,0.4,0.9,1,0.9c2.1,0,4.2-0.1,6.2-0.1c0.9,0,2,0.2,2,1.2
		c0.1,2,1,2.7,2.9,2.7c0.7,0,1.1,0.8,0.7,1.6c-0.3,0.4-0.8,0.7-1,1.1c-0.5,0.9-0.5,1.9,0.6,2c1.7,0,2.1,0.8,2,2.3
		c-0.2,2.5-1.3,4.6-2.7,6.6c-0.9,1.3-1.9,2.5-2.7,3.8c-0.3,0.4-0.3,1,0.3,1.3c0.5,0.3,1,0.4,1.4,0c3.1-2.9,6.1-6.2,6-10.6
		c-0.1-4.4,1.8-6.2,5.6-7.2c1.5-0.4,2.9-1.2,4.4-1.7s2.2,0.1,2.3,1.8C-861.9,54.4-862.6,57.7-863.5,60.8z"/>
	<path id="XMLID_128_" class="st0" d="M-1713.9,253.6c-23.7,14.2-47.8,22.1-60.5,31.5c-5.2,1.4-10.5,2.5-15,5
		c-70,38.5-100.9,101.9-114,142c84.7,2.7,171.9,4.1,261.5,4c94.7-0.1,186.7-1.9,276-5c-7.7-23.3-25.3-65.5-64.5-104
		c-41.8-41-85.8-56.1-114.5-65.5C-1578.1,250.7-1649,214.8-1713.9,253.6z"/>
	<g id="XMLID_176_">
		<g id="XMLID_453_">
			<circle id="XMLID_455_" class="st1" cx="-1548.7" cy="-1562.2" r="20.1"/>
			<circle id="XMLID_454_" class="st1" cx="-1684.1" cy="-1562.2" r="20.1"/>
		</g>
		<g id="XMLID_177_">
			<path id="XMLID_452_" class="st2" d="M-1621-1686.3c-1.7,0.5-2.4,1.9-3.4,2.8c-5.2,4.6-11.1,6.8-18.2,5.8
				c-2.8-0.4-5.5-0.9-8.2-1.6c-2.5-0.7-2.5-0.7-3.9,1.7c-0.9,1.5-1.7,3-2.8,4.4c-4.5,5.8-11.1,7.8-18.1,5.6
				c-2.3-0.7-4.6-1.7-6.9-2.5c-1,1.3-1.1,2.9-1.4,4.3c-1.9,7.5-6.3,12.2-14.4,12.9c-2.4,0.2-4.8,0.5-7.2,0.8c-2,0.2-2.4,0.6-2,2.6
				c1.1,5.8,0.2,11.4-2,16.8c-1.8,4.5-4.4,8.3-8.6,10.8c-2,1.2-3.2,2.6-3.2,4.9c0,1.2-0.6,2.4-1.3,3.3c-1.6,2-3.2,3.2-6.2,2.5
				c-5-1.2-10-0.6-14.5,2.4c-5.1,3.5-8.4,8.3-9.4,14.4c-0.6,4.1-0.9,8.2-0.3,12.4c0.8,5.7,2.9,10.7,6.7,14.9c2,2.2,4,4.3,5.9,6.6
				c1.3,1.6,1.1,2.8-0.6,3.9c-1.9,1.3-4,2-6.3,2.3c-3.2,0.4-6.2,0-9.2-1.2c-6.5-2.5-9.9-8.2-9.4-15.2c0.2-2.4,2.3-4.9,0.8-6.9
				c-1.2-1.7-3.7-2.4-5.6-3.7c-7.8-5.4-13.6-12.2-16-21.7c-2.7-10.5,1.3-23.7,11.6-30c1.2-0.8,3.3-1.1,3.3-2.9
				c-0.1-1.2-1.2-2.4-2-3.6c-2.4-3.6-3.5-7.6-3.8-11.8c-0.5-6.7,0.5-13.2,4-19c3-5,7.4-8.2,13.2-9.2c2.8-0.5,2.9-0.6,2.4-3.6
				c-1.1-7-0.6-13.9,2.2-20.4c2.8-6.6,7.4-11.2,14.2-13.6c2.6-0.9,2.7-1,2-3.7c-2.6-10.5-0.4-20.1,5.9-28.6
				c7.3-9.9,17.3-15.5,29.5-16.5c6.4-0.5,12.4,1.4,17.6,5.3c1.4,1,2.7,2.1,4.1,3.2c0.4,0.3,1,0.3,1.3-0.2c0.6-1,1.2-2.1,1.8-3.2
				c2.7-4.5,6.2-8.4,10.8-11.1c8.6-5,17.4-5.4,26.4-1c4.9,2.4,9.3,5.4,13.6,8.7c0.8,0.6,1.4,1.5,2.7,1.7c1.2-1.5,2.5-3.2,3.8-4.8
				c2.8-3.6,6.3-6.4,10.3-8.6c4.4-2.4,9.1-3.3,14.1-3.1c7.5,0.4,13.2,3.9,17,10.3c1.8,3.1,3.3,6.5,5,9.7c1,2,1.1,2.1,3.1,1
				c9.1-4.8,18.9-6.8,29.2-6c17.7,1.3,28.4,13.9,31,25.2c0.7,3,0.9,6.2,1.3,9.3c0.4,2.8,0.4,2.9,3.4,3.4c4.3,0.7,8.5,1.5,12.7,2.8
				c5.9,1.8,11.2,4.7,15.6,9.1c6.8,6.7,10.1,14.8,9,24.5c-0.4,3.3-1.6,6.4-2.8,9.4c1.2,1.2,2.6,1.2,3.9,1.5
				c16.9,4.7,29.7,19.9,31,37.2c0.4,5.1-0.9,10-3.5,14.5c-2.1,3.8-4.5,7.4-7.4,10.7c-1.6,1.8-1.8,3.5-0.8,5.7
				c0.8,1.7,1.2,3.6,1.5,5.5c1.1,6.8-0.1,13-3.9,18.9c-3.6,5.6-8,10-14.1,12.7c-0.3,0.1-0.6,0.3-0.9,0.5c-2.6,0.9-4.2,2.5-5.1,5.3
				c-1.4,4.6-4.3,8.3-8,11.3c-3.4,2.8-7.2,4.8-11.5,5.8c-6.1,1.5-11.7,0.2-17-2.9c-2.1-1.3-2.1-3.2-0.1-4.5
				c11.2-7.1,15.6-17.7,15.5-30.5c-0.1-5.5-1.9-10.6-4.6-15.3c-1.7-2.9-4.2-5.1-7.3-6.4c-4.1-1.6-8.2-2.6-12.7-1.8
				c-4.7,0.8-7.6-0.7-9.7-5c-1.6-3.2-2.2-6.6-2.2-10.1c0-4.9,0.8-9.7,1.8-14.4c0.5-2,0.2-2.3-2-2.6c-1.7-0.2-3.4-0.5-5.2-0.6
				c-7.2-0.7-12.3-4.3-15.3-10.9c-1.1-2.4-1.1-2.4-3.9-1.8c-2.7,0.6-5.5,1-8.2,1.1c-3.5,0.1-6.9-0.6-10.1-2
				c-4.4-1.9-7.6-4.8-9.3-9.3c-0.3-0.8-0.7-1.6-1-2.4c-0.3-0.7-1-0.9-1.7-0.8c-1.7,0.4-3.4,0.8-5.1,1.2c-3.6,0.8-7.2,1.2-10.8,0.9
				c-7.7-0.6-13.4-4.3-17.1-11.1C-1619-1681.6-1619.9-1683.8-1621-1686.3z"/>
			<path id="XMLID_451_" class="st2" d="M-1617.6-1257.6c-34.2,0-68.4-0.1-102.6,0c-27.4,0.1-54.9,0.2-82.3,0.6
				c-16.8,0.3-33.6,1.1-50.5,1.8c-6.4,0.2-12.8,0.5-19.3,0.7c-2.9,0.1-3.4-0.5-2.7-3.4c0.9-3.7,2-7.4,3-11.1c0.3-1.1,1-1.8,2.2-1.9
				c0.7-0.1,1.4-0.1,2.1-0.1c9.4-0.4,18.7-0.7,28.1-1.2c28.4-1.6,56.9-2,85.3-2.5c28.5-0.4,56.9-0.3,85.4-0.4
				c21.4-0.1,42.7,0,64.1-0.3c15.3-0.2,30.5-1,45.8-1.6c11.1-0.4,22.2-0.9,33.3-1.2c24.8-0.8,49.6-1.5,74.4-2.3
				c12.1-0.4,24.3-0.7,36.4-0.9c15.6-0.3,31.2,0.2,46.8,0.9c3.3,0.1,3.4,0.1,4.3,3.3c1.2,4,2.2,8,3.2,12.1c0.5,1.9,0,2.5-2.1,2.4
				c-3,0-5.9-0.1-8.8-0.3c-14.2-0.8-28.5-0.9-42.7-0.7c-20.1,0.3-40.3,0.9-60.4,1.4c-11.1,0.3-22.2,0.5-33.3,1
				c-20.5,0.8-40.9,1.7-61.4,2.6c-2.9,0.1-5.9,0.2-8.8,0.3c-13.2,0.3-26.4,0.7-39.6,1C-1617.6-1257.4-1617.6-1257.5-1617.6-1257.6z"
				/>
			<path id="XMLID_450_" class="st2" d="M-1619-1288.5c-59.3,1.2-121.1,0.8-182.9,1.3c-19.1,0.2-38.2,0.5-57.3,0.8
				c-1.6,0-3.1,0-4.7-0.1c-0.5,0-0.8-0.5-0.8-1.1c0-0.3,0.2-0.7,0.3-1c2-3.8,4.1-7.7,6-11.5c0.9-1.8,2.2-2.5,4.1-2.5
				c3.1,0,6.2-0.3,9.4-0.3c38.7-0.6,77.4-1.4,116.1-1.6c29.3-0.2,58.7-0.7,88-1.1c19.6-0.3,39.2-0.4,58.8-0.9
				c18.7-0.4,37.5-1.3,56.2-1.8c23.4-0.6,46.9-1.3,70.3-0.9c24.1,0.4,48.3,0.8,72.4,1.2c2.4,0,4.9,0.2,7.3,0.3
				c1.1,0.1,1.9,0.6,2.4,1.7c1.9,4.5,3.7,9,5,13.7c0.4,1.3-0.2,2-1.5,2.1c-0.5,0-1,0-1.6,0c-18.4-0.3-36.8-0.3-55.2-0.8
				c-22.7-0.7-45.5-0.7-68.2-0.4c-16.8,0.2-33.7,1-50.5,1.5c-2.8,0.1-5.6,0.2-8.3,0.2C-1574.5-1289.3-1595.5-1288.2-1619-1288.5z"/>
			<path id="XMLID_449_" class="st2" d="M-1613.9-1325.9c-15.5,0-30.9-0.1-46.4,0c-21.9,0.2-43.7,0.6-65.6,1.1
				c-20.1,0.5-40.2,1.3-60.4,2c-17.3,0.6-34.7,1.3-52,1.8c-2.2,0.1-4.5,0.4-6.7-0.3c0-2.8,2.4-4,3.9-5.8c2.3-2.6,4.9-4.9,7.2-7.5
				c2-2.2,4.3-3.2,7.3-3.2c5.9-0.1,11.8-0.5,17.7-0.7c12.8-0.5,25.7-0.9,38.5-1.5c26.5-1.3,53.1-2.1,79.6-2.8
				c28.3-0.7,56.6-1.1,84.9-0.8c25.5,0.3,51,0.5,76.6,1c32.5,0.7,64.9,0.6,97.4,1c12,0.1,24,0.5,35.9,0.5c2.8,0,4.5,1,5.9,3.3
				c2.5,4.2,5.5,8,7.6,12.4c0.6,1.2,0.1,2-1.3,2c-4.2,0-8.3,0-12.5-0.1c-22.4-0.2-44.8-0.4-67.2-0.7c-39.4-0.5-78.8-0.9-118.2-1.4
				c-10.8-0.1-21.5-0.4-32.3-0.6C-1613.9-1325.9-1613.9-1325.9-1613.9-1325.9z"/>
			<path id="XMLID_448_" class="st2" d="M-1583.9-1362.7c0.7-1.4,2.1-1.4,3.1-1.8c3.7-1.6,7.4-2.9,11.1-4.5c5.1-2.2,10-4.9,14.2-8.6
				c2.4-2.1,4.9-2.8,8-2.8c20.1,0.1,40.3,0,60.4,0.2c18.2,0.1,36.4,0.6,54.7,0.7c2.8,0,5,0.8,7.1,2.5c4.9,4.1,9.9,8.2,14.8,12.3
				c0.7,0.5,1.3,1.2,1.8,1.9c0.3,0.4,0.4,1.1-0.4,1.1c-2.1,0.1-4.2,0.2-6.2,0.1c-23.1-0.3-46.2-0.7-69.3-1
				c-30.9-0.4-61.8-0.2-92.7,0.1C-1579.4-1362.3-1581.6-1362-1583.9-1362.7z"/>
			<path id="XMLID_447_" class="st2" d="M-1638.1-1362.1c-1.4,1.1-2.8,0.8-4.1,0.8c-16,0.2-31.9,0.6-47.9,0.6
				c-36.6,0.1-73.2,0.2-109.9,0.2c-1.4,0-2.8,0-4.2-0.1c-0.3,0-0.7-0.2-0.8-0.5c-0.1-0.3,0-0.8,0.2-0.9c1.5-1.2,3-2.3,4.6-3.4
				c5-3.5,10-6.8,15.5-9.6c3-1.5,6.1-2.3,9.5-2.3c12,0,23.9-0.2,35.9-0.3c20-0.2,39.9-0.4,59.9-0.7c3.1-0.1,5.5,0.8,8.1,2.6
				c7.5,5.2,15.9,8.4,24.7,10.8C-1643.8-1364-1641-1363.3-1638.1-1362.1z"/>
			<path id="XMLID_446_" class="st2" d="M-1529.4-1393.8c-2.2,0-4.4,0-6.7,0c-1.4,0-1.8-0.8-0.9-2c2.7-3.9,5.3-7.7,7.2-12
				c0.5-1.2,1.4-1.9,2.8-2c1.7-0.1,3.4-0.4,5.2-0.5c7.1-0.4,14.2-0.6,21.3-1.1c3.3-0.2,6.5,0.3,9.7,1.5c9.4,3.5,18.8,7.1,27.9,11.3
				c0.8,0.4,1.6,0.7,2.3,1.2c0.2,0.1,0.3,0.6,0.3,0.9c0,0.1-0.2,0.2-0.4,0.2c-0.9,0.1-1.7,0.2-2.6,0.2c-17.5,0.5-35,0.9-52.5,1.4
				C-1520.3-1394.4-1524.8-1394-1529.4-1393.8z"/>
			<path id="XMLID_445_" class="st2" d="M-1750.6-1389.8c0.5-1.6,1.8-1.7,2.9-2.1c5.8-2.3,11.6-4.5,17.4-6.8c4.6-1.9,9.2-4,13.7-6.2
				c2.1-1,4.1-1.7,6.4-1.6c2.8,0.2,5.7-0.5,8.2,0.4c2.4,0.8,2.9,4.1,4.5,6.1c2.2,2.7,4.3,5.4,6.4,8.2c0.6,0.8,0.2,1.7-0.9,1.8
				c-0.9,0.1-1.7,0.1-2.6,0.1c-10.7-0.7-21.5-0.2-32.2,0c-7.1,0.1-14.2,0.1-21.3,0.2C-1748.8-1389.7-1749.7-1389.8-1750.6-1389.8z"
				/>
			<path id="XMLID_444_" class="st2" d="M-1602.2-1394.8c0.6-1.3,1-2.6,1.7-3.7c2.4-3.9,7.2-4.9,10.9-2.4c3.5,2.4,4.3,7.1,1.9,10.6
				c-2.5,3.6-7.4,4.3-11,1.7c-1.1-0.8-1.5-2.3-2.9-2.8c-1.3,0.7-1.2,2.1-2,3c-2.9,3.7-8.1,4.3-11.4,1.2c-3.1-2.8-3.2-7.7-0.4-10.8
				c3.1-3.4,8.3-3.2,11.5,0.4C-1603.3-1396.8-1602.9-1395.8-1602.2-1394.8z"/>
			<path id="XMLID_443_" class="st2" d="M-1547.5-1411.3c-4.9,0.1-8.7-3.1-8.8-7.6c-0.2-4.4,3.4-8.2,7.7-8c5.1,0.3,8.6,3.9,8.6,8
				C-1540-1414.6-1543.1-1411.4-1547.5-1411.3z"/>
			<path id="XMLID_442_" class="st2" d="M-1569.9-1398.4c0.1,4.2-3.3,7.7-7.5,7.7c-4.1,0.1-7.7-3.4-7.8-7.5
				c-0.1-4.2,3.3-7.7,7.5-7.8C-1573.5-1405.9-1569.9-1402.5-1569.9-1398.4z"/>
			<path id="XMLID_441_" class="st2" d="M-1561.2-1399c-4.2-0.1-7.5-3.6-7.4-7.8c0.1-4.2,3.6-7.6,7.8-7.5c4.2,0.1,7.5,3.6,7.4,7.9
				C-1553.5-1402.2-1557-1398.9-1561.2-1399z"/>
			<path id="XMLID_440_" class="st2" d="M-1661.8-1412.6c4.1,0.4,7.2,4.2,6.9,8.2c-0.4,4.1-4,7.3-8.1,7c-4.1-0.3-7.4-3.9-7.2-8
				C-1670-1409.7-1666.1-1413-1661.8-1412.6z"/>
			<path id="XMLID_439_" class="st2" d="M-1620.3-1394c0,4.3-3.3,7.6-7.5,7.6c-4.3,0-7.6-3.3-7.6-7.5c0-4.3,3.2-7.6,7.5-7.7
				C-1623.7-1401.6-1620.3-1398.3-1620.3-1394z"/>
			<path id="XMLID_438_" class="st2" d="M-1679.8-1406.9c-4.3,0-7.6-3.4-7.5-7.6c0-4.2,3.5-7.6,7.7-7.5c4.3,0,7.6,3.4,7.6,7.6
				C-1672.1-1410.2-1675.5-1406.9-1679.8-1406.9z"/>
			<path id="XMLID_437_" class="st2" d="M-1644.5-1389.5c-4.3,0-7.5-3.3-7.5-7.6c0-4.3,3.3-7.5,7.6-7.5c4.3,0,7.5,3.3,7.5,7.6
				C-1636.9-1392.7-1640.2-1389.4-1644.5-1389.5z"/>
			<path id="XMLID_206_" class="st3" d="M-1669.3-1586.5c-6.1,0.2-11.1-0.7-15.9-2.2c-2.8-0.9-5.5-2.2-7.7-4.1
				c-4.1-3.4-5.3-8-3.6-13.1c2-6.2,6.6-9.6,12.7-11c9.7-2.2,19.3-1.1,28.5,2.5c2.9,1.1,5.5,2.9,7.8,5c5.1,4.7,4.2,13-0.7,17
				c-3.2,2.5-6.9,4-10.8,4.9C-1662.8-1586.7-1666.6-1586.5-1669.3-1586.5z M-1687.4-1613c-5.1,3.3-7.5,7.1-7.1,12.1
				c0.3,4.1,3,6.6,7.4,8.3C-1689.8-1599.3-1689.4-1605.7-1687.4-1613z M-1646.7-1601c0-3.3-1.7-5.7-4.1-7.5
				c-0.7-0.5-1.8-1.3-2.2-1.1c-1.1,0.6-0.4,1.8-0.2,2.7c0.5,1.7,0.4,3.4,0.5,5.1c0.2,2.6-0.5,5.1-0.9,7.7c-0.1,0.8,0.6,1.4,1.2,1.1
				C-1648.8-1594.7-1647.1-1597.5-1646.7-1601z"/>
			<path id="XMLID_202_" class="st3" d="M-1575.6-1583.4c-4.4-0.1-9.2-0.4-13.8-2.1c-2.3-0.8-4.5-1.9-6.5-3.3
				c-5.8-4.1-6.8-12.9-0.9-18c3-2.5,6.3-4.4,9.9-5.5c8.4-2.5,16.9-3.5,25.6-1.5c6.3,1.4,11.1,4.7,13.1,11.2c1.6,5.1,0.3,9.6-3.8,13
				c-2.3,1.9-4.9,3.2-7.8,4.1C-1564.7-1584-1569.8-1583.1-1575.6-1583.4z M-1589.7-1607.8c-2.2,0.4-3.9,1.9-5.4,3.4
				c-4,4-3.8,9.5,0.6,13.1c1.6,1.3,3.5,2.2,5.4,2.9c0.4,0.2,1,0.3,1.4,0.1c0.6-0.3,0.2-0.9-0.1-1.3c-2.8-4.7-3-9.8-2.2-15
				C-1589.9-1605.6-1589.1-1606.5-1589.7-1607.8z M-1557.5-1589.4c4.7-2.1,7.3-4.9,7.3-9.4c0-2.3-0.8-4.4-2-6.3
				c-1.1-1.7-2.3-3.3-4.8-4.1C-1554.9-1602.5-1554.3-1596.3-1557.5-1589.4z"/>
			<path id="XMLID_197_" class="st3" d="M-1617.9-1244.4c-32.8,0.3-65.6,0.4-98.4,1.1c-27.1,0.6-54.2,0.4-81.2,1
				c-23.8,0.5-47.6,0.6-71.3,0.9c-1.6,0-3.1,0-4.7,0c-2.4-0.1-3.2-0.7-3.4-3c-0.3-3.8-0.1-7.6,0.6-11.4c1.1-6.2,3-12.2,5.2-18
				c3.8-9.9,8.3-19.5,13.3-28.8c9.2-17,21.5-31.5,35.3-44.8c5.8-5.5,11.6-11,18-15.8c8.1-6,16.6-11.3,25.7-15.8
				c21.9-11,44.6-20.1,67.6-28.3c15.9-5.7,26.6-16.6,30.7-33.4c1.5-6.3,2.6-12.6,2.5-19c-0.1-3.4-0.1-3.5-3.1-4.5
				c-9.2-3-16.5-8.7-22.4-16.3c-7.4-9.6-12.5-20.3-15-32.3c-2.3-11.1-3.7-22.2-5-33.4c-0.3-2.6-0.5-3-2.9-3.5
				c-15.1-3.3-29.9-20.9-28.7-40c0.2-3.3,0.9-6.5,2.2-9.6c6.2-14.2,20.8-15.9,31-11.6c0.5,0.2,0.9,0.6,1.2,0.9
				c0.2,0.2,0.3,0.7,0.2,1c-0.1,0.3-0.4,0.6-0.7,0.7c-1.3,0.3-2.4-0.3-3.5-0.7c-3.5-1.1-7.1-1.7-10.8-1c-7.2,1.4-12.3,5.5-15,12.3
				c-2.1,5.3-2.4,10.8-1.2,16.4c2.3,10.5,7.8,18.8,16.7,24.8c3.3,2.3,7,3.8,11,4.4c2.5,0.4,2.8,0.8,2.9,3.4
				c0.6,9.7,2.2,19.3,3.8,28.9c1.5,9.1,3.8,18,8.3,26.2c3.1,5.7,6.7,11,11.1,15.7c6.5,6.9,14.3,11.6,23.9,12.4
				c1.3,0.1,2.4,0.3,3.3,1.3c6.6,7,15.3,10,24.3,12.2c9.1,2.2,18.4,3.5,27.8,3.2c19.2-0.5,36.9-5.9,53.2-15.9
				c1.8-1.1,3.6-1.9,5.8-2.2c3.1-0.4,6.1-1.4,9-2.6c7.5-3.3,12.8-8.8,16.5-16c3.2-6.2,5.3-12.8,7.2-19.5c1.8-6.2,2.5-12.6,2.9-19
				c0.3-6.2,0.3-12.5,0.3-18.7c0-2.6-0.1-5.2-1.1-7.7c-0.6-1.3,0.2-2.3,1.7-2.6c16-3.4,24.4-14.3,28.2-29.4
				c1.2-4.7,0.9-9.6-0.6-14.4c-3.3-10.6-12.8-16.1-23.6-13.7c-2,0.4-4,1-6.1,1.4c-0.3,0.1-1.1-0.4-1.1-0.8c-0.1-0.4,0.3-0.9,0.5-1.3
				c0.2-0.3,0.6-0.4,0.9-0.5c12.8-5.2,28.4-0.8,32.6,16c1.4,5.7,1.1,11.4-0.6,17c-4.1,13.7-12.5,23.4-26.3,28
				c-2.3,0.8-2.5,0.8-2.2,3.3c1,8.7,0.4,17.3-0.1,26c-0.8,13-4.4,25.2-10.1,36.9c-4.5,9.2-11.5,15.5-21.2,18.9
				c-0.7,0.2-1.3,0.4-2,0.6c-1.1,0.4-1.8,1-1.9,2.2c-0.6,7.5-0.3,14.9,2.1,22.1c1.5,4.5,4.2,8.4,7.8,11.5
				c5.4,4.7,11.5,8.4,18.5,10.2c10.1,2.6,20.2,4.9,30.2,7.8c19.8,5.6,38.7,13.2,56.6,23.4c31,17.6,53.2,42.9,66.8,75.9
				c6.2,15,10.8,30.4,14.5,46.1c1,4.4,2,8.8,2.8,13.2c0.7,3.5-0.4,4.8-4.1,5c-6.2,0.2-12.5,0.2-18.7,0.3
				c-24.1,0.3-48.3,0.6-72.4,0.9c-24.6,0.3-49.3,0.6-74,0.9c-16.1,0.2-32.3,0.6-48.4,0.8c-14.4,0.1-28.8,0-43.2,0
				C-1617.9-1244.8-1617.9-1244.6-1617.9-1244.4z M-1483.2-1249.1C-1483.2-1249.1-1483.2-1249.1-1483.2-1249.1
				c2.4,0.1,4.9,0.1,7.3,0.1c21.2-0.3,42.3-0.6,63.5-0.9c16.1-0.2,32.3-0.4,48.4-0.7c3.8-0.1,4.2-0.6,3.6-4.3
				c-0.1-0.3-0.1-0.7-0.2-1c-4.4-20-9.8-39.7-18-58.6c-12.8-29.4-32.9-52.3-60.3-69c-15.1-9.2-31.2-15.9-47.7-21.7
				c-12.1-4.3-24.7-7-37.1-10c-1-0.2-1.7,0.1-2,1.1c-0.4,1.1-0.8,2.3-1.2,3.4c-2.5,6.7-5.8,13-10.1,18.7
				c-10.8,14.3-25,23.8-41.9,29.6c-8.7,3-17.7,4.8-27,5.3c-2.8,0.2-3,0.3-3,3.1c0,5.6,0.1,11.1,0.3,16.7c0.6,19.8,1.2,39.5,1.8,59.3
				c0.3,8.8,0.6,17.7,0.9,26.5c0,0.7,0.1,1.4,0.1,2.1c0.1,1.2,0.8,1.9,2,1.9c2.1,0.1,4.2,0.1,6.2,0c5.2-0.1,10.4-0.3,15.6-0.3
				c9.4-0.1,18.7-0.1,28.1-0.2C-1530.3-1248.4-1506.7-1248.8-1483.2-1249.1z M-1741.6-1245.8c1.5,0,4.1,0,6.7,0
				c26.5-0.3,53.1-0.7,79.6-1c13.4-0.2,26.7-0.2,40.1-0.4c7.2-0.1,6.2-0.1,6.1-6.4c-0.2-10.8-0.7-21.5-1-32.3
				c-0.5-20.3-0.9-40.6-1.4-60.9c-0.1-2.6-0.2-5.2-0.4-7.8c-0.1-1.8-0.7-2.3-2.7-2.4c-0.7,0-1.4,0-2.1,0c-10.7-0.3-21-2.1-31.1-5.4
				c-23-7.6-41.8-20.8-55-41.4c-0.4-0.6-0.7-1.2-1.2-1.7c-0.5-0.6-1.1-0.8-1.8-0.6c-0.8,0.2-1.7,0.5-2.5,0.8
				c-21.9,7.4-43.3,16-64,26.2c-9.2,4.5-18.2,9.2-26.6,15.2c-14.1,10.1-26.1,22.3-37.5,35.2c-6.7,7.6-12.4,15.8-17.4,24.6
				c-5.5,9.5-10,19.4-14.1,29.5c-3.1,7.6-5.7,15.3-6.4,23.5c-0.7,7.9-0.7,7.2,6.1,7.1c16.3-0.2,32.6-0.5,48.9-0.7
				c7.3-0.1,14.6-0.1,21.9-0.2C-1779.2-1245.2-1761-1245.5-1741.6-1245.8z M-1613.1-1359.7c6.5,0.1,12.8-0.7,19.1-1.8
				c14.2-2.6,27.3-7.9,38.9-16.6c11.7-8.7,20.4-19.7,25.4-33.5c0.4-1.1,0.8-2.3,1.1-3.5c0.2-0.7,0-1.3-0.9-1.6
				c-0.5-0.2-1-0.4-1.5-0.5c-8.7-3.1-16.2-7.8-21.9-15.2c-0.8-1.1-1.7-1.6-3.1-1.2c-1.3,0.4-2.7,0.5-4.1,0.9
				c-6.4,1.7-13,2.2-19.6,2.4c-15.3,0.5-30.4-1.3-45.3-5c-16-3.9-30.1-11.2-42.4-22.3c-1.4-1.3-2.8-2.6-4.3-3.8
				c-0.7-0.5-1.4-1-2.2-1.2c-0.7-0.2-1.5,0-1.6,0.8c-0.1,1-0.1,2.1-0.1,3.1c0,7.3-1.2,14.5-3.3,21.5c-2.5,8.3-6.7,15.6-13.1,21.5
				c-2.4,2.2-5.2,4-8,5.8c-2,1.3-2.1,1.6-0.8,3.7c4.6,7.7,10.3,14.4,17,20.2C-1663.5-1368.3-1639.7-1360.2-1613.1-1359.7z"/>
			<path id="XMLID_193_" class="st3" d="M-1708-1614.9c0.1-22.4,18.5-40,40.9-38.2c21.2,1.7,32.3,17.7,34.4,31.1
				c0.1,0.5,0.2,1,0.2,1.5c0.3,2.4,0.6,4.8,0.9,7.2c2.4,1.1,4.6-0.7,7-0.6c3.3,0.2,6.6,0.4,9.8,1.3c2.7,0.7,2.8,0.7,3.1-2.1
				c0.5-4.5,1.6-8.9,3.7-12.9c5.9-11.4,15.1-18.2,27.7-20.6c18.2-3.6,39.6,8.9,43.6,30.9c3.2,18-8.3,39.8-31.2,43.8
				c-18.8,3.3-39.9-9.3-43.3-31.1c-0.5-3.1-1.9-4.7-4.7-5.4c-4.8-1.3-9.6-1.7-14.3,0.1c-1.4,0.5-2.4,1.3-2.7,2.8c-0.5,2-1,4-1.9,5.9
				c-6.4,15.1-18,23.4-34.1,23.9c-20.7,0.7-35-14-38.3-30.3C-1707.7-1610.2-1708.2-1612.7-1708-1614.9z M-1705-1615.6
				c-0.5,20.8,17.5,35.3,34.7,35.4c19.7,0.1,35.3-16.6,35.4-34.8c0.1-18.7-15.5-35.3-34.8-35.4
				C-1689.6-1650.5-1705.5-1633.8-1705-1615.6z M-1539.2-1610.8c0.7-19.7-16.6-35.2-34.8-35.3c-17.3,0-35.1,14-35.1,35.1
				c0,20.6,17.2,34.8,34.6,35C-1554.6-1575.9-1538.6-1592.5-1539.2-1610.8z"/>
			<path id="XMLID_192_" class="st3" d="M-1601.6-1568.7c0.1,6.6-3.2,11.5-9,13.8c-5.3,2-10.8,2.3-16.3,0.4
				c-0.6-0.2-1.2-0.7-1.7-1.2c-0.2-0.2-0.2-0.7-0.2-0.9c0.1-0.3,0.5-0.7,0.7-0.7c0.8,0,1.7,0.2,2.5,0.4c3.4,0.9,6.9,0.9,10.3,0.4
				c5.2-0.8,9-3.3,10.6-8.7c0.6-2.1,0.5-4.1,0-6.1c-0.9-3.7-2.3-7.3-4-10.7c-2.4-4.6-4.9-9.2-7.4-13.7c-0.4-0.8-0.8-1.5-1-2.3
				c-0.1-0.2,0.2-0.7,0.5-0.8c0.2-0.2,0.7-0.2,0.9-0.1c1,0.4,1.5,1.4,2.1,2.2c4.1,6.8,7.9,13.8,10.6,21.4
				C-1602.2-1573.1-1601.5-1570.8-1601.6-1568.7z"/>
			<path id="XMLID_191_" class="st3" d="M-1614.3-1508.4c-3.5,0.4-7.2-0.5-11-1.2c-4.7-0.9-8.7-3.3-12.2-6.6
				c-0.5-0.5-0.9-1.2-0.4-1.8c0.4-0.7,1.1-0.6,1.8-0.2c0.2,0.1,0.3,0.2,0.4,0.3c7,6.3,15.6,7,24.4,6.8c8-0.2,14.8-3.4,20.6-8.7
				c1-0.9,1.8-2.2,3.3-2.5c0.3-0.1,0.7,0.1,0.9,0.3c0.2,0.2,0.4,0.7,0.3,0.9c-0.4,0.7-0.9,1.5-1.5,2.1
				C-1595-1511.9-1603.6-1508.1-1614.3-1508.4z"/>
			<path id="XMLID_190_" class="st3" d="M-1738.2-1584.5c-0.3,2.5,0.5,4.8,2,6.8c0.8,1.1,1.6,2.2,2.5,3.4c0.6,0.8,1.5,1.8,0.3,2.7
				c-0.8,0.6-1.6-0.2-2.2-0.9c-4.1-4.4-6.7-9.4-4.9-15.6c2.2-7.6,8-10.7,15.7-8.3c0.7,0.2,1.2,0.9,0.8,1.6c-0.2,0.4-0.8,0.7-1.3,0.7
				c-1,0-2.1-0.3-3.1-0.4c-5.3-0.4-9.4,3.1-9.9,8.4C-1738.3-1585.6-1738.2-1585-1738.2-1584.5z"/>
			<path id="XMLID_189_" class="st3" d="M-1517.1-1597.2c4.7,0,9.2,3.8,10.4,8.7c1.1,4.2,0.6,8.3-1.9,12c-1.1,1.7-2.3,3.5-4,4.7
				c-0.4,0.3-1,0.4-1.4,0c-0.4-0.4-0.5-1-0.2-1.4c0.9-1.3,1.8-2.5,2.7-3.8c2-2.6,2.7-5.5,2.5-8.8c-0.4-5.6-4.5-9.2-10.1-8.7
				c-1,0.1-2.1,0.3-3.1,0.4c-0.6,0-0.9-0.4-1.1-0.9c-0.3-0.6,0.2-1,0.6-1.3c1-0.8,2.3-0.7,3.5-0.8
				C-1518.5-1597.1-1517.8-1597.1-1517.1-1597.2z"/>
			<path id="XMLID_188_" class="st3" d="M-1659.6-1526.9c-0.5-0.3-1.1-0.5-1.2-0.8c-0.1-0.4,0.2-1.1,0.6-1.3
				c0.9-0.5,1.9-0.8,2.9-1.2c7.6-2.9,14.2-7.1,18.5-14.3c0.2-0.3,0.4-0.5,0.7-0.8c0.5-0.4,1-0.3,1.4,0.1c0.2,0.2,0.5,0.7,0.4,0.9
				c-0.3,1-0.7,2-1.3,2.8c-2.1,3.2-4.9,5.8-8,8.1c-3.5,2.6-7.4,4.5-11.5,6C-1657.8-1527.1-1658.7-1527-1659.6-1526.9z"/>
			<path id="XMLID_187_" class="st3" d="M-1585.9-1543.5c0.4,0.1,0.8,0,1,0.2c0.5,0.5,0.9,1,1.3,1.6c3.2,4.9,7.5,8.5,12.7,11.2
				c2.2,1.1,4.3,2.2,6.5,3.3c0.5,0.2,0.8,0.7,0.7,1.2c-0.2,0.9-0.9,0.9-1.6,0.9c-0.3,0-0.7,0-1-0.2c-6.9-3.3-13.6-6.8-18.2-13.3
				c-0.8-1.1-1.8-2.2-1.9-3.6C-1586.4-1542.5-1586-1543-1585.9-1543.5z"/>
			<path id="XMLID_186_" class="st3" d="M-1610.8-1502.5c-2.7-0.2-5.3,0.3-7.8-0.5c-0.5-0.2-0.8-0.6-0.6-1.2
				c0.1-0.3,0.4-0.7,0.6-0.7c0.8-0.2,1.7-0.3,2.5-0.4c5-0.1,10,0.3,15-0.8c0.4-0.1,1.1,0.3,1.2,0.7c0.4,0.7-0.1,1.4-0.8,1.6
				c-1.1,0.4-2.3,0.7-3.5,0.8C-1606.4-1502.8-1608.7-1502.7-1610.8-1502.5z"/>
			<path id="XMLID_183_" class="st3" d="M-1630.6-1280.3c3.9-0.8,8.2,3.9,8.2,9.9c0,5-3,8.3-8.3,8.7c-5,0.5-9.7-4.3-9.6-9.5
				C-1640.2-1275.8-1636.7-1280.4-1630.6-1280.3z M-1631.2-1264.4c3.7,0.1,6.2-2.3,6.2-6.1c0-3.8-2.5-7.2-5.3-7.2
				c-4.3,0-7.1,2.5-7.2,6.5C-1637.6-1267.4-1634.9-1264.5-1631.2-1264.4z"/>
			<path id="XMLID_180_" class="st3" d="M-1621.6-1340c0,4.7-3.9,8.6-8.5,8.7c-4.6,0.1-9-3.8-9.1-8.2c-0.1-4.7,3.6-8.4,8.6-8.4
				C-1625.4-1348-1621.6-1344.6-1621.6-1340z M-1630.4-1334.1c3.3,0.1,6-2.4,6.2-5.7c0.2-2.8-2.8-5.4-6.4-5.4
				c-3.4,0-5.7,2.1-5.9,5.3C-1636.5-1336.8-1633.8-1334.2-1630.4-1334.1z"/>
			<path id="XMLID_179_" class="st3" d="M-1683.5-1623c-3.5,0.1-5.7-0.2-6.8-2.7c-0.9-2.1,0-4.5,2.4-6.3c4.6-3.3,9.9-4.8,15.6-4.8
				c1,0,2,0.3,2.9,0.9c1.7,1.1,2.2,2.7,1.1,4.5c-0.4,0.7-1,1.5-1.6,2.1C-1673.9-1625.4-1679-1623.4-1683.5-1623z"/>
			<path id="XMLID_178_" class="st3" d="M-1575.3-1636.9c4.1,0.5,8.8,1.6,13,4.3c1.3,0.9,2.4,2,3.1,3.4c1.2,2.6-0.2,5.4-3,6.1
				c-0.5,0.1-1,0.2-1.6,0.2c-6.3-0.1-11.8-2.3-16.3-6.9c-0.5-0.5-0.9-1.1-1.2-1.7c-1-1.8-0.5-3.3,1.2-4.4
				C-1578.8-1636.8-1577.4-1636.9-1575.3-1636.9z"/>
		</g>
	</g>
	<path id="XMLID_111_" class="st2" d="M-1438.5,436.8c-1.4,0.1-2.8,0.1-4.2,0.1h-192.8v0.5c-63.7,0.2-127.5,0.4-191.2,0.6
		c-1.7,0-3.5,0-5.2-0.1c-1.5-0.1-2.2-1.3-1.6-2.5c0.8-1.5,1.7-3,2.6-4.5c9.5-16,18.4-32.2,25.4-49.5c6.5-16,11.8-32.3,15.3-49.1
		c1.4-6.6,3.1-13.2,4.3-19.8c1.2-7.2,2-14.4,2.9-21.6c0.1-0.9,0.2-1.7,0.3-2.6c0.3-2.9,1.8-4.7,4.7-5.5c10-2.6,19.1-7.3,28.2-12
		c2-1,4-2.1,6.1-3c2.8-1.2,4.4-0.3,4.9,2.5c0.4,2.2,0.6,4.5,0.9,6.7c3.4,26.5,11.6,51.4,25.4,74.3c3.8,6.3,8.1,12,13.5,17.1
		c6.3,6,13.9,9.8,21.9,12.8c5.5,2.1,11,3.9,16.7,5.3c1.4,0.3,2.8,0.7,4.1,1c0.4,0.1,0.7,0.2,1.1,0.3c9.4,2.1,18.9,2.5,28.5,2.2
		c11.3-0.3,22.1-2.9,32.6-7c0.6-0.2,1.2-0.5,1.8-0.7c0.8-0.3,1.6-0.7,2.4-1.1c9.4-4.4,16.9-11.3,23.3-19.5
		c11.5-14.8,19.6-31.5,25.6-49.2c4.6-13.7,7.5-27.8,9.2-42.1c0.7-5.7,1.8-6.4,6.9-3.9c3.8,1.8,7.4,3.7,11.1,5.7
		c6.6,3.5,13.5,6.4,20.7,8.3c3.6,1,5.1,3,5.4,6.6c0.8,7.2,1.7,14.5,2.7,21.7c1.4,9.5,4,18.7,6.1,27.9c6.5,28.5,17.8,55.1,32.3,80.4
		c2.6,4.5,5.3,9,7.9,13.5c0.7,1.2,1.6,2.3,1.8,3.7C-1436.5,435.5-1437.2,436.7-1438.5,436.8z"/>
	<path id="XMLID_108_" class="st3" d="M-1398.9,434.8c-9.9,1.3-19.8,1-29.6,1.5c-1,0.1-2.1,0.2-3-0.4c-0.3-0.2-0.5-0.6-0.5-0.8
		c0-0.3,0.3-0.6,0.5-0.8c0.7-0.6,1.6-0.5,2.5-0.5c12-0.4,23.9-0.9,35.9-1.3c7.6-0.3,15.3-0.6,22.9-0.9c0.7,0,1.4-0.1,2.1-0.2
		c0.8-0.2,1.2-0.8,1.1-1.5c-0.4-2-0.8-4.1-1.5-6c-3.9-10.6-8.6-20.8-13.6-30.9c-10.3-20.5-23.8-38.6-39.5-55.3
		c-17.8-18.8-38.1-34.4-59.8-48.4c-0.7-0.5-1.5-0.9-2.1-1.5c-0.3-0.3-0.6-1-0.4-1.3c0.2-0.3,0.9-0.7,1.3-0.6
		c1.1,0.4,2.2,0.9,3.2,1.6c3.7,2.3,7.4,4.6,10.9,7.2c12.4,9,24.8,17.8,35.9,28.4c13,12.3,25.2,25.4,35.6,40
		c5.1,7.1,9.7,14.4,13.8,22.1c6.2,11.5,11.9,23.2,16.4,35.4c1.3,3.4,2.4,6.9,2.5,10.6c0,2.1-0.6,2.9-2.7,3c-5,0.3-10,0.7-15.1,0.8
		C-1387.8,434.9-1393.3,434.8-1398.9,434.8z"/>
	<path id="XMLID_107_" class="st3" d="M-1866.3,436.6c-13.4-0.6-23.1-1-32.8-1.4c-0.5,0-1,0-1.6,0c-3.5-0.2-4.3-1.1-3.5-4.7
		c0.6-2.9,1.3-5.8,2.3-8.5c4.7-13.1,10.8-25.5,17.5-37.7c9.6-17.4,21.8-32.9,35.5-47.4c17.3-18.3,37.1-33.5,58-47.3
		c1.6-1,3.1-2.2,5-2.7c0.6-0.2,1,0.2,1.2,0.7c0.1,0.3,0,0.8-0.2,0.9c-1.1,0.9-2.2,1.7-3.3,2.4c-14.7,9.3-28.7,19.6-41.6,31.2
		c-24.9,22.2-45.6,47.6-59.7,78c-3.7,8-7.1,16.2-10.5,24.4c-0.1,0.3-0.2,0.7-0.3,1c-2.4,7.7-1.2,7,5,7.2c14.9,0.5,29.8,1.2,44.7,1.7
		c3.6,0.1,7.3,0.2,10.9,0.4c0.8,0,1.7,0.3,2.5,0.5c0.2,0.1,0.4,0.6,0.3,0.9c0,0.3-0.2,0.7-0.5,0.8c-0.9,0.6-2,0.4-3,0.4
		C-1850.3,436.9-1860.2,437.2-1866.3,436.6z"/>
	<path id="XMLID_106_" class="st3" d="M-1627.5,326.5c-1.8,0-3.2-1.7-3.3-3.8c0-2.4,1.6-4,3.7-3.9c1.7,0.1,2.9,1.5,3,3.5
		C-1624.1,324.6-1625.6,326.5-1627.5,326.5z"/>
	<g id="XMLID_72_">
		<g id="XMLID_76_">
			<path id="XMLID_98_" class="st2" d="M-2315.3-1243c-19.3,0-38.5,0.1-57.8,0c-31.4-0.1-62.8-0.4-94.3-0.5
				c-39.4-0.2-78.8-0.3-118.2-0.5c-2.9,0-5.9-0.2-8.8-0.3c-2.7-0.1-2.9-0.5-2.6-3.1c0.3-3.5,1.5-6.8,2.8-10
				c4.1-10,8.7-19.6,13.6-29.2c5-9.7,9.7-19.6,14.1-29.6c8.2-18.4,19.1-35,32.9-49.7c6.6-7,14.2-12.7,22.7-17.3
				c7.3-4,14.9-7.5,22.6-10.5c18.9-7.3,37.9-14.6,57-21.4c13.7-4.8,27.5-9.7,41.2-14.6c0.5-0.2,1-0.4,1.5-0.5c3.1-0.9,4-0.3,4.8,2.8
				c1,3.7,1.7,7.5,3,11c8.6,23.6,24.6,39.6,49.2,46c18.8,4.9,36.9,2,53.8-7.4c18.9-10.4,31.7-26.1,39.3-46.2
				c2.2-5.9,1.6-5.8,7.6-3.6c27.5,10.2,55.2,19.9,82.4,30.7c8.9,3.5,17.6,7.3,26.2,11.5c15.4,7.5,29.5,17,40.7,30.2
				c8.8,10.4,16.5,21.5,22.6,33.6c4.7,9.1,8.5,18.6,11.8,28.3c5.1,14.8,10,29.6,13.5,44.8c0.2,0.7,0.4,1.3,0.5,2
				c0.8,3.4-1.1,5.3-4,5c-0.9-0.1-1.7,0-2.6,0c-27.1-0.1-54.2-0.1-81.3-0.2c-12.8,0-25.7-0.2-38.5-0.2c-35.9-0.2-71.9-0.4-107.8-0.5
				c-16-0.1-31.9,0-47.9,0C-2315.3-1242.7-2315.3-1242.9-2315.3-1243z"/>
			<path id="XMLID_95_" class="st3" d="M-2198.7-1757.6c2.2,0.9,3.8,1.4,5.4,2.1c5.5,2.4,9.5,6.3,11.5,12.1c2,6,1.4,11.6-2.3,16.8
				c-1,1.4-2,2.9-3.3,4c-5.9,5.1-7.6,11.8-7.7,19.2c-0.1,2.1,0,4.2,0.1,6.2c1,14,1.2,28.1,1.5,42.1c0,1.6,0.1,3.1,0,4.7
				c-0.1,1.9,0.6,3.2,2.3,4.2c2.1,1.2,4.1,2.7,5.9,4.3c15.5,14.1,14.4,37.1-2.3,49.8c-5.8,4.4-12.5,6.8-19.6,7.6
				c-2.5,0.3-2.8,1-2.7,3.3c0.4,6.6,0.6,13.2,0.2,19.8c-1.2,21.1-7.1,40.6-20.3,57.5c-2,2.6-4.3,5-6.6,7.4c-1.2,1.2-1.7,2.5-1.6,4.2
				c0.2,3.6,0.3,7.3,0.5,10.9c0.6,10.6,1.3,21.1,2,31.7c0.5,7.3,1.1,14.5,1.5,21.8c0.2,2.9,0.2,5.9,0.2,8.8c0,0.4-0.3,1-1,1
				c-0.6,0-1.1-0.3-1.1-0.8c-0.4-2.4-0.7-4.8-0.9-7.2c-0.4-5.9-0.7-11.8-1.1-17.7c-0.2-3-0.4-3.3-3.6-2.8
				c-5.9,0.9-11.8,0.8-17.7,0.8c-31.1-0.2-60.4-7.7-87.7-22.8c-9.1-5.1-17.9-10.7-25.6-17.8c-2-1.8-4.3-3.5-6.9-4.9
				c-1,2.5-1,5-1.1,7.3c-0.8,14-1.6,28.1-2.5,42.1c-0.3,5.5-0.7,11.1-1.1,16.6c-0.1,1.9-0.4,3.8-0.7,5.7c-0.1,0.7-0.4,1.5-1.2,1.5
				c-1.1,0-1.3-1-1.3-1.9c0-2.4,0.1-4.9,0.2-7.3c0.6-8.5,1.2-17,1.7-25.4c0.7-11.3,1.4-22.5,2.1-33.8c0-0.7,0-1.4,0.1-2.1
				c0.7-4-0.6-7.1-3.6-10.2c-11.9-12.5-18.9-27.7-22.5-44.5c-2.6-12-2.9-24.1-2.3-36.2c0.1-1,0.1-2.1,0.1-3.1c0-1-0.5-1.6-1.5-1.8
				c-2.1-0.3-4.1-0.6-6.2-1c-8.2-1.9-15.2-5.9-20.6-12.4c-11.8-14.3-9.3-34.6,5.8-46c1.2-0.9,2.5-1.8,3.9-2.6
				c1.5-0.8,1.7-1.9,1.4-3.5c-3.6-17.8-4.2-35.8-3.5-53.9c0.6-14.7,2.2-29.4,5.9-43.8c3.3-12.8,9.5-24.2,18.9-33.6
				c2.9-2.9,6-5.8,9.1-8.6c7.8-7,16.8-11.6,26.8-14.5c12-3.6,24.2-6.1,36.6-7.5c6.9-0.8,13.8-1.4,20.6-2.6
				c12.4-2.1,23.9-7,35.3-12.2c6.8-3.1,13.5-6.3,20.7-8.5c5.7-1.7,11.5-2.4,17.4-2c8.3,0.5,16.9,7.2,18,18.5
				c0.6,5.8-0.1,11.4-1.6,17c-1,3.7-2.1,7.3-3.1,11c-0.4,1.4,0.2,2.1,1.5,1.7c2.9-0.7,5.7-1.5,8.5-2.3c5-1.5,10.2-2.1,15.4-1.9
				c0.7,0,1.4,0,2.1,0.1c8.6,0.7,13.8,7.3,12.3,15.9c-0.8,5.1-2.9,9.6-6.1,13.6C-2195.2-1761.7-2196.8-1759.8-2198.7-1757.6z
				 M-2311-1472.9c10.7,0.4,21.4-0.5,31.8-3.3c30.9-8.1,51.7-27.3,61.5-57.8c5-15.4,6.2-31.3,4.7-47.3c-0.4-4.3-0.4-5.3,4.7-6
				c0.7-0.1,1.4-0.1,2.1-0.2c9.3-1.4,17.2-5.5,22.9-13.1c5.5-7.3,7.5-15.6,5.1-24.6c-1.9-7-5.9-12.5-11.7-16.7
				c-6.1-4.4-12.9-6.5-20.4-6.8c-3.9-0.1-4.8-0.9-5.5-4.8c-0.2-1.2-0.4-2.4-0.5-3.6c-0.4-4.8-0.8-9.7-1-14.5
				c-0.4-8.9-2-17.6-4.5-26.1c-2.8-9.6-7-18.5-13.4-26.3c-8.1-9.9-18.3-15.6-31.4-15.8c-6.8-0.1-13.5-0.1-20.3,0.3
				c-11.2,0.8-22.5,2-33.7,2.8c-13.5,0.9-26.9,3-40.2,5.5c-7.7,1.4-15.2,3.6-22.3,7c-12.9,6.2-21.4,15.6-23.1,30.4
				c-0.8,6.6-1.5,13.1-1.6,19.7c-0.1,6.4-0.1,12.8,0.6,19.2c0.5,5,0.7,6-5.2,6.2c-9.8,0.4-18.2,4.3-24.6,11.8
				c-10.1,11.8-9.2,27.6,0.8,38.4c5.9,6.4,13.2,10,21.8,10.9c1.5,0.2,3.1,0.5,4.6,0.9c1.1,0.3,1.7,1.2,1.6,2.4
				c0,0.9-0.2,1.7-0.3,2.6c-1.3,15-0.4,29.9,3.7,44.3c9.1,31.4,29.3,51.7,60.8,60.6C-2333.3-1473.6-2322.3-1472.5-2311-1472.9z"/>
			<path id="XMLID_94_" class="st3" d="M-2310.7-1330.5c-20-0.1-37.9-5.9-54.3-16.7c-15.3-10.1-27.4-23.3-37-38.9
				c-3.6-5.9-6.8-12.1-9.5-18.5c-0.3-0.8-0.9-1.6-0.5-2.5c0.1-0.3,0.4-0.6,0.7-0.7c0.3-0.1,0.7-0.1,0.9,0.1c1.4,0.9,1.7,2.6,2.3,4
				c3.9,8.7,8.6,17,14.3,24.7c11.6,15.9,25.8,28.5,43.7,36.8c13.8,6.4,28.2,9.5,43.4,8.7c19.5-1.1,36.8-7.9,52.2-19.7
				c16.6-12.8,28.4-29.2,36.8-48.3c0.6-1.4,0.9-3,2.1-4.1c0.4-0.4,0.9-0.4,1.4-0.1c0.2,0.2,0.5,0.6,0.5,0.8c-0.2,1-0.4,2-0.8,3
				c-6.4,15.2-15.1,28.9-26.7,40.6c-11.1,11.3-24,19.9-39,25.2C-2290-1332.4-2300.4-1330.7-2310.7-1330.5z"/>
			<path id="XMLID_91_" class="st3" d="M-2198.9-1300.5c10.6,0,21.2,0,31.7,0c6.7,0,5.9,0.7,5.3,6.1c-1.7,14.6-3.1,29.3-4.7,43.9
				c-0.2,1.5-0.5,3.1-0.9,4.6c-0.1,0.4-0.7,0.9-1.1,0.9c-0.9,0.1-1.2-0.7-1.2-1.3c0-1.6,0.1-3.1,0.2-4.7c1.1-10,2.2-20,3.3-30
				c0.2-2-0.3-2.6-2.2-2.5c-18.9,0.8-37.8,0.5-56.7,0.6c-2.4,0-4.9,0.2-7.3,0.3c-2.6,0.2-2.8,0.4-2.9,3.2c-0.7,10.7-1.3,21.5-2,32.2
				c-0.1,1.4,0.1,2.8-0.6,4.1c-0.1,0.2-0.6,0.4-0.9,0.4c-0.3,0-0.7-0.3-0.8-0.5c-0.2-0.8-0.4-1.7-0.4-2.5c0.6-11.9,1.3-23.9,2-35.8
				c0.2-3.8,0.4-7.6,0.6-11.4c0.1-1.4,0.1-2.8,0.3-4.1c0.4-2,1.1-2.6,3.2-2.7c5-0.1,10.1-0.1,15.1-0.2c6.6,0,13.2,0,19.8,0
				C-2198.9-1300.2-2198.9-1300.4-2198.9-1300.5z M-2198.7-1297.8c0,0,0,0.1,0,0.1c-10.7,0.3-21.5,0.5-32.2,0.8
				c-2.9,0.1-2.9,0.1-3.3,2.8c-0.2,1.4-0.4,2.7-0.5,4.1c-0.4,4.5-0.2,4.6,4.4,4.6c11.8,0,23.6,0.1,35.4-0.2
				c8.1-0.2,16.3,0.1,24.4-0.7c5.8-0.6,4.6,0.4,5.6-5.2c0.3-1.5,0.3-3.1,0.4-4.7c0.1-1-0.4-1.7-1.5-1.7c-1.2-0.1-2.4,0-3.6,0
				C-2179.3-1297.8-2189-1297.8-2198.7-1297.8z"/>
			<path id="XMLID_88_" class="st3" d="M-2364.7-1658.7c6.3-0.2,12.2,1,17.9,3.1c2.9,1.1,5.5,2.8,7.9,4.8c5.8,5,4.5,13.7-0.8,17.6
				c-3.3,2.4-7,4-10.9,4.6c-8.2,1.4-16.5,1.6-24.7-0.9c-2.8-0.9-5.5-2-7.9-3.8c-4.8-3.6-6.3-8.6-4.3-14.2c1.8-5.1,5.5-8.3,10.6-9.9
				C-2372.8-1658.5-2368.7-1658.8-2364.7-1658.7z M-2341.7-1649.4c-1,1-0.6,2.1-0.8,3.1c-1.4,7.2-5.4,12.2-12.4,14.7
				c-2.9,1-5.8,0.8-8.8,0.6c-9.3-0.7-16.1-7.6-16.6-16.9c-0.1-0.9,0-1.7-0.1-2.6c0-0.3-0.2-0.7-0.4-0.8c-0.6-0.3-1,0.1-1.3,0.4
				c-0.7,1-1.5,1.9-2,3c-2.7,5.2-1.5,9.8,3.3,13.1c2.5,1.7,5.3,2.6,8.1,3.4c6,1.7,12.1,1,18.1,0.8c4.7-0.2,9.2-1.8,13.1-4.5
				c2.6-1.8,3.9-4.5,3.8-7.6C-2337.8-1645.6-2339.3-1647.8-2341.7-1649.4z"/>
			<path id="XMLID_85_" class="st3" d="M-2261.1-1658.7c3.5-0.1,7.4,0.2,11.2,1.4c5.1,1.6,8.7,4.8,10.6,9.9
				c2.1,5.6,0.6,10.7-4.2,14.2c-2,1.5-4.1,2.5-6.4,3.3c-9.5,3.2-19,3-28.6,0.8c-2.9-0.7-5.5-2-8-3.7c-5.9-4-7.2-13.1-1-18.3
				c2.8-2.4,6-4.1,9.5-5.2C-2272.8-1658-2268.2-1658.7-2261.1-1658.7z M-2283.4-1650.1c-8.3,3.8-6.2,13.1-0.3,16
				c1.7,0.8,3.4,1.8,5.2,2.3c9.4,2.6,18.8,2.5,28.2-0.6c2-0.7,3.8-1.7,5.5-3c5.4-4.3,4.7-13.3-1.3-16.9c-0.1-0.1-0.4-0.1-0.5-0.1
				c-0.2,0.2-0.5,0.5-0.5,0.7c0.1,1,0.4,2,0.5,3.1c0.5,6.4-2.2,11-7.7,14.1c-4.8,2.7-9.9,3-15.1,2c-7.2-1.4-11.6-5.8-13-13.2
				C-2282.7-1647.1-2283.1-1648.6-2283.4-1650.1z"/>
			<path id="XMLID_84_" class="st3" d="M-2264.7-1672.6c-9.5,0.9-18.7,0.6-27.8,2.3c-2.7,0.5-4-0.5-4.4-3.1
				c-0.4-2.4-0.7-4.8-0.7-7.2c0.1-4,1.6-5.6,5.7-5.9c3.1-0.3,6.2-0.3,9.3-0.2c10.4,0,20.7,1.6,31,2.6c1.2,0.1,2.4,0.5,3.6,0.7
				c5.6,1.1,5.8,2.9,5.4,8.1c-0.2,2.2-1.5,3.4-3.8,3.5c-2.4,0.1-4.8-0.1-7.3-0.2c-2.6-0.1-5.2-0.4-7.8-0.5
				C-2262.7-1672.7-2263.9-1672.6-2264.7-1672.6z"/>
			<path id="XMLID_83_" class="st3" d="M-2357.4-1683.3c3.5,0,6.9-0.2,10.4,0c5.4,0.3,7.7,2.6,7.3,9.5c0,0.3-0.2,0.7-0.2,1
				c-1.2,5.7-2.5,6.5-8.2,5.8c-9.3-1.1-18.5-2.2-27.9-2.6c-3.1-0.1-6.2,0.6-9.3,0.8c-4.7,0.3-7.6-3.9-5.9-8.2c0.7-1.8,2.3-2.6,4-3
				c4-0.9,8.1-1.8,12.2-2.3C-2369.1-1683.1-2363.3-1683.7-2357.4-1683.3z"/>
			<path id="XMLID_82_" class="st3" d="M-2315.7-1573c4.4,0.2,8.6-1.1,12.5-3.1c3.1-1.6,4.9-3.8,4.5-7.5c-0.2-1.7-0.2-3.5-0.5-5.2
				c-1.8-10.2-3.7-20.5-5.5-30.7c-1.3-7.7-2.5-15.4-3.7-23.1c-0.1-0.8-0.1-1.7,0-2.6c0-0.2,0.4-0.5,0.7-0.6c0.3-0.1,0.7,0,0.9,0.2
				c0.8,0.8,0.8,1.9,0.9,2.9c1.3,7.7,2.6,15.4,3.9,23.1c1.6,9.2,3.3,18.4,4.9,27.7c0.4,2.6,0.9,5.1,1.1,7.7c0.4,4-1,7.2-4.4,9.4
				c-6.9,4.5-14.6,5.4-22.5,3.9c-3.1-0.6-5.2-2.6-6.5-5.5c-1.1-2.6-1.6-5.3-1.9-8.1c-1.1-12-0.5-23.9,1.3-35.8
				c0.9-6.3,1.9-12.7,2.9-19c0.3-1.7,0.5-3.4,1.4-4.9c0.1-0.2,0.6-0.3,0.9-0.4c0.7-0.1,0.9,0.5,1,1c0.1,1,0,2.1-0.1,3.1
				c-1.1,7.2-2.1,14.4-3.3,21.6c-1.7,10.5-2.3,21-1.5,31.6c0.2,2.6,0.6,5.2,1.2,7.7c1.1,4.4,3.1,6.1,7.6,6.6
				C-2318.5-1572.9-2317.1-1573-2315.7-1573z"/>
			<path id="XMLID_79_" class="st3" d="M-2258.9-1557.5c0.3,14.6-8.4,26-21.5,29c-11.7,2.7-23.9-2.5-29.4-12.5
				c-1-1.8-1.8-3.8-2.2-5.8c-0.3-1.4,0.5-2.5,2-2.3c12.2,1,21-5.8,29.5-13c3.8-3.2,5.8-7.7,7.6-12.3c1.1-2.7,2-5.5,3-8.3
				c0.3-0.9,0.9-1.6,1.8-1.6c0.9-0.1,1.6,0.6,2.1,1.3c0.4,0.6,0.7,1.2,1,1.8C-2261.4-1573.4-2259.3-1565.2-2258.9-1557.5z
				 M-2267.6-1580.4c-1.2,3.1-2.1,5.1-2.9,7.2c-3,7.9-8,14.1-15.1,18.6c-2.1,1.3-4.1,2.5-6.2,3.7c-4.7,2.6-9.7,4.6-15.2,4.6
				c-1.6,0-1.8,0.5-1.3,1.9c2.1,5.2,5.7,9,10.8,11.4c16.9,7.9,35.6-3.7,35.9-22.2C-2261.4-1563.7-2263.7-1571.6-2267.6-1580.4z"/>
			<path id="XMLID_78_" class="st3" d="M-2189.4-1616.5c-0.3,4.9-2.6,9.5-7.5,12.7c-0.6,0.4-1.3,0.5-1.9,0.6c-0.3,0-0.7-0.2-0.8-0.5
				c-0.2-0.2-0.2-0.7-0.1-1c0.4-1.1,1.4-1.5,2.2-2.1c6.5-4.7,6.1-13.8,2.9-18.7c-2.4-3.7-5.7-6-9.8-7.3c-1.8-0.5-2.8-1.6-2.3-2.2
				c0.8-0.9,1.9-0.8,2.9-0.5C-2195.8-1633.7-2189.3-1625.6-2189.4-1616.5z"/>
			<path id="XMLID_77_" class="st3" d="M-2415.8-1635.7c0.4,0.3,0.8,0.6,1,1c0.3,0.5-0.1,1.1-0.6,1.3c-1.3,0.5-2.6,0.9-3.9,1.5
				c-5.7,2.4-10.2,8.2-9.9,15.1c0.2,3.7,1.5,6.7,4.1,9.2c0.6,0.6,1.4,1,2,1.6c1.2,1,1.6,2,0.9,2.5c-0.8,0.7-1.6,0.3-2.4-0.2
				c-5.5-3.4-8.2-8.6-7.7-14.9c0.7-9.2,7.2-14.9,14.1-16.8C-2417.2-1635.6-2416.5-1635.6-2415.8-1635.7z"/>
		</g>
		<g id="XMLID_73_">
			<ellipse id="XMLID_75_" class="st1" cx="-2242.1" cy="-1607.9" rx="20.1" ry="14.6"/>
			<ellipse id="XMLID_74_" class="st1" cx="-2383.7" cy="-1607.9" rx="20.1" ry="14.6"/>
		</g>
	</g>
	<g id="XMLID_28_">
		<g id="XMLID_32_">
			<path id="XMLID_71_" class="st2" d="M-1604.3-520.8c-29.5,0-59,0.3-88.5-0.1c-47.6-0.6-95.1-0.7-142.7-1
				c-20.5-0.1-41-0.4-61.4-0.6c-0.2,0-0.3,0-0.5,0c-4-0.1-4-0.1-3.5-4.1c5.2-35.8,17.8-68.7,39.1-98.1c9.7-13.4,20-26.2,32.5-37.1
				c5.6-4.9,11.6-9.4,17.8-13.6c18.6-12.3,38.1-22.8,58.7-31.3c22.9-9.5,46.3-17.8,70-25c2.3-0.7,4.7-1.3,7.1-1.7
				c2.2-0.4,2.7,0,3,2.3c1.1,6.6,4.6,11.9,8.7,16.9c3.6,4.3,8,7.7,12.8,10.5c10.8,6.4,22.5,9.9,34.9,11.3c25.9,2.8,48.7-4.7,69-20.5
				c5.3-4.1,9.7-8.9,12.4-15.2c1.3-3,2.6-3.4,5.9-2.6c7.3,1.7,14.4,3.9,21.5,6.3c20.4,6.8,40.6,14.2,60.4,22.6
				c21.3,9.1,41.3,20.5,60.2,33.9c10.5,7.4,19.8,16.4,28.2,26.2c12.5,14.6,23.1,30.3,32.3,47.2c9.8,18,15.5,37.4,19.8,57.3
				c0.9,4.2,1.8,8.5,2.3,12.8c0.6,5.2-0.3,6.2-5.6,6.1c-16.8,0-33.7-0.2-50.5-0.2c-0.9,0-1.7-0.1-2.6-0.1
				c-21.9-0.1-43.7-0.3-65.6-0.4c-39.1-0.2-78.1-0.4-117.2-0.7c-19.4-0.2-38.9-0.5-58.3-0.7
				C-1604.3-520.6-1604.3-520.7-1604.3-520.8z"/>
			<path id="XMLID_67_" class="st3" d="M-1657.8-878c6.4-0.2,12.3,0.9,18,3.1c3,1.1,5.6,2.7,8,4.8c6,5.1,4.7,14-1,18
				c-3.3,2.3-7,3.9-10.9,4.5c-7.9,1.2-15.8,1.5-23.6-0.8c-3-0.9-5.9-2-8.4-3.9c-5-3.7-6.6-8.8-4.3-14.6c2-5,5.6-8.2,10.8-9.7
				C-1665.5-877.8-1661.6-878.1-1657.8-878z M-1639.9-852c2.9-0.6,4.5-1.6,5.9-2.7c4.4-3.6,4.6-9,0.7-13.1c-0.6-0.6-1.3-1.1-2-1.6
				c-0.4-0.3-0.9-0.6-1.3-0.2c-0.2,0.2-0.3,0.6-0.2,0.9C-1635.8-863.1-1636.4-857.7-1639.9-852z M-1671.8-853.2
				c-0.5-3.6-1.4-6.6-1.4-9.7c0-3.3,1.4-6.3,1.9-10.1c-4.6,2.5-6.7,6.1-7,10.6C-1678.6-858.1-1676.2-855.3-1671.8-853.2z"/>
			<path id="XMLID_63_" class="st3" d="M-1555-878c4.2-0.1,8.2,0.2,12,1.3c5.1,1.5,8.8,4.7,10.8,9.7c2.2,5.8,0.7,11-4.4,14.6
				c-3,2.2-6.4,3.4-10,4.2c-8.2,2-16.4,1.6-24.6-0.2c-2.7-0.6-5.2-1.8-7.6-3.3c-6.6-4-8-13.6-1.4-18.9c2.9-2.3,6-4,9.5-5.1
				C-1565.5-877.2-1560.2-878.2-1555-878z M-1534-862.5c-0.5-4.1-2.2-7.8-6.4-10.1c-0.3-0.2-0.7-0.4-0.9-0.3
				c-0.6,0.2-0.5,0.8-0.4,1.2c1.9,5.9,2.2,11.8-0.1,17.7c-0.1,0.2-0.2,0.4-0.1,0.5c0.2,0.2,0.5,0.6,0.7,0.5
				C-1537.4-853.7-1534-858.1-1534-862.5z M-1576.2-869.7c-0.2,0-0.3,0-0.5,0.1c-6.5,3.8-6.9,11.3-0.8,15.6c0.7,0.5,1.8,1.2,2.3,0.9
				c1.2-0.7,0.3-1.8-0.1-2.7c-0.9-2.3-0.9-4.7-0.8-7.1c0.1-2.1,0.3-4.1,0.5-6.2C-1575.6-869.3-1576-869.5-1576.2-869.7z"/>
			<path id="XMLID_60_" class="st3" d="M-1603.6-707c-13.3,0.4-26.3-1.2-39-5.3c-10.2-3.3-19.5-8.1-27.9-14.8
				c-15.3-12.3-25.1-28.1-30.2-46.9c-3.9-14.6-5-29.4-3.6-44.4c0.2-2.5,0-2.9-2.7-3.2c-9.5-0.9-17.7-4.8-24.3-11.8
				c-6-6.4-9.1-14.1-8.7-22.7c0.4-10.1,5-18.3,13-24.5c0.5-0.4,1.1-0.8,1.7-1.2c4.3-2.9,3.4-1.7,2.7-6.7
				c-3.7-25.1-0.7-49.1,10.6-71.9c4.7-9.5,10.7-17.8,19.2-24.2c6.8-5.1,14.3-7.8,22.8-7.1c3.6,0.3,7.2,1.2,10.6,2.4
				c1.7,0.6,3.3,0.8,5-0.2c7.6-4.2,16.1-5.6,24.5-6.2c9.1-0.7,18.3-1.3,27.6-0.6c10.1,0.8,19.9,2.7,29.7,4.9c1.4,0.3,2.7,0.6,4,1.1
				c1.1,0.3,2,0.3,3-0.2c12-5.2,23.8-3.8,35.3,1.4c11.9,5.3,21.2,13.7,28,24.9c4.7,7.8,8,16.1,10.6,24.8c4.1,14.2,6.4,28.8,5.9,43.6
				c-0.1,3-0.8,5.8-1.1,8.8c-0.2,1.4,0.2,2.3,1.4,3c3.6,1.9,6.7,4.3,9.5,7.2c6,6.4,9.2,14,8.8,22.7c-0.4,10-4.9,18.3-12.8,24.6
				c-5.6,4.4-11.9,7-19,7.8c-0.7,0.1-1.4,0.1-2.1,0.2c-1.5,0.2-2,0.9-1.8,2.5c0.9,6.6,0.8,13.2,0.4,19.8c-0.8,15-3.9,29.6-10.8,43.1
				c-12.5,24.4-32.3,39.3-58.7,45.9C-1582.5-707.7-1593-706.7-1603.6-707z M-1611.7-993.8c-8,0-15.1,0.6-22.2,1.3
				c-12.5,1.2-23.6,6.2-33.3,13.7c-9.3,7.2-16.4,16.5-20.7,27.6c-5.6,14.5-9,29.5-10.6,44.9c-0.6,5.5-0.8,11.1-0.9,16.6
				c0,3.1-0.9,3.9-4.1,4.2c-0.7,0.1-1.4,0-2.1,0c-7.9,0.2-14.9,3-20.9,8.1c-13.6,11.4-14.3,30.8-1.6,43.2c5.9,5.8,13.2,8.8,21.3,9.9
				c5.4,0.7,5.6,0.7,5.2,6c-0.7,10.6-0.6,21.2,1.1,31.7c1.9,12.1,5.6,23.6,11.8,34.2c12.6,21.4,31.6,34.1,55.5,39.7
				c12.4,2.9,25.1,3.4,37.8,2.8c8.5-0.4,16.9-1.5,25.2-3.8c22.2-6.2,39.7-18.6,51.5-38.7c7.9-13.4,11.8-28.1,13-43.5
				c0.6-7.3,0.4-14.6,0-21.8c-0.4-5.8-0.3-5.8,5.6-6.6c8.9-1.2,16.6-4.8,22.6-11.7c9.3-10.6,9.7-25.8,1-36.8
				c-4.6-5.8-10.5-9.4-17.6-11.5c-3.2-1-6.5-1.1-9.8-1.2c-2.7-0.1-3.5-0.8-4-3.2c-0.4-2-0.7-4.1-1-6.2c-0.7-7.1-1.3-14.2-2.1-21.2
				c-2.1-19.4-9.9-36.4-22-51.4c-6.7-8.3-15.1-14.2-25.6-17c-5.4-1.4-10.6-3.1-16-4.4C-1587-991.9-1599.6-994.3-1611.7-993.8z"/>
			<path id="XMLID_59_" class="st3" d="M-1610.8-668.4c-20.7-0.3-42.5-7.8-61.2-23.9c-8.3-7.2-15.1-15.8-20.2-25.6
				c-0.5-1.1-1.4-2-1.2-3.4c0.1-0.3,0.3-0.7,0.6-0.8c0.2-0.1,0.7-0.1,1,0c1.2,0.6,1.5,1.8,2.1,2.9c3.2,6,6.9,11.6,11.4,16.7
				c13.7,15.5,30.9,25.1,51,29.3c25.3,5.2,49.3,1.1,71.6-12.1c13.6-8,24.4-18.8,32.4-32.4c0.5-0.9,1-1.8,1.6-2.7
				c0.5-0.7,1-1.6,2-0.9c0.8,0.6,0.6,1.6,0.2,2.4c-0.8,1.5-1.6,3.1-2.6,4.5c-11.2,17.8-26.7,30.4-46,38.3
				C-1580.2-671-1593.5-668.4-1610.8-668.4z"/>
			<path id="XMLID_58_" class="st3" d="M-1472.8-559.9c0.4,0.1,0.9,0.1,1,0.3c0.4,0.7,0.8,1.5,1,2.3c2,10.6,5.3,20.8,8.2,31.1
				c0.1,0.5,0.3,1,0.3,1.5c0,0.3-0.3,0.6-0.6,0.7c-0.3,0.1-0.7,0.1-1-0.1c-0.9-0.4-1.2-1.2-1.4-2.1c-2.6-9.1-5.7-18.1-7.4-27.5
				c-0.3-1.7-1.2-3.3-0.9-5.1C-1473.3-559.1-1473-559.5-1472.8-559.9z"/>
			<path id="XMLID_57_" class="st3" d="M-1765.7-529.8c0.2-0.9,0.4-2.3,0.8-3.6c2-7,3.9-14,5.1-21.2c0.1-0.7,0.3-1.4,0.7-2
				c0.2-0.4,0.7-0.8,1.3-0.4c0.3,0.2,0.6,0.4,0.7,0.7c0.1,0.5,0.2,1,0.1,1.5c-1.5,8.9-4.1,17.5-6.3,26.3c-0.1,0.6-0.6,1.4-1.5,0.9
				c-0.4-0.2-0.5-0.8-0.8-1.2C-1765.7-528.9-1765.7-529.1-1765.7-529.8z"/>
			<path id="XMLID_56_" class="st3" d="M-1613.6-684.9c-0.5,2.8-0.9,5.5-2,8c-0.1,0.3-0.8,0.4-1.3,0.5c-0.1,0-0.5-0.5-0.5-0.8
				c-0.3-2.8,0.9-5.4,1.4-8c0.1-0.6,0.6-1.2,1.5-1.1C-1613.6-686.2-1613.6-685.5-1613.6-684.9z"/>
			<path id="XMLID_55_" class="st3" d="M-1622.2-677c-0.8-0.2-1.2-0.6-1.1-1.1c0.5-3,1.4-6,2.7-8.7c0.2-0.4,0.6-0.8,1.2-0.6
				c0.5,0.1,1,0.5,0.9,1c-0.7,3-1.4,6-2.7,8.8C-1621.4-677.3-1621.8-676.8-1622.2-677z"/>
			<path id="XMLID_54_" class="st3" d="M-1584.8-687.6c0-1.2,0.3-1.6,0.8-1.8c0.6-0.3,1.1,0.1,1.3,0.5c1.1,2.7,2,5.5,1.9,8.4
				c0,0.5-0.3,1-0.9,1c-0.6,0-1-0.3-1.1-0.8C-1583.6-682.9-1584.2-685.6-1584.8-687.6z"/>
			<path id="XMLID_53_" class="st3" d="M-1550.8-692.4c-0.4,0.3-0.7,0.6-0.9,0.6c-0.5,0-1-0.2-1.4-0.5c-1.9-1.8-3.3-3.9-4.6-6.2
				c-0.2-0.4-0.3-1,0.3-1.4c0.5-0.3,0.9-0.3,1.4,0c0.3,0.2,0.5,0.4,0.7,0.7c1.4,1.8,2.7,3.5,4,5.3
				C-1551-693.4-1551-692.8-1550.8-692.4z"/>
			<path id="XMLID_52_" class="st3" d="M-1527.2-716.2c0,0.2,0,0.4-0.1,0.5c-0.3,0.4-0.8,0.7-1.3,0.5c-2.3-1.1-4.4-2.4-6.2-4.3
				c-0.1-0.1-0.2-0.3-0.2-0.5c0-0.3,0.1-0.6,0.2-0.9c0.2-0.4,0.5-0.5,0.8-0.3c2.4,1.2,4.7,2.6,6.6,4.6
				C-1527.2-716.5-1527.2-716.3-1527.2-716.2z"/>
			<path id="XMLID_51_" class="st3" d="M-1586.7-680.6c-0.4,0.5-0.6,1.2-0.9,1.3c-0.4,0.1-1.2-0.2-1.3-0.5c-0.8-2.6-1.7-5.1-1.6-7.9
				c0-0.5,0.4-0.9,0.9-1c0.6-0.1,1,0.3,1.2,0.8C-1587.7-685.5-1587.2-683-1586.7-680.6z"/>
			<path id="XMLID_50_" class="st3" d="M-1677-728.5c-0.2,0.3-0.3,0.7-0.6,0.8c-2.2,1-4.4,1.9-6.6,2.7c-0.3,0.1-0.9-0.3-1.3-0.6
				c-0.1-0.1,0-0.7,0.2-0.9c2-2,4.6-2.8,7.4-3C-1677.4-729.6-1677.1-729.1-1677-728.5z"/>
			<path id="XMLID_49_" class="st3" d="M-1524.5-719.9c-0.2,0.5-0.5,1-1.1,0.8c-2.5-0.7-4.8-1.9-6.9-3.4c-0.3-0.2-0.4-0.9-0.3-1.4
				c0.1-0.5,0.7-0.8,1.2-0.5c2.2,1,4.3,2.1,6.4,3.2C-1524.7-721-1524.4-720.5-1524.5-719.9z"/>
			<path id="XMLID_48_" class="st3" d="M-1651.4-698.3c-0.1,0.4,0,1-0.3,1.4c-1.2,1.7-2.4,3.3-3.7,4.8c-0.4,0.5-1.1,0.7-1.8,0.1
				c-0.5-0.4-0.4-0.9-0.1-1.4c1.4-1.9,2.8-3.8,4.3-5.7c0.2-0.2,0.7-0.3,0.9-0.2C-1651.8-699.1-1651.7-698.7-1651.4-698.3z"/>
			<path id="XMLID_47_" class="st3" d="M-1661.6-695.4c-0.2-0.3-0.5-0.6-0.5-0.8c1.1-3,3.4-5,5.8-6.8c0.2-0.1,0.7,0.1,0.9,0.3
				c0.2,0.2,0.5,0.7,0.4,0.8c-1.5,2.5-3.3,4.7-5.7,6.4C-1660.9-695.3-1661.3-695.4-1661.6-695.4z"/>
			<path id="XMLID_46_" class="st3" d="M-1548.5-695.9c-0.2,0.5-0.6,1-1.1,0.7c-2.2-1.4-3.8-3.3-4.7-5.7c-0.1-0.2,0.2-0.6,0.5-0.8
				c0.2-0.1,0.7-0.2,0.9-0.1c1.9,1.4,3.4,3.3,4.5,5.4C-1548.4-696.3-1548.5-696.1-1548.5-695.9z"/>
			<path id="XMLID_45_" class="st3" d="M-1676.9-725.3c0.4,0.3,1,0.5,1.1,0.9c0.1,0.4-0.3,0.9-0.6,1.3c-0.1,0.1-0.3,0.2-0.5,0.2
				c-1.8,0.3-3.4,2-5.3,0.6c-0.1-0.1-0.1-0.3-0.1-0.5C-1681.1-724.9-1678.9-724.9-1676.9-725.3z"/>
			<path id="XMLID_44_" class="st3" d="M-1561.5-909.9c8.9,0.4,17.6,1.8,26,4.5c2.3,0.8,4.5,1.7,6.7,2.8c1.2,0.6,2.3,1.5,3.2,2.6
				c1.8,2,1.5,4.6-0.6,6.4c-1.2,1-2.7,1.7-4.2,1.9c-3.8,0.5-7.5,1.2-11.4,0.9c-7.8-0.7-15.5-1-23.1-2.9c-3.2-0.8-6.4-1.6-9.2-3.4
				c-1.2-0.7-2.4-1.5-3.3-2.5c-2-2.2-1.9-4.9,0.2-6.9c1.8-1.6,3.9-2.9,6.4-3.2C-1567.7-910-1564.6-910.1-1561.5-909.9z"/>
			<path id="XMLID_43_" class="st3" d="M-1668.9-893.7c-3.3,0-6.6,0.1-9.9,0c-2.6-0.1-5.1-0.8-7.4-2.3c-2.2-1.5-2.6-3.6-1.1-5.8
				c0.8-1.2,1.8-2.1,3-2.8c1.7-0.9,3.3-1.9,5.1-2.5c12.1-3.8,24.4-4.9,36.9-2.2c1.3,0.3,2.7,0.7,4,1.2c2,0.9,3.6,2.3,3.7,4.6
				c0.1,2.1-1.2,3.5-2.9,4.6c-1.8,1.1-3.7,1.8-5.8,2.3C-1651.6-894.5-1660.2-893.7-1668.9-893.7z"/>
			<path id="XMLID_42_" class="st3" d="M-1605.4-813.6c5.3-0.2,11.2-2.7,16.1-7.6c2.2-2.2,3.3-4.8,3.5-7.9c0.2-4.7-1-8.9-3.3-12.9
				c-1.6-2.7-3.4-5.2-5.6-7.5c-0.6-0.6-1.1-1.3-1.5-2.1c-0.1-0.2,0.1-0.7,0.3-0.9c0.2-0.2,0.7-0.4,0.9-0.4c0.6,0.3,1.3,0.6,1.7,1.1
				c5.7,5.5,9.4,12.1,10.3,19.9c0.5,4.3-0.6,8.3-3.6,11.6c-6,6.6-13.5,9.6-22.3,9.3c-11.5-0.5-19.6-9.6-19.3-21.6
				c0.2-7.4,3.2-13.8,7.3-19.7c0.3-0.4,0.8-0.7,1.2-0.9c0.2-0.1,0.7,0.1,0.9,0.3c0.2,0.2,0.5,0.6,0.4,0.9c-0.4,0.9-0.8,1.9-1.4,2.7
				c-2.2,3.6-3.9,7.4-5,11.4c-1,3.4-1.1,6.9-0.3,10.3C-1623.1-818.7-1616.1-813.4-1605.4-813.6z"/>
			<path id="XMLID_41_" class="st3" d="M-1625-924.7c16.1,1,32.1,2,48,4.8c0.8,0.1,1.8,0,2.4,0.8c0.2,0.2,0.4,0.6,0.3,0.9
				c0,0.3-0.3,0.7-0.6,0.7c-1.7,0.4-3.4,0.1-5.2-0.2c-6.2-0.8-12.3-1.7-18.5-2.5c-0.7-0.1-1.4-0.3-2.1-0.3
				c-12.3-0.3-24.5-2.1-36.8-1.3c-0.2,0-0.3,0-0.5,0c-1,0-2.1,0.2-2.7-0.9c-0.4-0.8,0.7-1.5,2.7-1.6
				C-1633.6-924.5-1629.3-924.6-1625-924.7z"/>
			<path id="XMLID_40_" class="st3" d="M-1605-771.3c-5.9-0.2-11.7-0.5-17.6-1.4c-1.9-0.3-3.7-0.7-5.6-1.1c-0.7-0.2-1.4-0.6-1.3-1.4
				c0.2-1.2,1.2-1,2-1c0.7,0,1.4,0.2,2.1,0.3c6.8,1.2,13.7,1.8,20.6,2c11.4,0.2,22.3-1.8,32.8-6.6c2.5-1.2,4-1.2,4.1-0.3
				c0,1.8-1.7,2.1-2.8,2.6C-1581.6-773-1593-771.1-1605-771.3z"/>
			<path id="XMLID_39_" class="st3" d="M-1709.1-872.7c0.8,0.1,1.4,0.4,1.4,1.2c0,0.4-0.3,1.1-0.6,1.3c-1.3,0.5-2.6,0.8-3.9,1.4
				c-4.8,2-7.9,5.5-9.4,10.5c-1.6,5.5-0.1,10.3,4.1,14.1c0.8,0.7,1.7,1.2,2.5,1.9c0.6,0.5,0.8,1.1,0.3,1.8c-0.5,0.6-1.2,0.6-1.9,0.3
				c-4.6-2.4-7.4-6.3-8.1-11.4c-1.5-10.5,5.7-19,15.2-21C-1709.4-872.7-1709.2-872.7-1709.1-872.7z"/>
			<path id="XMLID_38_" class="st3" d="M-1482.5-856.7c0,8-2.3,12.4-6.9,15.6c-0.7,0.5-1.5,0.7-2.4,1c-0.2,0.1-0.7-0.2-0.9-0.4
				c-0.4-0.4-0.4-1-0.1-1.4c0.5-0.5,1-1,1.6-1.3c8.5-5.7,7.6-17.8-0.8-23.8c-1.4-1-3-1.6-4.6-2.4c-0.6-0.3-1.3-0.3-2-0.5
				c-1-0.3-1.5-1.3-1.1-2c0.4-0.7,1.1-0.9,1.8-0.7C-1489.1-871.2-1482.5-863.2-1482.5-856.7z"/>
			<path id="XMLID_37_" class="st3" d="M-1616.9-935c7.7,0.2,15.2,1.4,22.7,2.7c1.5,0.3,3.1,0.6,4.6,1c0.7,0.2,1.4,0.5,1.4,1.3
				c0,0.9-0.8,1-1.5,1c-1,0-2.1-0.1-3.1-0.3c-10.6-2.2-21.2-3.5-32-2.9c-0.9,0-1.7,0-2.6-0.1c-0.4-0.1-0.9-0.5-1-0.9
				c-0.2-0.9,0.5-1.2,1.2-1.3C-1623.8-934.7-1620.3-934.9-1616.9-935z"/>
			<path id="XMLID_36_" class="st3" d="M-1662.7-782.1c-0.7-0.1-1.2-0.3-1.3-0.9c-0.1-0.6,0.3-1,0.7-1.2c0.9-0.5,1.9-0.8,2.9-1.1
				c7.5-2.3,12.7-7.5,16.8-14c0.7-1.2,1.4-2.4,2.2-3.5c0.3-0.4,0.8-0.7,1.4-0.4c0.5,0.2,0.7,0.7,0.7,1.3c0,0.2,0,0.4-0.1,0.5
				c-4.6,9.5-11.4,16.5-21.9,19.3C-1661.8-782.2-1662.4-782.2-1662.7-782.1z"/>
			<path id="XMLID_35_" class="st3" d="M-1612.2-946c5.2,0.4,9.8,0.7,14.5,1.1c0.7,0.1,1.4,0.2,2,0.5c0.6,0.3,1.3,0.6,1.2,1.5
				c-0.2,0.8-0.9,1.1-1.5,1c-4.4-1-9-0.6-13.4-1c-3-0.3-5.9,0.1-8.8,0.1c-0.9,0-1.7-0.1-2.6-0.2c-0.2,0-0.5-0.5-0.6-0.8
				c-0.3-0.6,0.1-1,0.6-1.2c0.6-0.2,1.3-0.4,2-0.5C-1616.5-945.6-1614.1-945.8-1612.2-946z"/>
			<path id="XMLID_34_" class="st3" d="M-1565.3-807.3c0.3,0.1,0.8,0.1,0.9,0.3c0.5,0.9,1,1.8,1.3,2.8c2.6,6.5,6.8,11.5,12.8,15.2
				c1.4,0.9,3.2,1.5,4,3.2c0.1,0.3,0.1,0.7-0.1,1c-0.1,0.2-0.5,0.4-0.8,0.5c-0.1,0.1-0.4,0-0.5,0c-8.4-4.4-14.9-10.5-18.1-19.7
				c-0.3-0.8-0.5-1.7-0.2-2.5C-1565.9-806.9-1565.5-807.1-1565.3-807.3z"/>
			<path id="XMLID_33_" class="st3" d="M-1597.7-761.4c-1.6-0.1-3.3,0.4-4.9-0.6c-0.2-0.1-0.5-0.6-0.4-0.8c0-0.3,0.3-0.7,0.5-0.7
				c1.2-0.2,2.4-0.2,3.6-0.3c5.7-0.4,11.4-0.7,16.9-2.7c1.8-0.7,3.5-1.4,5.3-2.1c0.6-0.2,1.3-0.2,2-0.2c0.3,0,0.7,0.3,0.8,0.6
				c0.1,0.3,0,0.8-0.3,0.9c-0.8,0.6-1.7,1.2-2.6,1.6C-1583.5-762.8-1590.4-761.6-1597.7-761.4z"/>
		</g>
		<g id="XMLID_29_">
			<ellipse id="XMLID_31_" class="st1" cx="-1531.3" cy="-831.8" rx="20.1" ry="14.6"/>
			<ellipse id="XMLID_30_" class="st1" cx="-1672.9" cy="-831.8" rx="20.1" ry="14.6"/>
		</g>
	</g>
	<path id="XMLID_471_" class="st3" d="M-856.2,44.4c-4.1,0.1-7.3-5.5-4.8-8.9c-5.8-2.3-10.6-7.1-16.6-8.8c-6-1.7-12.8,0.1-17.2,4.4
		c9.1-1.9,20-3.2,26.3,3.6c0.4,0.4,0.8,1,0.8,1.6c0,0.5-0.3,1-0.6,1.4c-3.7,5-10.4,7.5-16.5,6.3c-2.5-0.5-6.3-0.5-6.1,2
		c4.5-0.9,9.4,1,12.1,4.7c0.6,1.2,0.2,2.7-0.8,3.4c3,0.2,3.3,4.7,1.7,7.2c-1.6,2.5-4.2,4.8-4,7.8c3.5-1.4,6.2-4.7,7-8.4
		c0.4-2,0.3-4.1,1.2-5.9c1.6-3.3,5.7-4.5,9.3-5.2c0.6-0.1,1.2-0.2,1.7,0.1c0.7,0.4,0.8,1.4,0.7,2.2c-0.4,8.1-3.3,16.1-8.2,22.6
		c-0.8,1.1-1.7,2.2-3,2.6c-2.4,0.8-4.8-0.8-7.2-1.6s-6,0.5-5.4,3c3.1-1,6.7-0.4,9.3,1.5c-2.8,3.3-6.7,5.6-10.9,6.5
		c-1.7,0.3-3.5,0.6-4.7,1.8c-0.9,1-1.1,2.3-1.4,3.6c-7.3,39.9-32.6,82.4-72.8,96.1c-6.1,2.1-12.4,3.1-18.8,4.1
		c-4.8,0.7-9.7,1.3-14.5,0.7c-45.2-5.4-79.3-49.2-87.2-91.9c-0.9-4.9-2-10.7-6.4-13.1c-2.6-1.4-5.7-1.3-8.3-2.6
		c-2.6-1.3-4.3-5.3-1.8-7c1-0.7,2.3-0.6,3.5-0.9c1.2-0.3,2.5-1.3,2.1-2.5c-2.8-0.4-5.6,0.4-7.8,2.1c-1.1,0.9-2.4,2.1-3.8,1.7
		c-0.8-0.2-1.4-0.9-1.9-1.6c-5.1-7.1-9.2-15.2-9.3-23.9c-0.2-8.7,4.4-17.9,12.4-21.2c6.2-2.6,13.3-1.3,19.9,0
		c-6.4-5.8-16.8-5.9-24-1.1c-7.2,4.7-11.2,13.5-11.2,22.1s3.6,17,8.8,23.8c1.4,1.8,3,3.7,3.3,6c0.2,1.8-0.4,3.6-0.7,5.4
		c-1.5,8.7,7.1,17.6,15.9,16.4c2.1-0.3,4.5-0.9,6,0.5c0.7,0.7,1.1,1.6,1.4,2.5c5.7,16.7,12.6,33.1,22.7,47.5
		c13.1,18.7,35.4,37.3,58.8,40.3c15.2,1.9,30.9-1.1,44.9-7c28.8-12.1,50.3-36,62.3-64.7c0.9-2.2,8.6-19.8,7-21.1
		c5.5,4.5,14.1,4.4,19.5-0.1c5.4-4.5,7.1-13,3.7-19.2c-0.6-1.1-1.4-2.3-1.2-3.5c0.1-1.2,1.1-2.1,1.9-3c4.3-4.4,7.2-10.2,8.3-16.2
		c1-5.7,0.7-12.2,4.8-16.3C-855.9,44.4-856.1,44.4-856.2,44.4z M-866.3,47.2c-2.4,0.9-4.8,1.9-7.3,2.8c-1.2,0.5-1.9-0.4-2.5-1.3
		c-0.6-0.9-0.3-1.7,0.5-2.3c3-2.1,6-4.1,9-6.2c0.3-0.2,0.7-0.2,1-0.3c0.3,0.2,0.6,0.3,0.8,0.6c0.2,0.3,0.4,0.6,0.5,0.9
		C-862.7,45.3-862.2,45.7-866.3,47.2z M-1092.6,101.3c-1.5,0.5-3,1-4,0.8c-0.3,0-0.7,0-1,0c-2.5-0.2-4.8-1-6.6-2.2
		c-4.5-3-6.6-8.6-4.6-13.9c0.5-1.3,1.3-1.7,2.4-0.9c1.5,1.1,3.1,2,4.8,2.9h0c0.1,0.1,0.3,0.2,0.4,0.2c2.4,1.2,4.9,2.2,7.5,2.8
		c0.9,0.2,1.4,0.9,1.6,1.8c0.4,2,0.8,4.1,1.2,6.1C-1090.8,100.2-1091.5,100.9-1092.6,101.3z M-883.2,103.4c-2.3,0-4.5-0.4-6.2-2
		c-1.6-1.5-2.9-3-1.8-5.4c0.3-0.6,0.3-1.3,0.3-2c0.1-2.6,1.5-4,4-4.6c4.1-1,7.6-3.1,11.1-5.6c2-1.4,2.2-1.2,3.6,0.9
		C-866.6,93.4-874.4,103.5-883.2,103.4z"/>
	<path id="XMLID_463_" class="st3" d="M-1096,46.1c-7.3-1.6-12,7.1-9.9,13.2c0.7,2,1.8,3.7,3.1,5.4c0.7,1,1.4,2,2,3
		c0.1,0.2-0.1,0.7-0.3,0.9c-0.2,0.2-0.6,0.4-0.9,0.4c-0.3,0-0.7-0.2-0.9-0.4c-3.8-3.8-6.5-8.1-6.1-13.8c0.3-4.3,2.4-7.5,5.8-10
		c1.9-1.3,4-2,6.4-1.4c1.5,0.4,3.2-0.1,4.5,1c0.2,0.2,0.4,0.6,0.3,0.9c0,0.3-0.3,0.8-0.5,0.8C-1093.6,46.2-1094.8,46.1-1096,46.1z"
		/>
	<path id="XMLID_462_" class="st3" d="M-1110,35.8c1.2,0,2.3,1.1,2.4,2.3c0.1,1.5-1.3,2.8-3.1,2.8c-1.1,0-2.3-1.3-2.1-2.5
		C-1112.6,37-1111.3,35.8-1110,35.8z"/>
	<path id="XMLID_461_" class="st3" d="M-1112.2,44.6c0.1,1.4-1,2.7-2.4,2.9c-1.2,0.2-2.4-0.7-2.6-2c-0.2-1.6,1-3.2,2.6-3.2
		C-1113.5,42.2-1112.3,43.5-1112.2,44.6z"/>
	<circle id="XMLID_458_" class="st1" cx="-919" cy="84.4" r="20.1"/>
	<circle id="XMLID_457_" class="st1" cx="-1054.3" cy="84.4" r="20.1"/>
	<path id="XMLID_100_" class="st3" d="M-1531.3,264.8c-0.5-0.8-1.5-0.8-2.3-1.1c-4.6-1.6-9.1-3.3-13.7-5c-3.5-1.3-6.5-3.3-9.3-5.6
		c-10.2-8.5-15.9-19.2-18.3-31.3c-0.7-3.5-1.1-7.1-1.3-10.8c-0.1-2.8-0.1-5.7,0-8.5c0.2-5.3,0.6-10.6,1-16c0.2-2.6,0.3-5.2,0.4-7.8
		c0-0.7,0.2-1.4,0.3-2.1c0-0.3,0.1-0.5,0.1-0.8c-0.1-1.9-0.2-3.9-0.4-5.8c-0.1,0.1-0.3,0.3-0.4,0.4v-2h-114.3v3.7
		c-0.1-0.1-0.2-0.2-0.3-0.3c-0.3,1.7-0.6,3.3-0.8,5c0.2,1,0.2,2,0.1,3.1c-0.3,3-0.7,6-1,9c-0.6,5.6-1.2,11.2-1.9,16.8
		c-0.9,6.9-2.3,13.7-4.6,20.3c-5,14.1-13.3,25.4-26.9,32.4c-3.9,2-7.6,4.2-11.4,6.3c-0.7,0.4-1.4,0.9-2,1.5c-0.2,0.2-0.2,0.7,0,0.9
		c0.2,0.3,0.6,0.6,0.8,0.5c1-0.3,2-0.5,2.9-1c4.7-2.6,9.4-5.2,14.1-7.8c3.6-2,3.6-2,4.6,2.1c0.4,1.5,0.7,3,1,4.6
		c1.9,9.2,4.4,18.2,7,27.2c6.9,23.3,17,45.1,29.2,66c5.6,9.6,11.7,19,18.4,27.8c6.8,8.9,14.4,17.3,23,24.8c0.6,0.6,1.4,1.1,1.4,2.1
		c-1.1,1-2.4,2-3.4,3.2c-2.7,3.2-2.8,8.2-0.3,11.6c2.4,3.3,6.9,4.6,10.7,3.1c4-1.6,6.4-5.7,5.8-10.1c-0.1-1-0.6-2-0.9-3
		c-0.6-1.8-0.6-2.1,1-2.7c10.1-3.6,17.1-10.9,23.4-19.2c3.6-4.8,6.9-9.8,9.8-15c1.7-2.9,3.2-5.9,4.7-9c8.3-17.4,15.1-35.4,20.6-53.9
		c4.3-14.5,8.8-28.9,11.8-43.7c0.8-3.9,1.5-7.8,2.3-11.7c0.5-2.2,0.8-2.3,2.8-1.6c4.1,1.5,8.1,3,12.2,4.4c1.1,0.4,2.3,0.9,3.5,0.6
		c0.3-0.1,0.6-0.4,0.7-0.7C-1531.1,265.4-1531.2,265-1531.3,264.8z M-1696.7,230.1c3.5-8.8,5.1-18.1,6.3-27.4
		c0.2-1.8,0.5-3.7,0.7-5.5c0.1-0.7,0.2-1.5,0.3-2.2c0.4-3.9,0.8-7.8,1.4-11.7c0.3-1.6-0.3-3.4,1.1-4.8c1.4,1,3,1.8,4.2,2.9
		c3.9,3.7,7.9,7.3,12.2,10.6c5.3,4.1,11.1,7.5,17.1,10.4c1.1,0.6,2.3,1.1,3.5,1.6c15.5,6.9,31.8,10.8,48.6,12.9
		c6,0.8,12.1,0.9,18.2,0.3c0.9-0.1,1.7-0.2,2.6-0.3c1.2-0.1,2,0.3,2.3,1.5c0.3,1.2,0.6,2.3,0.9,3.5c0.4,2,1,3.9,1.6,5.8
		c2,6.4,4.9,12.3,8.7,17.9c1.7,2.5,1.7,2.6-0.1,5c-1,1.4-2.2,2.7-3.4,4c-1.5,1.6-2.8,3.7-5.6,2.3c-0.5-0.2-1.3,0.3-2,0.4
		c-3.9,1-4.4,1.7-4.3,5.9c0.8,2-0.5,3.1-2.1,4c-2.6,1.5-5.2,2.9-7.7,4.4c-2.2,1.3-4.1,1.9-6.7,0.2c-2.3-1.6-5.1-0.4-6.2,2.7
		c-0.8,2.2-2,3-4,3.4c-4.9,1.1-9.9,1.9-14.9,2.4c-1.8,0.2-3.5,0.1-4.2-2.1c-0.1-0.5-0.6-0.9-0.9-1.2c-3.2-3.4-6.2-3.4-9.1,0.3
		c-1.2,1.5-2.1,1.8-3.9,1.5c-5.8-1.2-11.4-3-16.8-5.5c-1.3-0.6-2.4-1.4-2.3-3.1c0-0.3,0-0.7-0.1-1c-1.2-4.3-3.3-5.4-7.3-3.2
		c-1.5,0.8-2.5,0.7-3.7-0.2c-2.4-1.9-4.9-3.9-7.3-5.9c-1.6-1.4-2.8-2.7-2.2-5.3c0.5-2.3-1.1-3.9-3.7-3.9c-2.1,0-3.1-1-4.1-2.5
		c-2.7-4.1-4.8-8.4-6.7-12.9C-1697.3,233.5-1697.4,231.9-1696.7,230.1z M-1632.2,429.2c-3.4,0-6.5-3.3-6.4-6.9
		c0.1-3.8,3-6.4,6.8-6.2c3.5,0.2,5.9,2.9,5.8,6.7C-1626.1,426.3-1628.9,429.2-1632.2,429.2z M-1553,262.6
		c-2.8,16.3-7.3,32.1-11.9,47.9c-6,20.2-12.9,39.9-21.9,59c-2.2,4.6-4.6,9.2-7.2,13.5c-3.8,6.3-8.1,12.3-12.9,17.9
		c-4.8,5.5-10.6,9.3-17.3,12.1c-3.1,1.3-5.7,0.8-8.2-1.2c-0.3-0.2-0.5-0.4-0.8-0.7c-8.2-7.4-16.2-14.9-22.9-23.6
		c-0.3-0.4-0.6-0.7-0.8-1.1c-22.4-30.1-39.4-62.8-49.8-99c-2.8-9.8-4.9-19.8-7.4-29.8c-0.4-1.5-0.2-2.7,1.1-3.7
		c0.3-0.2,0.5-0.5,0.8-0.7c1.6-1.3,2.7-3.1,4.6-4.1c1.8,1.3,2.1,3.5,3,5.3c8.4,18.4,20.3,34.3,34.8,48.3c8.2,7.9,18,13.5,28.3,18.2
		c2,0.9,4.2,1.8,6.5,1.4c0.5-0.1,1-0.3,0.9-1c-0.1-0.3-0.2-0.7-0.5-0.9c-0.4-0.3-0.9-0.4-1.4-0.6c-13.2-4.5-24.8-11.7-34.6-21.6
		c-13.6-13.7-24.7-29.1-32.4-46.8c-0.4-1-0.8-2-1.3-2.9c-0.9-1.7-1-3.3,0.4-4.8c2-2.1,2.4-5.4,5.2-6.8c1.9,2.1,2.5,4.9,4,7.2
		c1.1,1.8,2.1,3.6,3.2,5.3c1.1,1.6,1.8,3.1,1.7,5.3c-0.2,2.1,0.9,3.4,3,3.5c2.4,0.1,3.7,1.5,5.3,2.8c2.3,2.1,4.8,4,7.2,5.9
		c1.7,1.3,3.2,2.3,3.7,4.7c0.6,2.9,2.7,4.1,5.5,3.2c2.3-0.8,4-0.2,5.9,0.7c4.9,2.3,10,4,15.3,5.1c2,0.4,3.6,1,4.9,3.2
		c2.1,3.6,6.3,4,9.3,1.1c2-1.9,4-2.5,6.5-2.5c5.3-0.1,10.3-1.3,15.4-2.4c1.9-0.5,3.5-0.6,5.4,0.4c3.6,1.8,6.1,0.9,7.5-2.8
		c0.7-1.9,1.8-2.7,3.4-3.5c2.9-1.6,5.8-3.2,8.6-4.9c1.9-1.1,3.6-2.4,6.1-2.5c2.2,0,3.9-1.8,4.2-4c0.3-2.5,1.7-4.1,3.3-5.7
		c1.2-1.3,2.2-2.7,3.5-3.8c1-0.9,1.3-2.9,2.9-2.5c1.2,0.3,2.1,1.7,3.1,2.7c0.7,0.7,0.7,1.6,0.4,2.5c-0.7,2.5-1.4,5-2.3,7.4
		c-2.2,5.7-5.2,11-8.6,16.1c-8,12.1-17.4,22.9-28.9,31.8c-5.6,4.3-11.8,7.2-18.7,8.7c-0.7,0.1-1.3,0.3-2,0.5
		c-0.5,0.2-0.8,0.6-0.8,1.2c0,0.6,0.6,0.8,1.1,0.9c0.3,0.1,0.7,0,1.6,0c5.7-0.9,11.5-3.2,16.8-6.7c4.8-3.2,9.3-6.7,13.3-10.9
		c9-9.3,17.4-18.9,23.5-30.3c2.9-5.4,5.7-10.7,7.3-16.7c0.4-1.4,0.9-1.5,2.2-0.8C-1553.2,258.7-1552.6,260-1553,262.6z"/>
	<path id="XMLID_99_" class="st0" d="M-1567.5,250.7c-1,1.4-2.2,2.7-3.4,4c-1.5,1.6-2.8,3.7-5.6,2.3c-0.5-0.2-1.3,0.3-2,0.4
		c-3.9,1-4.4,1.7-4.3,5.9c0.8,2-0.5,3.1-2.1,4c-2.6,1.5-5.2,2.9-7.7,4.4c-2.2,1.3-4.1,1.9-6.7,0.2c-2.3-1.6-5.1-0.4-6.2,2.7
		c-0.8,2.2-2,3-4,3.4c-4.9,1.1-9.9,1.9-14.9,2.4c-1.8,0.2-3.5,0.1-4.2-2.1c-0.1-0.5-0.6-0.9-0.9-1.2c-3.2-3.4-6.2-3.4-9.1,0.3
		c-1.2,1.5-2.1,1.8-3.9,1.5c-5.8-1.2-11.4-3-16.8-5.5c-1.3-0.6-2.4-1.4-2.3-3.1c0-0.3,0-0.7-0.1-1c-1.2-4.3-3.3-5.4-7.3-3.2
		c-1.5,0.8-2.5,0.7-3.7-0.2c-2.4-1.9-4.9-3.9-7.3-5.9c-1.6-1.4-2.8-2.7-2.2-5.3c0.5-2.3-1.1-3.9-3.7-3.9c-2.1,0-3.1-1-4.1-2.5
		c-2.7-4.1-4.8-8.4-6.7-12.9c-0.7-1.7-0.8-3.3-0.1-5c3.5-8.8,5.1-18.1,6.3-27.4c0.2-1.8,0.5-3.7,0.7-5.5c0.1-0.7,0.2-1.5,0.3-2.2
		c0.4-3.9,0.8-7.8,1.4-11.7c0.3-1.6-0.3-3.4,1.1-4.8c1.4,1,3,1.8,4.2,2.9c3.9,3.7,7.9,7.3,12.2,10.6c5.3,4.1,11.1,7.5,17.1,10.4
		c1.1,0.6,2.3,1.1,3.5,1.6c15.5,6.9,31.8,10.8,48.6,12.9c6,0.8,12.1,0.9,18.2,0.3c0.9-0.1,1.7-0.2,2.6-0.3c1.2-0.1,2,0.3,2.3,1.5
		c0.3,1.2,0.6,2.3,0.9,3.5c0.4,2,1,3.9,1.6,5.8c2,6.4,4.9,12.3,8.7,17.9C-1565.7,248.3-1565.7,248.4-1567.5,250.7z"/>
	<path id="XMLID_2_" class="st0" d="M-1553,262.6c-2.8,16.3-7.3,32.1-11.9,47.9c-6,20.2-12.9,39.9-21.9,59
		c-2.2,4.6-4.6,9.2-7.2,13.5c-10.4,4.1-21.3,6.7-32.6,7c-9.6,0.3-19.1-0.1-28.5-2.2c-0.4-0.1-0.7-0.2-1.1-0.3
		c-0.3-0.4-0.6-0.7-0.8-1.1c-22.4-30.1-39.4-62.8-49.8-99c-2.8-9.8-4.9-19.8-7.4-29.8c-0.4-1.5-0.2-2.7,1.1-3.7
		c0.3-0.2,0.5-0.5,0.8-0.7c1.6-1.3,2.7-3.1,4.6-4.1c1.8,1.3,2.1,3.5,3,5.3c8.4,18.4,20.3,34.3,34.8,48.3c8.2,7.9,18,13.5,28.3,18.2
		c2,0.9,4.2,1.8,6.5,1.4c0.5-0.1,1-0.3,0.9-1c-0.1-0.3-0.2-0.7-0.5-0.9c-0.4-0.3-0.9-0.4-1.4-0.6c-13.2-4.5-24.8-11.7-34.6-21.6
		c-13.6-13.7-24.7-29.1-32.4-46.8c-0.4-1-0.8-2-1.3-2.9c-0.9-1.7-1-3.3,0.4-4.8c2-2.1,2.4-5.4,5.2-6.8c1.9,2.1,2.5,4.9,4,7.2
		c1.1,1.8,2.1,3.6,3.2,5.3c1.1,1.6,1.8,3.1,1.7,5.3c-0.2,2.1,0.9,3.4,3,3.5c2.4,0.1,3.7,1.5,5.3,2.8c2.3,2.1,4.8,4,7.2,5.9
		c1.7,1.3,3.2,2.3,3.7,4.7c0.6,2.9,2.7,4.1,5.5,3.2c2.3-0.8,4-0.2,5.9,0.7c4.9,2.3,10,4,15.3,5.1c2,0.4,3.6,1,4.9,3.2
		c2.1,3.6,6.3,4,9.3,1.1c2-1.9,4-2.5,6.5-2.5c5.3-0.1,10.3-1.3,15.4-2.4c1.9-0.5,3.5-0.6,5.4,0.4c3.6,1.8,6.1,0.9,7.5-2.8
		c0.7-1.9,1.8-2.7,3.4-3.5c2.9-1.6,5.8-3.2,8.6-4.9c1.9-1.1,3.6-2.4,6.1-2.5c2.2,0,3.9-1.8,4.2-4c0.3-2.5,1.7-4.1,3.3-5.7
		c1.2-1.3,2.2-2.7,3.5-3.8c1-0.9,1.3-2.9,2.9-2.5c1.2,0.3,2.1,1.7,3.1,2.7c0.7,0.7,0.7,1.6,0.4,2.5c-0.7,2.5-1.4,5-2.3,7.4
		c-2.2,5.7-5.2,11-8.6,16.1c-8,12.1-17.4,22.9-28.9,31.8c-5.6,4.3-11.8,7.2-18.7,8.7c-0.7,0.1-1.3,0.3-2,0.5
		c-0.5,0.2-0.8,0.6-0.8,1.2c0,0.6,0.6,0.8,1.1,0.9c0.3,0.1,0.7,0,1.6,0c5.7-0.9,11.5-3.2,16.8-6.7c4.8-3.2,9.3-6.7,13.3-10.9
		c9-9.3,17.4-18.9,23.5-30.3c2.9-5.4,5.7-10.7,7.3-16.7c0.4-1.4,0.9-1.5,2.2-0.8C-1553.2,258.7-1552.6,260-1553,262.6z"/>
	<path id="XMLID_143_" class="st3" d="M-2682.5-892.9"/>
	<rect id="XMLID_534_" x="-838.3" y="-971.5" class="st4" width="510" height="80"/>
	<rect id="XMLID_533_" x="-841" y="-1066.1" class="st4" width="510" height="80"/>
	<rect id="XMLID_532_" x="-837.8" y="-1101.2" class="st4" width="510" height="80"/>
	<rect id="XMLID_531_" x="-842" y="-1247.8" class="st5" width="512" height="608"/>
	<rect id="XMLID_530_" x="-842.2" y="-1245.1" class="st6" width="514.8" height="416"/>
	<rect id="XMLID_529_" x="-841.1" y="-971.9" class="st7" width="512.7" height="336"/>
	<rect id="XMLID_528_" x="-840.8" y="-1179.1" class="st8" width="512" height="304"/>
	<rect id="XMLID_1_" x="-841.7" y="-1179.9" class="st9" width="509.8" height="510.4"/>
</g>
<g id="element">
	<g id="XMLID_495_">
		<g id="XMLID_499_">
			<path id="XMLID_527_" class="st2" d="M-524.6-894.3c0.2-6.8,0.3-13.5,1.5-20.2c0.3-1.6,0.8-2.9,2.1-4
				c5.8-5.3,10.4-11.7,14.8-18.1c9.5-14,17.2-28.9,22.3-45.1c1.4-4.5,2.5-9,3.4-13.6c0.4-2.2,1.5-3.2,3.6-3.8
				c9.4-2.7,16.5-8.6,22.2-16.3c1-1.4,1.7-3,2.4-4.6c1.7-4.2,2.7-8.6,3.1-13.1c1.1-13.5-6.6-21.7-17.7-25.6c-2.7-1-5.5-0.7-8.2,0.2
				c-2,0.6-3.9,1.4-5.9,2c-1.2,0.4-2-0.2-2.6-1.2c-0.3-0.6-0.5-1.3-0.6-2c-1.8-9.1-6.5-16.7-12.5-23.6c-6.5-7.4-14.4-13-23.1-17.6
				c-5.4-2.9-11-5.1-16.7-7.2c-10.6-3.9-21.2-7.7-31.4-12.5c-10-4.6-19.4-10.2-27.6-17.5c-3.5-3.1-6.8-6.4-9.5-10.3
				c-0.2-0.4-0.9-0.8-1.1-0.7c-0.4,0.1-0.8,0.7-0.9,1.1c-3.2,10.4-9.5,18.8-16.8,26.6c-5.4,5.7-11.2,10.9-17.4,15.7
				c-6.2,4.8-12.3,9.6-17.8,15.2c-6.1,6.3-11.1,13.3-14.3,21.5c-1.4,3.6-2.5,7.2-2.9,11c-0.2,2.2-1,2.6-3.1,2
				c-3-0.9-6.1-1.5-9.2-1.3c-2.9,0.2-4.4-1.2-5.5-3.7c-3.6-8-6-16.3-7-24.9c-1.7-14.4-1.7-28.8,0-43.1c2.8-23.1,13-42.6,29.7-58.7
				c16-15.4,35.2-20,56.7-16.8c1,0.2,2.1,0.2,3.1,0.5c1.7,0.5,3,0,4.5-0.8c12.2-6.7,25.5-9.8,39.2-11.8c14.2-2,28.3-1.6,42.4,1.9
				c14.7,3.7,28.9,8.8,42.3,15.8c12.3,6.5,22.7,15.4,31.2,26.3c10.6,13.6,19.8,28.1,25.6,44.5c6.5,18.3,8.6,37.1,6.2,56.4
				c-1,8.1-2.3,16.2-3,24.3c-1,11.1-1,22.2,0.2,33.3c1.4,12.9,4.2,25.7,6.2,38.5c1.3,8.2,2.5,16.5,2.4,24.8
				c-0.3,38.8-26.3,63.9-56.3,70.8c-14.6,3.4-29.4,5-44.4,4c-2.8-0.2-5.5-0.7-8.3-1c-1.2-0.2-1.8-0.8-1.7-2.1
				C-525-884.3-524.8-889.3-524.6-894.3z"/>
			<path id="XMLID_526_" class="st2" d="M-583.1-651.5c-63.7,0.2-127.5,0.4-191.2,0.6c-1.7,0-3.5,0-5.2-0.1
				c-1.5-0.1-2.2-1.3-1.6-2.5c0.8-1.5,1.7-3,2.6-4.5c9.5-16,18.4-32.2,25.4-49.5c6.5-15.9,11.8-32.3,15.2-49.1
				c1.4-6.6,3.1-13.2,4.3-19.8c1.2-7.2,2-14.4,2.9-21.6c0.1-0.9,0.2-1.7,0.3-2.6c0.3-2.9,1.8-4.7,4.7-5.4c10-2.6,19.1-7.3,28.2-12
				c2-1,4-2.1,6.1-3c2.8-1.2,4.4-0.3,4.9,2.6c0.4,2.2,0.6,4.5,0.9,6.7c3.4,26.5,11.6,51.4,25.4,74.3c3.8,6.3,8.1,12,13.5,17.1
				c6.3,6,13.9,9.8,21.9,12.8c7.1,2.7,14.5,4.9,21.9,6.6c9.4,2.1,18.9,2.5,28.5,2.2c11.9-0.3,23.4-3.2,34.3-7.7
				c10.5-4.3,18.8-11.7,25.7-20.6c11.5-14.8,19.6-31.5,25.6-49.2c4.6-13.7,7.5-27.8,9.2-42.1c0.7-5.7,1.8-6.4,6.9-3.9
				c3.7,1.8,7.4,3.7,11.1,5.7c6.6,3.5,13.5,6.4,20.7,8.3c3.6,1,5.1,3,5.4,6.6c0.8,7.2,1.7,14.5,2.7,21.7c1.4,9.4,4,18.6,6.1,27.9
				c6.5,28.5,17.8,55.1,32.3,80.4c2.6,4.5,5.3,9,7.9,13.5c0.7,1.2,1.6,2.3,1.8,3.7c0.2,1.3-0.5,2.5-1.8,2.7
				c-1.4,0.1-2.8,0.1-4.2,0.1c-64.3,0-128.5,0-192.8,0C-583.1-651.9-583.1-651.7-583.1-651.5z"/>
			<path id="XMLID_525_" class="st2" d="M-649-883.2c-5.7,0.5-10.1-0.6-14.5-1.3c-9.2-1.5-18.4-3.3-27.6-5c-2.2-0.4-4.4-1-6.5-1.8
				c-7.9-2.8-13.1-8.3-15.8-16.1c-3.5-10.3-2.9-20.5,1.2-30.5c1.5-3.5,3.3-6.9,5.2-10.2c8.1-14.2,12.9-29.5,14.5-45.8
				c0.1-0.7,0.1-1.4,0.2-2.1c0.5-3,1.2-3.5,4.2-2.6c0.3,0.1,0.7,0.2,1,0.3c7.9,2.8,7.2,0.7,8.2,9.6c1.3,11.2,5.2,21.6,10.5,31.4
				c8,15.1,16.9,29.5,29.2,41.6c1.7,1.6,2.2,3.4,2.1,5.6c-0.1,5-1.1,10-1.7,15c-0.3,2.6-0.6,5.2-1.1,7.7c-0.5,2.8-1.6,3.8-4.5,4.2
				C-646.3-883-648.2-883.2-649-883.2z"/>
			<path id="XMLID_250_" class="st3" d="M-512.1-1059.8c4.9,1.5,8.5,4.5,10.5,9.3c2.4,5.9,0.9,11.3-4.4,15.1c-2.4,1.7-5.1,2.9-8,3.7
				c-8,2.3-16.1,2.1-24.2,0.8c-3.8-0.6-7.3-2.1-10.5-4.3c-6.1-4.1-7.2-13.2-1.1-18.3c2.3-1.9,4.7-3.5,7.5-4.5
				c5.7-2.2,11.6-3.4,17.9-3.2C-520.2-1061.3-516.1-1061-512.1-1059.8z M-547.7-1038c1.5,1.1,3.2,2,4.9,2.8c1.3,0.7,2.1,0,1.7-1.3
				c-1.8-6.1-0.8-12,1.1-17.9c0.1-0.3,0-0.7-0.2-0.9c-0.2-0.2-0.7-0.3-0.9-0.2c-3.1,1.2-6,2.8-8.1,5.4c-1.3,1.5-2,3.3-1.9,5.4
				C-550.8-1042.1-550-1039.6-547.7-1038z"/>
			<path id="XMLID_247_" class="st3" d="M-611-1058.8c3.5,1.1,6.7,2.8,9.5,5.1c6.7,5.4,5.3,14.9-1.3,18.9c-2.2,1.4-4.5,2.6-7.1,3.2
				c-9.8,2.4-19.5,2.5-29.1-0.8c-2.3-0.8-4.5-1.9-6.4-3.4c-4.6-3.5-6-8.4-4.1-13.8c1.8-5.3,5.6-8.6,10.9-10.2
				c3.9-1.2,7.8-1.5,12-1.3C-621.4-1061.4-616.2-1060.5-611-1058.8z M-646.6-1049.8c-2.2,4.9-1,9.2,3.4,12.3c1.4,1,3,1.6,4.6,2.4
				c0.2,0.1,0.6,0,0.9-0.2c0.4-0.2,0.4-0.5,0.2-0.9c-2.9-6.6-1.1-12.9,1.4-19.1c0.2-0.6,0.5-1.2,1-2.5
				C-640.8-1056.9-644.5-1054.5-646.6-1049.8z"/>
			<path id="XMLID_511_" class="st3" d="M-481.9-983.9c-0.9,1.3-1.2,2.9-1.6,4.4c-5.6,18.4-13.9,35.5-26,50.6
				c-3.1,3.8-6.3,7.4-9.9,10.7c-1.8,1.6-2.7,3.5-2.9,5.9c-0.1,0.7-0.2,1.4-0.3,2.1c-0.4,10.8-1.9,21.5-1.4,32.2
				c0.8,16.6,6.5,31.1,19.6,42.1c2.8,2.4,5.8,4.4,9.3,5.6c4.6,1.7,9.1,3.3,13.7,5c0.8,0.3,1.7,0.4,2.3,1.1c0.2,0.2,0.3,0.7,0.2,0.9
				c-0.1,0.3-0.4,0.6-0.7,0.7c-1.2,0.3-2.4-0.2-3.5-0.6c-4.1-1.5-8.1-3-12.2-4.4c-2-0.7-2.3-0.6-2.8,1.6c-0.8,3.9-1.5,7.8-2.3,11.7
				c-3,14.8-7.5,29.2-11.8,43.7c-5.5,18.5-12.3,36.5-20.6,53.9c-4.1,8.5-8.9,16.5-14.5,24c-6.2,8.3-13.3,15.6-23.4,19.2
				c-1.6,0.6-1.6,0.9-1,2.7c0.3,1,0.8,2,0.9,3c0.6,4.4-1.8,8.4-5.7,10.1c-3.8,1.5-8.3,0.2-10.7-3.1c-2.5-3.4-2.4-8.4,0.3-11.6
				c1-1.2,2.3-2.1,3.4-3.2c-0.1-1-0.8-1.5-1.5-2.1c-17.1-14.9-30-33.1-41.4-52.5c-12.2-20.9-22.4-42.7-29.2-66c-2.6-9-5.1-18-7-27.2
				c-0.3-1.5-0.7-3.1-1-4.6c-1-4-1-4-4.6-2.1c-4.7,2.6-9.4,5.3-14.1,7.8c-0.9,0.5-1.9,0.7-2.9,1c-0.2,0.1-0.7-0.3-0.8-0.6
				c-0.1-0.2-0.1-0.8,0-0.9c0.6-0.6,1.3-1.1,2.1-1.5c3.8-2.1,7.5-4.4,11.4-6.3c13.6-7,21.9-18.3,26.9-32.4
				c2.3-6.6,3.7-13.4,4.6-20.3c1.2-8.6,1.9-17.2,2.9-25.9c0.3-3-0.4-5.2-2.6-7.4c-17.8-17-29.1-37.8-36.3-61.1
				c-0.3-0.8-0.5-1.7-0.8-2.5c-1-3-1-3-4.2-2.4c-2.9,0.6-5.9,0.7-8.8-0.1c-7.9-2.3-12.2-10.3-10-18.6c0.2-0.8,0.6-1.6,0.9-2.4
				c0.4-0.9,0.2-1.7-0.4-2.4c-0.3-0.4-0.7-0.8-1.1-1.1c-5.9-6.5-9.4-14-10.7-22.7c-0.9-5.9,0-11.4,2.5-16.7
				c4.4-9.5,14.2-14.4,24.5-12.4c2.2,0.4,4.4,0.9,6.5,1.9c0.8,0.4,1.6,1,1.1,2c-0.3,0.6-1.1,0.8-1.8,0.6c-0.8-0.3-1.7-0.5-2.5-0.8
				c-2.5-1-5.1-1.1-7.7-1.1c-8.6,0-14.4,4.2-17.9,11.9c-2.5,5.4-2.4,11.2-1.4,16.9c1.3,7,4.5,13.1,9.3,18.4c1.7,1.9,1.8,1.9,3.7,0.4
				c2-1.5,4.1-2.7,6.4-3.3c0.6-0.2,1.4-0.2,2-0.1c0.3,0,0.6,0.4,0.7,0.6c0.3,0.5,0,1.1-0.3,1.4c-0.6,0.4-1.2,0.6-1.9,0.9
				c-1.4,0.7-2.9,1.2-4.2,2.1c-2.1,1.4-2.1,2.4-0.1,3.9c3.4,2.5,7.2,4.2,11.4,4.9c2.1,0.3,3,1.3,3.2,3.3c1,6.5,2.7,12.9,4.7,19.2
				c5.5,17,13.4,32.7,24.7,46.7c9,11.1,19.5,20.2,32.1,26.9c8.9,4.6,18.3,7.4,28.2,8.6c4.8,0.6,9.7,0,14.5-0.7
				c6.3-1,12.7-2,18.8-4.1c16.6-5.6,30-15.8,41.3-28.9c13.7-15.9,22.7-34.4,28.5-54.5c1.4-4.7,2.7-9.4,3.2-14.2
				c0.2-2.2,1.3-2.9,3.2-3.2c4.5-0.8,8.6-2.8,12.2-5.6c1.4-1.1,1.4-2-0.2-2.6c-2.1-0.8-4.2-1.5-6.5-0.5c-0.7,0.3-1.5,0-1.7-0.7
				c-0.2-0.7,0.4-1.3,1-1.7c1.4-0.9,3-1,4.5-0.6c1.5,0.3,3,0.9,4.4,1.5c2.7,1.1,2.7,1.2,4.7-1.1c3.7-4.4,6.6-9.4,8.1-15
				c0.8-3.2,1.6-6.4,1.4-9.8c-0.1-1.7-0.8-2.3-2.3-1.8c-1.5,0.5-2.9,1.3-4.4,1.7c-3.8,1-5.6,2.8-5.6,7.2c0.1,4.3-3,7.6-6,10.6
				c-0.4,0.4-1,0.3-1.4,0c-0.6-0.3-0.6-0.9-0.3-1.3c0.9-1.3,1.8-2.5,2.7-3.8c1.4-2,2.5-4.1,2.7-6.7c0.1-1.4-0.3-2.2-2-2.3
				c-1.1,0-1.2-1.1-0.6-1.9c0.3-0.4,0.8-0.7,1-1.1c0.4-0.8,0-1.6-0.7-1.6c-1.9,0-2.8-0.7-2.9-2.7c0-1-1.2-1.2-2-1.2
				c-2.1,0-4.2,0.1-6.2,0.1c-0.5,0-1-0.3-1-0.9c0-0.6,0.3-1.1,0.8-1.2c3.2-0.6,6.5-1.6,9.6,0.2c1.1,0.6,2.2,1,3.4,0.1
				c3.1-2.2,6.3-4.4,9.4-6.6c0.9-0.6,0.9-1.5,0.2-2.2c-3.2-3.7-7.3-5.9-12.2-6.2c-3.8-0.3-7.6,0-11.3,1.4c-1,0.4-2,0.9-2.8-0.2
				c-0.6-0.7,0.3-1.9,2-2.5c9.6-3.5,18.4-2.4,26,5c1,1,1.7,2,3.5,1.5c1.6-0.5,2.1,0.3,1.1,2c-0.6,1-0.9,1.8-0.3,2.8
				c0.3,0.6,0.5,1.3,0.8,1.9c0.4,0.9,0.3,2.3,1.3,2.7c0.7,0.3,1.7-0.1,2.5-0.2c0.3,0,0.7-0.1,1,0.1c0.5,0.3,0.7,0.8,0.4,1.3
				c-0.1,0.3-0.4,0.6-0.7,0.7c-2.6,0.8-3.1,2.7-3,5.2c0.3,9.4-3.1,17.6-8.8,25c-0.7,1-1.6,1.9-2.3,2.8c-0.8,0.9-0.9,1.8-0.3,2.8
				c0.5,0.9,1.1,1.8,1.5,2.7c5,10.2-3.1,19.9-11.1,21.1C-474.1-980.4-476.5-980.8-481.9-983.9z M-566-766.2c-0.9,0-1.3,0.1-1.6,0
				c-0.5-0.1-1-0.3-1.1-0.9c0-0.6,0.2-1,0.8-1.2c0.6-0.2,1.3-0.4,2-0.5c6.9-1.5,13.1-4.4,18.7-8.7c11.5-8.9,20.9-19.8,28.9-31.9
				c3.3-5.1,6.4-10.4,8.6-16c0.9-2.4,1.6-4.9,2.3-7.4c0.2-0.8,0.2-1.8-0.4-2.5c-1-1-1.9-2.4-3.1-2.7c-1.6-0.4-1.9,1.6-2.9,2.5
				c-1.3,1.2-2.3,2.6-3.5,3.8c-1.6,1.6-3,3.3-3.3,5.7c-0.3,2.2-1.9,4-4.2,4c-2.5,0-4.2,1.4-6.1,2.5c-2.9,1.6-5.7,3.3-8.6,4.8
				c-1.5,0.8-2.7,1.6-3.4,3.6c-1.4,3.7-3.9,4.6-7.4,2.8c-1.9-0.9-3.5-0.8-5.4-0.4c-5.1,1.2-10.1,2.4-15.4,2.5
				c-2.5,0-4.5,0.6-6.5,2.5c-3,2.9-7.2,2.4-9.3-1.1c-1.3-2.1-2.9-2.8-4.9-3.2c-5.3-1.1-10.4-2.7-15.3-5.1c-1.9-0.9-3.6-1.5-5.9-0.7
				c-2.8,0.9-4.9-0.3-5.5-3.2c-0.5-2.4-2-3.4-3.7-4.7c-2.5-1.9-4.9-3.9-7.2-5.9c-1.6-1.4-2.9-2.7-5.3-2.8c-2.1-0.1-3.2-1.4-3-3.5
				c0.2-2.1-0.6-3.6-1.7-5.3c-1.2-1.7-2.1-3.6-3.2-5.3c-1.4-2.3-2.1-5.1-4-7.2c-2.8,1.5-3.2,4.7-5.2,6.8c-1.4,1.5-1.3,3.1-0.4,4.8
				c0.5,0.9,0.8,1.9,1.2,2.9c7.8,17.7,18.9,33.1,32.4,46.8c9.8,9.9,21.4,17.1,34.6,21.6c0.5,0.2,1,0.3,1.4,0.6
				c0.2,0.2,0.4,0.6,0.5,0.9c0.2,0.7-0.4,0.9-0.9,1c-2.3,0.3-4.5-0.5-6.5-1.4c-10.3-4.7-20.1-10.2-28.4-18.2
				c-14.5-14-26.3-29.9-34.8-48.3c-0.8-1.8-1.1-4-3-5.3c-1.9,0.9-3,2.8-4.6,4.1c-0.3,0.2-0.5,0.5-0.8,0.7c-1.3,1-1.4,2.1-1,3.7
				c2.5,9.9,4.6,19.9,7.4,29.8c10.3,36.1,27.4,68.9,49.8,99c6.9,9.2,15.2,17.1,23.8,24.8c0.3,0.2,0.5,0.5,0.8,0.7
				c2.5,2,5,2.5,8.2,1.2c6.7-2.8,12.5-6.6,17.3-12.1c8.2-9.5,14.8-20.1,20.2-31.5c9-19,16-38.8,21.9-59c4.7-15.8,9.2-31.6,11.9-47.9
				c0.4-2.6-0.2-3.9-2.2-5.1c-1.3-0.7-1.9-0.7-2.2,0.8c-1.6,5.9-4.4,11.3-7.3,16.7c-6.2,11.4-14.6,21.1-23.5,30.4
				c-4,4.1-8.5,7.7-13.3,10.9C-554.6-769.4-560.3-767.1-566-766.2z M-530.4-825.6c-0.1-4.2,0.4-4.9,4.3-5.9c0.7-0.2,1.5-0.7,2-0.4
				c2.8,1.5,4.1-0.6,5.6-2.3c1.2-1.3,2.3-2.6,3.4-4c1.8-2.4,1.8-2.5,0.1-5c-4.9-7.3-8.3-15.2-10.2-23.7c-0.3-1.2-0.6-2.4-0.9-3.5
				c-0.3-1.3-1.1-1.6-2.3-1.5c-0.9,0.1-1.7,0.2-2.6,0.3c-6.1,0.6-12.2,0.5-18.2-0.3c-16.8-2.1-33-6.1-48.6-12.9
				c-7.3-3.2-14.2-7.1-20.6-12c-4.3-3.3-8.2-6.9-12.1-10.6c-1.2-1.2-2.8-2-4.2-2.9c-1.5,1.3-0.9,3.2-1.1,4.8
				c-0.7,4.6-1.1,9.3-1.6,13.9c-1.3,11.2-2.7,22.4-6.9,33c-0.7,1.7-0.6,3.3,0.1,5c1.9,4.5,4.1,8.8,6.7,12.9c1,1.5,2,2.5,4.1,2.5
				c2.6,0.1,4.2,1.6,3.7,3.9c-0.5,2.6,0.6,4,2.2,5.3c2.4,2,4.8,3.9,7.3,5.9c1.2,0.9,2.2,1,3.7,0.2c3.9-2.1,6.1-1,7.3,3.2
				c0.1,0.3,0.1,0.7,0.1,1c-0.1,1.7,0.9,2.4,2.3,3.1c5.3,2.6,11,4.3,16.7,5.5c1.8,0.4,2.7,0,3.9-1.5c2.9-3.7,5.9-3.7,9.1-0.3
				c0.4,0.4,0.8,0.8,0.9,1.2c0.7,2.2,2.4,2.3,4.2,2.1c5-0.4,10-1.2,14.9-2.4c2-0.5,3.2-1.2,4-3.4c1.1-3.1,3.8-4.2,6.2-2.7
				c2.5,1.7,4.5,1.1,6.7-0.2c2.5-1.5,5.1-2.9,7.7-4.4C-531-822.5-529.6-823.6-530.4-825.6z M-472.5-983.4c8.8,0.1,16.6-10,11-18.7
				c-1.4-2.1-1.6-2.3-3.6-0.9c-3.4,2.4-7,4.6-11.1,5.6c-2.6,0.6-3.9,2-4,4.6c0,0.7,0,1.4-0.3,2c-1.1,2.4,0.1,4,1.8,5.4
				C-476.9-983.8-474.8-983.3-472.5-983.4z M-685.9-984.6c1.1,0.1,2.6-0.3,4-0.9c1.1-0.4,1.8-1.1,1.6-2.3c-0.3-2-0.8-4.1-1.2-6.1
				c-0.2-0.9-0.7-1.6-1.6-1.8c-4.6-1.2-8.8-3.2-12.7-5.9c-1.1-0.8-1.9-0.4-2.4,0.9C-701.1-993-695-984.7-685.9-984.6z M-573.7-666.2
				c0.1-3.7-2.3-6.5-5.8-6.7c-3.8-0.2-6.7,2.5-6.8,6.2c-0.1,3.6,3.1,6.9,6.5,6.9C-576.6-659.8-573.8-662.7-573.7-666.2z
				 M-454.8-1046.8c-0.3,0.1-0.7,0.1-1,0.3c-3,2-6,4.1-9,6.2c-0.8,0.5-1.1,1.3-0.5,2.2c0.6,0.9,1.3,1.8,2.5,1.3
				c2.4-0.9,4.8-1.9,7.3-2.8c4-1.5,3.6-1.9,2.1-5.8c-0.1-0.3-0.3-0.6-0.5-0.9C-454.2-1046.5-454.5-1046.6-454.8-1046.8z"/>
			<path id="XMLID_510_" class="st3" d="M-346.6-654.1c-9.9,1.3-19.8,1-29.6,1.5c-1,0.1-2.1,0.2-3-0.4c-0.3-0.2-0.5-0.6-0.5-0.8
				c0-0.3,0.3-0.6,0.5-0.8c0.7-0.6,1.6-0.5,2.5-0.5c12-0.4,23.9-0.9,35.9-1.3c7.6-0.3,15.3-0.6,22.9-0.9c0.7,0,1.4-0.1,2.1-0.2
				c0.8-0.2,1.2-0.8,1.1-1.5c-0.4-2-0.8-4.1-1.5-6c-3.9-10.6-8.6-20.8-13.6-30.9c-10.3-20.5-23.8-38.6-39.5-55.3
				c-17.8-18.8-38.1-34.4-59.8-48.4c-0.7-0.5-1.5-0.9-2.1-1.5c-0.3-0.3-0.6-1-0.4-1.3c0.2-0.3,0.9-0.7,1.3-0.6
				c1.1,0.4,2.2,0.9,3.2,1.6c3.7,2.3,7.4,4.6,10.9,7.2c12.4,9,24.8,17.8,35.9,28.4c13,12.3,25.2,25.4,35.6,40
				c5.1,7.1,9.7,14.4,13.8,22.1c6.2,11.5,11.9,23.2,16.4,35.4c1.3,3.4,2.4,6.9,2.5,10.6c0,2.1-0.6,2.9-2.7,3c-5,0.3-10,0.7-15.1,0.8
				C-335.5-654-341.1-654.1-346.6-654.1z"/>
			<path id="XMLID_509_" class="st3" d="M-814-652.4c-13.4-0.6-23.1-1-32.8-1.4c-0.5,0-1,0-1.6,0c-3.5-0.2-4.3-1.1-3.5-4.7
				c0.6-2.9,1.3-5.8,2.3-8.5c4.7-13.1,10.8-25.5,17.5-37.7c9.6-17.4,21.8-32.9,35.5-47.4c17.3-18.3,37.1-33.5,58-47.3
				c1.6-1,3.1-2.2,5-2.7c0.6-0.2,1,0.2,1.2,0.7c0.1,0.3,0,0.8-0.2,0.9c-1.1,0.9-2.2,1.7-3.3,2.4c-14.7,9.3-28.7,19.6-41.6,31.2
				c-24.9,22.2-45.6,47.6-59.7,78c-3.7,8-7.1,16.2-10.5,24.4c-0.1,0.3-0.2,0.7-0.3,1c-2.4,7.7-1.2,7,5,7.2
				c14.9,0.5,29.8,1.2,44.7,1.7c3.6,0.1,7.3,0.2,10.9,0.4c0.8,0,1.7,0.3,2.5,0.5c0.2,0.1,0.4,0.6,0.3,0.9c0,0.3-0.2,0.7-0.5,0.8
				c-0.9,0.6-2,0.4-3,0.4C-798-652-807.9-651.8-814-652.4z"/>
			<path id="XMLID_246_" class="st3" d="M-538.8-1093c12,0.4,22,4.4,31,11c1.2,0.9,2.4,2,3.5,3.1c1.4,1.5,1.8,3.3,1,4.2
				c-1.1,1.3-2.5,1-3.8,0.6c-1.3-0.4-2.6-0.9-3.9-1.4c-6.1-2.5-12.4-4.3-19-5.1c-2.7-0.3-5.5-0.5-8.3-0.7c-0.9-0.1-1.7,0-2.6-0.1
				c-4.5-0.5-6.4-2.9-5.8-7.4c0.3-2.5,1.9-4,4.5-4.3C-540.9-1093.1-539.5-1093-538.8-1093z"/>
			<path id="XMLID_245_" class="st3" d="M-622.7-1078.3c-8,0-15.9,1-23.7,2.8c-2.2,0.5-4.4,0.9-6.6,1.2c-0.7,0.1-1.3-0.4-1.6-1.1
				c-0.3-0.7,0-1.4,0.6-1.8c0.8-0.6,1.7-1.2,2.6-1.7c11.2-5.8,23-9.5,35.6-10.6c1-0.1,2.1-0.1,3.1,0.1c1.4,0.2,2.2,1,2.3,2.4
				c0.2,2.1,0.4,4.1,0.6,6.2c0.2,2-0.6,3-2.5,3.1c-1.2,0.1-2.4,0-3.6-0.1C-618.1-1078-620.4-1078.2-622.7-1078.3z"/>
			<path id="XMLID_506_" class="st3" d="M-577.1-966.3c-9.7,0.3-19-1.7-28.1-4.6c-6.4-2.1-11.9-5.5-17-9.7c-0.5-0.4-1-0.9-1.5-1.5
				c-0.6-0.6-1.2-1.3-0.8-2.3c0.3-0.7,1.6-0.5,2.6,0.5c8.6,8.3,19.4,11.7,30.8,13.8c5.3,1,10.7,1.1,16,1.2c9.2,0.2,17.8-2.2,26.1-6
				c5.9-2.7,11.2-6.2,16.5-9.9c1.3-0.9,2.6-1.7,3.9-2.5c0.4-0.3,1.1-0.1,1.3,0.4c0.1,0.4,0,1-0.1,1.4c-0.1,0.3-0.4,0.5-0.7,0.7
				c-10.5,7.8-21.6,14.5-34.6,17.3C-567.5-966.2-572.3-966.4-577.1-966.3z"/>
			<path id="XMLID_505_" class="st3" d="M-577.4-995.7c-2.8-0.1-5.5-0.2-8.3-0.5c-0.7-0.1-1.3-0.7-0.9-1.5c0.2-0.4,0.7-0.9,1.1-1
				c1-0.1,2.1,0,3.1,0.1c5.2,0.4,10.4,0.5,15.5-0.6c1.2-0.3,2.4-0.5,3.5-0.9c2.6-0.9,3.9-2.8,3.9-5.5c0-1.5-0.3-3.1-0.6-4.6
				c-2.7-13.6-6-27.1-9.5-40.5c-0.7-2.8-1.3-5.7-1.9-8.6c-0.2-0.7,0.2-1.4,1-1.5c0.8-0.1,1.3,0.5,1.5,1.2c0.5,1.8,0.8,3.7,1.3,5.6
				c3.7,13.9,7.1,27.9,10,42c0.5,2.2,0.8,4.4,0.7,6.7c-0.1,4.4-2.1,7.2-6.5,8.3c-2.8,0.7-5.7,1.4-8.7,1.3c-1.7-0.1-3.5,0-5.2,0
				C-577.4-995.7-577.4-995.7-577.4-995.7z"/>
			<path id="XMLID_504_" class="st3" d="M-578.8-952.1c-5.6,0.2-11-0.3-16.4-1.9c-2-0.6-3.9-1.3-5.6-2.5c-0.3-0.2-0.6-1-0.5-1.3
				c0.1-0.3,0.8-0.6,1.2-0.7c0.5,0,1,0.2,1.5,0.4c10.6,4.6,21.5,4.3,32.6,2.3c1.5-0.3,3-0.7,4.6-0.9c0.7-0.1,1.4,0,1.7,0.8
				c0.3,0.9-0.4,1.3-1,1.5c-4.4,1.1-8.7,2.1-13.2,2.3C-575.7-952-577.3-952.1-578.8-952.1z"/>
			<path id="XMLID_503_" class="st3" d="M-685.3-1040.6c-7.3-1.6-12,7.1-9.9,13.2c0.7,2,1.8,3.7,3.1,5.4c0.7,1,1.4,2,2,3
				c0.1,0.2-0.1,0.7-0.3,0.9c-0.2,0.2-0.6,0.4-0.9,0.4c-0.3,0-0.7-0.2-0.9-0.4c-3.8-3.8-6.5-8.1-6.1-13.8c0.3-4.3,2.4-7.5,5.8-10
				c1.9-1.3,4-2,6.4-1.4c1.5,0.4,3.2-0.1,4.5,1c0.2,0.2,0.4,0.6,0.3,0.9c0,0.3-0.3,0.8-0.5,0.8
				C-682.9-1040.6-684.1-1040.6-685.3-1040.6z"/>
			<path id="XMLID_502_" class="st3" d="M-699.2-1051c1.2,0,2.3,1.1,2.4,2.3c0.1,1.5-1.3,2.8-3.1,2.8c-1.1,0-2.3-1.3-2.1-2.5
				C-701.9-1049.8-700.5-1051-699.2-1051z"/>
			<path id="XMLID_501_" class="st3" d="M-701.5-1042.2c0.1,1.4-1,2.7-2.4,2.9c-1.2,0.2-2.4-0.7-2.6-2c-0.2-1.6,1-3.2,2.6-3.2
				C-702.8-1044.5-701.5-1043.3-701.5-1042.2z"/>
			<path id="XMLID_500_" class="st3" d="M-575.3-762.5c-1.8,0-3.2-1.7-3.3-3.8c0-2.4,1.6-4,3.7-3.9c1.7,0.1,2.9,1.5,3,3.5
				C-571.8-764.3-573.3-762.5-575.3-762.5z"/>
		</g>
		<g id="XMLID_496_">
			<circle id="XMLID_498_" class="st1" cx="-508.2" cy="-1002.4" r="20.1"/>
			<circle id="XMLID_497_" class="st1" cx="-643.6" cy="-1002.4" r="20.1"/>
		</g>
	</g>
	<rect id="XMLID_130_" x="-1182.4" y="-1688.4" class="st4" width="510" height="80"/>
	<rect id="XMLID_129_" x="-1185" y="-1782.9" class="st4" width="510" height="80"/>
	<rect id="XMLID_124_" x="-1181.9" y="-1818" class="st4" width="510" height="80"/>
	<rect id="XMLID_123_" x="-1186" y="-1964.6" class="st5" width="512" height="608"/>
	<rect id="XMLID_122_" x="-1186.2" y="-1961.9" class="st6" width="514.8" height="416"/>
	<rect id="XMLID_121_" x="-1185.2" y="-1688.8" class="st7" width="512.7" height="336"/>
	<rect id="XMLID_120_" x="-1184.8" y="-1896" class="st8" width="512" height="304"/>
	<rect id="XMLID_119_" x="-1185.7" y="-1896.7" class="st9" width="509.8" height="510.4"/>
</g>
<g id="elementplacer">
	<path id="XMLID_141_" class="st10" d="M251.3,51.9c0.4-4.5,0.9-9.9,1.5-15.4c0.6-6.5,1.3-13,2-19.5c0.2-2.2,0.4-4.4,1.3-6.5
		c0.1-0.2,0.6-0.4,0.8-0.4c0.3,0,0.6,0.2,0.8,0.5c0.6,0.9,0.3,2,0.2,3c-0.3,3.6-0.7,7.2-1.1,10.8c-0.8,7.9-1.7,15.7-2.5,23.6
		c-0.4,3.9-0.8,7.9-0.3,11.8c0.7,6.6,3,8.7,9.6,8.9c6,0.2,11.5-1.6,17.1-3.5c2.1-0.7,3.2-2.4,3.4-4.7c0.4-3.8-0.4-7.5-1-11.2
		c-1.6-9.3-4.7-18.3-7.1-27.4c-0.9-3.3-2-6.6-3-9.9c-0.2-0.8-0.3-1.7-0.4-2.5c0-0.2,0.4-0.5,0.7-0.6c0.3-0.1,0.8,0,0.9,0.2
		c0.5,0.7,1,1.4,1.2,2.2c1,2.9,2,5.9,2.8,8.9c2.5,9.1,5.6,18.1,7.3,27.4c0.8,4.2,1.6,8.4,1.4,12.8c-0.1,3.5-1.7,6.1-4.9,7.3
		c-6.8,2.5-13.8,4.4-21.1,3.6c-0.8-0.1-1.7-0.2-2.5-0.5c-3.9-1.2-5.9-4-6.6-7.8C251.1,59.4,251.4,56.2,251.3,51.9z"/>
	<g id="XMLID_7_">
		<path id="XMLID_14_" class="st11" d="M-2164.3,80.1c-1.5-16.6-3.6-33.2-6.4-49.6c-3.7-21.4-8.8-42.5-15.8-63
			c-6.9-20.1-15.6-39.4-27.4-57.1c-8.7-13.2-18.8-25-31.1-35.1c-19.8-16.3-42.6-24.9-68.2-26.2c-11.9-0.6-23.7,0.9-35.4,3.4
			c-12,2.6-23.5,6.5-34.8,11.5c-2.3,1-4.5,1.5-7,1.1c-6.6-1.2-13.1-0.3-19.5,1c-13.6,2.7-25,9.5-34.9,19
			c-11.1,10.6-19.3,23.3-26.1,36.9c-7,13.9-12.2,28.5-16.4,43.4c-5.9,20.7-9.8,41.9-12.7,63.2c-2.2,16.4-3.7,32.8-4.8,49.3
			c-1.2,18.2-1.5,36.5-1.4,56.9c-0.1,13.6,0.3,28,1,42.8c-0.1,13.6,0.1,26,0.2,36.8c0.8,58.5,9.2,106.6,16.7,139.3
			c56.6,6.4,124.5,9.2,200.7,2c38.3-3.6,73.8-9.3,106-16c4.7-28.2,9.3-56.4,14-84.7c0-0.6,0-1.1,0-1.7c0.1-0.5,0.2-1,0.3-1.6
			c0.1-0.9,0.1-1.7,0.2-2.6c0.5-6,1.1-12,1.6-18c0.9-11.7,2-23.3,2.6-35c0.6-11.5,0.9-23.1,1.1-34.6
			C-2161.2,134.4-2161.8,107.2-2164.3,80.1z"/>
		<g id="XMLID_8_">
			<path id="XMLID_13_" class="st10" d="M-2363.2-89.5c0.2,0,0.6-0.1,0.9,0c0.5,0.2,0.9,0.5,1.3,0.8c12,9.4,25.8,15,40.1,19.6
				c12.3,4,24.6,7.9,36.8,12c5.4,1.8,10.6,4,15.9,6.2c10.3,4.4,19.2,10.8,26.5,19.3c3.9,4.6,7.9,9.1,11.3,14.1
				c1.2,1.7,2.5,3.4,2.5,5.6c0,0.3-0.2,0.7-0.5,0.9c-0.4,0.3-1,0.2-1.3-0.1c-0.2-0.2-0.4-0.5-0.6-0.8c-3.9-7.2-9.4-13.2-14.8-19.2
				c-6.4-7.2-14.1-12.6-22.9-16.5c-6.7-3.1-13.6-5.8-20.7-8.1c-10.6-3.5-21.3-6.9-31.9-10.4c-9.5-3.1-18.8-6.6-27.7-11.2
				c-4.8-2.5-9.2-5.4-13.5-8.6c-0.8-0.6-1.5-1.4-2.1-2.2C-2364.1-88.6-2363.7-89.2-2363.2-89.5z"/>
			<path id="XMLID_10_" class="st10" d="M-2276.4-86.4c-0.1,1.7-0.8,3.6-2,5.4c-1.2,1.9-1.2,2,0.3,3.5c5.6,5.6,11.7,10.7,19.3,13.5
				c0.6,0.2,1.3,0.5,1.9,0.8c0.7,0.3,1.3,0.7,1.1,1.5c-0.3,1.1-1.3,1-2.1,0.8c-1.3-0.3-2.7-0.7-3.9-1.3c-5.8-2.4-10.7-6.2-15.3-10.4
				c-1.7-1.5-3-3.5-5-4.4c-2.1-1-4.2,1-6.4,1.3c-5.5,0.9-11,0.7-16.4-0.1c-4.6-0.7-9.1-2-13.5-3.5c-11.4-3.9-22.3-9-32.5-15.7
				c-0.8-0.5-1.9-1-1.7-2.3c0.1-0.8,1.6-0.8,3.1,0.1c8,5.2,16.4,9.4,25.2,12.9c7,2.8,14.2,5.2,21.8,6.1c5.5,0.7,11,0.7,16.3-1
				c1.5-0.5,1.8-1.2,1.1-2.7c-0.3-0.6-0.6-1.2-0.9-1.9c-0.7-1.6-1.2-3.2-1.3-5c-0.1-2.6,0.8-4.2,2.8-5c2.3-0.9,4.9,0,6.4,2.1
				C-2277.2-90.6-2276.4-88.2-2276.4-86.4z M-2279.2-86.7c-0.2-0.9-0.3-1.9-0.7-2.9c-0.5-1.3-2.2-1.9-3.4-1.4
				c-1.1,0.5-1.3,1.6-1,2.6c0.4,1.5,1,2.9,1.6,4.3c0.3,0.8,0.8,1.7,1.8,1.5c0.5-0.1,1-1,1.2-1.6
				C-2279.5-84.9-2279.4-85.7-2279.2-86.7z"/>
			<path id="XMLID_9_" class="st10" d="M-2415.4-32.7c-0.5-0.2-0.8-0.4-1.1-0.6c-0.1-0.1-0.2-0.3-0.1-0.5c0.2-0.5,0.3-1,0.6-1.4
				c9-11.1,15.2-23.7,20.6-36.8c1.2-3,2.4-6.1,3.7-9.1c0.1-0.4,0.8-0.7,1.2-0.7c0.9,0.1,1,0.9,0.9,1.5c-0.1,0.7-0.3,1.4-0.5,2
				c-4.9,13.6-11.2,26.6-19.2,38.7c-1.3,2-2.7,4-4.5,5.6C-2414.3-33.3-2415-33-2415.4-32.7z"/>
		</g>
	</g>
	<g id="XMLID_3_">
		<path id="XMLID_149_" class="st10" d="M-407.1,37c-6.3,0.2-11.1-0.7-15.9-2.1c-2.8-0.8-5.4-2.2-7.7-4.1c-4.1-3.4-5.3-7.9-3.7-12.9
			c1.7-5.1,5-8.5,10.1-10.2c5.1-1.7,10.4-2.2,15.7-1.8c5.3,0.5,10.5,1.4,15.5,3.6c2.7,1.2,5.1,2.8,7.3,4.7c5.2,4.7,4.3,13.2-1,17.1
			c-3.2,2.4-6.9,3.8-10.8,4.6C-401.1,36.8-404.7,37-407.1,37z M-395.8,11.5c-0.6,1.5,0.2,2.5,0.5,3.6c1.2,4.8,1.3,9.5,0,14.2
			c-0.3,1-1.8,2.2-0.5,3.1c1,0.7,2.3-0.3,3.4-0.8c1.2-0.6,2.5-1.2,3.6-2c5-3.6,5.4-9.5,0.9-13.7C-390.2,13.9-392.8,12.3-395.8,11.5z
			"/>
		<path id="XMLID_146_" class="st10" d="M-314.3,37c-4.2-0.1-9-0.4-13.6-2c-2.1-0.7-4.1-1.7-6-2.9c-6.2-4-7.6-13.2-1.2-18.5
			c2.3-1.9,4.7-3.4,7.5-4.4c8.9-3.2,18-4.3,27.3-2.3c6.5,1.4,11.2,4.8,13.2,11.5c1.5,4.9,0.1,8.8-3.4,12.1c-2.3,2.2-5.1,3.5-8.1,4.4
			C-303.4,36.4-308.4,37.3-314.3,37z M-300.1,32.5c2.9-0.6,4.8-1.6,6.7-2.9c4.3-3.1,5.5-7.4,3.3-12.2c-2.5-5.6-7.3-7.7-13.6-8.2
			C-298.3,16.5-295.6,23.7-300.1,32.5z"/>
		<path id="XMLID_145_" class="st10" d="M-301-5.2c-8.3-0.2-16.4-1.5-24.4-3.5c-2.5-0.6-4.9-1.6-7.1-3.1c-1.8-1.2-3.4-2.6-3.2-4.9
			c0.2-2.5,2.1-3.8,4.3-4.6c3.5-1.3,7.1-1.3,10.7-1.3c7.8,0,15.3,1.8,22.6,4.6c1.9,0.7,3.7,1.8,5.4,3c1,0.6,1.8,1.6,2.5,2.6
			c2,2.9,0.9,5.9-2.5,6.7c-1.5,0.3-3.1,0.3-4.6,0.4C-298.6-5.1-299.8-5.2-301-5.2z"/>
		<path id="XMLID_144_" class="st10" d="M-393.6-23.5c2.4,0.2,4.8,0.2,7.2,0.5c2,0.3,4.3,0.8,4.8,3.3c0.4,2.2-1.1,3.9-2.7,5.2
			c-1.6,1.3-3.4,2.3-5.3,3.1c-7.5,3.1-15.3,5-23.4,5.8c-2.9,0.3-5.8-0.4-8.7-1c-0.8-0.2-1.6-0.6-2.3-1.1c-1.9-1.3-2.4-3.4-1.4-5.4
			c1-1.9,2.5-3.3,4.4-4.3c1.9-0.9,3.7-1.8,5.7-2.4C-408.3-22.1-401.1-23.5-393.6-23.5z"/>
	</g>
	<g id="XMLID_4_">
		<path id="XMLID_134_" class="st10" d="M966.9,187.7c-9.4-0.3-17.1-3.1-23.1-9.8c-1-1.1-2.1-2.3-2.5-3.8c-0.1-0.5-0.2-1,0.3-1.4
			c0.5-0.3,1-0.4,1.4,0c0.8,0.9,1.6,1.8,2.3,2.7c9.3,10.7,26,12.6,37.5,4.3c2.7-1.9,4.9-4.3,6.6-7.2c0.5-0.9,1.1-1.7,1.7-2.5
			c0.2-0.2,0.6-0.3,0.9-0.2c0.5,0.1,0.9,0.5,0.9,1.1c0.1,1.1-0.5,2-1,2.9c-4.2,7.4-10.8,11.4-18.9,13.2
			C970.8,187.4,968.5,187.5,966.9,187.7z"/>
		<path id="XMLID_133_" class="st10" d="M966.1,195.8c-3.1-0.1-6.4-0.4-9.4-1.8c-0.9-0.4-2.2-0.7-1.8-2c0.4-1.4,1.6-0.9,2.6-0.5
			c3.6,1.6,7.3,1.8,11.1,1.6c2.6-0.1,5-1,7.5-1.7c2.6-0.8,4.2-0.6,4,0.4c-0.3,1.8-2,1.7-3.2,2.1
			C973.4,195.1,969.9,195.8,966.1,195.8z"/>
	</g>
</g>
<g id="Warstwa_6">
</g>
</svg>
