<?xml version="1.0" encoding="utf-8"?>
<!-- Generator: Adobe Illustrator 19.0.0, SVG Export Plug-In . SVG Version: 6.00 Build 0)  -->
<svg version="1.1" xmlns="http://www.w3.org/2000/svg" xmlns:xlink="http://www.w3.org/1999/xlink" x="0px" y="0px"
	 viewBox="0 0 512.7 336" style="enable-background:new 0 0 512.7 336;" xml:space="preserve">
<style type="text/css">
	.st0{fill:#EBB0AE;}
	.st1{fill:#CB8481;}
	.st2{fill:#392E38;}
	.st3{display:none;}
	.st4{display:inline;}
	.st5{fill:#39323A;}
	.st6{fill:#FFFFFF;}
	.st7{fill:#DAADAC;}
	.st8{fill:#E18581;}
</style>
<g id="BACKGROUND">
</g>
<g id="Warstwa_3">
</g>
<g id="OBJECTS">
	<g id="XMLID_176_">
		<g id="XMLID_453_">
			<circle id="XMLID_455_" class="st0" cx="357.3" cy="-1679.4" r="20.1"/>
			<circle id="XMLID_454_" class="st0" cx="221.9" cy="-1679.4" r="20.1"/>
		</g>
		<g id="XMLID_177_">
			<path id="XMLID_452_" class="st1" d="M285-1803.5c-1.7,0.5-2.4,1.9-3.4,2.8c-5.2,4.6-11.1,6.8-18.2,5.8c-2.8-0.4-5.5-0.9-8.2-1.6
				c-2.5-0.7-2.5-0.7-3.9,1.7c-0.9,1.5-1.7,3-2.8,4.4c-4.5,5.8-11.1,7.8-18.1,5.6c-2.3-0.7-4.6-1.7-6.9-2.5c-1,1.3-1.1,2.9-1.4,4.3
				c-1.9,7.5-6.3,12.2-14.4,12.9c-2.4,0.2-4.8,0.5-7.2,0.8c-2,0.2-2.4,0.6-2,2.6c1.1,5.8,0.2,11.4-2,16.8c-1.8,4.5-4.4,8.3-8.6,10.8
				c-2,1.2-3.2,2.6-3.2,4.9c0,1.2-0.6,2.4-1.3,3.3c-1.6,2-3.2,3.2-6.2,2.5c-5-1.2-10-0.6-14.5,2.4c-5.1,3.5-8.4,8.3-9.4,14.4
				c-0.6,4.1-0.9,8.2-0.3,12.4c0.8,5.7,2.9,10.7,6.7,14.9c2,2.2,4,4.3,5.9,6.6c1.3,1.6,1.1,2.8-0.6,3.9c-1.9,1.3-4,2-6.3,2.3
				c-3.2,0.4-6.2,0-9.2-1.2c-6.5-2.5-9.9-8.2-9.4-15.2c0.2-2.4,2.3-4.9,0.8-6.9c-1.2-1.7-3.7-2.4-5.6-3.7
				c-7.8-5.4-13.6-12.2-16-21.7c-2.7-10.5,1.3-23.7,11.6-30c1.2-0.8,3.3-1.1,3.3-2.9c-0.1-1.2-1.2-2.4-2-3.6
				c-2.4-3.6-3.5-7.6-3.8-11.8c-0.5-6.7,0.5-13.2,4-19c3-5,7.4-8.2,13.2-9.2c2.8-0.5,2.9-0.6,2.4-3.6c-1.1-7-0.6-13.9,2.2-20.4
				c2.8-6.6,7.4-11.2,14.2-13.6c2.6-0.9,2.7-1,2-3.7c-2.6-10.5-0.4-20.1,5.9-28.6c7.3-9.9,17.3-15.5,29.5-16.5
				c6.4-0.5,12.4,1.4,17.6,5.3c1.4,1,2.7,2.1,4.1,3.2c0.4,0.3,1,0.3,1.3-0.2c0.6-1,1.2-2.1,1.8-3.2c2.7-4.5,6.2-8.4,10.8-11.1
				c8.6-5,17.4-5.4,26.4-1c4.9,2.4,9.3,5.4,13.6,8.7c0.8,0.6,1.4,1.5,2.7,1.7c1.2-1.5,2.5-3.2,3.8-4.8c2.8-3.6,6.3-6.4,10.3-8.6
				c4.4-2.4,9.1-3.3,14.1-3.1c7.5,0.4,13.2,3.9,17,10.3c1.8,3.1,3.3,6.5,5,9.7c1,2,1.1,2.1,3.1,1c9.1-4.8,18.9-6.8,29.2-6
				c17.7,1.3,28.4,13.9,31,25.2c0.7,3,0.9,6.2,1.3,9.3c0.4,2.8,0.4,2.9,3.4,3.4c4.3,0.7,8.5,1.5,12.7,2.8c5.9,1.8,11.2,4.7,15.6,9.1
				c6.8,6.7,10.1,14.8,9,24.5c-0.4,3.3-1.6,6.4-2.8,9.4c1.2,1.2,2.6,1.2,3.9,1.5c16.9,4.7,29.7,19.9,31,37.2
				c0.4,5.1-0.9,10-3.5,14.5c-2.1,3.8-4.5,7.4-7.4,10.7c-1.6,1.8-1.8,3.5-0.8,5.7c0.8,1.7,1.2,3.6,1.5,5.5c1.1,6.8-0.1,13-3.9,18.9
				c-3.6,5.6-8,10-14.1,12.7c-0.3,0.1-0.6,0.3-0.9,0.5c-2.6,0.9-4.2,2.5-5.1,5.3c-1.4,4.6-4.3,8.3-8,11.3c-3.4,2.8-7.2,4.8-11.5,5.8
				c-6.1,1.5-11.7,0.2-17-2.9c-2.1-1.3-2.1-3.2-0.1-4.5c11.2-7.1,15.6-17.7,15.5-30.5c-0.1-5.5-1.9-10.6-4.6-15.3
				c-1.7-2.9-4.2-5.1-7.3-6.4c-4.1-1.6-8.2-2.6-12.7-1.8c-4.7,0.9-7.6-0.7-9.7-5c-1.6-3.2-2.2-6.6-2.2-10.1c0-4.9,0.8-9.7,1.8-14.4
				c0.5-2,0.2-2.3-2-2.6c-1.7-0.2-3.4-0.5-5.2-0.6c-7.2-0.7-12.3-4.3-15.3-10.9c-1.1-2.4-1.1-2.4-3.9-1.8c-2.7,0.6-5.5,1-8.2,1.1
				c-3.5,0.1-6.9-0.6-10.1-2c-4.4-1.9-7.6-4.8-9.3-9.3c-0.3-0.8-0.7-1.6-1-2.4c-0.3-0.7-1-0.9-1.7-0.8c-1.7,0.4-3.4,0.8-5.1,1.2
				c-3.6,0.8-7.2,1.2-10.8,0.9c-7.7-0.6-13.4-4.3-17.1-11.1C287.1-1798.7,286.2-1801,285-1803.5z"/>
			<path id="XMLID_451_" class="st1" d="M288.5-1374.7c-34.2,0-68.4-0.1-102.6,0c-27.4,0.1-54.9,0.2-82.3,0.6
				c-16.8,0.3-33.6,1.1-50.5,1.8c-6.4,0.2-12.8,0.5-19.3,0.7c-2.9,0.1-3.4-0.5-2.7-3.4c0.9-3.7,2-7.4,3-11.1c0.3-1.1,1-1.8,2.2-1.9
				c0.7-0.1,1.4-0.1,2.1-0.1c9.4-0.4,18.7-0.7,28.1-1.2c28.4-1.6,56.9-2,85.3-2.5c28.5-0.4,56.9-0.3,85.4-0.4
				c21.4-0.1,42.7,0,64.1-0.3c15.3-0.2,30.5-1,45.8-1.6c11.1-0.4,22.2-0.9,33.3-1.2c24.8-0.8,49.6-1.5,74.4-2.3
				c12.1-0.4,24.3-0.7,36.4-0.9c15.6-0.3,31.2,0.2,46.8,0.9c3.3,0.1,3.4,0.1,4.3,3.3c1.2,4,2.2,8,3.2,12.1c0.5,1.9,0,2.5-2.1,2.4
				c-2.9,0-5.9-0.1-8.8-0.3c-14.2-0.8-28.5-0.9-42.7-0.7c-20.1,0.3-40.3,0.9-60.4,1.4c-11.1,0.3-22.2,0.5-33.3,1
				c-20.5,0.8-40.9,1.7-61.4,2.6c-2.9,0.1-5.9,0.2-8.8,0.3c-13.2,0.3-26.4,0.7-39.6,1C288.5-1374.6,288.5-1374.7,288.5-1374.7z"/>
			<path id="XMLID_450_" class="st1" d="M287-1405.6c-59.3,1.2-121.1,0.8-182.9,1.3c-19.1,0.2-38.2,0.5-57.3,0.8
				c-1.6,0-3.1,0-4.7-0.1c-0.5,0-0.8-0.5-0.8-1.1c0-0.3,0.2-0.7,0.3-1c2-3.8,4.1-7.7,6-11.5c0.9-1.8,2.2-2.5,4.1-2.5
				c3.1,0,6.2-0.3,9.4-0.3c38.7-0.6,77.4-1.4,116.1-1.6c29.3-0.2,58.7-0.7,88-1.1c19.6-0.3,39.2-0.4,58.8-0.9
				c18.7-0.4,37.5-1.3,56.2-1.8c23.4-0.6,46.9-1.3,70.3-0.9c24.1,0.4,48.3,0.8,72.4,1.2c2.4,0,4.9,0.2,7.3,0.3
				c1.1,0.1,1.9,0.6,2.4,1.7c1.9,4.5,3.7,9,5,13.7c0.4,1.3-0.2,2-1.5,2.1c-0.5,0-1,0-1.6,0c-18.4-0.3-36.8-0.3-55.2-0.8
				c-22.7-0.7-45.5-0.7-68.2-0.4c-16.8,0.2-33.7,1-50.5,1.5c-2.8,0.1-5.6,0.2-8.3,0.2C331.5-1406.4,310.5-1405.4,287-1405.6z"/>
			<path id="XMLID_449_" class="st1" d="M292.1-1443c-15.5,0-30.9-0.1-46.4,0c-21.9,0.2-43.7,0.6-65.6,1.1
				c-20.1,0.5-40.2,1.3-60.4,2c-17.3,0.6-34.7,1.3-52,1.8c-2.2,0.1-4.5,0.4-6.7-0.3c0-2.8,2.4-4,3.9-5.8c2.3-2.6,4.9-4.9,7.2-7.5
				c2-2.2,4.3-3.2,7.3-3.2c5.9-0.1,11.8-0.5,17.7-0.7c12.8-0.5,25.7-0.9,38.5-1.5c26.5-1.3,53.1-2.1,79.6-2.8
				c28.3-0.7,56.6-1.1,84.9-0.8c25.5,0.3,51,0.5,76.6,1c32.5,0.7,64.9,0.6,97.4,1c12,0.1,24,0.5,35.9,0.5c2.8,0,4.5,1,5.9,3.3
				c2.5,4.2,5.5,8,7.6,12.4c0.6,1.2,0.1,2-1.3,2c-4.2,0-8.3,0-12.5-0.1c-22.4-0.2-44.8-0.4-67.2-0.7c-39.4-0.5-78.8-0.9-118.2-1.4
				c-10.8-0.1-21.5-0.4-32.3-0.6C292.1-1443.1,292.1-1443.1,292.1-1443z"/>
			<path id="XMLID_448_" class="st1" d="M322.2-1479.8c0.7-1.4,2.1-1.4,3.1-1.8c3.7-1.6,7.4-2.9,11.1-4.5c5.1-2.2,10-4.9,14.2-8.6
				c2.4-2.1,4.9-2.8,8-2.8c20.1,0.1,40.3,0,60.4,0.2c18.2,0.1,36.4,0.6,54.7,0.7c2.8,0,5,0.8,7.1,2.5c4.9,4.1,9.9,8.2,14.8,12.3
				c0.7,0.5,1.3,1.2,1.8,1.9c0.3,0.4,0.4,1.1-0.4,1.1c-2.1,0.1-4.2,0.2-6.2,0.1c-23.1-0.3-46.2-0.7-69.3-1
				c-30.9-0.4-61.8-0.2-92.7,0.1C326.7-1479.5,324.4-1479.2,322.2-1479.8z"/>
			<path id="XMLID_447_" class="st1" d="M267.9-1479.2c-1.4,1.1-2.8,0.8-4.1,0.8c-16,0.2-31.9,0.6-47.9,0.6
				c-36.6,0.1-73.2,0.2-109.9,0.2c-1.4,0-2.8,0-4.2-0.1c-0.3,0-0.7-0.2-0.8-0.5c-0.1-0.3,0-0.8,0.2-0.9c1.5-1.2,3-2.3,4.6-3.4
				c5-3.5,10-6.8,15.5-9.6c3-1.5,6.1-2.3,9.5-2.3c12,0,23.9-0.2,35.9-0.3c20-0.2,39.9-0.4,59.9-0.7c3.1-0.1,5.5,0.8,8.1,2.6
				c7.5,5.2,15.9,8.4,24.7,10.8C262.2-1481.2,265.1-1480.5,267.9-1479.2z"/>
			<path id="XMLID_446_" class="st1" d="M376.7-1510.9c-2.2,0-4.4,0-6.7,0c-1.4,0-1.8-0.8-0.9-2c2.7-3.9,5.3-7.7,7.2-12
				c0.5-1.2,1.4-1.9,2.8-2c1.7-0.1,3.4-0.4,5.2-0.5c7.1-0.4,14.2-0.6,21.3-1.1c3.3-0.2,6.5,0.3,9.7,1.5c9.4,3.5,18.8,7.1,27.9,11.3
				c0.8,0.4,1.6,0.7,2.3,1.2c0.2,0.1,0.3,0.6,0.3,0.9c0,0.1-0.2,0.2-0.4,0.2c-0.9,0.1-1.7,0.2-2.6,0.2c-17.5,0.5-35,0.9-52.5,1.4
				C385.8-1511.6,381.3-1511.2,376.7-1510.9z"/>
			<path id="XMLID_445_" class="st1" d="M155.5-1507c0.5-1.6,1.8-1.7,2.9-2.1c5.8-2.3,11.6-4.5,17.4-6.8c4.6-1.9,9.2-4,13.7-6.2
				c2.1-1,4.1-1.7,6.4-1.6c2.8,0.2,5.7-0.5,8.2,0.4c2.4,0.8,2.9,4.1,4.5,6.1c2.2,2.7,4.3,5.4,6.4,8.2c0.6,0.8,0.2,1.7-0.9,1.8
				c-0.9,0.1-1.7,0.1-2.6,0.1c-10.7-0.7-21.5-0.2-32.2,0c-7.1,0.1-14.2,0.1-21.3,0.2C157.2-1506.8,156.4-1506.9,155.5-1507z"/>
			<path id="XMLID_444_" class="st1" d="M303.8-1512c0.6-1.3,1-2.6,1.7-3.7c2.4-3.9,7.2-4.9,10.9-2.4c3.5,2.4,4.3,7.1,1.9,10.6
				c-2.5,3.6-7.4,4.3-11,1.7c-1.1-0.8-1.5-2.3-2.9-2.8c-1.3,0.7-1.2,2.1-2,3c-2.9,3.7-8.1,4.3-11.4,1.2c-3.1-2.8-3.2-7.7-0.4-10.8
				c3.1-3.4,8.3-3.2,11.5,0.4C302.7-1513.9,303.2-1513,303.8-1512z"/>
			<path id="XMLID_443_" class="st1" d="M358.6-1528.5c-4.9,0.1-8.7-3.1-8.8-7.6c-0.2-4.4,3.4-8.2,7.7-8c5.1,0.3,8.6,3.9,8.6,8
				C366.1-1531.8,363-1528.6,358.6-1528.5z"/>
			<path id="XMLID_442_" class="st1" d="M336.2-1515.5c0.1,4.2-3.3,7.7-7.5,7.7c-4.1,0.1-7.7-3.4-7.8-7.5c-0.1-4.2,3.3-7.7,7.5-7.8
				C332.6-1523.1,336.1-1519.7,336.2-1515.5z"/>
			<path id="XMLID_441_" class="st1" d="M344.9-1516.1c-4.2-0.1-7.5-3.6-7.4-7.8c0.1-4.2,3.6-7.6,7.8-7.5c4.2,0.1,7.5,3.6,7.4,7.9
				C352.5-1519.3,349.1-1516,344.9-1516.1z"/>
			<path id="XMLID_440_" class="st1" d="M244.2-1529.8c4.1,0.4,7.2,4.2,6.9,8.2c-0.4,4.1-4,7.3-8.1,7c-4.1-0.3-7.4-4-7.2-8
				C236.1-1526.9,239.9-1530.2,244.2-1529.8z"/>
			<path id="XMLID_439_" class="st1" d="M285.7-1511.2c0,4.3-3.3,7.6-7.5,7.6c-4.3,0-7.6-3.3-7.6-7.5c0-4.3,3.2-7.6,7.5-7.7
				C282.4-1518.8,285.7-1515.4,285.7-1511.2z"/>
			<path id="XMLID_438_" class="st1" d="M226.3-1524.1c-4.3,0-7.6-3.4-7.5-7.6c0-4.2,3.5-7.6,7.7-7.5c4.3,0,7.6,3.4,7.6,7.6
				C233.9-1527.3,230.6-1524,226.3-1524.1z"/>
			<path id="XMLID_437_" class="st1" d="M261.5-1506.6c-4.3,0-7.5-3.3-7.5-7.6c0-4.3,3.3-7.5,7.6-7.5c4.3,0,7.5,3.3,7.5,7.6
				C269.1-1509.9,265.8-1506.6,261.5-1506.6z"/>
			<path id="XMLID_206_" class="st2" d="M236.7-1703.6c-6.1,0.2-11.1-0.7-15.9-2.2c-2.8-0.9-5.5-2.2-7.7-4.1
				c-4.1-3.4-5.3-8-3.6-13.1c2-6.2,6.6-9.6,12.7-11c9.7-2.2,19.3-1.1,28.5,2.5c2.9,1.1,5.5,2.9,7.8,5c5.1,4.7,4.2,13-0.7,17
				c-3.2,2.5-6.9,4-10.8,4.9C243.3-1703.9,239.5-1703.6,236.7-1703.6z M218.6-1730.1c-5.1,3.3-7.5,7.1-7.1,12.1
				c0.3,4.1,3,6.6,7.4,8.3C216.2-1716.5,216.6-1722.9,218.6-1730.1z M259.4-1718.2c0-3.3-1.7-5.7-4.1-7.5c-0.7-0.5-1.8-1.3-2.2-1.1
				c-1.1,0.6-0.4,1.8-0.2,2.7c0.5,1.7,0.4,3.4,0.5,5.1c0.2,2.6-0.5,5.1-0.9,7.7c-0.1,0.8,0.6,1.4,1.2,1.1
				C257.3-1711.8,258.9-1714.7,259.4-1718.2z"/>
			<path id="XMLID_202_" class="st2" d="M330.5-1700.5c-4.4-0.1-9.2-0.4-13.8-2.1c-2.3-0.8-4.5-1.9-6.5-3.3
				c-5.8-4.1-6.8-12.9-0.9-18c3-2.5,6.3-4.4,9.9-5.5c8.4-2.5,16.9-3.5,25.6-1.5c6.3,1.4,11.1,4.7,13.1,11.2c1.6,5.1,0.3,9.6-3.8,13
				c-2.3,1.9-4.9,3.2-7.8,4.1C341.3-1701.1,336.2-1700.2,330.5-1700.5z M316.3-1724.9c-2.2,0.4-3.9,1.9-5.4,3.4
				c-4,4-3.8,9.5,0.6,13.1c1.6,1.3,3.5,2.2,5.4,2.9c0.4,0.2,1,0.3,1.4,0.1c0.6-0.3,0.2-0.9-0.1-1.3c-2.8-4.7-3-9.8-2.2-15
				C316.1-1722.7,317-1723.6,316.3-1724.9z M348.5-1706.5c4.7-2.1,7.3-4.9,7.3-9.4c0-2.3-0.8-4.4-2-6.3c-1.1-1.7-2.3-3.3-4.8-4.1
				C351.1-1719.7,351.7-1713.5,348.5-1706.5z"/>
			<path id="XMLID_197_" class="st2" d="M288.1-1361.6c-32.8,0.3-65.6,0.4-98.4,1.1c-27.1,0.6-54.2,0.4-81.2,1
				c-23.8,0.5-47.6,0.6-71.3,0.9c-1.6,0-3.1,0-4.7,0c-2.4-0.1-3.2-0.7-3.4-3c-0.3-3.8-0.1-7.6,0.6-11.4c1.1-6.2,3-12.2,5.2-18
				c3.8-9.9,8.3-19.5,13.3-28.8c9.2-17,21.5-31.5,35.3-44.8c5.8-5.5,11.6-11,18-15.8c8.1-6,16.6-11.3,25.7-15.8
				c21.9-11,44.6-20.1,67.6-28.3c15.9-5.7,26.6-16.6,30.7-33.4c1.5-6.3,2.6-12.6,2.5-19c-0.1-3.4-0.1-3.5-3.1-4.5
				c-9.2-3-16.5-8.7-22.4-16.3c-7.4-9.6-12.5-20.3-15-32.3c-2.3-11.1-3.7-22.2-5-33.4c-0.3-2.6-0.5-3-2.9-3.5
				c-15.1-3.3-29.9-20.9-28.7-40c0.2-3.3,0.9-6.5,2.2-9.6c6.2-14.2,20.8-15.9,31-11.6c0.5,0.2,0.9,0.6,1.2,0.9
				c0.2,0.2,0.3,0.7,0.2,1c-0.1,0.3-0.4,0.6-0.7,0.7c-1.3,0.3-2.4-0.3-3.5-0.7c-3.5-1.1-7.1-1.7-10.8-1c-7.2,1.4-12.3,5.5-15,12.3
				c-2.1,5.3-2.4,10.8-1.2,16.4c2.3,10.5,7.8,18.8,16.7,24.8c3.3,2.3,7,3.8,11,4.4c2.5,0.4,2.8,0.8,2.9,3.4
				c0.6,9.7,2.2,19.3,3.8,28.9c1.5,9.1,3.8,18,8.3,26.2c3.1,5.7,6.7,11,11.1,15.7c6.5,6.9,14.3,11.6,23.9,12.4
				c1.3,0.1,2.4,0.3,3.3,1.3c6.6,7,15.3,10,24.3,12.2c9.1,2.2,18.4,3.5,27.8,3.2c19.2-0.5,36.9-5.9,53.2-15.9
				c1.8-1.1,3.6-1.9,5.8-2.2c3.1-0.4,6.1-1.4,9-2.6c7.5-3.3,12.8-8.8,16.5-16c3.2-6.2,5.3-12.8,7.2-19.5c1.8-6.2,2.5-12.6,2.9-19
				c0.3-6.2,0.3-12.5,0.3-18.7c0-2.6-0.1-5.2-1.1-7.7c-0.6-1.3,0.2-2.3,1.7-2.6c16-3.4,24.4-14.3,28.2-29.4
				c1.2-4.7,0.9-9.6-0.6-14.4c-3.3-10.6-12.8-16.1-23.6-13.7c-2,0.4-4,1-6.1,1.4c-0.3,0.1-1.1-0.4-1.1-0.8c-0.1-0.4,0.3-0.9,0.5-1.3
				c0.2-0.3,0.6-0.4,0.9-0.5c12.8-5.2,28.4-0.8,32.6,16c1.4,5.7,1.1,11.4-0.6,17c-4.1,13.7-12.5,23.4-26.3,28
				c-2.3,0.8-2.5,0.8-2.2,3.3c1,8.7,0.4,17.3-0.1,26c-0.8,13-4.4,25.2-10.1,36.9c-4.5,9.2-11.5,15.5-21.2,18.9
				c-0.7,0.2-1.3,0.4-2,0.6c-1.1,0.4-1.8,1-1.9,2.2c-0.6,7.5-0.3,14.9,2.1,22.1c1.5,4.5,4.2,8.4,7.8,11.5
				c5.4,4.7,11.5,8.4,18.5,10.2c10.1,2.6,20.2,4.9,30.2,7.8c19.8,5.6,38.7,13.2,56.6,23.4c31,17.6,53.2,42.9,66.8,75.9
				c6.2,15,10.8,30.4,14.5,46.1c1,4.4,2,8.8,2.8,13.2c0.7,3.5-0.4,4.8-4.1,5c-6.2,0.2-12.5,0.2-18.7,0.3
				c-24.1,0.3-48.3,0.6-72.4,0.9c-24.6,0.3-49.3,0.6-74,0.9c-16.1,0.2-32.3,0.6-48.4,0.8c-14.4,0.1-28.8,0-43.2,0
				C288.1-1361.9,288.1-1361.7,288.1-1361.6z M422.9-1366.3C422.9-1366.3,422.9-1366.2,422.9-1366.3c2.4,0.1,4.9,0.1,7.3,0.1
				c21.2-0.3,42.3-0.6,63.5-0.9c16.1-0.2,32.3-0.4,48.4-0.7c3.8-0.1,4.2-0.6,3.6-4.3c-0.1-0.3-0.1-0.7-0.2-1
				c-4.4-20-9.8-39.7-18-58.6c-12.8-29.4-32.9-52.3-60.3-69c-15.1-9.2-31.2-15.9-47.7-21.7c-12.1-4.3-24.7-7-37.1-10
				c-1-0.2-1.7,0.1-2,1.1c-0.4,1.1-0.8,2.3-1.2,3.4c-2.5,6.7-5.8,13-10.1,18.7c-10.8,14.3-25,23.8-41.9,29.6c-8.7,3-17.7,4.8-27,5.3
				c-2.8,0.2-3,0.3-3,3.1c0,5.6,0.1,11.1,0.3,16.7c0.6,19.8,1.2,39.5,1.8,59.3c0.3,8.8,0.6,17.7,0.9,26.5c0,0.7,0.1,1.4,0.1,2.1
				c0.1,1.2,0.8,1.9,2,1.9c2.1,0.1,4.2,0.1,6.2,0c5.2-0.1,10.4-0.3,15.6-0.3c9.4-0.1,18.7-0.1,28.1-0.2
				C375.7-1365.6,399.3-1366,422.9-1366.3z M164.4-1363c1.5,0,4.1,0,6.7,0c26.5-0.3,53.1-0.7,79.6-1c13.4-0.2,26.7-0.2,40.1-0.4
				c7.2-0.1,6.2-0.1,6.1-6.4c-0.2-10.8-0.7-21.5-1-32.3c-0.5-20.3-0.9-40.6-1.4-60.9c-0.1-2.6-0.2-5.2-0.4-7.8
				c-0.1-1.8-0.7-2.3-2.7-2.4c-0.7,0-1.4,0-2.1,0c-10.7-0.3-21-2.1-31.1-5.4c-23-7.6-41.8-20.8-55-41.4c-0.4-0.6-0.7-1.2-1.2-1.7
				c-0.5-0.6-1.1-0.8-1.8-0.6c-0.8,0.2-1.7,0.5-2.5,0.8c-21.9,7.4-43.3,16-64,26.2c-9.2,4.5-18.2,9.2-26.6,15.2
				c-14.1,10.1-26.1,22.3-37.5,35.2c-6.7,7.6-12.4,15.8-17.4,24.6c-5.5,9.5-10,19.4-14.1,29.5c-3.1,7.6-5.7,15.3-6.4,23.5
				c-0.7,7.9-0.7,7.2,6.1,7.1c16.3-0.2,32.6-0.5,48.9-0.7c7.3-0.1,14.6-0.1,21.9-0.2C126.9-1362.4,145.1-1362.7,164.4-1363z
				 M292.9-1476.8c6.5,0.1,12.8-0.7,19.1-1.8c14.2-2.6,27.3-7.9,38.9-16.6c11.7-8.7,20.4-19.7,25.4-33.5c0.4-1.1,0.8-2.3,1.1-3.5
				c0.2-0.7,0-1.3-0.9-1.6c-0.5-0.2-1-0.4-1.5-0.5c-8.7-3.1-16.2-7.8-21.9-15.2c-0.8-1.1-1.7-1.6-3.1-1.2c-1.3,0.4-2.7,0.5-4.1,0.9
				c-6.4,1.7-13,2.2-19.6,2.4c-15.3,0.5-30.4-1.3-45.3-5c-16-3.9-30.1-11.2-42.4-22.3c-1.4-1.3-2.8-2.6-4.3-3.8
				c-0.7-0.5-1.4-1-2.2-1.2c-0.7-0.2-1.5,0-1.6,0.8c-0.1,1-0.1,2.1-0.1,3.1c0,7.3-1.2,14.5-3.3,21.5c-2.5,8.3-6.7,15.6-13.1,21.5
				c-2.4,2.2-5.2,4-8,5.8c-2,1.3-2.1,1.6-0.8,3.7c4.6,7.7,10.3,14.4,17,20.2C242.5-1485.5,266.3-1477.4,292.9-1476.8z"/>
			<path id="XMLID_193_" class="st2" d="M198-1732.1c0.1-22.4,18.5-40,40.9-38.2c21.2,1.7,32.3,17.7,34.4,31.1
				c0.1,0.5,0.2,1,0.2,1.5c0.3,2.4,0.6,4.8,0.9,7.2c2.4,1.1,4.6-0.7,7-0.6c3.3,0.2,6.6,0.4,9.8,1.3c2.7,0.7,2.8,0.7,3.1-2.1
				c0.5-4.5,1.6-8.9,3.7-12.9c5.9-11.4,15.1-18.2,27.7-20.6c18.2-3.6,39.6,8.9,43.6,30.9c3.2,18-8.3,39.8-31.2,43.8
				c-18.8,3.3-39.9-9.3-43.3-31.1c-0.5-3.1-1.9-4.7-4.7-5.4c-4.8-1.3-9.6-1.7-14.3,0.1c-1.4,0.5-2.4,1.3-2.7,2.8c-0.5,2-1,4-1.9,5.9
				c-6.4,15.1-18,23.4-34.1,23.9c-20.7,0.7-35-14-38.3-30.3C198.3-1727.4,197.8-1729.9,198-1732.1z M201-1732.7
				c-0.5,20.8,17.5,35.3,34.7,35.4c19.7,0.1,35.3-16.6,35.4-34.8c0.1-18.7-15.5-35.3-34.8-35.4
				C216.4-1767.6,200.6-1750.9,201-1732.7z M366.9-1728c0.7-19.7-16.6-35.2-34.8-35.3c-17.3,0-35.1,14-35.1,35.1
				c0,20.6,17.2,34.8,34.6,35C351.4-1693,367.4-1709.7,366.9-1728z"/>
			<path id="XMLID_192_" class="st2" d="M304.4-1685.9c0.1,6.6-3.2,11.5-9,13.8c-5.3,2-10.8,2.3-16.3,0.4c-0.6-0.2-1.2-0.7-1.7-1.2
				c-0.2-0.2-0.2-0.7-0.2-0.9c0.1-0.3,0.5-0.7,0.7-0.7c0.9,0,1.7,0.2,2.5,0.4c3.4,0.9,6.9,0.9,10.3,0.4c5.2-0.8,9-3.3,10.6-8.7
				c0.6-2.1,0.5-4.1,0-6.1c-0.9-3.7-2.3-7.3-4-10.7c-2.4-4.6-4.9-9.2-7.4-13.7c-0.4-0.8-0.8-1.5-1-2.3c-0.1-0.2,0.2-0.7,0.5-0.8
				c0.2-0.2,0.7-0.2,0.9-0.1c1,0.4,1.5,1.4,2.1,2.2c4.1,6.8,7.9,13.8,10.6,21.4C303.8-1690.2,304.6-1687.9,304.4-1685.9z"/>
			<path id="XMLID_191_" class="st2" d="M291.8-1625.6c-3.5,0.4-7.2-0.5-11-1.2c-4.7-0.9-8.7-3.3-12.2-6.6c-0.5-0.5-0.9-1.2-0.4-1.8
				c0.4-0.7,1.1-0.6,1.8-0.2c0.2,0.1,0.3,0.2,0.4,0.3c7,6.3,15.6,7,24.4,6.8c8-0.2,14.7-3.4,20.6-8.7c1-0.9,1.8-2.2,3.3-2.5
				c0.3-0.1,0.7,0.1,0.9,0.3c0.2,0.2,0.4,0.7,0.3,0.9c-0.4,0.7-0.9,1.5-1.5,2.1C311-1629.1,302.4-1625.2,291.8-1625.6z"/>
			<path id="XMLID_190_" class="st2" d="M167.8-1701.7c-0.3,2.5,0.5,4.8,2,6.8c0.8,1.1,1.6,2.2,2.5,3.4c0.6,0.8,1.5,1.8,0.3,2.7
				c-0.8,0.6-1.6-0.2-2.2-0.9c-4.1-4.4-6.7-9.4-4.9-15.6c2.2-7.6,8-10.7,15.7-8.3c0.7,0.2,1.2,0.9,0.8,1.6c-0.2,0.4-0.8,0.7-1.3,0.7
				c-1,0-2.1-0.3-3.1-0.4c-5.3-0.4-9.4,3.1-9.9,8.4C167.8-1702.7,167.8-1702.2,167.8-1701.7z"/>
			<path id="XMLID_189_" class="st2" d="M388.9-1714.3c4.7,0,9.2,3.8,10.4,8.7c1.1,4.2,0.6,8.3-1.9,12c-1.1,1.7-2.3,3.5-4,4.7
				c-0.4,0.3-1,0.4-1.4,0c-0.4-0.4-0.5-1-0.2-1.4c0.9-1.3,1.8-2.5,2.7-3.8c2-2.6,2.7-5.5,2.5-8.8c-0.4-5.6-4.5-9.2-10.1-8.7
				c-1,0.1-2.1,0.3-3.1,0.4c-0.6,0-0.9-0.4-1.1-0.9c-0.3-0.6,0.2-1,0.6-1.3c1-0.8,2.3-0.7,3.5-0.8
				C387.5-1714.2,388.2-1714.3,388.9-1714.3z"/>
			<path id="XMLID_188_" class="st2" d="M246.5-1644c-0.5-0.3-1.1-0.5-1.2-0.8c-0.1-0.4,0.2-1.1,0.6-1.3c0.9-0.5,1.9-0.8,2.9-1.2
				c7.6-2.9,14.2-7.1,18.5-14.3c0.2-0.3,0.4-0.5,0.7-0.8c0.5-0.4,1-0.3,1.4,0.1c0.2,0.2,0.5,0.7,0.4,0.9c-0.3,1-0.7,2-1.3,2.8
				c-2.1,3.2-4.9,5.8-8,8.1c-3.5,2.6-7.4,4.5-11.5,6C248.2-1644.3,247.3-1644.2,246.5-1644z"/>
			<path id="XMLID_187_" class="st2" d="M320.2-1660.6c0.4,0.1,0.8,0,1,0.2c0.5,0.5,0.9,1,1.3,1.6c3.2,4.9,7.5,8.5,12.7,11.2
				c2.2,1.1,4.3,2.2,6.5,3.3c0.5,0.2,0.8,0.7,0.7,1.2c-0.2,0.9-0.9,0.9-1.6,0.9c-0.3,0-0.7,0-1-0.2c-6.9-3.3-13.6-6.8-18.2-13.3
				c-0.8-1.1-1.8-2.2-1.9-3.6C319.6-1659.7,320-1660.2,320.2-1660.6z"/>
			<path id="XMLID_186_" class="st2" d="M295.2-1619.7c-2.7-0.2-5.3,0.3-7.8-0.5c-0.5-0.2-0.8-0.6-0.6-1.2c0.1-0.3,0.4-0.7,0.6-0.7
				c0.8-0.2,1.7-0.3,2.5-0.4c5-0.1,10,0.3,15-0.8c0.4-0.1,1.1,0.3,1.2,0.7c0.4,0.7-0.1,1.4-0.8,1.6c-1.1,0.4-2.3,0.7-3.5,0.8
				C299.6-1619.9,297.4-1619.8,295.2-1619.7z"/>
			<path id="XMLID_183_" class="st2" d="M275.5-1397.4c3.9-0.8,8.2,3.9,8.2,9.9c0,5-3,8.3-8.3,8.7c-5,0.5-9.7-4.3-9.6-9.5
				C265.9-1392.9,269.4-1397.6,275.5-1397.4z M274.9-1381.6c3.7,0.1,6.2-2.3,6.2-6.1c0-3.8-2.5-7.2-5.3-7.2c-4.3,0-7.1,2.5-7.2,6.5
				C268.4-1384.6,271.1-1381.7,274.9-1381.6z"/>
			<path id="XMLID_180_" class="st2" d="M284.5-1457.2c0,4.7-3.9,8.6-8.5,8.7c-4.6,0.1-9-3.8-9.1-8.2c-0.1-4.7,3.6-8.4,8.6-8.4
				C280.6-1465.1,284.5-1461.8,284.5-1457.2z M275.7-1451.2c3.3,0.1,6-2.4,6.2-5.7c0.2-2.8-2.8-5.4-6.4-5.4c-3.4,0-5.7,2.1-5.9,5.3
				C269.5-1453.9,272.2-1451.3,275.7-1451.2z"/>
			<path id="XMLID_179_" class="st2" d="M222.5-1740.1c-3.5,0.1-5.7-0.2-6.8-2.7c-0.9-2.1,0-4.5,2.4-6.3c4.6-3.3,9.9-4.8,15.6-4.8
				c1,0,2,0.3,2.9,0.9c1.7,1.1,2.2,2.7,1.1,4.5c-0.4,0.7-1,1.5-1.6,2.1C232.2-1742.5,227.1-1740.6,222.5-1740.1z"/>
			<path id="XMLID_178_" class="st2" d="M330.8-1754.1c4.1,0.5,8.8,1.6,13,4.3c1.3,0.9,2.4,2,3.1,3.4c1.2,2.6-0.2,5.4-3,6.1
				c-0.5,0.1-1,0.2-1.6,0.2c-6.3-0.1-11.8-2.3-16.3-6.9c-0.5-0.5-0.9-1.1-1.2-1.7c-1-1.8-0.5-3.3,1.2-4.4
				C327.3-1753.9,328.6-1754,330.8-1754.1z"/>
		</g>
	</g>
	<g id="XMLID_72_">
		<g id="XMLID_76_">
			<path id="XMLID_98_" class="st1" d="M-423.6-1360.1c-19.3,0-38.5,0.1-57.8,0c-31.4-0.1-62.8-0.4-94.3-0.5
				c-39.4-0.2-78.8-0.3-118.2-0.5c-2.9,0-5.9-0.2-8.8-0.3c-2.7-0.1-2.9-0.5-2.6-3.1c0.3-3.5,1.5-6.8,2.8-10
				c4.1-10,8.7-19.6,13.6-29.2c5-9.7,9.7-19.6,14.1-29.6c8.2-18.4,19.1-35,32.9-49.7c6.6-7,14.2-12.7,22.7-17.3
				c7.3-4,14.9-7.5,22.6-10.5c18.9-7.3,37.9-14.6,57-21.4c13.7-4.8,27.5-9.7,41.2-14.6c0.5-0.2,1-0.4,1.5-0.5c3.1-0.9,4-0.3,4.8,2.8
				c1,3.7,1.7,7.5,3,11c8.6,23.6,24.6,39.6,49.2,46c18.8,4.9,36.9,2,53.8-7.4c18.9-10.4,31.7-26.1,39.3-46.2
				c2.2-5.9,1.6-5.8,7.6-3.6c27.5,10.2,55.2,19.9,82.4,30.7c8.9,3.5,17.6,7.3,26.2,11.5c15.4,7.5,29.5,17,40.7,30.2
				c8.8,10.4,16.5,21.5,22.6,33.6c4.7,9.1,8.5,18.6,11.8,28.3c5.1,14.8,10,29.6,13.5,44.8c0.2,0.7,0.4,1.3,0.5,2
				c0.8,3.4-1.1,5.3-4,5c-0.9-0.1-1.7,0-2.6,0c-27.1-0.1-54.2-0.1-81.3-0.2c-12.8,0-25.7-0.2-38.5-0.2c-35.9-0.2-71.9-0.4-107.8-0.5
				c-16-0.1-31.9,0-47.9,0C-423.6-1359.7-423.6-1359.9-423.6-1360.1z"/>
			<path id="XMLID_95_" class="st2" d="M-307-1874.6c2.2,0.9,3.8,1.4,5.4,2.1c5.5,2.4,9.5,6.3,11.5,12.1c2,6,1.4,11.6-2.3,16.8
				c-1,1.4-2,2.9-3.3,4c-5.9,5.1-7.6,11.8-7.7,19.2c-0.1,2.1,0,4.2,0.1,6.2c1,14,1.2,28.1,1.5,42.1c0,1.6,0.1,3.1,0,4.7
				c-0.1,1.9,0.6,3.2,2.3,4.2c2.1,1.2,4.1,2.7,5.9,4.3c15.5,14.1,14.4,37.1-2.3,49.8c-5.8,4.4-12.5,6.8-19.6,7.6
				c-2.5,0.3-2.8,1-2.7,3.3c0.4,6.6,0.6,13.2,0.2,19.8c-1.2,21.1-7.1,40.6-20.3,57.5c-2,2.6-4.3,5-6.6,7.4c-1.2,1.2-1.7,2.5-1.6,4.2
				c0.2,3.6,0.3,7.3,0.5,10.9c0.6,10.6,1.3,21.1,2,31.7c0.5,7.3,1.1,14.5,1.5,21.8c0.2,2.9,0.2,5.9,0.2,8.8c0,0.4-0.3,1-1,1
				c-0.6,0-1.1-0.3-1.1-0.8c-0.4-2.4-0.7-4.8-0.9-7.2c-0.4-5.9-0.7-11.8-1.1-17.7c-0.2-3-0.4-3.3-3.6-2.8
				c-5.9,0.9-11.8,0.8-17.7,0.8c-31.1-0.2-60.4-7.7-87.7-22.8c-9.1-5.1-17.9-10.7-25.6-17.8c-2-1.8-4.3-3.5-6.9-4.9
				c-1,2.5-1,5-1.1,7.3c-0.8,14-1.6,28.1-2.5,42.1c-0.3,5.5-0.7,11.1-1.1,16.6c-0.1,1.9-0.4,3.8-0.7,5.7c-0.1,0.7-0.4,1.5-1.2,1.5
				c-1.1,0-1.3-1-1.3-1.9c0-2.4,0.1-4.9,0.2-7.3c0.6-8.5,1.2-17,1.7-25.4c0.7-11.3,1.4-22.5,2.1-33.8c0-0.7,0-1.4,0.1-2.1
				c0.7-4-0.6-7.1-3.6-10.2c-11.9-12.5-18.9-27.7-22.5-44.5c-2.6-12-2.9-24.1-2.3-36.2c0.1-1,0.1-2.1,0.1-3.1c0-1-0.5-1.6-1.5-1.8
				c-2.1-0.3-4.1-0.6-6.2-1c-8.2-1.9-15.2-5.9-20.6-12.4c-11.8-14.3-9.3-34.6,5.8-46c1.2-0.9,2.5-1.8,3.9-2.6
				c1.5-0.8,1.7-1.9,1.4-3.5c-3.6-17.8-4.2-35.8-3.5-53.9c0.6-14.7,2.2-29.4,5.9-43.8c3.3-12.8,9.5-24.2,18.9-33.6
				c2.9-3,6-5.8,9.1-8.6c7.8-7,16.8-11.6,26.8-14.5c12-3.6,24.2-6.1,36.6-7.5c6.9-0.8,13.8-1.4,20.6-2.6c12.4-2.1,23.9-7,35.3-12.2
				c6.8-3.1,13.5-6.3,20.7-8.5c5.7-1.7,11.5-2.4,17.4-2c8.3,0.5,16.9,7.2,18,18.5c0.6,5.8-0.1,11.4-1.6,17c-1,3.7-2.1,7.3-3.1,11
				c-0.4,1.4,0.2,2.1,1.5,1.7c2.9-0.7,5.7-1.5,8.5-2.3c5-1.5,10.2-2.1,15.4-1.9c0.7,0,1.4,0,2.1,0.1c8.6,0.7,13.8,7.3,12.3,15.9
				c-0.8,5.1-2.9,9.6-6.1,13.6C-303.5-1878.7-305.1-1876.9-307-1874.6z M-419.2-1590c10.7,0.4,21.4-0.5,31.8-3.3
				c30.9-8.1,51.7-27.3,61.5-57.8c5-15.4,6.2-31.3,4.7-47.3c-0.4-4.3-0.4-5.3,4.7-6c0.7-0.1,1.4-0.1,2.1-0.2
				c9.3-1.4,17.2-5.5,22.9-13.1c5.5-7.3,7.5-15.6,5.1-24.6c-1.9-7-5.9-12.5-11.7-16.7c-6.1-4.4-12.9-6.5-20.4-6.8
				c-3.9-0.1-4.8-0.9-5.5-4.8c-0.2-1.2-0.4-2.4-0.5-3.6c-0.4-4.8-0.8-9.7-1-14.5c-0.4-8.9-2-17.6-4.5-26.1
				c-2.8-9.6-7-18.5-13.4-26.3c-8.1-9.9-18.3-15.6-31.4-15.8c-6.8-0.1-13.5-0.1-20.3,0.3c-11.2,0.8-22.5,2-33.7,2.8
				c-13.5,0.9-26.9,3-40.2,5.5c-7.7,1.4-15.2,3.6-22.3,7c-12.9,6.2-21.4,15.6-23.1,30.4c-0.8,6.6-1.5,13.1-1.6,19.7
				c-0.1,6.4-0.1,12.8,0.6,19.2c0.5,5,0.7,6-5.2,6.2c-9.8,0.4-18.2,4.3-24.6,11.8c-10.1,11.8-9.2,27.6,0.8,38.4
				c5.9,6.4,13.2,10,21.8,10.9c1.5,0.2,3.1,0.5,4.6,0.9c1.1,0.3,1.7,1.2,1.6,2.4c0,0.9-0.2,1.7-0.3,2.6c-1.3,15-0.4,29.9,3.7,44.3
				c9.1,31.4,29.3,51.7,60.8,60.6C-441.6-1590.6-430.6-1589.5-419.2-1590z"/>
			<path id="XMLID_94_" class="st2" d="M-419-1447.6c-20-0.1-37.9-5.9-54.3-16.7c-15.3-10.1-27.4-23.3-37-38.9
				c-3.6-5.9-6.8-12.1-9.5-18.5c-0.3-0.8-0.9-1.6-0.5-2.5c0.1-0.3,0.4-0.6,0.7-0.7c0.3-0.1,0.7-0.1,0.9,0.1c1.4,0.9,1.7,2.6,2.3,4
				c3.9,8.7,8.6,17,14.3,24.7c11.6,15.9,25.8,28.5,43.7,36.8c13.8,6.4,28.2,9.5,43.4,8.7c19.5-1.1,36.8-7.9,52.2-19.7
				c16.6-12.8,28.4-29.2,36.8-48.3c0.6-1.4,0.9-3,2.1-4.1c0.4-0.4,0.9-0.4,1.4-0.1c0.2,0.2,0.5,0.6,0.5,0.8c-0.2,1-0.4,2-0.8,3
				c-6.4,15.2-15.1,28.9-26.7,40.6c-11.1,11.3-24,19.9-39,25.2C-398.3-1449.4-408.7-1447.7-419-1447.6z"/>
			<path id="XMLID_91_" class="st2" d="M-307.1-1417.6c10.6,0,21.2,0,31.7,0c6.7,0,5.9,0.7,5.3,6.1c-1.7,14.6-3.1,29.3-4.7,43.9
				c-0.2,1.5-0.5,3.1-0.9,4.6c-0.1,0.4-0.7,0.9-1.1,0.9c-0.9,0.1-1.2-0.7-1.2-1.3c0-1.6,0.1-3.1,0.2-4.7c1.1-10,2.2-20,3.3-30
				c0.2-2-0.3-2.6-2.2-2.5c-18.9,0.8-37.8,0.5-56.7,0.6c-2.4,0-4.9,0.2-7.3,0.3c-2.6,0.2-2.8,0.4-2.9,3.2c-0.7,10.7-1.3,21.5-2,32.2
				c-0.1,1.4,0.1,2.8-0.6,4.1c-0.1,0.2-0.6,0.4-0.9,0.4c-0.3,0-0.7-0.3-0.8-0.5c-0.2-0.8-0.4-1.7-0.4-2.5c0.6-11.9,1.3-23.9,2-35.8
				c0.2-3.8,0.4-7.6,0.6-11.4c0.1-1.4,0.1-2.8,0.3-4.1c0.4-2,1.1-2.6,3.2-2.7c5-0.1,10.1-0.1,15.1-0.2c6.6,0,13.2,0,19.8,0
				C-307.1-1417.2-307.1-1417.4-307.1-1417.6z M-307-1414.8c0,0,0,0.1,0,0.1c-10.7,0.3-21.5,0.5-32.2,0.8c-2.9,0.1-2.9,0.1-3.3,2.8
				c-0.2,1.4-0.4,2.7-0.5,4.1c-0.4,4.5-0.2,4.6,4.4,4.6c11.8,0,23.6,0.1,35.4-0.2c8.1-0.2,16.3,0.1,24.4-0.7
				c5.8-0.6,4.6,0.4,5.6-5.2c0.3-1.5,0.3-3.1,0.4-4.7c0.1-1-0.4-1.7-1.5-1.7c-1.2-0.1-2.4,0-3.6,0
				C-287.6-1414.8-297.3-1414.8-307-1414.8z"/>
			<path id="XMLID_88_" class="st2" d="M-473-1775.7c6.3-0.2,12.2,1,17.9,3.1c2.9,1.1,5.5,2.8,7.9,4.8c5.8,5,4.5,13.7-0.8,17.6
				c-3.3,2.4-7,4-10.9,4.6c-8.2,1.4-16.5,1.6-24.7-0.9c-2.8-0.9-5.5-2-7.9-3.8c-4.8-3.6-6.3-8.6-4.3-14.2c1.8-5.1,5.5-8.3,10.6-9.9
				C-481.1-1775.5-477-1775.9-473-1775.7z M-450-1766.4c-1,1-0.6,2.1-0.8,3.1c-1.4,7.2-5.4,12.2-12.4,14.7c-2.9,1-5.8,0.8-8.8,0.6
				c-9.3-0.7-16.1-7.6-16.6-16.9c-0.1-0.9,0-1.7-0.1-2.6c0-0.3-0.2-0.7-0.4-0.8c-0.6-0.3-1,0.1-1.3,0.4c-0.7,1-1.5,1.9-2,3
				c-2.7,5.2-1.5,9.8,3.3,13.1c2.5,1.7,5.3,2.6,8.1,3.4c6,1.7,12.1,1,18.1,0.8c4.7-0.2,9.2-1.8,13.1-4.5c2.6-1.8,3.9-4.5,3.8-7.6
				C-446-1762.6-447.6-1764.8-450-1766.4z"/>
			<path id="XMLID_85_" class="st2" d="M-369.4-1775.7c3.5-0.1,7.4,0.2,11.2,1.4c5.1,1.6,8.7,4.8,10.6,9.9
				c2.1,5.6,0.6,10.7-4.2,14.2c-2,1.5-4.1,2.5-6.4,3.3c-9.5,3.2-19,3-28.6,0.8c-2.9-0.7-5.5-2-8-3.7c-5.9-4-7.2-13.1-1-18.3
				c2.8-2.4,6-4.1,9.5-5.2C-381.1-1775.1-376.5-1775.7-369.4-1775.7z M-391.7-1767.2c-8.3,3.8-6.2,13.1-0.3,16
				c1.7,0.8,3.4,1.8,5.2,2.3c9.4,2.6,18.8,2.5,28.2-0.6c2-0.7,3.8-1.7,5.5-3c5.4-4.3,4.7-13.3-1.3-16.9c-0.1-0.1-0.4-0.1-0.5-0.1
				c-0.2,0.2-0.5,0.5-0.5,0.7c0.1,1,0.4,2,0.5,3.1c0.5,6.4-2.2,11-7.7,14.1c-4.8,2.7-9.9,3-15.1,2c-7.2-1.4-11.6-5.8-13-13.2
				C-391-1764.1-391.4-1765.6-391.7-1767.2z"/>
			<path id="XMLID_84_" class="st2" d="M-373-1789.6c-9.5,0.9-18.7,0.6-27.8,2.3c-2.7,0.5-4-0.5-4.4-3.1c-0.4-2.4-0.7-4.8-0.7-7.2
				c0.1-4,1.6-5.6,5.7-5.9c3.1-0.3,6.2-0.3,9.3-0.2c10.4,0,20.7,1.6,31,2.6c1.2,0.1,2.4,0.5,3.6,0.7c5.6,1.1,5.8,2.9,5.4,8.1
				c-0.2,2.2-1.5,3.4-3.8,3.5c-2.4,0.1-4.8-0.1-7.3-0.2c-2.6-0.1-5.2-0.4-7.8-0.5C-370.9-1789.7-372.2-1789.6-373-1789.6z"/>
			<path id="XMLID_83_" class="st2" d="M-465.6-1800.4c3.5,0,6.9-0.2,10.4,0c5.4,0.3,7.7,2.6,7.3,9.5c0,0.3-0.2,0.7-0.2,1
				c-1.2,5.7-2.5,6.5-8.2,5.8c-9.3-1.1-18.5-2.2-27.9-2.6c-3.1-0.1-6.2,0.6-9.3,0.8c-4.7,0.3-7.6-3.9-5.9-8.2c0.7-1.8,2.3-2.6,4-3
				c4-0.9,8.1-1.8,12.2-2.3C-477.4-1800.1-471.5-1800.7-465.6-1800.4z"/>
			<path id="XMLID_82_" class="st2" d="M-424-1690.1c4.4,0.2,8.6-1.1,12.5-3.1c3.1-1.6,4.9-3.8,4.5-7.5c-0.2-1.7-0.2-3.5-0.5-5.2
				c-1.8-10.2-3.7-20.5-5.5-30.7c-1.3-7.7-2.5-15.4-3.7-23.1c-0.1-0.8-0.1-1.7,0-2.6c0-0.2,0.4-0.5,0.7-0.6c0.3-0.1,0.7,0,0.9,0.2
				c0.8,0.8,0.8,1.9,0.9,2.9c1.3,7.7,2.6,15.4,3.9,23.1c1.6,9.2,3.3,18.4,4.9,27.7c0.4,2.6,0.9,5.1,1.1,7.7c0.4,4-1,7.2-4.4,9.4
				c-6.9,4.5-14.6,5.4-22.5,3.9c-3.1-0.6-5.2-2.6-6.5-5.5c-1.1-2.6-1.6-5.3-1.9-8.1c-1.1-12-0.5-23.9,1.3-35.8
				c0.9-6.3,1.9-12.7,2.9-19c0.3-1.7,0.5-3.4,1.4-4.9c0.1-0.2,0.6-0.3,0.9-0.4c0.7-0.1,0.9,0.5,1,1c0.1,1,0,2.1-0.1,3.1
				c-1.1,7.2-2.1,14.4-3.3,21.6c-1.7,10.5-2.3,21-1.5,31.6c0.2,2.6,0.6,5.2,1.2,7.7c1.1,4.4,3.1,6.1,7.6,6.6
				C-426.8-1689.9-425.4-1690.1-424-1690.1z"/>
			<path id="XMLID_79_" class="st2" d="M-367.2-1674.5c0.3,14.6-8.4,26-21.5,29c-11.7,2.7-23.9-2.5-29.4-12.5
				c-1-1.8-1.8-3.8-2.2-5.8c-0.3-1.4,0.5-2.5,2-2.3c12.2,1,21-5.8,29.5-13c3.8-3.2,5.8-7.7,7.6-12.3c1.1-2.7,2-5.5,3-8.3
				c0.3-0.9,0.9-1.6,1.8-1.6c0.9-0.1,1.6,0.6,2.1,1.3c0.4,0.6,0.7,1.2,1,1.8C-369.7-1690.4-367.5-1682.3-367.2-1674.5z
				 M-375.9-1697.5c-1.2,3.1-2.1,5.1-2.9,7.2c-3,7.9-8,14.1-15.1,18.6c-2.1,1.3-4.1,2.5-6.2,3.7c-4.7,2.6-9.7,4.6-15.2,4.6
				c-1.6,0-1.8,0.5-1.3,1.9c2.1,5.2,5.7,9,10.8,11.4c16.9,7.9,35.6-3.7,35.9-22.2C-369.7-1680.7-372-1688.7-375.9-1697.5z"/>
			<path id="XMLID_78_" class="st2" d="M-297.7-1733.5c-0.3,4.9-2.6,9.5-7.5,12.7c-0.6,0.4-1.3,0.5-1.9,0.6c-0.3,0-0.7-0.2-0.8-0.5
				c-0.2-0.2-0.2-0.7-0.1-1c0.4-1.1,1.4-1.5,2.2-2.1c6.5-4.7,6.1-13.8,2.9-18.7c-2.4-3.7-5.7-6-9.8-7.3c-1.8-0.5-2.8-1.6-2.3-2.2
				c0.8-0.9,1.9-0.8,2.9-0.5C-304-1750.7-297.6-1742.6-297.7-1733.5z"/>
			<path id="XMLID_77_" class="st2" d="M-524-1752.7c0.4,0.3,0.8,0.6,1,1c0.3,0.5-0.1,1.1-0.6,1.3c-1.3,0.5-2.6,0.9-3.9,1.5
				c-5.7,2.4-10.2,8.2-9.9,15.1c0.2,3.7,1.5,6.7,4.1,9.2c0.6,0.6,1.4,1,2,1.6c1.2,1,1.6,2,0.9,2.5c-0.8,0.7-1.6,0.3-2.4-0.2
				c-5.5-3.4-8.2-8.6-7.7-14.9c0.7-9.2,7.2-14.9,14.1-16.8C-525.5-1752.6-524.8-1752.6-524-1752.7z"/>
		</g>
		<g id="XMLID_73_">
			<ellipse id="XMLID_75_" class="st0" cx="-350.4" cy="-1724.9" rx="20.1" ry="14.6"/>
			<ellipse id="XMLID_74_" class="st0" cx="-491.9" cy="-1724.9" rx="20.1" ry="14.6"/>
		</g>
	</g>
	<g id="XMLID_28_">
		<g id="XMLID_32_">
			<path id="XMLID_71_" class="st1" d="M287.4-637.9c-29.5,0-59,0.3-88.5-0.1c-47.6-0.6-95.1-0.7-142.7-1c-20.5-0.1-41-0.4-61.4-0.6
				c-0.2,0-0.3,0-0.5,0c-4-0.1-4-0.1-3.5-4.1c5.2-35.8,17.8-68.7,39.1-98.1c9.7-13.4,20-26.2,32.5-37.1c5.6-4.9,11.6-9.4,17.8-13.6
				c18.6-12.3,38.1-22.8,58.7-31.3c22.9-9.5,46.3-17.8,70-25c2.3-0.7,4.7-1.3,7.1-1.7c2.2-0.4,2.7,0,3,2.3
				c1.1,6.6,4.6,11.9,8.7,16.9c3.6,4.3,8,7.7,12.8,10.5c10.8,6.4,22.5,9.9,34.9,11.3c25.9,2.8,48.7-4.7,69-20.5
				c5.3-4.1,9.7-8.9,12.4-15.2c1.3-3,2.6-3.4,5.9-2.6c7.3,1.7,14.4,3.9,21.5,6.3c20.4,6.8,40.6,14.2,60.4,22.6
				c21.3,9.1,41.3,20.5,60.2,33.9c10.5,7.5,19.8,16.4,28.2,26.2c12.5,14.6,23.1,30.3,32.3,47.2c9.8,18,15.5,37.4,19.8,57.3
				c0.9,4.2,1.8,8.5,2.3,12.8c0.6,5.2-0.3,6.2-5.6,6.1c-16.8,0-33.7-0.2-50.5-0.2c-0.9,0-1.7-0.1-2.6-0.1
				c-21.9-0.1-43.7-0.3-65.6-0.4c-39.1-0.2-78.1-0.4-117.2-0.7c-19.4-0.2-38.9-0.5-58.3-0.7C287.4-637.7,287.4-637.8,287.4-637.9z"
				/>
			<path id="XMLID_67_" class="st2" d="M233.9-995c6.4-0.2,12.3,0.9,18,3.1c3,1.1,5.6,2.7,8,4.8c6,5.1,4.7,14-1,18
				c-3.3,2.3-7,3.9-10.9,4.5c-7.9,1.2-15.8,1.5-23.6-0.8c-3-0.9-5.9-2-8.4-3.9c-5-3.7-6.6-8.8-4.3-14.6c2-5,5.6-8.2,10.8-9.7
				C226.2-994.8,230.1-995.2,233.9-995z M251.8-969c2.9-0.6,4.5-1.6,5.9-2.7c4.4-3.6,4.6-9,0.7-13.1c-0.6-0.6-1.3-1.1-2-1.6
				c-0.4-0.3-0.9-0.6-1.3-0.2c-0.2,0.2-0.3,0.6-0.2,0.9C256-980.1,255.3-974.8,251.8-969z M219.9-970.2c-0.5-3.6-1.4-6.6-1.4-9.7
				c0-3.3,1.4-6.3,1.9-10.1c-4.6,2.5-6.7,6.1-7,10.6C213.1-975.1,215.5-972.3,219.9-970.2z"/>
			<path id="XMLID_63_" class="st2" d="M336.7-995c4.2-0.1,8.2,0.2,12,1.3c5.1,1.5,8.8,4.7,10.8,9.7c2.2,5.8,0.7,11-4.4,14.6
				c-3,2.2-6.4,3.4-10,4.2c-8.2,2-16.4,1.6-24.6-0.2c-2.7-0.6-5.2-1.8-7.6-3.3c-6.6-4-8-13.6-1.4-18.9c2.9-2.3,6-4,9.5-5.1
				C326.2-994.3,331.5-995.3,336.7-995z M357.7-979.5c-0.5-4.1-2.2-7.8-6.4-10.1c-0.3-0.2-0.7-0.4-0.9-0.3c-0.6,0.2-0.5,0.8-0.4,1.2
				c1.9,5.9,2.2,11.8-0.1,17.7c-0.1,0.2-0.2,0.4-0.1,0.5c0.2,0.2,0.5,0.6,0.7,0.5C354.3-970.7,357.7-975.1,357.7-979.5z
				 M315.5-986.8c-0.2,0-0.3,0-0.5,0.1c-6.5,3.8-6.9,11.3-0.8,15.6c0.7,0.5,1.8,1.2,2.3,0.9c1.2-0.7,0.3-1.8-0.1-2.7
				c-0.9-2.3-0.9-4.7-0.8-7.1c0.1-2.1,0.3-4.1,0.5-6.2C316.1-986.3,315.7-986.5,315.5-986.8z"/>
			<path id="XMLID_60_" class="st2" d="M288.1-824.1c-13.3,0.4-26.3-1.2-39-5.3c-10.2-3.3-19.5-8.1-27.9-14.8
				c-15.3-12.3-25.1-28.1-30.2-46.9c-3.9-14.6-5-29.4-3.6-44.4c0.2-2.5,0-2.9-2.7-3.2c-9.5-0.9-17.7-4.8-24.3-11.8
				c-6-6.4-9.1-14.1-8.7-22.7c0.4-10.1,5-18.3,13-24.5c0.5-0.4,1.1-0.8,1.7-1.2c4.3-2.9,3.4-1.7,2.7-6.7
				c-3.7-25.1-0.7-49.1,10.6-71.9c4.7-9.5,10.7-17.8,19.2-24.2c6.8-5.1,14.3-7.8,22.8-7.1c3.6,0.3,7.2,1.2,10.6,2.4
				c1.7,0.6,3.3,0.8,5-0.2c7.6-4.2,16.1-5.6,24.5-6.2c9.1-0.7,18.3-1.3,27.6-0.6c10.1,0.8,19.9,2.7,29.7,4.9c1.4,0.3,2.7,0.6,4,1.1
				c1.1,0.3,2,0.3,3-0.2c12-5.2,23.8-3.8,35.3,1.4c11.9,5.3,21.2,13.7,28,24.9c4.7,7.8,8,16.1,10.6,24.8c4.1,14.2,6.4,28.8,5.9,43.6
				c-0.1,3-0.8,5.8-1.1,8.8c-0.2,1.4,0.2,2.3,1.4,3c3.6,1.9,6.7,4.3,9.5,7.2c6,6.4,9.2,14,8.8,22.7c-0.4,10-4.9,18.3-12.8,24.6
				c-5.6,4.4-11.9,7-19,7.8c-0.7,0.1-1.4,0.1-2.1,0.2c-1.5,0.2-2,0.9-1.8,2.5c0.9,6.6,0.8,13.2,0.4,19.8c-0.8,15-3.9,29.6-10.8,43.1
				c-12.5,24.4-32.3,39.3-58.7,45.9C309.2-824.7,298.7-823.8,288.1-824.1z M280-1110.8c-8,0-15.1,0.6-22.2,1.3
				c-12.5,1.2-23.6,6.2-33.2,13.7c-9.3,7.2-16.4,16.5-20.7,27.6c-5.6,14.5-9,29.5-10.6,44.9c-0.6,5.5-0.8,11.1-0.9,16.6
				c0,3.1-0.9,3.9-4.1,4.2c-0.7,0.1-1.4,0-2.1,0c-7.9,0.2-14.9,3-20.9,8.1c-13.6,11.4-14.3,30.8-1.6,43.2c5.9,5.8,13.2,8.8,21.3,9.9
				c5.4,0.7,5.6,0.7,5.2,6c-0.7,10.6-0.6,21.2,1.1,31.7c1.9,12.1,5.6,23.6,11.8,34.2c12.6,21.4,31.6,34.1,55.5,39.7
				c12.4,2.9,25.1,3.4,37.8,2.8c8.5-0.4,16.9-1.5,25.2-3.8c22.2-6.2,39.7-18.6,51.5-38.7c7.9-13.4,11.8-28.1,13-43.5
				c0.6-7.3,0.4-14.6,0-21.8c-0.4-5.8-0.3-5.8,5.6-6.6c8.9-1.2,16.6-4.8,22.6-11.7c9.3-10.6,9.7-25.8,1-36.8
				c-4.6-5.8-10.5-9.4-17.6-11.5c-3.2-1-6.5-1.1-9.8-1.2c-2.7-0.1-3.5-0.8-4-3.2c-0.4-2-0.7-4.1-1-6.2c-0.7-7.1-1.3-14.2-2.1-21.2
				c-2.1-19.4-9.9-36.4-22-51.4c-6.7-8.3-15.1-14.2-25.6-17c-5.4-1.4-10.6-3.1-16-4.4C304.7-1109,292.1-1111.3,280-1110.8z"/>
			<path id="XMLID_59_" class="st2" d="M281-785.5c-20.7-0.3-42.5-7.8-61.2-23.9c-8.3-7.2-15.1-15.8-20.2-25.6
				c-0.5-1.1-1.4-2-1.2-3.4c0.1-0.3,0.3-0.7,0.6-0.8c0.2-0.1,0.7-0.1,1,0c1.2,0.6,1.5,1.8,2.1,2.9c3.2,6,6.9,11.6,11.4,16.7
				c13.7,15.5,30.9,25.1,51,29.3c25.3,5.2,49.3,1.1,71.6-12.1c13.6-8,24.4-18.8,32.4-32.4c0.5-0.9,1-1.8,1.6-2.7
				c0.5-0.7,1-1.6,2-0.9c0.8,0.6,0.6,1.6,0.2,2.4c-0.8,1.5-1.6,3.1-2.6,4.5c-11.2,17.8-26.7,30.4-46,38.3
				C311.5-788,298.2-785.4,281-785.5z"/>
			<path id="XMLID_58_" class="st2" d="M419-676.9c0.4,0.1,0.9,0.1,1,0.3c0.4,0.7,0.8,1.5,1,2.3c2,10.6,5.3,20.8,8.2,31.1
				c0.1,0.5,0.3,1,0.3,1.5c0,0.3-0.3,0.6-0.6,0.7c-0.3,0.1-0.7,0.1-1-0.1c-0.9-0.4-1.2-1.2-1.4-2.1c-2.6-9.1-5.7-18.1-7.4-27.5
				c-0.3-1.7-1.2-3.3-0.9-5.1C418.4-676.1,418.7-676.5,419-676.9z"/>
			<path id="XMLID_57_" class="st2" d="M126-646.8c0.2-0.9,0.4-2.3,0.8-3.6c2-7,3.9-14,5.1-21.2c0.1-0.7,0.3-1.4,0.7-2
				c0.2-0.4,0.7-0.8,1.3-0.4c0.3,0.2,0.6,0.4,0.7,0.7c0.1,0.5,0.2,1,0.1,1.5c-1.5,8.9-4.1,17.5-6.3,26.3c-0.1,0.6-0.6,1.4-1.5,0.9
				c-0.4-0.2-0.5-0.8-0.8-1.2C126-646,126-646.2,126-646.8z"/>
			<path id="XMLID_56_" class="st2" d="M278.2-801.9c-0.5,2.8-0.9,5.5-2,8c-0.1,0.3-0.8,0.4-1.3,0.5c-0.1,0-0.5-0.5-0.5-0.8
				c-0.3-2.8,0.9-5.4,1.4-8c0.1-0.6,0.6-1.2,1.5-1.1C278.1-803.3,278.1-802.6,278.2-801.9z"/>
			<path id="XMLID_55_" class="st2" d="M269.5-794c-0.8-0.2-1.2-0.6-1.1-1.1c0.5-3,1.4-6,2.7-8.7c0.2-0.4,0.6-0.8,1.2-0.6
				c0.5,0.1,1,0.5,0.9,1c-0.7,3-1.4,6-2.7,8.8C270.3-794.3,269.9-793.8,269.5-794z"/>
			<path id="XMLID_54_" class="st2" d="M307-804.6c0-1.2,0.3-1.6,0.8-1.8c0.6-0.3,1.1,0.1,1.3,0.5c1.1,2.7,2,5.5,1.9,8.4
				c0,0.5-0.3,1-0.9,1c-0.6,0-1-0.3-1.1-0.8C308.2-799.9,307.5-802.6,307-804.6z"/>
			<path id="XMLID_53_" class="st2" d="M340.9-809.4c-0.4,0.3-0.7,0.6-0.9,0.6c-0.5,0-1-0.2-1.4-0.5c-1.9-1.8-3.3-3.9-4.6-6.2
				c-0.2-0.4-0.3-1,0.3-1.4c0.5-0.3,0.9-0.3,1.4,0c0.3,0.2,0.5,0.4,0.7,0.7c1.4,1.8,2.7,3.5,4,5.3
				C340.7-810.4,340.8-809.9,340.9-809.4z"/>
			<path id="XMLID_52_" class="st2" d="M364.5-833.2c0,0.2,0,0.4-0.1,0.5c-0.3,0.4-0.8,0.7-1.3,0.5c-2.3-1.1-4.4-2.4-6.2-4.3
				c-0.1-0.1-0.2-0.3-0.2-0.5c0-0.3,0.1-0.6,0.2-0.9c0.2-0.4,0.5-0.5,0.8-0.3c2.4,1.2,4.7,2.6,6.6,4.6
				C364.5-833.5,364.5-833.3,364.5-833.2z"/>
			<path id="XMLID_51_" class="st2" d="M305.1-797.6c-0.4,0.5-0.6,1.2-0.9,1.3c-0.4,0.1-1.2-0.2-1.3-0.5c-0.8-2.6-1.7-5.1-1.6-7.9
				c0-0.5,0.4-0.9,0.9-1c0.6-0.1,1,0.3,1.2,0.8C304-802.5,304.5-800.1,305.1-797.6z"/>
			<path id="XMLID_50_" class="st2" d="M214.7-845.5c-0.2,0.3-0.3,0.7-0.6,0.8c-2.2,1-4.4,1.9-6.6,2.7c-0.3,0.1-0.9-0.3-1.3-0.6
				c-0.1-0.1,0-0.7,0.2-0.9c2-2,4.6-2.8,7.4-3C214.3-846.7,214.7-846.1,214.7-845.5z"/>
			<path id="XMLID_49_" class="st2" d="M367.2-836.9c-0.2,0.5-0.5,1-1.1,0.8c-2.5-0.7-4.8-1.9-6.9-3.4c-0.3-0.2-0.4-0.9-0.3-1.4
				c0.1-0.5,0.7-0.8,1.2-0.5c2.2,1,4.3,2.1,6.4,3.2C367-838,367.3-837.5,367.2-836.9z"/>
			<path id="XMLID_48_" class="st2" d="M240.3-815.4c-0.1,0.4,0,1-0.3,1.4c-1.2,1.7-2.4,3.3-3.7,4.8c-0.4,0.5-1.1,0.7-1.8,0.1
				c-0.5-0.4-0.4-0.9-0.1-1.4c1.4-1.9,2.8-3.8,4.3-5.7c0.2-0.2,0.7-0.3,0.9-0.2C239.9-816.1,240.1-815.7,240.3-815.4z"/>
			<path id="XMLID_47_" class="st2" d="M230.1-812.4c-0.2-0.3-0.5-0.6-0.5-0.8c1.1-3,3.4-5,5.8-6.8c0.2-0.1,0.7,0.1,0.9,0.3
				c0.2,0.2,0.5,0.7,0.4,0.8c-1.5,2.5-3.3,4.7-5.7,6.4C230.9-812.4,230.4-812.4,230.1-812.4z"/>
			<path id="XMLID_46_" class="st2" d="M343.2-813c-0.2,0.5-0.6,1-1.1,0.7c-2.2-1.4-3.8-3.3-4.7-5.7c-0.1-0.2,0.2-0.6,0.5-0.8
				c0.2-0.1,0.7-0.2,0.9-0.1c1.9,1.4,3.4,3.3,4.5,5.4C343.4-813.3,343.2-813.1,343.2-813z"/>
			<path id="XMLID_45_" class="st2" d="M214.8-842.4c0.4,0.3,1,0.5,1.1,0.9c0.1,0.4-0.3,0.9-0.6,1.3c-0.1,0.1-0.3,0.2-0.5,0.2
				c-1.8,0.3-3.4,2-5.3,0.6c-0.1-0.1-0.1-0.3-0.1-0.5C210.7-842,212.8-841.9,214.8-842.4z"/>
			<path id="XMLID_44_" class="st2" d="M330.2-1027c8.9,0.4,17.6,1.8,26,4.5c2.3,0.8,4.5,1.7,6.7,2.8c1.2,0.6,2.3,1.5,3.2,2.6
				c1.8,2,1.5,4.6-0.6,6.4c-1.2,1-2.7,1.7-4.2,1.9c-3.8,0.5-7.5,1.2-11.4,0.9c-7.8-0.7-15.5-1-23.1-2.9c-3.2-0.8-6.4-1.6-9.2-3.4
				c-1.2-0.7-2.4-1.5-3.3-2.5c-2-2.2-1.9-4.9,0.2-6.9c1.8-1.6,3.9-2.9,6.4-3.2C324-1027,327.1-1027.1,330.2-1027z"/>
			<path id="XMLID_43_" class="st2" d="M222.8-1010.7c-3.3,0-6.6,0.1-9.9,0c-2.6-0.1-5.1-0.8-7.4-2.3c-2.2-1.5-2.6-3.6-1.1-5.8
				c0.8-1.2,1.8-2.1,3-2.8c1.7-0.9,3.3-1.9,5.1-2.5c12.1-3.8,24.4-4.8,36.9-2.2c1.3,0.3,2.7,0.7,4,1.2c2,0.9,3.6,2.3,3.7,4.6
				c0.1,2.1-1.2,3.5-2.9,4.6c-1.8,1.1-3.7,1.8-5.8,2.3C240.1-1011.6,231.5-1010.8,222.8-1010.7z"/>
			<path id="XMLID_42_" class="st2" d="M286.3-930.6c5.3-0.2,11.2-2.7,16.1-7.6c2.2-2.2,3.3-4.8,3.5-7.9c0.2-4.7-1-8.9-3.3-12.9
				c-1.6-2.7-3.4-5.2-5.6-7.5c-0.6-0.6-1.1-1.3-1.5-2.1c-0.1-0.2,0.1-0.7,0.3-0.9c0.2-0.2,0.7-0.4,0.9-0.4c0.6,0.3,1.3,0.6,1.7,1.1
				c5.7,5.5,9.4,12.1,10.3,19.9c0.5,4.3-0.6,8.3-3.6,11.6c-6,6.6-13.5,9.6-22.3,9.3c-11.5-0.5-19.6-9.6-19.3-21.6
				c0.2-7.4,3.2-13.8,7.3-19.7c0.3-0.4,0.8-0.7,1.2-0.9c0.2-0.1,0.7,0.1,0.9,0.3c0.2,0.2,0.5,0.6,0.4,0.9c-0.4,0.9-0.8,1.9-1.4,2.7
				c-2.2,3.6-3.9,7.4-5,11.4c-1,3.4-1.1,6.9-0.3,10.3C268.6-935.7,275.6-930.4,286.3-930.6z"/>
			<path id="XMLID_41_" class="st2" d="M266.7-1041.8c16.1,1,32.1,2,48,4.8c0.8,0.1,1.8,0,2.4,0.8c0.2,0.2,0.4,0.6,0.3,0.9
				c0,0.3-0.3,0.7-0.6,0.7c-1.7,0.4-3.4,0.1-5.2-0.2c-6.2-0.8-12.3-1.7-18.5-2.5c-0.7-0.1-1.4-0.3-2.1-0.3
				c-12.3-0.3-24.5-2.1-36.8-1.3c-0.2,0-0.3,0-0.5,0c-1,0-2.1,0.2-2.7-0.9c-0.4-0.8,0.7-1.5,2.7-1.6
				C258.1-1041.5,262.4-1041.6,266.7-1041.8z"/>
			<path id="XMLID_40_" class="st2" d="M286.8-888.3c-5.9-0.2-11.7-0.5-17.6-1.4c-1.9-0.3-3.7-0.7-5.6-1.1c-0.7-0.2-1.4-0.6-1.3-1.4
				c0.2-1.2,1.2-1,2-1c0.7,0,1.4,0.2,2.1,0.3c6.8,1.2,13.7,1.8,20.6,2c11.4,0.2,22.3-1.8,32.8-6.6c2.5-1.2,4-1.2,4.1-0.3
				c0,1.8-1.7,2.1-2.8,2.6C310.2-890,298.7-888.1,286.8-888.3z"/>
			<path id="XMLID_39_" class="st2" d="M182.7-989.8c0.8,0.1,1.4,0.4,1.4,1.2c0,0.4-0.3,1.1-0.6,1.3c-1.3,0.5-2.6,0.8-3.9,1.4
				c-4.8,2-7.9,5.5-9.4,10.5c-1.6,5.5-0.1,10.3,4.1,14.1c0.8,0.7,1.7,1.2,2.5,1.9c0.6,0.5,0.8,1.1,0.3,1.8c-0.5,0.6-1.2,0.6-1.9,0.3
				c-4.6-2.4-7.4-6.3-8.1-11.4c-1.5-10.5,5.7-19,15.2-21C182.3-989.8,182.5-989.7,182.7-989.8z"/>
			<path id="XMLID_38_" class="st2" d="M409.2-973.7c0,8-2.3,12.4-6.9,15.6c-0.7,0.5-1.5,0.7-2.4,1c-0.2,0.1-0.7-0.2-0.9-0.4
				c-0.4-0.4-0.4-1-0.1-1.4c0.5-0.5,1-1,1.6-1.3c8.5-5.7,7.6-17.8-0.8-23.8c-1.4-1-3-1.6-4.6-2.4c-0.6-0.3-1.3-0.3-2-0.5
				c-1-0.3-1.5-1.3-1.1-2c0.4-0.7,1.1-0.9,1.8-0.7C402.7-988.2,409.2-980.3,409.2-973.7z"/>
			<path id="XMLID_37_" class="st2" d="M274.9-1052c7.7,0.2,15.2,1.4,22.7,2.7c1.5,0.3,3.1,0.6,4.6,1c0.7,0.2,1.4,0.5,1.4,1.3
				c0,0.9-0.8,1-1.5,1c-1,0-2.1-0.1-3.1-0.3c-10.6-2.2-21.2-3.5-32-2.9c-0.9,0-1.7,0-2.6-0.1c-0.4-0.1-0.9-0.5-1-0.9
				c-0.2-0.9,0.5-1.2,1.2-1.3C267.9-1051.8,271.4-1051.9,274.9-1052z"/>
			<path id="XMLID_36_" class="st2" d="M229-899.2c-0.7-0.1-1.2-0.3-1.3-0.9c-0.1-0.6,0.3-1,0.7-1.2c0.9-0.5,1.9-0.8,2.9-1.1
				c7.5-2.3,12.7-7.5,16.8-14c0.7-1.2,1.4-2.4,2.2-3.5c0.3-0.4,0.8-0.7,1.4-0.4c0.5,0.2,0.7,0.7,0.7,1.3c0,0.2,0,0.4-0.1,0.5
				c-4.6,9.5-11.4,16.5-21.9,19.3C229.9-899.2,229.4-899.2,229-899.2z"/>
			<path id="XMLID_35_" class="st2" d="M279.6-1063c5.2,0.4,9.8,0.7,14.5,1.1c0.7,0.1,1.4,0.2,2,0.5c0.6,0.3,1.3,0.6,1.2,1.5
				c-0.2,0.8-0.9,1.1-1.5,1c-4.4-1-9-0.6-13.4-1c-3-0.3-5.9,0.1-8.8,0.1c-0.9,0-1.7-0.1-2.6-0.2c-0.2,0-0.5-0.5-0.6-0.8
				c-0.3-0.6,0.1-1,0.6-1.2c0.6-0.2,1.3-0.4,2-0.5C275.2-1062.6,277.6-1062.8,279.6-1063z"/>
			<path id="XMLID_34_" class="st2" d="M326.4-924.3c0.3,0.1,0.8,0.1,0.9,0.3c0.5,0.9,1,1.8,1.3,2.8c2.6,6.5,6.8,11.5,12.8,15.2
				c1.4,0.9,3.2,1.5,4,3.2c0.1,0.3,0.1,0.7-0.1,1c-0.1,0.2-0.5,0.4-0.8,0.5c-0.1,0.1-0.4,0-0.5,0c-8.4-4.4-14.9-10.5-18.1-19.7
				c-0.3-0.8-0.5-1.7-0.2-2.5C325.8-924,326.2-924.1,326.4-924.3z"/>
			<path id="XMLID_33_" class="st2" d="M294-878.4c-1.6-0.1-3.3,0.4-4.9-0.6c-0.2-0.1-0.5-0.6-0.4-0.8c0-0.3,0.3-0.7,0.5-0.7
				c1.2-0.2,2.4-0.2,3.6-0.3c5.7-0.4,11.4-0.7,16.9-2.7c1.8-0.7,3.5-1.4,5.3-2.1c0.6-0.2,1.3-0.2,2-0.2c0.3,0,0.7,0.3,0.8,0.6
				c0.1,0.3,0,0.8-0.3,0.9c-0.8,0.6-1.7,1.2-2.6,1.6C308.2-879.8,301.3-878.6,294-878.4z"/>
		</g>
		<g id="XMLID_29_">
			<ellipse id="XMLID_31_" class="st0" cx="360.4" cy="-948.9" rx="20.1" ry="14.6"/>
			<ellipse id="XMLID_30_" class="st0" cx="218.8" cy="-948.9" rx="20.1" ry="14.6"/>
		</g>
	</g>
	<path id="XMLID_143_" class="st2" d="M-790.8-1009.9"/>
	<g id="XMLID_495_" class="st3">
		<g id="XMLID_499_" class="st4">
			<path id="XMLID_527_" class="st1" d="M1367.1-1011.3c0.2-6.8,0.3-13.5,1.5-20.2c0.3-1.6,0.8-2.9,2.1-4
				c5.8-5.3,10.4-11.7,14.8-18.1c9.5-14,17.2-28.9,22.3-45.1c1.4-4.5,2.5-9,3.4-13.6c0.4-2.2,1.5-3.2,3.6-3.8
				c9.4-2.7,16.5-8.6,22.2-16.3c1-1.4,1.7-3,2.4-4.6c1.7-4.2,2.7-8.6,3.1-13.1c1.1-13.5-6.6-21.7-17.7-25.6c-2.7-1-5.5-0.7-8.2,0.2
				c-2,0.6-3.9,1.4-5.9,2c-1.2,0.4-2-0.2-2.6-1.2c-0.3-0.6-0.5-1.3-0.6-2c-1.8-9.1-6.5-16.7-12.5-23.6c-6.5-7.4-14.4-13-23.1-17.6
				c-5.4-2.9-11-5.1-16.7-7.2c-10.6-3.9-21.2-7.7-31.4-12.5c-10-4.6-19.4-10.2-27.6-17.5c-3.5-3.1-6.8-6.4-9.5-10.3
				c-0.2-0.4-0.9-0.8-1.1-0.7c-0.4,0.1-0.8,0.7-0.9,1.1c-3.2,10.4-9.5,18.8-16.8,26.6c-5.4,5.7-11.2,10.9-17.4,15.7
				c-6.2,4.8-12.3,9.6-17.8,15.2c-6.1,6.3-11.1,13.3-14.3,21.5c-1.4,3.6-2.5,7.2-2.9,11c-0.2,2.2-1,2.6-3.1,2
				c-3-0.9-6.1-1.5-9.2-1.3c-2.9,0.2-4.4-1.2-5.5-3.7c-3.6-8-6-16.3-7-24.9c-1.7-14.4-1.7-28.8,0-43.1c2.8-23.1,13-42.6,29.7-58.7
				c16-15.4,35.2-20,56.7-16.8c1,0.2,2.1,0.2,3.1,0.5c1.7,0.5,3,0,4.5-0.8c12.2-6.7,25.5-9.8,39.2-11.8c14.2-2,28.3-1.6,42.4,1.9
				c14.7,3.7,28.9,8.8,42.3,15.8c12.3,6.5,22.7,15.4,31.2,26.3c10.6,13.6,19.8,28.1,25.6,44.5c6.5,18.3,8.6,37.1,6.2,56.4
				c-1,8.1-2.3,16.2-3,24.3c-1,11.1-1,22.2,0.2,33.3c1.4,12.9,4.2,25.7,6.2,38.5c1.3,8.2,2.5,16.5,2.4,24.8
				c-0.3,38.8-26.3,63.9-56.3,70.8c-14.6,3.4-29.4,5-44.4,4c-2.8-0.2-5.5-0.7-8.3-1c-1.2-0.2-1.8-0.8-1.7-2.1
				C1366.7-1001.3,1366.9-1006.3,1367.1-1011.3z"/>
			<path id="XMLID_526_" class="st1" d="M1308.6-768.6c-63.7,0.2-127.5,0.4-191.2,0.6c-1.7,0-3.5,0-5.2-0.1
				c-1.5-0.1-2.2-1.3-1.6-2.5c0.8-1.5,1.7-3,2.6-4.5c9.5-16,18.4-32.2,25.4-49.5c6.5-15.9,11.8-32.3,15.2-49.1
				c1.4-6.6,3.1-13.2,4.3-19.8c1.2-7.2,2-14.4,2.9-21.6c0.1-0.9,0.2-1.7,0.3-2.6c0.3-2.9,1.8-4.7,4.7-5.4c10-2.6,19.1-7.3,28.2-12
				c2-1,4-2.1,6.1-3c2.8-1.2,4.4-0.3,4.9,2.6c0.4,2.2,0.6,4.5,0.9,6.7c3.4,26.5,11.6,51.4,25.4,74.3c3.8,6.3,8.1,12,13.5,17.1
				c6.3,6,13.9,9.8,21.9,12.8c7.1,2.7,14.5,4.9,21.9,6.6c9.4,2.1,18.9,2.5,28.5,2.2c11.9-0.3,23.4-3.2,34.3-7.7
				c10.5-4.3,18.8-11.7,25.7-20.6c11.5-14.8,19.6-31.5,25.6-49.2c4.6-13.7,7.5-27.8,9.2-42.1c0.7-5.7,1.8-6.4,6.9-3.9
				c3.7,1.8,7.4,3.7,11.1,5.7c6.6,3.5,13.5,6.4,20.7,8.3c3.6,1,5.1,3,5.4,6.6c0.8,7.2,1.7,14.5,2.7,21.7c1.4,9.4,4,18.6,6.1,27.9
				c6.5,28.5,17.8,55.1,32.3,80.4c2.6,4.5,5.3,9,7.9,13.5c0.7,1.2,1.6,2.3,1.8,3.7c0.2,1.3-0.5,2.5-1.8,2.7
				c-1.4,0.1-2.8,0.1-4.2,0.1c-64.3,0-128.5,0-192.8,0C1308.6-768.9,1308.6-768.7,1308.6-768.6z"/>
			<path id="XMLID_525_" class="st1" d="M1242.7-1000.2c-5.7,0.5-10.1-0.6-14.5-1.3c-9.2-1.5-18.4-3.3-27.6-5
				c-2.2-0.4-4.4-1-6.5-1.8c-7.9-2.8-13.1-8.3-15.8-16.1c-3.5-10.3-2.9-20.5,1.2-30.5c1.5-3.5,3.3-6.9,5.2-10.2
				c8.1-14.2,12.9-29.5,14.5-45.8c0.1-0.7,0.1-1.4,0.2-2.1c0.5-3,1.2-3.5,4.2-2.6c0.3,0.1,0.7,0.2,1,0.3c7.9,2.8,7.2,0.7,8.2,9.6
				c1.3,11.2,5.2,21.6,10.5,31.4c8,15.1,16.9,29.5,29.2,41.6c1.7,1.6,2.2,3.4,2.1,5.6c-0.1,5-1.1,10-1.7,15
				c-0.3,2.6-0.6,5.2-1.1,7.7c-0.5,2.8-1.6,3.8-4.5,4.2C1245.4-1000,1243.5-1000.2,1242.7-1000.2z"/>
			<path id="XMLID_250_" class="st2" d="M1379.7-1176.8c4.9,1.5,8.5,4.5,10.5,9.3c2.4,5.9,0.9,11.3-4.4,15.1c-2.4,1.7-5.1,2.9-8,3.7
				c-8,2.3-16.1,2.1-24.2,0.8c-3.8-0.6-7.3-2.1-10.5-4.3c-6.1-4.1-7.2-13.2-1.1-18.3c2.3-1.9,4.7-3.5,7.5-4.5
				c5.7-2.2,11.6-3.4,17.9-3.2C1371.5-1178.3,1375.7-1178.1,1379.7-1176.8z M1344-1155c1.5,1.1,3.2,2,4.9,2.8c1.3,0.7,2.1,0,1.7-1.3
				c-1.8-6.1-0.8-12,1.1-17.9c0.1-0.3,0-0.7-0.2-0.9c-0.2-0.2-0.7-0.3-0.9-0.2c-3.1,1.2-6,2.8-8.1,5.4c-1.3,1.5-2,3.3-1.9,5.4
				C1340.9-1159.1,1341.8-1156.6,1344-1155z"/>
			<path id="XMLID_247_" class="st2" d="M1280.7-1175.9c3.5,1.1,6.7,2.8,9.5,5.1c6.7,5.4,5.3,14.9-1.3,18.9
				c-2.2,1.4-4.5,2.6-7.1,3.2c-9.8,2.4-19.5,2.5-29.1-0.8c-2.3-0.8-4.5-1.9-6.4-3.4c-4.6-3.5-6-8.4-4.1-13.8
				c1.8-5.3,5.6-8.6,10.9-10.2c3.9-1.2,7.8-1.5,12-1.3C1270.3-1178.5,1275.5-1177.5,1280.7-1175.9z M1245.1-1166.8
				c-2.2,4.9-1,9.2,3.4,12.3c1.4,1,3,1.6,4.6,2.4c0.2,0.1,0.6,0,0.9-0.2c0.4-0.2,0.4-0.5,0.2-0.9c-2.9-6.6-1.1-12.9,1.4-19.1
				c0.2-0.6,0.5-1.2,1-2.5C1250.9-1173.9,1247.2-1171.5,1245.1-1166.8z"/>
			<path id="XMLID_511_" class="st2" d="M1409.9-1100.9c-0.9,1.3-1.2,2.9-1.6,4.4c-5.6,18.4-13.9,35.5-26,50.6
				c-3.1,3.8-6.3,7.4-9.9,10.7c-1.8,1.6-2.7,3.5-2.9,5.9c-0.1,0.7-0.2,1.4-0.3,2.1c-0.4,10.8-1.9,21.5-1.4,32.2
				c0.8,16.6,6.5,31.1,19.6,42.1c2.8,2.4,5.8,4.4,9.3,5.6c4.6,1.7,9.1,3.3,13.7,5c0.8,0.3,1.7,0.4,2.3,1.1c0.2,0.2,0.3,0.7,0.2,0.9
				c-0.1,0.3-0.4,0.6-0.7,0.7c-1.2,0.3-2.4-0.2-3.5-0.6c-4.1-1.5-8.1-3-12.2-4.4c-2-0.7-2.3-0.6-2.8,1.6c-0.8,3.9-1.5,7.8-2.3,11.7
				c-3,14.8-7.5,29.2-11.8,43.7c-5.5,18.5-12.3,36.5-20.6,53.9c-4.1,8.5-8.9,16.5-14.5,24c-6.2,8.3-13.3,15.6-23.4,19.2
				c-1.6,0.6-1.6,0.9-1,2.7c0.3,1,0.8,2,0.9,3c0.6,4.4-1.8,8.4-5.7,10.1c-3.8,1.5-8.3,0.2-10.7-3.1c-2.5-3.4-2.4-8.4,0.3-11.6
				c1-1.2,2.3-2.1,3.4-3.2c-0.1-1-0.8-1.5-1.5-2.1c-17.1-14.9-30-33.1-41.4-52.5c-12.2-20.9-22.4-42.7-29.2-66c-2.6-9-5.1-18-7-27.2
				c-0.3-1.5-0.7-3.1-1-4.6c-1-4-1-4-4.6-2.1c-4.7,2.6-9.4,5.3-14.1,7.8c-0.9,0.5-1.9,0.7-2.9,1c-0.2,0.1-0.7-0.3-0.8-0.6
				c-0.1-0.2-0.1-0.8,0-0.9c0.6-0.6,1.3-1.1,2.1-1.5c3.8-2.1,7.5-4.4,11.4-6.3c13.6-7,21.9-18.3,26.9-32.4
				c2.3-6.6,3.7-13.4,4.6-20.3c1.2-8.6,1.9-17.2,2.9-25.9c0.3-3-0.4-5.2-2.6-7.4c-17.8-17-29.1-37.8-36.3-61.1
				c-0.3-0.8-0.5-1.7-0.8-2.5c-1-3-1-3-4.2-2.4c-2.9,0.6-5.9,0.7-8.8-0.1c-7.9-2.3-12.2-10.3-10-18.6c0.2-0.8,0.6-1.6,0.9-2.4
				c0.4-0.9,0.2-1.7-0.4-2.4c-0.3-0.4-0.7-0.8-1.1-1.1c-5.9-6.5-9.4-14-10.7-22.7c-0.9-5.9,0-11.4,2.5-16.7
				c4.4-9.5,14.2-14.4,24.5-12.4c2.2,0.4,4.4,0.9,6.5,1.9c0.8,0.4,1.6,1,1.1,2c-0.3,0.6-1.1,0.8-1.8,0.6c-0.8-0.3-1.7-0.5-2.5-0.8
				c-2.5-1-5.1-1.1-7.7-1.1c-8.6,0-14.4,4.2-17.9,11.9c-2.5,5.4-2.4,11.2-1.4,16.9c1.3,7,4.5,13.1,9.3,18.4c1.7,1.9,1.8,1.9,3.7,0.4
				c2-1.5,4.1-2.7,6.4-3.3c0.6-0.2,1.4-0.2,2-0.1c0.3,0,0.6,0.4,0.7,0.6c0.3,0.5,0,1.1-0.3,1.4c-0.6,0.4-1.2,0.6-1.9,0.9
				c-1.4,0.7-2.9,1.2-4.2,2.1c-2.1,1.4-2.1,2.4-0.1,3.9c3.4,2.5,7.2,4.2,11.4,4.9c2.1,0.3,3,1.3,3.2,3.3c1,6.5,2.7,12.9,4.7,19.2
				c5.5,17,13.4,32.7,24.7,46.7c9,11.1,19.5,20.2,32.1,26.9c8.9,4.6,18.3,7.4,28.2,8.6c4.8,0.6,9.7,0,14.5-0.7
				c6.3-1,12.7-2,18.8-4.1c16.6-5.6,30-15.8,41.3-28.9c13.7-15.9,22.7-34.4,28.5-54.5c1.4-4.7,2.7-9.4,3.2-14.2
				c0.2-2.2,1.3-2.9,3.2-3.2c4.5-0.8,8.6-2.8,12.2-5.6c1.4-1.1,1.4-2-0.2-2.6c-2.1-0.8-4.2-1.5-6.5-0.5c-0.7,0.3-1.5,0-1.7-0.7
				c-0.2-0.7,0.4-1.3,1-1.7c1.4-0.9,3-1,4.5-0.6c1.5,0.3,3,0.9,4.4,1.5c2.7,1.1,2.7,1.2,4.7-1.1c3.7-4.4,6.6-9.4,8.1-15
				c0.8-3.2,1.6-6.4,1.4-9.8c-0.1-1.7-0.8-2.3-2.3-1.8c-1.5,0.5-2.9,1.3-4.4,1.7c-3.8,1-5.6,2.8-5.6,7.2c0.1,4.3-3,7.6-6,10.6
				c-0.4,0.4-1,0.3-1.4,0c-0.6-0.3-0.6-0.9-0.3-1.3c0.9-1.3,1.8-2.5,2.7-3.8c1.4-2,2.5-4.1,2.7-6.7c0.1-1.4-0.3-2.2-2-2.3
				c-1.1,0-1.2-1.1-0.6-1.9c0.3-0.4,0.8-0.7,1-1.1c0.4-0.8,0-1.6-0.7-1.6c-1.9,0-2.8-0.7-2.9-2.7c0-1-1.2-1.2-2-1.2
				c-2.1,0-4.2,0.1-6.2,0.1c-0.5,0-1-0.3-1-0.9c0-0.6,0.3-1.1,0.8-1.2c3.2-0.6,6.5-1.6,9.6,0.2c1.1,0.6,2.2,1,3.4,0.1
				c3.1-2.2,6.3-4.4,9.4-6.6c0.9-0.6,0.9-1.5,0.2-2.2c-3.2-3.7-7.3-5.9-12.2-6.2c-3.8-0.3-7.6,0-11.3,1.4c-1,0.4-2,0.9-2.8-0.2
				c-0.6-0.7,0.3-1.9,2-2.5c9.6-3.5,18.4-2.4,26,5c1,1,1.7,2,3.5,1.5c1.6-0.5,2.1,0.3,1.1,2c-0.6,1-0.9,1.8-0.3,2.8
				c0.3,0.6,0.5,1.3,0.8,1.9c0.4,0.9,0.3,2.3,1.3,2.7c0.7,0.3,1.7-0.1,2.5-0.2c0.3,0,0.7-0.1,1,0.1c0.5,0.3,0.7,0.8,0.4,1.3
				c-0.1,0.3-0.4,0.6-0.7,0.7c-2.6,0.8-3.1,2.7-3,5.2c0.3,9.4-3.1,17.6-8.8,25c-0.7,1-1.6,1.9-2.3,2.8c-0.8,0.9-0.9,1.8-0.3,2.8
				c0.5,0.9,1.1,1.8,1.5,2.7c5,10.2-3.1,19.9-11.1,21.1C1417.6-1097.4,1415.2-1097.9,1409.9-1100.9z M1325.7-883.2
				c-0.9,0-1.3,0.1-1.6,0c-0.5-0.1-1-0.3-1.1-0.9c0-0.6,0.2-1,0.8-1.2c0.6-0.2,1.3-0.4,2-0.5c6.9-1.5,13.1-4.4,18.7-8.7
				c11.5-8.9,20.9-19.8,28.9-31.9c3.3-5.1,6.4-10.4,8.6-16c0.9-2.4,1.6-4.9,2.3-7.4c0.2-0.8,0.2-1.8-0.4-2.5c-1-1-1.9-2.4-3.1-2.7
				c-1.6-0.4-1.9,1.6-2.9,2.5c-1.3,1.2-2.3,2.6-3.5,3.8c-1.6,1.6-3,3.3-3.3,5.7c-0.3,2.2-1.9,4-4.2,4c-2.5,0-4.2,1.4-6.1,2.5
				c-2.9,1.6-5.7,3.3-8.6,4.8c-1.5,0.8-2.7,1.6-3.4,3.6c-1.4,3.7-3.9,4.6-7.4,2.8c-1.9-0.9-3.5-0.8-5.4-0.4
				c-5.1,1.2-10.1,2.4-15.4,2.5c-2.5,0-4.5,0.6-6.5,2.5c-3,2.9-7.2,2.4-9.3-1.1c-1.3-2.1-2.9-2.8-4.9-3.2
				c-5.3-1.1-10.4-2.7-15.3-5.1c-1.9-0.9-3.6-1.5-5.9-0.7c-2.8,0.9-4.9-0.3-5.5-3.2c-0.5-2.4-2-3.4-3.7-4.7
				c-2.5-1.9-4.9-3.9-7.2-5.9c-1.6-1.4-2.9-2.7-5.3-2.8c-2.1-0.1-3.2-1.4-3-3.5c0.2-2.1-0.6-3.6-1.7-5.3c-1.2-1.7-2.1-3.6-3.2-5.3
				c-1.4-2.3-2.1-5.1-4-7.2c-2.8,1.5-3.2,4.7-5.2,6.8c-1.4,1.5-1.3,3.1-0.4,4.8c0.5,0.9,0.8,1.9,1.2,2.9
				c7.8,17.7,18.9,33.1,32.4,46.8c9.8,9.9,21.4,17.1,34.6,21.6c0.5,0.2,1,0.3,1.4,0.6c0.2,0.2,0.4,0.6,0.5,0.9
				c0.2,0.7-0.4,0.9-0.9,1c-2.3,0.3-4.5-0.5-6.5-1.4c-10.3-4.7-20.1-10.2-28.4-18.2c-14.5-14-26.3-29.9-34.8-48.3
				c-0.8-1.8-1.1-4-3-5.3c-1.9,0.9-3,2.8-4.6,4.1c-0.3,0.2-0.5,0.5-0.8,0.7c-1.3,1-1.4,2.1-1,3.7c2.5,9.9,4.6,19.9,7.4,29.8
				c10.3,36.1,27.4,68.9,49.8,99c6.9,9.2,15.2,17.1,23.8,24.8c0.3,0.2,0.5,0.5,0.8,0.7c2.5,2,5,2.5,8.2,1.2
				c6.7-2.8,12.5-6.6,17.3-12.1c8.2-9.5,14.8-20.1,20.2-31.5c9-19,16-38.8,21.9-59c4.7-15.8,9.2-31.6,11.9-47.9
				c0.4-2.6-0.2-3.9-2.2-5.1c-1.3-0.7-1.9-0.7-2.2,0.8c-1.6,5.9-4.4,11.3-7.3,16.7c-6.2,11.4-14.6,21.1-23.5,30.4
				c-4,4.1-8.5,7.7-13.3,10.9C1337.2-886.4,1331.4-884.1,1325.7-883.2z M1361.3-942.7c-0.1-4.2,0.4-4.9,4.3-5.9
				c0.7-0.2,1.5-0.7,2-0.4c2.8,1.5,4.1-0.6,5.6-2.3c1.2-1.3,2.3-2.6,3.4-4c1.8-2.4,1.8-2.5,0.1-5c-4.9-7.3-8.3-15.2-10.2-23.7
				c-0.3-1.2-0.6-2.4-0.9-3.5c-0.3-1.3-1.1-1.6-2.3-1.5c-0.9,0.1-1.7,0.2-2.6,0.3c-6.1,0.6-12.2,0.5-18.2-0.3
				c-16.8-2.1-33-6.1-48.6-12.9c-7.3-3.2-14.2-7.1-20.6-12c-4.3-3.3-8.2-6.9-12.1-10.6c-1.2-1.2-2.8-2-4.2-2.9
				c-1.5,1.3-0.9,3.2-1.1,4.8c-0.7,4.6-1.1,9.3-1.6,13.9c-1.3,11.2-2.7,22.4-6.9,33c-0.7,1.7-0.6,3.3,0.1,5
				c1.9,4.5,4.1,8.8,6.7,12.9c1,1.5,2,2.5,4.1,2.5c2.6,0.1,4.2,1.6,3.7,3.9c-0.5,2.6,0.6,4,2.2,5.3c2.4,2,4.8,3.9,7.3,5.9
				c1.2,0.9,2.2,1,3.7,0.2c3.9-2.1,6.1-1,7.3,3.2c0.1,0.3,0.1,0.7,0.1,1c-0.1,1.7,0.9,2.4,2.3,3.1c5.3,2.6,11,4.3,16.7,5.5
				c1.8,0.4,2.7,0,3.9-1.5c2.9-3.7,5.9-3.7,9.1-0.3c0.4,0.4,0.8,0.8,0.9,1.2c0.7,2.2,2.4,2.3,4.2,2.1c5-0.4,10-1.2,14.9-2.4
				c2-0.5,3.2-1.2,4-3.4c1.1-3.1,3.8-4.2,6.2-2.7c2.5,1.7,4.5,1.1,6.7-0.2c2.5-1.5,5.1-2.9,7.7-4.4
				C1360.7-939.6,1362.1-940.6,1361.3-942.7z M1419.2-1100.4c8.8,0.1,16.6-10,11-18.7c-1.4-2.1-1.6-2.3-3.6-0.9
				c-3.4,2.4-7,4.6-11.1,5.6c-2.6,0.6-3.9,2-4,4.6c0,0.7,0,1.4-0.3,2c-1.1,2.4,0.1,4,1.8,5.4
				C1414.8-1100.8,1416.9-1100.3,1419.2-1100.4z M1205.8-1101.7c1.1,0.1,2.6-0.3,4-0.9c1.1-0.4,1.8-1.1,1.6-2.3
				c-0.3-2-0.8-4.1-1.2-6.1c-0.2-0.9-0.7-1.6-1.6-1.8c-4.6-1.2-8.8-3.2-12.7-5.9c-1.1-0.8-1.9-0.4-2.4,0.9
				C1190.6-1110.1,1196.7-1101.7,1205.8-1101.7z M1318-783.3c0.1-3.7-2.3-6.5-5.8-6.7c-3.8-0.2-6.7,2.5-6.8,6.2
				c-0.1,3.6,3.1,6.9,6.5,6.9C1315.1-776.8,1317.9-779.7,1318-783.3z M1436.9-1163.9c-0.3,0.1-0.7,0.1-1,0.3c-3,2-6,4.1-9,6.2
				c-0.8,0.5-1.1,1.3-0.5,2.2c0.6,0.9,1.3,1.8,2.5,1.3c2.4-0.9,4.8-1.9,7.3-2.8c4-1.5,3.6-1.9,2.1-5.8c-0.1-0.3-0.3-0.6-0.5-0.9
				C1437.5-1163.5,1437.2-1163.7,1436.9-1163.9z"/>
			<path id="XMLID_510_" class="st2" d="M1545.1-771.1c-9.9,1.3-19.8,1-29.6,1.5c-1,0.1-2.1,0.2-3-0.4c-0.3-0.2-0.5-0.6-0.5-0.8
				c0-0.3,0.3-0.6,0.5-0.8c0.7-0.6,1.6-0.5,2.5-0.5c12-0.4,23.9-0.9,35.9-1.3c7.6-0.3,15.3-0.6,22.9-0.9c0.7,0,1.4-0.1,2.1-0.2
				c0.8-0.2,1.2-0.8,1.1-1.5c-0.4-2-0.8-4.1-1.5-6c-3.9-10.6-8.6-20.8-13.6-30.9c-10.3-20.5-23.8-38.6-39.5-55.3
				c-17.8-18.8-38.1-34.4-59.8-48.4c-0.7-0.5-1.5-0.9-2.1-1.5c-0.3-0.3-0.6-1-0.4-1.3c0.2-0.3,0.9-0.7,1.3-0.6
				c1.1,0.4,2.2,0.9,3.2,1.6c3.7,2.3,7.4,4.6,10.9,7.2c12.4,9,24.8,17.8,35.9,28.4c13,12.3,25.2,25.4,35.6,40
				c5.1,7.1,9.7,14.4,13.8,22.1c6.2,11.5,11.9,23.2,16.4,35.4c1.3,3.4,2.4,6.9,2.5,10.6c0,2.1-0.6,2.9-2.7,3c-5,0.3-10,0.7-15.1,0.8
				C1556.2-771,1550.7-771.1,1545.1-771.1z"/>
			<path id="XMLID_509_" class="st2" d="M1077.7-769.4c-13.4-0.6-23.1-1-32.8-1.4c-0.5,0-1,0-1.6,0c-3.5-0.2-4.3-1.1-3.5-4.7
				c0.6-2.9,1.3-5.8,2.3-8.5c4.7-13.1,10.8-25.5,17.5-37.7c9.6-17.4,21.8-32.9,35.5-47.4c17.3-18.3,37.1-33.5,58-47.3
				c1.6-1,3.1-2.2,5-2.7c0.6-0.2,1,0.2,1.2,0.7c0.1,0.3,0,0.8-0.2,0.9c-1.1,0.9-2.2,1.7-3.3,2.4c-14.7,9.3-28.7,19.6-41.6,31.2
				c-24.9,22.2-45.6,47.6-59.7,78c-3.7,8-7.1,16.2-10.5,24.4c-0.1,0.3-0.2,0.7-0.3,1c-2.4,7.7-1.2,7,5,7.2
				c14.9,0.5,29.8,1.2,44.7,1.7c3.6,0.1,7.3,0.2,10.9,0.4c0.8,0,1.7,0.3,2.5,0.5c0.2,0.1,0.4,0.6,0.3,0.9c0,0.3-0.2,0.7-0.5,0.8
				c-0.9,0.6-2,0.4-3,0.4C1093.8-769.1,1083.8-768.8,1077.7-769.4z"/>
			<path id="XMLID_246_" class="st2" d="M1352.9-1210.1c12,0.4,22,4.4,31,11c1.2,0.9,2.4,2,3.5,3.1c1.4,1.5,1.8,3.3,1,4.2
				c-1.1,1.3-2.5,1-3.8,0.6c-1.3-0.4-2.6-0.9-3.9-1.4c-6.1-2.5-12.4-4.3-19-5.1c-2.7-0.3-5.5-0.5-8.3-0.7c-0.9-0.1-1.7,0-2.6-0.1
				c-4.5-0.5-6.4-2.9-5.8-7.4c0.3-2.5,1.9-4,4.5-4.3C1350.8-1210.2,1352.2-1210.1,1352.9-1210.1z"/>
			<path id="XMLID_245_" class="st2" d="M1269.1-1195.3c-8,0-15.9,1-23.7,2.8c-2.2,0.5-4.4,0.9-6.6,1.2c-0.7,0.1-1.3-0.4-1.6-1.1
				c-0.3-0.7,0-1.4,0.6-1.8c0.8-0.6,1.7-1.2,2.6-1.7c11.2-5.8,23-9.5,35.6-10.6c1-0.1,2.1-0.1,3.1,0.1c1.4,0.2,2.2,1,2.3,2.4
				c0.2,2.1,0.4,4.1,0.6,6.2c0.2,2-0.6,3-2.5,3.1c-1.2,0.1-2.4,0-3.6-0.1C1273.6-1195.1,1271.3-1195.2,1269.1-1195.3z"/>
			<path id="XMLID_506_" class="st2" d="M1314.6-1083.3c-9.7,0.3-19-1.7-28.1-4.6c-6.4-2.1-11.9-5.5-17-9.7c-0.5-0.4-1-0.9-1.5-1.5
				c-0.6-0.6-1.2-1.3-0.8-2.3c0.3-0.7,1.6-0.5,2.6,0.5c8.6,8.3,19.4,11.7,30.8,13.8c5.3,1,10.7,1.1,16,1.2c9.2,0.2,17.8-2.2,26.1-6
				c5.9-2.7,11.2-6.2,16.5-9.9c1.3-0.9,2.6-1.7,3.9-2.5c0.4-0.3,1.1-0.1,1.3,0.4c0.1,0.4,0,1-0.1,1.4c-0.1,0.3-0.4,0.5-0.7,0.7
				c-10.5,7.8-21.6,14.5-34.6,17.3C1324.3-1083.3,1319.4-1083.4,1314.6-1083.3z"/>
			<path id="XMLID_505_" class="st2" d="M1314.3-1112.7c-2.8-0.1-5.5-0.2-8.3-0.5c-0.7-0.1-1.3-0.7-0.9-1.5c0.2-0.4,0.7-0.9,1.1-1
				c1-0.1,2.1,0,3.1,0.1c5.2,0.4,10.4,0.5,15.5-0.6c1.2-0.3,2.4-0.5,3.5-0.9c2.6-0.9,3.9-2.8,3.9-5.5c0-1.5-0.3-3.1-0.6-4.6
				c-2.7-13.6-6-27.1-9.5-40.5c-0.7-2.8-1.3-5.7-1.9-8.6c-0.2-0.7,0.2-1.4,1-1.5c0.8-0.1,1.3,0.5,1.5,1.2c0.5,1.8,0.8,3.7,1.3,5.6
				c3.7,13.9,7.1,27.9,10,42c0.5,2.2,0.8,4.4,0.7,6.7c-0.1,4.4-2.1,7.2-6.5,8.3c-2.8,0.7-5.7,1.4-8.7,1.3c-1.7-0.1-3.5,0-5.2,0
				C1314.3-1112.8,1314.3-1112.7,1314.3-1112.7z"/>
			<path id="XMLID_504_" class="st2" d="M1312.9-1069.1c-5.6,0.2-11-0.3-16.4-1.9c-2-0.6-3.9-1.3-5.6-2.5c-0.3-0.2-0.6-1-0.5-1.3
				c0.1-0.3,0.8-0.6,1.2-0.7c0.5,0,1,0.2,1.5,0.4c10.6,4.6,21.5,4.3,32.6,2.3c1.5-0.3,3-0.7,4.6-0.9c0.7-0.1,1.4,0,1.7,0.8
				c0.3,0.9-0.4,1.3-1,1.5c-4.4,1.1-8.7,2.1-13.2,2.3C1316-1069.1,1314.5-1069.1,1312.9-1069.1z"/>
			<path id="XMLID_503_" class="st2" d="M1206.5-1157.7c-7.3-1.6-12,7.1-9.9,13.2c0.7,2,1.8,3.7,3.1,5.4c0.7,1,1.4,2,2,3
				c0.1,0.2-0.1,0.7-0.3,0.9c-0.2,0.2-0.6,0.4-0.9,0.4c-0.3,0-0.7-0.2-0.9-0.4c-3.8-3.8-6.5-8.1-6.1-13.8c0.3-4.3,2.4-7.5,5.8-10
				c1.9-1.3,4-2,6.4-1.4c1.5,0.4,3.2-0.1,4.5,1c0.2,0.2,0.4,0.6,0.3,0.9c0,0.3-0.3,0.8-0.5,0.8
				C1208.8-1157.6,1207.6-1157.7,1206.5-1157.7z"/>
			<path id="XMLID_502_" class="st2" d="M1192.5-1168c1.2,0,2.3,1.1,2.4,2.3c0.1,1.5-1.3,2.8-3.1,2.8c-1.1,0-2.3-1.3-2.1-2.5
				C1189.9-1166.8,1191.2-1168.1,1192.5-1168z"/>
			<path id="XMLID_501_" class="st2" d="M1190.3-1159.2c0.1,1.4-1,2.7-2.4,2.9c-1.2,0.2-2.4-0.7-2.6-2c-0.2-1.6,1-3.2,2.6-3.2
				C1188.9-1161.6,1190.2-1160.4,1190.3-1159.2z"/>
			<path id="XMLID_500_" class="st2" d="M1316.5-879.5c-1.8,0-3.2-1.7-3.3-3.8c0-2.4,1.6-4,3.7-3.9c1.7,0.1,2.9,1.5,3,3.5
				C1319.9-881.4,1318.4-879.5,1316.5-879.5z"/>
		</g>
		<g id="XMLID_496_" class="st4">
			<circle id="XMLID_498_" class="st0" cx="1383.5" cy="-1119.4" r="20.1"/>
			<circle id="XMLID_497_" class="st0" cx="1248.1" cy="-1119.4" r="20.1"/>
		</g>
	</g>
	<path id="XMLID_313_" class="st5" d="M-564-98.9c-0.7,19.4,4.5,34.7,8,43c7.5,15,22.3,39.3,49,60c13.5,10.4,61.6,47.6,115,34
		c47.6-12.2,84.1-60.9,90-121c-2.9-6.5-46.3-99.3-134-108c-8.7-0.9-77.7-6.7-110,38C-562.6-129.9-563.9-101.5-564-98.9z"/>
</g>
<g id="Warstwa_4">
	<path id="XMLID_306_" class="st6" d="M1971.9,245.1c-0.2-0.7-1-0.9-1.7-0.8c-0.7,0.1-1.4,0.2-2.1,0.3c-7.9,2.2-13.5,9.7-13.5,17.1
		c-0.1,6,1.9,10.2,6,13.5c2.3,1.9,4.1,2.3,4.4,1.1c0.4-1.9-1.4-2.2-2.4-3c-5-4.2-6.6-10-4.4-16c1.7-4.5,4.8-7.6,9.2-9.5
		c1.1-0.5,2.3-0.8,3.5-1.2C1971.7,246.4,1972.1,245.8,1971.9,245.1z"/>
	<g id="XMLID_303_">
		<path id="XMLID_305_" class="st6" d="M2158.9,261.1c1-0.6,1.6-1.7,1.9-3c0.2-0.7,0.2-1.4,0.3-2.1c0.9-10.5,1.1-20.9,0.1-31.4
			c-0.3-3.2-1.6-4.6-4.8-5.2c-0.9-0.2-1.8-0.1-2.6-0.2c-8.6-0.9-17.1-0.4-25.7-1h-10.5c-3.6,0-7.3,0.1-11,0
			c-4.8-0.1-9.4,0.7-14.1,1.4c-3.2,0.5-4.1,1.7-4.2,5c0,2.3,0.2,4.5,0.4,6.8c0.7,6,0.5,6.3-5.6,5.5c-6.4-0.9-12.9-1.7-19.3,0.1
			c-1,0.3-1.7-0.3-1.7-1.3c-0.3-3.7-0.6-7.3-0.8-11c-0.2-2.9-0.6-3.4-3.4-3.6c-5.1-0.3-10.1-0.4-15.2-0.5c-14.5-0.3-29,1.7-43.5,2.1
			c-1.4,0.1-2.8,0.4-4.1,0.8c-3,0.9-3.9,2.1-4.1,5.3c0,0.5,0,1,0,1.6c0.2,5.4,0.4,10.8,0.5,16.3c0,3,0.5,5.9,1,8.8
			c0.3,2,1.2,3.7,2.3,5.2c0.7,1,1.7,1.7,3.1,1.8c0.2,0,0.3,0,0.4,0c-5.8,2.6-9.7,7.3-9.7,12.6c0,8.2,9.1,14.8,20.3,14.8
			c11.2,0,20.3-6.6,20.3-14.8c0-4.6-2.9-8.8-7.5-11.5c6,0.1,12,0.3,17.9,0.8c5.7,0.4,11.5-0.3,17.3-0.9c3.6-0.4,4.8-1.6,5.5-5.2
			c0.4-1.7,0.3-3.5,0.2-5.2c-0.2-3.7-0.3-7.4-0.5-11c-0.1-1.3,0.6-2,1.7-2.3c2.5-0.7,5-1.6,7.7-1.3c4.9,0.4,9.8,0.8,14.6,1.4
			c2.7,0.3,2.7,0.5,3.1,3.2c0.6,4.5,1.1,9,1.9,13.5c0.7,4.2,2.7,6,6.9,6.7c1.2,0.2,2.4,0.2,3.6,0.3c9.4,0.3,18.9,0.5,28.3,0.1
			c3.3-0.1,6.6-0.2,9.9-0.3c-4.8,2.7-8,7-8,11.8c0,8.2,9.1,14.8,20.4,14.8s20.4-6.6,20.4-14.8C2172.8,268.6,2167,263.1,2158.9,261.1
			z"/>
		<path id="XMLID_304_" class="st6" d="M2041.4,234.8c-0.2-0.5-0.3-1.2,0.3-1.4c0.4-0.2,1,0,1.4,0.2c1.7,0.9,3.2,2,4.7,3.3
			c4.3,3.8,3.2,10.4-0.6,13.3c-1.5,1.1-3.1,2.2-4.9,2.6c-0.2-0.3-0.4-0.5-0.4-0.6C2043.9,246.3,2043.5,240.5,2041.4,234.8z"/>
	</g>
	<path id="XMLID_302_" class="st6" d="M2039,205.1c-0.1-5.4-0.4-6.1-6.2-4.4c-9.9,2.9-19.4,6.8-28.8,11c-0.5,0.2-1,0.4-1.4,0.7
		c-1.7,1.1-4.5,1.8-3.9,4.3c0.5,2.1,3.2,1.7,5.1,1.7c4.6,0.1,9.1,0,13.6,0v-0.1c4.5,0,9.1,0.1,13.6,0c1.5,0,3.1-0.4,4.6-0.7
		c2.1-0.5,3.4-1.9,3.4-4.1C2039.2,210.7,2039.1,207.9,2039,205.1z"/>
	<path id="XMLID_277_" class="st6" d="M2837.3,78.8c-1.5-0.5-3-1-4.4-1.5c-5.1-1.9-10.1-3.9-12.8-9.1c-0.2-0.3-1-0.6-1.4-0.4
		c-0.3,0.1-0.7,0.9-0.6,1.3c0.4,2.3,1.9,4.1,3.7,5.5c4.2,3.2,9,5.2,14.1,6.5c0.5,0.1,1,0,1.5-0.2c0.3-0.1,0.4-0.5,0.6-0.7
		C2838.1,79.4,2837.8,79,2837.3,78.8z"/>
	<path id="XMLID_276_" class="st6" d="M2853.9,77.1c-2-0.4-4.1-0.7-6.2-1.2c-6.7-1.5-13.2-3.6-18.1-8.8c-4-4.4-7.6-9.1-9.2-15
		c-0.1-0.5-0.4-1-0.7-1.4c-0.2-0.2-0.7-0.3-0.9-0.3c-0.3,0.1-0.6,0.4-0.7,0.7c-0.5,2.2,0.4,4.1,1.4,6c1.8,3.6,4.1,6.9,6.6,10
		c1.9,2.3,4.1,4.3,6.6,5.9c6.2,3.8,13.1,5.5,19.4,6.3c1.1,0,1.3,0.1,1.4,0.1c0.7-0.1,1.5,0,1.6-0.9
		C2855.3,77.7,2854.6,77.3,2853.9,77.1z"/>
	<path id="XMLID_299_" class="st6" d="M2093,294.6c-0.1-3.4-1.1-6.5-1.9-9.7c-2.1-8.1-4.2-16.2-6.2-24.3c-0.6-2.5-0.9-5.2-1.4-7.7
		c-0.1-0.7-0.2-1.4-0.5-2c-0.2-0.3-0.8-0.5-1.3-0.6c-0.2,0-0.6,0.5-0.6,0.7c-0.4,3.7,0.6,7.3,1.5,10.8c2.3,9.5,4.8,18.9,7.2,28.4
		c0.4,1.7,0.6,3.4,0.8,5.1c0.3,2.6-1.1,4.3-3.4,5.3c-2.1,0.9-4.3,1.4-6.6,1.5c-3.1,0.1-6.3,0.3-9.3-0.9c-0.5-0.2-1-0.2-1.6-0.2
		c-0.3,0-0.7,0.2-0.9,0.5c-0.3,0.5-0.2,1,0.3,1.4c2.7,2.1,5.9,1.6,9.3,1.8c1.6-0.1,3.6-0.1,5.5-0.3c1-0.1,2-0.5,3-0.8
		C2091.7,301.8,2093.1,299.7,2093,294.6z"/>
	<path id="XMLID_298_" class="st6" d="M2156.9,208.8c-1.2-1.4-2.8-2.1-4.4-2.8c-10.1-4.5-20.5-8-31.3-10.5c-1.9-0.5-3.8-0.6-5.7-0.4
		c-2.2,0.2-3.1,1.2-3.3,3.4c-0.3,3,0.1,5.9,0.6,8.9c0.8,4.6,2.3,5.8,7.1,5.9c5.1,0.1,10.2,0,15.2,0v-0.1c1.6,0,3.2,0,4.7,0
		c3.9,0,7.7,0.1,11.6,0.1c1.8,0,3.5-0.3,5-1.3C2157.6,211.1,2157.8,209.8,2156.9,208.8z"/>
	<path id="XMLID_297_" class="st6" d="M2185.3,244.5c-1-0.3-2.1-0.6-3.1-0.1c-0.3,0.1-0.5,0.5-0.5,0.8s0,0.9,0.2,0.9
		c1.4,0.6,2.9,1.1,4.3,1.7c11.8,5.2,13.4,20.2,3.7,26.1c-0.6,0.3-1,0.9-1.4,1.5c-0.2,0.2-0.1,0.7,0.1,0.9c0.2,0.3,0.6,0.6,0.8,0.5
		c0.7-0.1,1.4-0.2,1.9-0.6c5.1-3.3,7.7-7.9,7.6-16.2C2199,254.1,2193.2,246.6,2185.3,244.5z"/>
	<path id="XMLID_296_" class="st6" d="M2185.3,244.5c-1-0.3-2.1-0.6-3.1-0.1c-0.3,0.1-0.5,0.5-0.5,0.8s0,0.9,0.2,0.9
		c1.4,0.6,2.9,1.1,4.3,1.7c11.8,5.2,13.4,20.2,3.7,26.1c-0.6,0.3-1,0.9-1.4,1.5c-0.2,0.2-0.1,0.7,0.1,0.9c0.2,0.3,0.6,0.6,0.8,0.5
		c0.7-0.1,1.4-0.2,1.9-0.6c5.1-3.3,7.7-7.9,7.6-16.2C2199,254.1,2193.2,246.6,2185.3,244.5z"/>
	<g id="XMLID_293_">
		<path id="XMLID_295_" class="st6" d="M2158.9,261.1c1-0.6,1.6-1.7,1.9-3c0.2-0.7,0.2-1.4,0.3-2.1c0.9-10.5,1.1-20.9,0.1-31.4
			c-0.3-3.2-1.6-4.6-4.8-5.2c-0.9-0.2-1.8-0.1-2.6-0.2c-8.6-0.9-17.1-0.4-25.7-1h-10.5c-3.6,0-7.3,0.1-11,0
			c-4.8-0.1-9.4,0.7-14.1,1.4c-3.2,0.5-4.1,1.7-4.2,5c0,2.3,0.2,4.5,0.4,6.8c0.7,6,0.5,6.3-5.6,5.5c-6.4-0.9-12.9-1.7-19.3,0.1
			c-1,0.3-1.7-0.3-1.7-1.3c-0.3-3.7-0.6-7.3-0.8-11c-0.2-2.9-0.6-3.4-3.4-3.6c-5.1-0.3-10.1-0.4-15.2-0.5c-14.5-0.3-29,1.7-43.5,2.1
			c-1.4,0.1-2.8,0.4-4.1,0.8c-3,0.9-3.9,2.1-4.1,5.3c0,0.5,0,1,0,1.6c0.2,5.4,0.4,10.8,0.5,16.3c0,3,0.5,5.9,1,8.8
			c0.3,2,1.2,3.7,2.3,5.2c0.7,1,1.7,1.7,3.1,1.8c0.2,0,0.3,0,0.4,0c-5.8,2.6-9.7,7.3-9.7,12.6c0,8.2,9.1,14.8,20.3,14.8
			c11.2,0,20.3-6.6,20.3-14.8c0-4.6-2.9-8.8-7.5-11.5c6,0.1,12,0.3,17.9,0.8c5.7,0.4,11.5-0.3,17.3-0.9c3.6-0.4,4.8-1.6,5.5-5.2
			c0.4-1.7,0.3-3.5,0.2-5.2c-0.2-3.7-0.3-7.4-0.5-11c-0.1-1.3,0.6-2,1.7-2.3c2.5-0.7,5-1.6,7.7-1.3c4.9,0.4,9.8,0.8,14.6,1.4
			c2.7,0.3,2.7,0.5,3.1,3.2c0.6,4.5,1.1,9,1.9,13.5c0.7,4.2,2.7,6,6.9,6.7c1.2,0.2,2.4,0.2,3.6,0.3c9.4,0.3,18.9,0.5,28.3,0.1
			c3.3-0.1,6.6-0.2,9.9-0.3c-4.8,2.7-8,7-8,11.8c0,8.2,9.1,14.8,20.4,14.8s20.4-6.6,20.4-14.8C2172.8,268.6,2167,263.1,2158.9,261.1
			z"/>
		<path id="XMLID_294_" class="st6" d="M2041.4,234.8c-0.2-0.5-0.3-1.2,0.3-1.4c0.4-0.2,1,0,1.4,0.2c1.7,0.9,3.2,2,4.7,3.3
			c4.3,3.8,3.2,10.4-0.6,13.3c-1.5,1.1-3.1,2.2-4.9,2.6c-0.2-0.3-0.4-0.5-0.4-0.6C2043.9,246.3,2043.5,240.5,2041.4,234.8z"/>
	</g>
	<path id="XMLID_292_" class="st6" d="M2119.9,213.2c5.1,0.1,10.2,0,15.2,0v-0.1c1.6,0,3.2,0,4.7,0c3.9,0,7.7,0.1,11.6,0.1
		c1.8,0,3.5-0.3,5-1.3c1.2-0.8,1.3-2.1,0.4-3.1c-1.2-1.4-2.8-2.1-4.4-2.8c-10.1-4.5-20.5-8-31.3-10.5c-1.9-0.5-3.8-0.6-5.7-0.4
		c-2.2,0.2-3.1,1.2-3.3,3.4c-0.3,3,0.1,5.9,0.6,8.9C2113.6,211.9,2115.2,213.1,2119.9,213.2z"/>
	<path id="XMLID_291_" class="st6" d="M2091,284.9c-2.1-8.1-4.2-16.2-6.2-24.3c-0.6-2.5-0.9-5.2-1.4-7.7c-0.1-0.7-0.2-1.4-0.5-2
		c-0.2-0.3-0.8-0.5-1.3-0.6c-0.2,0-0.6,0.5-0.6,0.7c-0.4,3.7,0.6,7.3,1.5,10.8c2.3,9.5,4.8,18.9,7.2,28.4c0.4,1.7,0.6,3.4,0.8,5.1
		c0.3,2.6-1.1,4.3-3.4,5.3c-2.1,0.9-4.3,1.4-6.6,1.5c-3.1,0.1-6.3,0.3-9.3-0.9c-0.5-0.2-1-0.2-1.6-0.2c-0.3,0-0.7,0.2-0.9,0.5
		c-0.3,0.5-0.2,1,0.3,1.4c2.7,2.1,5.9,1.6,9.3,1.8c1.6-0.1,3.6-0.1,5.5-0.3c1-0.1,2-0.5,3-0.8c4.9-1.8,6.3-3.9,6.2-9
		C2092.9,291.2,2091.9,288.1,2091,284.9z"/>
	<path id="XMLID_270_" class="st6" d="M2853.9,77.1c-2-0.4-4.1-0.7-6.2-1.2c-6.7-1.5-13.2-3.6-18.1-8.8c-4-4.4-7.6-9.1-9.2-15
		c-0.1-0.5-0.4-1-0.7-1.4c-0.2-0.2-0.7-0.3-0.9-0.3c-0.3,0.1-0.6,0.4-0.7,0.7c-0.5,2.2,0.4,4.1,1.4,6c1.8,3.6,4.1,6.9,6.6,10
		c1.9,2.3,4.1,4.3,6.6,5.9c6.2,3.8,13.1,5.5,19.4,6.3c1.1,0,1.3,0.1,1.4,0.1c0.7-0.1,1.5,0,1.6-0.9
		C2855.3,77.7,2854.6,77.3,2853.9,77.1z"/>
	<path id="XMLID_269_" class="st6" d="M2837.3,78.8c-1.5-0.5-3-1-4.4-1.5c-5.1-1.9-10.1-3.9-12.8-9.1c-0.2-0.3-1-0.6-1.4-0.4
		c-0.3,0.1-0.7,0.9-0.6,1.3c0.4,2.3,1.9,4.1,3.7,5.5c4.2,3.2,9,5.2,14.1,6.5c0.5,0.1,1,0,1.5-0.2c0.3-0.1,0.4-0.5,0.6-0.7
		C2838.1,79.4,2837.8,79,2837.3,78.8z"/>
	<path id="XMLID_288_" class="st6" d="M2003.8,218.4c4.6,0.1,9.1,0,13.6,0v-0.1c4.5,0,9.1,0.1,13.6,0c1.5,0,3.1-0.4,4.6-0.7
		c2.1-0.5,3.4-1.9,3.4-4.1c0.1-2.8-0.1-5.6-0.1-8.4c-0.1-5.4-0.4-6.1-6.2-4.4c-9.9,2.9-19.4,6.8-28.8,11c-0.5,0.2-1,0.4-1.4,0.7
		c-1.7,1.1-4.5,1.8-3.9,4.3C1999.2,218.8,2001.9,218.3,2003.8,218.4z"/>
	<path id="XMLID_287_" class="st6" d="M1970.2,244.2c-0.7,0.1-1.4,0.2-2.1,0.3c-7.9,2.2-13.5,9.7-13.5,17.1c-0.1,6,1.9,10.2,6,13.5
		c2.3,1.9,4.1,2.3,4.4,1.1c0.4-1.9-1.4-2.2-2.4-3c-5-4.2-6.6-10-4.4-16c1.7-4.5,4.8-7.6,9.2-9.5c1.1-0.5,2.3-0.8,3.5-1.2
		c0.7-0.3,1.2-0.9,0.9-1.6C1971.6,244.3,1970.9,244.1,1970.2,244.2z"/>
	<path id="XMLID_161_" class="st6" d="M325.4,129c0.1,0.5,0.2,1,0.2,1.5c0.3,6.1,0.7,12.1,1.1,18.2c0.1,0.9,0.1,1.8,0.2,2.7
		c0.2,2.2-0.5,4-1.9,5.7c-3,3.7-6.5,6.9-10.4,9.6c-4.3,3-8.8,5.7-13.6,7.8c-1.2,0.5-2.5,1.1-3.8,1.6c-11.2,4.6-22.8,8.1-34.9,9.5
		c-4,0.4-8,0.4-12,0.6c-15.5,0-30.2-3.5-44.3-9.4c-1-0.4-2.1-0.9-3-1.4c-4.5-2.2-8.6-5-12.5-8.3c-3.5-2.9-6.7-6.2-10.1-9.2
		c-1.9-1.6-2.5-3.6-2.3-6.1c0.1-1.8,0.3-3.6,0.3-5.4c0.4-5.9,0.8-11.8,1.1-17.6c0.5-8,1.1-16.1,1.6-24.1c0.4-6.3,0.8-12.6,1.1-18.9
		c0-0.5,0.2-1.2,0.5-1.4c0.7-0.5,1.3,0.1,1.8,0.6c4.1,3.9,8.9,6.8,13.5,10c14.6,10.2,30.8,17.1,47.8,22.4
		c11.5,3.6,23.2,6.6,35.2,8.2c11.8,1.6,23.7,2.5,35.6,2.2c2.3-0.1,4.5-0.5,6.8-0.7C324.5,127.2,325.2,127.8,325.4,129z"/>
	<g id="XMLID_149_">
		<path id="XMLID_160_" class="st6" d="M4.6,297.4c1.1-3.7,2.2-7.4,3.5-11.1c5.9-0.2,11.7-0.3,17.6-0.4c30.3-0.6,60.6-1.9,90.8-2.4
			c31.2-0.5,62.3-1.2,93.5-1.4c20.8-0.2,41.6-0.4,62.5-0.3c15.4,0,30.8,0.1,46.2,0.3c17.5,0.3,35,0.2,52.5,0.2
			c20.1-0.1,40.3-0.3,60.4-0.4c11.4-0.1,22.8,0,34.1-0.1c14.5-0.1,29-0.5,43.5-1.1c4.7,9.1,8.8,18.6,12.5,28.3
			c-16.4,0.7-32.9,1.3-49.4,1.2c-14.5-0.1-29,0.7-43.6,0.5c-9.5-0.1-18.9,0.3-28.4,0.2c-18.5-0.3-37.1-0.2-55.6-0.2
			c-11,0-22.1,0-33.1-0.1c-17.5-0.2-35-0.5-52.5-0.6c-9.6-0.1-19.3,0-28.9,0.2c-16.5,0.2-32.9,0.4-49.4,0.7
			c-35.7,0.7-71.4,2.9-116.4,3.1c-15.2,0.6-39.3,1.5-63.6,2.5C1.4,309.9,2.7,303.6,4.6,297.4z"/>
		<path id="XMLID_155_" class="st6" d="M262.8,197.3c-9-0.1-17.9-0.1-26.9-0.1h-0.1c-4.3-0.8-8.5-1.8-12.7-3
			c-9.1-2.7-18.1-5.3-26.4-10.1c-4.5-2.6-8.7-5.6-12.6-8.9c4.4,0.1,8.9,0.2,13.3,0.3c4.5,2.8,9.4,5,14.5,6.7c12.9,4.4,26,7,39.6,6.9
			c12.4-0.2,24.4-2.3,36-6.3c5.5-1.9,10.9-3.9,16.2-6.5c5.4,0,10.8,0,16.2,0c0,0,0,0,0,0h0.1c-5.7,4.6-12,8.5-18.8,11.6
			c-4.8,2.2-9.6,4.2-14.7,5.7c-1.2,0.3-2.3,0.8-3.4,1.3c-0.5,0.2-0.8,0.8-0.5,1.3c0.2,0.4,0.8,0.7,1.2,0.7c1-0.1,2.1-0.4,3.1-0.7
			c13.8-4.2,26.2-10.8,37.2-20c15.7,0,31.3,0,47-0.1c8.9,0,17.9-0.1,26.9-0.1c2.7,1.1,5.3,2.2,8,3.3c13.1,5.6,25.1,12.9,36.3,21.4
			c-10.3-0.3-20.7-0.6-31-0.8c-8.6-0.2-17.2-0.2-25.7-0.5c-17.7-0.5-35.3-1.1-53-1c-8.2,0-16.5-0.1-24.7-0.2
			C292.9,197.9,277.8,197.4,262.8,197.3z"/>
		<path id="XMLID_154_" class="st6" d="M124.3,173.7c0.7-0.2,1.4-0.4,2-0.6c11.8,0.5,23.5,1.1,35.2,1.5c6.1,0.2,12.1,0.3,18.2,0.4
			c0,0,0,0,0,0c0.1,0.1,0.2,0.2,0.3,0.3c9,8,19.2,14.1,30.6,17.9c3.3,1.1,6.7,2.1,10.1,3c1.2,0.3,2.4,0.7,3.6,1h0
			c-4.8,0-9.7,0.1-14.6,0.1c-18.6,0.2-37.1,0.5-55.7,1c-11,0.3-22,0.8-29.5,1.1c-10.9,0-18.3,0-25.6,0.1c-8.7,0.1-17.5,0.3-26.2,0.6
			c1.7-1.1,3.5-2.1,5.3-3.1c7.9-4.5,15.7-9.1,23.7-13.6C108.9,179.4,116.5,176.2,124.3,173.7z"/>
		<path id="XMLID_152_" class="st6" d="M50.5,229.3c22.8-0.9,45.5-1.2,68.3-1.6c27.1-0.5,54.3-1.5,81.4-1.7
			c7.4-0.1,14.7-0.3,22.1-0.2c18.4,0.2,36.8,0.2,55.1,0.2c15.9,0.1,31.9,0.3,47.8,0.1c16.1-0.1,32.2,0,48.3,0.3
			c13.1,0.3,26.3,0.5,39.4,0.5c19.7,0,39.5,0.8,59.2,0.3c8.2,8.7,15.5,18,22.1,27.7c-12.2,0.2-24.4,0.2-36.6,0
			c-16.3-0.3-32.6-0.2-48.8-0.3c-14.9-0.1-29.8-0.3-44.6-0.3c-19.8-0.1-39.6-0.4-59.3-0.9c-15.2-0.3-30.4-0.3-45.7-0.3
			c-21.7,0.1-43.4,0.2-65.1,0.4c-14.5,0.1-29.1,0.3-43.6,0.6c-20.5,0.4-41,0.7-61.4,1.3c-23.4,0.7-46.8,1.4-70.2,2.2
			c0.3-0.6,0.5-1.2,0.8-1.8c4.2-9.7,9.8-18.3,16.6-26.1C40.9,229.7,45.7,229.5,50.5,229.3z"/>
	</g>
	<path id="XMLID_280_" class="st6" d="M2186.2,247.9c11.8,5.2,13.4,20.2,3.7,26.1c-0.6,0.3-1,0.9-1.4,1.5c-0.2,0.2-0.1,0.7,0.1,0.9
		c0.2,0.3,0.6,0.6,0.8,0.5c0.7-0.1,1.4-0.2,1.9-0.6c5.1-3.3,7.7-7.9,7.6-16.2c0-6-5.8-13.5-13.7-15.6c-1-0.3-2.1-0.6-3.1-0.1
		c-0.3,0.1-0.5,0.5-0.5,0.8s0,0.9,0.2,0.9C2183.4,246.8,2184.8,247.2,2186.2,247.9z"/>
	<path id="XMLID_279_" class="st6" d="M2119.9,213.2c5.1,0.1,10.2,0,15.2,0v-0.1c1.6,0,3.2,0,4.7,0c3.9,0,7.7,0.1,11.6,0.1
		c1.8,0,3.5-0.3,5-1.3c1.2-0.8,1.3-2.1,0.4-3.1c-1.2-1.4-2.8-2.1-4.4-2.8c-10.1-4.5-20.5-8-31.3-10.5c-1.9-0.5-3.8-0.6-5.7-0.4
		c-2.2,0.2-3.1,1.2-3.3,3.4c-0.3,3,0.1,5.9,0.6,8.9C2113.6,211.9,2115.2,213.1,2119.9,213.2z"/>
	<path id="XMLID_278_" class="st6" d="M2091,284.9c-2.1-8.1-4.2-16.2-6.2-24.3c-0.6-2.5-0.9-5.2-1.4-7.7c-0.1-0.7-0.2-1.4-0.5-2
		c-0.2-0.3-0.8-0.5-1.3-0.6c-0.2,0-0.6,0.5-0.6,0.7c-0.4,3.7,0.6,7.3,1.5,10.8c2.3,9.5,4.8,18.9,7.2,28.4c0.4,1.7,0.6,3.4,0.8,5.1
		c0.3,2.6-1.1,4.3-3.4,5.3c-2.1,0.9-4.3,1.4-6.6,1.5c-3.1,0.1-6.3,0.3-9.3-0.9c-0.5-0.2-1-0.2-1.6-0.2c-0.3,0-0.7,0.2-0.9,0.5
		c-0.3,0.5-0.2,1,0.3,1.4c2.7,2.1,5.9,1.6,9.3,1.8c1.6-0.1,3.6-0.1,5.5-0.3c1-0.1,2-0.5,3-0.8c4.9-1.8,6.3-3.9,6.2-9
		C2092.9,291.2,2091.9,288.1,2091,284.9z"/>
	<path id="XMLID_268_" class="st6" d="M2853.9,77.1c-2-0.4-4.1-0.7-6.2-1.2c-6.7-1.5-13.2-3.6-18.1-8.8c-4-4.4-7.6-9.1-9.2-15
		c-0.1-0.5-0.4-1-0.7-1.4c-0.2-0.2-0.7-0.3-0.9-0.3c-0.3,0.1-0.6,0.4-0.7,0.7c-0.5,2.2,0.4,4.1,1.4,6c1.8,3.6,4.1,6.9,6.6,10
		c1.9,2.3,4.1,4.3,6.6,5.9c6.2,3.8,13.1,5.5,19.4,6.3c1.1,0,1.3,0.1,1.4,0.1c0.7-0.1,1.5,0,1.6-0.9
		C2855.3,77.7,2854.6,77.3,2853.9,77.1z"/>
	<path id="XMLID_267_" class="st6" d="M2837.3,78.8c-1.5-0.5-3-1-4.4-1.5c-5.1-1.9-10.1-3.9-12.8-9.1c-0.2-0.3-1-0.6-1.4-0.4
		c-0.3,0.1-0.7,0.9-0.6,1.3c0.4,2.3,1.9,4.1,3.7,5.5c4.2,3.2,9,5.2,14.1,6.5c0.5,0.1,1,0,1.5-0.2c0.3-0.1,0.4-0.5,0.6-0.7
		C2838.1,79.4,2837.8,79,2837.3,78.8z"/>
	<path id="XMLID_275_" class="st6" d="M2003.8,218.4c4.6,0.1,9.1,0,13.6,0v-0.1c4.5,0,9.1,0.1,13.6,0c1.5,0,3.1-0.4,4.6-0.7
		c2.1-0.5,3.4-1.9,3.4-4.1c0.1-2.8-0.1-5.6-0.1-8.4c-0.1-5.4-0.4-6.1-6.2-4.4c-9.9,2.9-19.4,6.8-28.8,11c-0.5,0.2-1,0.4-1.4,0.7
		c-1.7,1.1-4.5,1.8-3.9,4.3C1999.2,218.8,2001.9,218.3,2003.8,218.4z"/>
	<g id="XMLID_272_">
		<path id="XMLID_274_" class="st6" d="M2009.1,290c11.2,0,20.3-6.6,20.3-14.8c0-4.6-2.9-8.8-7.5-11.5c6,0.1,12,0.3,17.9,0.8
			c5.7,0.4,11.5-0.3,17.3-0.9c3.6-0.4,4.8-1.6,5.5-5.2c0.4-1.7,0.3-3.5,0.2-5.2c-0.2-3.7-0.3-7.4-0.5-11c-0.1-1.3,0.6-2,1.7-2.3
			c2.5-0.7,5-1.6,7.7-1.3c4.9,0.4,9.8,0.8,14.6,1.4c2.7,0.3,2.7,0.5,3.1,3.2c0.6,4.5,1.1,9,1.9,13.5c0.7,4.2,2.7,6,6.9,6.7
			c1.2,0.2,2.4,0.2,3.6,0.3c9.4,0.3,18.9,0.5,28.3,0.1c3.3-0.1,6.6-0.2,9.9-0.3c-4.8,2.7-8,7-8,11.8c0,8.2,9.1,14.8,20.4,14.8
			s20.4-6.6,20.4-14.8c0-6.5-5.8-12.1-13.9-14c1-0.6,1.6-1.7,1.9-3c0.2-0.7,0.2-1.4,0.3-2.1c0.9-10.5,1.1-20.9,0.1-31.4
			c-0.3-3.2-1.6-4.6-4.8-5.2c-0.9-0.2-1.8-0.1-2.6-0.2c-8.6-0.9-17.1-0.4-25.7-1h-10.5c-3.6,0-7.3,0.1-11,0
			c-4.8-0.1-9.4,0.7-14.1,1.4c-3.2,0.5-4.1,1.7-4.2,5c0,2.3,0.2,4.5,0.4,6.8c0.7,6,0.5,6.3-5.6,5.5c-6.4-0.9-12.9-1.7-19.3,0.1
			c-1,0.3-1.7-0.3-1.7-1.3c-0.3-3.7-0.6-7.3-0.8-11c-0.2-2.9-0.6-3.4-3.4-3.6c-5.1-0.3-10.1-0.4-15.2-0.5c-14.5-0.3-29,1.7-43.5,2.1
			c-1.4,0.1-2.8,0.4-4.1,0.8c-3,0.9-3.9,2.1-4.1,5.3c0,0.5,0,1,0,1.6c0.2,5.4,0.4,10.8,0.5,16.3c0,3,0.5,5.9,1,8.8
			c0.3,2,1.2,3.7,2.3,5.2c0.7,1,1.7,1.7,3.1,1.8c0.2,0,0.3,0,0.4,0c-5.8,2.6-9.7,7.3-9.7,12.6C1988.7,283.3,1997.8,290,2009.1,290z"
			/>
		<path id="XMLID_273_" class="st6" d="M2041.7,233.4c0.4-0.2,1,0,1.4,0.2c1.7,0.9,3.2,2,4.7,3.3c4.3,3.8,3.2,10.4-0.6,13.3
			c-1.5,1.1-3.1,2.2-4.9,2.6c-0.2-0.3-0.4-0.5-0.4-0.6c2-5.9,1.6-11.6-0.5-17.3C2041.2,234.3,2041.2,233.6,2041.7,233.4z"/>
	</g>
	<path id="XMLID_271_" class="st6" d="M1960.6,275.2c2.3,1.9,4.1,2.3,4.4,1.1c0.4-1.9-1.4-2.2-2.4-3c-5-4.2-6.6-10-4.4-16
		c1.7-4.5,4.8-7.6,9.2-9.5c1.1-0.5,2.3-0.8,3.5-1.2c0.7-0.3,1.2-0.9,0.9-1.6c-0.2-0.7-1-0.9-1.7-0.8c-0.7,0.1-1.4,0.2-2.1,0.3
		c-7.9,2.2-13.5,9.7-13.5,17.1C1954.5,267.7,1956.5,271.9,1960.6,275.2z"/>
	<path id="XMLID_223_" class="st6" d="M1031.6-62.5c-3.7-11.7-12.2-18.4-23.8-21.6c-3.2-0.9-6.5-1.2-9.9-1.1
		c-1.4,0.1-2.3-0.8-2.6-2.1c-0.2-1-0.3-2.1-0.4-3.1c-0.8-8-1.6-16-2.3-24c-0.4-4-1.5-7.4-4.7-10.1c-2-1.7-3.7-3.7-5.5-5.6
		c-3.1-3.2-6.5-5.8-10.4-8c-9.1-5.1-18.8-8.5-29.1-10.1c-2.8-0.4-5.5-0.7-8.4-0.4c-9.5,0.9-18.5,3.6-27.1,7.7
		c-6.2,2.9-12.3,5.9-18.5,8.8c-9.2,4.3-18.8,6.3-28.9,6.7c-6.8,0.3-13.7,0.1-20.4-0.9c-10.9-1.6-20.4-6.1-27.2-15.2
		c-0.8-1.1-1.6-2.3-2.5-3.4c-0.2-0.3-0.6-0.5-0.9-0.4c-0.3,0.1-0.6,0.4-0.7,0.7c-0.2,0.7-0.3,1.4-0.4,2c-0.8,6.2-1.6,12.5-2.4,18.7
		c-1.4,11.1-3.1,22.2-4,33.3c-0.4,4.9-0.8,5.1-5.7,5.4c-10.3,0.5-19,4.5-25.6,12.5c-6.4,7.9-8.4,16.9-5.3,26.6
		c3.6,11.5,11.9,18.2,23.2,21.5c2.7,0.8,5.5,1,8.3,1.3c2.6,0.4,3.2,1.3,3.1,3.9c-0.2,4.4-0.4,8.7-0.6,11.9c0,11.8,1,22.2,3.7,32.5
		c3.9,15,10.6,28.5,21.5,39.7c15.1,15.7,33.9,23.6,55.2,26.5c7.9,1,15.7,1,23.6,0.9c10.2,0,20.3-1.4,30-4.2
		c26.5-7.7,45.5-24,56.3-49.6c6.6-15.8,8.6-32.3,8-49.3c-0.1-3-0.4-5.9-0.4-8.9c-0.1-1.8,0.6-2.7,2.2-3c1.4-0.3,2.8-0.3,4.1-0.5
		c9.6-1.4,17.7-5.5,23.6-13.3C1032.8-44.5,1034.6-53.2,1031.6-62.5z"/>
</g>
<g id="Warstwa_5">
	<g id="XMLID_129_">
		<path id="XMLID_147_" class="st7" d="M994.3-40.3c0,8.2-9.1,14.8-20.4,14.8s-20.3-6.6-20.3-14.8c0-4.8,3.1-9,8-11.8
			c3.4-1.9,7.7-3,12.4-3c2.3,0,4.4,0.3,6.4,0.8C988.5-52.3,994.3-46.8,994.3-40.3z"/>
		<path id="XMLID_148_" class="st7" d="M850.9-40.3c0,8.2-9.1,14.8-20.3,14.8c-11.2,0-20.3-6.6-20.3-14.8c0-5.3,3.9-10,9.7-12.6
			c2.2-1,4.6-1.7,7.2-2c1.1-0.2,2.3-0.2,3.5-0.2c2.3,0,4.5,0.3,6.6,0.8c2.3,0.6,4.4,1.4,6.2,2.5C848-49,850.9-44.9,850.9-40.3z"/>
	</g>
	<path id="XMLID_169_" class="st8" d="M528.6,324.9c0,1.3-0.6,2-1.8,2c-1.9,0.1-3.8,0.1-5.8,0.1H133.8c-42.7,0-85.4-0.1-128.2-0.1
		H4.1c-5.3-0.1-5.8-0.8-6-6.2c-0.1-1.5-0.1-2.9,0-4.4c0.3,0,0.5,0,0.8,0c0.7,0,1.4-0.1,2.1-0.1c24.3-1,48.4-1.9,63.6-2.5
		c45.1-0.2,80.8-2.4,116.4-3.1c16.4-0.3,32.9-0.5,49.4-0.7c9.6-0.1,19.3-0.2,28.9-0.2c17.5,0.1,35,0.4,52.5,0.6
		c11,0.1,22,0.1,33.1,0.1c18.5,0.1,37.1-0.1,55.6,0.2c9.5,0.2,18.9-0.3,28.4-0.2c14.5,0.1,29.1-0.6,43.6-0.5
		c16.5,0.1,33-0.5,49.4-1.2c1-0.1,2-0.1,3-0.1c0.9,2.4,1.7,4.8,2.4,7.3C528,319,528.6,321.9,528.6,324.9z"/>
	<path id="XMLID_168_" class="st8" d="M512.3,280.5c-1,0.1-2,0.1-3,0.1c-14.5,0.6-29,0.9-43.5,1.1c-11.4,0.1-22.8,0-34.1,0.1
		c-20.1,0.2-40.3,0.3-60.4,0.4c-17.5,0-35,0.1-52.5-0.2c-15.4-0.2-30.8-0.3-46.2-0.3c-20.8-0.1-41.7,0.2-62.5,0.3
		c-31.2,0.2-62.3,0.9-93.5,1.4c-30.3,0.5-60.5,1.8-90.8,2.4c-5.9,0.1-11.7,0.3-17.6,0.4c-1,0-2,0.1-3,0.1
		c3.1-9.7,6.6-19.2,10.7-28.5c1-0.1,2-0.1,3.1-0.1c23.4-0.8,46.8-1.5,70.2-2.2c20.5-0.6,40.9-0.9,61.4-1.3c14.5-0.3,29-0.5,43.6-0.6
		c21.7-0.2,43.4-0.4,65.1-0.4c15.2,0,30.5,0,45.7,0.3c19.8,0.5,39.6,0.8,59.3,0.9c14.9,0.1,29.8,0.3,44.6,0.3
		c16.3,0.1,32.6,0,48.8,0.3c12.2,0.2,24.4,0.2,36.6,0c1.1,0,2.1,0,3.2-0.1C502.8,263.1,507.8,271.6,512.3,280.5z"/>
	<path id="XMLID_167_" class="st8" d="M475.8,227.2c-0.9,0-1.7,0-2.6,0c-0.4,0-0.8,0-1.1,0c-19.7,0.5-39.5-0.3-59.2-0.3
		c-13.1,0-26.3-0.2-39.4-0.5c-16.1-0.4-32.2-0.5-48.3-0.3c-15.9,0.1-31.9-0.1-47.8-0.1c-18.4,0-36.8,0-55.1-0.2
		c-7.3-0.1-14.7,0.1-22.1,0.2c-27.1,0.3-54.3,1.3-81.4,1.7c-22.8,0.4-45.5,0.7-68.3,1.6c-4.8,0.2-9.6,0.4-14.4,0.6
		c-1.3,0-2.6,0.1-3.9,0.2c3.2-3.8,6.7-7.4,10.5-10.8c7.7-7,15.9-13.4,24.6-19c1.8-0.1,3.6-0.1,5.4-0.2c8.7-0.3,17.5-0.4,26.2-0.6
		c7.4-0.1,14.7-0.1,25.6-0.1c7.5-0.3,18.5-0.8,29.5-1.1c18.6-0.4,37.1-0.8,55.7-1c4.9,0,9.7-0.1,14.6-0.1h0c3.8,0,7.6,0,11.5,0h0.1
		c8.9,0,17.9,0,26.9,0.1c15.1,0.1,30.1,0.6,45.2,0.8c8.2,0.2,16.4,0.3,24.7,0.2c17.7-0.1,35.4,0.5,53,1c8.6,0.3,17.2,0.3,25.7,0.5
		c10.4,0.3,20.7,0.6,31,0.8c1.6,0,3.1,0.1,4.6,0.1c2.8,2.2,5.6,4.5,8.4,6.8C462.7,213.7,469.5,220.3,475.8,227.2z"/>
	<path id="XMLID_165_" class="st8" d="M202.9,175.5c-1.8-0.1-3.7-0.1-5.6-0.1c-4.4-0.1-8.9-0.2-13.3-0.3c-1.4,0-2.8,0-4.3-0.1
		c0,0,0,0,0,0c-6.1-0.1-12.1-0.3-18.2-0.4c-11.8-0.3-23.5-1-35.2-1.5c-2.4-0.1-4.9-0.2-7.3-0.3c2.8-1,5.7-2,8.5-2.8
		c12.9-3.8,25.8-7.8,38.7-11.7c2.2-0.7,4.3-1.4,6.5-2c1.5-0.5,2.3-1.5,2.5-3c0-0.7,0.2-1.4,0.2-2.1c0.1-1.5,0.2-3.1,0.3-4.6
		c0.9,0,1.8,0.1,2.7,0.1c-0.1,1.8-0.2,3.6-0.3,5.4c-0.2,2.5,0.4,4.4,2.3,6.1c3.4,3,6.6,6.2,10.1,9.2
		C194.3,170.5,198.4,173.3,202.9,175.5z"/>
	<path id="XMLID_164_" class="st8" d="M405,175.9c-2.3,0-4.6,0-7,0c-8.9,0-17.9,0.1-26.9,0.1c-15.7,0.1-31.3,0.1-47,0.1H320
		c0,0,0,0,0,0c-5.4,0-10.8,0-16.2,0h-6.5c1.3-0.5,2.5-1,3.8-1.6c4.8-2.1,9.4-4.8,13.6-7.8c3.9-2.7,7.4-5.9,10.4-9.6
		c1.4-1.7,2.1-3.5,1.9-5.7c-0.1-0.9-0.1-1.8-0.2-2.7c0.9,0,1.8,0,2.7,0c0,0.9,0.1,1.7,0.1,2.6c0.1,1.4,0.8,2.3,2.2,2.6
		c0.3,0.1,0.7,0.2,1,0.2c9.9,0.5,19.2,3.8,28.6,6.4C376.3,164.7,390.6,170.1,405,175.9C405,175.9,405,175.9,405,175.9z"/>
	<path id="XMLID_24_" class="st5" d="M-289.1-107.7c2.4,12.7,0.1,24.3-7.2,35c-2.7,3.9-5.4,7.8-8.9,11c-0.2,0.2-0.4,0.4-0.6,0.5
		c-2.1-7.7-6.1-16.1-13.5-20.8c-6.1-3.9-17.1-6.9-18.7-7.3c-3.5-1-6.7-1.6-9.4-2c-0.8-7.7-1.5-15.4-2.2-23.1
		c-0.4-4-1.5-7.4-4.7-10.1c-2-1.7-3.7-3.7-5.5-5.6c-3.1-3.2-6.5-5.8-10.4-8c-9.1-5.1-18.8-8.5-29.1-10.1c-2.8-0.4-5.5-0.7-8.4-0.4
		c-9.5,0.9-18.5,3.6-27.1,7.7c-6.2,2.9-12.3,5.9-18.5,8.8c-9.2,4.3-18.8,6.3-28.9,6.7c-6.8,0.3-13.7,0.1-20.4-0.9
		c-10.9-1.6-20.4-6.1-27.2-15.2c-0.8-1.1-1.6-2.3-2.5-3.4c-0.2-0.3-0.6-0.5-0.9-0.4c-0.3,0.1-0.6,0.4-0.7,0.7
		c-0.2,0.7-0.3,1.4-0.4,2c-0.8,6.2-1.6,12.5-2.4,18.7c-1.4,11.1-3.1,22.2-4,33.3c-0.1,0.9-0.1,1.6-0.2,2.2
		c-2.8-0.1-6.6-0.2-11.2,0.3c-4.4,0.5-7.8,1.2-10.3,1.9c0-0.2-0.1-0.3-0.1-0.5c-2.2-7.8-5.9-15-10-21.9c-3.1-5.1-6.4-10.1-8.8-15.5
		c-1.9-4.5-3.5-9.1-4.2-14c-1.2-8.6,0.9-16,7.7-21.7c0.3-0.2,0.5-0.5,0.8-0.7c6.1-4,8.2-10.1,8.7-17.1c0.4-5.3,0.3-10.5,0.1-15.8
		c-0.2-5.2-0.3-10.5,0.2-15.7c0.9-9.8,3.7-18.9,10.2-26.5c7.8-9.2,17.5-14.3,29.8-13.9c2.9,0.1,5.5,1,8.2,1.8
		c3.7,1.2,7.4,2.1,11.2,2.9c6.6,1.4,12.9,0.7,19-2c7.6-3.2,14.8-7.2,21.7-11.6c2.8-1.8,5.6-3.7,8.4-5.4c5.3-3.2,10.9-5.5,17-6.8
		c13.7-2.9,28.8,2.2,37.9,12.9c2.8,3.3,5.1,7.1,7.4,10.8c2.7,4.3,5.7,8.4,9.2,12.1c4.7,5,10.3,8.3,17.3,9.1
		c5.4,0.6,10.8,0.9,16.2-0.1c6.4-1.1,12.8-1.9,19.3-1.6c8,0.4,15.6,2,22.9,5.2c7.3,3.2,13,8.2,17.1,15c3.6,6,6.2,12.5,7.5,19.5
		c1.1,5.8,0.3,11.5-1.2,17.1c-1,3.6-2.3,7-3.8,10.3c-1.2,2.7-2.5,5.4-3.6,8.2c-1.9,5-2.1,10.2-1,15.5c1,4.8,2.7,9.4,4.2,14.1
		C-291.4-117.6-290-112.7-289.1-107.7z"/>
	<path id="XMLID_11_" class="st5" d="M1036.5-61.1c-2.1-7.7-6.1-16.1-13.5-20.8c-6.1-3.9-17.1-6.9-18.7-7.3c-3.5-1-6.7-1.6-9.4-2
		c0,0.3,0.1,0.6,0.1,0.9c0.1,1,0.1,2.1,0.4,3.1c0.3,1.3,1.2,2.1,2.6,2.1c3.3-0.1,6.7,0.2,9.9,1.1c11.6,3.2,20.1,9.9,23.8,21.6
		c2.9,9.3,1.1,18-4.7,25.8c-5.9,7.8-14,12-23.6,13.3c-1.3,0.2-2.8,0.2-4.1,0.5c-1.7,0.4-2.3,1.2-2.2,3c0.1,3,0.3,6,0.4,8.9
		c0.7,17-1.3,33.6-8,49.3c-4.3,10.1-9.8,18.8-16.7,26.1c-9.1,9.7-20.3,16.8-33.7,21.6c10.9-3.8,21.8-8.9,32.5-15.3
		c0.4-1.1,1-2.1,2-3.1c0.2-0.2,0.4-0.4,0.6-0.6c7.7-7.9,13.6-17.1,17.8-27.3c5.2-12.4,7.7-25.4,8.3-38.8c0.3-6.3,0.4-12.6-0.4-18.9
		c-0.2-1.7,0.1-2,1.9-2.4c1.4-0.3,2.7-0.5,4.1-0.7c5.1-0.8,9.8-2.6,14.1-5.5c11.1-7.6,17-17.8,15.5-31.6
		C1035.3-59.4,1035.7-60.3,1036.5-61.1z M903.1,92.2c-7.9,0-15.7,0.1-23.6-0.9c-21.3-2.8-40.2-10.8-55.2-26.5
		c-10.8-11.3-17.6-24.7-21.5-39.7c-0.3-1.2-0.6-2.5-0.9-3.7c-2-9.1-2.8-18.4-2.8-28.8c0.2-3.1,0.4-7.5,0.6-11.9
		c0.1-2.6-0.6-3.5-3.1-3.9c-2.8-0.3-5.6-0.5-8.3-1.3c-11.3-3.3-19.6-10-23.2-21.5c-3.1-9.7-1.1-18.7,5.3-26.6
		c6.6-8.1,15.3-12,25.6-12.5c4-0.2,5-0.4,5.4-3.2c-2.8-0.1-6.6-0.2-11.2,0.3c-4.4,0.5-7.8,1.2-10.3,1.9c0.5,1.7,0.3,1.9-1.3,2.9
		c-1.3,0.9-2.7,1.6-4,2.6c-15.1,11.2-18.6,31.1-6.7,46.3c4.7,6,10.8,10,18,12.1c2.8,0.8,5.8,1.3,8.7,1.9c2.2,0.4,2.3,0.6,2.1,2.7
		c-1.1,11.6-0.6,23.1,1.3,34.5c1.3,7.5,3.2,14.6,5.9,21.4c4.3,10.9,10.6,20.8,19.2,29.6c1,1,1.6,2,1.9,3.2c0.4,0.4,0.7,0.7,1.1,1
		C852,95.4,893.4,101,935.6,87.3c-0.8,0.3-1.6,0.5-2.5,0.8C923.4,90.9,913.3,92.2,903.1,92.2z"/>
	<path id="XMLID_135_" class="st5" d="M527.1,316.2c-0.8-2.5-1.6-4.9-2.4-7.3c-1.6-4.5-3.4-8.9-5.3-13.3c-2.2-5.1-4.6-10.1-7.1-15
		c-4.5-8.9-9.4-17.4-14.9-25.6c-6.5-9.8-13.6-19-21.6-27.7c-6.3-6.9-13.1-13.4-20.4-19.6c-2.8-2.3-5.6-4.6-8.4-6.8
		c-12.9-10-26.7-18.6-42-24.8c0,0,0,0-0.1,0c-14.3-5.8-28.7-11.3-43.5-15.3c-9.4-2.6-18.7-5.8-28.6-6.4c-0.3,0-0.7-0.1-1-0.2
		c-1.4-0.3-2.1-1.2-2.2-2.6c0-0.8-0.1-1.7-0.1-2.6v0c-0.5-8.7-0.9-17.5-1.5-26.2c-0.9-12.9-1.7-25.8-2.7-38.7
		c-0.1-1.3,0-2.4,0.4-3.4C315,86.9,304,91.9,293.1,95.7c-0.4,0.1-0.8,0.3-1.1,0.4c-0.8,0.3-1.5,0.5-2.3,0.8
		c-42.2,13.7-83.6,8.1-109.3-15.2c-0.3-0.3-0.7-0.6-1.1-1c0.3,0.9,0.3,1.8,0.3,2.9c-0.3,4.2-0.6,8.4-0.9,12.6
		c-0.6,9.4-1.3,18.8-1.9,28.3c-0.4,7.4-0.8,14.7-1.2,22.1c-0.1,1.5-0.2,3.1-0.3,4.6c-0.1,0.7-0.2,1.4-0.2,2.1
		c-0.1,1.6-0.9,2.5-2.5,3c-2.2,0.6-4.3,1.4-6.5,2c-12.9,3.9-25.8,7.8-38.7,11.7c-2.9,0.8-5.7,1.8-8.5,2.8c-8.7,3.1-17,7.1-25.1,11.8
		c-6.1,3.5-12,7.1-18.2,10.6c-2.9,1.6-5.7,3.3-8.4,5.1c-8.7,5.6-16.9,12-24.6,19c-3.8,3.4-7.3,7-10.5,10.8
		c-5.2,6.2-9.7,13-13.2,20.4c-1.2,2.5-2.3,5-3.4,7.5c-4.1,9.3-7.6,18.8-10.7,28.5c-1.6,4.9-3,9.8-4.4,14.8c-1.4,5-2.3,10.1-2.6,15.3
		c-0.1,1.5-0.1,2.9,0,4.4c0.1,1.5,0.2,2.7,0.3,3.5c0.5,2.2,1.9,2.6,5.7,2.6h1.6c9,0,18,0,27,0c33.8,0,67.5,0.1,101.2,0.1H521
		c1.9,0,3.8,0,5.8-0.1c1.2-0.1,1.8-0.8,1.8-2C528.6,321.9,528,319,527.1,316.2z M178,152c0.1-1.8,0.3-3.6,0.3-5.4
		c0.4-5.9,0.8-11.8,1.1-17.6c0.5-8,1.1-16.1,1.6-24.1c0.4-6.3,0.8-12.6,1.1-18.9c0-0.5,0.2-1.2,0.5-1.4c0.7-0.5,1.3,0.1,1.8,0.6
		c4.1,3.9,8.9,6.8,13.5,10c14.6,10.2,30.8,17.1,47.8,22.4c11.5,3.6,23.2,6.6,35.2,8.2c11.8,1.6,23.7,2.5,35.6,2.2
		c2.3-0.1,4.5-0.5,6.8-0.7c1.3-0.1,2,0.4,2.2,1.6c0.1,0.5,0.2,1,0.2,1.5c0.3,6.1,0.7,12.1,1.1,18.2c0.1,0.9,0.1,1.8,0.2,2.7
		c0.2,2.2-0.5,4-1.9,5.7c-3,3.7-6.5,6.9-10.4,9.6c-4.3,3-8.8,5.7-13.6,7.8c-1.2,0.5-2.5,1.1-3.8,1.6c-11.2,4.6-22.8,8.1-34.9,9.5
		c-4,0.4-8,0.4-12,0.6c-15.5,0-30.2-3.5-44.3-9.4c-1-0.4-2.1-0.9-3-1.4c-4.5-2.2-8.6-5-12.5-8.3c-3.5-2.9-6.7-6.2-10.1-9.2
		C178.4,156.4,177.8,154.5,178,152z M525,322.5c-0.5,1.3-1.1,2-2.6,2c-1.6-0.1-3.1,0-4.7,0H73.8c-22.4,0-44.8,0.1-67.3,0.1
		c-4.8,0-6.3,1.3-5.9-6.1c0-0.7,0.1-1.5,0.2-2.1c0.5-6.4,1.8-12.7,3.7-18.9c1.1-3.7,2.2-7.4,3.5-11.1c3.2-9.6,6.8-19.1,10.7-28.5
		c0.3-0.6,0.5-1.2,0.8-1.8c4.2-9.7,9.8-18.3,16.6-26.1c3.5-4,7.4-7.8,11.5-11.4c7.9-6.8,16.2-13,25.1-18.4c1.7-1.1,3.5-2.1,5.3-3.1
		c7.9-4.5,15.7-9.1,23.7-13.6c7.2-4,14.8-7.2,22.7-9.7c0.7-0.2,1.4-0.4,2-0.6c15.4-4.8,30.7-9.4,46.1-14.1c0.8-0.3,1.7-0.3,2.6-0.6
		c1-0.3,1.7,0,2.4,0.7c0.8,0.7,1.5,1.5,2.2,2.2c2.1,1.9,4.1,3.9,6.2,5.7c3.7,3.2,7.5,6,11.6,8.4c4.5,2.8,9.4,5,14.5,6.7
		c12.9,4.4,26,7,39.6,6.9c12.4-0.2,24.4-2.3,36-6.3c5.5-1.9,10.9-3.9,16.2-6.5c2.5-1.2,4.9-2.5,7.3-3.9c5.9-3.6,11.3-7.7,15.7-13
		c1.6-2,3.4-2.7,5.9-2.7c3.3,0.1,6.6,0.7,9.8,1.5c19,4.6,37.5,10.5,55.6,17.8c2.7,1.1,5.3,2.2,8,3.3c13.1,5.6,25.1,12.9,36.3,21.4
		c2.4,1.8,4.9,3.7,7.2,5.6c8.1,6.6,15.6,13.6,22.5,21c8.2,8.7,15.5,18,22.1,27.7c5.6,8.2,10.6,16.8,15.1,25.7
		c4.7,9.1,8.8,18.6,12.5,28.3c0.5,1.3,1,2.6,1.5,4c0.7,2,1.2,4,1.8,6C525.4,320.2,525.5,321.3,525,322.5z"/>
	<path id="XMLID_27_" class="st6" d="M1031.6-62.5c-3.7-11.7-12.2-18.4-23.8-21.6c-3.2-0.9-6.5-1.2-9.9-1.1
		c-1.4,0.1-2.3-0.8-2.6-2.1c-0.2-1-0.3-2.1-0.4-3.1c0-0.3-0.1-0.6-0.1-0.9c-0.8-7.7-1.5-15.4-2.2-23.1c-0.4-4-1.5-7.4-4.7-10.1
		c-2-1.7-3.7-3.7-5.5-5.6c-3.1-3.1-6.5-5.8-10.4-8c-9.1-5.1-18.8-8.5-29.1-10.1c-2.8-0.4-5.5-0.7-8.4-0.4
		c-9.5,0.9-18.5,3.6-27.1,7.7c-6.2,2.9-12.3,5.9-18.5,8.8c-9.2,4.3-18.8,6.3-28.9,6.7c-6.8,0.3-13.7,0.1-20.4-0.9
		c-10.9-1.6-20.4-6.1-27.2-15.2c-0.8-1.1-1.6-2.3-2.5-3.4c-0.2-0.3-0.6-0.5-0.9-0.4c-0.3,0.1-0.6,0.4-0.7,0.7
		c-0.2,0.7-0.3,1.4-0.4,2.1c-0.8,6.2-1.6,12.5-2.4,18.7c-1.4,11.1-3.1,22.2-4,33.3c-0.1,0.9-0.1,1.6-0.2,2.2
		c-0.4,2.7-1.4,2.9-5.4,3.2c-10.3,0.5-19,4.4-25.6,12.5c-6.4,7.9-8.4,16.9-5.3,26.6c3.6,11.5,11.9,18.2,23.2,21.5
		c2.7,0.8,5.5,1,8.3,1.3c2.6,0.4,3.2,1.3,3.1,3.9c-0.2,4.4-0.4,8.7-0.6,11.8c0,11.8,1,22.2,3.7,32.5c3.9,15,10.6,28.5,21.5,39.7
		c15.1,15.7,33.9,23.6,55.2,26.5c7.9,1,15.7,1,23.6,0.9c10.2,0,20.3-1.4,30-4.2c26.5-7.7,45.5-24,56.3-49.6
		c6.6-15.8,8.6-32.3,8-49.3c-0.1-3-0.4-5.9-0.4-8.9c-0.1-1.8,0.6-2.7,2.2-3c1.4-0.3,2.8-0.3,4.1-0.5c9.6-1.4,17.7-5.5,23.6-13.3
		C1032.8-44.5,1034.6-53.2,1031.6-62.5z M792.5-69.5c-1.1,0.4-2.3,0.7-3.5,1.2c-4.4,1.8-7.5,5-9.2,9.5c-2.3,6-0.6,11.8,4.4,16
		c1,0.8,2.8,1.1,2.4,3c-0.3,1.2-2.1,0.8-4.4-1.1c-4.1-3.3-6.1-7.5-6-13.5c0-7.5,5.7-15,13.5-17.1c0.7-0.2,1.4-0.3,2.1-0.3
		c0.7-0.1,1.5,0.1,1.7,0.8C793.6-70.4,793.2-69.7,792.5-69.5z M933.7-117.7c0.2-2.2,1.1-3.1,3.3-3.4c1.9-0.2,3.8-0.1,5.7,0.4
		c10.8,2.5,21.2,6,31.3,10.5c1.6,0.7,3.2,1.5,4.4,2.8c0.8,0.9,0.8,2,0,2.8c-0.1,0.1-0.3,0.2-0.4,0.3c-1.5,1-3.2,1.3-5,1.3
		c-3.8,0-7.7-0.1-11.5-0.1c-1.6,0-3.1,0-4.7,0v0.1c-5.1,0-10.1,0.1-15.2,0c-4.8-0.1-6.3-1.3-7.1-5.9c-0.1-0.8-0.3-1.5-0.4-2.3
		C933.7-113.3,933.5-115.5,933.7-117.7z M824.1-103.7c0.4-0.3,0.9-0.5,1.4-0.7c9.4-4.2,18.9-8.1,28.8-11c5.8-1.7,6.2-1,6.2,4.4
		c0,2.8,0.2,5.6,0.1,8.4c-0.1,2.2-1.3,3.6-3.4,4.1c-1.5,0.3-3.1,0.7-4.6,0.7c-4.5,0.1-9.1,0-13.6,0v0.1c-4.5,0-9.1,0.1-13.6,0
		c-1.9,0-4.6,0.4-5.1-1.7C819.6-101.9,822.4-102.6,824.1-103.7z M878.7,26.6c-0.5,0.2-1,0.3-1.5,0.2c-5.1-1.3-9.8-3.3-14.1-6.5
		c-1.8-1.4-3.3-3.1-3.7-5.5c-0.1-0.4,0.3-1.1,0.6-1.3c0.4-0.1,1.2,0.1,1.4,0.4c2.7,5.3,7.7,7.2,12.8,9.1c1.5,0.6,3,1,4.4,1.5
		c0.5,0.2,0.8,0.6,0.7,1.2C879.1,26.1,878.9,26.5,878.7,26.6z M894.9,25.3c-0.2,0-0.3,0-1.4-0.1c-6.3-0.8-13.2-2.5-19.4-6.3
		c-2.6-1.6-4.8-3.5-6.6-5.9c-2.5-3.1-4.8-6.4-6.6-10c-1-1.8-1.9-3.8-1.4-6c0.1-0.3,0.4-0.6,0.7-0.7c0.3-0.1,0.8,0.1,0.9,0.3
		c0.3,0.4,0.6,0.9,0.7,1.4c1.6,5.9,5.2,10.7,9.2,15c4.8,5.2,11.3,7.3,18.1,8.8c2.1,0.4,4.1,0.7,6.2,1.2c0.7,0.1,1.4,0.5,1.3,1.4
		C896.4,25.3,895.6,25.3,894.9,25.3z M908.3-12.6c-1,0.3-2,0.7-3,0.8c-1.9,0.2-3.8,0.2-5.5,0.3c-3.4-0.2-6.6,0.3-9.3-1.8
		c-0.4-0.3-0.6-0.9-0.3-1.3c0.2-0.3,0.6-0.4,0.9-0.5c0.5,0,1.1,0,1.6,0.2c3,1.1,6.2,0.9,9.3,0.9c2.3-0.1,4.5-0.6,6.6-1.5
		c2.3-1,3.7-2.7,3.4-5.3c-0.2-1.7-0.4-3.5-0.8-5.2c-2.4-9.5-4.9-18.9-7.2-28.4c-0.9-3.5-1.8-7.1-1.5-10.8c0-0.3,0.4-0.8,0.6-0.7
		c0.5,0.1,1.1,0.2,1.3,0.6c0.3,0.6,0.4,1.3,0.5,2c0.5,2.6,0.8,5.2,1.4,7.7c2,8.1,4.1,16.2,6.2,24.3c0.8,3.2,1.8,6.4,1.9,9.7
		C914.7-16.5,913.2-14.3,908.3-12.6z M974-26.2c-11.2,0-20.3-6.6-20.3-14.8c0-4.8,3.1-9,8-11.8c-3.3,0.1-6.6,0.2-9.9,0.3
		c-9.4,0.3-18.9,0.2-28.3-0.1c-1.2,0-2.5,0-3.6-0.3c-4.2-0.7-6.2-2.5-6.9-6.7c-0.8-4.5-1.3-9-1.9-13.5c-0.4-2.7-0.4-2.9-3.1-3.2
		c-4.8-0.6-9.7-1-14.6-1.4c-2.7-0.2-5.2,0.6-7.7,1.3c-1.1,0.3-1.8,1.1-1.7,2.3c0.2,3.7,0.3,7.3,0.5,11c0.1,1.8,0.2,3.5-0.2,5.2
		c-0.7,3.6-1.9,4.8-5.5,5.2c-5.7,0.7-11.5,1.4-17.3,0.9c-6-0.4-12-0.6-17.9-0.8c4.6,2.7,7.5,6.8,7.5,11.5c0,8.2-9.1,14.8-20.3,14.8
		c-11.2,0-20.3-6.6-20.3-14.8c0-5.3,3.9-10,9.7-12.6c-0.1,0-0.3,0-0.4-0.1c-1.4-0.1-2.3-0.8-3.1-1.8c-1.1-1.6-2-3.3-2.3-5.2
		c-0.5-2.9-1-5.8-1-8.8c-0.1-5.5-0.3-10.8-0.5-16.3c0-0.5,0-1.1,0-1.6c0-0.2,0-0.4,0-0.5c0.2-2.8,1.2-3.9,4-4.8
		c1.3-0.4,2.7-0.7,4.1-0.8c11.4-0.4,22.8-1.7,34.3-2.1c3.1-0.1,6.1-0.2,9.2-0.1c5.1,0.1,10.2,0.2,15.2,0.5c2.8,0.2,3.2,0.7,3.4,3.6
		c0.3,3.7,0.5,7.3,0.8,11c0.1,1.1,0.7,1.6,1.7,1.3c6.4-1.8,12.8-1,19.3-0.1c6.1,0.8,6.3,0.6,5.6-5.5c-0.3-2.3-0.5-4.5-0.4-6.8
		c0-3.3,1-4.5,4.2-5c4.6-0.7,9.3-1.5,14.1-1.4c3.7,0.1,7.4,0,11,0h10.5c8.6,0.6,17.2,0.2,25.7,1c0.9,0.1,1.8,0.1,2.6,0.2
		c3.2,0.7,4.5,2,4.8,5.2c1,10.5,0.8,21-0.1,31.4c-0.1,0.7-0.2,1.4-0.3,2.1c-0.3,1.3-0.9,2.3-1.9,3c8.1,1.9,13.9,7.5,13.9,14
		C994.4-32.8,985.3-26.2,974-26.2z M1013-39.8c-0.6,0.4-1.3,0.5-1.9,0.6c-0.3,0-0.7-0.3-0.8-0.5c-0.2-0.3-0.2-0.7-0.1-0.9
		c0.4-0.6,0.8-1.2,1.4-1.5c9.7-5.9,8.1-20.9-3.7-26.1c-1.4-0.6-2.9-1.1-4.3-1.7c-0.2-0.1-0.3-0.6-0.2-0.9s0.3-0.7,0.5-0.8
		c1-0.5,2.1-0.1,3.1,0.1c7.9,2.1,13.6,9.6,13.7,15.6C1020.7-47.7,1018.1-43.1,1013-39.8z"/>
	<path id="XMLID_128_" class="st6" d="M325,157.3c-3,3.7-6.5,6.9-10.4,9.6c-4.3,3-8.8,5.7-13.6,7.8c-1.2,0.5-2.5,1.1-3.8,1.6
		c-11.2,4.6-22.8,8.1-34.9,9.5c-4,0.4-8,0.4-12,0.6c-15.5,0-30.2-3.5-44.3-9.4c-1-0.4-2.1-0.9-3-1.4c-4.5-2.2-8.6-5-12.5-8.3
		c-3.5-2.9-6.7-6.2-10.1-9.2c-1.9-1.6-2.5-3.6-2.3-6.1c0.1-1.8,0.3-3.6,0.3-5.4c0.4-5.9,0.8-11.8,1.1-17.6c0.5-8,1.1-16.1,1.6-24.1
		c0.4-6.3,0.8-12.6,1.1-18.9c0-0.5,0.2-1.2,0.5-1.4c0.7-0.5,1.3,0.1,1.8,0.6c4.1,3.9,8.9,6.8,13.5,10c14.6,10.2,30.8,17.1,47.8,22.4
		c11.5,3.6,23.2,6.6,35.2,8.2c11.8,1.6,23.7,2.5,35.6,2.2c2.3-0.1,4.5-0.5,6.8-0.7c1.3-0.1,2,0.4,2.2,1.6c0.1,0.5,0.2,1,0.2,1.5
		c0.3,6.1,0.7,12.1,1.1,18.2c0.1,0.9,0.1,1.8,0.2,2.7C327.1,153.8,326.4,155.5,325,157.3z"/>
	<path id="XMLID_127_" class="st6" d="M521.7,309c-16.4,0.7-32.9,1.3-49.4,1.2c-14.5-0.1-29,0.7-43.6,0.5
		c-9.5-0.1-18.9,0.3-28.4,0.2c-18.5-0.3-37.1-0.2-55.6-0.2c-11,0-22.1,0-33.1-0.1c-17.5-0.2-35-0.5-52.5-0.6
		c-9.6-0.1-19.3,0-28.9,0.2c-16.5,0.2-32.9,0.4-49.4,0.7c-35.7,0.7-71.4,2.9-116.4,3.1c-15.2,0.6-39.3,1.5-63.6,2.5
		c0.5-6.4,1.8-12.7,3.7-18.9c1.1-3.7,2.2-7.4,3.5-11.1c5.9-0.2,11.7-0.3,17.6-0.4c30.3-0.6,60.6-1.9,90.8-2.4
		c31.2-0.5,62.3-1.2,93.5-1.4c20.8-0.2,41.6-0.4,62.5-0.3c15.4,0,30.8,0.1,46.2,0.3c17.5,0.3,35,0.2,52.5,0.2
		c20.1-0.1,40.3-0.3,60.4-0.4c11.4-0.1,22.8,0,34.1-0.1c14.5-0.1,29-0.5,43.5-1.1C513.9,289.8,518,299.2,521.7,309z"/>
	<path id="XMLID_126_" class="st6" d="M494.1,255c-12.2,0.2-24.4,0.2-36.6,0c-16.3-0.3-32.6-0.2-48.8-0.3
		c-14.9-0.1-29.8-0.3-44.6-0.3c-19.8-0.1-39.6-0.4-59.3-0.9c-15.2-0.3-30.4-0.3-45.7-0.3c-21.7,0.1-43.4,0.2-65.1,0.4
		c-14.5,0.1-29.1,0.3-43.6,0.6c-20.5,0.4-41,0.7-61.4,1.3c-23.4,0.7-46.8,1.4-70.2,2.2c0.3-0.6,0.5-1.2,0.8-1.8
		c4.2-9.7,9.8-18.3,16.6-26.1c4.8-0.2,9.6-0.4,14.4-0.6c22.8-0.9,45.5-1.2,68.3-1.6c27.1-0.5,54.3-1.5,81.4-1.7
		c7.4-0.1,14.7-0.3,22.1-0.2c18.4,0.2,36.8,0.2,55.1,0.2c15.9,0.1,31.9,0.3,47.8,0.1c16.1-0.1,32.2,0,48.3,0.3
		c13.1,0.3,26.3,0.5,39.4,0.5c19.7,0,39.5,0.8,59.2,0.3C480.2,235.9,487.6,245.2,494.1,255z"/>
	<path id="XMLID_125_" class="st6" d="M442.4,200.7c-10.3-0.3-20.7-0.6-31-0.8c-8.6-0.2-17.2-0.2-25.7-0.5c-17.7-0.5-35.3-1.1-53-1
		c-8.2,0-16.5-0.1-24.7-0.2c-15.1-0.3-30.1-0.7-45.2-0.8c-9-0.1-17.9-0.1-26.9-0.1h-0.1c-4.3-0.8-8.5-1.8-12.7-3
		c-9.1-2.7-18.1-5.3-26.4-10.1c-4.5-2.6-8.7-5.6-12.6-8.9c4.4,0.1,8.9,0.2,13.3,0.3c4.5,2.8,9.4,5,14.5,6.7c12.9,4.4,26,7,39.6,6.9
		c12.4-0.2,24.4-2.3,36-6.3c5.5-1.9,10.9-3.9,16.2-6.5c5.4,0,10.8,0,16.2,0c0,0,0,0,0,0h0.1c-5.7,4.6-12,8.5-18.8,11.6
		c-4.8,2.2-9.6,4.2-14.7,5.7c-1.2,0.3-2.3,0.8-3.4,1.3c-0.5,0.2-0.8,0.8-0.5,1.3c0.2,0.4,0.8,0.7,1.2,0.7c1-0.1,2.1-0.4,3.1-0.7
		c13.8-4.2,26.2-10.8,37.2-20c15.7,0,31.3,0,47-0.1c8.9,0,17.9-0.1,26.9-0.1c2.7,1.1,5.3,2.2,8,3.3
		C419.1,184.9,431.1,192.2,442.4,200.7z"/>
	<path id="XMLID_124_" class="st6" d="M224.3,197.2L224.3,197.2c-4.9,0-9.7,0.1-14.6,0.1c-18.6,0.2-37.1,0.5-55.7,1
		c-11,0.3-22,0.8-29.5,1.1c-10.9,0-18.3,0-25.6,0.1c-8.7,0.1-17.5,0.3-26.2,0.6c1.7-1.1,3.5-2.1,5.3-3.1c7.9-4.5,15.7-9.1,23.7-13.6
		c7.2-4,14.8-7.2,22.7-9.7c0.7-0.2,1.4-0.4,2-0.6c11.8,0.5,23.5,1.1,35.2,1.5c6.1,0.2,12.1,0.3,18.2,0.4c0,0,0,0,0,0
		c0.1,0.1,0.2,0.2,0.3,0.3c9,8,19.2,14.1,30.6,17.9c3.3,1.1,6.7,2.1,10.1,3C221.9,196.6,223.1,196.9,224.3,197.2z"/>
	<path id="XMLID_120_" class="st5" d="M268,200.4c0,0.1-0.2,0.3-0.3,0.4c-0.6,0.7-1.5,0.8-2.4,0.9c-3.2,0-6.3,0-9.5,0
		c-10.8,0.2-21.2-1.8-31.5-4.5c-1.2-0.3-2.4-0.6-3.6-1c-3.4-0.9-6.7-1.9-10.1-3c-11.5-3.8-21.6-9.9-30.6-17.9
		c-0.1-0.1-0.2-0.2-0.3-0.3c0,0,0,0,0,0c-2.1-1.9-4.2-3.8-6.3-5.8c-0.6-0.6-1.2-1.4-0.2-2.2c0.6-0.5,1.3-0.3,1.9,0.2
		c1.4,1.3,2.9,2.6,4.3,3.9c1.5,1.4,3,2.7,4.6,4c4,3.3,8.2,6.3,12.6,8.9c8.3,4.8,17.3,7.5,26.4,10.1c4.2,1.2,8.5,2.2,12.7,3
		c6.9,1.3,13.8,2,20.9,2.3c2.6,0.1,5.2-0.2,7.9-0.3c1-0.1,2.1-0.3,3,0.4C267.8,199.7,267.9,200.1,268,200.4z"/>
	<path id="XMLID_119_" class="st5" d="M334.6,165.8c-1.4,2.3-3.4,4-5.3,5.8c-1.7,1.6-3.4,3.1-5.1,4.6c-10.9,9.2-23.3,15.8-37.2,20
		c-1,0.3-2,0.6-3.1,0.7c-0.4,0-1-0.3-1.2-0.7c-0.3-0.5,0-1.1,0.5-1.3c1.1-0.5,2.2-1,3.4-1.3c5-1.5,9.9-3.5,14.7-5.7
		c6.8-3.1,13.1-7,18.8-11.6c4.6-3.7,8.8-7.8,12.8-12.2c0.3-0.4,0.8-0.8,1.2-0.9c0.5-0.1,0.9,0.4,1.1,0.8
		C335.4,164.7,334.9,165.3,334.6,165.8z"/>
	<path id="XMLID_8_" class="st5" d="M2175.6-375.6c-0.3-3.2-1.6-4.6-4.8-5.2c-0.9-0.2-1.8-0.1-2.6-0.2c-8.6-0.9-17.1-0.4-25.7-1
		H2132c-3.6,0-7.3,0.1-11,0c-4.8-0.1-9.4,0.7-14.1,1.4c-3.2,0.5-4.1,1.7-4.2,5c0,2.3,0.2,4.5,0.4,6.8c0.7,6,0.5,6.3-5.6,5.5
		c-6.4-0.9-12.9-1.7-19.3,0.1c-1,0.3-1.7-0.3-1.7-1.3c-0.3-3.7-0.6-7.3-0.8-11c-0.2-2.9-0.6-3.4-3.4-3.6c-5.1-0.3-10.1-0.4-15.2-0.5
		c-14.5-0.3-29,1.7-43.5,2.1c-1.4,0.1-2.8,0.4-4.1,0.8c-3,0.9-3.9,2.1-4.1,5.3c0,0.5,0,1,0,1.6c0.2,5.4,0.4,10.8,0.5,16.3
		c0,3,0.5,5.9,1,8.8c0.3,2,1.2,3.7,2.3,5.2c0.7,1,1.7,1.7,3.1,1.8c0.2,0,0.3,0,0.4,0c3.2,0.3,6.3,0.9,9.5,1c4.7,0,9.4,0.1,14,0.2
		c6,0.1,12,0.3,17.9,0.8c5.7,0.4,11.5-0.3,17.3-0.9c3.6-0.4,4.8-1.6,5.5-5.2c0.4-1.7,0.3-3.5,0.2-5.2c-0.2-3.7-0.3-7.4-0.5-11
		c-0.1-1.3,0.6-2,1.7-2.3c2.5-0.7,5-1.6,7.7-1.3c4.9,0.4,9.8,0.8,14.6,1.4c2.7,0.3,2.7,0.5,3.1,3.2c0.6,4.5,1.1,9,1.9,13.5
		c0.7,4.2,2.7,6,6.9,6.7c1.2,0.2,2.4,0.2,3.6,0.3c9.4,0.3,18.9,0.5,28.3,0.1c3.3-0.1,6.6-0.2,9.9-0.3c4.2-0.1,8.5-0.4,12.7-1
		c1.6-0.3,3.1-0.5,4.6-0.7c0.6-0.1,1.1-0.3,1.5-0.5c1-0.6,1.6-1.7,1.9-3c0.2-0.7,0.2-1.4,0.3-2.1
		C2176.4-354.7,2176.6-365.1,2175.6-375.6z M2074.3-342.9c-0.1,2.4-0.7,3.1-3,3.6c-1.4,0.3-2.8,0.3-4.2,0.4c-7,0.6-14,0.6-21-0.1
		c-5.4,0-10.8-0.2-16.2,0c-0.2,0-0.4,0-0.6,0c-3.2,0.1-6.4-0.3-9.5-0.6c-2-0.2-4.1-0.4-6.1-0.5c-1.4,0-2.3-0.8-2.9-1.9
		c-0.9-1.5-1.4-3.2-1.6-4.9c-0.4-4-0.9-8-0.8-12c0.1-3.7-0.2-7.3-0.3-11c0-3.5,0.6-4.3,4.2-4.6c5.5-0.5,11.2-0.7,16.7-1.2
		c13.1-1.3,26.2-1.3,39.3-0.8c0.9,0,1.8,0,2.6,0.1c1.7,0.1,2.1,0.4,2.2,2.2c0.4,6.8,0.8,13.6,1.1,20.4
		C2074.4-350.3,2074.4-346.6,2074.3-342.9z M2173-347c0,1.2-0.1,2.5-0.3,3.7c-0.2,1.4-1,2.2-2.4,2.3c-2.3,0.3-4.5,0.7-6.8,0.9
		c-8,0.5-16.1,0.9-24.1,1.3c0-0.1,0-0.1,0-0.2h-19.9c-2.5,0-4.9-0.3-7.3-0.8c-2.4-0.5-3.7-1.9-4.1-4.2c-0.4-2.2-0.9-4.5-1-6.7
		c-0.5-5.7-0.9-11.5-1.4-17.2c-0.2-2.3-0.5-4.5-0.6-6.8c-0.1-2.1,0.4-2.9,2.6-3.3c6.2-1.2,12.4-1.8,18.7-1.7
		c9.4,0.2,18.9,0.5,28.3,0.8c3,0.1,5.9,0.1,8.9,0.2c1.4,0,2.8,0,4.2,0.2c5.2,0.9,4.9,0.8,5.3,5.9
		C2173.7-364.1,2173.3-355.5,2173-347z"/>
	<path id="XMLID_209_" class="st5" d="M2161.4-41.2c-1,0.3-2,0.7-3,0.8c-1.9,0.2-3.8,0.2-5.5,0.3c-3.4-0.2-6.6,0.3-9.3-1.8
		c-0.4-0.4-0.6-0.9-0.3-1.4c0.2-0.3,0.6-0.4,0.9-0.5c0.5,0,1.1,0,1.6,0.2c3,1.1,6.2,1,9.3,0.9c2.3-0.1,4.5-0.6,6.6-1.5
		c2.3-1,3.7-2.7,3.4-5.3c-0.2-1.7-0.4-3.5-0.8-5.1c-2.4-9.5-4.9-18.9-7.2-28.4c-0.8-3.5-1.8-7.1-1.5-10.8c0-0.3,0.4-0.8,0.6-0.7
		c0.5,0.1,1.1,0.2,1.3,0.6c0.3,0.6,0.4,1.3,0.5,2c0.5,2.6,0.8,5.2,1.4,7.7c2,8.1,4.1,16.2,6.2,24.3c0.8,3.2,1.8,6.4,1.9,9.7
		C2167.8-45.1,2166.3-42.9,2161.4-41.2z"/>
	<path id="XMLID_139_" class="st5" d="M792.5-69.5c-1.1,0.4-2.3,0.7-3.5,1.2c-4.4,1.8-7.5,5-9.2,9.5c-2.3,6-0.6,11.8,4.4,16
		c1,0.8,2.8,1.1,2.4,3c-0.3,1.2-2.1,0.8-4.4-1.1c-4.1-3.3-6.1-7.5-6-13.5c0-7.5,5.7-15,13.5-17.1c0.7-0.2,1.4-0.3,2.1-0.3
		c0.7-0.1,1.5,0.1,1.7,0.8C793.6-70.4,793.2-69.7,792.5-69.5z"/>
	<path id="XMLID_132_" class="st5" d="M1020.5-56c0.1,8.3-2.5,12.9-7.6,16.2c-0.5,0.4-1.3,0.5-1.9,0.6c-0.3,0-0.7-0.3-0.8-0.5
		c-0.2-0.3-0.2-0.7-0.1-0.9c0.4-0.6,0.8-1.2,1.4-1.5c9.7-5.9,8.1-20.9-3.7-26.1c-1.4-0.6-2.9-1.1-4.3-1.7c-0.2-0.1-0.3-0.6-0.2-0.9
		s0.3-0.7,0.5-0.8c1-0.5,2.1-0.1,3.1,0.1C1014.7-69.5,1020.5-62,1020.5-56z"/>
	<g id="XMLID_208_">
		<path id="XMLID_141_" class="st5" d="M2855.2,78.5c-0.1,0.9-0.9,0.9-1.6,0.9c-0.2,0-0.4,0-1.4-0.1c-6.3-0.8-13.2-2.5-19.4-6.3
			c-2.6-1.6-4.8-3.5-6.6-5.9c-2.5-3.1-4.8-6.4-6.6-10c-0.9-1.9-1.9-3.8-1.4-6c0.1-0.3,0.4-0.6,0.7-0.7c0.3-0.1,0.8,0.1,0.9,0.3
			c0.3,0.4,0.6,0.9,0.7,1.4c1.6,5.9,5.2,10.7,9.2,15c4.8,5.2,11.3,7.3,18.1,8.8c2.1,0.4,4.1,0.7,6.2,1.2
			C2854.6,77.3,2855.3,77.7,2855.2,78.5z"/>
		<path id="XMLID_131_" class="st5" d="M2838,80c-0.2,0.3-0.4,0.6-0.6,0.7c-0.5,0.2-1,0.3-1.5,0.2c-5.1-1.3-9.9-3.3-14.1-6.5
			c-1.8-1.4-3.3-3.1-3.7-5.5c-0.1-0.4,0.3-1.1,0.6-1.3c0.4-0.1,1.2,0.1,1.4,0.4c2.7,5.3,7.7,7.2,12.8,9.1c1.5,0.5,2.9,1,4.4,1.5
			C2837.8,79,2838.1,79.4,2838,80z"/>
	</g>
	<g id="XMLID_224_">
		<path id="XMLID_236_" class="st5" d="M1601.3-120.2c-1.5,1-3.2,1.3-5,1.3c-3.8,0-7.7-0.1-11.5-0.1c-1.6,0-3.1,0-4.7,0v0.1
			c-5.1,0-10.1,0.1-15.2,0c-4.8-0.1-6.3-1.3-7.1-5.9c-0.5-2.9-0.9-5.9-0.6-8.9c0.2-2.2,1.1-3.1,3.3-3.4c1.9-0.2,3.8-0.1,5.7,0.4
			c10.8,2.5,21.2,6,31.3,10.5c1.6,0.7,3.2,1.5,4.4,2.8C1602.6-122.3,1602.5-121,1601.3-120.2z"/>
		<path id="XMLID_235_" class="st5" d="M1484-118.6c-0.1,2.2-1.3,3.6-3.4,4.1c-1.5,0.3-3.1,0.7-4.6,0.7c-4.5,0.1-9.1,0-13.6,0v0.1
			c-4.5,0-9.1,0.1-13.6,0c-1.9,0-4.6,0.4-5.1-1.7c-0.6-2.4,2.2-3.1,3.9-4.3c0.4-0.3,0.9-0.5,1.4-0.7c9.4-4.2,18.9-8.1,28.8-11
			c5.8-1.7,6.2-1,6.2,4.4C1483.9-124.2,1484.1-121.4,1484-118.6z"/>
		<path id="XMLID_230_" class="st5" d="M1594.4-94.8c-2.2-5.1-6.1-8-11.3-9.4c-3.6-1-7.2-1.5-11.2-1.2c-3.6-0.4-7.4,0.3-11.2,1.1
			c-5.2,1.1-10,3-14.2,6.3c-6.7,5.3-5.6,15,1.1,19.2c2.1,1.3,4.3,2.4,6.7,3.1c10,2.7,20,2.8,29.9-0.6c2.1-0.8,4.2-1.8,6.1-3.1
			C1595.5-83.3,1596.9-88.9,1594.4-94.8z M1551-82.4c0.2,0.6,0.7,1.4-0.1,1.8c-0.3,0.2-1-0.2-1.4-0.4c-6.1-4-6.4-10.5-0.9-15.2
			c0.8-0.7,1.7-1.2,2.5-1.7c0.4,0.4,0.9,0.6,0.8,0.8c-0.2,0.8-0.5,1.6-0.8,2.5C1549.8-90.6,1549.5-86.5,1551-82.4z M1590.9-83.8
			c-0.8,0.9-1.7,1.7-2.7,2.4c-1.3,0.9-2.9,2.5-4.1,1.8c-1.5-0.9,0-2.7,0.3-4.1c1-5.4,1.1-10.7-0.8-16c-0.2-0.5-0.2-1,0.3-1.3
			c0.3-0.1,0.7,0,1,0.1c5,2.1,7.4,6.1,8,10.4C1593.1-87.3,1592.3-85.4,1590.9-83.8z"/>
		<path id="XMLID_225_" class="st5" d="M1494.1-97.6c-2.5-2-5.1-3.7-8.1-4.8c-5.8-2.1-11.8-3.3-18-3.1c-5.6,0-9.8,0.7-13.4,2.1
			c-4.6,1.8-7.5,5-9.2,9.5c-2,5.4-0.5,10.6,4,14.1c2.2,1.7,4.7,3,7.4,3.8c8.9,2.8,17.9,2.8,27,0.9c3.4-0.7,6.6-2.1,9.5-4.2
			C1499.2-83.7,1500-92.8,1494.1-97.6z M1447.3-89.4c0.2-5.5,3-9.4,8.7-11.7c-0.8,2.7-1.5,5-2,7.3c-0.5,2.2-0.3,4.5-0.1,6.7
			c0.2,2.4,0.9,4.7,2.2,8C1451-81.5,1447.1-84.1,1447.3-89.4z M1492.1-81.9c-1.5,1.1-3.1,2.2-4.9,2.6c-0.2-0.3-0.4-0.5-0.4-0.6
			c2-5.9,1.6-11.6-0.5-17.3c-0.2-0.5-0.3-1.2,0.3-1.4c0.4-0.2,1,0,1.4,0.2c1.7,0.9,3.2,2,4.7,3.3
			C1496.9-91.4,1495.9-84.8,1492.1-81.9z"/>
	</g>
	<path id="XMLID_10_" class="st6" d="M2047.2,250.2c-1.5,1.1-3.1,2.2-4.9,2.6c-0.2-0.3-0.4-0.5-0.4-0.6c2-5.9,1.6-11.6-0.5-17.3
		c-0.2-0.5-0.3-1.2,0.3-1.4c0.4-0.2,1,0,1.4,0.2c1.7,0.9,3.2,2,4.7,3.3C2052.1,240.7,2051,247.3,2047.2,250.2z"/>
	<path id="XMLID_4_" class="st5" d="M1956.1,353.5"/>
	<path id="XMLID_20_" class="st5" d="M180,79.1c0-0.3-0.3-3.1-0.5-6.5c-0.3-5.1-0.5-9.4-0.5-12.5c48.3,0,96.7,0,145,0
		c0.2,3.2,0.3,6.3,0.5,9.5c0.6,12.8,1.1,25.5,1.5,38c-11.6,2.3-26.7,4.4-44.5,4.5C222,112.3,181.1,89.1,180,79.1z"/>
</g>
</svg>
