<?xml version="1.0" encoding="utf-8"?>
<!-- Generator: Adobe Illustrator 19.0.0, SVG Export Plug-In . SVG Version: 6.00 Build 0)  -->
<svg version="1.1" id="Warstwa_1" xmlns="http://www.w3.org/2000/svg" xmlns:xlink="http://www.w3.org/1999/xlink" x="0px" y="0px"
	 viewBox="0 0 32 32" style="enable-background:new 0 0 32 32;" xml:space="preserve">
<style type="text/css">
	.st0{fill:#FFFFFF;}
</style>
<path id="XMLID_131_" class="st0" d="M14.3,6.4C18,6.3,21.5,7,25,8.3c1.8,0.7,3.3,1.7,4.8,2.9c3.3,2.8,2.8,8.2-0.6,10.7
	c-2,1.4-4.2,2.4-6.6,2.8c-4.9,0.8-9.8,0.9-14.6-0.5c-1.8-0.5-3.5-1.3-5-2.4c-2.8-2.2-3.7-5.3-2.3-8.7c1-2.4,2.6-4.2,5.1-5.3
	c2.2-0.9,4.4-1.3,6.7-1.3C13,6.4,13.6,6.4,14.3,6.4z M1.5,16c0.1,2.7,1.7,4.3,3.8,5.4c0.2,0.1,0.7,0.2,0.8,0.1
	c0.2-0.2,0.2-0.6,0.2-0.9c-0.6-3-0.8-6-0.1-9c0.1-0.6,0.7-1.6-0.2-1.9C5.5,9.3,4.7,10,4.2,10.5C2.6,12,1.7,13.8,1.5,16z M25.6,10.6
	c0,0.4-0.1,0.7-0.1,1c0.7,3.3,0.7,6.6-0.6,9.8c-0.1,0.2,0,0.4,0.1,0.5c0.1,0.1,0.4,0.1,0.5,0.1c1.1-0.5,2.2-1.1,3.2-1.9
	c1.8-1.6,2.3-5.2,0.2-7.3C28,11.9,27,11,25.6,10.6z"/>
</svg>
