<?xml version="1.0" encoding="utf-8"?>
<!-- Generator: Adobe Illustrator 19.0.0, SVG Export Plug-In . SVG Version: 6.00 Build 0)  -->
<svg version="1.1" id="Warstwa_1" xmlns="http://www.w3.org/2000/svg" xmlns:xlink="http://www.w3.org/1999/xlink" x="0px" y="0px"
	 viewBox="0 0 32 32" style="enable-background:new 0 0 32 32;" xml:space="preserve">
<style type="text/css">
	.st0{fill:#FFFFFF;}
</style>
<path id="XMLID_62_" class="st0" d="M31.4,13.7c-0.3-1.1-1.2-1.7-2.3-1.7c0,0,0,0,0,0c0-6.5-5.8-11.8-12.9-11.8S3.4,5.5,3.4,12
	c0,0.1,0,0.1,0,0.2c0,0,0,0,0,0c-0.3-0.1-0.7-0.1-1,0c-0.8,0.2-1.4,0.7-1.7,1.5c-0.3,0.6-0.3,1.3-0.1,2c0.3,1.3,1,2.3,2.1,3.1
	c0.3,0.2,0.7,0.3,1,0.4c0.4,0.1,0.4,0.1,0.5,0.5c0.3,1.7,0.9,3.3,1.6,4.9c0.9,1.7,2,3.3,3.4,4.6c1.6,1.4,3.5,2.4,5.7,2.7
	c0.6,0.1,1.2,0,1.8-0.1c1.6-0.2,3-0.6,4.4-1.5c1.4-0.9,2.5-1.9,3.5-3.2c1.5-2,2.5-4.3,3.1-6.7c0.1-0.3,0.1-0.7,0.2-1
	c0-0.1,0.1-0.2,0.2-0.2c0,0,0,0,0.1,0c0.1,0,0.2-0.1,0.3-0.1c0.1,0,0.3-0.1,0.4-0.1c0.1,0,0.2-0.1,0.3-0.1c0,0,0,0,0,0
	c0.3-0.2,0.6-0.4,0.9-0.6c0.6-0.6,1.1-1.3,1.4-2.1c0-0.1,0-0.1,0.1-0.2c0.1-0.4,0.2-0.8,0.2-1.2c0,0,0,0,0,0
	C31.6,14.3,31.5,14,31.4,13.7z"/>
</svg>
