<?xml version="1.0" encoding="utf-8"?>
<!-- Generator: Adobe Illustrator 19.0.0, SVG Export Plug-In . SVG Version: 6.00 Build 0)  -->
<svg version="1.1" id="Warstwa_1" xmlns="http://www.w3.org/2000/svg" xmlns:xlink="http://www.w3.org/1999/xlink" x="0px" y="0px"
	 viewBox="0 0 32 32" style="enable-background:new 0 0 32 32;" xml:space="preserve">
<style type="text/css">
	.st0{fill:#FFFFFF;}
</style>
<path id="XMLID_56_" class="st0" d="M15.7,28.5c-3.4-0.2-6.4-0.1-9.3-1c-3.7-1.1-6.1-4.1-6.4-7.8c0-0.2,0.2-0.6,0.4-0.7
	c0.2-0.1,0.6,0.1,0.7,0.3c0.4,0.8,0.7,1.6,1,2.4c0.8,2.5,2.6,3.8,5,4.4c1.3,0.3,2.7,0.6,4,0.6c2.9,0.1,5.8,0.1,8.7,0.1
	c0.5,0,1-0.1,1.4-0.1c3.6-0.4,6.1-2.2,7.7-5.5c0.5-1.1,0.8-2.4,1.7-3.3c0.2-0.2,0.5-0.3,0.7-0.1c0.1,0.1,0.2,0.3,0.2,0.5
	c0,0.1,0,0.2,0,0.3c-0.9,2.3-1.9,4.5-3.5,6.3c-1.7,2-3.9,2.8-6.4,3.1C19.6,28.3,17.5,28.3,15.7,28.5z"/>
<path id="XMLID_57_" class="st0" d="M18.1,5.3c2,0,3.3,0,4.7,0c3.3,0,5.8,1.5,7.3,4.4c0.4,0.8,0.8,1.6,1.1,2.4
	c0.1,0.2-0.1,0.6-0.3,0.7c-0.2,0.2-0.6,0.1-0.8-0.1c-0.3-0.4-0.6-0.8-0.8-1.2c-1.5-3.7-4.3-4.9-8.1-4.9c-3.6,0-7.2,0.3-10.8,0.5
	C9.4,7.2,8.2,7.5,7.1,7.8c-2.2,0.7-4,2-4.9,4.2c-0.3,0.6-0.4,1.3-1,1.7c-0.1,0.1-0.4,0.1-0.5,0.1c-0.2-0.1-0.3-0.3-0.3-0.4
	c0-0.4,0.1-0.8,0.2-1.1C2,8.1,5.3,6.3,9.4,5.8C12.5,5.4,15.6,5.1,18.1,5.3z"/>
<path id="XMLID_58_" class="st0" d="M5.6,17c-1.3,0-2.4,0-3.5,0c-0.3,0-0.5-0.3-0.5-0.6c0-0.4,0.2-0.5,0.5-0.6
	c0.3-0.1,0.6-0.1,0.9-0.1C9.2,15.3,15.4,15,21.6,15c2.6,0,5.2-0.3,7.8-0.4c0.7,0,1.4-0.1,2,0c0.2,0,0.5,0.2,0.5,0.6
	c0,0.4-0.3,0.5-0.5,0.6c-0.2,0.1-0.4,0.1-0.6,0.1c-2.2,0.2-4.4,0.6-6.7,0.6c-4.1,0-8.1,0.1-12.2,0.2C9.8,16.6,7.6,17.2,5.6,17z"/>
</svg>
