<?xml version="1.0" encoding="utf-8"?>
<!-- Generator: Adobe Illustrator 19.0.0, SVG Export Plug-In . SVG Version: 6.00 Build 0)  -->
<svg version="1.1" id="Warstwa_1" xmlns="http://www.w3.org/2000/svg" xmlns:xlink="http://www.w3.org/1999/xlink" x="0px" y="0px"
	 viewBox="0 0 32 32" style="enable-background:new 0 0 32 32;" xml:space="preserve">
<style type="text/css">
	.st0{fill:#FFFFFF;}
</style>
<path id="XMLID_55_" class="st0" d="M11.5,32c-0.6,0-1.7-0.1-2.9-0.1c-1.2,0-2-0.7-2.3-1.9c-0.2-0.8-0.4-1.5-0.6-2.3
	c-0.1-0.3,0.2-0.5,0.4-0.6c0.3-0.1,0.6,0.1,0.7,0.3c0.3,0.7,0.5,1.3,0.7,2c0.2,0.8,0.8,1.2,1.6,1.2c1.3,0,2.7,0.1,4,0
	c2.5-0.1,5-0.5,7.4-1c0.3-0.1,0.5-0.1,0.8-0.2c3.6-1.1,5-3.4,4.3-7.2c-0.2-1.1-0.6-2.2-0.9-3.3c-0.9-2.5-2-5-3.3-7.3
	c-1.7-3.2-3.4-6.5-4.7-9.9c-0.1-0.3-0.3-0.6-0.4-1c0-0.2,0.1-0.6,0.3-0.6c0.2-0.1,0.6,0.1,0.7,0.2c0.3,0.4,0.6,0.9,0.8,1.4
	c1.5,3.8,3.5,7.4,5.4,11.1c1.4,2.7,2.5,5.5,3.3,8.5c0.5,1.9,0.4,3.7-0.2,5.5c-0.4,1.3-1.1,2.2-2.2,2.9c-1,0.6-2.1,1-3.2,1.3
	C18.2,31.5,15.2,31.9,11.5,32z"/>
</svg>
